M48
METRIC,LZ,000.000
;FILE_FORMAT=3:3
;TYPE=PLATED
;Layer: PTH_Through
;EasyEDA v6.5.21, 2022-10-22 16:28:30
;167bdced229c4b2ca01845534b4d4eab,294cf934c43b457281b0b0dcd80bbfec,10
;Gerber Generator version 0.2
;Holesize 1 = 0.600 mm
T01C0.600
%
G05
G90
T01
X-003210Y012199
X-005110Y010999
X-002210Y012199
X-001210Y012199
X-000210Y012199
X002790Y012199
X001790Y012199
X000790Y012199
X006790Y012199
X007790Y012199
X008790Y012199
X005790Y012199
X004790Y012199
X003790Y012199
X015790Y012198
X016790Y012198
X017790Y012198
X020790Y012198
X019790Y012198
X018790Y012198
X013790Y012199
X014790Y012199
X012790Y012199
X011790Y012199
X010790Y012199
X009790Y012199
X024790Y012198
X023790Y012198
X022790Y012198
X021790Y012198
X-005110Y009999
X-005110Y008999
X-005110Y007999
X-005110Y006999
X-005110Y005999
X-005110Y-002000
X-005110Y-003000
X-005110Y-000000
X-005110Y004000
X-005110Y002999
X-005110Y002000
X-005110Y001000
X-005110Y005000
X-005110Y-001000
X-005110Y-004001
X-005110Y-005001
X-005110Y-006001
X-005110Y-007001
X-003210Y-008201
X021790Y-008202
X022790Y-008202
X023790Y-008202
X024790Y-008202
X009790Y-008201
X010790Y-008202
X011790Y-008202
X014790Y-008202
X013790Y-008202
X012790Y-008202
X018790Y-008202
X020790Y-008201
X019790Y-008201
X017790Y-008202
X016790Y-008202
X015790Y-008202
X003790Y-008201
X004790Y-008201
X005790Y-008201
X008790Y-008201
X007790Y-008201
X006790Y-008201
X000790Y-008201
X001790Y-008201
X002790Y-008201
X-000210Y-008201
X-001210Y-008201
X-002210Y-008201
X026690Y-007001
X026690Y-006001
X026690Y-005001
X026690Y-004001
X026690Y-003001
X026690Y-002001
X026690Y-001001
X026690Y-000001
X026690Y000999
X026690Y001999
X026690Y002999
X026690Y003999
X026690Y004999
X026690Y005999
X026690Y006999
X026690Y007999
X026690Y008999
X026690Y009999
X026690Y010999
M30
