M48
METRIC,LZ,000.000
;FILE_FORMAT=3:3
;TYPE=PLATED
;Layer: PTH_Through_Via
;EasyEDA v6.5.21, 2022-10-22 16:28:30
;167bdced229c4b2ca01845534b4d4eab,294cf934c43b457281b0b0dcd80bbfec,10
;Gerber Generator version 0.2
;Holesize 1 = 0.281 mm
T01C0.281
;Holesize 2 = 0.301 mm
T02C0.301
;Holesize 3 = 0.320 mm
T03C0.320
;Holesize 4 = 0.351 mm
T04C0.351
%
G05
G90
T01
X014515Y-004701
X013915Y-004701
X013165Y-003651
X013615Y-002851
X013090Y-003101
X014740Y-002676
X014740Y-002126
X013090Y-002526
X011940Y-002576
X012290Y-003051
X010740Y-002626
X010015Y-002226
X017515Y-000426
X016665Y-000426
X017090Y-000026
X018990Y005749
X014315Y003974
X014765Y004274
X015215Y003974
X014315Y003199
X015215Y003224
X015215Y002674
X019215Y001199
X018940Y000699
X019215Y000199
X018940Y-000301
X018115Y-002776
X017540Y-002776
X020740Y009249
X021290Y008849
X021865Y009274
X018565Y002474
X005390Y-002976
X005890Y-003926
X008965Y-002926
X008615Y-002476
X008990Y-002026
X008190Y-001201
X005390Y-002401
X-000902Y003799
X008990Y-001201
X009790Y-001201
X008990Y-000401
X009790Y-000401
X008990Y000399
X009790Y000399
X009790Y001199
X017490Y001574
X019640Y-002101
X011415Y007599
X010640Y007599
X012190Y007599
X023515Y-000751
X010190Y001724
X010190Y002399
X019215Y002899
X018940Y003424
X011540Y-007126
X017140Y-006101
X003840Y-002926
X004140Y-002426
X004715Y-002151
X004190Y-001199
X001440Y-002701
X000840Y-002401
X010315Y-007326
X003390Y-000401
X002590Y000399
X003915Y000399
X004765Y000824
X001790Y001998
X001790Y001198
X002590Y001199
X002590Y001998
X000890Y002199
X022965Y-001201
X014765Y006449
X013865Y006799
X015290Y006799
X015290Y007449
X-004077Y011399
X003950Y-006950
X003748Y001524
X003590Y006999
X001790Y007599
X000323Y008774
X004290Y006974
X000523Y008099
X014290Y007999
X015290Y007999
X014315Y008799
X015290Y008799
X014490Y009549
X015365Y009874
X011815Y008099
X012214Y010825
X011389Y009999
X003390Y009999
X003540Y008974
X004165Y008349
X004965Y008349
X005765Y008349
X011390Y010824
X009940Y007599
X010590Y009999
X010590Y009199
X010990Y008799
X009790Y009999
X009790Y009199
X004190Y009199
X004990Y009199
X007365Y009999
X007390Y008949
X008990Y009999
X008190Y009999
X008190Y009199
X008990Y009199
X000998Y007599
T02
X018690Y-005851
X007390Y002799
X007390Y001999
X008190Y001999
X008990Y001999
X008190Y002799
X007390Y001199
X008190Y001199
X008190Y006774
X008990Y006774
X009790Y006774
X008190Y005974
X008990Y005974
X009790Y005974
X008990Y005199
X009790Y005199
X008990Y002799
X006865Y-003476
X006865Y-002876
X009790Y003599
X010590Y003599
X007790Y003999
X006590Y005999
X005790Y005999
X006590Y006799
X005790Y006799
X006590Y005199
X005790Y005199
X004990Y005199
X004990Y004399
X005790Y004399
X004990Y002799
X005790Y003549
X005715Y001274
X005791Y002000
X015268Y-003476
X015741Y-002853
X016211Y-003476
X008965Y-005851
X009665Y-005851
X003340Y000399
X004590Y001524
X002590Y002774
X004190Y010000
X021765Y000174
X022290Y-000276
X020465Y001599
X019190Y010449
X020265Y010099
X025948Y009999
T03
X016440Y005524
X024915Y006874
X-001025Y002100
X003298Y004599
X-004102Y004449
X025215Y009974
X024965Y-001501
X016865Y001824
X018340Y004749
X017315Y005474
X017515Y004724
X017040Y002574
X017415Y002149
X018565Y001774
X-003702Y-000551
X-003402Y001124
X-002377Y009249
X-003100Y-003425
X-002327Y007399
X-000352Y010649
X-001302Y010749
X-003877Y009399
X-000327Y008049
X-001877Y-000476
X-000452Y-001275
X-001877Y-001400
X-000902Y004374
X-002777Y004374
X-000327Y-002926
X-003052Y009249
X-000000Y-000000
T04
X015340Y-004051
X015740Y-004451
X016715Y-004551
X017090Y-004226
X018640Y-004451
X019140Y-004076
X014190Y-006426
X002400Y-004750
X016165Y008824
X017790Y006874
X013090Y-006451
X020915Y-007051
X015915Y-006426
X009690Y-004001
X-003700Y-003425
X005340Y-003926
X006415Y-004576
X006865Y-004126
X-000110Y-006876
X-004127Y-001526
X022290Y-007200
X023290Y-007201
X025652Y-004501
X025652Y-005476
X025652Y-006526
X025652Y-003526
X025652Y-002551
X025652Y-001501
X025652Y002499
X025652Y003499
X025652Y004449
X023365Y006574
X023715Y003524
X025652Y001474
X003250Y-004750
X005415Y-004750
X022390Y006574
X024365Y-002551
X025652Y000474
X025652Y-000526
X025652Y005399
X016990Y006874
X000948Y-004051
M30
