G04 Layer: TopSolderMaskLayer*
G04 EasyEDA v6.5.21, 2022-10-22 16:28:30*
G04 167bdced229c4b2ca01845534b4d4eab,294cf934c43b457281b0b0dcd80bbfec,10*
G04 Gerber Generator version 0.2*
G04 Scale: 100 percent, Rotated: No, Reflected: No *
G04 Dimensions in millimeters *
G04 leading zeros omitted , absolute positions ,4 integer and 5 decimal *
%FSLAX45Y45*%
%MOMM*%

%AMMACRO1*1,1,$1,$2,$3*1,1,$1,$4,$5*1,1,$1,0-$2,0-$3*1,1,$1,0-$4,0-$5*20,1,$1,$2,$3,$4,$5,0*20,1,$1,$4,$5,0-$2,0-$3,0*20,1,$1,0-$2,0-$3,0-$4,0-$5,0*20,1,$1,0-$4,0-$5,$2,$3,0*4,1,4,$2,$3,$4,$5,0-$2,0-$3,0-$4,0-$5,$2,$3,0*%
%AMMACRO2*4,1,5,-0.301,-0.2261,-0.301,-0.1041,0.0292,0.2261,0.301,0.2261,0.301,-0.2261,-0.301,-0.2261,0*%
%AMMACRO3*4,1,5,-0.2756,-0.2248,-0.2756,0.2248,0.2756,0.2248,0.2756,0.0546,-0.0038,-0.2248,-0.2756,-0.2248,0*%
%AMMACRO4*4,1,5,-0.2756,-0.2261,-0.2756,0.2261,-0.0038,0.2261,0.2756,-0.0533,0.2756,-0.2261,-0.2756,-0.2261,0*%
%AMMACRO5*4,1,5,0.0051,-0.2248,-0.2769,0.0546,-0.2769,0.2248,0.2769,0.2248,0.2769,-0.2248,0.0051,-0.2248,0*%
%AMMACRO6*4,1,5,0.1054,-0.301,-0.2248,0.0292,-0.2248,0.301,0.2248,0.301,0.2248,-0.301,0.1054,-0.301,0*%
%AMMACRO7*4,1,5,-0.2261,-0.2756,-0.2261,0.2756,-0.0533,0.2756,0.2261,-0.0038,0.2261,-0.2756,-0.2261,-0.2756,0*%
%AMMACRO8*4,1,5,-0.2248,-0.2756,-0.2248,-0.0038,0.0546,0.2756,0.2248,0.2756,0.2248,-0.2756,-0.2248,-0.2756,0*%
%AMMACRO9*4,1,5,-0.2261,-0.2756,-0.2261,0.2756,0.2261,0.2756,0.2261,0.0038,-0.0533,-0.2756,-0.2261,-0.2756,0*%
%AMMACRO10*4,1,20,-0.4394,-1.9507,-0.4394,-1.2497,-0.8763,-1.2497,-0.8763,1.2497,-0.4394,1.2497,-0.4394,1.9507,-0.0584,1.9507,-0.0584,1.2497,0.0584,1.2497,0.0584,1.9507,0.442,1.9507,0.442,1.2497,0.8763,1.2497,0.8763,-1.2497,0.442,-1.2497,0.442,-1.9507,0.0584,-1.9507,0.0584,-1.2497,-0.0584,-1.2497,-0.0584,-1.9507,-0.4394,-1.9507,0*%
%ADD10MACRO1,0.1016X0.4X-0.5X0.4X0.5*%
%ADD11MACRO1,0.1016X-0.4X-0.5X-0.4X0.5*%
%ADD12MACRO1,0.1016X-0.4X0.5X-0.4X-0.5*%
%ADD13MACRO1,0.1016X0.4X0.5X0.4X-0.5*%
%ADD14MACRO2*%
%ADD15MACRO3*%
%ADD16MACRO4*%
%ADD17MACRO5*%
%ADD18MACRO1,0.1016X0X-0.3535X-0.3535X0*%
%ADD19MACRO6*%
%ADD20MACRO7*%
%ADD21MACRO8*%
%ADD22MACRO9*%
%ADD23MACRO1,0.1016X0.3535X0X0X-0.3535*%
%ADD24MACRO1,0.1016X0.395X0.27X0.395X-0.27*%
%ADD25MACRO1,0.1016X-0.395X0.27X-0.395X-0.27*%
%ADD26MACRO1,0.1016X0.27X-0.395X-0.27X-0.395*%
%ADD27MACRO1,0.1016X0.27X0.395X-0.27X0.395*%
%ADD28MACRO1,0.1016X-0.395X-0.27X-0.395X0.27*%
%ADD29MACRO1,0.1016X0.395X-0.27X0.395X0.27*%
%ADD30MACRO1,0.1016X0.162X-0.1842X-0.162X-0.1842*%
%ADD31MACRO1,0.1016X0.162X0.1842X-0.162X0.1842*%
%ADD32MACRO1,0.1016X0.1842X0.162X0.1842X-0.162*%
%ADD33MACRO1,0.1016X-0.1842X0.162X-0.1842X-0.162*%
%ADD34MACRO1,0.1016X-0.1842X-0.162X-0.1842X0.162*%
%ADD35MACRO1,0.1016X0.1842X-0.162X0.1842X0.162*%
%ADD36MACRO1,0.1016X-0.1516X-0.162X-0.1516X0.162*%
%ADD37MACRO1,0.1016X0.1516X-0.162X0.1516X0.162*%
%ADD38MACRO1,0.1016X0.1516X0.162X0.1516X-0.162*%
%ADD39MACRO1,0.1016X-0.1516X0.162X-0.1516X-0.162*%
%ADD40MACRO1,0.1016X0.162X-0.1516X-0.162X-0.1516*%
%ADD41MACRO1,0.1016X0.162X0.1516X-0.162X0.1516*%
%ADD42MACRO1,0.1016X0.4625X-0.65X0.4625X0.65*%
%ADD43MACRO1,0.1016X-0.4625X-0.65X-0.4625X0.65*%
%ADD44MACRO1,0.1016X-0.162X0.1842X0.162X0.1842*%
%ADD45MACRO1,0.1016X-0.162X-0.1842X0.162X-0.1842*%
%ADD46MACRO1,0.1016X-0.1843X0.162X-0.1843X-0.162*%
%ADD47MACRO1,0.1016X-0.162X0.1516X0.162X0.1516*%
%ADD48MACRO1,0.1016X-0.162X-0.1516X0.162X-0.1516*%
%ADD49R,0.4256X0.4700*%
%ADD50MACRO1,0.1016X0.86X0.5X0.86X-0.5*%
%ADD51MACRO1,0.1016X-0.2828X-0.27X-0.2828X0.27*%
%ADD52MACRO1,0.1016X0.2828X-0.27X0.2828X0.27*%
%ADD53MACRO1,0.1016X0.2828X0.27X0.2828X-0.27*%
%ADD54MACRO1,0.1016X-0.2828X0.27X-0.2828X-0.27*%
%ADD55C,0.4401*%
%ADD56C,0.4400*%
%ADD57MACRO10*%
%ADD58MACRO1,0.1016X-0.425X-0.14X-0.425X0.14*%
%ADD59MACRO1,0.1016X0.425X0.14X0.425X-0.14*%
%ADD60MACRO1,0.1016X-0.175X0.25X0.175X0.25*%
%ADD61MACRO1,0.1016X-0.7249X0.4249X0.7249X0.4249*%
%ADD62MACRO1,0.1016X-0.2525X-0.15X0.2525X-0.15*%
%ADD63MACRO1,0.1016X0.2525X-0.15X-0.2525X-0.15*%
%ADD64MACRO1,0.1016X-0.3X0.6X0.3X0.6*%
%ADD65MACRO1,0.1016X-2.15X-1.7X-2.15X1.7*%
%ADD66MACRO1,0.1016X-0.6X-0.3X-0.6X0.3*%
%ADD67MACRO1,0.1016X0.3X-0.6X-0.3X-0.6*%
%ADD68C,0.0175*%

%LPD*%
G36*
X-399389Y-370687D02*
G01*
X-399389Y-501243D01*
X-383438Y-501243D01*
X-383438Y-471474D01*
X-299008Y-471474D01*
X-299008Y-457758D01*
X-383438Y-457758D01*
X-383438Y-397967D01*
X-372211Y-386740D01*
X-226009Y-386740D01*
X-226009Y-471474D01*
X-171246Y-471474D01*
X-171246Y-386740D01*
X-141579Y-386740D01*
X-141579Y-490016D01*
X-152755Y-501243D01*
X-245668Y-501243D01*
X-255676Y-491896D01*
X-255676Y-386740D01*
X-269341Y-386740D01*
X-269341Y-416509D01*
X-353771Y-416509D01*
X-353771Y-430225D01*
X-276453Y-430225D01*
X-269341Y-440435D01*
X-269341Y-490677D01*
X-279247Y-501243D01*
X-399389Y-501243D01*
X-399389Y-515010D01*
X-278485Y-515010D01*
X-269341Y-524154D01*
X-269341Y-566013D01*
X-256235Y-566013D01*
X-248767Y-543509D01*
X-234289Y-525881D01*
X-211175Y-514756D01*
X-180695Y-516686D01*
X-160629Y-528472D01*
X-148082Y-546608D01*
X-141528Y-568604D01*
X-146050Y-593394D01*
X-161188Y-614527D01*
X-185420Y-627227D01*
X-211175Y-627126D01*
X-221437Y-622503D01*
X-226009Y-620217D01*
X-230276Y-617626D01*
X-234238Y-614832D01*
X-237845Y-611733D01*
X-241147Y-608431D01*
X-244094Y-604774D01*
X-246786Y-600913D01*
X-253644Y-588010D01*
X-256235Y-566013D01*
X-269341Y-566013D01*
X-269341Y-617575D01*
X-278079Y-628396D01*
X-383438Y-629869D01*
X-383438Y-515010D01*
X-399389Y-515010D01*
X-399389Y-640994D01*
X-141579Y-640994D01*
X-141579Y-698246D01*
X-383438Y-698246D01*
X-383438Y-640994D01*
X-399389Y-640994D01*
X-399389Y-714298D01*
X-125577Y-714298D01*
X-125577Y-370687D01*
G37*
G36*
X-353771Y-542493D02*
G01*
X-353771Y-599744D01*
X-299008Y-599744D01*
X-299008Y-542493D01*
G37*
G36*
X-374294Y-645566D02*
G01*
X-374294Y-695960D01*
X-365150Y-695960D01*
X-365150Y-654761D01*
X-358343Y-654761D01*
X-358343Y-695960D01*
X-349199Y-695960D01*
X-349199Y-654761D01*
X-342341Y-654761D01*
X-342341Y-695960D01*
X-333248Y-695960D01*
X-333248Y-645566D01*
G37*
G36*
X-297484Y-645566D02*
G01*
X-306527Y-646023D01*
X-309626Y-646531D01*
X-311150Y-647090D01*
X-312674Y-648614D01*
X-312674Y-654761D01*
X-296722Y-654761D01*
X-296722Y-663651D01*
X-301294Y-666445D01*
X-301294Y-654761D01*
X-312674Y-654761D01*
X-312674Y-695960D01*
X-301294Y-695960D01*
X-301294Y-675335D01*
X-296722Y-675335D01*
X-296722Y-695960D01*
X-285292Y-695960D01*
X-285292Y-645566D01*
G37*
G36*
X-264769Y-645566D02*
G01*
X-264769Y-695960D01*
X-255676Y-695960D01*
X-255320Y-678789D01*
X-249580Y-694842D01*
X-239674Y-696315D01*
X-239674Y-694232D01*
X-240792Y-689610D01*
X-247091Y-670306D01*
X-241096Y-650748D01*
X-239217Y-645566D01*
X-248818Y-645566D01*
X-255270Y-660450D01*
X-255676Y-645566D01*
G37*
G36*
X-219151Y-645566D02*
G01*
X-219151Y-695960D01*
X-196342Y-695960D01*
X-196342Y-684530D01*
X-210007Y-684530D01*
X-210007Y-677773D01*
X-196342Y-670661D01*
X-196342Y-661619D01*
X-198780Y-661619D01*
X-201777Y-662330D01*
X-205587Y-664006D01*
X-210007Y-666343D01*
X-210007Y-654761D01*
X-196342Y-654761D01*
X-196342Y-645566D01*
G37*
G36*
X-175818Y-645566D02*
G01*
X-175818Y-654761D01*
X-159816Y-654761D01*
X-159816Y-663397D01*
X-166674Y-666038D01*
X-166674Y-654761D01*
X-175818Y-654761D01*
X-175818Y-695960D01*
X-166928Y-695960D01*
X-165506Y-674217D01*
X-158343Y-694842D01*
X-150012Y-695960D01*
X-148793Y-694994D01*
X-149555Y-691286D01*
X-155803Y-672693D01*
X-150672Y-667562D01*
X-150672Y-645566D01*
G37*
G36*
X2467051Y-502716D02*
G01*
X2463546Y-502970D01*
X2460396Y-503682D01*
X2457551Y-504850D01*
X2455113Y-506526D01*
X2453132Y-508609D01*
X2451506Y-510844D01*
X2450185Y-513181D01*
X2449271Y-515670D01*
X2448153Y-513638D01*
X2446782Y-511759D01*
X2443429Y-508558D01*
X2441498Y-507339D01*
X2439365Y-506476D01*
X2436926Y-505968D01*
X2434285Y-505764D01*
X2430576Y-506069D01*
X2427173Y-507034D01*
X2424226Y-508457D01*
X2421585Y-510590D01*
X2419502Y-513435D01*
X2417775Y-516940D01*
X2416810Y-521208D01*
X2416505Y-526338D01*
X2416606Y-529082D01*
X2417470Y-534162D01*
X2419146Y-538784D01*
X2420924Y-542340D01*
X2421839Y-543610D01*
X2428697Y-540054D01*
X2425903Y-534466D01*
X2424938Y-530860D01*
X2424633Y-526592D01*
X2424785Y-524357D01*
X2425192Y-522274D01*
X2425903Y-520293D01*
X2426919Y-518464D01*
X2428240Y-516940D01*
X2430018Y-515823D01*
X2432202Y-515162D01*
X2434793Y-514908D01*
X2438044Y-515315D01*
X2440635Y-516432D01*
X2442464Y-517906D01*
X2443937Y-519734D01*
X2445004Y-522071D01*
X2445715Y-524560D01*
X2446223Y-529640D01*
X2446223Y-532688D01*
X2453589Y-532688D01*
X2453640Y-528675D01*
X2453995Y-525221D01*
X2454656Y-521970D01*
X2455672Y-519023D01*
X2457196Y-516483D01*
X2459228Y-514451D01*
X2461768Y-512978D01*
X2464968Y-512216D01*
X2466797Y-512114D01*
X2469540Y-512368D01*
X2472080Y-513029D01*
X2474264Y-514146D01*
X2476195Y-515670D01*
X2477617Y-517906D01*
X2478684Y-520700D01*
X2479294Y-524103D01*
X2479446Y-530809D01*
X2478938Y-535533D01*
X2477871Y-539292D01*
X2476195Y-543102D01*
X2484069Y-544880D01*
X2485085Y-542340D01*
X2486355Y-538276D01*
X2487117Y-533196D01*
X2487625Y-527862D01*
X2487218Y-521766D01*
X2486101Y-516686D01*
X2484272Y-512318D01*
X2483104Y-510438D01*
X2480310Y-507390D01*
X2477008Y-505104D01*
X2473248Y-503580D01*
X2469184Y-502818D01*
G37*
G36*
X2479243Y-570788D02*
G01*
X2477516Y-570941D01*
X2475941Y-571347D01*
X2473147Y-573074D01*
X2472029Y-574192D01*
X2471216Y-575564D01*
X2470759Y-577138D01*
X2470607Y-578916D01*
X2470759Y-580644D01*
X2471216Y-582168D01*
X2472029Y-583539D01*
X2473147Y-584758D01*
X2474468Y-585774D01*
X2475941Y-586486D01*
X2477516Y-586892D01*
X2479243Y-587044D01*
X2480818Y-586892D01*
X2482342Y-586486D01*
X2483764Y-585774D01*
X2485085Y-584758D01*
X2486812Y-582168D01*
X2487218Y-580644D01*
X2487371Y-578916D01*
X2487218Y-577138D01*
X2486812Y-575564D01*
X2486050Y-574192D01*
X2485085Y-573074D01*
X2482342Y-571347D01*
X2480818Y-570941D01*
G37*
G36*
X2452065Y-611428D02*
G01*
X2436825Y-612902D01*
X2425649Y-617270D01*
X2421636Y-620522D01*
X2418791Y-624332D01*
X2417064Y-628751D01*
X2416505Y-633780D01*
X2424633Y-633780D01*
X2424734Y-632053D01*
X2425750Y-629005D01*
X2426665Y-627684D01*
X2429306Y-625398D01*
X2432761Y-623620D01*
X2436825Y-622300D01*
X2441397Y-621334D01*
X2452065Y-620826D01*
X2462733Y-621334D01*
X2467406Y-622300D01*
X2471369Y-623620D01*
X2474772Y-625398D01*
X2477465Y-627684D01*
X2478989Y-630478D01*
X2479497Y-633780D01*
X2478989Y-637286D01*
X2478328Y-638810D01*
X2477465Y-640130D01*
X2474772Y-642416D01*
X2471369Y-644194D01*
X2467406Y-645515D01*
X2462733Y-646480D01*
X2457500Y-646887D01*
X2449271Y-646988D01*
X2443937Y-646734D01*
X2439060Y-646074D01*
X2434742Y-644906D01*
X2430932Y-643382D01*
X2427884Y-641350D01*
X2426665Y-640130D01*
X2425750Y-638810D01*
X2424734Y-635609D01*
X2424633Y-633780D01*
X2416505Y-633780D01*
X2417064Y-638911D01*
X2418791Y-643432D01*
X2421636Y-647293D01*
X2425649Y-650544D01*
X2436825Y-654913D01*
X2452065Y-656386D01*
X2467305Y-654913D01*
X2478481Y-650544D01*
X2482494Y-647293D01*
X2485339Y-643432D01*
X2487066Y-638911D01*
X2487625Y-633780D01*
X2487066Y-628751D01*
X2485339Y-624332D01*
X2482494Y-620522D01*
X2478481Y-617270D01*
X2467305Y-612902D01*
G37*
G36*
X2450795Y-627430D02*
G01*
X2449423Y-627532D01*
X2446883Y-628446D01*
X2445715Y-629208D01*
X2444800Y-630174D01*
X2443784Y-632460D01*
X2443784Y-635101D01*
X2444800Y-637387D01*
X2445715Y-638352D01*
X2446883Y-639165D01*
X2449423Y-640029D01*
X2452268Y-640029D01*
X2454808Y-639165D01*
X2456738Y-637387D01*
X2457399Y-636320D01*
X2457907Y-633780D01*
X2457399Y-631240D01*
X2455875Y-629208D01*
X2453589Y-627888D01*
X2452268Y-627532D01*
G37*
G36*
X2435047Y-664768D02*
G01*
X2435047Y-674166D01*
X2445461Y-677214D01*
X2456129Y-681024D01*
X2468981Y-686104D01*
X2475433Y-688898D01*
X2471318Y-690880D01*
X2461412Y-694690D01*
X2448102Y-699312D01*
X2435047Y-703122D01*
X2435047Y-713028D01*
X2449220Y-708660D01*
X2462733Y-703630D01*
X2475179Y-698500D01*
X2486101Y-693216D01*
X2486101Y-685088D01*
X2475179Y-679754D01*
X2452674Y-670509D01*
G37*
G36*
X1574952Y1095705D02*
G01*
X1571244Y1095248D01*
X1567942Y1093978D01*
X1565148Y1091844D01*
X1562760Y1088847D01*
X1560880Y1085189D01*
X1559509Y1080770D01*
X1558696Y1075639D01*
X1558442Y1069797D01*
X1565300Y1069797D01*
X1565402Y1073708D01*
X1565808Y1077417D01*
X1566468Y1080922D01*
X1567332Y1083767D01*
X1568602Y1086256D01*
X1570380Y1088085D01*
X1572412Y1089406D01*
X1573631Y1089761D01*
X1576171Y1089761D01*
X1578356Y1088847D01*
X1580235Y1087221D01*
X1581759Y1085088D01*
X1582877Y1082395D01*
X1583639Y1079246D01*
X1584248Y1073708D01*
X1584248Y1065784D01*
X1583639Y1060196D01*
X1582877Y1056995D01*
X1581759Y1054354D01*
X1580235Y1052169D01*
X1578356Y1050594D01*
X1577289Y1050086D01*
X1574952Y1049731D01*
X1572412Y1050086D01*
X1570380Y1051255D01*
X1568602Y1053236D01*
X1567332Y1055573D01*
X1566468Y1058570D01*
X1565808Y1061923D01*
X1565300Y1069797D01*
X1558442Y1069797D01*
X1558696Y1063904D01*
X1559509Y1058722D01*
X1560880Y1054252D01*
X1562760Y1050493D01*
X1565148Y1047597D01*
X1567942Y1045514D01*
X1571244Y1044295D01*
X1574952Y1043889D01*
X1578559Y1044295D01*
X1581759Y1045514D01*
X1584502Y1047597D01*
X1586890Y1050493D01*
X1588770Y1054252D01*
X1590141Y1058722D01*
X1590954Y1063904D01*
X1591208Y1069797D01*
X1590954Y1075639D01*
X1590141Y1080770D01*
X1588770Y1085189D01*
X1586890Y1088847D01*
X1584502Y1091844D01*
X1581759Y1093978D01*
X1578559Y1095248D01*
G37*
G36*
X1614830Y1095705D02*
G01*
X1611122Y1095248D01*
X1607921Y1093978D01*
X1605178Y1091844D01*
X1602892Y1088847D01*
X1601012Y1085189D01*
X1599641Y1080770D01*
X1598828Y1075639D01*
X1598574Y1069797D01*
X1605178Y1069797D01*
X1605686Y1077417D01*
X1606296Y1080922D01*
X1607210Y1083767D01*
X1608632Y1086256D01*
X1610258Y1088085D01*
X1612290Y1089406D01*
X1613509Y1089761D01*
X1616151Y1089761D01*
X1618437Y1088847D01*
X1620266Y1087221D01*
X1621790Y1085088D01*
X1622907Y1082395D01*
X1623669Y1079246D01*
X1624177Y1075588D01*
X1624431Y1071778D01*
X1624431Y1067765D01*
X1623974Y1061923D01*
X1623364Y1058570D01*
X1622450Y1055573D01*
X1621028Y1053236D01*
X1619402Y1051255D01*
X1617370Y1050086D01*
X1614830Y1049731D01*
X1612290Y1050086D01*
X1610258Y1051255D01*
X1608632Y1053236D01*
X1607210Y1055573D01*
X1606296Y1058570D01*
X1605686Y1061923D01*
X1605178Y1069797D01*
X1598574Y1069797D01*
X1598828Y1063904D01*
X1599641Y1058722D01*
X1601012Y1054252D01*
X1602892Y1050493D01*
X1605178Y1047597D01*
X1607921Y1045514D01*
X1611122Y1044295D01*
X1614830Y1043889D01*
X1618538Y1044295D01*
X1621790Y1045514D01*
X1624634Y1047597D01*
X1627022Y1050493D01*
X1628800Y1054252D01*
X1630070Y1058722D01*
X1630832Y1063904D01*
X1631086Y1069797D01*
X1630832Y1075639D01*
X1630070Y1080770D01*
X1628800Y1085189D01*
X1627022Y1088847D01*
X1624634Y1091844D01*
X1621790Y1093978D01*
X1618538Y1095248D01*
G37*
G36*
X1654708Y1095705D02*
G01*
X1651101Y1095248D01*
X1647901Y1093978D01*
X1645157Y1091844D01*
X1642770Y1088847D01*
X1640890Y1085189D01*
X1639519Y1080770D01*
X1638706Y1075639D01*
X1638452Y1069797D01*
X1645310Y1069797D01*
X1645412Y1073708D01*
X1646021Y1079246D01*
X1646783Y1082395D01*
X1647901Y1085088D01*
X1649425Y1087221D01*
X1651304Y1088847D01*
X1653489Y1089761D01*
X1656029Y1089761D01*
X1658315Y1088847D01*
X1660245Y1087221D01*
X1661769Y1085088D01*
X1662887Y1082395D01*
X1663649Y1079246D01*
X1664207Y1073708D01*
X1664360Y1069797D01*
X1663852Y1061923D01*
X1663344Y1058570D01*
X1662328Y1055573D01*
X1661058Y1053236D01*
X1659280Y1051255D01*
X1657248Y1050086D01*
X1654708Y1049731D01*
X1652371Y1050086D01*
X1650390Y1051255D01*
X1648612Y1053236D01*
X1647342Y1055573D01*
X1646326Y1058570D01*
X1645818Y1061923D01*
X1645310Y1069797D01*
X1638452Y1069797D01*
X1638706Y1063904D01*
X1639519Y1058722D01*
X1640890Y1054252D01*
X1642770Y1050493D01*
X1645157Y1047597D01*
X1647901Y1045514D01*
X1651101Y1044295D01*
X1654708Y1043889D01*
X1658416Y1044295D01*
X1661718Y1045514D01*
X1664512Y1047597D01*
X1666900Y1050493D01*
X1668780Y1054252D01*
X1670151Y1058722D01*
X1670964Y1063904D01*
X1671218Y1069797D01*
X1670964Y1075639D01*
X1670151Y1080770D01*
X1668780Y1085189D01*
X1666900Y1088847D01*
X1664512Y1091844D01*
X1661718Y1093978D01*
X1658416Y1095248D01*
G37*
G36*
X1477670Y1094435D02*
G01*
X1490624Y1071067D01*
X1486662Y1064564D01*
X1483004Y1057859D01*
X1476908Y1044905D01*
X1484020Y1044905D01*
X1489100Y1056335D01*
X1491894Y1061770D01*
X1494688Y1066495D01*
X1497990Y1061161D01*
X1501698Y1053896D01*
X1505610Y1044905D01*
X1512722Y1044905D01*
X1509725Y1051712D01*
X1502765Y1065022D01*
X1499006Y1071321D01*
X1512214Y1094435D01*
X1505102Y1094435D01*
X1494688Y1075385D01*
X1485036Y1094435D01*
G37*
G36*
X1535836Y1094435D02*
G01*
X1532432Y1090980D01*
X1528724Y1088339D01*
X1524863Y1086053D01*
X1520850Y1084275D01*
X1522882Y1079195D01*
X1529892Y1082344D01*
X1534058Y1085291D01*
X1534058Y1050493D01*
X1523136Y1050493D01*
X1523136Y1044905D01*
X1549806Y1044905D01*
X1549806Y1050493D01*
X1540408Y1050493D01*
X1540408Y1094435D01*
G37*
G36*
X1719224Y1094435D02*
G01*
X1719224Y1044905D01*
X1725320Y1044905D01*
X1725320Y1084529D01*
X1729638Y1076147D01*
X1738528Y1057097D01*
X1743608Y1044905D01*
X1750466Y1044905D01*
X1750466Y1094435D01*
X1744370Y1094435D01*
X1744370Y1056335D01*
X1736242Y1075385D01*
X1731670Y1084021D01*
X1725828Y1094435D01*
G37*
G36*
X1774596Y1083005D02*
G01*
X1767738Y1082497D01*
X1765147Y1081938D01*
X1763420Y1081227D01*
X1764182Y1075893D01*
X1767992Y1076909D01*
X1774088Y1077417D01*
X1776425Y1077214D01*
X1778406Y1076655D01*
X1779981Y1075740D01*
X1781200Y1074623D01*
X1782013Y1073302D01*
X1782825Y1070102D01*
X1782978Y1066749D01*
X1779168Y1067308D01*
X1775358Y1067511D01*
X1769516Y1067003D01*
X1766824Y1066088D01*
X1764436Y1064971D01*
X1762404Y1063447D01*
X1760880Y1061415D01*
X1759712Y1058926D01*
X1759356Y1056081D01*
X1766214Y1056081D01*
X1766417Y1057656D01*
X1766976Y1058875D01*
X1769262Y1060907D01*
X1771548Y1061770D01*
X1776120Y1062177D01*
X1780793Y1061770D01*
X1782978Y1061161D01*
X1782978Y1050239D01*
X1779676Y1049731D01*
X1773326Y1049782D01*
X1770024Y1050442D01*
X1768754Y1051001D01*
X1767636Y1051864D01*
X1766824Y1053033D01*
X1766366Y1054404D01*
X1766214Y1056081D01*
X1759356Y1056081D01*
X1759712Y1052626D01*
X1760880Y1049985D01*
X1762404Y1047953D01*
X1764436Y1046429D01*
X1766824Y1045362D01*
X1769516Y1044651D01*
X1772361Y1044244D01*
X1777390Y1044143D01*
X1781302Y1044397D01*
X1789328Y1045667D01*
X1789277Y1070254D01*
X1788922Y1073200D01*
X1788210Y1075842D01*
X1787093Y1077976D01*
X1785315Y1079906D01*
X1783029Y1081430D01*
X1780133Y1082446D01*
X1776577Y1082954D01*
G37*
G36*
X1854860Y1083005D02*
G01*
X1851253Y1082598D01*
X1848002Y1081481D01*
X1845157Y1079906D01*
X1842668Y1077671D01*
X1840839Y1074877D01*
X1839366Y1071575D01*
X1838401Y1067765D01*
X1838096Y1063447D01*
X1844954Y1063447D01*
X1845106Y1066444D01*
X1845614Y1069086D01*
X1846376Y1071372D01*
X1847494Y1073353D01*
X1849018Y1075029D01*
X1850745Y1076198D01*
X1852675Y1076909D01*
X1854860Y1077163D01*
X1857044Y1076909D01*
X1858975Y1076198D01*
X1860702Y1075029D01*
X1862226Y1073353D01*
X1863343Y1071372D01*
X1864156Y1069086D01*
X1864614Y1066444D01*
X1864766Y1063447D01*
X1864614Y1060551D01*
X1864106Y1057910D01*
X1863343Y1055573D01*
X1862226Y1053541D01*
X1860702Y1051966D01*
X1858975Y1050848D01*
X1857044Y1050188D01*
X1854860Y1049985D01*
X1852675Y1050188D01*
X1850745Y1050848D01*
X1849018Y1051966D01*
X1847494Y1053541D01*
X1846376Y1055573D01*
X1845614Y1057910D01*
X1845106Y1060551D01*
X1844954Y1063447D01*
X1838096Y1063447D01*
X1838401Y1059332D01*
X1839366Y1055573D01*
X1840839Y1052271D01*
X1842668Y1049477D01*
X1845157Y1047191D01*
X1848002Y1045413D01*
X1851253Y1044448D01*
X1854860Y1044143D01*
X1858314Y1044448D01*
X1861464Y1045413D01*
X1864461Y1047191D01*
X1866798Y1049477D01*
X1868830Y1052271D01*
X1870354Y1055573D01*
X1871319Y1059332D01*
X1871624Y1063447D01*
X1871319Y1067765D01*
X1870354Y1071575D01*
X1868830Y1074877D01*
X1866798Y1077671D01*
X1864461Y1079906D01*
X1861464Y1081481D01*
X1858314Y1082598D01*
G37*
G36*
X1814474Y1082751D02*
G01*
X1807616Y1082497D01*
X1800504Y1080973D01*
X1800504Y1044905D01*
X1807108Y1044905D01*
X1807108Y1076401D01*
X1810664Y1076909D01*
X1816709Y1076756D01*
X1818386Y1076350D01*
X1819757Y1075436D01*
X1820925Y1074166D01*
X1821789Y1072388D01*
X1822450Y1070102D01*
X1822805Y1067155D01*
X1822856Y1044905D01*
X1829460Y1044905D01*
X1829460Y1066749D01*
X1829206Y1070660D01*
X1828495Y1073962D01*
X1827326Y1076756D01*
X1825650Y1078941D01*
X1823516Y1080617D01*
X1820925Y1081786D01*
X1817928Y1082497D01*
G37*
G36*
X1574952Y1075893D02*
G01*
X1573123Y1075486D01*
X1571650Y1074369D01*
X1570685Y1072540D01*
X1570380Y1070559D01*
X1570685Y1068628D01*
X1571650Y1067003D01*
X1573123Y1065834D01*
X1574952Y1065479D01*
X1576781Y1065834D01*
X1578254Y1067003D01*
X1579219Y1068628D01*
X1579524Y1070559D01*
X1579219Y1072540D01*
X1578254Y1074369D01*
X1576781Y1075486D01*
G37*
G36*
X1615084Y1075893D02*
G01*
X1613052Y1075486D01*
X1611528Y1074369D01*
X1610563Y1072540D01*
X1610258Y1070559D01*
X1610563Y1068628D01*
X1611528Y1067003D01*
X1613052Y1065834D01*
X1615084Y1065479D01*
X1616862Y1065834D01*
X1618132Y1067003D01*
X1619097Y1068628D01*
X1619402Y1070559D01*
X1619097Y1072540D01*
X1618132Y1074369D01*
X1616862Y1075486D01*
G37*
G36*
X1654962Y1075893D02*
G01*
X1653133Y1075486D01*
X1651660Y1074369D01*
X1650695Y1072540D01*
X1650390Y1070559D01*
X1650695Y1068628D01*
X1651660Y1067003D01*
X1653133Y1065834D01*
X1654962Y1065479D01*
X1656791Y1065834D01*
X1658264Y1067003D01*
X1659229Y1068628D01*
X1659534Y1070559D01*
X1659229Y1072540D01*
X1658264Y1074369D01*
X1656791Y1075486D01*
G37*
G36*
X-432663Y-740105D02*
G01*
X-432663Y-790041D01*
X-382676Y-790041D01*
G37*
D10*
G01*
X-285165Y219923D03*
D11*
G01*
X-285150Y39938D03*
D12*
G01*
X-165160Y39949D03*
D13*
G01*
X-165176Y219933D03*
D14*
G01*
X-232597Y-252536D03*
D15*
G01*
X-310067Y-182559D03*
D16*
G01*
X-310067Y-252536D03*
D17*
G01*
X-230184Y-182559D03*
D18*
G01*
X-270177Y-217576D03*
D19*
G01*
X-95183Y904814D03*
D20*
G01*
X-165160Y827344D03*
D21*
G01*
X-95183Y827344D03*
D22*
G01*
X-165160Y907354D03*
D23*
G01*
X-130152Y867420D03*
D24*
G01*
X2314491Y-400110D03*
D25*
G01*
X2423502Y-400110D03*
D24*
G01*
X1129581Y-675192D03*
D25*
G01*
X1238592Y-675192D03*
D26*
G01*
X2521397Y926934D03*
D27*
G01*
X2521397Y817923D03*
D28*
G01*
X2510878Y1057341D03*
D29*
G01*
X2401867Y1057341D03*
D26*
G01*
X2303973Y-555663D03*
D27*
G01*
X2303973Y-664674D03*
D24*
G01*
X-15450Y-452434D03*
D25*
G01*
X93560Y-452434D03*
D26*
G01*
X375000Y-367992D03*
D27*
G01*
X375000Y-477004D03*
D28*
G01*
X2510878Y640019D03*
D29*
G01*
X2401867Y640019D03*
D24*
G01*
X2064555Y-675192D03*
D25*
G01*
X2173566Y-675192D03*
D26*
G01*
X1469075Y-555663D03*
D27*
G01*
X1469075Y-664674D03*
D26*
G01*
X1368999Y-555663D03*
D27*
G01*
X1368999Y-664674D03*
D30*
G01*
X-325163Y434858D03*
D31*
G01*
X-325163Y380014D03*
D32*
G01*
X-238429Y1104935D03*
D33*
G01*
X-183586Y1104935D03*
D34*
G01*
X-132742Y-92562D03*
D35*
G01*
X-187586Y-92562D03*
D34*
G01*
X-332742Y737435D03*
D35*
G01*
X-387586Y737435D03*
D34*
G01*
X-332742Y837432D03*
D35*
G01*
X-387586Y837432D03*
D36*
G01*
X-336849Y1009937D03*
D37*
G01*
X-385160Y1009937D03*
D38*
G01*
X-232663Y1009934D03*
D39*
G01*
X-184353Y1009934D03*
D36*
G01*
X-286009Y-92562D03*
D37*
G01*
X-334319Y-92562D03*
D40*
G01*
X-32664Y256590D03*
D41*
G01*
X-32664Y208280D03*
D40*
G01*
X-32664Y114089D03*
D41*
G01*
X-32664Y65778D03*
D40*
G01*
X-32664Y581591D03*
D41*
G01*
X-32664Y533280D03*
D42*
G01*
X-353909Y584934D03*
D43*
G01*
X-181410Y584934D03*
D44*
G01*
X-76006Y1012515D03*
D45*
G01*
X-76006Y1067358D03*
D32*
G01*
X-187586Y737435D03*
D33*
G01*
X-132742Y737435D03*
D36*
G01*
X-336849Y1104935D03*
D37*
G01*
X-385160Y1104935D03*
D38*
G01*
X487337Y-630059D03*
D39*
G01*
X535647Y-630059D03*
D32*
G01*
X1586571Y224937D03*
D46*
G01*
X1641419Y224937D03*
D38*
G01*
X1782335Y327439D03*
D39*
G01*
X1830646Y327439D03*
D47*
G01*
X-32664Y-244218D03*
D48*
G01*
X-32664Y-195907D03*
D47*
G01*
X1681490Y480781D03*
D48*
G01*
X1681490Y529092D03*
D47*
G01*
X1681490Y325782D03*
D48*
G01*
X1681490Y374093D03*
D38*
G01*
X2234834Y1067437D03*
D39*
G01*
X2283145Y1067437D03*
D38*
G01*
X1974834Y1067437D03*
D39*
G01*
X2023145Y1067437D03*
D47*
G01*
X2393988Y745782D03*
D48*
G01*
X2393988Y794092D03*
D34*
G01*
X1628923Y-230070D03*
D35*
G01*
X1574079Y-230070D03*
D30*
G01*
X1669003Y-347644D03*
D31*
G01*
X1669003Y-402489D03*
D30*
G01*
X1586491Y377344D03*
D31*
G01*
X1586491Y322501D03*
D30*
G01*
X1763991Y-347654D03*
D31*
G01*
X1763991Y-402498D03*
D30*
G01*
X2393988Y947359D03*
D31*
G01*
X2393988Y892515D03*
D30*
G01*
X1478991Y-347654D03*
D31*
G01*
X1478991Y-402498D03*
D44*
G01*
X1573992Y-402498D03*
D45*
G01*
X1573992Y-347654D03*
D30*
G01*
X1858990Y-347654D03*
D31*
G01*
X1858990Y-402498D03*
D32*
G01*
X-35928Y-345061D03*
D33*
G01*
X18915Y-345061D03*
D30*
G01*
X1586491Y532343D03*
D31*
G01*
X1586491Y477499D03*
D44*
G01*
X269999Y-402422D03*
D45*
G01*
X269999Y-347578D03*
D44*
G01*
X-32664Y-87485D03*
D45*
G01*
X-32664Y-32641D03*
D44*
G01*
X-32664Y380014D03*
D45*
G01*
X-32664Y434858D03*
D30*
G01*
X-130164Y434858D03*
D49*
G01*
X-130159Y380024D03*
D44*
G01*
X-227662Y380014D03*
D45*
G01*
X-227662Y434858D03*
D30*
G01*
X142499Y-572576D03*
D31*
G01*
X142499Y-627420D03*
D32*
G01*
X484070Y-535061D03*
D33*
G01*
X538914Y-535061D03*
D44*
G01*
X237500Y-627420D03*
D45*
G01*
X237500Y-572576D03*
D30*
G01*
X-32664Y734857D03*
D31*
G01*
X-32664Y680013D03*
D34*
G01*
X173929Y-345069D03*
D35*
G01*
X119085Y-345069D03*
D32*
G01*
X335076Y-629998D03*
D33*
G01*
X389920Y-629998D03*
D30*
G01*
X1018992Y-347654D03*
D31*
G01*
X1018992Y-402498D03*
D34*
G01*
X538914Y-440075D03*
D35*
G01*
X484070Y-440075D03*
D44*
G01*
X1361490Y-402498D03*
D45*
G01*
X1361490Y-347654D03*
D44*
G01*
X923988Y-402490D03*
D45*
G01*
X923988Y-347647D03*
D30*
G01*
X828992Y-347654D03*
D31*
G01*
X828992Y-402498D03*
D44*
G01*
X733988Y-402490D03*
D45*
G01*
X733988Y-347647D03*
D30*
G01*
X638990Y-347647D03*
D31*
G01*
X638990Y-402490D03*
D50*
G01*
X1794004Y782130D03*
G01*
X1794004Y947724D03*
G01*
X1183993Y-557871D03*
G01*
X1183993Y-392277D03*
G01*
X2118992Y-557871D03*
G01*
X2118992Y-392277D03*
D51*
G01*
X1677287Y-677567D03*
D52*
G01*
X1590721Y-677567D03*
D53*
G01*
X1588220Y-542566D03*
D54*
G01*
X1674785Y-542566D03*
D53*
G01*
X655722Y-542566D03*
D54*
G01*
X742288Y-542566D03*
D51*
G01*
X742288Y-677567D03*
D52*
G01*
X655722Y-677567D03*
D55*
G01*
X1339001Y959906D03*
G01*
X1339001Y879922D03*
G01*
X1339001Y799912D03*
G01*
X1339001Y719927D03*
G01*
X1339001Y639917D03*
G01*
X1339001Y559907D03*
G01*
X1339001Y479922D03*
G01*
X1339001Y399912D03*
G01*
X1339001Y319928D03*
G01*
X1339001Y239918D03*
G01*
X1339001Y159908D03*
G01*
X1339001Y79923D03*
G01*
X1339001Y-86D03*
G01*
X1339001Y-80070D03*
G01*
X1258991Y1039916D03*
G01*
X1258991Y959906D03*
G01*
X1258991Y879922D03*
G01*
X1258991Y799912D03*
G01*
X1258991Y719927D03*
G01*
X1258991Y639917D03*
G01*
X1258991Y559907D03*
G01*
X1258991Y479922D03*
G01*
X1258991Y399912D03*
G01*
X1258991Y319928D03*
G01*
X1258991Y239918D03*
G01*
X1258991Y159908D03*
G01*
X1258991Y79923D03*
G01*
X1258991Y-86D03*
G01*
X1258991Y-80070D03*
G01*
X1258991Y-160080D03*
G01*
X1179007Y1039916D03*
G01*
X1179007Y959906D03*
G01*
X1179007Y879922D03*
G01*
X1179007Y639917D03*
G01*
X1179007Y559907D03*
G01*
X1179007Y319928D03*
G01*
X1179007Y239918D03*
G01*
X1179007Y-86D03*
G01*
X1179007Y-80070D03*
G01*
X1179007Y-160080D03*
G01*
X1098997Y1039916D03*
G01*
X1098997Y959906D03*
G01*
X1098997Y639917D03*
G01*
X1098997Y239918D03*
G01*
X1098997Y-80070D03*
G01*
X1098997Y-160080D03*
G01*
X1019012Y1039916D03*
G01*
X1019012Y959906D03*
G01*
X1019012Y879922D03*
G01*
X1019012Y799912D03*
G01*
X1019012Y639917D03*
G01*
X1019012Y559907D03*
G01*
X1019012Y479922D03*
G01*
X1019012Y399912D03*
G01*
X1019012Y319928D03*
G01*
X1019012Y79923D03*
G01*
X1019012Y-86D03*
G01*
X1019012Y-80070D03*
G01*
X1019012Y-160080D03*
G01*
X939002Y1039916D03*
G01*
X939002Y959906D03*
G01*
X939002Y879922D03*
G01*
X939002Y719927D03*
G01*
X939002Y639917D03*
G01*
X939002Y559907D03*
G01*
X939002Y479922D03*
G01*
X939002Y399912D03*
G01*
X939002Y319928D03*
G01*
X939002Y239918D03*
G01*
X939002Y-86D03*
G01*
X939002Y-80070D03*
G01*
X939002Y-160080D03*
G01*
X858992Y1039916D03*
G01*
X858992Y959906D03*
G01*
X858992Y879922D03*
G01*
X858992Y719927D03*
G01*
X858992Y639917D03*
G01*
X858992Y559907D03*
G01*
X858992Y479922D03*
G01*
X858992Y399912D03*
G01*
X858992Y319928D03*
G01*
X858992Y239918D03*
G01*
X858992Y159908D03*
G01*
X858992Y-86D03*
G01*
X858992Y-80070D03*
G01*
X858992Y-160080D03*
G01*
X779007Y1039916D03*
G01*
X779007Y959906D03*
G01*
X779007Y719927D03*
G01*
X779007Y639917D03*
G01*
X779007Y559907D03*
G01*
X779007Y319928D03*
G01*
X779007Y239918D03*
G01*
X779007Y159908D03*
G01*
X779007Y-80070D03*
G01*
X779007Y-160080D03*
G01*
X698997Y1039916D03*
G01*
X698997Y959906D03*
G01*
X698997Y719927D03*
G01*
X698997Y639917D03*
G01*
X698997Y559907D03*
G01*
X698997Y319928D03*
G01*
X698997Y239918D03*
G01*
X698997Y159908D03*
G01*
X698997Y-80070D03*
G01*
X698997Y-160080D03*
G01*
X619013Y1039916D03*
G01*
X619013Y959906D03*
G01*
X619013Y879922D03*
G01*
X619013Y719927D03*
G01*
X619013Y639917D03*
G01*
X619013Y559907D03*
G01*
X619013Y479922D03*
G01*
X619013Y399912D03*
G01*
X619013Y319928D03*
G01*
X619013Y239918D03*
G01*
X619013Y159908D03*
G01*
X619013Y-86D03*
G01*
X619013Y-80070D03*
G01*
X619013Y-160080D03*
G01*
X539003Y1039916D03*
G01*
X539003Y959906D03*
G01*
X539003Y879922D03*
G01*
X539003Y639917D03*
G01*
X539003Y559907D03*
G01*
X539003Y479922D03*
G01*
X539003Y399912D03*
G01*
X539003Y319928D03*
G01*
X539003Y239918D03*
G01*
X539003Y159908D03*
G01*
X539003Y-86D03*
G01*
X539003Y-80070D03*
G01*
X539003Y-160080D03*
G01*
X458993Y1039916D03*
G01*
X458993Y959906D03*
G01*
X458993Y879922D03*
G01*
X458993Y479922D03*
G01*
X458993Y399912D03*
G01*
X458993Y319928D03*
G01*
X458993Y-86D03*
G01*
X458993Y-80070D03*
G01*
X458993Y-160080D03*
G01*
X379008Y1039916D03*
G01*
X379008Y959906D03*
G01*
X379008Y639917D03*
G01*
X379008Y559907D03*
G01*
X379008Y-80070D03*
G01*
X379008Y-160080D03*
G01*
X298998Y1039916D03*
D56*
G01*
X298998Y959906D03*
D55*
G01*
X298998Y879922D03*
G01*
X298998Y639917D03*
G01*
X298998Y559907D03*
G01*
X298998Y399912D03*
G01*
X298998Y319928D03*
G01*
X298998Y239918D03*
G01*
X298998Y79923D03*
G01*
X298998Y-86D03*
G01*
X298998Y-80070D03*
G01*
X298998Y-160080D03*
G01*
X219014Y1039916D03*
G01*
X219014Y959906D03*
G01*
X219014Y879922D03*
G01*
X219014Y799912D03*
G01*
X219014Y719927D03*
G01*
X219014Y639917D03*
G01*
X219014Y559907D03*
G01*
X219014Y479922D03*
G01*
X219014Y399912D03*
G01*
X219014Y319928D03*
G01*
X219014Y239918D03*
G01*
X219014Y159908D03*
G01*
X219014Y79923D03*
G01*
X219014Y-86D03*
G01*
X219014Y-80070D03*
G01*
X219014Y-160080D03*
G01*
X139004Y959906D03*
G01*
X139004Y879922D03*
G01*
X139004Y799912D03*
G01*
X139004Y719927D03*
G01*
X139004Y639917D03*
G01*
X139004Y559907D03*
G01*
X139004Y479922D03*
G01*
X139004Y399912D03*
G01*
X139004Y319928D03*
G01*
X139004Y239918D03*
G01*
X139004Y159908D03*
G01*
X139004Y79923D03*
G01*
X139004Y-86D03*
G01*
X139004Y-80070D03*
D57*
G01*
X2128967Y830011D03*
D58*
G01*
X2276500Y929932D03*
G01*
X2276500Y879970D03*
G01*
X2276500Y829932D03*
G01*
X2276500Y779932D03*
G01*
X2276500Y729932D03*
G01*
X1981499Y729932D03*
G01*
X1981499Y779894D03*
D59*
G01*
X1981499Y829932D03*
G01*
X1981499Y879970D03*
G01*
X1981499Y929932D03*
D60*
G01*
X868994Y-677567D03*
G01*
X933993Y-677567D03*
G01*
X998992Y-677567D03*
G01*
X998992Y-492579D03*
G01*
X933993Y-492579D03*
G01*
X868994Y-492579D03*
D61*
G01*
X933993Y-585073D03*
D60*
G01*
X1803994Y-677567D03*
G01*
X1868992Y-677567D03*
G01*
X1933991Y-677567D03*
G01*
X1933991Y-492579D03*
G01*
X1868992Y-492579D03*
G01*
X1803994Y-492579D03*
D61*
G01*
X1868992Y-585073D03*
D34*
G01*
X1833913Y427438D03*
D35*
G01*
X1779069Y427438D03*
D32*
G01*
X1779069Y522437D03*
D33*
G01*
X1833913Y522437D03*
D62*
G01*
X1736242Y-220077D03*
G01*
X1736242Y-170077D03*
G01*
X1736242Y-120077D03*
G01*
X1736242Y-70077D03*
D63*
G01*
X1821743Y-220077D03*
G01*
X1821743Y-170077D03*
G01*
X1821743Y-120077D03*
G01*
X1821743Y-70077D03*
D30*
G01*
X-130164Y-192641D03*
D31*
G01*
X-130164Y-247484D03*
D44*
G01*
X-397662Y-244985D03*
D45*
G01*
X-397662Y-190141D03*
D64*
G01*
X2262489Y509922D03*
G01*
X2389489Y509925D03*
G01*
X2008489Y509922D03*
G01*
X2135489Y509922D03*
G01*
X2135489Y-250045D03*
G01*
X2262489Y-250045D03*
G01*
X2389489Y-250070D03*
G01*
X2008489Y-250070D03*
D65*
G01*
X2199002Y129964D03*
D32*
G01*
X484070Y-345076D03*
D33*
G01*
X538914Y-345076D03*
D64*
G01*
X-321005Y1219926D03*
D66*
G01*
X-511004Y1099926D03*
D64*
G01*
X-221005Y1219921D03*
G01*
X-121005Y1219916D03*
G01*
X-21005Y1219911D03*
G01*
X278993Y1219895D03*
G01*
X178993Y1219901D03*
G01*
X78993Y1219906D03*
G01*
X678992Y1219875D03*
G01*
X778992Y1219870D03*
G01*
X878992Y1219865D03*
G01*
X578992Y1219880D03*
G01*
X478983Y1219875D03*
G01*
X378993Y1219890D03*
G01*
X1578990Y1219829D03*
G01*
X1678990Y1219824D03*
G01*
X1778990Y1219819D03*
G01*
X2078989Y1219804D03*
G01*
X1978990Y1219809D03*
G01*
X1878990Y1219814D03*
G01*
X1379004Y1219931D03*
G01*
X1479006Y1219926D03*
G01*
X1279004Y1219946D03*
G01*
X1178991Y1219850D03*
G01*
X1078992Y1219855D03*
G01*
X978992Y1219860D03*
G01*
X2478989Y1219784D03*
G01*
X2378989Y1219789D03*
G01*
X2278989Y1219794D03*
G01*
X2178989Y1219799D03*
D66*
G01*
X-511004Y999947D03*
G01*
X-511004Y899942D03*
G01*
X-511004Y799937D03*
G01*
X-511004Y699932D03*
G01*
X-511004Y599927D03*
G01*
X-510994Y-200032D03*
G01*
X-510994Y-300037D03*
G01*
X-510994Y-43D03*
G01*
X-510994Y399950D03*
G01*
X-510994Y299946D03*
G01*
X-510994Y199971D03*
G01*
X-510994Y99966D03*
G01*
X-510994Y499958D03*
G01*
X-511002Y-100042D03*
G01*
X-511004Y-400121D03*
G01*
X-511004Y-500125D03*
G01*
X-511004Y-600130D03*
G01*
X-511004Y-700135D03*
D67*
G01*
X-321005Y-820079D03*
D64*
G01*
X2178989Y-820206D03*
G01*
X2278989Y-820211D03*
G01*
X2378989Y-820216D03*
G01*
X2478989Y-820221D03*
G01*
X978992Y-820145D03*
G01*
X1078992Y-820150D03*
G01*
X1178991Y-820155D03*
G01*
X1478991Y-820171D03*
G01*
X1378991Y-820165D03*
G01*
X1278991Y-820160D03*
G01*
X1878990Y-820191D03*
G01*
X2079012Y-820061D03*
G01*
X1979013Y-820066D03*
G01*
X1778990Y-820186D03*
G01*
X1678990Y-820181D03*
G01*
X1578990Y-820176D03*
G01*
X378993Y-820115D03*
G01*
X478993Y-820120D03*
G01*
X578992Y-820125D03*
G01*
X878992Y-820140D03*
G01*
X778992Y-820135D03*
G01*
X678992Y-820130D03*
G01*
X78993Y-820099D03*
G01*
X178993Y-820105D03*
G01*
X278993Y-820110D03*
G01*
X-21005Y-820094D03*
G01*
X-121005Y-820089D03*
G01*
X-221005Y-820084D03*
D66*
G01*
X2668998Y-700140D03*
G01*
X2668998Y-600135D03*
G01*
X2668998Y-500131D03*
G01*
X2668998Y-400126D03*
G01*
X2668998Y-300121D03*
G01*
X2668998Y-200116D03*
G01*
X2668998Y-100111D03*
G01*
X2668998Y-106D03*
G01*
X2668998Y99898D03*
G01*
X2668998Y199903D03*
G01*
X2668998Y299907D03*
G01*
X2668998Y399912D03*
G01*
X2668998Y499917D03*
G01*
X2668998Y599922D03*
G01*
X2668998Y699927D03*
G01*
X2668998Y799932D03*
G01*
X2668998Y899937D03*
G01*
X2668998Y999942D03*
G01*
X2668998Y1099947D03*
M02*
