G04 Layer: BottomLayer*
G04 EasyEDA v6.5.21, 2022-10-22 16:28:30*
G04 167bdced229c4b2ca01845534b4d4eab,294cf934c43b457281b0b0dcd80bbfec,10*
G04 Gerber Generator version 0.2*
G04 Scale: 100 percent, Rotated: No, Reflected: No *
G04 Dimensions in millimeters *
G04 leading zeros omitted , absolute positions ,4 integer and 5 decimal *
%FSLAX45Y45*%
%MOMM*%

%ADD10C,0.1000*%
%ADD11C,0.5000*%
%ADD12C,0.3990*%
%ADD13C,0.3000*%
%ADD14C,0.6000*%
%ADD15C,0.1200*%
%ADD16C,0.2000*%
%ADD17C,0.2500*%
%ADD18C,0.1600*%
%ADD19O,1.9999959999999999X1.9999959999999999*%
%ADD20O,1.3299948000000001X1.3299948000000001*%
%ADD21O,1.499997X1.499997*%
%ADD22R,0.6000X1.2000*%
%ADD23R,1.2000X0.6000*%
%ADD24C,0.4200*%
%ADD25C,0.5000*%
%ADD26C,0.4500*%
%ADD27C,0.0140*%

%LPD*%
G36*
X1574190Y858062D02*
G01*
X1570482Y858774D01*
X1567281Y860806D01*
X1564995Y863853D01*
X1564030Y867511D01*
X1564894Y872591D01*
X1565656Y879957D01*
X1565097Y885494D01*
X1565503Y889660D01*
X1567586Y893267D01*
X1570939Y895756D01*
X1575003Y896721D01*
X1577390Y896721D01*
X1582674Y897686D01*
X1587195Y899769D01*
X1591614Y903173D01*
X1599641Y911250D01*
X1602943Y913434D01*
X1606854Y914247D01*
X1687118Y914247D01*
X1691030Y913434D01*
X1694332Y911250D01*
X1696516Y907948D01*
X1697278Y904036D01*
X1696516Y900176D01*
X1694281Y896874D01*
X1658315Y861060D01*
X1655013Y858875D01*
X1651152Y858062D01*
G37*

%LPD*%
G36*
X2147976Y638098D02*
G01*
X2144115Y638860D01*
X2140813Y641045D01*
X2069592Y712266D01*
X2063394Y717296D01*
X2056739Y720699D01*
X2049424Y722630D01*
X2043582Y723087D01*
X1942642Y723087D01*
X1938629Y723900D01*
X1935327Y726186D01*
X1933143Y729640D01*
X1932482Y733653D01*
X1933397Y737565D01*
X1935835Y740816D01*
X1938172Y742899D01*
X1945843Y752144D01*
X1952091Y762355D01*
X1956765Y773430D01*
X1959813Y785012D01*
X1961134Y796950D01*
X1960676Y808939D01*
X1958492Y820724D01*
X1954631Y832103D01*
X1949145Y842771D01*
X1942185Y852525D01*
X1935530Y859434D01*
X1933397Y862736D01*
X1932686Y866597D01*
X1933498Y870458D01*
X1935683Y873709D01*
X1938985Y875893D01*
X1942846Y876655D01*
X1982216Y876655D01*
X1987550Y877620D01*
X1992071Y879703D01*
X1996490Y883107D01*
X2093468Y980135D01*
X2097176Y985266D01*
X2098954Y989939D01*
X2099614Y995476D01*
X2099614Y1134059D01*
X2100275Y1137666D01*
X2102154Y1140764D01*
X2104999Y1143000D01*
X2108454Y1144117D01*
X2113026Y1144727D01*
X2116785Y1146302D01*
X2120036Y1148791D01*
X2123694Y1152448D01*
X2127148Y1153769D01*
X2130856Y1153769D01*
X2134311Y1152448D01*
X2137968Y1148791D01*
X2141220Y1146302D01*
X2144979Y1144727D01*
X2149652Y1144117D01*
X2208326Y1144117D01*
X2213051Y1144727D01*
X2216810Y1146302D01*
X2220061Y1148791D01*
X2223668Y1152398D01*
X2227122Y1153769D01*
X2230831Y1153769D01*
X2234285Y1152398D01*
X2237943Y1148791D01*
X2241194Y1146302D01*
X2244953Y1144727D01*
X2249678Y1144117D01*
X2308352Y1144117D01*
X2313025Y1144727D01*
X2316784Y1146302D01*
X2320036Y1148791D01*
X2323693Y1152398D01*
X2327148Y1153769D01*
X2330856Y1153769D01*
X2334310Y1152398D01*
X2337968Y1148740D01*
X2341219Y1146302D01*
X2344978Y1144727D01*
X2349652Y1144117D01*
X2408326Y1144117D01*
X2413050Y1144727D01*
X2416810Y1146302D01*
X2420061Y1148740D01*
X2423668Y1152398D01*
X2427122Y1153718D01*
X2430830Y1153718D01*
X2434285Y1152398D01*
X2437942Y1148740D01*
X2441194Y1146251D01*
X2444953Y1144727D01*
X2449677Y1144117D01*
X2508351Y1144117D01*
X2513025Y1144727D01*
X2516784Y1146251D01*
X2520035Y1148740D01*
X2522524Y1151991D01*
X2524099Y1155750D01*
X2524709Y1160475D01*
X2524709Y1183843D01*
X2525471Y1187754D01*
X2527655Y1191006D01*
X2530957Y1193241D01*
X2534869Y1194003D01*
X2632913Y1194003D01*
X2636824Y1193241D01*
X2640076Y1191006D01*
X2642311Y1187754D01*
X2643073Y1183843D01*
X2643073Y1055827D01*
X2642311Y1051915D01*
X2640076Y1048613D01*
X2636824Y1046429D01*
X2632913Y1045667D01*
X2527808Y1045616D01*
X2518968Y1044803D01*
X2510840Y1042517D01*
X2503322Y1038758D01*
X2496566Y1033678D01*
X2490927Y1027430D01*
X2486456Y1020267D01*
X2483408Y1012444D01*
X2481630Y1005382D01*
X2480868Y997458D01*
X2481630Y989533D01*
X2483967Y981913D01*
X2487726Y974852D01*
X2492756Y968705D01*
X2499055Y963523D01*
X2502763Y961390D01*
X2510840Y957376D01*
X2518359Y955243D01*
X2522220Y953160D01*
X2524810Y949706D01*
X2525776Y945438D01*
X2525776Y731977D01*
X2524912Y727913D01*
X2522474Y724509D01*
X2518918Y722376D01*
X2514803Y721817D01*
X2510790Y722985D01*
X2507081Y725017D01*
X2499461Y727303D01*
X2491536Y728116D01*
X2483561Y727303D01*
X2475941Y725017D01*
X2468930Y721258D01*
X2462784Y716178D01*
X2457704Y710031D01*
X2453944Y703021D01*
X2452522Y699312D01*
X2450998Y697331D01*
X2394712Y641096D01*
X2391410Y638860D01*
X2387549Y638098D01*
G37*

%LPD*%
G36*
X1855724Y85140D02*
G01*
X1851355Y85699D01*
X1847646Y88087D01*
X1788414Y147320D01*
X1786026Y151079D01*
X1785467Y155498D01*
X1785670Y157429D01*
X1784908Y164795D01*
X1782673Y171856D01*
X1779117Y178358D01*
X1774291Y183997D01*
X1768398Y188518D01*
X1761743Y191770D01*
X1754581Y193649D01*
X1747164Y194005D01*
X1739849Y192887D01*
X1734769Y191008D01*
X1730756Y190398D01*
X1726793Y191414D01*
X1723542Y193903D01*
X1717802Y204216D01*
X1712772Y210108D01*
X1706676Y214833D01*
X1699768Y218236D01*
X1692300Y220167D01*
X1684578Y220522D01*
X1676958Y219354D01*
X1669694Y216712D01*
X1663141Y212598D01*
X1657553Y207314D01*
X1653539Y201523D01*
X1650288Y198526D01*
X1646123Y197205D01*
X1641754Y197764D01*
X1638046Y200152D01*
X1630172Y207975D01*
X1627987Y211277D01*
X1627174Y215188D01*
X1627174Y312216D01*
X1626209Y318516D01*
X1624126Y323037D01*
X1620723Y327456D01*
X1560880Y387248D01*
X1558493Y391058D01*
X1557934Y395478D01*
X1558137Y397408D01*
X1557477Y404164D01*
X1557883Y408279D01*
X1559915Y411886D01*
X1563217Y414375D01*
X1567230Y415340D01*
X1571294Y414629D01*
X1574749Y412394D01*
X1754225Y232917D01*
X1759356Y229209D01*
X1764030Y227431D01*
X1769567Y226771D01*
X1821332Y226771D01*
X1825091Y226009D01*
X1828292Y223977D01*
X1834083Y218490D01*
X1840382Y214528D01*
X1847342Y211988D01*
X1854657Y210870D01*
X1862074Y211226D01*
X1869236Y213106D01*
X1875891Y216357D01*
X1881784Y220878D01*
X1886610Y226517D01*
X1890166Y233019D01*
X1892401Y240080D01*
X1893214Y248005D01*
X1894230Y251510D01*
X1896465Y254457D01*
X1899615Y256438D01*
X1903222Y257149D01*
X1906828Y256489D01*
X1912315Y254457D01*
X1919630Y253339D01*
X1927047Y253695D01*
X1934260Y255574D01*
X1940915Y258825D01*
X1946757Y263398D01*
X1950466Y267665D01*
X1953666Y270205D01*
X1957628Y271221D01*
X1961692Y270611D01*
X1965147Y268427D01*
X1967484Y265074D01*
X1968347Y261061D01*
X1968347Y148793D01*
X1967484Y144780D01*
X1965147Y141427D01*
X1961692Y139293D01*
X1957628Y138684D01*
X1953666Y139700D01*
X1950466Y142189D01*
X1946757Y146507D01*
X1940915Y151028D01*
X1934260Y154279D01*
X1927047Y156159D01*
X1919630Y156514D01*
X1912315Y155397D01*
X1905355Y152857D01*
X1899056Y148894D01*
X1893722Y143814D01*
X1889455Y137718D01*
X1886559Y130911D01*
X1885035Y123647D01*
X1885035Y116230D01*
X1885442Y111252D01*
X1884273Y107848D01*
X1881987Y105054D01*
X1877872Y102870D01*
X1871573Y98907D01*
X1866188Y93827D01*
X1863140Y89458D01*
X1859889Y86461D01*
G37*

%LPD*%
G36*
X208432Y-552043D02*
G01*
X204216Y-551586D01*
X200558Y-549503D01*
X198069Y-546100D01*
X197154Y-541934D01*
X197154Y-467766D01*
X197967Y-463854D01*
X200152Y-460552D01*
X241046Y-419760D01*
X244348Y-417576D01*
X248259Y-416763D01*
X252120Y-417576D01*
X255422Y-419760D01*
X257606Y-423062D01*
X258419Y-426923D01*
X258419Y-513181D01*
X257606Y-517194D01*
X255270Y-520496D01*
X251866Y-522681D01*
X244144Y-525627D01*
X233679Y-531520D01*
X224180Y-538835D01*
X215595Y-547827D01*
X212496Y-550722D01*
G37*

%LPD*%
G36*
X550113Y-668782D02*
G01*
X546404Y-668020D01*
X543153Y-665988D01*
X540918Y-662889D01*
X540004Y-659231D01*
X540461Y-655421D01*
X542340Y-652119D01*
X545846Y-647852D01*
X552094Y-637641D01*
X556768Y-626567D01*
X559816Y-614984D01*
X561136Y-603046D01*
X560679Y-591058D01*
X558495Y-579272D01*
X554634Y-567893D01*
X549148Y-557225D01*
X542188Y-547471D01*
X533857Y-538835D01*
X524357Y-531520D01*
X513892Y-525627D01*
X506222Y-522732D01*
X502818Y-520547D01*
X500532Y-517194D01*
X499719Y-513232D01*
X499719Y-370332D01*
X500481Y-366471D01*
X502666Y-363169D01*
X528777Y-337058D01*
X531215Y-335280D01*
X534111Y-334264D01*
X544576Y-333806D01*
X551738Y-331927D01*
X558393Y-328676D01*
X564286Y-324104D01*
X569112Y-318516D01*
X572668Y-312013D01*
X574903Y-304952D01*
X575665Y-297586D01*
X574903Y-290169D01*
X572668Y-283108D01*
X569112Y-276606D01*
X566216Y-272338D01*
X565607Y-268833D01*
X566216Y-265277D01*
X569112Y-261010D01*
X572668Y-254508D01*
X574903Y-247446D01*
X575665Y-240080D01*
X574903Y-232664D01*
X572668Y-225602D01*
X570026Y-220167D01*
X569722Y-217627D01*
X569722Y81432D01*
X570687Y85750D01*
X573379Y89255D01*
X577342Y91287D01*
X584250Y93065D01*
X590905Y96316D01*
X596798Y100888D01*
X601624Y106476D01*
X605180Y112979D01*
X607415Y120040D01*
X608177Y127406D01*
X607415Y134823D01*
X605180Y141884D01*
X601624Y148386D01*
X596696Y154076D01*
X594715Y157632D01*
X594309Y161696D01*
X595528Y165608D01*
X598220Y168706D01*
X604418Y173482D01*
X609244Y179120D01*
X612800Y185623D01*
X615035Y192684D01*
X615797Y200050D01*
X615035Y207416D01*
X612800Y214477D01*
X609244Y220979D01*
X604418Y226618D01*
X598779Y230987D01*
X596087Y234137D01*
X594868Y238150D01*
X595376Y242265D01*
X597509Y245871D01*
X600913Y248310D01*
X604977Y249174D01*
X713587Y249174D01*
X717804Y248208D01*
X721258Y245617D01*
X723341Y241808D01*
X723595Y237439D01*
X722071Y233425D01*
X718921Y230378D01*
X716584Y228904D01*
X711200Y223774D01*
X706983Y217728D01*
X704037Y210870D01*
X702564Y203606D01*
X702564Y196240D01*
X704037Y188976D01*
X706983Y182118D01*
X711200Y176072D01*
X716584Y170942D01*
X720394Y168554D01*
X723392Y165760D01*
X725017Y162001D01*
X725017Y157886D01*
X723392Y154127D01*
X720394Y151333D01*
X716584Y148894D01*
X711200Y143814D01*
X706983Y137718D01*
X704037Y130911D01*
X702564Y123647D01*
X702564Y116230D01*
X704037Y108966D01*
X706983Y102158D01*
X711200Y96062D01*
X716584Y90982D01*
X722884Y87020D01*
X729843Y84480D01*
X737158Y83362D01*
X744575Y83718D01*
X751738Y85598D01*
X758393Y88849D01*
X764286Y93370D01*
X769112Y99009D01*
X770077Y100787D01*
X772769Y103885D01*
X776427Y105714D01*
X780491Y105918D01*
X784352Y104495D01*
X787298Y101701D01*
X791210Y96062D01*
X796594Y90982D01*
X802894Y87020D01*
X809853Y84480D01*
X817168Y83362D01*
X824585Y83718D01*
X831748Y85598D01*
X838403Y88849D01*
X844296Y93370D01*
X849121Y99009D01*
X852678Y105511D01*
X854913Y112572D01*
X855675Y119938D01*
X854913Y127304D01*
X852678Y134366D01*
X849121Y140868D01*
X844296Y146456D01*
X837184Y151841D01*
X834694Y154584D01*
X833323Y158089D01*
X833323Y161798D01*
X834694Y165252D01*
X837184Y168046D01*
X844296Y173380D01*
X849071Y178968D01*
X850087Y180797D01*
X852728Y183896D01*
X856437Y185674D01*
X860501Y185928D01*
X864311Y184505D01*
X867308Y181660D01*
X871219Y176072D01*
X876553Y170942D01*
X882853Y167030D01*
X889812Y164439D01*
X897128Y163322D01*
X904544Y163677D01*
X911758Y165557D01*
X918413Y168808D01*
X924255Y173380D01*
X929081Y178968D01*
X932687Y185470D01*
X934923Y192532D01*
X935634Y199898D01*
X934923Y207314D01*
X932687Y214375D01*
X929081Y220878D01*
X924306Y226466D01*
X917194Y231851D01*
X914653Y234594D01*
X913333Y238048D01*
X913333Y241808D01*
X914653Y245262D01*
X917194Y248005D01*
X924306Y253390D01*
X929081Y258978D01*
X932687Y265480D01*
X934923Y272542D01*
X935634Y279908D01*
X934923Y287324D01*
X932687Y294386D01*
X929081Y300888D01*
X924255Y306476D01*
X918413Y311048D01*
X911758Y314299D01*
X904544Y316179D01*
X897128Y316534D01*
X889812Y315417D01*
X882853Y312826D01*
X876553Y308914D01*
X871219Y303784D01*
X867308Y298196D01*
X864362Y295402D01*
X860501Y293979D01*
X856437Y294182D01*
X852728Y295960D01*
X850087Y299110D01*
X849121Y300888D01*
X844296Y306476D01*
X838403Y311048D01*
X831748Y314299D01*
X824585Y316179D01*
X817168Y316534D01*
X809853Y315417D01*
X802894Y312826D01*
X796594Y308914D01*
X791210Y303784D01*
X787298Y298196D01*
X784352Y295351D01*
X780491Y293928D01*
X776427Y294182D01*
X772769Y295960D01*
X770077Y299059D01*
X769112Y300888D01*
X764286Y306476D01*
X758393Y311048D01*
X751738Y314299D01*
X744575Y316179D01*
X737158Y316534D01*
X729843Y315417D01*
X722884Y312826D01*
X719124Y310946D01*
X716330Y310540D01*
X593445Y310540D01*
X589584Y311302D01*
X586282Y313537D01*
X498449Y401370D01*
X494588Y404672D01*
X488899Y407924D01*
X482803Y409905D01*
X475945Y410616D01*
X-67564Y410616D01*
X-72034Y411683D01*
X-77419Y414274D01*
X-84582Y416153D01*
X-91998Y416509D01*
X-99314Y415391D01*
X-106273Y412851D01*
X-112572Y408889D01*
X-117957Y403809D01*
X-122174Y397713D01*
X-125120Y390906D01*
X-126593Y383641D01*
X-126593Y376224D01*
X-125120Y368960D01*
X-122174Y362153D01*
X-117957Y356057D01*
X-112572Y350977D01*
X-106273Y347014D01*
X-99314Y344474D01*
X-91998Y343357D01*
X-84582Y343712D01*
X-77419Y345592D01*
X-72034Y348183D01*
X-67564Y349250D01*
X459536Y349250D01*
X463397Y348437D01*
X466699Y346252D01*
X554532Y258419D01*
X558393Y255117D01*
X564896Y251409D01*
X567740Y248920D01*
X569518Y245516D01*
X569925Y241757D01*
X568909Y238048D01*
X566572Y235051D01*
X556717Y229006D01*
X551332Y223926D01*
X547116Y217830D01*
X544169Y211023D01*
X542696Y203758D01*
X542696Y196342D01*
X544169Y189077D01*
X547116Y182270D01*
X551332Y176174D01*
X553516Y174142D01*
X555650Y171145D01*
X556615Y167589D01*
X556260Y163931D01*
X554583Y160629D01*
X551891Y158140D01*
X549097Y156413D01*
X543712Y151282D01*
X541274Y147828D01*
X538073Y144830D01*
X533857Y143510D01*
X529488Y144068D01*
X525780Y146456D01*
X498551Y173685D01*
X493166Y178054D01*
X487426Y180949D01*
X480212Y182880D01*
X471779Y186791D01*
X464566Y188671D01*
X457149Y189026D01*
X449834Y187909D01*
X442874Y185369D01*
X436575Y181406D01*
X431241Y176326D01*
X426974Y170230D01*
X426313Y168656D01*
X423672Y164998D01*
X419709Y162864D01*
X415239Y162610D01*
X411073Y164338D01*
X408076Y167690D01*
X404926Y173380D01*
X400100Y179019D01*
X394258Y183540D01*
X387604Y186791D01*
X380390Y188671D01*
X372973Y189026D01*
X365658Y187909D01*
X358698Y185369D01*
X352399Y181406D01*
X347065Y176326D01*
X342798Y170230D01*
X339902Y163423D01*
X338378Y156159D01*
X338378Y148742D01*
X339902Y141478D01*
X342798Y134670D01*
X347065Y128574D01*
X352399Y123494D01*
X358698Y119532D01*
X365658Y116992D01*
X372973Y115874D01*
X377139Y116078D01*
X381304Y115417D01*
X384810Y113080D01*
X404418Y93522D01*
X406654Y90170D01*
X407365Y86156D01*
X406501Y82194D01*
X404164Y78943D01*
X400710Y76809D01*
X396697Y76200D01*
X389636Y76555D01*
X382320Y75438D01*
X375361Y72847D01*
X369062Y68935D01*
X363728Y63804D01*
X359460Y57759D01*
X356565Y50901D01*
X355041Y43637D01*
X355041Y36271D01*
X356565Y29006D01*
X359460Y22148D01*
X363728Y16103D01*
X367741Y12242D01*
X370078Y8890D01*
X370941Y4876D01*
X370941Y1219D01*
X370078Y-2794D01*
X367741Y-6146D01*
X364286Y-8331D01*
X360222Y-8940D01*
X356260Y-7924D01*
X351739Y-5689D01*
X344576Y-3810D01*
X337159Y-3454D01*
X329844Y-4572D01*
X322884Y-7162D01*
X316585Y-11074D01*
X311200Y-16205D01*
X306984Y-22250D01*
X304038Y-29108D01*
X302564Y-36372D01*
X302564Y-43129D01*
X301802Y-47040D01*
X299567Y-50342D01*
X221894Y-127762D01*
X218186Y-132943D01*
X216408Y-137617D01*
X215747Y-143154D01*
X215747Y-247345D01*
X214934Y-251256D01*
X212750Y-254558D01*
X197307Y-270002D01*
X194208Y-272135D01*
X190500Y-272948D01*
X186740Y-272389D01*
X183438Y-270459D01*
X181102Y-267462D01*
X179933Y-262686D01*
X177698Y-255625D01*
X174091Y-249123D01*
X169265Y-243484D01*
X163423Y-238963D01*
X156768Y-235712D01*
X149555Y-233832D01*
X142138Y-233476D01*
X134823Y-234594D01*
X132029Y-235610D01*
X127965Y-236220D01*
X124002Y-235204D01*
X120802Y-232714D01*
X118821Y-229108D01*
X117703Y-225602D01*
X114096Y-219100D01*
X109270Y-213512D01*
X103428Y-208940D01*
X96774Y-205689D01*
X89560Y-203809D01*
X82143Y-203454D01*
X74828Y-204571D01*
X67868Y-207162D01*
X61569Y-211074D01*
X56235Y-216204D01*
X51968Y-222250D01*
X49072Y-229108D01*
X47548Y-236372D01*
X47548Y-243738D01*
X49072Y-251002D01*
X51968Y-257860D01*
X56235Y-263906D01*
X61569Y-269036D01*
X67868Y-272948D01*
X74828Y-275539D01*
X82143Y-276656D01*
X89560Y-276301D01*
X96824Y-274421D01*
X100380Y-274116D01*
X103835Y-275132D01*
X106730Y-277215D01*
X108712Y-280212D01*
X111963Y-287832D01*
X118922Y-297586D01*
X119786Y-301498D01*
X119075Y-305460D01*
X116890Y-308813D01*
X113537Y-311048D01*
X109626Y-311861D01*
X19151Y-311861D01*
X12852Y-312826D01*
X8331Y-314909D01*
X3911Y-318312D01*
X-135483Y-457758D01*
X-139192Y-462889D01*
X-140970Y-467563D01*
X-141630Y-473100D01*
X-141630Y-513232D01*
X-142443Y-517194D01*
X-144780Y-520547D01*
X-148183Y-522681D01*
X-155905Y-525627D01*
X-166319Y-531520D01*
X-175818Y-538835D01*
X-184150Y-547471D01*
X-191160Y-557225D01*
X-194665Y-564032D01*
X-197510Y-567486D01*
X-201574Y-569366D01*
X-206095Y-569264D01*
X-210108Y-567283D01*
X-212852Y-563778D01*
X-213867Y-559409D01*
X-213867Y61467D01*
X-213055Y65328D01*
X-210870Y68630D01*
X-207619Y70815D01*
X-203758Y71628D01*
X-199847Y70866D01*
X-196545Y68681D01*
X-194310Y65430D01*
X-193090Y62433D01*
X-186842Y52222D01*
X-179120Y42976D01*
X-170230Y34950D01*
X-160223Y28346D01*
X-149352Y23266D01*
X-137871Y19812D01*
X-125983Y18034D01*
X-113995Y18034D01*
X-102108Y19812D01*
X-90627Y23266D01*
X-79756Y28346D01*
X-69748Y34950D01*
X-60858Y42976D01*
X-53136Y52222D01*
X-46888Y62433D01*
X-42214Y73456D01*
X-39166Y85090D01*
X-37896Y97028D01*
X-38303Y109016D01*
X-40487Y120802D01*
X-44348Y132130D01*
X-49834Y142798D01*
X-56845Y152552D01*
X-65176Y161188D01*
X-74676Y168554D01*
X-85090Y174396D01*
X-96316Y178714D01*
X-108000Y181305D01*
X-119989Y182168D01*
X-131978Y181305D01*
X-143662Y178714D01*
X-152146Y175463D01*
X-156006Y174752D01*
X-159816Y175615D01*
X-163068Y177850D01*
X-165201Y181102D01*
X-165963Y184912D01*
X-165963Y591616D01*
X-165201Y595528D01*
X-162966Y598830D01*
X-26568Y735228D01*
X-23266Y737463D01*
X-19354Y738225D01*
X63550Y738225D01*
X67310Y737514D01*
X70561Y735431D01*
X76504Y729792D01*
X83058Y725678D01*
X90271Y723036D01*
X97891Y721868D01*
X105613Y722223D01*
X113080Y724154D01*
X120040Y727557D01*
X126136Y732282D01*
X134162Y741883D01*
X137820Y743661D01*
X141935Y743864D01*
X145745Y742442D01*
X148691Y739648D01*
X151180Y736092D01*
X156565Y730961D01*
X162864Y727049D01*
X169824Y724458D01*
X177139Y723341D01*
X184556Y723696D01*
X191719Y725576D01*
X198374Y728827D01*
X204266Y733399D01*
X208889Y738784D01*
X212090Y741273D01*
X215950Y742340D01*
X219913Y741781D01*
X223367Y739749D01*
X228803Y734923D01*
X238810Y728268D01*
X249682Y723188D01*
X261162Y719734D01*
X272999Y718007D01*
X285038Y718007D01*
X296875Y719734D01*
X308356Y723188D01*
X310388Y724154D01*
X314350Y725119D01*
X318363Y724458D01*
X321767Y722274D01*
X324053Y718921D01*
X324866Y714908D01*
X322529Y703630D01*
X322529Y696264D01*
X324866Y685038D01*
X324205Y681177D01*
X322072Y677875D01*
X318820Y675589D01*
X314960Y674725D01*
X311099Y675436D01*
X302717Y678637D01*
X290982Y681228D01*
X279044Y682142D01*
X267055Y681228D01*
X255320Y678637D01*
X244144Y674370D01*
X233679Y668477D01*
X224180Y661162D01*
X215849Y652526D01*
X208889Y642772D01*
X203403Y632104D01*
X199542Y620725D01*
X197358Y608939D01*
X196900Y596950D01*
X198221Y585012D01*
X201269Y573430D01*
X205943Y562356D01*
X212191Y552145D01*
X218287Y544830D01*
X220116Y541477D01*
X220624Y537667D01*
X219659Y534009D01*
X217424Y530910D01*
X214223Y528878D01*
X210464Y528167D01*
X184302Y528167D01*
X180390Y528929D01*
X177088Y531114D01*
X155092Y553161D01*
X152857Y556463D01*
X152095Y560374D01*
X152908Y564286D01*
X156768Y573430D01*
X159816Y585012D01*
X161137Y596950D01*
X160680Y608939D01*
X158496Y620725D01*
X154635Y632104D01*
X149148Y642772D01*
X142189Y652526D01*
X133858Y661162D01*
X124358Y668477D01*
X113893Y674370D01*
X102717Y678637D01*
X90982Y681228D01*
X79044Y682142D01*
X67056Y681228D01*
X55321Y678637D01*
X44145Y674370D01*
X33680Y668477D01*
X24180Y661162D01*
X15849Y652526D01*
X8890Y642772D01*
X3403Y632104D01*
X-457Y620725D01*
X-2641Y608939D01*
X-3098Y596950D01*
X-1778Y585012D01*
X1270Y573430D01*
X5943Y562356D01*
X12192Y552145D01*
X19862Y542899D01*
X28803Y534924D01*
X38811Y528269D01*
X49682Y523189D01*
X61163Y519734D01*
X72999Y518007D01*
X85039Y518007D01*
X96875Y519734D01*
X108356Y523189D01*
X114249Y525983D01*
X118262Y526897D01*
X122326Y526186D01*
X125730Y523951D01*
X157480Y492302D01*
X161950Y489204D01*
X166573Y487426D01*
X172110Y486765D01*
X351332Y486765D01*
X357632Y487781D01*
X362153Y489813D01*
X366572Y493268D01*
X591058Y717702D01*
X594766Y722884D01*
X596544Y727506D01*
X597204Y733044D01*
X597204Y742035D01*
X598017Y746099D01*
X600405Y749452D01*
X603910Y751586D01*
X607974Y752195D01*
X611936Y751128D01*
X615188Y748538D01*
X619861Y742899D01*
X628802Y734923D01*
X638810Y728268D01*
X649681Y723188D01*
X661162Y719734D01*
X672998Y718007D01*
X685038Y718007D01*
X696874Y719734D01*
X708355Y723188D01*
X719226Y728268D01*
X729234Y734923D01*
X738174Y742899D01*
X745845Y752144D01*
X752094Y762355D01*
X756767Y773430D01*
X759815Y785012D01*
X761136Y796950D01*
X760679Y808939D01*
X758494Y820724D01*
X754634Y832103D01*
X753160Y834948D01*
X752094Y838453D01*
X752348Y842060D01*
X753821Y845362D01*
X757275Y850341D01*
X759002Y855014D01*
X759663Y860247D01*
X760425Y863041D01*
X761949Y865530D01*
X769061Y873963D01*
X772668Y880516D01*
X776478Y893064D01*
X779576Y896315D01*
X783793Y897890D01*
X788263Y897483D01*
X792124Y895146D01*
X796544Y890981D01*
X802843Y887018D01*
X809802Y884478D01*
X817118Y883361D01*
X823010Y883615D01*
X827227Y882954D01*
X830783Y880618D01*
X833069Y877011D01*
X833678Y872794D01*
X832510Y868680D01*
X829767Y865428D01*
X824179Y861161D01*
X815848Y852525D01*
X808888Y842771D01*
X803402Y832103D01*
X799541Y820724D01*
X797356Y808939D01*
X796899Y796950D01*
X798220Y785012D01*
X801268Y773430D01*
X805942Y762355D01*
X812190Y752144D01*
X819861Y742899D01*
X828802Y734923D01*
X833577Y731774D01*
X836421Y728878D01*
X837946Y725119D01*
X837895Y721106D01*
X836218Y717397D01*
X833272Y714603D01*
X829462Y713232D01*
X824585Y713689D01*
X817168Y714044D01*
X809853Y712927D01*
X802894Y710336D01*
X796594Y706424D01*
X791210Y701294D01*
X786993Y695248D01*
X784047Y688390D01*
X782574Y681126D01*
X782574Y673760D01*
X784047Y666496D01*
X786993Y659638D01*
X791210Y653592D01*
X796594Y648462D01*
X800455Y646074D01*
X803402Y643229D01*
X805027Y639470D01*
X805027Y635406D01*
X803402Y631647D01*
X800455Y628802D01*
X796594Y626414D01*
X791210Y621284D01*
X786993Y615238D01*
X784047Y608380D01*
X782574Y601116D01*
X782574Y593750D01*
X784047Y586486D01*
X786993Y579628D01*
X791210Y573582D01*
X796594Y568452D01*
X802894Y564540D01*
X809853Y561949D01*
X817168Y560832D01*
X824585Y561187D01*
X831748Y563067D01*
X838403Y566318D01*
X844296Y570890D01*
X849121Y576478D01*
X850087Y578256D01*
X852728Y581406D01*
X856437Y583184D01*
X860501Y583387D01*
X864362Y581964D01*
X867308Y579170D01*
X871219Y573582D01*
X876553Y568452D01*
X878433Y567283D01*
X881380Y564489D01*
X883005Y560730D01*
X883005Y556615D01*
X881380Y552856D01*
X878433Y550062D01*
X876553Y548894D01*
X871219Y543814D01*
X866952Y537718D01*
X864057Y530910D01*
X862533Y523646D01*
X862533Y516229D01*
X864057Y508965D01*
X866952Y502158D01*
X871219Y496062D01*
X876553Y490982D01*
X882853Y487019D01*
X889812Y484479D01*
X897128Y483362D01*
X904544Y483717D01*
X911758Y485597D01*
X918413Y488848D01*
X924255Y493369D01*
X929081Y499008D01*
X930097Y500786D01*
X932738Y503885D01*
X936447Y505714D01*
X940511Y505917D01*
X944321Y504494D01*
X947318Y501700D01*
X951230Y496062D01*
X956564Y490982D01*
X962863Y487019D01*
X969822Y484479D01*
X977137Y483362D01*
X984554Y483717D01*
X991768Y485597D01*
X998423Y488848D01*
X1004265Y493369D01*
X1009091Y499008D01*
X1012698Y505510D01*
X1014933Y512572D01*
X1015644Y519938D01*
X1014933Y527304D01*
X1012698Y534365D01*
X1009091Y540867D01*
X1004265Y546506D01*
X998880Y550672D01*
X996442Y553415D01*
X995121Y556818D01*
X995121Y560527D01*
X996442Y563981D01*
X998880Y566724D01*
X1004265Y570890D01*
X1009091Y576478D01*
X1012698Y582980D01*
X1014933Y590042D01*
X1015644Y597408D01*
X1014933Y604824D01*
X1012698Y611886D01*
X1009091Y618388D01*
X1004316Y623976D01*
X997203Y629361D01*
X994664Y632104D01*
X993343Y635558D01*
X993343Y639318D01*
X994664Y642772D01*
X997203Y645515D01*
X1004316Y650900D01*
X1009091Y656488D01*
X1012698Y662990D01*
X1014933Y670052D01*
X1015644Y677418D01*
X1014933Y684834D01*
X1012698Y691896D01*
X1009091Y698398D01*
X1004265Y703986D01*
X1000353Y707034D01*
X997508Y710488D01*
X996442Y714857D01*
X997356Y719226D01*
X1000048Y722833D01*
X1004062Y724865D01*
X1006754Y725576D01*
X1013409Y728827D01*
X1019251Y733399D01*
X1021181Y735634D01*
X1024432Y738124D01*
X1028395Y739140D01*
X1032408Y738530D01*
X1035862Y736396D01*
X1040079Y732383D01*
X1042416Y729030D01*
X1043279Y725017D01*
X1043279Y547471D01*
X1044295Y541172D01*
X1046327Y536600D01*
X1049782Y532231D01*
X1124407Y457809D01*
X1129538Y454151D01*
X1134211Y452374D01*
X1139748Y451713D01*
X1416354Y451713D01*
X1420317Y450900D01*
X1423619Y448614D01*
X1425803Y445262D01*
X1426514Y441299D01*
X1425651Y437388D01*
X1423314Y434136D01*
X1419910Y432003D01*
X1415389Y430326D01*
X1409090Y426415D01*
X1403705Y421284D01*
X1399489Y415239D01*
X1396542Y408381D01*
X1395069Y401116D01*
X1395069Y393750D01*
X1396542Y386486D01*
X1399489Y379628D01*
X1403705Y373583D01*
X1409090Y368452D01*
X1410919Y367284D01*
X1413916Y364490D01*
X1415491Y360730D01*
X1415491Y356616D01*
X1413916Y352856D01*
X1410919Y350062D01*
X1409090Y348894D01*
X1403705Y343814D01*
X1399489Y337718D01*
X1396542Y330911D01*
X1395069Y323646D01*
X1395069Y316230D01*
X1396542Y308965D01*
X1399489Y302158D01*
X1403705Y296062D01*
X1407617Y292354D01*
X1409954Y289001D01*
X1410817Y284988D01*
X1410817Y201930D01*
X1410004Y198069D01*
X1407820Y194767D01*
X1404518Y192582D01*
X1400657Y191770D01*
X1396746Y192582D01*
X1393444Y194767D01*
X1333703Y254508D01*
X1328572Y258216D01*
X1323898Y259994D01*
X1318361Y260654D01*
X1053947Y260654D01*
X1049680Y261620D01*
X1046226Y264210D01*
X1044295Y266496D01*
X1038402Y271018D01*
X1031748Y274269D01*
X1024585Y276148D01*
X1017168Y276504D01*
X1009853Y275386D01*
X1002893Y272846D01*
X996594Y268884D01*
X991209Y263804D01*
X986993Y257708D01*
X984046Y250901D01*
X982573Y243636D01*
X982573Y236220D01*
X984046Y228955D01*
X986993Y222148D01*
X991209Y216052D01*
X993851Y213563D01*
X996187Y210210D01*
X997000Y206197D01*
X996187Y202184D01*
X993851Y198831D01*
X991209Y196291D01*
X986993Y190246D01*
X984046Y183388D01*
X982573Y176123D01*
X982675Y164084D01*
X981049Y160324D01*
X978103Y157530D01*
X974242Y156108D01*
X969822Y155397D01*
X962863Y152857D01*
X956564Y148894D01*
X951230Y143814D01*
X946962Y137718D01*
X944067Y130911D01*
X942543Y123647D01*
X942543Y116230D01*
X944067Y108966D01*
X946962Y102158D01*
X951230Y96062D01*
X956564Y90982D01*
X960424Y88544D01*
X963421Y85750D01*
X964996Y81991D01*
X964996Y77876D01*
X963421Y74117D01*
X960424Y71323D01*
X956564Y68884D01*
X951230Y63804D01*
X947318Y58166D01*
X944321Y55372D01*
X940511Y53949D01*
X936447Y54152D01*
X932738Y55981D01*
X930097Y59080D01*
X929081Y60858D01*
X924255Y66497D01*
X918413Y71018D01*
X911758Y74269D01*
X904544Y76149D01*
X897128Y76504D01*
X889812Y75387D01*
X882853Y72847D01*
X876553Y68884D01*
X871219Y63804D01*
X866952Y57708D01*
X864057Y50901D01*
X862533Y43637D01*
X862533Y36220D01*
X864057Y28956D01*
X866952Y22148D01*
X871219Y16052D01*
X876553Y10972D01*
X880414Y8534D01*
X883361Y5740D01*
X884986Y1981D01*
X884986Y-2133D01*
X883361Y-5892D01*
X880414Y-8686D01*
X876553Y-11074D01*
X871219Y-16205D01*
X866952Y-22250D01*
X864057Y-29108D01*
X862533Y-36372D01*
X862533Y-43738D01*
X864057Y-51003D01*
X866952Y-57861D01*
X871219Y-63906D01*
X876553Y-69037D01*
X880414Y-71424D01*
X883412Y-74269D01*
X884986Y-78028D01*
X884986Y-82092D01*
X883412Y-85852D01*
X880414Y-88696D01*
X876553Y-91084D01*
X871219Y-96215D01*
X867308Y-101803D01*
X864362Y-104597D01*
X860501Y-106019D01*
X856437Y-105816D01*
X852728Y-104038D01*
X850087Y-100888D01*
X849121Y-99110D01*
X844296Y-93522D01*
X838403Y-88950D01*
X831748Y-85699D01*
X824585Y-83820D01*
X812901Y-83515D01*
X803960Y-80010D01*
X798372Y-79349D01*
X765810Y-79349D01*
X761746Y-78486D01*
X758342Y-76047D01*
X756208Y-72491D01*
X754634Y-67919D01*
X749147Y-57251D01*
X742188Y-47498D01*
X733856Y-38862D01*
X724357Y-31495D01*
X713892Y-25654D01*
X702716Y-21386D01*
X690981Y-18745D01*
X679043Y-17881D01*
X667054Y-18745D01*
X655320Y-21386D01*
X644144Y-25654D01*
X633679Y-31495D01*
X624179Y-38862D01*
X615848Y-47498D01*
X608888Y-57251D01*
X603402Y-67919D01*
X599541Y-79248D01*
X597357Y-91084D01*
X596900Y-103073D01*
X598220Y-114960D01*
X601268Y-126593D01*
X605942Y-137617D01*
X612190Y-147878D01*
X619861Y-157073D01*
X628802Y-165100D01*
X638810Y-171704D01*
X649681Y-176784D01*
X661162Y-180238D01*
X672998Y-182016D01*
X685038Y-182016D01*
X696874Y-180238D01*
X708355Y-176784D01*
X719226Y-171704D01*
X729234Y-165100D01*
X738174Y-157073D01*
X745845Y-147878D01*
X752094Y-137617D01*
X756615Y-126949D01*
X758850Y-123698D01*
X762152Y-121513D01*
X766013Y-120751D01*
X773684Y-120751D01*
X777087Y-121361D01*
X780084Y-123037D01*
X782370Y-125628D01*
X783590Y-128879D01*
X784047Y-131013D01*
X786993Y-137871D01*
X791210Y-143916D01*
X796594Y-149047D01*
X802894Y-152958D01*
X809853Y-155549D01*
X811174Y-155752D01*
X815340Y-157378D01*
X818388Y-160578D01*
X819759Y-164795D01*
X819200Y-169214D01*
X816813Y-172974D01*
X798830Y-191008D01*
X795731Y-195478D01*
X794004Y-200101D01*
X793343Y-205689D01*
X793343Y-354888D01*
X794308Y-361188D01*
X796391Y-365709D01*
X799795Y-370128D01*
X997458Y-567740D01*
X999540Y-570839D01*
X1000404Y-574497D01*
X997356Y-591058D01*
X996899Y-603046D01*
X998219Y-614984D01*
X1001268Y-626567D01*
X1005941Y-637641D01*
X1012190Y-647852D01*
X1015695Y-652119D01*
X1017574Y-655421D01*
X1018032Y-659231D01*
X1017117Y-662889D01*
X1014882Y-665988D01*
X1011631Y-668020D01*
X1007922Y-668782D01*
X750112Y-668782D01*
X746404Y-668020D01*
X743153Y-665988D01*
X740918Y-662889D01*
X740003Y-659231D01*
X740460Y-655421D01*
X742340Y-652119D01*
X745845Y-647852D01*
X752094Y-637641D01*
X756767Y-626567D01*
X759815Y-614984D01*
X761136Y-603046D01*
X760679Y-591058D01*
X758494Y-579272D01*
X754634Y-567893D01*
X749147Y-557225D01*
X742188Y-547471D01*
X733856Y-538835D01*
X724357Y-531520D01*
X713892Y-525627D01*
X702716Y-521360D01*
X690981Y-518769D01*
X679043Y-517855D01*
X667054Y-518769D01*
X655370Y-521360D01*
X643026Y-526186D01*
X639165Y-526846D01*
X635355Y-526084D01*
X632155Y-523900D01*
X612698Y-504443D01*
X610463Y-501142D01*
X609701Y-497230D01*
X609701Y-427634D01*
X610158Y-424586D01*
X611530Y-421843D01*
X614273Y-419100D01*
X619099Y-413512D01*
X622655Y-407009D01*
X624890Y-399948D01*
X625652Y-392582D01*
X624890Y-385165D01*
X622655Y-378104D01*
X619099Y-371602D01*
X614273Y-366014D01*
X608380Y-361442D01*
X601726Y-358190D01*
X594563Y-356311D01*
X587146Y-355955D01*
X579831Y-357073D01*
X572871Y-359664D01*
X566572Y-363575D01*
X561187Y-368706D01*
X556971Y-374751D01*
X554024Y-381609D01*
X552551Y-388874D01*
X552551Y-396240D01*
X554024Y-403504D01*
X556971Y-410362D01*
X561187Y-416407D01*
X565150Y-420166D01*
X567486Y-423519D01*
X568299Y-427532D01*
X568299Y-509879D01*
X569315Y-516178D01*
X571347Y-520700D01*
X574802Y-525119D01*
X602996Y-553262D01*
X605282Y-556818D01*
X605942Y-561035D01*
X604824Y-565099D01*
X603402Y-567893D01*
X599541Y-579272D01*
X597357Y-591058D01*
X596900Y-603046D01*
X598220Y-614984D01*
X601268Y-626567D01*
X605942Y-637641D01*
X612190Y-647852D01*
X615696Y-652119D01*
X617575Y-655421D01*
X618032Y-659231D01*
X617118Y-662889D01*
X614883Y-665988D01*
X611632Y-668020D01*
X607923Y-668782D01*
G37*

%LPC*%
G36*
X684631Y-384149D02*
G01*
X692048Y-383794D01*
X699262Y-381914D01*
X705916Y-378663D01*
X711758Y-374091D01*
X716584Y-368503D01*
X720191Y-362000D01*
X722426Y-354939D01*
X723138Y-347573D01*
X722426Y-340156D01*
X720191Y-333095D01*
X716584Y-326593D01*
X714502Y-324154D01*
X712673Y-321056D01*
X712063Y-317550D01*
X712673Y-314045D01*
X714502Y-310946D01*
X716584Y-308508D01*
X720191Y-302006D01*
X722426Y-294944D01*
X723138Y-287578D01*
X722426Y-280162D01*
X720191Y-273100D01*
X716584Y-266598D01*
X711758Y-261010D01*
X705916Y-256438D01*
X699262Y-253187D01*
X692048Y-251307D01*
X684631Y-250952D01*
X677316Y-252069D01*
X670356Y-254660D01*
X664057Y-258571D01*
X658723Y-263702D01*
X654456Y-269748D01*
X651560Y-276606D01*
X650036Y-283870D01*
X650036Y-291236D01*
X651560Y-298500D01*
X654456Y-305358D01*
X658926Y-311759D01*
X660552Y-315518D01*
X660552Y-319582D01*
X658926Y-323342D01*
X654456Y-329742D01*
X651560Y-336600D01*
X650036Y-343865D01*
X650036Y-351231D01*
X651560Y-358495D01*
X654456Y-365353D01*
X658723Y-371398D01*
X664057Y-376529D01*
X670356Y-380441D01*
X677316Y-383032D01*
G37*
G36*
X81280Y-181965D02*
G01*
X93268Y-181965D01*
X105105Y-180187D01*
X116585Y-176733D01*
X127457Y-171653D01*
X137464Y-165049D01*
X146405Y-157022D01*
X154076Y-147828D01*
X160324Y-137566D01*
X165049Y-126542D01*
X168046Y-114909D01*
X169367Y-103022D01*
X168910Y-91033D01*
X166776Y-79197D01*
X162864Y-67868D01*
X157378Y-57200D01*
X150418Y-47447D01*
X142087Y-38811D01*
X132588Y-31495D01*
X122123Y-25603D01*
X110947Y-21336D01*
X99212Y-18694D01*
X87274Y-17830D01*
X75285Y-18694D01*
X67106Y-20523D01*
X63703Y-20726D01*
X60452Y-19761D01*
X57708Y-17780D01*
X38811Y1066D01*
X36830Y3911D01*
X33680Y14427D01*
X30073Y20929D01*
X25247Y26568D01*
X19405Y31089D01*
X12750Y34340D01*
X5537Y36220D01*
X-1879Y36576D01*
X-9194Y35458D01*
X-16154Y32918D01*
X-22453Y28956D01*
X-27787Y23876D01*
X-32054Y17780D01*
X-34950Y10972D01*
X-36474Y3708D01*
X-36474Y-3708D01*
X-34950Y-10972D01*
X-32054Y-17780D01*
X-27787Y-23876D01*
X-22453Y-28956D01*
X-16154Y-32918D01*
X-9194Y-35458D01*
X-3759Y-36830D01*
X-1168Y-38709D01*
X11938Y-51816D01*
X14274Y-55372D01*
X14935Y-59537D01*
X13817Y-63652D01*
X11633Y-67868D01*
X7772Y-79197D01*
X5588Y-91033D01*
X5130Y-103022D01*
X6451Y-114909D01*
X9499Y-126542D01*
X14173Y-137566D01*
X20421Y-147828D01*
X28092Y-157022D01*
X37033Y-165049D01*
X47040Y-171653D01*
X57912Y-176733D01*
X69392Y-180187D01*
G37*
G36*
X257149Y3352D02*
G01*
X264566Y3708D01*
X271780Y5588D01*
X278434Y8839D01*
X284276Y13360D01*
X289102Y18999D01*
X292709Y25501D01*
X294944Y32562D01*
X295656Y39928D01*
X294944Y47294D01*
X292709Y54356D01*
X289102Y60858D01*
X284327Y66446D01*
X277215Y71831D01*
X274675Y74574D01*
X273354Y78079D01*
X273354Y81788D01*
X274675Y85293D01*
X277215Y88036D01*
X284327Y93421D01*
X289102Y99009D01*
X292709Y105511D01*
X294944Y112572D01*
X295656Y119938D01*
X294944Y127304D01*
X292709Y134366D01*
X289102Y140868D01*
X284327Y146456D01*
X277266Y151790D01*
X274777Y154584D01*
X273456Y158038D01*
X273456Y161747D01*
X274777Y165201D01*
X277266Y167995D01*
X284327Y173329D01*
X289102Y178917D01*
X292709Y185420D01*
X294944Y192481D01*
X295656Y199847D01*
X294944Y207213D01*
X292709Y214274D01*
X289102Y220776D01*
X284276Y226415D01*
X278434Y230936D01*
X271780Y234188D01*
X264566Y236067D01*
X257149Y236423D01*
X249834Y235305D01*
X242874Y232765D01*
X236575Y228803D01*
X231241Y223723D01*
X227329Y218084D01*
X224332Y215290D01*
X220522Y213867D01*
X216458Y214071D01*
X212750Y215900D01*
X210108Y218998D01*
X209092Y220776D01*
X204266Y226415D01*
X198424Y230936D01*
X191770Y234188D01*
X184556Y236067D01*
X177139Y236423D01*
X169824Y235305D01*
X162864Y232765D01*
X156565Y228803D01*
X151231Y223723D01*
X146964Y217627D01*
X144881Y212699D01*
X142544Y209346D01*
X140614Y208178D01*
X141732Y206552D01*
X142544Y202539D01*
X142544Y196138D01*
X144068Y188874D01*
X146964Y182067D01*
X151231Y175971D01*
X156565Y170891D01*
X160426Y168452D01*
X163423Y165658D01*
X164998Y161899D01*
X164998Y157784D01*
X163423Y154025D01*
X160426Y151231D01*
X156565Y148793D01*
X151231Y143713D01*
X146964Y137617D01*
X144068Y130810D01*
X142544Y123545D01*
X142544Y116128D01*
X144068Y108864D01*
X146964Y102057D01*
X151231Y95961D01*
X156565Y90881D01*
X162864Y86918D01*
X169824Y84378D01*
X177139Y83261D01*
X184556Y83616D01*
X191770Y85496D01*
X198424Y88747D01*
X204266Y93268D01*
X209092Y98907D01*
X210108Y100736D01*
X212801Y103885D01*
X216458Y105664D01*
X220573Y105867D01*
X224383Y104444D01*
X227329Y101650D01*
X231241Y96062D01*
X236575Y90982D01*
X240436Y88544D01*
X243433Y85750D01*
X245008Y81991D01*
X245008Y77876D01*
X243433Y74117D01*
X240436Y71323D01*
X236575Y68884D01*
X231241Y63804D01*
X226974Y57708D01*
X224078Y50901D01*
X222554Y43637D01*
X222554Y36220D01*
X224078Y28956D01*
X226974Y22148D01*
X231241Y16052D01*
X236575Y10972D01*
X242874Y7010D01*
X249834Y4470D01*
G37*
G36*
X87122Y183337D02*
G01*
X94538Y183692D01*
X101752Y185572D01*
X108407Y188823D01*
X114249Y193395D01*
X119075Y198983D01*
X124714Y209143D01*
X127254Y211124D01*
X125831Y213664D01*
X125425Y217728D01*
X125628Y219913D01*
X124917Y227329D01*
X122682Y234391D01*
X119075Y240893D01*
X114249Y246481D01*
X108407Y251053D01*
X101752Y254304D01*
X94538Y256184D01*
X87122Y256540D01*
X79806Y255422D01*
X72847Y252831D01*
X66548Y248920D01*
X61214Y243789D01*
X56946Y237744D01*
X54051Y230886D01*
X52527Y223621D01*
X52527Y216255D01*
X54051Y208991D01*
X56946Y202133D01*
X61214Y196088D01*
X66548Y190957D01*
X72847Y187045D01*
X79806Y184454D01*
G37*

%LPD*%
G36*
X345541Y-674319D02*
G01*
X341782Y-673557D01*
X338582Y-671525D01*
X336296Y-668426D01*
X335381Y-664768D01*
X335889Y-660958D01*
X337718Y-657656D01*
X345846Y-647852D01*
X352094Y-637641D01*
X356768Y-626567D01*
X359816Y-614984D01*
X361137Y-603046D01*
X360680Y-591058D01*
X358495Y-579272D01*
X354634Y-567893D01*
X349148Y-557225D01*
X342188Y-547471D01*
X333857Y-538835D01*
X324358Y-531520D01*
X313893Y-525627D01*
X306324Y-522732D01*
X302920Y-520598D01*
X300583Y-517245D01*
X299770Y-513283D01*
X299770Y-430428D01*
X300583Y-426516D01*
X302768Y-423214D01*
X358648Y-367334D01*
X362356Y-362204D01*
X364134Y-357530D01*
X364794Y-351993D01*
X364794Y-338328D01*
X365760Y-334111D01*
X368350Y-330606D01*
X372160Y-328574D01*
X376529Y-328269D01*
X382168Y-329133D01*
X389585Y-328777D01*
X396748Y-326898D01*
X403402Y-323646D01*
X409295Y-319125D01*
X414121Y-313486D01*
X417677Y-306984D01*
X419912Y-299923D01*
X420674Y-292557D01*
X420166Y-287477D01*
X420624Y-283464D01*
X422605Y-279857D01*
X425805Y-277368D01*
X433425Y-273659D01*
X439267Y-269138D01*
X444093Y-263499D01*
X449834Y-252984D01*
X453085Y-250494D01*
X457047Y-249428D01*
X462330Y-250545D01*
X469646Y-251663D01*
X477062Y-251307D01*
X484276Y-249428D01*
X490423Y-246379D01*
X494385Y-245364D01*
X498449Y-245973D01*
X501904Y-248158D01*
X504240Y-251510D01*
X506984Y-257860D01*
X510590Y-262991D01*
X512165Y-266750D01*
X512165Y-270865D01*
X510590Y-274624D01*
X506984Y-279755D01*
X504037Y-286613D01*
X502564Y-293878D01*
X502564Y-300532D01*
X501802Y-304444D01*
X499567Y-307746D01*
X464464Y-342798D01*
X460756Y-347980D01*
X458978Y-352602D01*
X458317Y-358190D01*
X458317Y-513232D01*
X457504Y-517194D01*
X455218Y-520547D01*
X451764Y-522732D01*
X444144Y-525627D01*
X433679Y-531520D01*
X424180Y-538835D01*
X415848Y-547471D01*
X408889Y-557225D01*
X403402Y-567893D01*
X399542Y-579272D01*
X397357Y-591058D01*
X396900Y-603046D01*
X398221Y-614984D01*
X401269Y-626567D01*
X405942Y-637641D01*
X409397Y-643331D01*
X410819Y-647446D01*
X410413Y-651814D01*
X408127Y-655574D01*
X404520Y-658012D01*
X400253Y-658774D01*
X393141Y-658418D01*
X385826Y-659536D01*
X378866Y-662076D01*
X372567Y-666038D01*
X366826Y-671525D01*
X363575Y-673557D01*
X359816Y-674319D01*
G37*

%LPD*%
G36*
X-137922Y-713740D02*
G01*
X-141782Y-712927D01*
X-145084Y-710742D01*
X-163372Y-692454D01*
X-165608Y-689102D01*
X-166370Y-685139D01*
X-165506Y-681228D01*
X-163169Y-677926D01*
X-159766Y-675792D01*
X-155803Y-675132D01*
X-151892Y-676097D01*
X-150368Y-676808D01*
X-138887Y-680262D01*
X-127000Y-681990D01*
X-115011Y-681990D01*
X-103124Y-680262D01*
X-91643Y-676808D01*
X-80772Y-671728D01*
X-70764Y-665073D01*
X-61874Y-657098D01*
X-54152Y-647852D01*
X-47904Y-637641D01*
X-43230Y-626567D01*
X-40182Y-614984D01*
X-38912Y-603046D01*
X-39319Y-591058D01*
X-41503Y-579272D01*
X-45364Y-567893D01*
X-50850Y-557225D01*
X-57861Y-547471D01*
X-66192Y-538835D01*
X-75692Y-531520D01*
X-86106Y-525627D01*
X-93726Y-522732D01*
X-97129Y-520547D01*
X-99466Y-517245D01*
X-100279Y-513232D01*
X-100279Y-485292D01*
X-99466Y-481380D01*
X-97282Y-478078D01*
X24587Y-356209D01*
X27889Y-354025D01*
X31800Y-353212D01*
X159512Y-353212D01*
X163423Y-354025D01*
X166725Y-356209D01*
X168910Y-359511D01*
X169672Y-363423D01*
X168910Y-367284D01*
X166725Y-370586D01*
X64414Y-472744D01*
X60706Y-477875D01*
X58928Y-482549D01*
X58267Y-488086D01*
X58267Y-513283D01*
X57454Y-517245D01*
X55117Y-520598D01*
X51714Y-522732D01*
X44145Y-525627D01*
X33680Y-531520D01*
X24180Y-538835D01*
X15849Y-547471D01*
X8890Y-557225D01*
X3403Y-567893D01*
X-457Y-579272D01*
X-2641Y-591058D01*
X-3098Y-603046D01*
X-1778Y-614984D01*
X1270Y-626567D01*
X5943Y-637641D01*
X12192Y-647852D01*
X19862Y-657098D01*
X28803Y-665073D01*
X38811Y-671728D01*
X49682Y-676808D01*
X61163Y-680262D01*
X72999Y-681990D01*
X85039Y-681990D01*
X96875Y-680262D01*
X108356Y-676808D01*
X119227Y-671728D01*
X129235Y-665073D01*
X138176Y-657098D01*
X139395Y-655624D01*
X142595Y-653084D01*
X146507Y-652018D01*
X150571Y-652526D01*
X154076Y-654659D01*
X156464Y-657961D01*
X158851Y-663244D01*
X162306Y-667664D01*
X191008Y-696366D01*
X193192Y-699668D01*
X194005Y-703580D01*
X193192Y-707440D01*
X191008Y-710742D01*
X187706Y-712927D01*
X183845Y-713740D01*
G37*

%LPD*%
G36*
X1543862Y-745236D02*
G01*
X1539697Y-744931D01*
X1536039Y-742950D01*
X1533448Y-739648D01*
X1532382Y-735634D01*
X1533042Y-731520D01*
X1535328Y-728014D01*
X1554124Y-709066D01*
X1557172Y-704596D01*
X1558950Y-699922D01*
X1559610Y-694385D01*
X1559610Y-465023D01*
X1558645Y-458724D01*
X1556562Y-454202D01*
X1553159Y-449783D01*
X1500936Y-397611D01*
X1498752Y-394360D01*
X1497990Y-390550D01*
X1498701Y-386689D01*
X1500784Y-383387D01*
X1503984Y-381152D01*
X1507794Y-380288D01*
X1511655Y-380898D01*
X1517599Y-383082D01*
X1524914Y-384200D01*
X1532331Y-383844D01*
X1539544Y-381965D01*
X1546199Y-378714D01*
X1552041Y-374192D01*
X1556867Y-368554D01*
X1560474Y-362051D01*
X1562709Y-354990D01*
X1563420Y-347624D01*
X1562709Y-340258D01*
X1561033Y-334975D01*
X1560576Y-331266D01*
X1561541Y-327609D01*
X1563725Y-324612D01*
X1566875Y-322529D01*
X1570532Y-321767D01*
X1576984Y-321665D01*
X1580946Y-322376D01*
X1584299Y-324561D01*
X1586585Y-327914D01*
X1587347Y-331876D01*
X1584655Y-343916D01*
X1584655Y-351332D01*
X1586179Y-358597D01*
X1589074Y-365404D01*
X1593342Y-371500D01*
X1598676Y-376580D01*
X1604975Y-380542D01*
X1611934Y-383082D01*
X1619250Y-384200D01*
X1626666Y-383844D01*
X1633880Y-381965D01*
X1640535Y-378714D01*
X1646377Y-374192D01*
X1651203Y-368554D01*
X1657096Y-357682D01*
X1660347Y-355142D01*
X1664411Y-354177D01*
X1668475Y-354888D01*
X1671929Y-357124D01*
X1732940Y-418134D01*
X1735124Y-421436D01*
X1735937Y-425348D01*
X1735937Y-564946D01*
X1735226Y-568553D01*
X1733346Y-571703D01*
X1730400Y-573989D01*
X1726895Y-575056D01*
X1723186Y-574802D01*
X1719580Y-573836D01*
X1712163Y-573481D01*
X1704848Y-574598D01*
X1697888Y-577138D01*
X1691589Y-581101D01*
X1686204Y-586181D01*
X1681988Y-592277D01*
X1679041Y-599084D01*
X1677568Y-606348D01*
X1677568Y-613765D01*
X1679041Y-621030D01*
X1681988Y-627837D01*
X1686204Y-633933D01*
X1691589Y-639013D01*
X1697177Y-642518D01*
X1699869Y-644956D01*
X1701546Y-648208D01*
X1701952Y-651814D01*
X1701038Y-655320D01*
X1699006Y-658317D01*
X1693367Y-663956D01*
X1690065Y-666140D01*
X1686153Y-666953D01*
X1643278Y-666953D01*
X1637944Y-667918D01*
X1633423Y-670001D01*
X1629003Y-673404D01*
X1564843Y-737616D01*
X1562506Y-740613D01*
X1560271Y-742696D01*
X1557528Y-744016D01*
X1554530Y-744474D01*
X1549654Y-744474D01*
G37*

%LPD*%
G36*
X1837232Y-747471D02*
G01*
X1833372Y-746709D01*
X1830070Y-744474D01*
X1827885Y-741172D01*
X1827072Y-737311D01*
X1827072Y-387807D01*
X1826107Y-381508D01*
X1824024Y-376986D01*
X1820621Y-372567D01*
X1735074Y-287070D01*
X1732889Y-283768D01*
X1732076Y-279857D01*
X1732076Y-172669D01*
X1731111Y-166370D01*
X1729028Y-161848D01*
X1725625Y-157429D01*
X1664309Y-96164D01*
X1662125Y-92913D01*
X1661312Y-89154D01*
X1662023Y-85344D01*
X1664055Y-82042D01*
X1667205Y-79756D01*
X1672031Y-78790D01*
X1679244Y-76911D01*
X1685899Y-73660D01*
X1691741Y-69088D01*
X1696567Y-63500D01*
X1700174Y-56946D01*
X1703171Y-53593D01*
X1707337Y-51866D01*
X1711807Y-52120D01*
X1715770Y-54254D01*
X1718411Y-57861D01*
X1719478Y-60350D01*
X1723694Y-66395D01*
X1729079Y-71526D01*
X1735378Y-75438D01*
X1742338Y-78028D01*
X1749653Y-79146D01*
X1757070Y-78790D01*
X1764233Y-76911D01*
X1765807Y-76149D01*
X1769821Y-75133D01*
X1773936Y-75793D01*
X1777441Y-78079D01*
X1802790Y-103225D01*
X1804974Y-106527D01*
X1805787Y-110439D01*
X1805787Y-227482D01*
X1806752Y-233781D01*
X1808835Y-238302D01*
X1812239Y-242722D01*
X1940458Y-370890D01*
X1942642Y-374192D01*
X1943455Y-378104D01*
X1943455Y-607263D01*
X1942642Y-611124D01*
X1940458Y-614426D01*
X1889455Y-665226D01*
X1885696Y-670407D01*
X1883918Y-675081D01*
X1883257Y-680618D01*
X1883257Y-734314D01*
X1882444Y-738225D01*
X1880260Y-741527D01*
X1876958Y-743712D01*
X1873097Y-744474D01*
X1849678Y-744474D01*
X1844954Y-745083D01*
X1841144Y-746709D01*
G37*

%LPD*%
G36*
X-475030Y-794054D02*
G01*
X-478942Y-793292D01*
X-482193Y-791057D01*
X-484428Y-787806D01*
X-485190Y-783894D01*
X-485190Y-756005D01*
X-484428Y-752094D01*
X-482193Y-748792D01*
X-478942Y-746607D01*
X-475030Y-745845D01*
X-451662Y-745845D01*
X-446938Y-745185D01*
X-443179Y-743661D01*
X-439978Y-741172D01*
X-437489Y-737920D01*
X-435914Y-734161D01*
X-435305Y-729437D01*
X-435305Y-670814D01*
X-435914Y-666089D01*
X-437489Y-662330D01*
X-439978Y-659079D01*
X-443636Y-655421D01*
X-444957Y-651967D01*
X-444957Y-648258D01*
X-443636Y-644804D01*
X-439978Y-641146D01*
X-437489Y-637946D01*
X-435914Y-634136D01*
X-435305Y-629462D01*
X-435305Y-570788D01*
X-435914Y-566064D01*
X-437489Y-562305D01*
X-439978Y-559104D01*
X-443636Y-555447D01*
X-444957Y-551992D01*
X-444957Y-548284D01*
X-443636Y-544830D01*
X-439978Y-541172D01*
X-437489Y-537921D01*
X-435914Y-534162D01*
X-435305Y-529437D01*
X-435305Y-470763D01*
X-435914Y-466090D01*
X-437489Y-462330D01*
X-439978Y-459079D01*
X-443636Y-455422D01*
X-444957Y-451967D01*
X-444957Y-448259D01*
X-443636Y-444804D01*
X-439978Y-441147D01*
X-437489Y-437896D01*
X-435914Y-434136D01*
X-435305Y-429463D01*
X-435305Y-370789D01*
X-435914Y-366064D01*
X-437489Y-362305D01*
X-439978Y-359054D01*
X-443636Y-355396D01*
X-445008Y-351942D01*
X-445008Y-348234D01*
X-443636Y-344779D01*
X-439928Y-341071D01*
X-437489Y-337820D01*
X-435914Y-334060D01*
X-435305Y-329336D01*
X-435305Y-270713D01*
X-435914Y-265988D01*
X-437489Y-262229D01*
X-439928Y-258978D01*
X-443585Y-255320D01*
X-444906Y-251866D01*
X-444906Y-248158D01*
X-443585Y-244703D01*
X-439928Y-241046D01*
X-437489Y-237845D01*
X-435914Y-234086D01*
X-435305Y-229362D01*
X-435305Y-170688D01*
X-435914Y-165963D01*
X-437489Y-162204D01*
X-439928Y-159004D01*
X-443585Y-155346D01*
X-444906Y-151892D01*
X-444906Y-148183D01*
X-443585Y-144729D01*
X-439978Y-141071D01*
X-437489Y-137820D01*
X-435914Y-134061D01*
X-435305Y-129387D01*
X-435305Y-70713D01*
X-435914Y-65989D01*
X-437489Y-62230D01*
X-439978Y-58978D01*
X-443179Y-56489D01*
X-446938Y-54965D01*
X-451662Y-54356D01*
X-475030Y-54356D01*
X-478942Y-53543D01*
X-482193Y-51358D01*
X-484428Y-48056D01*
X-485190Y-44196D01*
X-485190Y44094D01*
X-484428Y48006D01*
X-482193Y51308D01*
X-478942Y53492D01*
X-475030Y54254D01*
X-451662Y54254D01*
X-446938Y54914D01*
X-443179Y56438D01*
X-439928Y58928D01*
X-437489Y62179D01*
X-435914Y65938D01*
X-435305Y70662D01*
X-435305Y129285D01*
X-435914Y134010D01*
X-437489Y137769D01*
X-439928Y141020D01*
X-443585Y144678D01*
X-444906Y148132D01*
X-444906Y151841D01*
X-443585Y155295D01*
X-439928Y158953D01*
X-437489Y162153D01*
X-435914Y165963D01*
X-435305Y170637D01*
X-435305Y229311D01*
X-435914Y234035D01*
X-437489Y237794D01*
X-439928Y240995D01*
X-443585Y244652D01*
X-444906Y248107D01*
X-444906Y251815D01*
X-443585Y255270D01*
X-439928Y258927D01*
X-437489Y262128D01*
X-435914Y265938D01*
X-435305Y270611D01*
X-435305Y329285D01*
X-435914Y334010D01*
X-437489Y337769D01*
X-439928Y340969D01*
X-443585Y344627D01*
X-444906Y348132D01*
X-444906Y351790D01*
X-443585Y355244D01*
X-439928Y358902D01*
X-437489Y362153D01*
X-435914Y365912D01*
X-435305Y370636D01*
X-435305Y429310D01*
X-435914Y433984D01*
X-437489Y437743D01*
X-439928Y440994D01*
X-443585Y444652D01*
X-444957Y448106D01*
X-444957Y451815D01*
X-443585Y455269D01*
X-439928Y458927D01*
X-437489Y462178D01*
X-435914Y465937D01*
X-435305Y470611D01*
X-435305Y529285D01*
X-435914Y534009D01*
X-437489Y537768D01*
X-439928Y541020D01*
X-443585Y544626D01*
X-444906Y548081D01*
X-444906Y551789D01*
X-443585Y555244D01*
X-439978Y558901D01*
X-437489Y562152D01*
X-434390Y569823D01*
X-431444Y572770D01*
X-427583Y574294D01*
X-421538Y575665D01*
X-416356Y578154D01*
X-411683Y581964D01*
X-327253Y666648D01*
X-323443Y671372D01*
X-321005Y676554D01*
X-319735Y682142D01*
X-319532Y685292D01*
X-319532Y870051D01*
X-318770Y873912D01*
X-316585Y877214D01*
X-308102Y885647D01*
X-305054Y887780D01*
X-299618Y888695D01*
X-292404Y890574D01*
X-285750Y893826D01*
X-279908Y898398D01*
X-275082Y903986D01*
X-271475Y910488D01*
X-269240Y917549D01*
X-268528Y924915D01*
X-269240Y932332D01*
X-271475Y939393D01*
X-275082Y945896D01*
X-279908Y951484D01*
X-285750Y956056D01*
X-292404Y959307D01*
X-299618Y961186D01*
X-307035Y961542D01*
X-314350Y960424D01*
X-321310Y957834D01*
X-327609Y953922D01*
X-332943Y948791D01*
X-337210Y942746D01*
X-340106Y935990D01*
X-341782Y927150D01*
X-342798Y924306D01*
X-344576Y921867D01*
X-363220Y903274D01*
X-366979Y898550D01*
X-369468Y893368D01*
X-370738Y887780D01*
X-370941Y884580D01*
X-370941Y699820D01*
X-371703Y695909D01*
X-373888Y692658D01*
X-425450Y640943D01*
X-428447Y638860D01*
X-432003Y637997D01*
X-435609Y638403D01*
X-438861Y640080D01*
X-443230Y643483D01*
X-446938Y645007D01*
X-451662Y645617D01*
X-475030Y645617D01*
X-478942Y646430D01*
X-482193Y648614D01*
X-484428Y651916D01*
X-485190Y655777D01*
X-485190Y744067D01*
X-484428Y747979D01*
X-482193Y751281D01*
X-478942Y753465D01*
X-475030Y754227D01*
X-451662Y754227D01*
X-446938Y754888D01*
X-443179Y756412D01*
X-439978Y758901D01*
X-437489Y762152D01*
X-435914Y765911D01*
X-435305Y770636D01*
X-435305Y829259D01*
X-435914Y833983D01*
X-437489Y837742D01*
X-439978Y840994D01*
X-443636Y844651D01*
X-444957Y848106D01*
X-444957Y851814D01*
X-443636Y855268D01*
X-439978Y858926D01*
X-437489Y862126D01*
X-435914Y865936D01*
X-435305Y870610D01*
X-435305Y929284D01*
X-435914Y934008D01*
X-437489Y937768D01*
X-439978Y940968D01*
X-443636Y944626D01*
X-444957Y948080D01*
X-444957Y951788D01*
X-443636Y955243D01*
X-439978Y958900D01*
X-437489Y962152D01*
X-435914Y965911D01*
X-435305Y970635D01*
X-435305Y1029309D01*
X-435914Y1033983D01*
X-437489Y1037742D01*
X-439978Y1040993D01*
X-443585Y1044651D01*
X-444906Y1048105D01*
X-444906Y1051814D01*
X-443585Y1055268D01*
X-439978Y1058875D01*
X-437489Y1062126D01*
X-435914Y1065885D01*
X-435305Y1070610D01*
X-435305Y1129284D01*
X-435914Y1133957D01*
X-437489Y1137716D01*
X-439978Y1140968D01*
X-443179Y1143457D01*
X-446938Y1145032D01*
X-451662Y1145641D01*
X-475030Y1145641D01*
X-478942Y1146403D01*
X-482193Y1148588D01*
X-484428Y1151890D01*
X-485190Y1155801D01*
X-485190Y1183843D01*
X-484428Y1187754D01*
X-482193Y1191006D01*
X-478942Y1193241D01*
X-475030Y1194003D01*
X-376834Y1194003D01*
X-372973Y1193241D01*
X-369671Y1191006D01*
X-367487Y1187754D01*
X-366674Y1183843D01*
X-366674Y1160627D01*
X-366064Y1155903D01*
X-364490Y1152144D01*
X-362051Y1148892D01*
X-358800Y1146403D01*
X-355041Y1144879D01*
X-350316Y1144219D01*
X-291642Y1144219D01*
X-286969Y1144879D01*
X-283210Y1146403D01*
X-279958Y1148892D01*
X-276301Y1152550D01*
X-272846Y1153871D01*
X-269138Y1153871D01*
X-265684Y1152550D01*
X-262026Y1148892D01*
X-258775Y1146403D01*
X-255016Y1144828D01*
X-250342Y1144219D01*
X-191668Y1144219D01*
X-186944Y1144828D01*
X-183184Y1146403D01*
X-179933Y1148892D01*
X-176326Y1152550D01*
X-172872Y1153871D01*
X-169164Y1153871D01*
X-165709Y1152550D01*
X-162052Y1148892D01*
X-158800Y1146403D01*
X-155041Y1144828D01*
X-150317Y1144219D01*
X-91643Y1144219D01*
X-86969Y1144828D01*
X-83210Y1146403D01*
X-79959Y1148892D01*
X-76301Y1152550D01*
X-72847Y1153871D01*
X-69138Y1153871D01*
X-65684Y1152550D01*
X-62026Y1148892D01*
X-58775Y1146403D01*
X-55016Y1144828D01*
X-50342Y1144219D01*
X8331Y1144219D01*
X13055Y1144828D01*
X16814Y1146403D01*
X20066Y1148892D01*
X23672Y1152550D01*
X27127Y1153871D01*
X30835Y1153871D01*
X34290Y1152550D01*
X37947Y1148892D01*
X41198Y1146403D01*
X44958Y1144828D01*
X49682Y1144219D01*
X108356Y1144219D01*
X113030Y1144828D01*
X116789Y1146403D01*
X120040Y1148892D01*
X123698Y1152550D01*
X127152Y1153871D01*
X130860Y1153871D01*
X134315Y1152550D01*
X137972Y1148892D01*
X141224Y1146403D01*
X144983Y1144828D01*
X149656Y1144219D01*
X208330Y1144219D01*
X213055Y1144828D01*
X216814Y1146403D01*
X220065Y1148892D01*
X223672Y1152499D01*
X227126Y1153871D01*
X230835Y1153871D01*
X234289Y1152499D01*
X237947Y1148892D01*
X241198Y1146403D01*
X244957Y1144828D01*
X249682Y1144219D01*
X308356Y1144219D01*
X313029Y1144828D01*
X316788Y1146403D01*
X320040Y1148892D01*
X323697Y1152499D01*
X327152Y1153871D01*
X330860Y1153871D01*
X334314Y1152499D01*
X337972Y1148842D01*
X341223Y1146403D01*
X344982Y1144828D01*
X349656Y1144219D01*
X408330Y1144219D01*
X413054Y1144828D01*
X416814Y1146403D01*
X420065Y1148842D01*
X423672Y1152499D01*
X427126Y1153820D01*
X430834Y1153820D01*
X434289Y1152499D01*
X437946Y1148842D01*
X441198Y1146352D01*
X444957Y1144828D01*
X449681Y1144219D01*
X508355Y1144219D01*
X513029Y1144828D01*
X516788Y1146352D01*
X520039Y1148842D01*
X523697Y1152499D01*
X527151Y1153820D01*
X530860Y1153820D01*
X534314Y1152499D01*
X537972Y1148842D01*
X541223Y1146352D01*
X544982Y1144828D01*
X549656Y1144168D01*
X608330Y1144168D01*
X613054Y1144828D01*
X616813Y1146352D01*
X620064Y1148842D01*
X623671Y1152499D01*
X627126Y1153820D01*
X630834Y1153820D01*
X634288Y1152499D01*
X637946Y1148842D01*
X641197Y1146352D01*
X644956Y1144828D01*
X649681Y1144168D01*
X708355Y1144168D01*
X713028Y1144828D01*
X716788Y1146352D01*
X720039Y1148842D01*
X723696Y1152499D01*
X727151Y1153820D01*
X730859Y1153820D01*
X734314Y1152499D01*
X737971Y1148842D01*
X741222Y1146352D01*
X744982Y1144778D01*
X749655Y1144168D01*
X808329Y1144168D01*
X813053Y1144778D01*
X816813Y1146352D01*
X820064Y1148842D01*
X823671Y1152499D01*
X827125Y1153820D01*
X830834Y1153820D01*
X834288Y1152499D01*
X837946Y1148842D01*
X841197Y1146352D01*
X844956Y1144778D01*
X849680Y1144168D01*
X881887Y1144168D01*
X885799Y1143406D01*
X889101Y1141222D01*
X891286Y1137920D01*
X892048Y1134008D01*
X891286Y1130147D01*
X889101Y1126845D01*
X804875Y1042416D01*
X801420Y1038047D01*
X798880Y1032357D01*
X796747Y1029258D01*
X791260Y1023874D01*
X784301Y1014120D01*
X780338Y1012037D01*
X775868Y1011834D01*
X771753Y1013561D01*
X768756Y1016914D01*
X766572Y1020876D01*
X761746Y1026515D01*
X756513Y1030579D01*
X753668Y1033983D01*
X749147Y1042771D01*
X742188Y1052525D01*
X733856Y1061161D01*
X724357Y1068476D01*
X713892Y1074369D01*
X702716Y1078636D01*
X690981Y1081227D01*
X679043Y1082141D01*
X667054Y1081227D01*
X655320Y1078636D01*
X644144Y1074369D01*
X633679Y1068476D01*
X624179Y1061161D01*
X615848Y1052525D01*
X608888Y1042771D01*
X603402Y1032103D01*
X599541Y1020724D01*
X597357Y1008938D01*
X596900Y996950D01*
X598220Y985012D01*
X601268Y973429D01*
X605942Y962355D01*
X612190Y952144D01*
X619861Y942898D01*
X628802Y934923D01*
X638810Y928268D01*
X649681Y923188D01*
X661162Y919734D01*
X672998Y918006D01*
X685088Y918006D01*
X692962Y919022D01*
X696823Y918819D01*
X700278Y917194D01*
X702919Y914349D01*
X704291Y910793D01*
X704240Y906932D01*
X702564Y898652D01*
X702564Y891336D01*
X701700Y887272D01*
X699312Y883869D01*
X695756Y881735D01*
X691642Y881176D01*
X679043Y882142D01*
X667054Y881227D01*
X655320Y878636D01*
X644144Y874369D01*
X633679Y868476D01*
X624179Y861161D01*
X620217Y857046D01*
X616762Y854710D01*
X612648Y853948D01*
X608533Y854913D01*
X605231Y857503D01*
X601776Y861517D01*
X595884Y866038D01*
X589229Y869289D01*
X582066Y871169D01*
X574649Y871524D01*
X567334Y870407D01*
X560374Y867867D01*
X554075Y863904D01*
X548690Y858824D01*
X544779Y853186D01*
X541832Y850392D01*
X537972Y848969D01*
X533908Y849172D01*
X530250Y851001D01*
X527558Y854100D01*
X526592Y855878D01*
X521766Y861517D01*
X515874Y866038D01*
X512521Y867714D01*
X509016Y870508D01*
X507085Y874572D01*
X507085Y879094D01*
X509016Y883107D01*
X512521Y885952D01*
X518414Y888847D01*
X524256Y893368D01*
X529082Y899007D01*
X532688Y905510D01*
X534924Y912571D01*
X535635Y919937D01*
X534924Y927303D01*
X532688Y934364D01*
X529082Y940866D01*
X524256Y946505D01*
X518414Y951026D01*
X511759Y954278D01*
X504545Y956157D01*
X497128Y956513D01*
X489813Y955395D01*
X482854Y952855D01*
X476554Y948893D01*
X471220Y943813D01*
X467309Y938174D01*
X464312Y935380D01*
X460501Y933958D01*
X456438Y934161D01*
X452729Y935990D01*
X450088Y939088D01*
X449072Y940866D01*
X444246Y946505D01*
X438404Y951026D01*
X431749Y954278D01*
X424535Y956157D01*
X417118Y956513D01*
X409803Y955395D01*
X402844Y952855D01*
X396544Y948893D01*
X391210Y943813D01*
X386943Y937717D01*
X385572Y934466D01*
X383235Y931113D01*
X379780Y928928D01*
X375716Y928319D01*
X371754Y929335D01*
X366725Y931824D01*
X359562Y933703D01*
X351942Y934059D01*
X347675Y935278D01*
X344271Y938174D01*
X342493Y942289D01*
X342646Y946759D01*
X344678Y950721D01*
X345846Y952144D01*
X354431Y966165D01*
X358394Y968857D01*
X364286Y973378D01*
X369112Y979017D01*
X372668Y985519D01*
X374904Y992581D01*
X375666Y999947D01*
X374904Y1007313D01*
X372668Y1014374D01*
X369112Y1020876D01*
X364286Y1026515D01*
X358394Y1031036D01*
X354482Y1033526D01*
X352552Y1036167D01*
X349148Y1042771D01*
X342188Y1052525D01*
X333857Y1061161D01*
X324358Y1068476D01*
X313893Y1074369D01*
X302717Y1078636D01*
X290982Y1081227D01*
X279044Y1082141D01*
X267055Y1081227D01*
X255320Y1078636D01*
X244144Y1074369D01*
X233679Y1068476D01*
X224180Y1061161D01*
X215849Y1052525D01*
X208889Y1042771D01*
X203403Y1032103D01*
X199542Y1020724D01*
X197358Y1008938D01*
X196900Y996950D01*
X198221Y985012D01*
X201269Y973429D01*
X205943Y962355D01*
X212191Y952144D01*
X219862Y942898D01*
X227736Y935888D01*
X230124Y932637D01*
X231089Y928674D01*
X230428Y924661D01*
X228244Y921258D01*
X224891Y918971D01*
X220929Y918159D01*
X194310Y918159D01*
X190398Y918921D01*
X187096Y921105D01*
X155092Y953160D01*
X152857Y956462D01*
X152095Y960374D01*
X152908Y964285D01*
X156768Y973429D01*
X159816Y985012D01*
X161137Y996950D01*
X160680Y1008938D01*
X158496Y1020724D01*
X154635Y1032103D01*
X149148Y1042771D01*
X142189Y1052525D01*
X133858Y1061161D01*
X124358Y1068476D01*
X113893Y1074369D01*
X102717Y1078636D01*
X90982Y1081227D01*
X79044Y1082141D01*
X67056Y1081227D01*
X55321Y1078636D01*
X44145Y1074369D01*
X33680Y1068476D01*
X24180Y1061161D01*
X15849Y1052525D01*
X8890Y1042771D01*
X3403Y1032103D01*
X-457Y1020724D01*
X-2641Y1008938D01*
X-3098Y996950D01*
X-1778Y985012D01*
X1270Y973429D01*
X5943Y962355D01*
X12192Y952144D01*
X19862Y942898D01*
X28803Y934923D01*
X32766Y932281D01*
X35610Y929436D01*
X37134Y925677D01*
X37084Y921613D01*
X35458Y917905D01*
X32512Y915162D01*
X28702Y913790D01*
X23164Y912926D01*
X16205Y910336D01*
X9906Y906424D01*
X4572Y901293D01*
X304Y895248D01*
X-2590Y888390D01*
X-4114Y881126D01*
X-4114Y873760D01*
X-2590Y866495D01*
X304Y859637D01*
X4572Y853592D01*
X9906Y848461D01*
X19608Y842568D01*
X21894Y839673D01*
X23012Y836168D01*
X22809Y832459D01*
X20320Y827735D01*
X17373Y820928D01*
X15900Y813663D01*
X15900Y806246D01*
X17373Y798982D01*
X18745Y795782D01*
X19558Y791870D01*
X18846Y787958D01*
X16662Y784606D01*
X13309Y782421D01*
X9398Y781608D01*
X-33426Y781608D01*
X-39014Y780542D01*
X-43738Y778408D01*
X-48361Y774801D01*
X-196494Y626668D01*
X-199796Y624484D01*
X-203708Y623671D01*
X-207568Y624484D01*
X-210870Y626668D01*
X-213055Y629970D01*
X-213867Y633831D01*
X-213867Y701548D01*
X-213360Y704596D01*
X-212039Y707339D01*
X-209905Y709574D01*
X-206400Y712317D01*
X-201371Y718159D01*
X-197612Y724916D01*
X-195275Y732282D01*
X-194513Y739952D01*
X-195275Y747623D01*
X-197612Y754989D01*
X-201371Y761746D01*
X-206400Y767588D01*
X-212496Y772312D01*
X-219405Y775716D01*
X-226872Y777646D01*
X-234594Y778052D01*
X-242214Y776884D01*
X-249478Y774192D01*
X-256032Y770128D01*
X-261620Y764794D01*
X-266039Y758444D01*
X-269036Y751382D01*
X-270611Y743813D01*
X-270611Y736092D01*
X-269036Y728522D01*
X-266039Y721461D01*
X-263042Y717194D01*
X-261721Y714451D01*
X-261213Y711403D01*
X-261213Y-651662D01*
X-260096Y-658825D01*
X-257759Y-664057D01*
X-253847Y-668985D01*
X-195834Y-727049D01*
X-193649Y-730351D01*
X-192836Y-734212D01*
X-193649Y-738124D01*
X-195834Y-741426D01*
X-199136Y-743610D01*
X-202996Y-744372D01*
X-250342Y-744372D01*
X-255016Y-744982D01*
X-258775Y-746556D01*
X-262026Y-749046D01*
X-264515Y-752246D01*
X-266090Y-756056D01*
X-266700Y-760730D01*
X-266700Y-783894D01*
X-267462Y-787806D01*
X-269646Y-791057D01*
X-272948Y-793292D01*
X-276860Y-794054D01*
G37*

%LPC*%
G36*
X-372110Y-93167D02*
G01*
X-364388Y-92760D01*
X-356920Y-90830D01*
X-349961Y-87426D01*
X-343865Y-82702D01*
X-338836Y-76860D01*
X-335076Y-70104D01*
X-332790Y-62738D01*
X-332028Y-55067D01*
X-332790Y-47396D01*
X-335076Y-40030D01*
X-338836Y-33274D01*
X-343865Y-27432D01*
X-349961Y-22707D01*
X-356920Y-19304D01*
X-364388Y-17373D01*
X-372110Y-16967D01*
X-379730Y-18135D01*
X-386943Y-20828D01*
X-393496Y-24892D01*
X-399084Y-30226D01*
X-403504Y-36576D01*
X-406552Y-43637D01*
X-408127Y-51206D01*
X-408127Y-58928D01*
X-406552Y-66497D01*
X-403504Y-73558D01*
X-399084Y-79908D01*
X-393496Y-85242D01*
X-386943Y-89306D01*
X-379730Y-91998D01*
G37*

%LPD*%
G36*
X1234846Y-794054D02*
G01*
X1230985Y-793292D01*
X1227683Y-791057D01*
X1225448Y-787806D01*
X1224686Y-783894D01*
X1224686Y-760831D01*
X1224076Y-756107D01*
X1222502Y-752348D01*
X1220063Y-749096D01*
X1216812Y-746607D01*
X1213053Y-745083D01*
X1208328Y-744474D01*
X1195273Y-744474D01*
X1191158Y-743559D01*
X1187754Y-741121D01*
X1185621Y-737514D01*
X1185164Y-733348D01*
X1186383Y-729335D01*
X1187704Y-726998D01*
X1189939Y-719937D01*
X1190650Y-712571D01*
X1189939Y-705154D01*
X1187704Y-698093D01*
X1184097Y-691591D01*
X1179271Y-686003D01*
X1173429Y-681431D01*
X1166774Y-678180D01*
X1159560Y-676300D01*
X1154226Y-676046D01*
X1151483Y-675538D01*
X1148994Y-674268D01*
X1140714Y-669137D01*
X1138428Y-666038D01*
X1137462Y-662330D01*
X1137920Y-658520D01*
X1139799Y-655167D01*
X1145844Y-647852D01*
X1152093Y-637641D01*
X1156766Y-626567D01*
X1159814Y-614984D01*
X1161135Y-603046D01*
X1160678Y-591058D01*
X1158494Y-579272D01*
X1154633Y-567893D01*
X1149146Y-557225D01*
X1142187Y-547471D01*
X1133856Y-538835D01*
X1124356Y-531520D01*
X1113891Y-525627D01*
X1102715Y-521360D01*
X1090980Y-518769D01*
X1079042Y-517855D01*
X1067054Y-518769D01*
X1055319Y-521360D01*
X1044143Y-525627D01*
X1029665Y-533806D01*
X1026058Y-534212D01*
X1022502Y-533349D01*
X1019505Y-531266D01*
X837692Y-349453D01*
X835507Y-346151D01*
X834694Y-342290D01*
X834694Y-291084D01*
X835456Y-287274D01*
X837590Y-284022D01*
X840740Y-281838D01*
X844550Y-280924D01*
X848360Y-281533D01*
X853389Y-283362D01*
X856894Y-285546D01*
X859231Y-288899D01*
X860044Y-292912D01*
X860044Y-296265D01*
X861568Y-303530D01*
X864463Y-310337D01*
X868730Y-316433D01*
X874064Y-321513D01*
X880364Y-325475D01*
X887323Y-328015D01*
X894638Y-329133D01*
X902055Y-328777D01*
X909269Y-326898D01*
X915924Y-323646D01*
X921766Y-319125D01*
X923747Y-316788D01*
X927252Y-314198D01*
X931468Y-313232D01*
X958748Y-313232D01*
X962609Y-314045D01*
X965911Y-316230D01*
X1002995Y-353263D01*
X1005281Y-356819D01*
X1005941Y-361035D01*
X1004824Y-365099D01*
X1003401Y-367893D01*
X999540Y-379272D01*
X997356Y-391058D01*
X996899Y-403047D01*
X998219Y-414985D01*
X1001268Y-426567D01*
X1005941Y-437642D01*
X1012190Y-447852D01*
X1019860Y-457098D01*
X1028801Y-465074D01*
X1038809Y-471728D01*
X1049680Y-476808D01*
X1061161Y-480263D01*
X1072997Y-481990D01*
X1085037Y-481990D01*
X1096873Y-480263D01*
X1108354Y-476808D01*
X1119225Y-471728D01*
X1129233Y-465074D01*
X1138174Y-457098D01*
X1145844Y-447852D01*
X1152093Y-437642D01*
X1156766Y-426567D01*
X1159814Y-414985D01*
X1161135Y-403047D01*
X1160678Y-391058D01*
X1158494Y-379272D01*
X1154633Y-367893D01*
X1149146Y-357225D01*
X1142187Y-347472D01*
X1133856Y-338836D01*
X1124356Y-331520D01*
X1113891Y-325628D01*
X1102715Y-321360D01*
X1090980Y-318770D01*
X1083462Y-318211D01*
X1079550Y-317093D01*
X1076401Y-314553D01*
X1074978Y-311962D01*
X1074064Y-314248D01*
X1071321Y-317042D01*
X1067765Y-318617D01*
X1055370Y-321360D01*
X1042974Y-326186D01*
X1039164Y-326847D01*
X1035354Y-326085D01*
X1032154Y-323900D01*
X986586Y-278333D01*
X983487Y-275894D01*
X980541Y-271932D01*
X976071Y-272491D01*
X970889Y-271881D01*
X945997Y-271881D01*
X942136Y-271068D01*
X938834Y-268884D01*
X936650Y-265582D01*
X935837Y-261721D01*
X936650Y-257810D01*
X938834Y-254508D01*
X954125Y-239217D01*
X957834Y-236829D01*
X962202Y-236270D01*
X966419Y-237591D01*
X969670Y-240588D01*
X973734Y-246430D01*
X979068Y-251510D01*
X982675Y-253796D01*
X985570Y-256438D01*
X986891Y-258165D01*
X991311Y-257860D01*
X999642Y-259130D01*
X1007059Y-258775D01*
X1014272Y-256895D01*
X1025245Y-251561D01*
X1029766Y-251612D01*
X1033780Y-253593D01*
X1036574Y-257098D01*
X1037539Y-261467D01*
X1037539Y-266242D01*
X1039063Y-273507D01*
X1041958Y-280365D01*
X1046226Y-286410D01*
X1051560Y-291541D01*
X1057859Y-295452D01*
X1065174Y-298145D01*
X1067816Y-298754D01*
X1071372Y-300329D01*
X1074115Y-303174D01*
X1074775Y-304850D01*
X1075385Y-303072D01*
X1078026Y-300024D01*
X1081684Y-298246D01*
X1086764Y-296926D01*
X1093419Y-293674D01*
X1099261Y-289102D01*
X1104087Y-283514D01*
X1107694Y-277012D01*
X1109929Y-269951D01*
X1110640Y-262585D01*
X1109929Y-255168D01*
X1107694Y-248107D01*
X1104087Y-241604D01*
X1099261Y-236016D01*
X1093419Y-231444D01*
X1086764Y-228193D01*
X1079550Y-226314D01*
X1072134Y-225958D01*
X1064818Y-227075D01*
X1057859Y-229666D01*
X1053642Y-232308D01*
X1049375Y-233781D01*
X1044956Y-233273D01*
X1041095Y-230886D01*
X1038707Y-227126D01*
X1037437Y-215188D01*
X1034084Y-204114D01*
X1034643Y-200050D01*
X1036726Y-196545D01*
X1040079Y-194157D01*
X1044092Y-193243D01*
X1047394Y-193192D01*
X1052677Y-192227D01*
X1057198Y-190195D01*
X1061567Y-186740D01*
X1124610Y-123748D01*
X1127912Y-121513D01*
X1131824Y-120751D01*
X1192072Y-120751D01*
X1195882Y-121513D01*
X1199184Y-123698D01*
X1201420Y-126949D01*
X1205941Y-137617D01*
X1212189Y-147878D01*
X1219860Y-157073D01*
X1228801Y-165100D01*
X1238808Y-171704D01*
X1249680Y-176784D01*
X1261160Y-180238D01*
X1272997Y-182016D01*
X1285036Y-182016D01*
X1296873Y-180238D01*
X1308354Y-176784D01*
X1319225Y-171704D01*
X1329232Y-165100D01*
X1338173Y-157073D01*
X1345844Y-147878D01*
X1352092Y-137617D01*
X1356766Y-126593D01*
X1359814Y-114960D01*
X1360576Y-108204D01*
X1361948Y-104089D01*
X1364945Y-100888D01*
X1369009Y-99263D01*
X1373378Y-99517D01*
X1377238Y-101600D01*
X1379880Y-105054D01*
X1380845Y-109321D01*
X1380845Y-239267D01*
X1380134Y-242925D01*
X1378254Y-246075D01*
X1375308Y-248310D01*
X1371803Y-249377D01*
X1367028Y-248818D01*
X1359611Y-248462D01*
X1355191Y-249123D01*
X1351584Y-249072D01*
X1348282Y-247751D01*
X1345590Y-245313D01*
X1343964Y-242163D01*
X1342694Y-238150D01*
X1339088Y-231648D01*
X1334262Y-226009D01*
X1328420Y-221488D01*
X1321765Y-218236D01*
X1314551Y-216357D01*
X1307134Y-216001D01*
X1299819Y-217119D01*
X1292860Y-219659D01*
X1286560Y-223621D01*
X1281226Y-228701D01*
X1276959Y-234797D01*
X1274064Y-241604D01*
X1272540Y-248869D01*
X1272540Y-256286D01*
X1274064Y-263550D01*
X1276959Y-270357D01*
X1280566Y-275488D01*
X1282192Y-279247D01*
X1282192Y-283362D01*
X1280566Y-287121D01*
X1278839Y-289560D01*
X1275892Y-292404D01*
X1272032Y-293827D01*
X1267968Y-293624D01*
X1264310Y-291795D01*
X1261618Y-288696D01*
X1259078Y-284124D01*
X1254252Y-278485D01*
X1248410Y-273964D01*
X1241755Y-270713D01*
X1238097Y-269748D01*
X1234795Y-268224D01*
X1232306Y-265734D01*
X1230782Y-262432D01*
X1230630Y-257556D01*
X1229918Y-250190D01*
X1227683Y-243128D01*
X1224076Y-236626D01*
X1219250Y-230987D01*
X1213408Y-226466D01*
X1206754Y-223215D01*
X1199540Y-221335D01*
X1192123Y-220979D01*
X1184808Y-222097D01*
X1177848Y-224637D01*
X1171549Y-228600D01*
X1166215Y-233679D01*
X1161948Y-239775D01*
X1159052Y-246583D01*
X1157528Y-253847D01*
X1157528Y-261264D01*
X1159052Y-268528D01*
X1161948Y-275336D01*
X1166215Y-281432D01*
X1171549Y-286512D01*
X1177848Y-290474D01*
X1185875Y-293420D01*
X1189380Y-295554D01*
X1191717Y-298907D01*
X1192530Y-302920D01*
X1192530Y-308762D01*
X1194054Y-316026D01*
X1196949Y-322834D01*
X1201216Y-328930D01*
X1206550Y-334010D01*
X1212850Y-337972D01*
X1219809Y-340512D01*
X1227124Y-341630D01*
X1234541Y-341274D01*
X1241755Y-339394D01*
X1248410Y-336143D01*
X1254252Y-331622D01*
X1259840Y-325069D01*
X1263040Y-322529D01*
X1267002Y-321513D01*
X1271066Y-322122D01*
X1274572Y-324307D01*
X1281226Y-333908D01*
X1286560Y-339039D01*
X1292860Y-342950D01*
X1299819Y-345541D01*
X1307134Y-346659D01*
X1314551Y-346303D01*
X1321765Y-344424D01*
X1328420Y-341172D01*
X1334262Y-336600D01*
X1339088Y-331012D01*
X1342034Y-325678D01*
X1344726Y-322580D01*
X1348384Y-320751D01*
X1352448Y-320548D01*
X1359611Y-321665D01*
X1367028Y-321310D01*
X1371803Y-320751D01*
X1375308Y-321818D01*
X1378254Y-324053D01*
X1380134Y-327202D01*
X1380845Y-330860D01*
X1380845Y-363270D01*
X1381810Y-368604D01*
X1383842Y-373176D01*
X1387297Y-377545D01*
X1433372Y-423773D01*
X1435455Y-426720D01*
X1436319Y-430276D01*
X1435912Y-433882D01*
X1434236Y-437083D01*
X1431544Y-439572D01*
X1425498Y-443636D01*
X1421993Y-444449D01*
X1418437Y-443992D01*
X1415237Y-442366D01*
X1410919Y-438962D01*
X1404264Y-435711D01*
X1397050Y-433832D01*
X1389634Y-433476D01*
X1382318Y-434593D01*
X1375359Y-437184D01*
X1369060Y-441096D01*
X1363726Y-446227D01*
X1359458Y-452272D01*
X1356563Y-459130D01*
X1355039Y-466394D01*
X1355039Y-473760D01*
X1356563Y-481025D01*
X1359458Y-487883D01*
X1363726Y-493928D01*
X1369060Y-499059D01*
X1375359Y-502970D01*
X1382318Y-505561D01*
X1389634Y-506679D01*
X1397050Y-506323D01*
X1404264Y-504443D01*
X1410919Y-501192D01*
X1415237Y-497789D01*
X1418437Y-496163D01*
X1421993Y-495706D01*
X1425498Y-496519D01*
X1429054Y-499059D01*
X1435354Y-502970D01*
X1442313Y-505561D01*
X1449628Y-506679D01*
X1457045Y-506323D01*
X1464259Y-504443D01*
X1471066Y-501091D01*
X1475028Y-500075D01*
X1479092Y-500684D01*
X1482547Y-502818D01*
X1484884Y-506171D01*
X1485747Y-510184D01*
X1485747Y-627329D01*
X1484934Y-631240D01*
X1482750Y-634542D01*
X1389532Y-727760D01*
X1385824Y-732891D01*
X1383893Y-737920D01*
X1381760Y-741324D01*
X1378407Y-743661D01*
X1374394Y-744474D01*
X1349654Y-744474D01*
X1344980Y-745083D01*
X1341221Y-746658D01*
X1337970Y-749096D01*
X1335481Y-752348D01*
X1333906Y-756107D01*
X1333296Y-760831D01*
X1333296Y-783894D01*
X1332534Y-787806D01*
X1330350Y-791057D01*
X1327048Y-793292D01*
X1323136Y-794054D01*
G37*

%LPD*%
G36*
X2534869Y-794054D02*
G01*
X2530957Y-793292D01*
X2527655Y-791057D01*
X2525471Y-787806D01*
X2524709Y-783894D01*
X2524709Y-760882D01*
X2524099Y-756158D01*
X2522524Y-752398D01*
X2520035Y-749198D01*
X2516784Y-746709D01*
X2513025Y-745134D01*
X2508351Y-744524D01*
X2449677Y-744524D01*
X2444953Y-745134D01*
X2441194Y-746709D01*
X2437942Y-749198D01*
X2434285Y-752805D01*
X2430830Y-754176D01*
X2427173Y-754176D01*
X2423668Y-752805D01*
X2420061Y-749147D01*
X2416810Y-746709D01*
X2413050Y-745134D01*
X2408326Y-744524D01*
X2349652Y-744524D01*
X2344978Y-745134D01*
X2341219Y-746709D01*
X2337968Y-749147D01*
X2334310Y-752805D01*
X2330856Y-754126D01*
X2327148Y-754126D01*
X2323693Y-752805D01*
X2320036Y-749147D01*
X2316784Y-746658D01*
X2313025Y-745134D01*
X2308352Y-744524D01*
X2249678Y-744524D01*
X2244953Y-745134D01*
X2241194Y-746658D01*
X2237943Y-749147D01*
X2234285Y-752805D01*
X2230831Y-754126D01*
X2227173Y-754126D01*
X2223668Y-752805D01*
X2220061Y-749147D01*
X2216810Y-746658D01*
X2213051Y-745134D01*
X2208326Y-744524D01*
X2149652Y-744524D01*
X2144979Y-745134D01*
X2141220Y-746658D01*
X2137968Y-749147D01*
X2134463Y-752703D01*
X2131060Y-754024D01*
X2127453Y-754075D01*
X2123998Y-752856D01*
X2121255Y-750570D01*
X2119071Y-747979D01*
X2117191Y-744474D01*
X2116785Y-740511D01*
X2117953Y-736701D01*
X2120646Y-733450D01*
X2147417Y-706678D01*
X2152802Y-700125D01*
X2156561Y-693115D01*
X2158847Y-685495D01*
X2159711Y-677062D01*
X2159711Y-321106D01*
X2160473Y-317246D01*
X2162657Y-313944D01*
X2197862Y-278739D01*
X2201164Y-276504D01*
X2205075Y-275742D01*
X2325979Y-275742D01*
X2334412Y-274929D01*
X2342032Y-272592D01*
X2349093Y-268833D01*
X2355646Y-263499D01*
X2425395Y-193751D01*
X2428646Y-191516D01*
X2432558Y-190754D01*
X2495956Y-190754D01*
X2504440Y-189941D01*
X2512060Y-187604D01*
X2519070Y-183845D01*
X2525217Y-178816D01*
X2530297Y-172669D01*
X2534056Y-165608D01*
X2536342Y-157988D01*
X2537155Y-150063D01*
X2536342Y-142138D01*
X2534056Y-134518D01*
X2530297Y-127457D01*
X2525217Y-121310D01*
X2519070Y-116281D01*
X2512060Y-112522D01*
X2504440Y-110185D01*
X2496007Y-109372D01*
X2411984Y-109372D01*
X2403551Y-110185D01*
X2395931Y-112522D01*
X2391003Y-115112D01*
X2387193Y-116281D01*
X2383536Y-116078D01*
X2382824Y-120040D01*
X2380589Y-123444D01*
X2312619Y-191363D01*
X2309317Y-193598D01*
X2305456Y-194360D01*
X2184501Y-194360D01*
X2176068Y-195173D01*
X2168448Y-197510D01*
X2161438Y-201269D01*
X2154885Y-206603D01*
X2090572Y-270916D01*
X2085187Y-277469D01*
X2081428Y-284480D01*
X2079142Y-292100D01*
X2078278Y-300532D01*
X2078278Y-332943D01*
X2077516Y-336854D01*
X2075332Y-340156D01*
X2072030Y-342341D01*
X2068118Y-343103D01*
X2064257Y-342341D01*
X2060956Y-340156D01*
X1979066Y-258267D01*
X1976932Y-255066D01*
X1976069Y-251307D01*
X1976729Y-247548D01*
X1978710Y-244246D01*
X1981758Y-241960D01*
X1983384Y-241147D01*
X1989277Y-236626D01*
X1994103Y-230987D01*
X1997659Y-224485D01*
X1999894Y-217424D01*
X2000656Y-210058D01*
X2000453Y-208330D01*
X2000961Y-204012D01*
X2003196Y-200304D01*
X2007260Y-194818D01*
X2009038Y-190144D01*
X2009698Y-184607D01*
X2009698Y322376D01*
X2008733Y328676D01*
X2006650Y333197D01*
X2003247Y337616D01*
X1941271Y399542D01*
X1936140Y403250D01*
X1931466Y405028D01*
X1925929Y405688D01*
X1766874Y405688D01*
X1762963Y406501D01*
X1759661Y408686D01*
X1621485Y546862D01*
X1616354Y550570D01*
X1611680Y552348D01*
X1606143Y553008D01*
X1540764Y553008D01*
X1536903Y553821D01*
X1533601Y556006D01*
X1531416Y559308D01*
X1530604Y563168D01*
X1531416Y567080D01*
X1533601Y570382D01*
X1739595Y776376D01*
X1742897Y778560D01*
X1746808Y779373D01*
X1792020Y779373D01*
X1795881Y778611D01*
X1799132Y776427D01*
X1801368Y773176D01*
X1805939Y762355D01*
X1812188Y752144D01*
X1819859Y742899D01*
X1822196Y740816D01*
X1824634Y737565D01*
X1825548Y733653D01*
X1824888Y729640D01*
X1822704Y726186D01*
X1819402Y723900D01*
X1815439Y723087D01*
X1788058Y723087D01*
X1784553Y723696D01*
X1777136Y724052D01*
X1769821Y722934D01*
X1762861Y720344D01*
X1756562Y716432D01*
X1751177Y711301D01*
X1746961Y705256D01*
X1744014Y698398D01*
X1742541Y691134D01*
X1742541Y683768D01*
X1744014Y676503D01*
X1746961Y669645D01*
X1751177Y663600D01*
X1756562Y658469D01*
X1762861Y654558D01*
X1769821Y651967D01*
X1777136Y650849D01*
X1784553Y651205D01*
X1788058Y651814D01*
X2025040Y651814D01*
X2028901Y651052D01*
X2032203Y648817D01*
X2103424Y577596D01*
X2109622Y572617D01*
X2116277Y569214D01*
X2120747Y567994D01*
X2124456Y566166D01*
X2127097Y562965D01*
X2128215Y558952D01*
X2127707Y554837D01*
X2125573Y551281D01*
X2122170Y548894D01*
X2118106Y548030D01*
X2104491Y548030D01*
X2099513Y547674D01*
X2093214Y545998D01*
X2087473Y543102D01*
X2082088Y538734D01*
X2051710Y508558D01*
X2048459Y506374D01*
X2044547Y505612D01*
X1859838Y505612D01*
X1855317Y506679D01*
X1847240Y510743D01*
X1839772Y512673D01*
X1832051Y513029D01*
X1824431Y511860D01*
X1817217Y509219D01*
X1810664Y505104D01*
X1805076Y499821D01*
X1800656Y493471D01*
X1797608Y486359D01*
X1796034Y478790D01*
X1796034Y471119D01*
X1797608Y463550D01*
X1800656Y456438D01*
X1805076Y450088D01*
X1810664Y444804D01*
X1817217Y440690D01*
X1824431Y438048D01*
X1832051Y436880D01*
X1839772Y437235D01*
X1847240Y439166D01*
X1855266Y443179D01*
X1859788Y444246D01*
X2061006Y444246D01*
X2065985Y444601D01*
X2072284Y446278D01*
X2078024Y449173D01*
X2083409Y453542D01*
X2113788Y483717D01*
X2117039Y485901D01*
X2120950Y486664D01*
X2455976Y486664D01*
X2461056Y487070D01*
X2467356Y488746D01*
X2473096Y491642D01*
X2478481Y496011D01*
X2575966Y593496D01*
X2579268Y595731D01*
X2583129Y596493D01*
X2587040Y595731D01*
X2590342Y593496D01*
X2592527Y590245D01*
X2593289Y586333D01*
X2593289Y570585D01*
X2593949Y565912D01*
X2595473Y562152D01*
X2597962Y558901D01*
X2601620Y555244D01*
X2602941Y551789D01*
X2602941Y548081D01*
X2601620Y544626D01*
X2597962Y540969D01*
X2595473Y537718D01*
X2593949Y533958D01*
X2593289Y529285D01*
X2593289Y470611D01*
X2593949Y465886D01*
X2595473Y462127D01*
X2597962Y458876D01*
X2601620Y455218D01*
X2602941Y451764D01*
X2602941Y448056D01*
X2601620Y444601D01*
X2597962Y440943D01*
X2595473Y437743D01*
X2593949Y433984D01*
X2593289Y429259D01*
X2593289Y370586D01*
X2593949Y365861D01*
X2595473Y362102D01*
X2597962Y358902D01*
X2601620Y355244D01*
X2602941Y351790D01*
X2602941Y348081D01*
X2601620Y344627D01*
X2597962Y340969D01*
X2595473Y337718D01*
X2593949Y333959D01*
X2593289Y329234D01*
X2593289Y270560D01*
X2593949Y265887D01*
X2595473Y262128D01*
X2597962Y258876D01*
X2601620Y255219D01*
X2602941Y251764D01*
X2602941Y248056D01*
X2601620Y244602D01*
X2597962Y240944D01*
X2595473Y237693D01*
X2593949Y233934D01*
X2593289Y229260D01*
X2593289Y170586D01*
X2593949Y165862D01*
X2595473Y162102D01*
X2597962Y158851D01*
X2601620Y155194D01*
X2602941Y151739D01*
X2602941Y148082D01*
X2601620Y144576D01*
X2597962Y140970D01*
X2595473Y137718D01*
X2593949Y133959D01*
X2593289Y129235D01*
X2593289Y70561D01*
X2593949Y65887D01*
X2595473Y62128D01*
X2597962Y58877D01*
X2601620Y55219D01*
X2602941Y51765D01*
X2602941Y48056D01*
X2601620Y44602D01*
X2597962Y40944D01*
X2595473Y37693D01*
X2593949Y33934D01*
X2593289Y29260D01*
X2593289Y-29413D01*
X2593949Y-34137D01*
X2595473Y-37896D01*
X2597962Y-41148D01*
X2601620Y-44805D01*
X2602941Y-48260D01*
X2602941Y-51968D01*
X2601620Y-55422D01*
X2597962Y-59080D01*
X2595473Y-62280D01*
X2593949Y-66040D01*
X2593289Y-70764D01*
X2593289Y-129438D01*
X2593949Y-134162D01*
X2595473Y-137922D01*
X2597962Y-141122D01*
X2601620Y-144780D01*
X2602941Y-148234D01*
X2602941Y-151942D01*
X2601620Y-155397D01*
X2597962Y-159054D01*
X2595473Y-162306D01*
X2593949Y-166065D01*
X2593289Y-170789D01*
X2593289Y-229463D01*
X2593949Y-234137D01*
X2595473Y-237896D01*
X2597962Y-241147D01*
X2601620Y-244805D01*
X2602941Y-248259D01*
X2602941Y-251967D01*
X2601620Y-255422D01*
X2597962Y-259079D01*
X2595473Y-262331D01*
X2593949Y-266090D01*
X2593289Y-270764D01*
X2593289Y-329438D01*
X2593949Y-334162D01*
X2595473Y-337921D01*
X2597962Y-341172D01*
X2601620Y-344830D01*
X2602941Y-348284D01*
X2602941Y-351942D01*
X2601620Y-355447D01*
X2597962Y-359054D01*
X2595473Y-362305D01*
X2593949Y-366064D01*
X2593289Y-370789D01*
X2593289Y-429463D01*
X2593949Y-434136D01*
X2595473Y-437896D01*
X2597962Y-441147D01*
X2601620Y-444804D01*
X2602941Y-448259D01*
X2602941Y-451967D01*
X2601620Y-455422D01*
X2597962Y-459079D01*
X2595473Y-462330D01*
X2593949Y-466090D01*
X2593289Y-470763D01*
X2593289Y-529437D01*
X2593949Y-534162D01*
X2595473Y-537921D01*
X2597962Y-541172D01*
X2601620Y-544830D01*
X2602941Y-548284D01*
X2602941Y-551992D01*
X2601620Y-555447D01*
X2597962Y-559104D01*
X2595473Y-562305D01*
X2593949Y-566064D01*
X2593289Y-570788D01*
X2593289Y-629462D01*
X2593949Y-634187D01*
X2595473Y-637946D01*
X2597962Y-641146D01*
X2601620Y-644804D01*
X2602941Y-648258D01*
X2602941Y-651967D01*
X2601620Y-655421D01*
X2597962Y-659079D01*
X2595473Y-662330D01*
X2593949Y-666089D01*
X2593289Y-670814D01*
X2593289Y-729488D01*
X2593949Y-734161D01*
X2595473Y-737920D01*
X2597962Y-741172D01*
X2601214Y-743661D01*
X2604973Y-745185D01*
X2609697Y-745845D01*
X2632913Y-745845D01*
X2636824Y-746607D01*
X2640076Y-748792D01*
X2642311Y-752094D01*
X2643073Y-756005D01*
X2643073Y-783894D01*
X2642311Y-787806D01*
X2640076Y-791057D01*
X2636824Y-793292D01*
X2632913Y-794054D01*
G37*

%LPC*%
G36*
X2294636Y-156616D02*
G01*
X2302052Y-156260D01*
X2309215Y-154381D01*
X2315870Y-151130D01*
X2321763Y-146608D01*
X2326589Y-140970D01*
X2330145Y-134467D01*
X2332380Y-127406D01*
X2333142Y-119938D01*
X2334361Y-116027D01*
X2337054Y-112928D01*
X2340711Y-111099D01*
X2344775Y-110896D01*
X2349652Y-111658D01*
X2357069Y-111302D01*
X2364232Y-109423D01*
X2368905Y-107137D01*
X2372817Y-106121D01*
X2376170Y-106578D01*
X2376576Y-103022D01*
X2378506Y-99568D01*
X2381605Y-96012D01*
X2385161Y-89509D01*
X2387396Y-82448D01*
X2388158Y-75082D01*
X2387396Y-67665D01*
X2385161Y-60604D01*
X2381605Y-54102D01*
X2376779Y-48514D01*
X2370886Y-43942D01*
X2364232Y-40690D01*
X2357069Y-38811D01*
X2349652Y-38455D01*
X2342337Y-39573D01*
X2335377Y-42164D01*
X2329078Y-46075D01*
X2323693Y-51206D01*
X2319477Y-57251D01*
X2316530Y-64109D01*
X2315057Y-71374D01*
X2315057Y-74066D01*
X2314397Y-77673D01*
X2312466Y-80822D01*
X2309571Y-83108D01*
X2306015Y-84175D01*
X2294636Y-83464D01*
X2287320Y-84582D01*
X2280361Y-87122D01*
X2274062Y-91084D01*
X2268677Y-96164D01*
X2264460Y-102260D01*
X2261514Y-109067D01*
X2260041Y-116332D01*
X2260041Y-123748D01*
X2261514Y-131013D01*
X2264460Y-137820D01*
X2268677Y-143916D01*
X2274062Y-148996D01*
X2280361Y-152958D01*
X2287320Y-155498D01*
G37*
G36*
X1897125Y538378D02*
G01*
X1904542Y538734D01*
X1911756Y540613D01*
X1918411Y543864D01*
X1924253Y548386D01*
X1929079Y554024D01*
X1932686Y560527D01*
X1934921Y567588D01*
X1935632Y574954D01*
X1934921Y582320D01*
X1932686Y589381D01*
X1929079Y595884D01*
X1924253Y601522D01*
X1918411Y606044D01*
X1911756Y609295D01*
X1904542Y611174D01*
X1897125Y611530D01*
X1889810Y610412D01*
X1882851Y607872D01*
X1876552Y603910D01*
X1871218Y598830D01*
X1866950Y592734D01*
X1864055Y585927D01*
X1862531Y578662D01*
X1862531Y571246D01*
X1864055Y563981D01*
X1866950Y557174D01*
X1871218Y551078D01*
X1876552Y545998D01*
X1882851Y542036D01*
X1889810Y539496D01*
G37*

%LPD*%
D10*
X1431483Y397449D02*
G01*
X1476441Y352491D01*
X1476441Y189931D01*
X1573977Y92395D01*
X1573977Y-80070D01*
X1683959Y-190052D01*
X1683959Y-302574D01*
X1781495Y-400110D01*
X1781495Y-644966D01*
X1704025Y-722690D01*
X1704025Y-820226D01*
X1678879Y-820226D01*
X496481Y834936D02*
G01*
X496481Y704928D01*
X391490Y599937D01*
X279008Y599937D01*
X476443Y82489D02*
G01*
X476443Y-119948D01*
X344109Y-252536D01*
X344109Y-352612D01*
X279085Y-417636D01*
X279085Y-600008D01*
X391607Y40071D02*
G01*
X391607Y-52638D01*
X271465Y-172526D01*
X271465Y-295208D01*
X78933Y-487486D01*
X78933Y-600008D01*
X339029Y-40192D02*
G01*
X236413Y-142554D01*
X236413Y-260156D01*
X164023Y-332546D01*
X18989Y-332546D01*
X-120964Y-472500D01*
X-120964Y-600008D01*
X1018987Y172405D02*
G01*
X1051499Y204917D01*
X1303975Y204917D01*
X1401511Y107381D01*
X1401511Y-362518D01*
X1506413Y-467674D01*
X1506413Y-640140D01*
X1404051Y-742502D01*
X1404051Y-820226D01*
X1378905Y-820226D01*
X1431483Y319979D02*
G01*
X1431483Y177485D01*
X1541465Y67503D01*
X1541465Y-95056D01*
X1656527Y-210118D01*
X1656527Y-312480D01*
X1756603Y-412556D01*
X1756603Y-629980D01*
X1698945Y-687638D01*
X1644081Y-687638D01*
X1579057Y-752662D01*
X1579057Y-820226D01*
X1141415Y759909D02*
G01*
X1141415Y569917D01*
X1208979Y502351D01*
X1594045Y502351D01*
X1753963Y342432D01*
X1893991Y342432D01*
X1058865Y999937D02*
G01*
X1104077Y1044895D01*
X1156655Y1044895D01*
X1208979Y992317D01*
X1361379Y992317D01*
X1406591Y1037529D01*
X1556451Y1037529D01*
X1588963Y1005017D01*
X1741363Y1005017D01*
X1778955Y1042355D01*
X1778955Y1219901D01*
X1058865Y919927D02*
G01*
X1098997Y960059D01*
X1381699Y960059D01*
X1421577Y999937D01*
X1463995Y999937D01*
X1519113Y944819D01*
X1556451Y944819D01*
X1581597Y969965D01*
X1819087Y969965D01*
X1879031Y1029909D01*
X1879031Y1219901D01*
X1138875Y1082487D02*
G01*
X1164021Y1082487D01*
X1219139Y1027369D01*
X1346393Y1027369D01*
X1396431Y1077407D01*
X1568897Y1077407D01*
X1678879Y1187389D01*
X1678879Y1219901D01*
X899005Y-202567D02*
G01*
X939004Y-162565D01*
X939004Y-100068D01*
X959002Y-80070D01*
X1014006Y-80070D01*
X1194015Y99938D01*
X1279006Y99938D01*
X861501Y-247571D02*
G01*
X916500Y-247571D01*
X991501Y-172567D01*
X1046507Y-172567D01*
X1119014Y-100060D01*
X1279006Y-100060D01*
X896508Y-292564D02*
G01*
X971511Y-292564D01*
X1079007Y-400060D01*
X819005Y-120068D02*
G01*
X798997Y-100060D01*
X679008Y-100060D01*
X899005Y-120068D02*
G01*
X814006Y-205066D01*
X814006Y-355066D01*
X1058999Y-600059D01*
X1079007Y-600059D01*
X588990Y-392567D02*
G01*
X588990Y-510039D01*
X679008Y-600057D01*
X539003Y-297571D02*
G01*
X479005Y-357568D01*
X479005Y-600057D01*
X279008Y799937D02*
G01*
X314007Y834936D01*
X416473Y834936D01*
X79009Y599937D02*
G01*
X171505Y507441D01*
X351492Y507441D01*
X576496Y732436D01*
X576496Y834936D01*
X679008Y799937D02*
G01*
X738990Y859919D01*
X738990Y894933D01*
X899099Y999937D02*
G01*
X938979Y960059D01*
X938979Y867425D01*
X879007Y807453D01*
X879007Y799937D01*
X819089Y999937D02*
G01*
X819089Y1027369D01*
X933897Y1142431D01*
X1336487Y1142431D01*
X1378905Y1184849D01*
X1378905Y1219901D01*
X819089Y919927D02*
G01*
X858967Y960059D01*
X858967Y1032449D01*
X946597Y1119825D01*
X1413957Y1119825D01*
X1478981Y1184849D01*
X1478981Y1219901D01*
X79009Y999937D02*
G01*
X181500Y897445D01*
X353992Y897445D01*
X1098997Y880049D02*
G01*
X1136589Y917387D01*
X1576517Y917387D01*
X1594043Y934913D01*
X1904177Y934913D01*
X1979107Y1009843D01*
X1978853Y1219901D01*
D11*
X2091504Y-705060D02*
G01*
X2118987Y-677560D01*
X2118987Y-300062D01*
X2183988Y-235061D01*
X2326490Y-235061D01*
X2411481Y-150073D01*
X2496479Y-150073D01*
D12*
X1778980Y687440D02*
G01*
X2043991Y687440D01*
X2128997Y602437D01*
X2406497Y602437D01*
X2491503Y687443D01*
D10*
X1476441Y427421D02*
G01*
X1476441Y439867D01*
X1576522Y439867D01*
X1768952Y247436D01*
X1856501Y247436D01*
X1218885Y759907D02*
G01*
X1218885Y587441D01*
X1274003Y532323D01*
X1606743Y532323D01*
X1754063Y385003D01*
X1926529Y385003D01*
X1989013Y322519D01*
X1989013Y-185226D01*
X1964121Y-210118D01*
X1063945Y759909D02*
G01*
X1063945Y547309D01*
X1139129Y472379D01*
X1583888Y472379D01*
X1766336Y289930D01*
X1921499Y289930D01*
D13*
X458914Y152336D02*
G01*
X476445Y152336D01*
X539003Y89778D01*
X539003Y-240065D01*
D10*
X1521399Y322519D02*
G01*
X1576517Y267401D01*
X1576517Y195011D01*
X1681673Y89855D01*
X1739077Y89855D01*
X1788861Y39817D01*
X1788861Y-60258D01*
X1826453Y-97596D01*
X1826453Y-227644D01*
X1964121Y-365312D01*
X1964121Y-620074D01*
X1903923Y-680018D01*
X1903923Y-820226D01*
X1879031Y-820226D01*
X1521399Y397449D02*
G01*
X1606489Y312359D01*
X1606489Y202377D01*
X1693865Y115001D01*
X1748983Y115001D01*
X1814007Y49977D01*
X1814007Y-45018D01*
X1851599Y-82610D01*
X1851599Y-207578D01*
X2009079Y-365058D01*
X2009079Y-635060D01*
X1979107Y-665032D01*
X1979107Y-819972D01*
X1748983Y157419D02*
G01*
X1838899Y67503D01*
X1838899Y-30032D01*
X1876491Y-67624D01*
X1876491Y-184972D01*
X2051497Y-359978D01*
X2051497Y-655126D01*
X2028891Y-677732D01*
X2028891Y-739962D01*
X2051497Y-762568D01*
X2051497Y-819972D01*
X2078929Y-819972D01*
X994095Y759907D02*
G01*
X1044133Y809945D01*
X1126429Y809945D01*
X1164021Y847537D01*
X1243777Y847537D01*
X1294069Y797245D01*
X1294069Y632399D01*
X1354013Y572455D01*
X1506413Y572455D01*
X1733997Y800039D01*
X1879031Y800039D01*
X979109Y919927D02*
G01*
X1059119Y839917D01*
X1113983Y839917D01*
X1158941Y884875D01*
X1276543Y884875D01*
X1324041Y837377D01*
X1663893Y837377D01*
X1724091Y897321D01*
X1981393Y897321D01*
X2078929Y994857D01*
X2078929Y1219901D01*
X374845Y152336D02*
G01*
X432752Y94424D01*
X432752Y-55178D01*
X306514Y-181416D01*
X306514Y-325178D01*
X176471Y-454974D01*
X176471Y-652586D01*
X218887Y-695004D01*
X395010Y-695004D01*
D13*
X2521397Y997397D02*
G01*
X2556449Y997397D01*
X2556449Y617413D01*
X2456373Y517337D01*
X2104075Y517337D01*
X2061403Y474919D01*
X1834073Y474919D01*
D14*
X2527330Y999931D02*
G01*
X2608973Y999937D01*
D10*
X1521399Y267401D02*
G01*
X1521399Y200091D01*
X1603949Y117541D01*
X1603949Y-65084D01*
X1711391Y-172526D01*
X1711391Y-292668D01*
X1806387Y-387664D01*
X1806387Y-792540D01*
X1778955Y-820226D01*
X1018987Y239969D02*
G01*
X1318961Y239969D01*
X1436563Y122367D01*
X1436563Y-362518D01*
X1538925Y-464880D01*
X1538925Y-695004D01*
X1504127Y-730056D01*
X1504127Y-820226D01*
X1478981Y-820226D01*
D15*
X99761Y759909D02*
G01*
X-32570Y759909D01*
X-187662Y604817D01*
X-187662Y167652D01*
X-119999Y99989D01*
D13*
X739079Y279844D02*
G01*
X576521Y279844D01*
X476443Y379923D01*
X-90154Y379923D01*
D16*
X-305114Y925007D02*
G01*
X-345246Y884875D01*
X-345246Y684977D01*
X-430082Y599887D01*
X-511108Y599887D01*
D17*
X0Y0D02*
G01*
X87335Y-87335D01*
X87335Y-100065D01*
D18*
X1154115Y-712530D02*
G01*
X1134049Y-692464D01*
X475681Y-692464D01*
X430723Y-737422D01*
X-151952Y-737422D01*
X-237550Y-651824D01*
X-237550Y735015D01*
X-232724Y739841D01*
D19*
G01*
X-1151011Y942431D03*
D20*
G01*
X1279006Y-600059D03*
G01*
X1279006Y99938D03*
G01*
X1279006Y-100060D03*
G01*
X1079007Y-400060D03*
G01*
X1079007Y-600059D03*
G01*
X679008Y-100060D03*
G01*
X679008Y-600059D03*
G01*
X479008Y-600059D03*
G01*
X279008Y-600059D03*
G01*
X79009Y-600059D03*
G01*
X-121015Y-600059D03*
G01*
X2279004Y-600059D03*
G01*
X79009Y999937D03*
G01*
X279008Y999937D03*
D21*
G01*
X-1146007Y602427D03*
D20*
G01*
X79009Y599937D03*
G01*
X279008Y599937D03*
G01*
X279008Y799937D03*
G01*
X2079005Y799937D03*
G01*
X1879005Y799937D03*
G01*
X679008Y399938D03*
G01*
X679008Y999937D03*
G01*
X679008Y799937D03*
G01*
X879007Y799937D03*
G01*
X879007Y399938D03*
G01*
X2279004Y799937D03*
G01*
X2279004Y999937D03*
G01*
X2279004Y-400060D03*
G01*
X2279004Y99938D03*
G01*
X2279004Y399938D03*
G01*
X-119999Y99989D03*
G01*
X87340Y-100060D03*
D22*
G01*
X-321015Y1219926D03*
D23*
G01*
X-511007Y1099936D03*
D22*
G01*
X-221015Y1219926D03*
G01*
X-121015Y1219926D03*
G01*
X-21015Y1219901D03*
G01*
X278983Y1219901D03*
G01*
X178983Y1219901D03*
G01*
X78983Y1219901D03*
G01*
X678982Y1219875D03*
G01*
X778982Y1219875D03*
G01*
X878982Y1219875D03*
G01*
X578982Y1219875D03*
G01*
X478983Y1219875D03*
G01*
X378983Y1219901D03*
G01*
X1578980Y1219824D03*
G01*
X1678980Y1219824D03*
G01*
X1778980Y1219824D03*
G01*
X2078979Y1219799D03*
G01*
X1978980Y1219799D03*
G01*
X1878980Y1219824D03*
G01*
X1379006Y1219926D03*
G01*
X1479006Y1219926D03*
G01*
X1279006Y1219951D03*
G01*
X1178981Y1219850D03*
G01*
X1078981Y1219850D03*
G01*
X978982Y1219850D03*
G01*
X2478979Y1219774D03*
G01*
X2378979Y1219799D03*
G01*
X2278979Y1219799D03*
G01*
X2178979Y1219799D03*
D23*
G01*
X-511007Y999937D03*
G01*
X-511007Y899937D03*
G01*
X-511007Y799937D03*
G01*
X-511007Y699937D03*
G01*
X-511007Y599937D03*
G01*
X-510981Y-200035D03*
G01*
X-510981Y-300034D03*
G01*
X-510981Y-35D03*
G01*
X-510981Y399938D03*
G01*
X-510981Y299938D03*
G01*
X-510981Y199964D03*
G01*
X-510981Y99964D03*
G01*
X-510981Y499963D03*
G01*
X-511007Y-100035D03*
G01*
X-511007Y-400110D03*
G01*
X-511007Y-500136D03*
G01*
X-511007Y-600135D03*
G01*
X-511007Y-700135D03*
D22*
G01*
X-321015Y-820074D03*
G01*
X2178979Y-820201D03*
G01*
X2278979Y-820201D03*
G01*
X2378979Y-820226D03*
G01*
X2478979Y-820226D03*
G01*
X978982Y-820150D03*
G01*
X1078981Y-820150D03*
G01*
X1178981Y-820150D03*
G01*
X1478981Y-820176D03*
G01*
X1378981Y-820176D03*
G01*
X1278981Y-820150D03*
G01*
X1878980Y-820201D03*
G01*
X2079005Y-820074D03*
G01*
X1979005Y-820074D03*
G01*
X1778980Y-820176D03*
G01*
X1678980Y-820176D03*
G01*
X1578980Y-820176D03*
G01*
X378983Y-820125D03*
G01*
X478983Y-820125D03*
G01*
X578982Y-820125D03*
G01*
X878982Y-820150D03*
G01*
X778982Y-820125D03*
G01*
X678982Y-820125D03*
G01*
X78983Y-820099D03*
G01*
X178983Y-820099D03*
G01*
X278983Y-820099D03*
G01*
X-21015Y-820099D03*
G01*
X-121015Y-820099D03*
G01*
X-221015Y-820074D03*
D23*
G01*
X2668996Y-700135D03*
G01*
X2668996Y-600135D03*
G01*
X2668996Y-500136D03*
G01*
X2668996Y-400136D03*
G01*
X2668996Y-300111D03*
G01*
X2668996Y-200111D03*
G01*
X2668996Y-100111D03*
G01*
X2668996Y-111D03*
G01*
X2668996Y99888D03*
G01*
X2668996Y199913D03*
G01*
X2668996Y299913D03*
G01*
X2668996Y399912D03*
G01*
X2668996Y499912D03*
G01*
X2668996Y599912D03*
G01*
X2668996Y699937D03*
G01*
X2668996Y799937D03*
G01*
X2668996Y899937D03*
G01*
X2668996Y999937D03*
G01*
X2668996Y1099936D03*
D24*
G01*
X1451498Y-470087D03*
G01*
X1391503Y-470087D03*
G01*
X1316497Y-365058D03*
G01*
X1533997Y-405063D03*
G01*
X1574002Y-445068D03*
G01*
X1671487Y-455051D03*
G01*
X1708978Y-422564D03*
G01*
X1868998Y-585099D03*
G01*
X1863994Y-445068D03*
G01*
X1913981Y-407578D03*
G01*
X1419011Y-642579D03*
G01*
X1361480Y-285074D03*
G01*
X1309004Y-310067D03*
G01*
X1474002Y-267573D03*
G01*
X1474002Y-212582D03*
G01*
X1309004Y-252587D03*
G01*
X1193993Y-257566D03*
G01*
X1228994Y-305064D03*
G01*
X1074003Y-262569D03*
G01*
X1001511Y-222564D03*
G01*
X1751497Y-42555D03*
G01*
X1666483Y-42555D03*
G01*
X1708978Y-2550D03*
G01*
X1644004Y552439D03*
G01*
X1898995Y574944D03*
G01*
X1431508Y397423D03*
G01*
X1476517Y427421D03*
G01*
X1521500Y397423D03*
G01*
X1431508Y319928D03*
G01*
X1521500Y322417D03*
G01*
X1521500Y267426D03*
G01*
X1921499Y119928D03*
G01*
X1893991Y69941D03*
G01*
X1921499Y19928D03*
G01*
X1893991Y-30058D03*
G01*
X239994Y-474990D03*
G01*
X739002Y279923D03*
G01*
X739002Y199913D03*
G01*
X818987Y199913D03*
G01*
X898997Y199913D03*
G01*
X819012Y279923D03*
G01*
X739002Y119928D03*
G01*
X819012Y119928D03*
G01*
X819012Y677433D03*
G01*
X898997Y677433D03*
G01*
X979007Y677433D03*
G01*
X819012Y597423D03*
G01*
X898997Y597423D03*
G01*
X979007Y597423D03*
G01*
X898997Y519927D03*
G01*
X979007Y519927D03*
G01*
X1811492Y-277581D03*
G01*
X1754012Y-277581D03*
G01*
X2074001Y924930D03*
G01*
X2128992Y884925D03*
G01*
X2186498Y927445D03*
G01*
X1616496Y882436D03*
G01*
X1778980Y687440D03*
D25*
G01*
X2491501Y687440D03*
D24*
G01*
X1856501Y247436D03*
G01*
X539003Y-297571D03*
G01*
X588990Y-392567D03*
G01*
X896508Y-292567D03*
G01*
X861507Y-247558D03*
G01*
X898997Y-202575D03*
G01*
X819012Y-120075D03*
G01*
X898997Y279923D03*
G01*
X686501Y-347558D03*
G01*
X686501Y-287563D03*
G01*
X979007Y359933D03*
G01*
X1059017Y359933D03*
G01*
X779007Y399938D03*
G01*
X659018Y599912D03*
G01*
X579033Y599912D03*
G01*
X659018Y679922D03*
G01*
X579033Y679922D03*
G01*
X659018Y519927D03*
G01*
X579033Y519927D03*
G01*
X499023Y519927D03*
G01*
X498998Y439917D03*
G01*
X579008Y439917D03*
G01*
X498998Y279923D03*
G01*
X578982Y354929D03*
G01*
X571515Y127421D03*
G01*
X579135Y200040D03*
G01*
X539003Y-240065D03*
G01*
X-90154Y379923D03*
G01*
X898997Y-120075D03*
G01*
X979007Y-120075D03*
G01*
X898997Y-40065D03*
G01*
X979007Y-40065D03*
G01*
X898997Y39918D03*
G01*
X979007Y39918D03*
G01*
X979007Y119928D03*
G01*
X1749008Y157419D03*
G01*
X1963994Y-210068D03*
G01*
X1141516Y759932D03*
G01*
X1063995Y759932D03*
G01*
X1219012Y759932D03*
G01*
X2351496Y-75067D03*
G01*
X1526783Y-347634D03*
G01*
X1574078Y-285302D03*
G01*
X1621119Y-347634D03*
G01*
X1019012Y172430D03*
G01*
X1019012Y239918D03*
G01*
X1921499Y289930D03*
G01*
X1893991Y342432D03*
G01*
X1309004Y-645068D03*
G01*
X2091502Y-705063D03*
G01*
X1154013Y-712556D03*
G01*
X1714007Y-610067D03*
G01*
X1591503Y-642579D03*
G01*
X968999Y-400060D03*
G01*
X-369986Y-342503D03*
G01*
X533999Y-392567D03*
G01*
X641517Y-457565D03*
G01*
X686501Y-412556D03*
G01*
X896508Y-585073D03*
G01*
X384012Y-292567D03*
G01*
X414009Y-242580D03*
G01*
X471515Y-215071D03*
G01*
X419039Y-119948D03*
G01*
X144007Y-270062D03*
G01*
X84013Y-240065D03*
G01*
X1031509Y-732571D03*
G01*
X966510Y-585073D03*
G01*
X-11008Y-687562D03*
G01*
X-412658Y-152562D03*
G01*
X339003Y-40065D03*
G01*
X259019Y39918D03*
G01*
X333999Y39944D03*
G01*
X391505Y39944D03*
G01*
X476493Y82438D03*
G01*
X179009Y199837D03*
G01*
X179009Y119827D03*
G01*
X259019Y119928D03*
G01*
X259019Y199837D03*
G01*
X88991Y219928D03*
G01*
X-102499Y209997D03*
G01*
X2228992Y-720049D03*
G01*
X2328992Y-720074D03*
G01*
X2565237Y-450072D03*
G01*
X2565237Y-547557D03*
G01*
X2565237Y-652561D03*
G01*
X2565237Y-352562D03*
G01*
X2565237Y-255051D03*
G01*
X459018Y152440D03*
G01*
X2296480Y-120050D03*
G01*
X1476491Y644946D03*
G01*
X1386499Y679947D03*
G01*
X1528993Y679947D03*
G01*
X1528993Y744946D03*
G01*
X329834Y459933D03*
G01*
X-407654Y1139941D03*
G01*
X395010Y-695004D03*
G01*
X374843Y152440D03*
G01*
X-410169Y444921D03*
G01*
X358993Y699937D03*
G01*
X178983Y759932D03*
G01*
X32349Y877432D03*
G01*
X428995Y697448D03*
G01*
X52339Y809945D03*
G01*
X258993Y277434D03*
G01*
X1428993Y799937D03*
G01*
X1528993Y799937D03*
G01*
X1431483Y879947D03*
G01*
X1528993Y879947D03*
G01*
X1448983Y954928D03*
G01*
X1536486Y987440D03*
G01*
X1181496Y809945D03*
G01*
X1221425Y1082487D03*
G01*
X1138875Y999937D03*
G01*
X418988Y999962D03*
G01*
X339003Y999937D03*
G01*
X353989Y897448D03*
G01*
X416473Y834938D03*
G01*
X496483Y834938D03*
G01*
X576493Y834938D03*
G01*
X1139002Y1082436D03*
G01*
X993993Y759932D03*
G01*
X1058992Y999937D03*
G01*
X1058992Y919927D03*
G01*
X1098997Y879947D03*
G01*
X978982Y999937D03*
G01*
X978982Y919927D03*
G01*
X418988Y919927D03*
G01*
X498998Y919927D03*
G01*
X736488Y999937D03*
G01*
X739002Y894933D03*
G01*
X898997Y999937D03*
G01*
X818987Y999937D03*
G01*
X818987Y919927D03*
G01*
X898997Y919927D03*
G01*
X2565237Y-150073D03*
G01*
X2565237Y249925D03*
G01*
X2565237Y349925D03*
G01*
X2565237Y444947D03*
G01*
X2336485Y657443D03*
G01*
X2371486Y352440D03*
G01*
X2565237Y147436D03*
G01*
X2176490Y17439D03*
G01*
X2228992Y-27569D03*
G01*
X2046493Y159933D03*
G01*
X325008Y-474990D03*
G01*
X541467Y-475040D03*
G01*
X1918985Y1044945D03*
G01*
X2238999Y657443D03*
D25*
G01*
X2521498Y997447D03*
D24*
G01*
X2026478Y1009944D03*
D25*
G01*
X2496479Y-150073D03*
D26*
G01*
X1686499Y182438D03*
G01*
X1833996Y474944D03*
D24*
G01*
X1731482Y547436D03*
G01*
X1751497Y472429D03*
G01*
X1703999Y257444D03*
G01*
X2436484Y-255051D03*
G01*
X2565237Y47437D03*
G01*
X2565237Y-52562D03*
G01*
X2565237Y539943D03*
G01*
X1741490Y214924D03*
G01*
X1856475Y177434D03*
G01*
X1698995Y687440D03*
D26*
G01*
X-370164Y-55077D03*
D24*
G01*
X-340166Y112435D03*
G01*
X-237652Y924930D03*
G01*
X-309991Y-342503D03*
G01*
X94833Y-405063D03*
D26*
G01*
X-232674Y739942D03*
D24*
G01*
X-35189Y1064935D03*
G01*
X-130159Y1074943D03*
G01*
X-387664Y939942D03*
G01*
X-32674Y804941D03*
D26*
G01*
X2594828Y999937D03*
G01*
X99837Y759932D03*
D24*
G01*
X-187665Y-47558D03*
G01*
X-45171Y-127543D03*
G01*
X-187690Y-140040D03*
G01*
X-90180Y437428D03*
G01*
X-277682Y437428D03*
G01*
X-32674Y-292567D03*
G01*
X-305165Y924930D03*
G01*
X-10Y-10D03*
M02*
