G04 Layer: TopPasteMaskLayer*
G04 EasyEDA v6.5.21, 2022-10-22 16:28:30*
G04 167bdced229c4b2ca01845534b4d4eab,294cf934c43b457281b0b0dcd80bbfec,10*
G04 Gerber Generator version 0.2*
G04 Scale: 100 percent, Rotated: No, Reflected: No *
G04 Dimensions in millimeters *
G04 leading zeros omitted , absolute positions ,4 integer and 5 decimal *
%FSLAX45Y45*%
%MOMM*%

%AMMACRO1*21,1,$1,$2,0,0,$3*%
%AMMACRO2*4,1,5,0.2501,0.1749,0.2501,-0.1749,-0.2501,-0.1749,-0.2501,-0.1251,0.0499,0.1749,0.2501,0.1749,0*%
%AMMACRO3*4,1,6,-0.2249,-0.1751,-0.2249,0.1751,0.2249,0.1751,0.2249,0.125,0.2249,0.0749,-0.0251,-0.1751,-0.2249,-0.1751,0*%
%AMMACRO4*4,1,6,0.2249,-0.1749,-0.2249,-0.1749,-0.2249,0.1749,-0.0751,0.1749,-0.0251,0.1749,0.2249,-0.0751,0.2249,-0.1749,0*%
%AMMACRO5*4,1,6,-0.2251,0.1751,0.2251,0.1751,0.2251,-0.1751,0.1251,-0.1751,0.0249,-0.1751,-0.2251,0.0749,-0.2251,0.1751,0*%
%AMMACRO6*4,1,5,-0.1749,0.2501,0.1749,0.2501,0.1749,-0.2501,0.1251,-0.2501,-0.1749,0.0499,-0.1749,0.2501,0*%
%AMMACRO7*4,1,6,0.1751,-0.2249,-0.1751,-0.2249,-0.1751,0.2249,-0.125,0.2249,-0.0749,0.2249,0.1751,-0.0251,0.1751,-0.2249,0*%
%AMMACRO8*4,1,6,0.1749,0.2249,0.1749,-0.2249,-0.1749,-0.2249,-0.1749,-0.0751,-0.1749,-0.0251,0.0751,0.2249,0.1749,0.2249,0*%
%AMMACRO9*4,1,6,-0.1751,-0.2251,-0.1751,0.2251,0.1751,0.2251,0.1751,0.1251,0.1751,0.0249,-0.0749,-0.2251,-0.1751,-0.2251,0*%
%AMMACRO10*4,1,20,0.8255,-1.1989,0.39,-1.1989,0.39,-1.8999,0.11,-1.8999,0.11,-1.1989,-0.11,-1.1989,-0.11,-1.8999,-0.39,-1.8999,-0.39,-1.1989,-0.8255,-1.1989,-0.8255,1.1989,-0.39,1.1989,-0.39,1.8999,-0.11,1.8999,-0.11,1.1989,0.11,1.1989,0.11,1.8999,0.39,1.8999,0.39,1.1989,0.8255,1.1989,0.8255,-1.1989,0*%
%ADD10MACRO1,1X0.8X90.0000*%
%ADD11R,0.8000X1.0000*%
%ADD12MACRO1,1X0.8X-90.0000*%
%ADD13MACRO2*%
%ADD14MACRO3*%
%ADD15MACRO4*%
%ADD16MACRO5*%
%ADD17MACRO1,0.5X0.5X135.0000*%
%ADD18MACRO6*%
%ADD19MACRO7*%
%ADD20MACRO8*%
%ADD21MACRO9*%
%ADD22MACRO1,0.5X0.5X-135.0000*%
%ADD23MACRO1,1.3X0.925X90.0000*%
%ADD24R,1.7200X1.0000*%
%ADD25C,0.3401*%
%ADD26C,0.3400*%
%ADD27MACRO10*%
%ADD28R,0.8500X0.2800*%
%ADD29R,0.3500X0.5000*%
%ADD30R,1.4500X0.8500*%
%ADD31R,0.5050X0.3000*%
%ADD32MACRO1,0.505X0.3X0.0000*%
%ADD33R,0.6000X1.2000*%
%ADD34R,4.3000X3.4000*%
%ADD35R,0.0126X3.4000*%

%LPD*%
G36*
X2394000Y-372618D02*
G01*
X2386990Y-377596D01*
X2386990Y-422605D01*
X2394000Y-427634D01*
X2442006Y-427634D01*
X2446985Y-422605D01*
X2446985Y-377596D01*
X2442006Y-372618D01*
G37*
G36*
X2296007Y-372618D02*
G01*
X2290978Y-377596D01*
X2290978Y-422605D01*
X2296007Y-427634D01*
X2344013Y-427634D01*
X2351024Y-422605D01*
X2351024Y-377596D01*
X2344013Y-372618D01*
G37*
G36*
X1209090Y-647700D02*
G01*
X1202080Y-652678D01*
X1202080Y-697687D01*
X1209090Y-702716D01*
X1257096Y-702716D01*
X1262075Y-697687D01*
X1262075Y-652678D01*
X1257096Y-647700D01*
G37*
G36*
X1111097Y-647700D02*
G01*
X1106068Y-652678D01*
X1106068Y-697687D01*
X1111097Y-702716D01*
X1159103Y-702716D01*
X1166114Y-697687D01*
X1166114Y-652678D01*
X1159103Y-647700D01*
G37*
G36*
X2498902Y854405D02*
G01*
X2493873Y847445D01*
X2493873Y799439D01*
X2498902Y794410D01*
X2543911Y794410D01*
X2548890Y799439D01*
X2548890Y847445D01*
X2543911Y854405D01*
G37*
G36*
X2498902Y950417D02*
G01*
X2493873Y945438D01*
X2493873Y897432D01*
X2498902Y890422D01*
X2543911Y890422D01*
X2548890Y897432D01*
X2548890Y945438D01*
X2543911Y950417D01*
G37*
G36*
X2383383Y1084834D02*
G01*
X2378354Y1079855D01*
X2378354Y1034846D01*
X2383383Y1029868D01*
X2431389Y1029868D01*
X2438349Y1034846D01*
X2438349Y1079855D01*
X2431389Y1084834D01*
G37*
G36*
X2481376Y1084834D02*
G01*
X2474366Y1079855D01*
X2474366Y1034846D01*
X2481376Y1029868D01*
X2529382Y1029868D01*
X2534361Y1034846D01*
X2534361Y1079855D01*
X2529382Y1084834D01*
G37*
G36*
X2281478Y-628192D02*
G01*
X2276449Y-635152D01*
X2276449Y-683158D01*
X2281478Y-688187D01*
X2326487Y-688187D01*
X2331466Y-683158D01*
X2331466Y-635152D01*
X2326487Y-628192D01*
G37*
G36*
X2281478Y-532180D02*
G01*
X2276449Y-537159D01*
X2276449Y-585165D01*
X2281478Y-592175D01*
X2326487Y-592175D01*
X2331466Y-585165D01*
X2331466Y-537159D01*
X2326487Y-532180D01*
G37*
G36*
X64058Y-424942D02*
G01*
X57048Y-429920D01*
X57048Y-474929D01*
X64058Y-479958D01*
X112064Y-479958D01*
X117043Y-474929D01*
X117043Y-429920D01*
X112064Y-424942D01*
G37*
G36*
X-33934Y-424942D02*
G01*
X-38963Y-429920D01*
X-38963Y-474929D01*
X-33934Y-479958D01*
X14071Y-479958D01*
X21082Y-474929D01*
X21082Y-429920D01*
X14071Y-424942D01*
G37*
G36*
X352501Y-440486D02*
G01*
X347522Y-447497D01*
X347522Y-495503D01*
X352501Y-500481D01*
X397510Y-500481D01*
X402488Y-495503D01*
X402488Y-447497D01*
X397510Y-440486D01*
G37*
G36*
X352501Y-344525D02*
G01*
X347522Y-349504D01*
X347522Y-397510D01*
X352501Y-404520D01*
X397510Y-404520D01*
X402488Y-397510D01*
X402488Y-349504D01*
X397510Y-344525D01*
G37*
G36*
X2383383Y667512D02*
G01*
X2378354Y662533D01*
X2378354Y617524D01*
X2383383Y612546D01*
X2431389Y612546D01*
X2438349Y617524D01*
X2438349Y662533D01*
X2431389Y667512D01*
G37*
G36*
X2481376Y667512D02*
G01*
X2474366Y662533D01*
X2474366Y617524D01*
X2481376Y612546D01*
X2529382Y612546D01*
X2534361Y617524D01*
X2534361Y662533D01*
X2529382Y667512D01*
G37*
G36*
X2144064Y-647700D02*
G01*
X2137054Y-652678D01*
X2137054Y-697687D01*
X2144064Y-702716D01*
X2192070Y-702716D01*
X2197049Y-697687D01*
X2197049Y-652678D01*
X2192070Y-647700D01*
G37*
G36*
X2046071Y-647700D02*
G01*
X2041042Y-652678D01*
X2041042Y-697687D01*
X2046071Y-702716D01*
X2094077Y-702716D01*
X2101088Y-697687D01*
X2101088Y-652678D01*
X2094077Y-647700D01*
G37*
G36*
X1446580Y-628192D02*
G01*
X1441551Y-635152D01*
X1441551Y-683158D01*
X1446580Y-688187D01*
X1491589Y-688187D01*
X1496568Y-683158D01*
X1496568Y-635152D01*
X1491589Y-628192D01*
G37*
G36*
X1446580Y-532180D02*
G01*
X1441551Y-537159D01*
X1441551Y-585165D01*
X1446580Y-592175D01*
X1491589Y-592175D01*
X1496568Y-585165D01*
X1496568Y-537159D01*
X1491589Y-532180D01*
G37*
G36*
X1346504Y-628192D02*
G01*
X1341475Y-635152D01*
X1341475Y-683158D01*
X1346504Y-688187D01*
X1391513Y-688187D01*
X1396492Y-683158D01*
X1396492Y-635152D01*
X1391513Y-628192D01*
G37*
G36*
X1346504Y-532180D02*
G01*
X1341475Y-537159D01*
X1341475Y-585165D01*
X1346504Y-592175D01*
X1391513Y-592175D01*
X1396492Y-585165D01*
X1396492Y-537159D01*
X1391513Y-532180D01*
G37*
G36*
X-338937Y453288D02*
G01*
X-341376Y450900D01*
X-341376Y417931D01*
X-338937Y415543D01*
X-311353Y415543D01*
X-308965Y417931D01*
X-308965Y450900D01*
X-311353Y453288D01*
G37*
G36*
X-338937Y399338D02*
G01*
X-341376Y396951D01*
X-341376Y363982D01*
X-338937Y361594D01*
X-311353Y361594D01*
X-308965Y363982D01*
X-308965Y396951D01*
X-311353Y399338D01*
G37*
G36*
X-254457Y1121156D02*
G01*
X-256844Y1118717D01*
X-256844Y1091133D01*
X-254457Y1088745D01*
X-221488Y1088745D01*
X-219100Y1091133D01*
X-219100Y1118717D01*
X-221488Y1121156D01*
G37*
G36*
X-200507Y1121156D02*
G01*
X-202895Y1118717D01*
X-202895Y1091133D01*
X-200507Y1088745D01*
X-167538Y1088745D01*
X-165150Y1091133D01*
X-165150Y1118717D01*
X-167538Y1121156D01*
G37*
G36*
X-149656Y-76352D02*
G01*
X-152044Y-78740D01*
X-152044Y-106375D01*
X-149656Y-108762D01*
X-116738Y-108762D01*
X-114300Y-106375D01*
X-114300Y-78740D01*
X-116738Y-76352D01*
G37*
G36*
X-203606Y-76352D02*
G01*
X-205994Y-78740D01*
X-205994Y-106375D01*
X-203606Y-108762D01*
X-170688Y-108762D01*
X-168249Y-106375D01*
X-168249Y-78740D01*
X-170688Y-76352D01*
G37*
G36*
X-349656Y753618D02*
G01*
X-352044Y751230D01*
X-352044Y723646D01*
X-349656Y721258D01*
X-316738Y721258D01*
X-314299Y723646D01*
X-314299Y751230D01*
X-316738Y753618D01*
G37*
G36*
X-403606Y753618D02*
G01*
X-405993Y751230D01*
X-405993Y723646D01*
X-403606Y721258D01*
X-370687Y721258D01*
X-368249Y723646D01*
X-368249Y751230D01*
X-370687Y753618D01*
G37*
G36*
X-349656Y853643D02*
G01*
X-352044Y851255D01*
X-352044Y823620D01*
X-349656Y821232D01*
X-316738Y821232D01*
X-314299Y823620D01*
X-314299Y851255D01*
X-316738Y853643D01*
G37*
G36*
X-403606Y853643D02*
G01*
X-405993Y851255D01*
X-405993Y823620D01*
X-403606Y821232D01*
X-370687Y821232D01*
X-368249Y823620D01*
X-368249Y851255D01*
X-370687Y853643D01*
G37*
G36*
X-350520Y1026160D02*
G01*
X-352907Y1023721D01*
X-352907Y996137D01*
X-350520Y993749D01*
X-324104Y993749D01*
X-321716Y996137D01*
X-321716Y1023721D01*
X-324104Y1026160D01*
G37*
G36*
X-397916Y1026160D02*
G01*
X-400304Y1023721D01*
X-400304Y996137D01*
X-397916Y993749D01*
X-371500Y993749D01*
X-369112Y996137D01*
X-369112Y1023721D01*
X-371500Y1026160D01*
G37*
G36*
X-245414Y1026109D02*
G01*
X-247802Y1023721D01*
X-247802Y996137D01*
X-245414Y993749D01*
X-218998Y993749D01*
X-216611Y996137D01*
X-216611Y1023721D01*
X-218998Y1026109D01*
G37*
G36*
X-198018Y1026109D02*
G01*
X-200406Y1023721D01*
X-200406Y996137D01*
X-198018Y993749D01*
X-171602Y993749D01*
X-169214Y996137D01*
X-169214Y1023721D01*
X-171602Y1026109D01*
G37*
G36*
X-299669Y-76352D02*
G01*
X-302056Y-78740D01*
X-302056Y-106375D01*
X-299669Y-108762D01*
X-273253Y-108762D01*
X-270865Y-106375D01*
X-270865Y-78740D01*
X-273253Y-76352D01*
G37*
G36*
X-347065Y-76352D02*
G01*
X-349453Y-78740D01*
X-349453Y-106375D01*
X-347065Y-108762D01*
X-320649Y-108762D01*
X-318262Y-106375D01*
X-318262Y-78740D01*
X-320649Y-76352D01*
G37*
G36*
X-46482Y271729D02*
G01*
X-48869Y269341D01*
X-48869Y242925D01*
X-46482Y240538D01*
X-18846Y240538D01*
X-16459Y242925D01*
X-16459Y269341D01*
X-18846Y271729D01*
G37*
G36*
X-46482Y224332D02*
G01*
X-48869Y221945D01*
X-48869Y195529D01*
X-46482Y193141D01*
X-18846Y193141D01*
X-16459Y195529D01*
X-16459Y221945D01*
X-18846Y224332D01*
G37*
G36*
X-46482Y129235D02*
G01*
X-48869Y126847D01*
X-48869Y100431D01*
X-46482Y98044D01*
X-18846Y98044D01*
X-16459Y100431D01*
X-16459Y126847D01*
X-18846Y129235D01*
G37*
G36*
X-46482Y81838D02*
G01*
X-48869Y79451D01*
X-48869Y53035D01*
X-46482Y50596D01*
X-18846Y50596D01*
X-16459Y53035D01*
X-16459Y79451D01*
X-18846Y81838D01*
G37*
G36*
X-46482Y596747D02*
G01*
X-48869Y594360D01*
X-48869Y567944D01*
X-46482Y565556D01*
X-18846Y565556D01*
X-16459Y567944D01*
X-16459Y594360D01*
X-18846Y596747D01*
G37*
G36*
X-46482Y549351D02*
G01*
X-48869Y546912D01*
X-48869Y520496D01*
X-46482Y518109D01*
X-18846Y518109D01*
X-16459Y520496D01*
X-16459Y546912D01*
X-18846Y549351D01*
G37*
G36*
X-89814Y1031849D02*
G01*
X-92202Y1029462D01*
X-92202Y996492D01*
X-89814Y994105D01*
X-62230Y994105D01*
X-59791Y996492D01*
X-59791Y1029462D01*
X-62230Y1031849D01*
G37*
G36*
X-89814Y1085799D02*
G01*
X-92202Y1083360D01*
X-92202Y1050442D01*
X-89814Y1048054D01*
X-62230Y1048054D01*
X-59791Y1050442D01*
X-59791Y1083360D01*
X-62230Y1085799D01*
G37*
G36*
X-203606Y753618D02*
G01*
X-205994Y751230D01*
X-205994Y723646D01*
X-203606Y721258D01*
X-170688Y721258D01*
X-168249Y723646D01*
X-168249Y751230D01*
X-170688Y753618D01*
G37*
G36*
X-149656Y753618D02*
G01*
X-152044Y751230D01*
X-152044Y723646D01*
X-149656Y721258D01*
X-116738Y721258D01*
X-114300Y723646D01*
X-114300Y751230D01*
X-116738Y753618D01*
G37*
G36*
X-350520Y1121156D02*
G01*
X-352907Y1118717D01*
X-352907Y1091133D01*
X-350520Y1088745D01*
X-324104Y1088745D01*
X-321716Y1091133D01*
X-321716Y1118717D01*
X-324104Y1121156D01*
G37*
G36*
X-397916Y1121156D02*
G01*
X-400304Y1118717D01*
X-400304Y1091133D01*
X-397916Y1088745D01*
X-371500Y1088745D01*
X-369112Y1091133D01*
X-369112Y1118717D01*
X-371500Y1121156D01*
G37*
G36*
X474573Y-613867D02*
G01*
X472185Y-616254D01*
X472185Y-643839D01*
X474573Y-646277D01*
X500989Y-646277D01*
X503377Y-643839D01*
X503377Y-616254D01*
X500989Y-613867D01*
G37*
G36*
X521970Y-613867D02*
G01*
X519582Y-616254D01*
X519582Y-643839D01*
X521970Y-646277D01*
X548386Y-646277D01*
X550824Y-643839D01*
X550824Y-616254D01*
X548386Y-613867D01*
G37*
G36*
X1570532Y241147D02*
G01*
X1568145Y238760D01*
X1568145Y211124D01*
X1570532Y208737D01*
X1603502Y208737D01*
X1605889Y211124D01*
X1605889Y238760D01*
X1603502Y241147D01*
G37*
G36*
X1624533Y241147D02*
G01*
X1622094Y238760D01*
X1622094Y211124D01*
X1624533Y208737D01*
X1657451Y208737D01*
X1659839Y211124D01*
X1659839Y238760D01*
X1657451Y241147D01*
G37*
G36*
X1769567Y343662D02*
G01*
X1767179Y341223D01*
X1767179Y313639D01*
X1769567Y311251D01*
X1795983Y311251D01*
X1798370Y313639D01*
X1798370Y341223D01*
X1795983Y343662D01*
G37*
G36*
X1817014Y343662D02*
G01*
X1814575Y341223D01*
X1814575Y313639D01*
X1817014Y311251D01*
X1843379Y311251D01*
X1845818Y313639D01*
X1845818Y341223D01*
X1843379Y343662D01*
G37*
G36*
X-46482Y-228142D02*
G01*
X-48869Y-230581D01*
X-48869Y-256997D01*
X-46482Y-259384D01*
X-18846Y-259384D01*
X-16459Y-256997D01*
X-16459Y-230581D01*
X-18846Y-228142D01*
G37*
G36*
X-46482Y-180746D02*
G01*
X-48869Y-183134D01*
X-48869Y-209550D01*
X-46482Y-211937D01*
X-18846Y-211937D01*
X-16459Y-209550D01*
X-16459Y-183134D01*
X-18846Y-180746D01*
G37*
G36*
X1667713Y496824D02*
G01*
X1665274Y494436D01*
X1665274Y468020D01*
X1667713Y465632D01*
X1695297Y465632D01*
X1697685Y468020D01*
X1697685Y494436D01*
X1695297Y496824D01*
G37*
G36*
X1667713Y544271D02*
G01*
X1665274Y541832D01*
X1665274Y515416D01*
X1667713Y513029D01*
X1695297Y513029D01*
X1697685Y515416D01*
X1697685Y541832D01*
X1695297Y544271D01*
G37*
G36*
X1667713Y341833D02*
G01*
X1665274Y339445D01*
X1665274Y313029D01*
X1667713Y310642D01*
X1695297Y310642D01*
X1697685Y313029D01*
X1697685Y339445D01*
X1695297Y341833D01*
G37*
G36*
X1667713Y389229D02*
G01*
X1665274Y386842D01*
X1665274Y360426D01*
X1667713Y358038D01*
X1695297Y358038D01*
X1697685Y360426D01*
X1697685Y386842D01*
X1695297Y389229D01*
G37*
G36*
X2222093Y1083614D02*
G01*
X2219655Y1081227D01*
X2219655Y1053642D01*
X2222093Y1051255D01*
X2248509Y1051255D01*
X2250897Y1053642D01*
X2250897Y1081227D01*
X2248509Y1083614D01*
G37*
G36*
X2269490Y1083614D02*
G01*
X2267102Y1081227D01*
X2267102Y1053642D01*
X2269490Y1051255D01*
X2295906Y1051255D01*
X2298293Y1053642D01*
X2298293Y1081227D01*
X2295906Y1083614D01*
G37*
G36*
X1962099Y1083614D02*
G01*
X1959660Y1081227D01*
X1959660Y1053642D01*
X1962099Y1051255D01*
X1988515Y1051255D01*
X1990902Y1053642D01*
X1990902Y1081227D01*
X1988515Y1083614D01*
G37*
G36*
X2009495Y1083614D02*
G01*
X2007107Y1081227D01*
X2007107Y1053642D01*
X2009495Y1051255D01*
X2035911Y1051255D01*
X2038299Y1053642D01*
X2038299Y1081227D01*
X2035911Y1083614D01*
G37*
G36*
X2380183Y761847D02*
G01*
X2377795Y759460D01*
X2377795Y733044D01*
X2380183Y730605D01*
X2407767Y730605D01*
X2410206Y733044D01*
X2410206Y759460D01*
X2407767Y761847D01*
G37*
G36*
X2380183Y809244D02*
G01*
X2377795Y806856D01*
X2377795Y780440D01*
X2380183Y778052D01*
X2407767Y778052D01*
X2410206Y780440D01*
X2410206Y806856D01*
X2407767Y809244D01*
G37*
G36*
X1611985Y-213867D02*
G01*
X1609598Y-216255D01*
X1609598Y-243890D01*
X1611985Y-246278D01*
X1644954Y-246278D01*
X1647342Y-243890D01*
X1647342Y-216255D01*
X1644954Y-213867D01*
G37*
G36*
X1558036Y-213867D02*
G01*
X1555648Y-216255D01*
X1555648Y-243890D01*
X1558036Y-246278D01*
X1591005Y-246278D01*
X1593392Y-243890D01*
X1593392Y-216255D01*
X1591005Y-213867D01*
G37*
G36*
X1655216Y-329234D02*
G01*
X1652778Y-331622D01*
X1652778Y-364591D01*
X1655216Y-366979D01*
X1682800Y-366979D01*
X1685188Y-364591D01*
X1685188Y-331622D01*
X1682800Y-329234D01*
G37*
G36*
X1655216Y-383184D02*
G01*
X1652778Y-385572D01*
X1652778Y-418490D01*
X1655216Y-420928D01*
X1682800Y-420928D01*
X1685188Y-418490D01*
X1685188Y-385572D01*
X1682800Y-383184D01*
G37*
G36*
X1572717Y395782D02*
G01*
X1570278Y393344D01*
X1570278Y360426D01*
X1572717Y358038D01*
X1600301Y358038D01*
X1602689Y360426D01*
X1602689Y393344D01*
X1600301Y395782D01*
G37*
G36*
X1572717Y341833D02*
G01*
X1570278Y339445D01*
X1570278Y306476D01*
X1572717Y304088D01*
X1600301Y304088D01*
X1602689Y306476D01*
X1602689Y339445D01*
X1600301Y341833D01*
G37*
G36*
X1750212Y-329234D02*
G01*
X1747774Y-331622D01*
X1747774Y-364591D01*
X1750212Y-366979D01*
X1777796Y-366979D01*
X1780184Y-364591D01*
X1780184Y-331622D01*
X1777796Y-329234D01*
G37*
G36*
X1750212Y-383184D02*
G01*
X1747774Y-385572D01*
X1747774Y-418541D01*
X1750212Y-420928D01*
X1777796Y-420928D01*
X1780184Y-418541D01*
X1780184Y-385572D01*
X1777796Y-383184D01*
G37*
G36*
X2380183Y965758D02*
G01*
X2377795Y963371D01*
X2377795Y930452D01*
X2380183Y928014D01*
X2407767Y928014D01*
X2410206Y930452D01*
X2410206Y963371D01*
X2407767Y965758D01*
G37*
G36*
X2380183Y911860D02*
G01*
X2377795Y909421D01*
X2377795Y876503D01*
X2380183Y874115D01*
X2407767Y874115D01*
X2410206Y876503D01*
X2410206Y909421D01*
X2407767Y911860D01*
G37*
G36*
X1465173Y-329234D02*
G01*
X1462786Y-331622D01*
X1462786Y-364591D01*
X1465173Y-366979D01*
X1492808Y-366979D01*
X1495196Y-364591D01*
X1495196Y-331622D01*
X1492808Y-329234D01*
G37*
G36*
X1465173Y-383184D02*
G01*
X1462786Y-385572D01*
X1462786Y-418541D01*
X1465173Y-420928D01*
X1492808Y-420928D01*
X1495196Y-418541D01*
X1495196Y-385572D01*
X1492808Y-383184D01*
G37*
G36*
X1560169Y-383184D02*
G01*
X1557782Y-385572D01*
X1557782Y-418541D01*
X1560169Y-420928D01*
X1587804Y-420928D01*
X1590192Y-418541D01*
X1590192Y-385572D01*
X1587804Y-383184D01*
G37*
G36*
X1560169Y-329234D02*
G01*
X1557782Y-331622D01*
X1557782Y-364591D01*
X1560169Y-366979D01*
X1587804Y-366979D01*
X1590192Y-364591D01*
X1590192Y-331622D01*
X1587804Y-329234D01*
G37*
G36*
X1845208Y-329234D02*
G01*
X1842770Y-331622D01*
X1842770Y-364591D01*
X1845208Y-366979D01*
X1872792Y-366979D01*
X1875180Y-364591D01*
X1875180Y-331622D01*
X1872792Y-329234D01*
G37*
G36*
X1845208Y-383184D02*
G01*
X1842770Y-385572D01*
X1842770Y-418541D01*
X1845208Y-420928D01*
X1872792Y-420928D01*
X1875180Y-418541D01*
X1875180Y-385572D01*
X1872792Y-383184D01*
G37*
G36*
X-51968Y-328879D02*
G01*
X-54356Y-331266D01*
X-54356Y-358851D01*
X-51968Y-361238D01*
X-18999Y-361238D01*
X-16611Y-358851D01*
X-16611Y-331266D01*
X-18999Y-328879D01*
G37*
G36*
X1981Y-328879D02*
G01*
X-406Y-331266D01*
X-406Y-358851D01*
X1981Y-361238D01*
X34950Y-361238D01*
X37338Y-358851D01*
X37338Y-331266D01*
X34950Y-328879D01*
G37*
G36*
X1572717Y550773D02*
G01*
X1570278Y548386D01*
X1570278Y515416D01*
X1572717Y513029D01*
X1600301Y513029D01*
X1602689Y515416D01*
X1602689Y548386D01*
X1600301Y550773D01*
G37*
G36*
X1572717Y496824D02*
G01*
X1570278Y494436D01*
X1570278Y461467D01*
X1572717Y459079D01*
X1600301Y459079D01*
X1602689Y461467D01*
X1602689Y494436D01*
X1600301Y496824D01*
G37*
G36*
X256184Y-383082D02*
G01*
X253796Y-385521D01*
X253796Y-418439D01*
X256184Y-420827D01*
X283819Y-420827D01*
X286207Y-418439D01*
X286207Y-385521D01*
X283819Y-383082D01*
G37*
G36*
X256184Y-329133D02*
G01*
X253796Y-331571D01*
X253796Y-364490D01*
X256184Y-366877D01*
X283819Y-366877D01*
X286207Y-364490D01*
X286207Y-331571D01*
X283819Y-329133D01*
G37*
G36*
X-46482Y-68173D02*
G01*
X-48869Y-70561D01*
X-48869Y-103530D01*
X-46482Y-105918D01*
X-18846Y-105918D01*
X-16459Y-103530D01*
X-16459Y-70561D01*
X-18846Y-68173D01*
G37*
G36*
X-46482Y-14224D02*
G01*
X-48869Y-16611D01*
X-48869Y-49580D01*
X-46482Y-51968D01*
X-18846Y-51968D01*
X-16459Y-49580D01*
X-16459Y-16611D01*
X-18846Y-14224D01*
G37*
G36*
X-46482Y399338D02*
G01*
X-48869Y396951D01*
X-48869Y363982D01*
X-46482Y361594D01*
X-18846Y361594D01*
X-16459Y363982D01*
X-16459Y396951D01*
X-18846Y399338D01*
G37*
G36*
X-46482Y453288D02*
G01*
X-48869Y450900D01*
X-48869Y417931D01*
X-46482Y415543D01*
X-18846Y415543D01*
X-16459Y417931D01*
X-16459Y450900D01*
X-18846Y453288D01*
G37*
G36*
X-143967Y453288D02*
G01*
X-146354Y450900D01*
X-146354Y417931D01*
X-143967Y415543D01*
X-116382Y415543D01*
X-113944Y417931D01*
X-113944Y450900D01*
X-116382Y453288D01*
G37*
G36*
X-143967Y399338D02*
G01*
X-146354Y396951D01*
X-146354Y363982D01*
X-143967Y361594D01*
X-116382Y361594D01*
X-113944Y363982D01*
X-113944Y396951D01*
X-116382Y399338D01*
G37*
G36*
X-241452Y399338D02*
G01*
X-243840Y396951D01*
X-243840Y363982D01*
X-241452Y361594D01*
X-213867Y361594D01*
X-211480Y363982D01*
X-211480Y396951D01*
X-213867Y399338D01*
G37*
G36*
X-241452Y453288D02*
G01*
X-243840Y450900D01*
X-243840Y417931D01*
X-241452Y415543D01*
X-213867Y415543D01*
X-211480Y417931D01*
X-211480Y450900D01*
X-213867Y453288D01*
G37*
G36*
X128676Y-554177D02*
G01*
X126288Y-556564D01*
X126288Y-589483D01*
X128676Y-591921D01*
X156311Y-591921D01*
X158699Y-589483D01*
X158699Y-556564D01*
X156311Y-554177D01*
G37*
G36*
X128676Y-608076D02*
G01*
X126288Y-610514D01*
X126288Y-643432D01*
X128676Y-645820D01*
X156311Y-645820D01*
X158699Y-643432D01*
X158699Y-610514D01*
X156311Y-608076D01*
G37*
G36*
X468071Y-518871D02*
G01*
X465632Y-521258D01*
X465632Y-548843D01*
X468071Y-551281D01*
X500989Y-551281D01*
X503377Y-548843D01*
X503377Y-521258D01*
X500989Y-518871D01*
G37*
G36*
X521970Y-518871D02*
G01*
X519582Y-521258D01*
X519582Y-548843D01*
X521970Y-551281D01*
X554939Y-551281D01*
X557326Y-548843D01*
X557326Y-521258D01*
X554939Y-518871D01*
G37*
G36*
X223723Y-608076D02*
G01*
X221284Y-610514D01*
X221284Y-643432D01*
X223723Y-645820D01*
X251307Y-645820D01*
X253695Y-643432D01*
X253695Y-610514D01*
X251307Y-608076D01*
G37*
G36*
X223723Y-554177D02*
G01*
X221284Y-556564D01*
X221284Y-589483D01*
X223723Y-591921D01*
X251307Y-591921D01*
X253695Y-589483D01*
X253695Y-556564D01*
X251307Y-554177D01*
G37*
G36*
X-46482Y753262D02*
G01*
X-48869Y750874D01*
X-48869Y717956D01*
X-46482Y715518D01*
X-18846Y715518D01*
X-16459Y717956D01*
X-16459Y750874D01*
X-18846Y753262D01*
G37*
G36*
X-46482Y699312D02*
G01*
X-48869Y696925D01*
X-48869Y664006D01*
X-46482Y661568D01*
X-18846Y661568D01*
X-16459Y664006D01*
X-16459Y696925D01*
X-18846Y699312D01*
G37*
G36*
X157022Y-328879D02*
G01*
X154584Y-331266D01*
X154584Y-358851D01*
X157022Y-361289D01*
X189941Y-361289D01*
X192328Y-358851D01*
X192328Y-331266D01*
X189941Y-328879D01*
G37*
G36*
X103073Y-328879D02*
G01*
X100685Y-331266D01*
X100685Y-358851D01*
X103073Y-361289D01*
X135991Y-361289D01*
X138430Y-358851D01*
X138430Y-331266D01*
X135991Y-328879D01*
G37*
G36*
X319074Y-613816D02*
G01*
X316636Y-616204D01*
X316636Y-643788D01*
X319074Y-646176D01*
X351993Y-646176D01*
X354380Y-643788D01*
X354380Y-616204D01*
X351993Y-613816D01*
G37*
G36*
X372973Y-613816D02*
G01*
X370586Y-616204D01*
X370586Y-643788D01*
X372973Y-646176D01*
X405942Y-646176D01*
X408330Y-643788D01*
X408330Y-616204D01*
X405942Y-613816D01*
G37*
G36*
X1005179Y-329234D02*
G01*
X1002792Y-331622D01*
X1002792Y-364591D01*
X1005179Y-366979D01*
X1032814Y-366979D01*
X1035202Y-364591D01*
X1035202Y-331622D01*
X1032814Y-329234D01*
G37*
G36*
X1005179Y-383184D02*
G01*
X1002792Y-385572D01*
X1002792Y-418541D01*
X1005179Y-420928D01*
X1032814Y-420928D01*
X1035202Y-418541D01*
X1035202Y-385572D01*
X1032814Y-383184D01*
G37*
G36*
X521970Y-423875D02*
G01*
X519582Y-426262D01*
X519582Y-453898D01*
X521970Y-456285D01*
X554939Y-456285D01*
X557326Y-453898D01*
X557326Y-426262D01*
X554939Y-423875D01*
G37*
G36*
X468071Y-423875D02*
G01*
X465632Y-426262D01*
X465632Y-453898D01*
X468071Y-456285D01*
X500989Y-456285D01*
X503377Y-453898D01*
X503377Y-426262D01*
X500989Y-423875D01*
G37*
G36*
X1347673Y-383184D02*
G01*
X1345285Y-385572D01*
X1345285Y-418541D01*
X1347673Y-420928D01*
X1375308Y-420928D01*
X1377696Y-418541D01*
X1377696Y-385572D01*
X1375308Y-383184D01*
G37*
G36*
X1347673Y-329234D02*
G01*
X1345285Y-331622D01*
X1345285Y-364591D01*
X1347673Y-366979D01*
X1375308Y-366979D01*
X1377696Y-364591D01*
X1377696Y-331622D01*
X1375308Y-329234D01*
G37*
G36*
X910183Y-383184D02*
G01*
X907796Y-385572D01*
X907796Y-418490D01*
X910183Y-420928D01*
X937768Y-420928D01*
X940206Y-418490D01*
X940206Y-385572D01*
X937768Y-383184D01*
G37*
G36*
X910183Y-329234D02*
G01*
X907796Y-331622D01*
X907796Y-364591D01*
X910183Y-366979D01*
X937768Y-366979D01*
X940206Y-364591D01*
X940206Y-331622D01*
X937768Y-329234D01*
G37*
G36*
X815187Y-329234D02*
G01*
X812800Y-331622D01*
X812800Y-364591D01*
X815187Y-366979D01*
X842771Y-366979D01*
X845210Y-364591D01*
X845210Y-331622D01*
X842771Y-329234D01*
G37*
G36*
X815187Y-383184D02*
G01*
X812800Y-385572D01*
X812800Y-418541D01*
X815187Y-420928D01*
X842771Y-420928D01*
X845210Y-418541D01*
X845210Y-385572D01*
X842771Y-383184D01*
G37*
G36*
X720191Y-383184D02*
G01*
X717804Y-385572D01*
X717804Y-418490D01*
X720191Y-420928D01*
X747776Y-420928D01*
X750163Y-418490D01*
X750163Y-385572D01*
X747776Y-383184D01*
G37*
G36*
X720191Y-329234D02*
G01*
X717804Y-331622D01*
X717804Y-364591D01*
X720191Y-366979D01*
X747776Y-366979D01*
X750163Y-364591D01*
X750163Y-331622D01*
X747776Y-329234D01*
G37*
G36*
X625195Y-329234D02*
G01*
X622808Y-331622D01*
X622808Y-364591D01*
X625195Y-366979D01*
X652780Y-366979D01*
X655167Y-364591D01*
X655167Y-331622D01*
X652780Y-329234D01*
G37*
G36*
X625195Y-383184D02*
G01*
X622808Y-385572D01*
X622808Y-418490D01*
X625195Y-420928D01*
X652780Y-420928D01*
X655167Y-418490D01*
X655167Y-385572D01*
X652780Y-383184D01*
G37*
G36*
X1651507Y-650544D02*
G01*
X1647494Y-654558D01*
X1647494Y-700582D01*
X1651507Y-704545D01*
X1701546Y-704545D01*
X1705559Y-700582D01*
X1705559Y-654558D01*
X1701546Y-650544D01*
G37*
G36*
X1566418Y-650544D02*
G01*
X1562455Y-654558D01*
X1562455Y-700582D01*
X1566418Y-704545D01*
X1616506Y-704545D01*
X1620520Y-700582D01*
X1620520Y-654558D01*
X1616506Y-650544D01*
G37*
G36*
X1563928Y-515569D02*
G01*
X1559915Y-519582D01*
X1559915Y-565556D01*
X1563928Y-569569D01*
X1614017Y-569569D01*
X1617980Y-565556D01*
X1617980Y-519582D01*
X1614017Y-515569D01*
G37*
G36*
X1649018Y-515569D02*
G01*
X1645005Y-519582D01*
X1645005Y-565556D01*
X1649018Y-569569D01*
X1699056Y-569569D01*
X1703070Y-565556D01*
X1703070Y-519582D01*
X1699056Y-515569D01*
G37*
G36*
X631444Y-515569D02*
G01*
X627430Y-519582D01*
X627430Y-565556D01*
X631444Y-569569D01*
X681482Y-569569D01*
X685495Y-565556D01*
X685495Y-519582D01*
X681482Y-515569D01*
G37*
G36*
X716483Y-515569D02*
G01*
X712520Y-519582D01*
X712520Y-565556D01*
X716483Y-569569D01*
X766572Y-569569D01*
X770585Y-565556D01*
X770585Y-519582D01*
X766572Y-515569D01*
G37*
G36*
X716483Y-650544D02*
G01*
X712520Y-654558D01*
X712520Y-700582D01*
X716483Y-704545D01*
X766572Y-704545D01*
X770585Y-700582D01*
X770585Y-654558D01*
X766572Y-650544D01*
G37*
G36*
X631444Y-650544D02*
G01*
X627430Y-654558D01*
X627430Y-700582D01*
X631444Y-704545D01*
X681482Y-704545D01*
X685495Y-700582D01*
X685495Y-654558D01*
X681482Y-650544D01*
G37*
G36*
X1817014Y443636D02*
G01*
X1814575Y441248D01*
X1814575Y413613D01*
X1817014Y411226D01*
X1849932Y411226D01*
X1852320Y413613D01*
X1852320Y441248D01*
X1849932Y443636D01*
G37*
G36*
X1763064Y443636D02*
G01*
X1760626Y441248D01*
X1760626Y413613D01*
X1763064Y411226D01*
X1795983Y411226D01*
X1798370Y413613D01*
X1798370Y441248D01*
X1795983Y443636D01*
G37*
G36*
X1763064Y538632D02*
G01*
X1760626Y536244D01*
X1760626Y508660D01*
X1763064Y506222D01*
X1795983Y506222D01*
X1798370Y508660D01*
X1798370Y536244D01*
X1795983Y538632D01*
G37*
G36*
X1817014Y538632D02*
G01*
X1814575Y536244D01*
X1814575Y508660D01*
X1817014Y506222D01*
X1849932Y506222D01*
X1852320Y508660D01*
X1852320Y536244D01*
X1849932Y538632D01*
G37*
G36*
X-143967Y-174193D02*
G01*
X-146354Y-176631D01*
X-146354Y-209550D01*
X-143967Y-211937D01*
X-116382Y-211937D01*
X-113944Y-209550D01*
X-113944Y-176631D01*
X-116382Y-174193D01*
G37*
G36*
X-143967Y-228142D02*
G01*
X-146354Y-230581D01*
X-146354Y-263499D01*
X-143967Y-265887D01*
X-116382Y-265887D01*
X-113944Y-263499D01*
X-113944Y-230581D01*
X-116382Y-228142D01*
G37*
G36*
X-411480Y-225653D02*
G01*
X-413867Y-228041D01*
X-413867Y-261010D01*
X-411480Y-263398D01*
X-383844Y-263398D01*
X-381457Y-261010D01*
X-381457Y-228041D01*
X-383844Y-225653D01*
G37*
G36*
X-411480Y-171704D02*
G01*
X-413867Y-174142D01*
X-413867Y-207060D01*
X-411480Y-209448D01*
X-383844Y-209448D01*
X-381457Y-207060D01*
X-381457Y-174142D01*
X-383844Y-171704D01*
G37*
G36*
X468071Y-328879D02*
G01*
X465632Y-331266D01*
X465632Y-358851D01*
X468071Y-361289D01*
X500989Y-361289D01*
X503377Y-358851D01*
X503377Y-331266D01*
X500989Y-328879D01*
G37*
G36*
X521970Y-328879D02*
G01*
X519582Y-331266D01*
X519582Y-358851D01*
X521970Y-361289D01*
X554939Y-361289D01*
X557326Y-358851D01*
X557326Y-331266D01*
X554939Y-328879D01*
G37*
D10*
G01*
X-285165Y219923D03*
G01*
X-285150Y39938D03*
D11*
G01*
X-165160Y39944D03*
D12*
G01*
X-165176Y219933D03*
D13*
G01*
X-232671Y-252568D03*
D14*
G01*
X-310169Y-182571D03*
D15*
G01*
X-310169Y-252568D03*
D16*
G01*
X-230172Y-182571D03*
D17*
G01*
X-270177Y-217576D03*
D18*
G01*
X-95159Y904925D03*
D19*
G01*
X-165157Y827427D03*
D20*
G01*
X-95159Y827427D03*
D21*
G01*
X-165157Y907425D03*
D22*
G01*
X-130152Y867420D03*
D23*
G01*
X-353909Y584934D03*
G01*
X-181410Y584934D03*
D24*
G01*
X1794017Y782132D03*
G01*
X1794017Y947714D03*
G01*
X1183985Y-557870D03*
G01*
X1183985Y-392287D03*
G01*
X2118984Y-557870D03*
G01*
X2118984Y-392287D03*
D25*
G01*
X1339001Y959906D03*
G01*
X1339001Y879922D03*
G01*
X1339001Y799912D03*
G01*
X1339001Y719927D03*
G01*
X1339001Y639917D03*
G01*
X1339001Y559907D03*
G01*
X1339001Y479922D03*
G01*
X1339001Y399912D03*
G01*
X1339001Y319928D03*
G01*
X1339001Y239918D03*
G01*
X1339001Y159908D03*
G01*
X1339001Y79923D03*
G01*
X1339001Y-86D03*
G01*
X1339001Y-80070D03*
G01*
X1258991Y1039916D03*
G01*
X1258991Y959906D03*
G01*
X1258991Y879922D03*
G01*
X1258991Y799912D03*
G01*
X1258991Y719927D03*
G01*
X1258991Y639917D03*
G01*
X1258991Y559907D03*
G01*
X1258991Y479922D03*
G01*
X1258991Y399912D03*
G01*
X1258991Y319928D03*
G01*
X1258991Y239918D03*
G01*
X1258991Y159908D03*
G01*
X1258991Y79923D03*
G01*
X1258991Y-86D03*
G01*
X1258991Y-80070D03*
G01*
X1258991Y-160080D03*
G01*
X1179007Y1039916D03*
G01*
X1179007Y959906D03*
G01*
X1179007Y879922D03*
G01*
X1179007Y639917D03*
G01*
X1179007Y559907D03*
G01*
X1179007Y319928D03*
G01*
X1179007Y239918D03*
G01*
X1179007Y-86D03*
G01*
X1179007Y-80070D03*
G01*
X1179007Y-160080D03*
G01*
X1098997Y1039916D03*
G01*
X1098997Y959906D03*
G01*
X1098997Y639917D03*
G01*
X1098997Y239918D03*
G01*
X1098997Y-80070D03*
G01*
X1098997Y-160080D03*
G01*
X1019012Y1039916D03*
G01*
X1019012Y959906D03*
G01*
X1019012Y879922D03*
G01*
X1019012Y799912D03*
G01*
X1019012Y639917D03*
G01*
X1019012Y559907D03*
G01*
X1019012Y479922D03*
G01*
X1019012Y399912D03*
G01*
X1019012Y319928D03*
G01*
X1019012Y79923D03*
G01*
X1019012Y-86D03*
G01*
X1019012Y-80070D03*
G01*
X1019012Y-160080D03*
G01*
X939002Y1039916D03*
G01*
X939002Y959906D03*
G01*
X939002Y879922D03*
G01*
X939002Y719927D03*
G01*
X939002Y639917D03*
G01*
X939002Y559907D03*
G01*
X939002Y479922D03*
G01*
X939002Y399912D03*
G01*
X939002Y319928D03*
G01*
X939002Y239918D03*
G01*
X939002Y-86D03*
G01*
X939002Y-80070D03*
G01*
X939002Y-160080D03*
G01*
X858992Y1039916D03*
G01*
X858992Y959906D03*
G01*
X858992Y879922D03*
G01*
X858992Y719927D03*
G01*
X858992Y639917D03*
G01*
X858992Y559907D03*
G01*
X858992Y479922D03*
G01*
X858992Y399912D03*
G01*
X858992Y319928D03*
G01*
X858992Y239918D03*
G01*
X858992Y159908D03*
G01*
X858992Y-86D03*
G01*
X858992Y-80070D03*
G01*
X858992Y-160080D03*
G01*
X779007Y1039916D03*
G01*
X779007Y959906D03*
G01*
X779007Y719927D03*
G01*
X779007Y639917D03*
G01*
X779007Y559907D03*
G01*
X779007Y319928D03*
G01*
X779007Y239918D03*
G01*
X779007Y159908D03*
G01*
X779007Y-80070D03*
G01*
X779007Y-160080D03*
G01*
X698997Y1039916D03*
G01*
X698997Y959906D03*
G01*
X698997Y719927D03*
G01*
X698997Y639917D03*
G01*
X698997Y559907D03*
G01*
X698997Y319928D03*
G01*
X698997Y239918D03*
G01*
X698997Y159908D03*
G01*
X698997Y-80070D03*
G01*
X698997Y-160080D03*
G01*
X619013Y1039916D03*
G01*
X619013Y959906D03*
G01*
X619013Y879922D03*
G01*
X619013Y719927D03*
G01*
X619013Y639917D03*
G01*
X619013Y559907D03*
G01*
X619013Y479922D03*
G01*
X619013Y399912D03*
G01*
X619013Y319928D03*
G01*
X619013Y239918D03*
G01*
X619013Y159908D03*
G01*
X619013Y-86D03*
G01*
X619013Y-80070D03*
G01*
X619013Y-160080D03*
G01*
X539003Y1039916D03*
G01*
X539003Y959906D03*
G01*
X539003Y879922D03*
G01*
X539003Y639917D03*
G01*
X539003Y559907D03*
G01*
X539003Y479922D03*
G01*
X539003Y399912D03*
G01*
X539003Y319928D03*
G01*
X539003Y239918D03*
G01*
X539003Y159908D03*
G01*
X539003Y-86D03*
G01*
X539003Y-80070D03*
G01*
X539003Y-160080D03*
G01*
X458993Y1039916D03*
G01*
X458993Y959906D03*
G01*
X458993Y879922D03*
G01*
X458993Y479922D03*
G01*
X458993Y399912D03*
G01*
X458993Y319928D03*
G01*
X458993Y-86D03*
G01*
X458993Y-80070D03*
G01*
X458993Y-160080D03*
G01*
X379008Y1039916D03*
G01*
X379008Y959906D03*
G01*
X379008Y639917D03*
G01*
X379008Y559907D03*
G01*
X379008Y-80070D03*
G01*
X379008Y-160080D03*
G01*
X298998Y1039916D03*
D26*
G01*
X298998Y959906D03*
D25*
G01*
X298998Y879922D03*
G01*
X298998Y639917D03*
G01*
X298998Y559907D03*
G01*
X298998Y399912D03*
G01*
X298998Y319928D03*
G01*
X298998Y239918D03*
G01*
X298998Y79923D03*
G01*
X298998Y-86D03*
G01*
X298998Y-80070D03*
G01*
X298998Y-160080D03*
G01*
X219014Y1039916D03*
G01*
X219014Y959906D03*
G01*
X219014Y879922D03*
G01*
X219014Y799912D03*
G01*
X219014Y719927D03*
G01*
X219014Y639917D03*
G01*
X219014Y559907D03*
G01*
X219014Y479922D03*
G01*
X219014Y399912D03*
G01*
X219014Y319928D03*
G01*
X219014Y239918D03*
G01*
X219014Y159908D03*
G01*
X219014Y79923D03*
G01*
X219014Y-86D03*
G01*
X219014Y-80070D03*
G01*
X219014Y-160080D03*
G01*
X139004Y959906D03*
G01*
X139004Y879922D03*
G01*
X139004Y799912D03*
G01*
X139004Y719927D03*
G01*
X139004Y639917D03*
G01*
X139004Y559907D03*
G01*
X139004Y479922D03*
G01*
X139004Y399912D03*
G01*
X139004Y319928D03*
G01*
X139004Y239918D03*
G01*
X139004Y159908D03*
G01*
X139004Y79923D03*
G01*
X139004Y-86D03*
G01*
X139004Y-80070D03*
D27*
G01*
X2129000Y829932D03*
D28*
G01*
X2276490Y929934D03*
G01*
X2276490Y879972D03*
G01*
X2276490Y829934D03*
G01*
X2276490Y779922D03*
G01*
X2276490Y729935D03*
G01*
X1981494Y729935D03*
G01*
X1981494Y779896D03*
G01*
X1981494Y829934D03*
G01*
X1981494Y879972D03*
G01*
X1981494Y929934D03*
D29*
G01*
X869000Y-677580D03*
G01*
X933998Y-677580D03*
G01*
X998997Y-677580D03*
G01*
X998997Y-492592D03*
G01*
X933998Y-492592D03*
G01*
X869000Y-492592D03*
D30*
G01*
X933998Y-585073D03*
D29*
G01*
X1803999Y-677580D03*
G01*
X1868998Y-677580D03*
G01*
X1933996Y-677580D03*
G01*
X1933996Y-492592D03*
G01*
X1868998Y-492592D03*
G01*
X1803999Y-492592D03*
D30*
G01*
X1868998Y-585073D03*
D31*
G01*
X1736232Y-220075D03*
G01*
X1736232Y-170088D03*
G01*
X1736232Y-120075D03*
G01*
X1736232Y-70088D03*
D32*
G01*
X1821743Y-220077D03*
G01*
X1821743Y-170077D03*
G01*
X1821743Y-120077D03*
G01*
X1821743Y-70077D03*
D33*
G01*
X2262494Y509920D03*
G01*
X2389494Y509920D03*
G01*
X2008494Y509920D03*
G01*
X2135494Y509920D03*
G01*
X2135494Y-250047D03*
G01*
X2262494Y-250047D03*
G01*
X2389494Y-250073D03*
G01*
X2008494Y-250073D03*
D34*
G01*
X2198994Y129961D03*
M02*
