G04 Layer: InnerLayer1*
G04 EasyEDA v6.5.21, 2022-10-22 16:28:30*
G04 167bdced229c4b2ca01845534b4d4eab,294cf934c43b457281b0b0dcd80bbfec,10*
G04 Gerber Generator version 0.2*
G04 Scale: 100 percent, Rotated: No, Reflected: No *
G04 Dimensions in millimeters *
G04 leading zeros omitted , absolute positions ,4 integer and 5 decimal *
%FSLAX45Y45*%
%MOMM*%

%ADD10C,0.6000*%
%ADD11C,0.1270*%
%ADD12R,0.6000X1.2000*%
%ADD13R,1.2000X0.6000*%
%ADD14C,0.4200*%
%ADD15C,0.5000*%
%ADD16C,0.4500*%
%ADD17C,0.0156*%

%LPD*%
G36*
X-475030Y-794054D02*
G01*
X-478942Y-793292D01*
X-482193Y-791057D01*
X-484428Y-787806D01*
X-485190Y-783894D01*
X-485190Y-756005D01*
X-484428Y-752094D01*
X-482193Y-748792D01*
X-478942Y-746607D01*
X-475030Y-745845D01*
X-451662Y-745845D01*
X-446938Y-745185D01*
X-443179Y-743661D01*
X-439978Y-741172D01*
X-437489Y-737920D01*
X-435914Y-734161D01*
X-435305Y-729437D01*
X-435305Y-670814D01*
X-435914Y-666089D01*
X-437489Y-662330D01*
X-439978Y-659079D01*
X-443636Y-655421D01*
X-444957Y-651967D01*
X-444957Y-648258D01*
X-443636Y-644804D01*
X-439978Y-641146D01*
X-437489Y-637946D01*
X-435914Y-634136D01*
X-435305Y-629462D01*
X-435305Y-570788D01*
X-435914Y-566064D01*
X-437489Y-562305D01*
X-439978Y-559104D01*
X-443636Y-555447D01*
X-444957Y-551992D01*
X-444957Y-548284D01*
X-443636Y-544830D01*
X-439978Y-541172D01*
X-437489Y-537921D01*
X-435914Y-534162D01*
X-435305Y-529437D01*
X-435305Y-470763D01*
X-435914Y-466090D01*
X-437489Y-462330D01*
X-439978Y-459079D01*
X-443636Y-455422D01*
X-444957Y-451967D01*
X-444957Y-448259D01*
X-443636Y-444804D01*
X-439978Y-441147D01*
X-437489Y-437896D01*
X-435914Y-434136D01*
X-435305Y-429463D01*
X-435305Y-370789D01*
X-435914Y-366064D01*
X-437489Y-362305D01*
X-439978Y-359054D01*
X-443636Y-355396D01*
X-445008Y-351942D01*
X-445008Y-348234D01*
X-443636Y-344779D01*
X-439928Y-341071D01*
X-437489Y-337820D01*
X-435914Y-334060D01*
X-435305Y-329336D01*
X-435305Y-270713D01*
X-435914Y-265988D01*
X-437489Y-262229D01*
X-439928Y-258978D01*
X-443585Y-255320D01*
X-444906Y-251866D01*
X-444906Y-248158D01*
X-443585Y-244703D01*
X-439928Y-241046D01*
X-437489Y-237845D01*
X-435914Y-234086D01*
X-435305Y-229362D01*
X-435305Y-170688D01*
X-435914Y-165963D01*
X-437489Y-162204D01*
X-439928Y-159004D01*
X-443585Y-155346D01*
X-444906Y-151892D01*
X-444906Y-148183D01*
X-443585Y-144729D01*
X-439978Y-141071D01*
X-437489Y-137820D01*
X-435914Y-134061D01*
X-435305Y-129387D01*
X-435305Y-70713D01*
X-435914Y-65989D01*
X-437489Y-62230D01*
X-439978Y-58978D01*
X-443179Y-56489D01*
X-446938Y-54965D01*
X-451662Y-54356D01*
X-475030Y-54356D01*
X-478942Y-53543D01*
X-482193Y-51358D01*
X-484428Y-48056D01*
X-485190Y-44196D01*
X-485190Y44094D01*
X-484428Y48006D01*
X-482193Y51308D01*
X-478942Y53492D01*
X-475030Y54254D01*
X-451662Y54254D01*
X-446938Y54914D01*
X-443179Y56438D01*
X-439928Y58928D01*
X-437489Y62179D01*
X-435914Y65938D01*
X-435305Y70662D01*
X-435305Y129285D01*
X-435914Y134010D01*
X-437489Y137769D01*
X-439928Y141020D01*
X-443585Y144678D01*
X-444906Y148132D01*
X-444906Y151841D01*
X-443585Y155295D01*
X-439928Y158953D01*
X-437489Y162153D01*
X-435914Y165963D01*
X-435305Y170637D01*
X-435305Y229311D01*
X-435914Y234035D01*
X-437489Y237794D01*
X-439928Y240995D01*
X-443585Y244652D01*
X-444906Y248107D01*
X-444906Y251815D01*
X-443585Y255270D01*
X-439928Y258927D01*
X-437489Y262128D01*
X-435914Y265938D01*
X-435305Y270611D01*
X-435305Y329285D01*
X-435914Y334010D01*
X-437489Y337769D01*
X-439928Y340969D01*
X-443585Y344627D01*
X-444906Y348132D01*
X-444906Y351790D01*
X-443585Y355244D01*
X-439928Y358902D01*
X-437489Y362153D01*
X-435914Y365912D01*
X-435305Y370636D01*
X-435305Y429310D01*
X-435914Y433984D01*
X-437489Y437743D01*
X-439928Y440994D01*
X-443585Y444652D01*
X-444957Y448106D01*
X-444957Y451815D01*
X-443585Y455269D01*
X-439928Y458927D01*
X-437489Y462178D01*
X-435914Y465937D01*
X-435305Y470611D01*
X-435305Y529285D01*
X-435914Y534009D01*
X-437489Y537768D01*
X-439928Y541020D01*
X-443585Y544626D01*
X-444906Y548081D01*
X-444906Y551789D01*
X-443585Y555244D01*
X-439978Y558901D01*
X-437489Y562152D01*
X-435914Y565912D01*
X-435305Y570585D01*
X-435305Y629259D01*
X-435914Y633984D01*
X-437489Y637743D01*
X-439978Y640994D01*
X-443179Y643432D01*
X-446938Y645007D01*
X-451662Y645617D01*
X-475030Y645617D01*
X-478942Y646430D01*
X-482193Y648614D01*
X-484428Y651916D01*
X-485190Y655777D01*
X-485190Y744067D01*
X-484428Y747979D01*
X-482193Y751281D01*
X-478942Y753465D01*
X-475030Y754227D01*
X-451662Y754227D01*
X-446938Y754888D01*
X-443179Y756412D01*
X-439978Y758901D01*
X-437489Y762152D01*
X-435914Y765911D01*
X-435305Y770636D01*
X-435305Y829259D01*
X-435914Y833983D01*
X-437489Y837742D01*
X-439978Y840994D01*
X-443636Y844651D01*
X-444957Y848106D01*
X-444957Y851814D01*
X-443636Y855268D01*
X-439978Y858926D01*
X-437489Y862126D01*
X-435914Y865936D01*
X-435305Y870610D01*
X-435305Y929284D01*
X-435914Y934008D01*
X-437489Y937768D01*
X-439978Y940968D01*
X-443636Y944626D01*
X-444957Y948080D01*
X-444957Y951788D01*
X-443636Y955243D01*
X-439978Y958900D01*
X-437489Y962152D01*
X-435914Y965911D01*
X-435305Y970635D01*
X-435305Y1029309D01*
X-435914Y1033983D01*
X-437489Y1037742D01*
X-439978Y1040993D01*
X-443585Y1044651D01*
X-444906Y1048105D01*
X-444906Y1051814D01*
X-443585Y1055268D01*
X-439978Y1058875D01*
X-437489Y1062126D01*
X-435914Y1065885D01*
X-435305Y1070610D01*
X-435305Y1129284D01*
X-435914Y1133957D01*
X-437489Y1137716D01*
X-439978Y1140968D01*
X-443179Y1143457D01*
X-446938Y1145032D01*
X-451662Y1145641D01*
X-475030Y1145641D01*
X-478942Y1146403D01*
X-482193Y1148588D01*
X-484428Y1151890D01*
X-485190Y1155801D01*
X-485190Y1183843D01*
X-484428Y1187754D01*
X-482193Y1191006D01*
X-478942Y1193241D01*
X-475030Y1194003D01*
X-376834Y1194003D01*
X-372973Y1193241D01*
X-369671Y1191006D01*
X-367487Y1187754D01*
X-366674Y1183843D01*
X-366674Y1160627D01*
X-366064Y1155903D01*
X-364490Y1152144D01*
X-362051Y1148892D01*
X-358800Y1146403D01*
X-355041Y1144879D01*
X-350316Y1144219D01*
X-291642Y1144219D01*
X-286969Y1144879D01*
X-283210Y1146403D01*
X-279958Y1148892D01*
X-276301Y1152550D01*
X-272846Y1153871D01*
X-269138Y1153871D01*
X-265684Y1152550D01*
X-262026Y1148892D01*
X-258775Y1146403D01*
X-255016Y1144828D01*
X-250342Y1144219D01*
X-191668Y1144219D01*
X-186944Y1144828D01*
X-183184Y1146403D01*
X-179933Y1148892D01*
X-176326Y1152550D01*
X-172872Y1153871D01*
X-169164Y1153871D01*
X-165709Y1152550D01*
X-162052Y1148892D01*
X-158800Y1146403D01*
X-155041Y1144828D01*
X-150317Y1144219D01*
X-91643Y1144219D01*
X-86969Y1144828D01*
X-83210Y1146403D01*
X-79959Y1148892D01*
X-76301Y1152550D01*
X-72847Y1153871D01*
X-69138Y1153871D01*
X-65684Y1152550D01*
X-62026Y1148892D01*
X-58775Y1146403D01*
X-55016Y1144828D01*
X-50342Y1144219D01*
X8331Y1144219D01*
X13055Y1144828D01*
X16814Y1146403D01*
X20066Y1148892D01*
X23672Y1152550D01*
X27127Y1153871D01*
X30835Y1153871D01*
X34290Y1152550D01*
X37947Y1148892D01*
X41198Y1146403D01*
X44958Y1144828D01*
X49682Y1144219D01*
X108356Y1144219D01*
X113030Y1144828D01*
X116789Y1146403D01*
X120040Y1148892D01*
X123698Y1152550D01*
X127152Y1153871D01*
X130860Y1153871D01*
X134315Y1152550D01*
X137972Y1148892D01*
X141224Y1146403D01*
X144983Y1144828D01*
X149656Y1144219D01*
X208330Y1144219D01*
X213055Y1144828D01*
X216814Y1146403D01*
X220065Y1148892D01*
X223672Y1152499D01*
X227126Y1153871D01*
X230835Y1153871D01*
X234289Y1152499D01*
X237947Y1148892D01*
X241198Y1146403D01*
X244957Y1144828D01*
X249682Y1144219D01*
X308356Y1144219D01*
X313029Y1144828D01*
X316788Y1146403D01*
X320040Y1148892D01*
X323697Y1152499D01*
X327152Y1153871D01*
X330860Y1153871D01*
X334314Y1152499D01*
X337972Y1148842D01*
X341223Y1146403D01*
X344982Y1144828D01*
X349656Y1144219D01*
X408330Y1144219D01*
X413054Y1144828D01*
X416814Y1146403D01*
X420065Y1148842D01*
X423672Y1152499D01*
X427126Y1153820D01*
X430834Y1153820D01*
X434289Y1152499D01*
X437946Y1148842D01*
X441198Y1146352D01*
X444957Y1144828D01*
X449681Y1144219D01*
X508355Y1144219D01*
X513029Y1144828D01*
X516788Y1146352D01*
X520039Y1148842D01*
X523697Y1152499D01*
X527151Y1153820D01*
X530860Y1153820D01*
X534314Y1152499D01*
X537972Y1148842D01*
X541223Y1146352D01*
X544982Y1144828D01*
X549656Y1144168D01*
X608330Y1144168D01*
X613054Y1144828D01*
X616813Y1146352D01*
X620064Y1148842D01*
X623671Y1152499D01*
X627126Y1153820D01*
X630834Y1153820D01*
X634288Y1152499D01*
X637946Y1148842D01*
X641197Y1146352D01*
X644956Y1144828D01*
X649681Y1144168D01*
X708355Y1144168D01*
X713028Y1144828D01*
X716788Y1146352D01*
X720039Y1148842D01*
X723696Y1152499D01*
X727151Y1153820D01*
X730859Y1153820D01*
X734314Y1152499D01*
X737971Y1148842D01*
X741222Y1146352D01*
X744982Y1144778D01*
X749655Y1144168D01*
X808329Y1144168D01*
X813053Y1144778D01*
X816813Y1146352D01*
X820064Y1148842D01*
X823671Y1152499D01*
X827125Y1153820D01*
X830834Y1153820D01*
X834288Y1152499D01*
X837946Y1148842D01*
X841197Y1146352D01*
X844956Y1144778D01*
X849680Y1144168D01*
X908354Y1144168D01*
X913028Y1144778D01*
X916787Y1146352D01*
X920038Y1148842D01*
X923696Y1152499D01*
X927150Y1153820D01*
X930859Y1153820D01*
X934313Y1152499D01*
X937971Y1148842D01*
X941222Y1146352D01*
X944981Y1144778D01*
X949655Y1144168D01*
X1008329Y1144168D01*
X1013053Y1144778D01*
X1016812Y1146352D01*
X1020064Y1148842D01*
X1023670Y1152499D01*
X1027125Y1153820D01*
X1030833Y1153820D01*
X1034287Y1152499D01*
X1037945Y1148842D01*
X1041196Y1146352D01*
X1044956Y1144778D01*
X1049680Y1144168D01*
X1108354Y1144168D01*
X1113028Y1144778D01*
X1116787Y1146352D01*
X1120038Y1148842D01*
X1123696Y1152499D01*
X1127150Y1153820D01*
X1130858Y1153820D01*
X1134313Y1152499D01*
X1137970Y1148842D01*
X1141222Y1146352D01*
X1144981Y1144778D01*
X1149654Y1144168D01*
X1208328Y1144168D01*
X1213053Y1144778D01*
X1216812Y1146352D01*
X1220063Y1148842D01*
X1223721Y1152550D01*
X1227175Y1153871D01*
X1230884Y1153871D01*
X1234338Y1152550D01*
X1237996Y1148943D01*
X1241196Y1146454D01*
X1244955Y1144879D01*
X1249680Y1144270D01*
X1308354Y1144270D01*
X1313078Y1144879D01*
X1316837Y1146454D01*
X1320038Y1148943D01*
X1323695Y1152550D01*
X1327150Y1153871D01*
X1330858Y1153871D01*
X1334312Y1152550D01*
X1337970Y1148892D01*
X1341221Y1146403D01*
X1344980Y1144879D01*
X1349705Y1144219D01*
X1408328Y1144219D01*
X1413052Y1144879D01*
X1416812Y1146403D01*
X1420063Y1148892D01*
X1423720Y1152550D01*
X1427175Y1153871D01*
X1430883Y1153871D01*
X1434338Y1152550D01*
X1437995Y1148892D01*
X1441196Y1146403D01*
X1444955Y1144879D01*
X1449679Y1144219D01*
X1508353Y1144219D01*
X1513078Y1144879D01*
X1516837Y1146403D01*
X1520037Y1148892D01*
X1523644Y1152499D01*
X1527098Y1153820D01*
X1530807Y1153820D01*
X1534261Y1152499D01*
X1537970Y1148791D01*
X1541221Y1146302D01*
X1544980Y1144778D01*
X1549654Y1144117D01*
X1608328Y1144117D01*
X1613052Y1144778D01*
X1616811Y1146302D01*
X1620062Y1148791D01*
X1623669Y1152448D01*
X1627124Y1153769D01*
X1630832Y1153769D01*
X1634286Y1152448D01*
X1637944Y1148791D01*
X1641195Y1146302D01*
X1644954Y1144778D01*
X1649679Y1144117D01*
X1708353Y1144117D01*
X1713026Y1144778D01*
X1716786Y1146302D01*
X1720037Y1148791D01*
X1723694Y1152448D01*
X1727149Y1153769D01*
X1730857Y1153769D01*
X1734312Y1152448D01*
X1737969Y1148791D01*
X1741220Y1146302D01*
X1744980Y1144727D01*
X1749653Y1144117D01*
X1808327Y1144117D01*
X1813052Y1144727D01*
X1816811Y1146302D01*
X1820062Y1148791D01*
X1823669Y1152448D01*
X1827123Y1153769D01*
X1830832Y1153769D01*
X1834286Y1152448D01*
X1837943Y1148791D01*
X1841195Y1146302D01*
X1844954Y1144727D01*
X1849678Y1144117D01*
X1908352Y1144117D01*
X1913026Y1144727D01*
X1916785Y1146302D01*
X1920036Y1148791D01*
X1923694Y1152448D01*
X1927148Y1153769D01*
X1930857Y1153769D01*
X1934311Y1152448D01*
X1937969Y1148791D01*
X1941220Y1146302D01*
X1944979Y1144727D01*
X1949653Y1144117D01*
X2008327Y1144117D01*
X2013051Y1144727D01*
X2016810Y1146302D01*
X2020062Y1148791D01*
X2023668Y1152448D01*
X2027123Y1153769D01*
X2030831Y1153769D01*
X2034286Y1152448D01*
X2037943Y1148791D01*
X2041194Y1146302D01*
X2044954Y1144727D01*
X2049678Y1144117D01*
X2108352Y1144117D01*
X2113026Y1144727D01*
X2116785Y1146302D01*
X2120036Y1148791D01*
X2123694Y1152448D01*
X2127148Y1153769D01*
X2130856Y1153769D01*
X2134311Y1152448D01*
X2137968Y1148791D01*
X2141220Y1146302D01*
X2144979Y1144727D01*
X2149652Y1144117D01*
X2208326Y1144117D01*
X2213051Y1144727D01*
X2216810Y1146302D01*
X2220061Y1148791D01*
X2223668Y1152398D01*
X2227122Y1153769D01*
X2230831Y1153769D01*
X2234285Y1152398D01*
X2237943Y1148791D01*
X2241194Y1146302D01*
X2244953Y1144727D01*
X2249678Y1144117D01*
X2308352Y1144117D01*
X2313025Y1144727D01*
X2316784Y1146302D01*
X2320036Y1148791D01*
X2323693Y1152398D01*
X2327148Y1153769D01*
X2330856Y1153769D01*
X2334310Y1152398D01*
X2337968Y1148740D01*
X2341219Y1146302D01*
X2344978Y1144727D01*
X2349652Y1144117D01*
X2408326Y1144117D01*
X2413050Y1144727D01*
X2416810Y1146302D01*
X2420061Y1148740D01*
X2423668Y1152398D01*
X2427122Y1153718D01*
X2430830Y1153718D01*
X2434285Y1152398D01*
X2437942Y1148740D01*
X2441194Y1146251D01*
X2444953Y1144727D01*
X2449677Y1144117D01*
X2508351Y1144117D01*
X2513025Y1144727D01*
X2516784Y1146251D01*
X2520035Y1148740D01*
X2522524Y1151991D01*
X2524099Y1155750D01*
X2524709Y1160475D01*
X2524709Y1183843D01*
X2525471Y1187754D01*
X2527655Y1191006D01*
X2530957Y1193241D01*
X2534869Y1194003D01*
X2632913Y1194003D01*
X2636824Y1193241D01*
X2640076Y1191006D01*
X2642311Y1187754D01*
X2643073Y1183843D01*
X2643073Y1055827D01*
X2642311Y1051915D01*
X2640076Y1048613D01*
X2636824Y1046429D01*
X2632913Y1045667D01*
X2527808Y1045616D01*
X2518968Y1044803D01*
X2510840Y1042517D01*
X2503322Y1038758D01*
X2496566Y1033678D01*
X2490927Y1027480D01*
X2486456Y1020318D01*
X2483408Y1012444D01*
X2481630Y1005382D01*
X2480868Y997458D01*
X2481630Y989533D01*
X2483967Y981913D01*
X2487726Y974852D01*
X2492756Y968705D01*
X2499055Y963523D01*
X2502763Y961390D01*
X2510840Y957376D01*
X2518968Y955090D01*
X2527808Y954227D01*
X2587548Y954227D01*
X2591917Y953262D01*
X2595422Y950468D01*
X2597404Y946454D01*
X2597505Y941984D01*
X2593949Y934008D01*
X2593289Y929284D01*
X2593289Y870610D01*
X2593949Y865886D01*
X2595473Y862126D01*
X2597962Y858926D01*
X2601620Y855268D01*
X2602941Y851814D01*
X2602941Y848106D01*
X2601620Y844651D01*
X2597962Y840994D01*
X2595473Y837742D01*
X2593949Y833983D01*
X2593289Y829259D01*
X2593289Y770585D01*
X2593949Y765911D01*
X2595473Y762152D01*
X2597962Y758901D01*
X2601620Y755243D01*
X2602941Y751789D01*
X2602941Y748080D01*
X2601620Y744626D01*
X2597962Y740968D01*
X2595473Y737717D01*
X2593949Y733958D01*
X2593289Y729284D01*
X2593289Y670610D01*
X2593949Y665886D01*
X2595473Y662127D01*
X2597962Y658876D01*
X2601620Y655218D01*
X2602941Y651764D01*
X2602941Y648106D01*
X2601620Y644601D01*
X2597962Y640994D01*
X2595473Y637743D01*
X2593949Y633984D01*
X2593289Y629259D01*
X2593289Y570585D01*
X2593949Y565912D01*
X2595473Y562152D01*
X2597962Y558901D01*
X2601620Y555244D01*
X2602941Y551789D01*
X2602941Y548081D01*
X2601620Y544626D01*
X2597962Y540969D01*
X2595473Y537718D01*
X2593949Y533958D01*
X2593289Y529285D01*
X2593289Y470611D01*
X2593949Y465886D01*
X2595473Y462127D01*
X2597962Y458876D01*
X2601620Y455218D01*
X2602941Y451764D01*
X2602941Y448056D01*
X2601620Y444601D01*
X2597962Y440943D01*
X2595473Y437743D01*
X2593949Y433984D01*
X2593289Y429259D01*
X2593289Y370586D01*
X2593949Y365861D01*
X2595473Y362102D01*
X2597962Y358902D01*
X2601620Y355244D01*
X2602941Y351790D01*
X2602941Y348081D01*
X2601620Y344627D01*
X2597962Y340969D01*
X2595473Y337718D01*
X2593949Y333959D01*
X2593289Y329234D01*
X2593289Y270560D01*
X2593949Y265887D01*
X2595473Y262128D01*
X2597962Y258876D01*
X2601620Y255219D01*
X2602941Y251764D01*
X2602941Y248056D01*
X2601620Y244602D01*
X2597962Y240944D01*
X2595473Y237693D01*
X2593949Y233934D01*
X2593289Y229260D01*
X2593289Y170586D01*
X2593949Y165862D01*
X2595473Y162102D01*
X2597962Y158851D01*
X2601620Y155194D01*
X2602941Y151739D01*
X2602941Y148082D01*
X2601620Y144576D01*
X2597962Y140970D01*
X2595473Y137718D01*
X2593949Y133959D01*
X2593289Y129235D01*
X2593289Y70561D01*
X2593949Y65887D01*
X2595473Y62128D01*
X2597962Y58877D01*
X2601620Y55219D01*
X2602941Y51765D01*
X2602941Y48056D01*
X2601620Y44602D01*
X2597962Y40944D01*
X2595473Y37693D01*
X2593949Y33934D01*
X2593289Y29260D01*
X2593289Y-29413D01*
X2593949Y-34137D01*
X2595473Y-37896D01*
X2597962Y-41148D01*
X2601620Y-44805D01*
X2602941Y-48260D01*
X2602941Y-51968D01*
X2601620Y-55422D01*
X2597962Y-59080D01*
X2595473Y-62280D01*
X2593949Y-66040D01*
X2593289Y-70764D01*
X2593289Y-129438D01*
X2593949Y-134162D01*
X2595473Y-137922D01*
X2597962Y-141122D01*
X2601620Y-144780D01*
X2602941Y-148234D01*
X2602941Y-151942D01*
X2601620Y-155397D01*
X2597962Y-159054D01*
X2595473Y-162306D01*
X2593949Y-166065D01*
X2593289Y-170789D01*
X2593289Y-229463D01*
X2593949Y-234137D01*
X2595473Y-237896D01*
X2597962Y-241147D01*
X2601620Y-244805D01*
X2602941Y-248259D01*
X2602941Y-251967D01*
X2601620Y-255422D01*
X2597962Y-259079D01*
X2595473Y-262331D01*
X2593949Y-266090D01*
X2593289Y-270764D01*
X2593289Y-329438D01*
X2593949Y-334162D01*
X2595473Y-337921D01*
X2597962Y-341172D01*
X2601620Y-344830D01*
X2602941Y-348284D01*
X2602941Y-351942D01*
X2601620Y-355447D01*
X2597962Y-359054D01*
X2595473Y-362305D01*
X2593949Y-366064D01*
X2593289Y-370789D01*
X2593289Y-429463D01*
X2593949Y-434136D01*
X2595473Y-437896D01*
X2597962Y-441147D01*
X2601620Y-444804D01*
X2602941Y-448259D01*
X2602941Y-451967D01*
X2601620Y-455422D01*
X2597962Y-459079D01*
X2595473Y-462330D01*
X2593949Y-466090D01*
X2593289Y-470763D01*
X2593289Y-529437D01*
X2593949Y-534162D01*
X2595473Y-537921D01*
X2597962Y-541172D01*
X2601620Y-544830D01*
X2602941Y-548284D01*
X2602941Y-551992D01*
X2601620Y-555447D01*
X2597962Y-559104D01*
X2595473Y-562305D01*
X2593949Y-566064D01*
X2593289Y-570788D01*
X2593289Y-629462D01*
X2593949Y-634187D01*
X2595473Y-637946D01*
X2597962Y-641146D01*
X2601620Y-644804D01*
X2602941Y-648258D01*
X2602941Y-651967D01*
X2601620Y-655421D01*
X2597962Y-659079D01*
X2595473Y-662330D01*
X2593949Y-666089D01*
X2593289Y-670814D01*
X2593289Y-729488D01*
X2593949Y-734161D01*
X2595473Y-737920D01*
X2597962Y-741172D01*
X2601214Y-743661D01*
X2604973Y-745185D01*
X2609697Y-745845D01*
X2632913Y-745845D01*
X2636824Y-746607D01*
X2640076Y-748792D01*
X2642311Y-752094D01*
X2643073Y-756005D01*
X2643073Y-783894D01*
X2642311Y-787806D01*
X2640076Y-791057D01*
X2636824Y-793292D01*
X2632913Y-794054D01*
X2534869Y-794054D01*
X2530957Y-793292D01*
X2527655Y-791057D01*
X2525471Y-787806D01*
X2524709Y-783894D01*
X2524709Y-760882D01*
X2524099Y-756158D01*
X2522524Y-752398D01*
X2520035Y-749198D01*
X2516784Y-746709D01*
X2513025Y-745134D01*
X2508351Y-744524D01*
X2449677Y-744524D01*
X2444953Y-745134D01*
X2441194Y-746709D01*
X2437942Y-749198D01*
X2434285Y-752805D01*
X2430830Y-754176D01*
X2427173Y-754176D01*
X2423668Y-752805D01*
X2420061Y-749147D01*
X2416810Y-746709D01*
X2413050Y-745134D01*
X2408326Y-744524D01*
X2349652Y-744524D01*
X2344978Y-745134D01*
X2341219Y-746709D01*
X2337968Y-749147D01*
X2334310Y-752805D01*
X2330856Y-754126D01*
X2327148Y-754126D01*
X2323693Y-752805D01*
X2320036Y-749147D01*
X2316784Y-746658D01*
X2313025Y-745134D01*
X2308352Y-744524D01*
X2249678Y-744524D01*
X2244953Y-745134D01*
X2241194Y-746658D01*
X2237943Y-749147D01*
X2234285Y-752805D01*
X2230831Y-754126D01*
X2227173Y-754126D01*
X2223668Y-752805D01*
X2220061Y-749147D01*
X2216810Y-746658D01*
X2213051Y-745134D01*
X2208326Y-744524D01*
X2149652Y-744524D01*
X2144979Y-745134D01*
X2141220Y-746658D01*
X2137968Y-749147D01*
X2134362Y-752703D01*
X2130907Y-754075D01*
X2127199Y-754075D01*
X2123744Y-752703D01*
X2120036Y-748995D01*
X2117547Y-747014D01*
X2114905Y-743915D01*
X2113686Y-740003D01*
X2114092Y-735939D01*
X2116074Y-732383D01*
X2121611Y-725982D01*
X2125167Y-719480D01*
X2127402Y-712419D01*
X2128164Y-705053D01*
X2127402Y-697687D01*
X2125167Y-690626D01*
X2121611Y-684123D01*
X2116734Y-678484D01*
X2110892Y-673963D01*
X2104237Y-670712D01*
X2097074Y-668832D01*
X2089657Y-668477D01*
X2082342Y-669594D01*
X2075383Y-672134D01*
X2069084Y-676097D01*
X2063699Y-681177D01*
X2059482Y-687273D01*
X2056536Y-694080D01*
X2055063Y-701344D01*
X2055063Y-708761D01*
X2056536Y-716026D01*
X2059482Y-722833D01*
X2063343Y-728370D01*
X2065020Y-732434D01*
X2064816Y-736854D01*
X2062784Y-740714D01*
X2059279Y-743407D01*
X2055012Y-744372D01*
X2049678Y-744372D01*
X2045004Y-744982D01*
X2041194Y-746556D01*
X2037994Y-748995D01*
X2034336Y-752652D01*
X2030882Y-753973D01*
X2027174Y-753973D01*
X2023719Y-752652D01*
X2020062Y-748995D01*
X2016810Y-746556D01*
X2013051Y-744982D01*
X2008378Y-744372D01*
X1949704Y-744372D01*
X1944979Y-744982D01*
X1941220Y-746556D01*
X1937969Y-748995D01*
X1934260Y-752754D01*
X1930806Y-754075D01*
X1927098Y-754075D01*
X1923643Y-752754D01*
X1920036Y-749147D01*
X1916785Y-746658D01*
X1913026Y-745083D01*
X1908352Y-744474D01*
X1849678Y-744474D01*
X1844954Y-745083D01*
X1841195Y-746658D01*
X1837943Y-749147D01*
X1834286Y-752805D01*
X1830832Y-754126D01*
X1827174Y-754126D01*
X1823669Y-752805D01*
X1820062Y-749147D01*
X1816811Y-746658D01*
X1813052Y-745083D01*
X1808327Y-744474D01*
X1749653Y-744474D01*
X1744980Y-745083D01*
X1741220Y-746658D01*
X1737969Y-749147D01*
X1734312Y-752805D01*
X1730857Y-754126D01*
X1727149Y-754126D01*
X1723694Y-752805D01*
X1720037Y-749147D01*
X1716786Y-746658D01*
X1713026Y-745083D01*
X1708353Y-744474D01*
X1649679Y-744474D01*
X1644954Y-745083D01*
X1641195Y-746658D01*
X1637944Y-749147D01*
X1634286Y-752805D01*
X1630832Y-754126D01*
X1627174Y-754126D01*
X1623669Y-752805D01*
X1620062Y-749147D01*
X1616811Y-746658D01*
X1613052Y-745083D01*
X1608328Y-744474D01*
X1549654Y-744474D01*
X1544980Y-745083D01*
X1541221Y-746658D01*
X1537970Y-749147D01*
X1534312Y-752754D01*
X1530858Y-754126D01*
X1527149Y-754126D01*
X1523695Y-752754D01*
X1520037Y-749147D01*
X1516786Y-746658D01*
X1513027Y-745083D01*
X1508353Y-744474D01*
X1449679Y-744474D01*
X1444955Y-745083D01*
X1441196Y-746658D01*
X1437944Y-749147D01*
X1434287Y-752754D01*
X1430832Y-754126D01*
X1427175Y-754126D01*
X1423670Y-752754D01*
X1420063Y-749096D01*
X1416812Y-746658D01*
X1413052Y-745083D01*
X1408328Y-744474D01*
X1349654Y-744474D01*
X1344980Y-745083D01*
X1341221Y-746658D01*
X1337970Y-749096D01*
X1335481Y-752348D01*
X1333906Y-756107D01*
X1333296Y-760831D01*
X1333296Y-783894D01*
X1332534Y-787806D01*
X1330350Y-791057D01*
X1327048Y-793292D01*
X1323136Y-794054D01*
X1234846Y-794054D01*
X1230985Y-793292D01*
X1227683Y-791057D01*
X1225448Y-787806D01*
X1224686Y-783894D01*
X1224686Y-760831D01*
X1224076Y-756107D01*
X1222502Y-752348D01*
X1220063Y-749096D01*
X1216812Y-746607D01*
X1213053Y-745083D01*
X1208328Y-744474D01*
X1195273Y-744474D01*
X1191158Y-743559D01*
X1187754Y-741121D01*
X1185621Y-737514D01*
X1185164Y-733348D01*
X1186383Y-729335D01*
X1187704Y-726998D01*
X1189939Y-719937D01*
X1190650Y-712571D01*
X1189939Y-705154D01*
X1187704Y-698093D01*
X1184097Y-691591D01*
X1179271Y-686003D01*
X1173429Y-681431D01*
X1166774Y-678180D01*
X1159560Y-676300D01*
X1152144Y-675944D01*
X1144828Y-677062D01*
X1137869Y-679653D01*
X1131570Y-683564D01*
X1126236Y-688695D01*
X1121968Y-694740D01*
X1119073Y-701598D01*
X1117549Y-708863D01*
X1117549Y-716229D01*
X1119073Y-723493D01*
X1122172Y-730758D01*
X1122984Y-734974D01*
X1122019Y-739089D01*
X1119479Y-742492D01*
X1115771Y-744524D01*
X1111504Y-744880D01*
X1108354Y-744423D01*
X1078179Y-744423D01*
X1074064Y-743559D01*
X1070660Y-741070D01*
X1068527Y-737463D01*
X1067409Y-725170D01*
X1065174Y-718108D01*
X1061618Y-711606D01*
X1056792Y-706018D01*
X1050899Y-701446D01*
X1044244Y-698195D01*
X1037082Y-696315D01*
X1029665Y-695960D01*
X1022350Y-697077D01*
X1015390Y-699668D01*
X1009091Y-703580D01*
X1003706Y-708710D01*
X999490Y-714756D01*
X996543Y-721614D01*
X995070Y-728878D01*
X995070Y-734263D01*
X994308Y-738174D01*
X992073Y-741476D01*
X988771Y-743661D01*
X984910Y-744423D01*
X949655Y-744423D01*
X944981Y-745032D01*
X941222Y-746607D01*
X937971Y-749096D01*
X934313Y-752754D01*
X930859Y-754075D01*
X927150Y-754075D01*
X923696Y-752754D01*
X920038Y-749096D01*
X916787Y-746607D01*
X913028Y-745032D01*
X908354Y-744423D01*
X849680Y-744423D01*
X844956Y-745032D01*
X841197Y-746607D01*
X837946Y-749096D01*
X834288Y-752754D01*
X830834Y-754075D01*
X827176Y-754075D01*
X823671Y-752754D01*
X820064Y-749096D01*
X816813Y-746607D01*
X813053Y-745032D01*
X808329Y-744423D01*
X749655Y-744423D01*
X744982Y-745032D01*
X741222Y-746607D01*
X737971Y-749096D01*
X734314Y-752754D01*
X730859Y-754075D01*
X727151Y-754075D01*
X723696Y-752754D01*
X720039Y-749096D01*
X716788Y-746607D01*
X713028Y-745032D01*
X708355Y-744423D01*
X649681Y-744423D01*
X644956Y-745032D01*
X641197Y-746607D01*
X637946Y-749096D01*
X634288Y-752754D01*
X630834Y-754075D01*
X627176Y-754075D01*
X623671Y-752754D01*
X620064Y-749096D01*
X616813Y-746607D01*
X613054Y-745032D01*
X608330Y-744423D01*
X549656Y-744423D01*
X544982Y-745032D01*
X541223Y-746607D01*
X537972Y-749096D01*
X534314Y-752703D01*
X530860Y-754075D01*
X527151Y-754075D01*
X523697Y-752703D01*
X520039Y-749096D01*
X516788Y-746607D01*
X513029Y-745032D01*
X508355Y-744423D01*
X449681Y-744423D01*
X444957Y-745032D01*
X441198Y-746607D01*
X437946Y-749096D01*
X434289Y-752703D01*
X430834Y-754075D01*
X427177Y-754075D01*
X423672Y-752703D01*
X420065Y-749046D01*
X416814Y-746607D01*
X413613Y-745286D01*
X410413Y-743153D01*
X408228Y-739952D01*
X407365Y-736193D01*
X407974Y-732383D01*
X409956Y-729081D01*
X414426Y-726084D01*
X420268Y-721563D01*
X425094Y-715924D01*
X428701Y-709422D01*
X430936Y-702360D01*
X431647Y-694994D01*
X430936Y-687628D01*
X428701Y-680567D01*
X425094Y-674065D01*
X420268Y-668426D01*
X414426Y-663905D01*
X407771Y-660654D01*
X400558Y-658774D01*
X393141Y-658418D01*
X385826Y-659536D01*
X378866Y-662076D01*
X372567Y-666038D01*
X367233Y-671118D01*
X362966Y-677214D01*
X360070Y-684022D01*
X358546Y-691286D01*
X358546Y-698703D01*
X360070Y-705967D01*
X362966Y-712774D01*
X367233Y-718870D01*
X372567Y-723950D01*
X375259Y-725627D01*
X378358Y-728675D01*
X379933Y-732688D01*
X379628Y-737057D01*
X377596Y-740867D01*
X374091Y-743458D01*
X369874Y-744423D01*
X349656Y-744423D01*
X344982Y-745032D01*
X341223Y-746607D01*
X337972Y-749046D01*
X334314Y-752703D01*
X330860Y-754024D01*
X327152Y-754024D01*
X323697Y-752703D01*
X320040Y-749046D01*
X316788Y-746556D01*
X313029Y-745032D01*
X308356Y-744423D01*
X249682Y-744423D01*
X244957Y-745032D01*
X241198Y-746556D01*
X237947Y-749046D01*
X234289Y-752703D01*
X230835Y-754024D01*
X227177Y-754024D01*
X223672Y-752703D01*
X220065Y-749046D01*
X216814Y-746556D01*
X213055Y-745032D01*
X208330Y-744423D01*
X149656Y-744423D01*
X144983Y-745032D01*
X141224Y-746556D01*
X137972Y-749046D01*
X134315Y-752703D01*
X130860Y-754024D01*
X127152Y-754024D01*
X123698Y-752703D01*
X120040Y-749046D01*
X116789Y-746556D01*
X113030Y-745032D01*
X108356Y-744372D01*
X49682Y-744372D01*
X44958Y-745032D01*
X41198Y-746556D01*
X37947Y-749046D01*
X34290Y-752703D01*
X30835Y-754024D01*
X27178Y-754024D01*
X23672Y-752703D01*
X20066Y-749046D01*
X16814Y-746556D01*
X13055Y-744982D01*
X8331Y-744372D01*
X-50342Y-744372D01*
X-55016Y-744982D01*
X-58775Y-746556D01*
X-62026Y-749046D01*
X-65684Y-752703D01*
X-69138Y-754024D01*
X-72847Y-754024D01*
X-76301Y-752703D01*
X-79959Y-749046D01*
X-83210Y-746556D01*
X-86969Y-744982D01*
X-91643Y-744372D01*
X-150317Y-744372D01*
X-155041Y-744982D01*
X-158800Y-746556D01*
X-162052Y-749046D01*
X-165709Y-752703D01*
X-169164Y-754024D01*
X-172821Y-754024D01*
X-176326Y-752703D01*
X-179933Y-749046D01*
X-183184Y-746556D01*
X-186944Y-744982D01*
X-191668Y-744372D01*
X-250342Y-744372D01*
X-255016Y-744982D01*
X-258775Y-746556D01*
X-262026Y-749046D01*
X-264515Y-752246D01*
X-266090Y-756056D01*
X-266700Y-760730D01*
X-266700Y-783894D01*
X-267462Y-787806D01*
X-269646Y-791057D01*
X-272948Y-793292D01*
X-276860Y-794054D01*
G37*

%LPC*%
G36*
X1712163Y-646633D02*
G01*
X1719580Y-646277D01*
X1726742Y-644398D01*
X1733397Y-641146D01*
X1739290Y-636625D01*
X1744116Y-630986D01*
X1747672Y-624484D01*
X1749907Y-617423D01*
X1750669Y-610057D01*
X1749907Y-602691D01*
X1747672Y-595630D01*
X1744116Y-589127D01*
X1739290Y-583488D01*
X1733397Y-578967D01*
X1726742Y-575716D01*
X1719580Y-573836D01*
X1712163Y-573481D01*
X1704848Y-574598D01*
X1697888Y-577138D01*
X1691589Y-581101D01*
X1686204Y-586181D01*
X1681988Y-592277D01*
X1679041Y-599084D01*
X1677568Y-606348D01*
X1677568Y-613765D01*
X1679041Y-621030D01*
X1681988Y-627837D01*
X1686204Y-633933D01*
X1691589Y-639013D01*
X1697888Y-642975D01*
X1704848Y-645515D01*
G37*
G36*
X1389634Y-506679D02*
G01*
X1397050Y-506323D01*
X1404264Y-504443D01*
X1410919Y-501192D01*
X1415237Y-497789D01*
X1418437Y-496163D01*
X1421993Y-495706D01*
X1425498Y-496519D01*
X1429054Y-499059D01*
X1435354Y-502970D01*
X1442313Y-505561D01*
X1449628Y-506679D01*
X1457045Y-506323D01*
X1464259Y-504443D01*
X1470914Y-501192D01*
X1476756Y-496620D01*
X1481582Y-491032D01*
X1485188Y-484530D01*
X1487424Y-477469D01*
X1488135Y-470103D01*
X1487424Y-462686D01*
X1485188Y-455625D01*
X1481582Y-449122D01*
X1476756Y-443534D01*
X1470914Y-438962D01*
X1464259Y-435711D01*
X1457045Y-433832D01*
X1449628Y-433476D01*
X1442313Y-434593D01*
X1435354Y-437184D01*
X1425498Y-443636D01*
X1421993Y-444449D01*
X1418437Y-443992D01*
X1415237Y-442366D01*
X1410919Y-438962D01*
X1404264Y-435711D01*
X1397050Y-433832D01*
X1389634Y-433476D01*
X1382318Y-434593D01*
X1375359Y-437184D01*
X1369060Y-441096D01*
X1363726Y-446227D01*
X1359458Y-452272D01*
X1356563Y-459130D01*
X1355039Y-466394D01*
X1355039Y-473760D01*
X1356563Y-481025D01*
X1359458Y-487883D01*
X1363726Y-493928D01*
X1369060Y-499059D01*
X1375359Y-502970D01*
X1382318Y-505561D01*
G37*
G36*
X587146Y-429158D02*
G01*
X594563Y-428802D01*
X601726Y-426923D01*
X608380Y-423672D01*
X614273Y-419100D01*
X619099Y-413512D01*
X622655Y-407009D01*
X624890Y-399948D01*
X625652Y-392582D01*
X624890Y-385165D01*
X622655Y-378104D01*
X619099Y-371602D01*
X614273Y-366014D01*
X608380Y-361442D01*
X601726Y-358190D01*
X594563Y-356311D01*
X587146Y-355955D01*
X579831Y-357073D01*
X572871Y-359664D01*
X566572Y-363575D01*
X561187Y-368706D01*
X556971Y-374751D01*
X554024Y-381609D01*
X552551Y-388874D01*
X552551Y-396240D01*
X554024Y-403504D01*
X556971Y-410362D01*
X561187Y-416407D01*
X566572Y-421538D01*
X572871Y-425450D01*
X579831Y-428040D01*
G37*
G36*
X1524914Y-384200D02*
G01*
X1532331Y-383844D01*
X1539544Y-381965D01*
X1546199Y-378714D01*
X1552041Y-374192D01*
X1556867Y-368554D01*
X1560474Y-362051D01*
X1562709Y-354990D01*
X1563420Y-347624D01*
X1562709Y-340258D01*
X1561033Y-334975D01*
X1560576Y-331266D01*
X1561541Y-327609D01*
X1563725Y-324612D01*
X1566875Y-322529D01*
X1570532Y-321767D01*
X1576984Y-321665D01*
X1580946Y-322376D01*
X1584299Y-324561D01*
X1586585Y-327914D01*
X1587347Y-331876D01*
X1584655Y-343916D01*
X1584655Y-351332D01*
X1586179Y-358597D01*
X1589074Y-365404D01*
X1593342Y-371500D01*
X1598676Y-376580D01*
X1604975Y-380542D01*
X1611934Y-383082D01*
X1619250Y-384200D01*
X1626666Y-383844D01*
X1633880Y-381965D01*
X1640535Y-378714D01*
X1646377Y-374192D01*
X1651203Y-368554D01*
X1654810Y-362051D01*
X1657045Y-354990D01*
X1657756Y-347624D01*
X1657045Y-340258D01*
X1654810Y-333197D01*
X1651203Y-326694D01*
X1646377Y-321056D01*
X1640535Y-316534D01*
X1633880Y-313283D01*
X1626666Y-311404D01*
X1615236Y-310692D01*
X1611680Y-308864D01*
X1609090Y-305765D01*
X1607921Y-301904D01*
X1608328Y-297891D01*
X1610004Y-292658D01*
X1610715Y-285292D01*
X1610004Y-277926D01*
X1607769Y-270865D01*
X1604162Y-264363D01*
X1599336Y-258724D01*
X1593494Y-254203D01*
X1586839Y-250952D01*
X1579626Y-249072D01*
X1572209Y-248716D01*
X1564894Y-249834D01*
X1557934Y-252374D01*
X1551635Y-256336D01*
X1546301Y-261416D01*
X1542034Y-267512D01*
X1539138Y-274320D01*
X1537614Y-281584D01*
X1537614Y-289001D01*
X1540306Y-301142D01*
X1539494Y-305104D01*
X1537157Y-308457D01*
X1533702Y-310642D01*
X1529638Y-311251D01*
X1524914Y-311048D01*
X1517599Y-312166D01*
X1510639Y-314706D01*
X1504340Y-318668D01*
X1499006Y-323748D01*
X1494739Y-329844D01*
X1491843Y-336651D01*
X1490319Y-343916D01*
X1490319Y-351332D01*
X1491843Y-358597D01*
X1494739Y-365404D01*
X1499006Y-371500D01*
X1504340Y-376580D01*
X1510639Y-380542D01*
X1517599Y-383082D01*
G37*
G36*
X684631Y-384149D02*
G01*
X692048Y-383794D01*
X699262Y-381914D01*
X705916Y-378663D01*
X711758Y-374091D01*
X716584Y-368503D01*
X720191Y-362000D01*
X722426Y-354939D01*
X723138Y-347573D01*
X722426Y-340156D01*
X720191Y-333095D01*
X716584Y-326593D01*
X714502Y-324154D01*
X712673Y-321056D01*
X712063Y-317550D01*
X712673Y-314045D01*
X714502Y-310946D01*
X716584Y-308508D01*
X720191Y-302006D01*
X722426Y-294944D01*
X723138Y-287578D01*
X722426Y-280162D01*
X720191Y-273100D01*
X716584Y-266598D01*
X711758Y-261010D01*
X705916Y-256438D01*
X699262Y-253187D01*
X692048Y-251307D01*
X684631Y-250952D01*
X677316Y-252069D01*
X670356Y-254660D01*
X664057Y-258571D01*
X658723Y-263702D01*
X654456Y-269748D01*
X651560Y-276606D01*
X650036Y-283870D01*
X650036Y-291236D01*
X651560Y-298500D01*
X654456Y-305358D01*
X658926Y-311759D01*
X660552Y-315518D01*
X660552Y-319582D01*
X658926Y-323342D01*
X654456Y-329742D01*
X651560Y-336600D01*
X650036Y-343865D01*
X650036Y-351231D01*
X651560Y-358495D01*
X654456Y-365353D01*
X658723Y-371398D01*
X664057Y-376529D01*
X670356Y-380441D01*
X677316Y-383032D01*
G37*
G36*
X1307134Y-346659D02*
G01*
X1314551Y-346303D01*
X1321765Y-344424D01*
X1328420Y-341172D01*
X1334262Y-336600D01*
X1339088Y-331012D01*
X1342034Y-325678D01*
X1344726Y-322580D01*
X1348384Y-320751D01*
X1352448Y-320548D01*
X1359611Y-321665D01*
X1367028Y-321310D01*
X1374241Y-319430D01*
X1380896Y-316179D01*
X1386738Y-311607D01*
X1391564Y-306019D01*
X1395171Y-299516D01*
X1397406Y-292455D01*
X1398117Y-285089D01*
X1397406Y-277672D01*
X1395171Y-270611D01*
X1391564Y-264109D01*
X1386738Y-258521D01*
X1380896Y-253949D01*
X1374241Y-250698D01*
X1367028Y-248818D01*
X1359611Y-248462D01*
X1355191Y-249123D01*
X1351584Y-249072D01*
X1348282Y-247751D01*
X1345590Y-245313D01*
X1343964Y-242163D01*
X1342694Y-238150D01*
X1339088Y-231648D01*
X1334262Y-226009D01*
X1328420Y-221488D01*
X1321765Y-218236D01*
X1314551Y-216357D01*
X1307134Y-216001D01*
X1299819Y-217119D01*
X1292860Y-219659D01*
X1286560Y-223621D01*
X1281226Y-228701D01*
X1276959Y-234797D01*
X1274064Y-241604D01*
X1272540Y-248869D01*
X1272540Y-256286D01*
X1274064Y-263550D01*
X1276959Y-270357D01*
X1280566Y-275488D01*
X1282192Y-279247D01*
X1282192Y-283362D01*
X1280566Y-287121D01*
X1278839Y-289560D01*
X1275892Y-292404D01*
X1272032Y-293827D01*
X1267968Y-293624D01*
X1264310Y-291795D01*
X1261618Y-288696D01*
X1259078Y-284124D01*
X1254252Y-278485D01*
X1248410Y-273964D01*
X1241755Y-270713D01*
X1238097Y-269748D01*
X1234795Y-268224D01*
X1232306Y-265734D01*
X1230782Y-262432D01*
X1230630Y-257556D01*
X1229918Y-250190D01*
X1227683Y-243128D01*
X1224076Y-236626D01*
X1219250Y-230987D01*
X1213408Y-226466D01*
X1206754Y-223215D01*
X1199540Y-221335D01*
X1192123Y-220979D01*
X1184808Y-222097D01*
X1177848Y-224637D01*
X1171549Y-228600D01*
X1166215Y-233679D01*
X1161948Y-239775D01*
X1159052Y-246583D01*
X1157528Y-253847D01*
X1157528Y-261264D01*
X1159052Y-268528D01*
X1161948Y-275336D01*
X1166215Y-281432D01*
X1171549Y-286512D01*
X1177848Y-290474D01*
X1185875Y-293420D01*
X1189380Y-295554D01*
X1191717Y-298907D01*
X1192530Y-302920D01*
X1192530Y-308762D01*
X1194054Y-316026D01*
X1196949Y-322834D01*
X1201216Y-328930D01*
X1206550Y-334010D01*
X1212850Y-337972D01*
X1219809Y-340512D01*
X1227124Y-341630D01*
X1234541Y-341274D01*
X1241755Y-339394D01*
X1248410Y-336143D01*
X1254252Y-331622D01*
X1259840Y-325069D01*
X1263040Y-322529D01*
X1267002Y-321513D01*
X1271066Y-322122D01*
X1274572Y-324307D01*
X1281226Y-333908D01*
X1286560Y-339039D01*
X1292860Y-342950D01*
X1299819Y-345541D01*
G37*
G36*
X537159Y-334162D02*
G01*
X544576Y-333806D01*
X551738Y-331927D01*
X558393Y-328676D01*
X564286Y-324104D01*
X569112Y-318516D01*
X572668Y-312013D01*
X574903Y-304952D01*
X575665Y-297586D01*
X574903Y-290169D01*
X572668Y-283108D01*
X569112Y-276606D01*
X566216Y-272338D01*
X565607Y-268833D01*
X566216Y-265277D01*
X569112Y-261010D01*
X572668Y-254508D01*
X574903Y-247446D01*
X575665Y-240080D01*
X574903Y-232664D01*
X572668Y-225602D01*
X569112Y-219100D01*
X564286Y-213512D01*
X558393Y-208940D01*
X551738Y-205689D01*
X544576Y-203809D01*
X537159Y-203454D01*
X529844Y-204571D01*
X522884Y-207162D01*
X520954Y-208330D01*
X517499Y-209702D01*
X513842Y-209753D01*
X510387Y-208483D01*
X507593Y-206044D01*
X505866Y-202793D01*
X505206Y-200609D01*
X501599Y-194106D01*
X496773Y-188518D01*
X490931Y-183946D01*
X484276Y-180695D01*
X477062Y-178816D01*
X469646Y-178460D01*
X462330Y-179578D01*
X455371Y-182168D01*
X449072Y-186080D01*
X443738Y-191211D01*
X439470Y-197256D01*
X437438Y-202082D01*
X435457Y-205079D01*
X432562Y-207162D01*
X429107Y-208178D01*
X425551Y-207873D01*
X419557Y-206349D01*
X412140Y-205994D01*
X404825Y-207111D01*
X397865Y-209651D01*
X391566Y-213614D01*
X386232Y-218694D01*
X381965Y-224790D01*
X379069Y-231597D01*
X377545Y-238861D01*
X377748Y-250444D01*
X376631Y-253796D01*
X374345Y-256590D01*
X371246Y-258419D01*
X367893Y-259638D01*
X361594Y-263601D01*
X356209Y-268681D01*
X351993Y-274777D01*
X349046Y-281584D01*
X347573Y-288848D01*
X347573Y-296265D01*
X349046Y-303530D01*
X351993Y-310337D01*
X356209Y-316433D01*
X361594Y-321513D01*
X367893Y-325475D01*
X374853Y-328015D01*
X382168Y-329133D01*
X389585Y-328777D01*
X396748Y-326898D01*
X403402Y-323646D01*
X409295Y-319125D01*
X414121Y-313486D01*
X417677Y-306984D01*
X419912Y-299923D01*
X420674Y-292557D01*
X420166Y-287477D01*
X420624Y-283464D01*
X422605Y-279857D01*
X425805Y-277368D01*
X433425Y-273659D01*
X439267Y-269138D01*
X444093Y-263499D01*
X449834Y-252984D01*
X453085Y-250494D01*
X457047Y-249428D01*
X462330Y-250545D01*
X469646Y-251663D01*
X477062Y-251307D01*
X484276Y-249428D01*
X490423Y-246379D01*
X494385Y-245364D01*
X498449Y-245973D01*
X501904Y-248158D01*
X504240Y-251510D01*
X506984Y-257860D01*
X510590Y-262991D01*
X512165Y-266750D01*
X512165Y-270865D01*
X510590Y-274624D01*
X506984Y-279755D01*
X504037Y-286613D01*
X502564Y-293878D01*
X502564Y-301244D01*
X504037Y-308508D01*
X506984Y-315366D01*
X511200Y-321411D01*
X516585Y-326542D01*
X522884Y-330454D01*
X529844Y-333044D01*
G37*
G36*
X894638Y-329133D02*
G01*
X902055Y-328777D01*
X909269Y-326898D01*
X915924Y-323646D01*
X921766Y-319125D01*
X926592Y-313486D01*
X930198Y-306984D01*
X932434Y-299923D01*
X933145Y-292557D01*
X932434Y-285191D01*
X930198Y-278130D01*
X926592Y-271627D01*
X921766Y-265988D01*
X915924Y-261467D01*
X909269Y-258216D01*
X907440Y-257708D01*
X903478Y-255727D01*
X900785Y-252221D01*
X899820Y-247904D01*
X900785Y-243586D01*
X903478Y-240080D01*
X907440Y-238048D01*
X911758Y-236931D01*
X918413Y-233679D01*
X924255Y-229108D01*
X929081Y-223520D01*
X932687Y-217017D01*
X934923Y-209956D01*
X935634Y-202590D01*
X934923Y-195173D01*
X932687Y-188112D01*
X929081Y-181610D01*
X924255Y-176022D01*
X918413Y-171450D01*
X916279Y-170434D01*
X912774Y-167640D01*
X910844Y-163576D01*
X910844Y-159054D01*
X912774Y-154990D01*
X916279Y-152196D01*
X918413Y-151180D01*
X924255Y-146608D01*
X929081Y-141020D01*
X930097Y-139192D01*
X932738Y-136093D01*
X936447Y-134315D01*
X940511Y-134061D01*
X944321Y-135483D01*
X947318Y-138328D01*
X951230Y-143916D01*
X956564Y-149047D01*
X962863Y-152958D01*
X969822Y-155549D01*
X977137Y-156667D01*
X984554Y-156311D01*
X991768Y-154432D01*
X998423Y-151180D01*
X1004265Y-146608D01*
X1009091Y-141020D01*
X1012698Y-134518D01*
X1014933Y-127457D01*
X1015644Y-120091D01*
X1014933Y-112674D01*
X1012698Y-105613D01*
X1009091Y-99110D01*
X1004316Y-93522D01*
X997203Y-88138D01*
X994664Y-85394D01*
X993343Y-81940D01*
X993343Y-78181D01*
X994664Y-74726D01*
X997203Y-71983D01*
X1004316Y-66598D01*
X1009091Y-61010D01*
X1012698Y-54508D01*
X1014933Y-47447D01*
X1015644Y-40081D01*
X1014933Y-32664D01*
X1012698Y-25603D01*
X1009091Y-19100D01*
X1004316Y-13512D01*
X997203Y-8178D01*
X994714Y-5384D01*
X993343Y-1930D01*
X993343Y1778D01*
X994714Y5283D01*
X997203Y8026D01*
X1004316Y13411D01*
X1009091Y18999D01*
X1012698Y25501D01*
X1014933Y32562D01*
X1015644Y39928D01*
X1014933Y47294D01*
X1012698Y54356D01*
X1009091Y60858D01*
X1004316Y66446D01*
X997203Y71831D01*
X994664Y74574D01*
X993343Y78079D01*
X993343Y81788D01*
X994664Y85293D01*
X997203Y88036D01*
X1004316Y93421D01*
X1009091Y99009D01*
X1012698Y105511D01*
X1014933Y112572D01*
X1015644Y119938D01*
X1015136Y125069D01*
X1015542Y129082D01*
X1017473Y132638D01*
X1020673Y135128D01*
X1031748Y138074D01*
X1038402Y141325D01*
X1044295Y145897D01*
X1049121Y151485D01*
X1052677Y157988D01*
X1054912Y165049D01*
X1055674Y172415D01*
X1054912Y179832D01*
X1052677Y186893D01*
X1049121Y193395D01*
X1043787Y199542D01*
X1041958Y202641D01*
X1041349Y206197D01*
X1041958Y209702D01*
X1043787Y212801D01*
X1049121Y218998D01*
X1052677Y225501D01*
X1054912Y232562D01*
X1055674Y239928D01*
X1054912Y247294D01*
X1052677Y254355D01*
X1049121Y260858D01*
X1044295Y266496D01*
X1038402Y271018D01*
X1031748Y274269D01*
X1024585Y276148D01*
X1017168Y276504D01*
X1009853Y275386D01*
X1002893Y272846D01*
X996594Y268884D01*
X991209Y263804D01*
X986993Y257708D01*
X984046Y250901D01*
X982573Y243636D01*
X982573Y236220D01*
X984046Y228955D01*
X986993Y222148D01*
X991209Y216052D01*
X993851Y213563D01*
X996187Y210210D01*
X997000Y206197D01*
X996187Y202184D01*
X993851Y198831D01*
X991209Y196291D01*
X986993Y190246D01*
X984046Y183388D01*
X982573Y176123D01*
X982675Y164084D01*
X981049Y160324D01*
X978103Y157530D01*
X974242Y156108D01*
X969822Y155397D01*
X962863Y152857D01*
X956564Y148894D01*
X951230Y143814D01*
X946962Y137718D01*
X944067Y130911D01*
X942543Y123647D01*
X942543Y116230D01*
X944067Y108966D01*
X946962Y102158D01*
X951230Y96062D01*
X956564Y90982D01*
X960424Y88544D01*
X963421Y85750D01*
X964996Y81991D01*
X964996Y77876D01*
X963421Y74117D01*
X960424Y71323D01*
X956564Y68884D01*
X951230Y63804D01*
X947318Y58166D01*
X944321Y55372D01*
X940511Y53949D01*
X936447Y54152D01*
X932738Y55981D01*
X930097Y59080D01*
X929081Y60858D01*
X924255Y66497D01*
X918413Y71018D01*
X911758Y74269D01*
X904544Y76149D01*
X897128Y76504D01*
X889812Y75387D01*
X882853Y72847D01*
X876553Y68884D01*
X871219Y63804D01*
X866952Y57708D01*
X864057Y50901D01*
X862533Y43637D01*
X862533Y36220D01*
X864057Y28956D01*
X866952Y22148D01*
X871219Y16052D01*
X876553Y10972D01*
X880414Y8534D01*
X883361Y5740D01*
X884986Y1981D01*
X884986Y-2133D01*
X883361Y-5892D01*
X880414Y-8686D01*
X876553Y-11074D01*
X871219Y-16205D01*
X866952Y-22250D01*
X864057Y-29108D01*
X862533Y-36372D01*
X862533Y-43738D01*
X864057Y-51003D01*
X866952Y-57861D01*
X871219Y-63906D01*
X876553Y-69037D01*
X880414Y-71424D01*
X883412Y-74269D01*
X884986Y-78028D01*
X884986Y-82092D01*
X883412Y-85852D01*
X880414Y-88696D01*
X876553Y-91084D01*
X871219Y-96215D01*
X867308Y-101803D01*
X864362Y-104597D01*
X860501Y-106019D01*
X856437Y-105816D01*
X852728Y-104038D01*
X850087Y-100888D01*
X849121Y-99110D01*
X844296Y-93522D01*
X838403Y-88950D01*
X831748Y-85699D01*
X824585Y-83820D01*
X817168Y-83464D01*
X809853Y-84582D01*
X802894Y-87172D01*
X796594Y-91084D01*
X791210Y-96215D01*
X786993Y-102260D01*
X784047Y-109118D01*
X782574Y-116382D01*
X782574Y-123748D01*
X784047Y-131013D01*
X786993Y-137871D01*
X791210Y-143916D01*
X796594Y-149047D01*
X802894Y-152958D01*
X809853Y-155549D01*
X817168Y-156667D01*
X824585Y-156311D01*
X831748Y-154432D01*
X838403Y-151180D01*
X844296Y-146608D01*
X849121Y-141020D01*
X850087Y-139242D01*
X852728Y-136093D01*
X856437Y-134315D01*
X860501Y-134112D01*
X864362Y-135534D01*
X867308Y-138328D01*
X871219Y-143916D01*
X876553Y-149047D01*
X882446Y-152704D01*
X885393Y-155498D01*
X887018Y-159258D01*
X887018Y-163372D01*
X885393Y-167132D01*
X882446Y-169926D01*
X876553Y-173583D01*
X871219Y-178714D01*
X866952Y-184759D01*
X864057Y-191617D01*
X862533Y-198882D01*
X862533Y-201777D01*
X861923Y-205333D01*
X860094Y-208381D01*
X857300Y-210667D01*
X852322Y-212090D01*
X845362Y-214629D01*
X839063Y-218592D01*
X833729Y-223672D01*
X829462Y-229768D01*
X826566Y-236575D01*
X825042Y-243840D01*
X825042Y-251256D01*
X826566Y-258521D01*
X829462Y-265328D01*
X833729Y-271424D01*
X839063Y-276504D01*
X845362Y-280466D01*
X853389Y-283413D01*
X856894Y-285546D01*
X859231Y-288899D01*
X860044Y-292912D01*
X860044Y-296265D01*
X861568Y-303530D01*
X864463Y-310337D01*
X868730Y-316433D01*
X874064Y-321513D01*
X880364Y-325475D01*
X887323Y-328015D01*
G37*
G36*
X142138Y-306628D02*
G01*
X149555Y-306273D01*
X156768Y-304393D01*
X163423Y-301142D01*
X169265Y-296621D01*
X174091Y-290982D01*
X177698Y-284480D01*
X179933Y-277418D01*
X180644Y-270052D01*
X179933Y-262686D01*
X177698Y-255625D01*
X174091Y-249123D01*
X169265Y-243484D01*
X163423Y-238963D01*
X156768Y-235712D01*
X149555Y-233832D01*
X142138Y-233476D01*
X134823Y-234594D01*
X132029Y-235610D01*
X127965Y-236220D01*
X124002Y-235204D01*
X120802Y-232714D01*
X118821Y-229108D01*
X117703Y-225602D01*
X114096Y-219100D01*
X109270Y-213512D01*
X103428Y-208940D01*
X96774Y-205689D01*
X89560Y-203809D01*
X82143Y-203454D01*
X74828Y-204571D01*
X67868Y-207162D01*
X61569Y-211074D01*
X56235Y-216204D01*
X51968Y-222250D01*
X49072Y-229108D01*
X47548Y-236372D01*
X47548Y-243738D01*
X49072Y-251002D01*
X51968Y-257860D01*
X56235Y-263906D01*
X61569Y-269036D01*
X67868Y-272948D01*
X74828Y-275539D01*
X82143Y-276656D01*
X89560Y-276301D01*
X96824Y-274421D01*
X100380Y-274116D01*
X103835Y-275132D01*
X106730Y-277215D01*
X108712Y-280212D01*
X111963Y-287832D01*
X116230Y-293928D01*
X121564Y-299008D01*
X127863Y-302971D01*
X134823Y-305511D01*
G37*
G36*
X1472133Y-304139D02*
G01*
X1479550Y-303784D01*
X1486763Y-301904D01*
X1493418Y-298653D01*
X1499260Y-294132D01*
X1504086Y-288493D01*
X1507693Y-281990D01*
X1509928Y-274929D01*
X1510639Y-267563D01*
X1509928Y-260197D01*
X1507693Y-253136D01*
X1503578Y-245719D01*
X1502613Y-243332D01*
X1502308Y-239318D01*
X1502613Y-236778D01*
X1503578Y-234391D01*
X1507693Y-227025D01*
X1509928Y-219964D01*
X1510639Y-212598D01*
X1509928Y-205181D01*
X1507693Y-198120D01*
X1504086Y-191617D01*
X1499260Y-186029D01*
X1493418Y-181457D01*
X1486763Y-178206D01*
X1479550Y-176326D01*
X1472133Y-175971D01*
X1464818Y-177088D01*
X1457858Y-179679D01*
X1451559Y-183591D01*
X1446225Y-188722D01*
X1441958Y-194767D01*
X1439062Y-201625D01*
X1437538Y-208889D01*
X1437538Y-216255D01*
X1439062Y-223520D01*
X1441958Y-230378D01*
X1444701Y-234238D01*
X1446326Y-237998D01*
X1446326Y-242112D01*
X1444701Y-245871D01*
X1441958Y-249783D01*
X1439062Y-256590D01*
X1437538Y-263855D01*
X1437538Y-271272D01*
X1439062Y-278536D01*
X1441958Y-285343D01*
X1446225Y-291439D01*
X1451559Y-296519D01*
X1457858Y-300482D01*
X1464818Y-303022D01*
G37*
G36*
X1072134Y-299161D02*
G01*
X1079550Y-298805D01*
X1086764Y-296926D01*
X1093419Y-293674D01*
X1099261Y-289102D01*
X1104087Y-283514D01*
X1107694Y-277012D01*
X1109929Y-269951D01*
X1110640Y-262585D01*
X1109929Y-255168D01*
X1107694Y-248107D01*
X1104087Y-241604D01*
X1099261Y-236016D01*
X1093419Y-231444D01*
X1086764Y-228193D01*
X1079550Y-226314D01*
X1072134Y-225958D01*
X1064818Y-227075D01*
X1057859Y-229666D01*
X1053642Y-232308D01*
X1049375Y-233781D01*
X1044956Y-233273D01*
X1041095Y-230886D01*
X1038707Y-227126D01*
X1037437Y-215188D01*
X1035202Y-208127D01*
X1031595Y-201625D01*
X1026769Y-195986D01*
X1020927Y-191465D01*
X1014272Y-188214D01*
X1007059Y-186334D01*
X999642Y-185978D01*
X992327Y-187096D01*
X985367Y-189636D01*
X979068Y-193598D01*
X973734Y-198678D01*
X969467Y-204774D01*
X966571Y-211582D01*
X965047Y-218846D01*
X965047Y-226263D01*
X966571Y-233527D01*
X969467Y-240334D01*
X973734Y-246430D01*
X979068Y-251510D01*
X985367Y-255473D01*
X992327Y-258013D01*
X999642Y-259130D01*
X1007059Y-258775D01*
X1014272Y-256895D01*
X1025245Y-251561D01*
X1029766Y-251612D01*
X1033780Y-253593D01*
X1036574Y-257098D01*
X1037539Y-261467D01*
X1037539Y-266242D01*
X1039063Y-273507D01*
X1041958Y-280365D01*
X1046226Y-286410D01*
X1051560Y-291541D01*
X1057859Y-295452D01*
X1064818Y-298043D01*
G37*
G36*
X1962150Y-246634D02*
G01*
X1969566Y-246278D01*
X1976729Y-244398D01*
X1983384Y-241147D01*
X1989277Y-236626D01*
X1994103Y-230987D01*
X1997659Y-224485D01*
X1999894Y-217424D01*
X2000656Y-210058D01*
X1999894Y-202692D01*
X1997659Y-195630D01*
X1994103Y-189128D01*
X1989277Y-183489D01*
X1983384Y-178968D01*
X1976729Y-175717D01*
X1969566Y-173837D01*
X1962150Y-173482D01*
X1954834Y-174599D01*
X1947875Y-177139D01*
X1941575Y-181102D01*
X1936191Y-186182D01*
X1931974Y-192278D01*
X1929028Y-199085D01*
X1927555Y-206349D01*
X1927555Y-213766D01*
X1929028Y-221030D01*
X1931974Y-227838D01*
X1936191Y-233934D01*
X1941575Y-239014D01*
X1947875Y-242976D01*
X1954834Y-245516D01*
G37*
G36*
X2496515Y-190703D02*
G01*
X2504440Y-189941D01*
X2512060Y-187604D01*
X2519070Y-183845D01*
X2525217Y-178816D01*
X2530297Y-172669D01*
X2534056Y-165608D01*
X2536342Y-157988D01*
X2537155Y-150063D01*
X2536342Y-142138D01*
X2534056Y-134518D01*
X2530297Y-127457D01*
X2525217Y-121310D01*
X2519070Y-116281D01*
X2512060Y-112522D01*
X2504440Y-110185D01*
X2496515Y-109423D01*
X2488539Y-110185D01*
X2480919Y-112522D01*
X2473909Y-116281D01*
X2467762Y-121310D01*
X2462682Y-127457D01*
X2458923Y-134518D01*
X2456637Y-142138D01*
X2455824Y-150063D01*
X2456637Y-157988D01*
X2458923Y-165608D01*
X2462682Y-172669D01*
X2467762Y-178816D01*
X2473909Y-183845D01*
X2480919Y-187604D01*
X2488539Y-189941D01*
G37*
G36*
X2294636Y-156616D02*
G01*
X2302052Y-156260D01*
X2309215Y-154381D01*
X2315870Y-151130D01*
X2321763Y-146608D01*
X2326589Y-140970D01*
X2330145Y-134467D01*
X2332380Y-127406D01*
X2333142Y-119938D01*
X2334361Y-116027D01*
X2337054Y-112928D01*
X2340711Y-111099D01*
X2344775Y-110896D01*
X2349652Y-111658D01*
X2357069Y-111302D01*
X2364232Y-109423D01*
X2370886Y-106172D01*
X2376779Y-101600D01*
X2381605Y-96012D01*
X2385161Y-89509D01*
X2387396Y-82448D01*
X2388158Y-75082D01*
X2387396Y-67665D01*
X2385161Y-60604D01*
X2381605Y-54102D01*
X2376779Y-48514D01*
X2370886Y-43942D01*
X2364232Y-40690D01*
X2357069Y-38811D01*
X2349652Y-38455D01*
X2342337Y-39573D01*
X2335377Y-42164D01*
X2329078Y-46075D01*
X2323693Y-51206D01*
X2319477Y-57251D01*
X2316530Y-64109D01*
X2315057Y-71374D01*
X2315057Y-74066D01*
X2314397Y-77673D01*
X2312466Y-80822D01*
X2309571Y-83108D01*
X2306015Y-84175D01*
X2294636Y-83464D01*
X2287320Y-84582D01*
X2280361Y-87122D01*
X2274062Y-91084D01*
X2268677Y-96164D01*
X2264460Y-102260D01*
X2261514Y-109067D01*
X2260041Y-116332D01*
X2260041Y-123748D01*
X2261514Y-131013D01*
X2264460Y-137820D01*
X2268677Y-143916D01*
X2274062Y-148996D01*
X2280361Y-152958D01*
X2287320Y-155498D01*
G37*
G36*
X417169Y-156514D02*
G01*
X424586Y-156159D01*
X431800Y-154279D01*
X438454Y-151028D01*
X444296Y-146507D01*
X449122Y-140868D01*
X452729Y-134366D01*
X454964Y-127304D01*
X455676Y-119938D01*
X454964Y-112572D01*
X452729Y-105511D01*
X449122Y-99009D01*
X444296Y-93370D01*
X438454Y-88849D01*
X431800Y-85598D01*
X424586Y-83718D01*
X417169Y-83362D01*
X409854Y-84480D01*
X402894Y-87020D01*
X396595Y-90982D01*
X391261Y-96062D01*
X386994Y-102158D01*
X384098Y-108966D01*
X382574Y-116230D01*
X382574Y-123647D01*
X384098Y-130911D01*
X386994Y-137718D01*
X391261Y-143814D01*
X396595Y-148894D01*
X402894Y-152857D01*
X409854Y-155397D01*
G37*
G36*
X-372110Y-93167D02*
G01*
X-364388Y-92760D01*
X-356920Y-90830D01*
X-349961Y-87426D01*
X-343865Y-82702D01*
X-338836Y-76860D01*
X-335076Y-70104D01*
X-332790Y-62738D01*
X-332028Y-55067D01*
X-332790Y-47396D01*
X-335076Y-40030D01*
X-338836Y-33274D01*
X-343865Y-27432D01*
X-349961Y-22707D01*
X-356920Y-19304D01*
X-364388Y-17373D01*
X-372110Y-16967D01*
X-379730Y-18135D01*
X-386943Y-20828D01*
X-393496Y-24892D01*
X-399084Y-30226D01*
X-403504Y-36576D01*
X-406552Y-43637D01*
X-408127Y-51206D01*
X-408127Y-58928D01*
X-406552Y-66497D01*
X-403504Y-73558D01*
X-399084Y-79908D01*
X-393496Y-85242D01*
X-386943Y-89306D01*
X-379730Y-91998D01*
G37*
G36*
X1664614Y-79146D02*
G01*
X1672031Y-78790D01*
X1679244Y-76911D01*
X1685899Y-73660D01*
X1691741Y-69088D01*
X1696567Y-63500D01*
X1700174Y-56946D01*
X1703171Y-53593D01*
X1707337Y-51866D01*
X1711807Y-52120D01*
X1715770Y-54254D01*
X1718411Y-57861D01*
X1719478Y-60350D01*
X1723694Y-66395D01*
X1729079Y-71526D01*
X1735378Y-75438D01*
X1742338Y-78028D01*
X1749653Y-79146D01*
X1757070Y-78790D01*
X1764233Y-76911D01*
X1770888Y-73660D01*
X1776780Y-69088D01*
X1781606Y-63500D01*
X1785162Y-56997D01*
X1787398Y-49936D01*
X1788160Y-42570D01*
X1787398Y-35153D01*
X1785162Y-28092D01*
X1781606Y-21590D01*
X1776780Y-16002D01*
X1770888Y-11430D01*
X1764233Y-8178D01*
X1757070Y-6299D01*
X1754682Y-6197D01*
X1751177Y-5384D01*
X1748180Y-3403D01*
X1746046Y-508D01*
X1744878Y4826D01*
X1742643Y11887D01*
X1739087Y18389D01*
X1734261Y24028D01*
X1728368Y28549D01*
X1721713Y31800D01*
X1714550Y33680D01*
X1707134Y34036D01*
X1699818Y32918D01*
X1692859Y30378D01*
X1686560Y26416D01*
X1681175Y21336D01*
X1676958Y15240D01*
X1674012Y8432D01*
X1672691Y1981D01*
X1671066Y-1778D01*
X1668119Y-4572D01*
X1664309Y-5994D01*
X1657299Y-7061D01*
X1650339Y-9652D01*
X1644040Y-13563D01*
X1638706Y-18694D01*
X1634439Y-24739D01*
X1631543Y-31597D01*
X1630019Y-38862D01*
X1630019Y-46228D01*
X1631543Y-53492D01*
X1634439Y-60350D01*
X1638706Y-66395D01*
X1644040Y-71526D01*
X1650339Y-75438D01*
X1657299Y-78028D01*
G37*
G36*
X337159Y-76657D02*
G01*
X344576Y-76301D01*
X351739Y-74422D01*
X358394Y-71170D01*
X364286Y-66598D01*
X369112Y-61010D01*
X372668Y-54508D01*
X374904Y-47447D01*
X375666Y-40081D01*
X374904Y-32664D01*
X372668Y-25603D01*
X369112Y-19100D01*
X364286Y-13512D01*
X358394Y-8940D01*
X351739Y-5689D01*
X344576Y-3810D01*
X337159Y-3454D01*
X329844Y-4572D01*
X322884Y-7162D01*
X316585Y-11074D01*
X311200Y-16205D01*
X306984Y-22250D01*
X304038Y-29108D01*
X302564Y-36372D01*
X302564Y-43738D01*
X304038Y-51003D01*
X306984Y-57861D01*
X311200Y-63906D01*
X316585Y-69037D01*
X322884Y-72948D01*
X329844Y-75539D01*
G37*
G36*
X1892147Y-66649D02*
G01*
X1899564Y-66294D01*
X1906727Y-64414D01*
X1913382Y-61163D01*
X1919274Y-56591D01*
X1924100Y-51003D01*
X1927656Y-44500D01*
X1929892Y-37439D01*
X1930654Y-30073D01*
X1930044Y-23876D01*
X1930450Y-19812D01*
X1932432Y-16256D01*
X1935632Y-13716D01*
X1940915Y-11176D01*
X1946757Y-6604D01*
X1951583Y-1016D01*
X1955190Y5486D01*
X1957425Y12547D01*
X1958136Y19913D01*
X1957425Y27330D01*
X1955190Y34391D01*
X1951583Y40894D01*
X1946757Y46482D01*
X1940915Y51054D01*
X1935632Y53593D01*
X1932432Y56134D01*
X1930450Y59690D01*
X1929993Y63754D01*
X1930654Y69951D01*
X1930044Y76098D01*
X1930450Y80213D01*
X1932432Y83769D01*
X1935632Y86258D01*
X1940915Y88849D01*
X1946757Y93370D01*
X1951583Y99009D01*
X1955190Y105511D01*
X1957425Y112572D01*
X1958136Y119938D01*
X1957425Y127304D01*
X1955190Y134366D01*
X1951583Y140868D01*
X1946757Y146507D01*
X1940915Y151028D01*
X1934260Y154279D01*
X1927047Y156159D01*
X1919630Y156514D01*
X1912315Y155397D01*
X1905355Y152857D01*
X1899056Y148894D01*
X1893722Y143814D01*
X1889455Y137718D01*
X1886559Y130911D01*
X1885035Y123647D01*
X1885035Y116230D01*
X1885442Y111252D01*
X1884273Y107848D01*
X1881987Y105054D01*
X1877872Y102870D01*
X1871573Y98907D01*
X1866188Y93827D01*
X1861972Y87731D01*
X1859025Y80924D01*
X1857552Y73660D01*
X1857552Y66243D01*
X1859025Y58978D01*
X1861972Y52171D01*
X1866188Y46075D01*
X1871573Y40995D01*
X1877872Y37033D01*
X1882038Y34848D01*
X1884273Y32054D01*
X1885442Y28651D01*
X1885035Y23622D01*
X1885035Y16256D01*
X1885442Y11226D01*
X1884273Y7823D01*
X1881987Y5080D01*
X1877872Y2844D01*
X1871573Y-1066D01*
X1866188Y-6197D01*
X1861972Y-12242D01*
X1859025Y-19100D01*
X1857552Y-26365D01*
X1857552Y-33731D01*
X1859025Y-40995D01*
X1861972Y-47853D01*
X1866188Y-53898D01*
X1871573Y-59029D01*
X1877872Y-62941D01*
X1884832Y-65532D01*
G37*
G36*
X-1879Y-36576D02*
G01*
X5537Y-36220D01*
X12750Y-34340D01*
X19405Y-31089D01*
X25247Y-26568D01*
X30073Y-20929D01*
X33680Y-14427D01*
X35915Y-7366D01*
X36626Y0D01*
X35915Y7366D01*
X33680Y14427D01*
X30073Y20929D01*
X25247Y26568D01*
X19405Y31089D01*
X12750Y34340D01*
X5537Y36220D01*
X-1879Y36576D01*
X-9194Y35458D01*
X-16154Y32918D01*
X-22453Y28956D01*
X-27787Y23876D01*
X-32054Y17780D01*
X-34950Y10972D01*
X-36474Y3708D01*
X-36474Y-3708D01*
X-34950Y-10972D01*
X-32054Y-17780D01*
X-27787Y-23876D01*
X-22453Y-28956D01*
X-16154Y-32918D01*
X-9194Y-35458D01*
G37*
G36*
X389636Y3352D02*
G01*
X397052Y3708D01*
X404266Y5588D01*
X410921Y8839D01*
X416763Y13411D01*
X421589Y18999D01*
X425196Y25501D01*
X427431Y32562D01*
X428142Y39928D01*
X427431Y47345D01*
X425196Y54406D01*
X421589Y60909D01*
X416763Y66497D01*
X410921Y71069D01*
X404266Y74320D01*
X397052Y76200D01*
X389636Y76555D01*
X382320Y75438D01*
X375361Y72847D01*
X369062Y68935D01*
X363728Y63804D01*
X359460Y57759D01*
X356565Y50901D01*
X355041Y43637D01*
X355041Y36271D01*
X356565Y29006D01*
X359460Y22148D01*
X363728Y16103D01*
X369062Y10972D01*
X375361Y7061D01*
X382320Y4470D01*
G37*
G36*
X257149Y3352D02*
G01*
X264566Y3708D01*
X271780Y5588D01*
X278434Y8839D01*
X284276Y13360D01*
X289102Y18999D01*
X292709Y25501D01*
X294944Y32562D01*
X295656Y39928D01*
X294944Y47294D01*
X292709Y54356D01*
X289102Y60858D01*
X284327Y66446D01*
X277215Y71831D01*
X274675Y74574D01*
X273354Y78079D01*
X273354Y81788D01*
X274675Y85293D01*
X277215Y88036D01*
X284327Y93421D01*
X289102Y99009D01*
X292709Y105511D01*
X294944Y112572D01*
X295656Y119938D01*
X294944Y127304D01*
X292709Y134366D01*
X289102Y140868D01*
X284327Y146456D01*
X277266Y151790D01*
X274777Y154584D01*
X273456Y158038D01*
X273456Y161747D01*
X274777Y165201D01*
X277266Y167995D01*
X284327Y173329D01*
X289102Y178917D01*
X292709Y185420D01*
X294944Y192481D01*
X295656Y199847D01*
X294944Y207213D01*
X292709Y214274D01*
X289102Y220776D01*
X284276Y226415D01*
X278434Y230936D01*
X271780Y234188D01*
X264566Y236067D01*
X257149Y236423D01*
X249834Y235305D01*
X242874Y232765D01*
X236575Y228803D01*
X231241Y223723D01*
X227329Y218084D01*
X224332Y215290D01*
X220522Y213867D01*
X216458Y214071D01*
X212750Y215900D01*
X210108Y218998D01*
X209092Y220776D01*
X204266Y226415D01*
X198424Y230936D01*
X191770Y234188D01*
X184556Y236067D01*
X177139Y236423D01*
X169824Y235305D01*
X162864Y232765D01*
X156565Y228803D01*
X151231Y223723D01*
X146964Y217627D01*
X144881Y212699D01*
X142544Y209346D01*
X140614Y208178D01*
X141732Y206552D01*
X142544Y202539D01*
X142544Y196138D01*
X144068Y188874D01*
X146964Y182067D01*
X151231Y175971D01*
X156565Y170891D01*
X160426Y168452D01*
X163423Y165658D01*
X164998Y161899D01*
X164998Y157784D01*
X163423Y154025D01*
X160426Y151231D01*
X156565Y148793D01*
X151231Y143713D01*
X146964Y137617D01*
X144068Y130810D01*
X142544Y123545D01*
X142544Y116128D01*
X144068Y108864D01*
X146964Y102057D01*
X151231Y95961D01*
X156565Y90881D01*
X162864Y86918D01*
X169824Y84378D01*
X177139Y83261D01*
X184556Y83616D01*
X191770Y85496D01*
X198424Y88747D01*
X204266Y93268D01*
X209092Y98907D01*
X210108Y100736D01*
X212801Y103885D01*
X216458Y105664D01*
X220573Y105867D01*
X224383Y104444D01*
X227329Y101650D01*
X231241Y96062D01*
X236575Y90982D01*
X240436Y88544D01*
X243433Y85750D01*
X245008Y81991D01*
X245008Y77876D01*
X243433Y74117D01*
X240436Y71323D01*
X236575Y68884D01*
X231241Y63804D01*
X226974Y57708D01*
X224078Y50901D01*
X222554Y43637D01*
X222554Y36220D01*
X224078Y28956D01*
X226974Y22148D01*
X231241Y16052D01*
X236575Y10972D01*
X242874Y7010D01*
X249834Y4470D01*
G37*
G36*
X474624Y45872D02*
G01*
X482041Y46228D01*
X489254Y48107D01*
X495909Y51358D01*
X501751Y55880D01*
X506577Y61518D01*
X510184Y68021D01*
X512419Y75082D01*
X513130Y82448D01*
X512419Y89814D01*
X510184Y96875D01*
X506577Y103378D01*
X501751Y109016D01*
X495909Y113537D01*
X492048Y115417D01*
X489102Y117652D01*
X487121Y120751D01*
X486359Y124358D01*
X486968Y127965D01*
X492709Y138023D01*
X494944Y145084D01*
X495655Y152450D01*
X494944Y159816D01*
X492709Y166878D01*
X489102Y173380D01*
X484276Y179019D01*
X478434Y183540D01*
X471779Y186791D01*
X464566Y188671D01*
X457149Y189026D01*
X449834Y187909D01*
X442874Y185369D01*
X436575Y181406D01*
X431241Y176326D01*
X426974Y170230D01*
X426313Y168656D01*
X423672Y164998D01*
X419709Y162864D01*
X415239Y162610D01*
X411073Y164338D01*
X408076Y167690D01*
X404926Y173380D01*
X400100Y179019D01*
X394258Y183540D01*
X387604Y186791D01*
X380390Y188671D01*
X372973Y189026D01*
X365658Y187909D01*
X358698Y185369D01*
X352399Y181406D01*
X347065Y176326D01*
X342798Y170230D01*
X339902Y163423D01*
X338378Y156159D01*
X338378Y148742D01*
X339902Y141478D01*
X342798Y134670D01*
X347065Y128574D01*
X352399Y123494D01*
X358698Y119532D01*
X365658Y116992D01*
X372973Y115874D01*
X380390Y116230D01*
X387604Y118110D01*
X394258Y121361D01*
X400100Y125882D01*
X404926Y131521D01*
X408076Y137210D01*
X411073Y140563D01*
X415239Y142290D01*
X419709Y142036D01*
X423672Y139903D01*
X426313Y136245D01*
X426974Y134670D01*
X431241Y128574D01*
X436575Y123494D01*
X444246Y118872D01*
X447293Y116027D01*
X448919Y112268D01*
X448970Y108153D01*
X447344Y104343D01*
X444449Y100228D01*
X441553Y93421D01*
X440029Y86156D01*
X440029Y78740D01*
X441553Y71475D01*
X444449Y64668D01*
X448716Y58572D01*
X454050Y53492D01*
X460349Y49530D01*
X467309Y46990D01*
G37*
G36*
X737158Y83362D02*
G01*
X744575Y83718D01*
X751738Y85598D01*
X758393Y88849D01*
X764286Y93370D01*
X769112Y99009D01*
X770077Y100787D01*
X772769Y103885D01*
X776427Y105714D01*
X780491Y105918D01*
X784352Y104495D01*
X787298Y101701D01*
X791210Y96062D01*
X796594Y90982D01*
X802894Y87020D01*
X809853Y84480D01*
X817168Y83362D01*
X824585Y83718D01*
X831748Y85598D01*
X838403Y88849D01*
X844296Y93370D01*
X849121Y99009D01*
X852678Y105511D01*
X854913Y112572D01*
X855675Y119938D01*
X854913Y127304D01*
X852678Y134366D01*
X849121Y140868D01*
X844296Y146456D01*
X837184Y151841D01*
X834694Y154584D01*
X833323Y158089D01*
X833323Y161798D01*
X834694Y165252D01*
X837184Y168046D01*
X844296Y173380D01*
X849071Y178968D01*
X850087Y180797D01*
X852728Y183896D01*
X856437Y185674D01*
X860501Y185928D01*
X864311Y184505D01*
X867308Y181660D01*
X871219Y176072D01*
X876553Y170942D01*
X882853Y167030D01*
X889812Y164439D01*
X897128Y163322D01*
X904544Y163677D01*
X911758Y165557D01*
X918413Y168808D01*
X924255Y173380D01*
X929081Y178968D01*
X932687Y185470D01*
X934923Y192532D01*
X935634Y199898D01*
X934923Y207314D01*
X932687Y214375D01*
X929081Y220878D01*
X924306Y226466D01*
X917194Y231851D01*
X914653Y234594D01*
X913333Y238048D01*
X913333Y241808D01*
X914653Y245262D01*
X917194Y248005D01*
X924306Y253390D01*
X929081Y258978D01*
X932687Y265480D01*
X934923Y272542D01*
X935634Y279908D01*
X934923Y287324D01*
X932687Y294386D01*
X929081Y300888D01*
X924255Y306476D01*
X918413Y311048D01*
X911758Y314299D01*
X904544Y316179D01*
X897128Y316534D01*
X889812Y315417D01*
X882853Y312826D01*
X876553Y308914D01*
X871219Y303784D01*
X867308Y298196D01*
X864362Y295402D01*
X860501Y293979D01*
X856437Y294182D01*
X852728Y295960D01*
X850087Y299110D01*
X849121Y300888D01*
X844296Y306476D01*
X838403Y311048D01*
X831748Y314299D01*
X824585Y316179D01*
X817168Y316534D01*
X809853Y315417D01*
X802894Y312826D01*
X796594Y308914D01*
X791210Y303784D01*
X787298Y298196D01*
X784352Y295351D01*
X780491Y293928D01*
X776427Y294182D01*
X772769Y295960D01*
X770077Y299059D01*
X769112Y300888D01*
X764286Y306476D01*
X758393Y311048D01*
X751738Y314299D01*
X744575Y316179D01*
X737158Y316534D01*
X729843Y315417D01*
X722884Y312826D01*
X716584Y308914D01*
X711200Y303784D01*
X706983Y297738D01*
X704037Y290880D01*
X702564Y283616D01*
X702564Y276250D01*
X704037Y268986D01*
X706983Y262128D01*
X711200Y256082D01*
X716584Y250952D01*
X720445Y248564D01*
X723392Y245719D01*
X725017Y241960D01*
X725017Y237896D01*
X723392Y234137D01*
X720445Y231292D01*
X716584Y228904D01*
X711200Y223774D01*
X706983Y217728D01*
X704037Y210870D01*
X702564Y203606D01*
X702564Y196240D01*
X704037Y188976D01*
X706983Y182118D01*
X711200Y176072D01*
X716584Y170942D01*
X720394Y168554D01*
X723392Y165760D01*
X725017Y162001D01*
X725017Y157886D01*
X723392Y154127D01*
X720394Y151333D01*
X716584Y148894D01*
X711200Y143814D01*
X706983Y137718D01*
X704037Y130911D01*
X702564Y123647D01*
X702564Y116230D01*
X704037Y108966D01*
X706983Y102158D01*
X711200Y96062D01*
X716584Y90982D01*
X722884Y87020D01*
X729843Y84480D01*
G37*
G36*
X569671Y90830D02*
G01*
X577088Y91186D01*
X584250Y93065D01*
X590905Y96316D01*
X596798Y100888D01*
X601624Y106476D01*
X605180Y112979D01*
X607415Y120040D01*
X608177Y127406D01*
X607415Y134823D01*
X605180Y141884D01*
X601624Y148386D01*
X596696Y154076D01*
X594715Y157632D01*
X594309Y161696D01*
X595528Y165608D01*
X598220Y168706D01*
X604418Y173482D01*
X609244Y179120D01*
X612800Y185623D01*
X615035Y192684D01*
X615797Y200050D01*
X615035Y207416D01*
X612800Y214477D01*
X609244Y220979D01*
X604418Y226618D01*
X598525Y231140D01*
X591870Y234391D01*
X584708Y236270D01*
X577291Y236626D01*
X569976Y235508D01*
X563016Y232968D01*
X556717Y229006D01*
X551332Y223926D01*
X547116Y217830D01*
X544169Y211023D01*
X542696Y203758D01*
X542696Y196342D01*
X544169Y189077D01*
X547116Y182270D01*
X551332Y176174D01*
X553516Y174142D01*
X555650Y171145D01*
X556615Y167589D01*
X556260Y163931D01*
X554583Y160629D01*
X551891Y158140D01*
X549097Y156413D01*
X543712Y151282D01*
X539496Y145237D01*
X536549Y138379D01*
X535076Y131114D01*
X535076Y123748D01*
X536549Y116484D01*
X539496Y109626D01*
X543712Y103581D01*
X549097Y98450D01*
X555396Y94538D01*
X562356Y91948D01*
G37*
G36*
X1747164Y120853D02*
G01*
X1754581Y121208D01*
X1761743Y123088D01*
X1768398Y126339D01*
X1774291Y130860D01*
X1779117Y136499D01*
X1782673Y143002D01*
X1784908Y150063D01*
X1785670Y157429D01*
X1784908Y164795D01*
X1782673Y171856D01*
X1779117Y178358D01*
X1774291Y183997D01*
X1768398Y188518D01*
X1761743Y191770D01*
X1754581Y193649D01*
X1747164Y194005D01*
X1739849Y192887D01*
X1734769Y191008D01*
X1730756Y190398D01*
X1726793Y191414D01*
X1723542Y193903D01*
X1717802Y204216D01*
X1712772Y210108D01*
X1706676Y214833D01*
X1699768Y218236D01*
X1692300Y220167D01*
X1684578Y220522D01*
X1676958Y219354D01*
X1669694Y216712D01*
X1663141Y212598D01*
X1657553Y207314D01*
X1653133Y200964D01*
X1650136Y193852D01*
X1648561Y186283D01*
X1648561Y178612D01*
X1650136Y171043D01*
X1653133Y163931D01*
X1657553Y157581D01*
X1663141Y152298D01*
X1669694Y148183D01*
X1676958Y145542D01*
X1684578Y144373D01*
X1692300Y144729D01*
X1699768Y146659D01*
X1701901Y147726D01*
X1705864Y148742D01*
X1709877Y148132D01*
X1713382Y145948D01*
X1715719Y142595D01*
X1716989Y139649D01*
X1721205Y133553D01*
X1726590Y128473D01*
X1732889Y124510D01*
X1739849Y121970D01*
G37*
G36*
X87122Y183337D02*
G01*
X94538Y183692D01*
X101752Y185572D01*
X108407Y188823D01*
X114249Y193395D01*
X119075Y198983D01*
X124714Y209143D01*
X127254Y211124D01*
X125831Y213664D01*
X125425Y217728D01*
X125628Y219913D01*
X124917Y227329D01*
X122682Y234391D01*
X119075Y240893D01*
X114249Y246481D01*
X108407Y251053D01*
X101752Y254304D01*
X94538Y256184D01*
X87122Y256540D01*
X79806Y255422D01*
X72847Y252831D01*
X66548Y248920D01*
X61214Y243789D01*
X56946Y237744D01*
X54051Y230886D01*
X52527Y223621D01*
X52527Y216255D01*
X54051Y208991D01*
X56946Y202133D01*
X61214Y196088D01*
X66548Y190957D01*
X72847Y187045D01*
X79806Y184454D01*
G37*
G36*
X1854657Y210870D02*
G01*
X1862074Y211226D01*
X1869236Y213106D01*
X1875891Y216357D01*
X1881784Y220878D01*
X1886610Y226517D01*
X1890166Y233019D01*
X1892401Y240080D01*
X1893214Y248005D01*
X1894230Y251510D01*
X1896465Y254457D01*
X1899615Y256438D01*
X1903222Y257149D01*
X1906828Y256489D01*
X1912315Y254457D01*
X1919630Y253339D01*
X1927047Y253695D01*
X1934260Y255574D01*
X1940915Y258825D01*
X1946757Y263398D01*
X1951583Y268986D01*
X1955190Y275488D01*
X1957425Y282549D01*
X1958136Y289915D01*
X1957425Y297332D01*
X1955190Y304393D01*
X1951583Y310896D01*
X1946757Y316484D01*
X1940814Y321106D01*
X1935225Y324002D01*
X1932076Y326491D01*
X1930196Y330047D01*
X1929790Y334060D01*
X1930654Y342442D01*
X1929892Y349808D01*
X1927656Y356870D01*
X1924100Y363372D01*
X1919274Y369011D01*
X1913382Y373532D01*
X1906727Y376783D01*
X1899564Y378663D01*
X1892147Y379018D01*
X1884832Y377901D01*
X1877872Y375361D01*
X1871573Y371398D01*
X1866188Y366318D01*
X1861972Y360222D01*
X1859025Y353415D01*
X1857552Y346151D01*
X1857552Y338734D01*
X1859025Y331470D01*
X1861972Y324662D01*
X1866188Y318566D01*
X1871573Y313486D01*
X1877872Y309524D01*
X1882495Y307136D01*
X1884730Y304393D01*
X1885899Y300990D01*
X1885848Y297383D01*
X1885035Y293624D01*
X1885035Y290372D01*
X1884222Y286359D01*
X1881886Y283006D01*
X1878431Y280822D01*
X1874367Y280212D01*
X1869236Y281787D01*
X1862074Y283667D01*
X1854657Y284022D01*
X1847342Y282905D01*
X1840382Y280365D01*
X1834083Y276402D01*
X1828698Y271322D01*
X1824482Y265226D01*
X1821535Y258419D01*
X1820062Y251155D01*
X1820062Y243738D01*
X1821535Y236474D01*
X1824482Y229666D01*
X1828698Y223570D01*
X1834083Y218490D01*
X1840382Y214528D01*
X1847342Y211988D01*
G37*
G36*
X1519631Y230835D02*
G01*
X1527048Y231190D01*
X1534261Y233070D01*
X1540916Y236321D01*
X1546758Y240893D01*
X1551584Y246481D01*
X1555191Y252984D01*
X1557426Y260045D01*
X1558137Y267411D01*
X1557426Y274828D01*
X1555191Y281889D01*
X1551076Y289255D01*
X1550111Y291642D01*
X1549806Y295656D01*
X1550111Y298196D01*
X1551076Y300583D01*
X1555191Y308000D01*
X1557426Y315061D01*
X1558137Y322427D01*
X1557426Y329793D01*
X1555191Y336854D01*
X1551584Y343357D01*
X1546758Y348996D01*
X1542999Y351891D01*
X1540560Y354634D01*
X1539240Y358089D01*
X1539240Y361797D01*
X1540560Y365201D01*
X1542999Y367944D01*
X1546758Y370890D01*
X1551584Y376478D01*
X1555191Y382981D01*
X1557426Y390042D01*
X1558137Y397408D01*
X1557426Y404825D01*
X1555191Y411886D01*
X1551584Y418388D01*
X1546758Y423976D01*
X1540916Y428548D01*
X1534261Y431800D01*
X1527048Y433679D01*
X1519631Y434035D01*
X1515668Y435051D01*
X1512417Y437540D01*
X1506626Y448360D01*
X1501800Y453999D01*
X1495907Y458520D01*
X1489252Y461772D01*
X1482090Y463651D01*
X1474673Y464007D01*
X1467358Y462889D01*
X1460398Y460349D01*
X1454099Y456387D01*
X1448714Y451307D01*
X1444498Y445211D01*
X1442262Y440029D01*
X1439926Y436676D01*
X1436471Y434492D01*
X1432407Y433882D01*
X1429664Y434035D01*
X1422349Y432917D01*
X1415389Y430326D01*
X1409090Y426415D01*
X1403705Y421284D01*
X1399489Y415239D01*
X1396542Y408381D01*
X1395069Y401116D01*
X1395069Y393750D01*
X1396542Y386486D01*
X1399489Y379628D01*
X1403705Y373583D01*
X1409090Y368452D01*
X1410919Y367284D01*
X1413916Y364490D01*
X1415491Y360730D01*
X1415491Y356616D01*
X1413916Y352856D01*
X1410919Y350062D01*
X1409090Y348894D01*
X1403705Y343814D01*
X1399489Y337718D01*
X1396542Y330911D01*
X1395069Y323646D01*
X1395069Y316230D01*
X1396542Y308965D01*
X1399489Y302158D01*
X1403705Y296062D01*
X1409090Y290982D01*
X1415389Y287020D01*
X1422349Y284480D01*
X1429664Y283362D01*
X1437081Y283718D01*
X1444244Y285597D01*
X1450898Y288848D01*
X1456791Y293370D01*
X1461617Y299008D01*
X1465224Y305511D01*
X1467104Y311505D01*
X1469136Y315061D01*
X1472387Y317550D01*
X1476298Y318566D01*
X1480362Y317906D01*
X1483817Y315772D01*
X1486154Y312420D01*
X1489456Y304647D01*
X1492199Y300736D01*
X1493824Y296976D01*
X1493824Y292862D01*
X1492199Y289102D01*
X1489456Y285242D01*
X1486560Y278384D01*
X1485036Y271119D01*
X1485036Y263753D01*
X1486560Y256489D01*
X1489456Y249631D01*
X1493723Y243586D01*
X1499057Y238455D01*
X1505356Y234543D01*
X1512316Y231952D01*
G37*
G36*
X-91998Y343357D02*
G01*
X-84582Y343712D01*
X-77419Y345592D01*
X-70764Y348843D01*
X-64871Y353364D01*
X-60045Y359003D01*
X-56489Y365506D01*
X-54254Y372567D01*
X-53492Y379933D01*
X-54254Y387299D01*
X-56489Y394360D01*
X-60045Y400862D01*
X-64871Y406501D01*
X-70764Y411022D01*
X-77419Y414274D01*
X-84582Y416153D01*
X-91998Y416509D01*
X-99314Y415391D01*
X-106273Y412851D01*
X-112572Y408889D01*
X-117957Y403809D01*
X-122174Y397713D01*
X-125120Y390906D01*
X-126593Y383641D01*
X-126593Y376224D01*
X-125120Y368960D01*
X-122174Y362153D01*
X-117957Y356057D01*
X-112572Y350977D01*
X-106273Y347014D01*
X-99314Y344474D01*
G37*
G36*
X1832051Y436880D02*
G01*
X1839772Y437235D01*
X1847240Y439166D01*
X1854200Y442569D01*
X1860296Y447293D01*
X1865325Y453186D01*
X1869084Y459892D01*
X1871370Y467258D01*
X1872132Y474929D01*
X1871370Y482650D01*
X1869084Y490016D01*
X1865325Y496722D01*
X1860296Y502615D01*
X1854200Y507339D01*
X1847240Y510743D01*
X1839772Y512673D01*
X1832051Y513029D01*
X1824431Y511860D01*
X1817217Y509219D01*
X1810664Y505104D01*
X1805076Y499821D01*
X1800656Y493471D01*
X1797608Y486359D01*
X1796034Y478790D01*
X1796034Y471119D01*
X1797608Y463550D01*
X1800656Y456438D01*
X1805076Y450088D01*
X1810664Y444804D01*
X1817217Y440690D01*
X1824431Y438048D01*
G37*
G36*
X897128Y483362D02*
G01*
X904544Y483717D01*
X911758Y485597D01*
X918413Y488848D01*
X924255Y493369D01*
X929081Y499008D01*
X930097Y500786D01*
X932738Y503885D01*
X936447Y505714D01*
X940511Y505917D01*
X944321Y504494D01*
X947318Y501700D01*
X951230Y496062D01*
X956564Y490982D01*
X962863Y487019D01*
X969822Y484479D01*
X977137Y483362D01*
X984554Y483717D01*
X991768Y485597D01*
X998423Y488848D01*
X1004265Y493369D01*
X1009091Y499008D01*
X1012698Y505510D01*
X1014933Y512572D01*
X1015644Y519938D01*
X1014933Y527304D01*
X1012698Y534365D01*
X1009091Y540867D01*
X1004265Y546506D01*
X998880Y550672D01*
X996442Y553415D01*
X995121Y556818D01*
X995121Y560527D01*
X996442Y563981D01*
X998880Y566724D01*
X1004265Y570890D01*
X1009091Y576478D01*
X1012698Y582980D01*
X1014933Y590042D01*
X1015644Y597408D01*
X1014933Y604824D01*
X1012698Y611886D01*
X1009091Y618388D01*
X1004316Y623976D01*
X997203Y629361D01*
X994664Y632104D01*
X993343Y635558D01*
X993343Y639318D01*
X994664Y642772D01*
X997203Y645515D01*
X1004316Y650900D01*
X1009091Y656488D01*
X1012698Y662990D01*
X1014933Y670052D01*
X1015644Y677418D01*
X1014933Y684834D01*
X1012698Y691896D01*
X1009091Y698398D01*
X1004265Y703986D01*
X1000353Y707034D01*
X997508Y710488D01*
X996442Y714857D01*
X997356Y719226D01*
X1000048Y722833D01*
X1004062Y724865D01*
X1006754Y725576D01*
X1013409Y728827D01*
X1019251Y733399D01*
X1021181Y735634D01*
X1024432Y738124D01*
X1028395Y739140D01*
X1032408Y738530D01*
X1035862Y736396D01*
X1041552Y730961D01*
X1047851Y727049D01*
X1054811Y724458D01*
X1062126Y723341D01*
X1069543Y723696D01*
X1076756Y725576D01*
X1083411Y728827D01*
X1089253Y733399D01*
X1096772Y742035D01*
X1100429Y743762D01*
X1104493Y743915D01*
X1108252Y742492D01*
X1111199Y739698D01*
X1113739Y736092D01*
X1119073Y730961D01*
X1125372Y727049D01*
X1132332Y724458D01*
X1139647Y723341D01*
X1147064Y723696D01*
X1154277Y725576D01*
X1160932Y728827D01*
X1166774Y733399D01*
X1174292Y742035D01*
X1177950Y743762D01*
X1182014Y743915D01*
X1185773Y742442D01*
X1188720Y739648D01*
X1191209Y736092D01*
X1196594Y730961D01*
X1202893Y727049D01*
X1209852Y724458D01*
X1217168Y723341D01*
X1224584Y723696D01*
X1231747Y725576D01*
X1238402Y728827D01*
X1244295Y733399D01*
X1249121Y738987D01*
X1252677Y745490D01*
X1254912Y752551D01*
X1255674Y759917D01*
X1254912Y767334D01*
X1252677Y774395D01*
X1249121Y780897D01*
X1244295Y786485D01*
X1238402Y791057D01*
X1231747Y794308D01*
X1225397Y795934D01*
X1222146Y797458D01*
X1219606Y799998D01*
X1218082Y803249D01*
X1217828Y806805D01*
X1218133Y809955D01*
X1217422Y817321D01*
X1215186Y824382D01*
X1211580Y830884D01*
X1206754Y836523D01*
X1200912Y841044D01*
X1194257Y844296D01*
X1187043Y846175D01*
X1179626Y846531D01*
X1172311Y845413D01*
X1165352Y842873D01*
X1159052Y838911D01*
X1153718Y833831D01*
X1149451Y827735D01*
X1146556Y820928D01*
X1145032Y813663D01*
X1145032Y806094D01*
X1144422Y802538D01*
X1142593Y799490D01*
X1139799Y797204D01*
X1136446Y796036D01*
X1132332Y795426D01*
X1125372Y792835D01*
X1119073Y788924D01*
X1113739Y783793D01*
X1111199Y780186D01*
X1108252Y777392D01*
X1104493Y775970D01*
X1100429Y776122D01*
X1096772Y777849D01*
X1089253Y786485D01*
X1083411Y791057D01*
X1076756Y794308D01*
X1069543Y796188D01*
X1062126Y796544D01*
X1054811Y795426D01*
X1047851Y792835D01*
X1041552Y788924D01*
X1035862Y783488D01*
X1032408Y781354D01*
X1028395Y780745D01*
X1024432Y781761D01*
X1021181Y784250D01*
X1019251Y786485D01*
X1013409Y791057D01*
X1006754Y794308D01*
X999540Y796188D01*
X992124Y796544D01*
X984808Y795426D01*
X977849Y792835D01*
X971550Y788924D01*
X966216Y783793D01*
X961948Y777748D01*
X959053Y770890D01*
X957529Y763625D01*
X957529Y756259D01*
X959053Y748995D01*
X961948Y742137D01*
X966216Y736092D01*
X974750Y727811D01*
X976223Y723544D01*
X975766Y719124D01*
X973429Y715314D01*
X969670Y712876D01*
X962863Y710336D01*
X956564Y706424D01*
X951230Y701294D01*
X947318Y695706D01*
X944321Y692861D01*
X940511Y691438D01*
X936447Y691692D01*
X932738Y693470D01*
X930097Y696569D01*
X929081Y698398D01*
X924255Y703986D01*
X918413Y708558D01*
X911758Y711809D01*
X904544Y713689D01*
X897128Y714044D01*
X889812Y712927D01*
X882853Y710336D01*
X876553Y706424D01*
X871219Y701294D01*
X867308Y695706D01*
X864362Y692912D01*
X860501Y691489D01*
X856437Y691692D01*
X852728Y693470D01*
X850087Y696620D01*
X849121Y698398D01*
X844296Y703986D01*
X838403Y708558D01*
X831748Y711809D01*
X824585Y713689D01*
X817168Y714044D01*
X809853Y712927D01*
X802894Y710336D01*
X796594Y706424D01*
X791210Y701294D01*
X786993Y695248D01*
X784047Y688390D01*
X782574Y681126D01*
X782574Y673760D01*
X784047Y666496D01*
X786993Y659638D01*
X791210Y653592D01*
X796594Y648462D01*
X800455Y646074D01*
X803402Y643229D01*
X805027Y639470D01*
X805027Y635406D01*
X803402Y631647D01*
X800455Y628802D01*
X796594Y626414D01*
X791210Y621284D01*
X786993Y615238D01*
X784047Y608380D01*
X782574Y601116D01*
X782574Y593750D01*
X784047Y586486D01*
X786993Y579628D01*
X791210Y573582D01*
X796594Y568452D01*
X802894Y564540D01*
X809853Y561949D01*
X817168Y560832D01*
X824585Y561187D01*
X831748Y563067D01*
X838403Y566318D01*
X844296Y570890D01*
X849121Y576478D01*
X850087Y578256D01*
X852728Y581406D01*
X856437Y583184D01*
X860501Y583387D01*
X864362Y581964D01*
X867308Y579170D01*
X871219Y573582D01*
X876553Y568452D01*
X878433Y567283D01*
X881380Y564489D01*
X883005Y560730D01*
X883005Y556615D01*
X881380Y552856D01*
X878433Y550062D01*
X876553Y548894D01*
X871219Y543814D01*
X866952Y537718D01*
X864057Y530910D01*
X862533Y523646D01*
X862533Y516229D01*
X864057Y508965D01*
X866952Y502158D01*
X871219Y496062D01*
X876553Y490982D01*
X882853Y487019D01*
X889812Y484479D01*
G37*
G36*
X1897125Y538378D02*
G01*
X1904542Y538734D01*
X1911756Y540613D01*
X1918411Y543864D01*
X1924253Y548386D01*
X1929079Y554024D01*
X1932686Y560527D01*
X1934921Y567588D01*
X1935632Y574954D01*
X1934921Y582320D01*
X1932686Y589381D01*
X1929079Y595884D01*
X1924253Y601522D01*
X1918411Y606044D01*
X1911756Y609295D01*
X1904542Y611174D01*
X1897125Y611530D01*
X1889810Y610412D01*
X1882851Y607872D01*
X1876552Y603910D01*
X1871218Y598830D01*
X1866950Y592734D01*
X1864055Y585927D01*
X1862531Y578662D01*
X1862531Y571246D01*
X1864055Y563981D01*
X1866950Y557174D01*
X1871218Y551078D01*
X1876552Y545998D01*
X1882851Y542036D01*
X1889810Y539496D01*
G37*
G36*
X1474622Y608380D02*
G01*
X1482039Y608736D01*
X1489252Y610616D01*
X1495907Y613867D01*
X1501749Y618388D01*
X1506575Y624027D01*
X1510182Y630529D01*
X1512214Y636930D01*
X1513840Y640130D01*
X1516532Y642518D01*
X1519834Y643839D01*
X1523441Y643940D01*
X1527149Y643382D01*
X1534566Y643737D01*
X1541729Y645617D01*
X1548384Y648868D01*
X1554276Y653389D01*
X1559102Y659028D01*
X1562658Y665530D01*
X1564894Y672592D01*
X1565656Y679958D01*
X1564894Y687324D01*
X1562658Y694385D01*
X1559102Y700887D01*
X1554835Y705815D01*
X1553006Y708914D01*
X1552397Y712470D01*
X1553006Y715975D01*
X1554835Y719074D01*
X1559102Y724001D01*
X1562658Y730504D01*
X1564894Y737565D01*
X1565656Y744931D01*
X1564894Y752348D01*
X1562658Y759409D01*
X1558594Y766775D01*
X1557629Y769162D01*
X1557324Y773176D01*
X1557629Y775716D01*
X1558594Y778103D01*
X1562658Y785520D01*
X1564894Y792581D01*
X1565656Y799947D01*
X1564894Y807313D01*
X1562658Y814374D01*
X1559102Y820877D01*
X1554276Y826465D01*
X1547164Y831850D01*
X1544675Y834593D01*
X1543304Y838098D01*
X1543304Y841806D01*
X1544675Y845312D01*
X1547164Y848055D01*
X1554276Y853440D01*
X1559102Y859028D01*
X1562658Y865530D01*
X1564894Y872591D01*
X1565656Y879957D01*
X1564894Y887323D01*
X1562658Y894384D01*
X1559102Y900887D01*
X1554276Y906526D01*
X1548384Y911047D01*
X1541729Y914298D01*
X1534566Y916178D01*
X1527149Y916533D01*
X1519834Y915416D01*
X1512874Y912876D01*
X1506575Y908913D01*
X1501190Y903833D01*
X1496974Y897737D01*
X1494028Y890930D01*
X1492554Y883666D01*
X1492554Y876249D01*
X1494028Y868984D01*
X1496974Y862177D01*
X1501190Y856081D01*
X1506575Y851001D01*
X1510436Y848563D01*
X1513382Y845769D01*
X1515008Y842010D01*
X1515008Y837895D01*
X1513382Y834136D01*
X1510436Y831342D01*
X1506575Y828903D01*
X1501190Y823823D01*
X1496974Y817727D01*
X1494028Y810920D01*
X1492554Y803656D01*
X1492554Y796239D01*
X1494028Y788974D01*
X1496974Y782167D01*
X1499666Y778256D01*
X1501292Y774496D01*
X1501292Y770382D01*
X1499666Y766622D01*
X1496974Y762762D01*
X1494028Y755904D01*
X1492554Y748639D01*
X1492554Y741273D01*
X1494028Y734009D01*
X1496974Y727151D01*
X1501190Y721106D01*
X1502511Y719836D01*
X1504848Y716483D01*
X1505712Y712470D01*
X1504848Y708456D01*
X1502511Y705104D01*
X1501190Y703834D01*
X1496974Y697738D01*
X1493926Y690676D01*
X1491996Y685596D01*
X1489608Y683107D01*
X1486509Y681532D01*
X1483106Y681126D01*
X1474622Y681532D01*
X1467307Y680415D01*
X1460347Y677875D01*
X1454048Y673912D01*
X1448714Y668832D01*
X1444447Y662736D01*
X1441551Y655929D01*
X1440027Y648665D01*
X1440027Y641248D01*
X1441551Y633984D01*
X1444447Y627176D01*
X1448714Y621080D01*
X1454048Y616000D01*
X1460347Y612038D01*
X1467307Y609498D01*
G37*
G36*
X1384655Y643382D02*
G01*
X1392072Y643737D01*
X1399235Y645617D01*
X1405890Y648868D01*
X1411782Y653389D01*
X1416608Y659028D01*
X1420164Y665530D01*
X1422400Y672592D01*
X1423162Y679958D01*
X1422400Y687324D01*
X1420164Y694385D01*
X1416608Y700887D01*
X1411782Y706526D01*
X1405890Y711047D01*
X1399235Y714298D01*
X1392072Y716178D01*
X1384655Y716534D01*
X1377340Y715416D01*
X1370380Y712876D01*
X1364081Y708914D01*
X1358696Y703834D01*
X1354480Y697738D01*
X1351534Y690930D01*
X1350060Y683666D01*
X1350060Y676249D01*
X1351534Y668985D01*
X1354480Y662178D01*
X1358696Y656082D01*
X1364081Y651002D01*
X1370380Y647039D01*
X1377340Y644499D01*
G37*
G36*
X2491536Y646785D02*
G01*
X2499461Y647598D01*
X2507081Y649884D01*
X2514092Y653643D01*
X2520238Y658723D01*
X2525318Y664870D01*
X2529078Y671880D01*
X2531364Y679500D01*
X2532176Y687425D01*
X2531364Y695401D01*
X2529078Y703021D01*
X2525318Y710031D01*
X2520238Y716178D01*
X2514092Y721258D01*
X2507081Y725017D01*
X2499461Y727303D01*
X2491536Y728116D01*
X2483561Y727303D01*
X2475941Y725017D01*
X2468930Y721258D01*
X2462784Y716178D01*
X2457704Y710031D01*
X2453944Y703021D01*
X2451658Y695401D01*
X2450846Y687425D01*
X2451658Y679500D01*
X2453944Y671880D01*
X2457704Y664870D01*
X2462784Y658723D01*
X2468930Y653643D01*
X2475941Y649884D01*
X2483561Y647598D01*
G37*
G36*
X1777136Y650849D02*
G01*
X1784553Y651205D01*
X1791716Y653084D01*
X1798370Y656336D01*
X1804263Y660908D01*
X1809089Y666496D01*
X1812645Y672998D01*
X1814880Y680059D01*
X1815642Y687425D01*
X1814880Y694842D01*
X1812645Y701903D01*
X1809089Y708406D01*
X1804263Y713994D01*
X1798370Y718566D01*
X1791716Y721817D01*
X1784553Y723696D01*
X1777136Y724052D01*
X1769821Y722934D01*
X1762861Y720344D01*
X1756562Y716432D01*
X1751177Y711301D01*
X1746961Y705256D01*
X1744014Y698398D01*
X1742541Y691134D01*
X1742541Y683768D01*
X1744014Y676503D01*
X1746961Y669645D01*
X1751177Y663600D01*
X1756562Y658469D01*
X1762861Y654558D01*
X1769821Y651967D01*
G37*
G36*
X427126Y660857D02*
G01*
X434543Y661212D01*
X441756Y663092D01*
X448411Y666343D01*
X454253Y670915D01*
X459079Y676503D01*
X462686Y683006D01*
X464921Y690067D01*
X465632Y697433D01*
X464921Y704850D01*
X462686Y711911D01*
X459079Y718413D01*
X454253Y724001D01*
X448411Y728573D01*
X441756Y731824D01*
X434543Y733704D01*
X427126Y734060D01*
X419811Y732942D01*
X412851Y730351D01*
X406552Y726440D01*
X402082Y722172D01*
X398576Y719988D01*
X394563Y719378D01*
X390601Y720394D01*
X387350Y722884D01*
X384251Y726490D01*
X378409Y731062D01*
X371754Y734314D01*
X364540Y736193D01*
X357124Y736549D01*
X349808Y735431D01*
X342849Y732840D01*
X336550Y728929D01*
X331216Y723798D01*
X326948Y717753D01*
X324053Y710895D01*
X322529Y703630D01*
X322529Y696264D01*
X324053Y689000D01*
X326948Y682142D01*
X331216Y676097D01*
X336550Y670966D01*
X342849Y667054D01*
X349808Y664464D01*
X357124Y663346D01*
X364540Y663702D01*
X371754Y665581D01*
X378409Y668832D01*
X384251Y673404D01*
X388010Y676757D01*
X391515Y677875D01*
X395173Y677672D01*
X398576Y676198D01*
X406552Y668477D01*
X412851Y664565D01*
X419811Y661974D01*
G37*
G36*
X-234594Y701852D02*
G01*
X-226872Y702259D01*
X-219405Y704189D01*
X-212496Y707593D01*
X-206400Y712317D01*
X-201371Y718159D01*
X-197612Y724916D01*
X-195275Y732282D01*
X-194513Y739952D01*
X-195275Y747623D01*
X-197612Y754989D01*
X-201371Y761746D01*
X-206400Y767588D01*
X-212496Y772312D01*
X-219405Y775716D01*
X-226872Y777646D01*
X-234594Y778052D01*
X-242214Y776884D01*
X-249478Y774192D01*
X-256032Y770128D01*
X-261620Y764794D01*
X-266039Y758444D01*
X-269036Y751382D01*
X-270611Y743813D01*
X-270611Y736092D01*
X-269036Y728522D01*
X-266039Y721461D01*
X-261620Y715111D01*
X-256032Y709777D01*
X-249478Y705713D01*
X-242214Y703021D01*
G37*
G36*
X97891Y721868D02*
G01*
X105613Y722223D01*
X113080Y724154D01*
X120040Y727557D01*
X126136Y732282D01*
X134162Y741883D01*
X137820Y743661D01*
X141935Y743864D01*
X145745Y742442D01*
X148691Y739648D01*
X151180Y736092D01*
X156565Y730961D01*
X162864Y727049D01*
X169824Y724458D01*
X177139Y723341D01*
X184556Y723696D01*
X191719Y725576D01*
X198374Y728827D01*
X204266Y733399D01*
X209092Y738987D01*
X212648Y745490D01*
X214884Y752551D01*
X215646Y759917D01*
X214884Y767334D01*
X212648Y774395D01*
X209092Y780897D01*
X204266Y786485D01*
X198374Y791057D01*
X191719Y794308D01*
X184556Y796188D01*
X177139Y796544D01*
X169824Y795426D01*
X162864Y792835D01*
X156565Y788924D01*
X151180Y783793D01*
X148691Y780237D01*
X145745Y777443D01*
X141935Y776020D01*
X137820Y776224D01*
X134162Y778002D01*
X126136Y787603D01*
X120040Y792327D01*
X113080Y795731D01*
X105613Y797661D01*
X98501Y798017D01*
X94538Y799033D01*
X91338Y801522D01*
X89306Y805129D01*
X88239Y817321D01*
X86004Y824382D01*
X82448Y830884D01*
X77622Y836523D01*
X71729Y841044D01*
X67259Y843229D01*
X64058Y845718D01*
X62077Y849325D01*
X61671Y853389D01*
X62890Y857300D01*
X66040Y862990D01*
X68275Y870051D01*
X68986Y877417D01*
X68275Y884834D01*
X66040Y891895D01*
X62433Y898398D01*
X57607Y903986D01*
X51765Y908558D01*
X45110Y911809D01*
X37896Y913688D01*
X30480Y914044D01*
X23164Y912926D01*
X16205Y910336D01*
X9906Y906424D01*
X4572Y901293D01*
X304Y895248D01*
X-2590Y888390D01*
X-4114Y881126D01*
X-4114Y873760D01*
X-2590Y866495D01*
X304Y859637D01*
X4572Y853592D01*
X9906Y848461D01*
X19608Y842568D01*
X21894Y839673D01*
X23012Y836168D01*
X22809Y832459D01*
X20320Y827735D01*
X17373Y820928D01*
X15900Y813663D01*
X15900Y806246D01*
X17373Y798982D01*
X20320Y792175D01*
X24536Y786079D01*
X29921Y780999D01*
X36220Y777036D01*
X43180Y774496D01*
X55270Y772769D01*
X58724Y770585D01*
X61061Y767232D01*
X61874Y763270D01*
X61874Y756107D01*
X63449Y748538D01*
X66497Y741426D01*
X70916Y735076D01*
X76504Y729792D01*
X83058Y725678D01*
X90271Y723036D01*
G37*
G36*
X1427124Y763371D02*
G01*
X1434541Y763727D01*
X1441754Y765606D01*
X1448409Y768858D01*
X1454251Y773379D01*
X1459077Y779018D01*
X1462684Y785520D01*
X1464919Y792581D01*
X1465630Y799947D01*
X1464919Y807313D01*
X1462684Y814374D01*
X1459077Y820877D01*
X1454251Y826516D01*
X1448155Y831240D01*
X1445514Y834339D01*
X1444294Y838250D01*
X1444701Y842314D01*
X1446682Y845870D01*
X1456740Y853389D01*
X1461566Y859028D01*
X1465173Y865530D01*
X1467408Y872591D01*
X1468120Y879957D01*
X1467408Y887323D01*
X1465173Y894384D01*
X1461566Y900887D01*
X1458264Y904748D01*
X1456436Y907897D01*
X1455826Y911555D01*
X1456588Y915162D01*
X1458569Y918260D01*
X1461516Y920445D01*
X1468374Y923848D01*
X1474266Y928369D01*
X1479092Y934008D01*
X1482648Y940511D01*
X1484884Y947572D01*
X1485646Y954938D01*
X1484884Y962304D01*
X1482750Y969264D01*
X1479092Y975868D01*
X1474266Y981506D01*
X1468374Y986028D01*
X1461719Y989279D01*
X1454556Y991158D01*
X1447139Y991514D01*
X1439824Y990396D01*
X1432864Y987856D01*
X1426565Y983894D01*
X1421180Y978814D01*
X1416964Y972718D01*
X1414018Y965911D01*
X1412544Y958646D01*
X1412544Y951230D01*
X1414018Y943965D01*
X1416964Y937158D01*
X1423873Y927404D01*
X1424686Y923391D01*
X1423873Y919378D01*
X1421536Y916025D01*
X1418031Y913841D01*
X1415338Y912876D01*
X1409039Y908913D01*
X1403705Y903833D01*
X1399438Y897737D01*
X1396542Y890930D01*
X1395018Y883666D01*
X1395018Y876249D01*
X1396542Y868984D01*
X1399438Y862177D01*
X1403705Y856081D01*
X1409039Y851001D01*
X1411681Y849325D01*
X1414627Y846531D01*
X1416253Y842771D01*
X1416253Y838708D01*
X1414627Y834948D01*
X1411681Y832103D01*
X1406550Y828903D01*
X1401216Y823823D01*
X1396949Y817727D01*
X1394053Y810920D01*
X1392529Y803656D01*
X1392529Y796239D01*
X1394053Y788974D01*
X1396949Y782167D01*
X1401216Y776071D01*
X1406550Y770991D01*
X1412849Y767029D01*
X1419809Y764489D01*
G37*
G36*
X414629Y798372D02*
G01*
X422046Y798728D01*
X429209Y800608D01*
X435864Y803859D01*
X441756Y808380D01*
X446582Y814019D01*
X447548Y815797D01*
X450240Y818896D01*
X453898Y820724D01*
X457962Y820928D01*
X461822Y819505D01*
X464769Y816711D01*
X468680Y811072D01*
X474065Y805992D01*
X480364Y802030D01*
X487324Y799490D01*
X494639Y798372D01*
X502056Y798728D01*
X509219Y800608D01*
X515874Y803859D01*
X521766Y808380D01*
X526592Y814019D01*
X527558Y815797D01*
X530250Y818896D01*
X533908Y820724D01*
X537972Y820928D01*
X541832Y819505D01*
X544779Y816711D01*
X548690Y811072D01*
X554075Y805992D01*
X560374Y802030D01*
X567334Y799490D01*
X574649Y798372D01*
X582066Y798728D01*
X589229Y800608D01*
X595884Y803859D01*
X601776Y808380D01*
X606602Y814019D01*
X610158Y820521D01*
X612394Y827582D01*
X613156Y834948D01*
X612394Y842314D01*
X610158Y849376D01*
X606602Y855878D01*
X601776Y861517D01*
X595884Y866038D01*
X589229Y869289D01*
X582066Y871169D01*
X574649Y871524D01*
X567334Y870407D01*
X560374Y867867D01*
X554075Y863904D01*
X548690Y858824D01*
X544779Y853186D01*
X541832Y850392D01*
X537972Y848969D01*
X533908Y849172D01*
X530250Y851001D01*
X527558Y854100D01*
X526592Y855878D01*
X521766Y861517D01*
X515874Y866038D01*
X512521Y867714D01*
X509016Y870508D01*
X507085Y874572D01*
X507085Y879094D01*
X509016Y883107D01*
X512521Y885952D01*
X518414Y888847D01*
X524256Y893368D01*
X529082Y899007D01*
X532688Y905510D01*
X534924Y912571D01*
X535635Y919937D01*
X534924Y927303D01*
X532688Y934364D01*
X529082Y940866D01*
X524256Y946505D01*
X518414Y951026D01*
X511759Y954278D01*
X504545Y956157D01*
X497128Y956513D01*
X489813Y955395D01*
X482854Y952855D01*
X476554Y948893D01*
X471220Y943813D01*
X467309Y938174D01*
X464312Y935380D01*
X460501Y933958D01*
X456438Y934161D01*
X452729Y935990D01*
X450088Y939088D01*
X449072Y940866D01*
X444246Y946505D01*
X438404Y951026D01*
X431749Y954278D01*
X424535Y956157D01*
X417118Y956513D01*
X409803Y955395D01*
X402844Y952855D01*
X396544Y948893D01*
X391210Y943813D01*
X386943Y937717D01*
X385572Y934466D01*
X383235Y931113D01*
X379780Y928928D01*
X375716Y928319D01*
X371754Y929335D01*
X366725Y931824D01*
X359562Y933703D01*
X352145Y934059D01*
X344830Y932942D01*
X337870Y930351D01*
X331571Y926439D01*
X326186Y921308D01*
X321970Y915263D01*
X319024Y908405D01*
X317550Y901141D01*
X317550Y893775D01*
X319024Y886510D01*
X321970Y879652D01*
X326186Y873607D01*
X331571Y868476D01*
X337870Y864565D01*
X344830Y861974D01*
X352145Y860856D01*
X359562Y861212D01*
X366725Y863092D01*
X370179Y864768D01*
X374142Y865784D01*
X378155Y865174D01*
X381660Y863041D01*
X383997Y859688D01*
X384810Y855675D01*
X383997Y851662D01*
X381508Y845921D01*
X380034Y838657D01*
X380034Y831240D01*
X381508Y823976D01*
X384454Y817168D01*
X388670Y811072D01*
X394055Y805992D01*
X400354Y802030D01*
X407314Y799490D01*
G37*
G36*
X1097127Y843381D02*
G01*
X1104544Y843737D01*
X1111758Y845616D01*
X1118412Y848868D01*
X1124254Y853389D01*
X1129080Y859028D01*
X1132687Y865530D01*
X1134922Y872591D01*
X1135634Y879957D01*
X1134922Y887323D01*
X1132687Y894384D01*
X1129080Y900887D01*
X1124254Y906526D01*
X1118412Y911047D01*
X1111758Y914298D01*
X1101090Y917041D01*
X1098143Y919022D01*
X1096060Y921867D01*
X1094892Y927303D01*
X1092657Y934364D01*
X1089101Y940866D01*
X1084275Y946454D01*
X1077163Y951839D01*
X1074674Y954582D01*
X1073302Y958087D01*
X1073302Y961796D01*
X1074674Y965301D01*
X1077163Y968044D01*
X1084275Y973429D01*
X1089101Y979017D01*
X1090015Y980694D01*
X1092708Y983792D01*
X1096365Y985621D01*
X1100429Y985824D01*
X1104290Y984402D01*
X1107236Y981608D01*
X1111097Y976071D01*
X1116431Y970991D01*
X1122730Y967028D01*
X1129690Y964488D01*
X1137005Y963371D01*
X1144422Y963726D01*
X1151636Y965606D01*
X1158290Y968857D01*
X1164132Y973378D01*
X1168958Y979017D01*
X1172565Y985519D01*
X1174800Y992581D01*
X1175512Y999947D01*
X1174800Y1007313D01*
X1172565Y1014374D01*
X1168958Y1020876D01*
X1164132Y1026515D01*
X1158290Y1031036D01*
X1156258Y1032052D01*
X1152753Y1034846D01*
X1150823Y1038910D01*
X1150823Y1043432D01*
X1152753Y1047445D01*
X1156258Y1050290D01*
X1158392Y1051356D01*
X1164285Y1055878D01*
X1169111Y1061516D01*
X1171244Y1065428D01*
X1174242Y1068730D01*
X1178306Y1070508D01*
X1182776Y1070305D01*
X1186688Y1068273D01*
X1193647Y1058621D01*
X1198981Y1053541D01*
X1205280Y1049578D01*
X1212240Y1047038D01*
X1219555Y1045921D01*
X1226972Y1046276D01*
X1234186Y1048156D01*
X1240840Y1051407D01*
X1246682Y1055928D01*
X1251508Y1061567D01*
X1255115Y1068070D01*
X1257350Y1075131D01*
X1258062Y1082497D01*
X1257350Y1089863D01*
X1255115Y1096924D01*
X1251508Y1103426D01*
X1246682Y1109065D01*
X1240840Y1113586D01*
X1234186Y1116838D01*
X1226972Y1118717D01*
X1219555Y1119073D01*
X1212240Y1117955D01*
X1205280Y1115415D01*
X1198981Y1111453D01*
X1193647Y1106373D01*
X1186738Y1096721D01*
X1182776Y1094638D01*
X1178306Y1094435D01*
X1174191Y1096162D01*
X1171244Y1099515D01*
X1169111Y1103376D01*
X1164285Y1109014D01*
X1158392Y1113536D01*
X1151737Y1116787D01*
X1144574Y1118666D01*
X1137158Y1119022D01*
X1129842Y1117904D01*
X1122883Y1115364D01*
X1116584Y1111402D01*
X1111199Y1106322D01*
X1106982Y1100226D01*
X1104036Y1093419D01*
X1102563Y1086154D01*
X1102563Y1078738D01*
X1104036Y1071473D01*
X1106982Y1064666D01*
X1111199Y1058570D01*
X1116584Y1053490D01*
X1122375Y1049883D01*
X1125321Y1047038D01*
X1126947Y1043279D01*
X1126947Y1039215D01*
X1125321Y1035456D01*
X1122375Y1032611D01*
X1116431Y1028903D01*
X1111097Y1023823D01*
X1107236Y1018286D01*
X1104290Y1015492D01*
X1100429Y1014069D01*
X1096365Y1014272D01*
X1092708Y1016101D01*
X1090015Y1019200D01*
X1089101Y1020876D01*
X1084275Y1026515D01*
X1078382Y1031036D01*
X1071727Y1034287D01*
X1064564Y1036167D01*
X1057148Y1036523D01*
X1049832Y1035405D01*
X1042873Y1032865D01*
X1036574Y1028903D01*
X1031189Y1023823D01*
X1027277Y1018184D01*
X1024331Y1015390D01*
X1020470Y1013968D01*
X1016406Y1014171D01*
X1012748Y1016000D01*
X1010056Y1019098D01*
X1009091Y1020876D01*
X1004265Y1026515D01*
X998372Y1031036D01*
X991717Y1034287D01*
X984554Y1036167D01*
X977137Y1036523D01*
X969822Y1035405D01*
X962863Y1032865D01*
X956564Y1028903D01*
X951179Y1023823D01*
X947318Y1018235D01*
X944321Y1015390D01*
X940511Y1013968D01*
X936396Y1014171D01*
X932738Y1016000D01*
X930097Y1019098D01*
X929081Y1020876D01*
X924255Y1026515D01*
X918413Y1031036D01*
X911758Y1034287D01*
X904544Y1036167D01*
X897128Y1036523D01*
X889812Y1035405D01*
X882853Y1032865D01*
X876553Y1028903D01*
X871219Y1023823D01*
X867308Y1018184D01*
X864311Y1015390D01*
X860501Y1013968D01*
X856437Y1014171D01*
X852728Y1016000D01*
X850087Y1019098D01*
X849071Y1020876D01*
X844245Y1026515D01*
X838403Y1031036D01*
X831748Y1034287D01*
X824534Y1036167D01*
X817118Y1036523D01*
X809802Y1035405D01*
X802843Y1032865D01*
X796544Y1028903D01*
X791210Y1023823D01*
X784301Y1014120D01*
X780338Y1012037D01*
X775868Y1011834D01*
X771753Y1013561D01*
X768756Y1016914D01*
X766572Y1020876D01*
X761746Y1026515D01*
X755904Y1031036D01*
X749249Y1034287D01*
X742035Y1036167D01*
X734618Y1036523D01*
X727303Y1035405D01*
X720344Y1032865D01*
X714044Y1028903D01*
X708710Y1023823D01*
X704443Y1017727D01*
X701548Y1010919D01*
X700024Y1003655D01*
X700024Y996238D01*
X701548Y988974D01*
X704443Y982167D01*
X708710Y976071D01*
X714044Y970991D01*
X720344Y967028D01*
X727303Y964488D01*
X734618Y963371D01*
X742035Y963726D01*
X749249Y965606D01*
X755904Y968857D01*
X761746Y973378D01*
X766572Y979017D01*
X768756Y982980D01*
X771753Y986332D01*
X775868Y988060D01*
X780338Y987856D01*
X784301Y985774D01*
X791210Y976071D01*
X796544Y970991D01*
X800404Y968552D01*
X803402Y965758D01*
X804976Y961999D01*
X804976Y957884D01*
X803402Y954125D01*
X800404Y951331D01*
X796544Y948893D01*
X791210Y943813D01*
X786942Y937717D01*
X784047Y930910D01*
X782828Y925017D01*
X780948Y920953D01*
X777544Y918057D01*
X773176Y916940D01*
X768756Y917752D01*
X765149Y920445D01*
X764286Y921512D01*
X758393Y926033D01*
X751738Y929284D01*
X744575Y931164D01*
X737158Y931519D01*
X729843Y930402D01*
X722884Y927862D01*
X716584Y923899D01*
X711200Y918819D01*
X706983Y912723D01*
X704037Y905916D01*
X702564Y898652D01*
X702564Y891235D01*
X704037Y883970D01*
X706983Y877163D01*
X711200Y871067D01*
X716584Y865987D01*
X722884Y862025D01*
X729843Y859485D01*
X737158Y858367D01*
X744575Y858723D01*
X751738Y860602D01*
X758393Y863853D01*
X764286Y868375D01*
X769112Y874014D01*
X772668Y880516D01*
X776478Y893064D01*
X779576Y896315D01*
X783793Y897890D01*
X788263Y897483D01*
X792124Y895146D01*
X796544Y890981D01*
X802843Y887018D01*
X809802Y884478D01*
X817118Y883361D01*
X824534Y883716D01*
X831748Y885596D01*
X838403Y888847D01*
X844245Y893368D01*
X849071Y899007D01*
X850087Y900785D01*
X852728Y903884D01*
X856437Y905713D01*
X860501Y905916D01*
X864311Y904494D01*
X867308Y901700D01*
X871219Y896061D01*
X876553Y890981D01*
X882853Y887018D01*
X889812Y884478D01*
X897128Y883361D01*
X904544Y883716D01*
X911758Y885596D01*
X918413Y888847D01*
X924255Y893368D01*
X929081Y899007D01*
X930097Y900785D01*
X932738Y903884D01*
X936396Y905713D01*
X940511Y905916D01*
X944321Y904494D01*
X947318Y901649D01*
X951179Y896061D01*
X956564Y890981D01*
X962863Y887018D01*
X969822Y884478D01*
X977137Y883361D01*
X984554Y883716D01*
X991717Y885596D01*
X998372Y888847D01*
X1004265Y893368D01*
X1009091Y899007D01*
X1010056Y900785D01*
X1012748Y903884D01*
X1016406Y905713D01*
X1020470Y905916D01*
X1024331Y904494D01*
X1027277Y901700D01*
X1031189Y896061D01*
X1036574Y890981D01*
X1042873Y887018D01*
X1049832Y884478D01*
X1054252Y883767D01*
X1058062Y882345D01*
X1061008Y879551D01*
X1062634Y875792D01*
X1064056Y868984D01*
X1066952Y862177D01*
X1071219Y856081D01*
X1076553Y851001D01*
X1082852Y847039D01*
X1089812Y844499D01*
G37*
G36*
X-307035Y888339D02*
G01*
X-299618Y888695D01*
X-292404Y890574D01*
X-285750Y893826D01*
X-279908Y898398D01*
X-275082Y903986D01*
X-271475Y910488D01*
X-269240Y917549D01*
X-268528Y924915D01*
X-269240Y932332D01*
X-271475Y939393D01*
X-275082Y945896D01*
X-279908Y951484D01*
X-285750Y956056D01*
X-292404Y959307D01*
X-299618Y961186D01*
X-307035Y961542D01*
X-314350Y960424D01*
X-321310Y957834D01*
X-327609Y953922D01*
X-332943Y948791D01*
X-337210Y942746D01*
X-340106Y935888D01*
X-341630Y928624D01*
X-341630Y921258D01*
X-340106Y913993D01*
X-337210Y907135D01*
X-332943Y901090D01*
X-327609Y895959D01*
X-321310Y892048D01*
X-314350Y889457D01*
G37*
G36*
X1534617Y950874D02*
G01*
X1542034Y951230D01*
X1549247Y953109D01*
X1555902Y956360D01*
X1561744Y960882D01*
X1566570Y966520D01*
X1570177Y973023D01*
X1572412Y980084D01*
X1573123Y987450D01*
X1572412Y994816D01*
X1570177Y1001877D01*
X1566570Y1008380D01*
X1561744Y1014018D01*
X1555902Y1018540D01*
X1549247Y1021791D01*
X1542034Y1023670D01*
X1534617Y1024026D01*
X1527302Y1022908D01*
X1520342Y1020368D01*
X1514043Y1016406D01*
X1508709Y1011326D01*
X1504442Y1005230D01*
X1501546Y998423D01*
X1500022Y991158D01*
X1500022Y983742D01*
X1501597Y975868D01*
X1504442Y969670D01*
X1508709Y963574D01*
X1514043Y958494D01*
X1520342Y954532D01*
X1527302Y951992D01*
G37*
G36*
X337159Y963371D02*
G01*
X344576Y963726D01*
X351739Y965606D01*
X358394Y968857D01*
X364286Y973378D01*
X369112Y979017D01*
X372668Y985519D01*
X374904Y992581D01*
X375666Y999947D01*
X374904Y1007313D01*
X372668Y1014374D01*
X369112Y1020876D01*
X364286Y1026515D01*
X358394Y1031036D01*
X351739Y1034287D01*
X344576Y1036167D01*
X337159Y1036523D01*
X329844Y1035405D01*
X322884Y1032865D01*
X316585Y1028903D01*
X311200Y1023823D01*
X306984Y1017727D01*
X304038Y1010919D01*
X302564Y1003655D01*
X302564Y996238D01*
X304038Y988974D01*
X306984Y982167D01*
X311200Y976071D01*
X316585Y970991D01*
X322884Y967028D01*
X329844Y964488D01*
G37*
G36*
X2024634Y973378D02*
G01*
X2032050Y973734D01*
X2039213Y975614D01*
X2045868Y978865D01*
X2051761Y983386D01*
X2056587Y989025D01*
X2060143Y995527D01*
X2062378Y1002588D01*
X2063140Y1009954D01*
X2062378Y1017320D01*
X2060143Y1024382D01*
X2056587Y1030884D01*
X2051761Y1036523D01*
X2045868Y1041044D01*
X2039213Y1044295D01*
X2032050Y1046175D01*
X2024634Y1046530D01*
X2017318Y1045413D01*
X2010359Y1042873D01*
X2004060Y1038910D01*
X1998675Y1033830D01*
X1994458Y1027734D01*
X1991512Y1020927D01*
X1990039Y1013663D01*
X1990039Y1006246D01*
X1991512Y998982D01*
X1994458Y992174D01*
X1998675Y986078D01*
X2004060Y980998D01*
X2010359Y977036D01*
X2017318Y974496D01*
G37*
G36*
X1917141Y1008380D02*
G01*
X1924557Y1008735D01*
X1931720Y1010615D01*
X1938375Y1013866D01*
X1944268Y1018387D01*
X1949094Y1024026D01*
X1952650Y1030528D01*
X1954885Y1037590D01*
X1955647Y1044956D01*
X1954885Y1052322D01*
X1952650Y1059383D01*
X1949094Y1065885D01*
X1944268Y1071524D01*
X1938375Y1076045D01*
X1931720Y1079296D01*
X1924557Y1081176D01*
X1917141Y1081532D01*
X1909825Y1080414D01*
X1902866Y1077874D01*
X1896567Y1073912D01*
X1891182Y1068832D01*
X1886966Y1062736D01*
X1884019Y1055928D01*
X1882546Y1048664D01*
X1882546Y1041247D01*
X1884019Y1033983D01*
X1886966Y1027176D01*
X1891182Y1021080D01*
X1896567Y1016000D01*
X1902866Y1012037D01*
X1909825Y1009497D01*
G37*

%LPD*%
G36*
X1476705Y323189D02*
G01*
X1472336Y323951D01*
X1468678Y326491D01*
X1466494Y330301D01*
X1465173Y334365D01*
X1461617Y340868D01*
X1456791Y346506D01*
X1451406Y350672D01*
X1448968Y353415D01*
X1447647Y356819D01*
X1447647Y360527D01*
X1448968Y363982D01*
X1451406Y366725D01*
X1456791Y370890D01*
X1461617Y376478D01*
X1467408Y387299D01*
X1470660Y389788D01*
X1474622Y390804D01*
X1477416Y390956D01*
X1481429Y390347D01*
X1484934Y388162D01*
X1487271Y384810D01*
X1489456Y379628D01*
X1493723Y373583D01*
X1499819Y367741D01*
X1502156Y364388D01*
X1502968Y359460D01*
X1502156Y355498D01*
X1499819Y352094D01*
X1493723Y346303D01*
X1489456Y340207D01*
X1486560Y333400D01*
X1486103Y331317D01*
X1484325Y327253D01*
X1480921Y324408D01*
G37*

%LPD*%
D10*
X2527330Y999934D02*
G01*
X2608971Y999937D01*
D11*
X1477639Y359938D02*
G01*
X1477639Y306087D01*
X1471490Y299938D01*
X1548991Y359938D02*
G01*
X1406491Y359938D01*
D12*
G01*
X-321015Y1219926D03*
D13*
G01*
X-511007Y1099936D03*
D12*
G01*
X-221015Y1219926D03*
G01*
X-121015Y1219926D03*
G01*
X-21015Y1219901D03*
G01*
X278983Y1219901D03*
G01*
X178983Y1219901D03*
G01*
X78983Y1219901D03*
G01*
X678982Y1219875D03*
G01*
X778982Y1219875D03*
G01*
X878982Y1219875D03*
G01*
X578982Y1219875D03*
G01*
X478983Y1219875D03*
G01*
X378983Y1219901D03*
G01*
X1578980Y1219824D03*
G01*
X1678980Y1219824D03*
G01*
X1778980Y1219824D03*
G01*
X2078979Y1219799D03*
G01*
X1978980Y1219799D03*
G01*
X1878980Y1219824D03*
G01*
X1379006Y1219926D03*
G01*
X1479006Y1219926D03*
G01*
X1279006Y1219951D03*
G01*
X1178981Y1219850D03*
G01*
X1078981Y1219850D03*
G01*
X978982Y1219850D03*
G01*
X2478979Y1219774D03*
G01*
X2378979Y1219799D03*
G01*
X2278979Y1219799D03*
G01*
X2178979Y1219799D03*
D13*
G01*
X-511007Y999937D03*
G01*
X-511007Y899937D03*
G01*
X-511007Y799937D03*
G01*
X-511007Y699937D03*
G01*
X-511007Y599937D03*
G01*
X-510981Y-200035D03*
G01*
X-510981Y-300034D03*
G01*
X-510981Y-35D03*
G01*
X-510981Y399938D03*
G01*
X-510981Y299938D03*
G01*
X-510981Y199964D03*
G01*
X-510981Y99964D03*
G01*
X-510981Y499963D03*
G01*
X-511007Y-100035D03*
G01*
X-511007Y-400110D03*
G01*
X-511007Y-500136D03*
G01*
X-511007Y-600135D03*
G01*
X-511007Y-700135D03*
D12*
G01*
X-321015Y-820074D03*
G01*
X2178979Y-820201D03*
G01*
X2278979Y-820201D03*
G01*
X2378979Y-820226D03*
G01*
X2478979Y-820226D03*
G01*
X978982Y-820150D03*
G01*
X1078981Y-820150D03*
G01*
X1178981Y-820150D03*
G01*
X1478981Y-820176D03*
G01*
X1378981Y-820176D03*
G01*
X1278981Y-820150D03*
G01*
X1878980Y-820201D03*
G01*
X2079005Y-820074D03*
G01*
X1979005Y-820074D03*
G01*
X1778980Y-820176D03*
G01*
X1678980Y-820176D03*
G01*
X1578980Y-820176D03*
G01*
X378983Y-820125D03*
G01*
X478983Y-820125D03*
G01*
X578982Y-820125D03*
G01*
X878982Y-820150D03*
G01*
X778982Y-820125D03*
G01*
X678982Y-820125D03*
G01*
X78983Y-820099D03*
G01*
X178983Y-820099D03*
G01*
X278983Y-820099D03*
G01*
X-21015Y-820099D03*
G01*
X-121015Y-820099D03*
G01*
X-221015Y-820074D03*
D13*
G01*
X2668996Y-700135D03*
G01*
X2668996Y-600135D03*
G01*
X2668996Y-500136D03*
G01*
X2668996Y-400136D03*
G01*
X2668996Y-300111D03*
G01*
X2668996Y-200111D03*
G01*
X2668996Y-100111D03*
G01*
X2668996Y-111D03*
G01*
X2668996Y99888D03*
G01*
X2668996Y199913D03*
G01*
X2668996Y299913D03*
G01*
X2668996Y399912D03*
G01*
X2668996Y499912D03*
G01*
X2668996Y599912D03*
G01*
X2668996Y699937D03*
G01*
X2668996Y799937D03*
G01*
X2668996Y899937D03*
G01*
X2668996Y999937D03*
G01*
X2668996Y1099936D03*
D14*
G01*
X1451498Y-470087D03*
G01*
X1391503Y-470087D03*
G01*
X1316497Y-365058D03*
G01*
X1533997Y-405063D03*
G01*
X1574002Y-445068D03*
G01*
X1671487Y-455051D03*
G01*
X1708978Y-422564D03*
G01*
X1868998Y-585099D03*
G01*
X1863994Y-445068D03*
G01*
X1913981Y-407578D03*
G01*
X1419011Y-642579D03*
G01*
X1361480Y-285074D03*
G01*
X1309004Y-310067D03*
G01*
X1474002Y-267573D03*
G01*
X1474002Y-212582D03*
G01*
X1309004Y-252587D03*
G01*
X1193993Y-257566D03*
G01*
X1228994Y-305064D03*
G01*
X1074003Y-262569D03*
G01*
X1001511Y-222564D03*
G01*
X1751497Y-42555D03*
G01*
X1666483Y-42555D03*
G01*
X1708978Y-2550D03*
G01*
X1644004Y552439D03*
G01*
X1898995Y574944D03*
G01*
X1431508Y397423D03*
G01*
X1476517Y427421D03*
G01*
X1521500Y397423D03*
G01*
X1431508Y319928D03*
G01*
X1521500Y322417D03*
G01*
X1521500Y267426D03*
G01*
X1921499Y119928D03*
G01*
X1893991Y69941D03*
G01*
X1921499Y19928D03*
G01*
X1893991Y-30058D03*
G01*
X239994Y-474990D03*
G01*
X739002Y279923D03*
G01*
X739002Y199913D03*
G01*
X818987Y199913D03*
G01*
X898997Y199913D03*
G01*
X819012Y279923D03*
G01*
X739002Y119928D03*
G01*
X819012Y119928D03*
G01*
X819012Y677433D03*
G01*
X898997Y677433D03*
G01*
X979007Y677433D03*
G01*
X819012Y597423D03*
G01*
X898997Y597423D03*
G01*
X979007Y597423D03*
G01*
X898997Y519927D03*
G01*
X979007Y519927D03*
G01*
X1811492Y-277581D03*
G01*
X1754012Y-277581D03*
G01*
X2074001Y924930D03*
G01*
X2128992Y884925D03*
G01*
X2186498Y927445D03*
G01*
X1616496Y882436D03*
G01*
X1778980Y687440D03*
D15*
G01*
X2491501Y687440D03*
D14*
G01*
X1856501Y247436D03*
G01*
X539003Y-297571D03*
G01*
X588990Y-392567D03*
G01*
X896508Y-292567D03*
G01*
X861507Y-247558D03*
G01*
X898997Y-202575D03*
G01*
X819012Y-120075D03*
G01*
X898997Y279923D03*
G01*
X686501Y-347558D03*
G01*
X686501Y-287563D03*
G01*
X979007Y359933D03*
G01*
X1059017Y359933D03*
G01*
X779007Y399938D03*
G01*
X659018Y599912D03*
G01*
X579033Y599912D03*
G01*
X659018Y679922D03*
G01*
X579033Y679922D03*
G01*
X659018Y519927D03*
G01*
X579033Y519927D03*
G01*
X499023Y519927D03*
G01*
X498998Y439917D03*
G01*
X579008Y439917D03*
G01*
X498998Y279923D03*
G01*
X578982Y354929D03*
G01*
X571515Y127421D03*
G01*
X579135Y200040D03*
G01*
X539003Y-240065D03*
G01*
X-90154Y379923D03*
G01*
X898997Y-120075D03*
G01*
X979007Y-120075D03*
G01*
X898997Y-40065D03*
G01*
X979007Y-40065D03*
G01*
X898997Y39918D03*
G01*
X979007Y39918D03*
G01*
X979007Y119928D03*
G01*
X1749008Y157419D03*
G01*
X1963994Y-210068D03*
G01*
X1141516Y759932D03*
G01*
X1063995Y759932D03*
G01*
X1219012Y759932D03*
G01*
X2351496Y-75067D03*
G01*
X1526783Y-347634D03*
G01*
X1574078Y-285302D03*
G01*
X1621119Y-347634D03*
G01*
X1019012Y172430D03*
G01*
X1019012Y239918D03*
G01*
X1921499Y289930D03*
G01*
X1893991Y342432D03*
G01*
X1309004Y-645068D03*
G01*
X2091502Y-705063D03*
G01*
X1154013Y-712556D03*
G01*
X1714007Y-610067D03*
G01*
X1591503Y-642579D03*
G01*
X968999Y-400060D03*
G01*
X-369986Y-342503D03*
G01*
X533999Y-392567D03*
G01*
X641517Y-457565D03*
G01*
X686501Y-412556D03*
G01*
X896508Y-585073D03*
G01*
X384012Y-292567D03*
G01*
X414009Y-242580D03*
G01*
X471515Y-215071D03*
G01*
X419039Y-119948D03*
G01*
X144007Y-270062D03*
G01*
X84013Y-240065D03*
G01*
X1031509Y-732571D03*
G01*
X966510Y-585073D03*
G01*
X-11008Y-687562D03*
G01*
X-412658Y-152562D03*
G01*
X339003Y-40065D03*
G01*
X259019Y39918D03*
G01*
X333999Y39944D03*
G01*
X391505Y39944D03*
G01*
X476493Y82438D03*
G01*
X179009Y199837D03*
G01*
X179009Y119827D03*
G01*
X259019Y119928D03*
G01*
X259019Y199837D03*
G01*
X88991Y219928D03*
G01*
X-102499Y209997D03*
G01*
X2228992Y-720049D03*
G01*
X2328992Y-720074D03*
G01*
X2565237Y-450072D03*
G01*
X2565237Y-547557D03*
G01*
X2565237Y-652561D03*
G01*
X2565237Y-352562D03*
G01*
X2565237Y-255051D03*
G01*
X459018Y152440D03*
G01*
X2296480Y-120050D03*
G01*
X1476491Y644946D03*
G01*
X1386499Y679947D03*
G01*
X1528993Y679947D03*
G01*
X1528993Y744946D03*
G01*
X329834Y459933D03*
G01*
X-407654Y1139941D03*
G01*
X395010Y-695004D03*
G01*
X374843Y152440D03*
G01*
X-410169Y444921D03*
G01*
X358993Y699937D03*
G01*
X178983Y759932D03*
G01*
X32349Y877432D03*
G01*
X428995Y697448D03*
G01*
X52339Y809945D03*
G01*
X258993Y277434D03*
G01*
X1428993Y799937D03*
G01*
X1528993Y799937D03*
G01*
X1431483Y879947D03*
G01*
X1528993Y879947D03*
G01*
X1448983Y954928D03*
G01*
X1536486Y987440D03*
G01*
X1181496Y809945D03*
G01*
X1221425Y1082487D03*
G01*
X1138875Y999937D03*
G01*
X418988Y999962D03*
G01*
X339003Y999937D03*
G01*
X353989Y897448D03*
G01*
X416473Y834938D03*
G01*
X496483Y834938D03*
G01*
X576493Y834938D03*
G01*
X1139002Y1082436D03*
G01*
X993993Y759932D03*
G01*
X1058992Y999937D03*
G01*
X1058992Y919927D03*
G01*
X1098997Y879947D03*
G01*
X978982Y999937D03*
G01*
X978982Y919927D03*
G01*
X418988Y919927D03*
G01*
X498998Y919927D03*
G01*
X736488Y999937D03*
G01*
X739002Y894933D03*
G01*
X898997Y999937D03*
G01*
X818987Y999937D03*
G01*
X818987Y919927D03*
G01*
X898997Y919927D03*
G01*
X2565237Y-150073D03*
G01*
X2565237Y249925D03*
G01*
X2565237Y349925D03*
G01*
X2565237Y444947D03*
G01*
X2336485Y657443D03*
G01*
X2371486Y352440D03*
G01*
X2565237Y147436D03*
G01*
X2176490Y17439D03*
G01*
X2228992Y-27569D03*
G01*
X2046493Y159933D03*
G01*
X325008Y-474990D03*
G01*
X541467Y-475040D03*
G01*
X1918985Y1044945D03*
G01*
X2238999Y657443D03*
D15*
G01*
X2521498Y997447D03*
D14*
G01*
X2026478Y1009944D03*
D15*
G01*
X2496479Y-150073D03*
D16*
G01*
X1686499Y182438D03*
G01*
X1833996Y474944D03*
D14*
G01*
X1731482Y547436D03*
G01*
X1751497Y472429D03*
G01*
X1703999Y257444D03*
G01*
X2436484Y-255051D03*
G01*
X2565237Y47437D03*
G01*
X2565237Y-52562D03*
G01*
X2565237Y539943D03*
G01*
X1741490Y214924D03*
G01*
X1856475Y177434D03*
G01*
X1698995Y687440D03*
D16*
G01*
X-370164Y-55077D03*
D14*
G01*
X-340166Y112435D03*
G01*
X-237652Y924930D03*
G01*
X-309991Y-342503D03*
G01*
X94833Y-405063D03*
D16*
G01*
X-232674Y739942D03*
D14*
G01*
X-35189Y1064935D03*
G01*
X-130159Y1074943D03*
G01*
X-387664Y939942D03*
G01*
X-32674Y804941D03*
D16*
G01*
X2594828Y999937D03*
G01*
X99837Y759932D03*
D14*
G01*
X-187665Y-47558D03*
G01*
X-45171Y-127543D03*
G01*
X-187690Y-140040D03*
G01*
X-90180Y437428D03*
G01*
X-277682Y437428D03*
G01*
X-32674Y-292567D03*
G01*
X-305165Y924930D03*
G01*
X-10Y-10D03*
M02*
