G04 Layer: InnerLayer2*
G04 EasyEDA v6.5.21, 2022-10-22 16:28:30*
G04 167bdced229c4b2ca01845534b4d4eab,294cf934c43b457281b0b0dcd80bbfec,10*
G04 Gerber Generator version 0.2*
G04 Scale: 100 percent, Rotated: No, Reflected: No *
G04 Dimensions in millimeters *
G04 leading zeros omitted , absolute positions ,4 integer and 5 decimal *
%FSLAX45Y45*%
%MOMM*%

%ADD10C,0.1000*%
%ADD11C,0.1270*%
%ADD12C,0.3000*%
%ADD13C,0.3900*%
%ADD14C,0.8000*%
%ADD15C,0.6000*%
%ADD16R,0.6000X1.2000*%
%ADD17R,1.2000X0.6000*%
%ADD18C,0.4200*%
%ADD19C,0.5000*%
%ADD20C,0.4500*%
%ADD21C,0.0199*%

%LPD*%
G36*
X-288493Y1101852D02*
G01*
X-292354Y1102512D01*
X-295757Y1103833D01*
X-301650Y1104544D01*
X-425145Y1104544D01*
X-429006Y1105306D01*
X-432308Y1107541D01*
X-434543Y1110792D01*
X-435305Y1114704D01*
X-435305Y1129284D01*
X-435914Y1133957D01*
X-437489Y1137716D01*
X-439978Y1140968D01*
X-443179Y1143457D01*
X-446938Y1145032D01*
X-451662Y1145641D01*
X-475030Y1145641D01*
X-478942Y1146403D01*
X-482193Y1148588D01*
X-484428Y1151890D01*
X-485190Y1155801D01*
X-485190Y1183843D01*
X-484428Y1187754D01*
X-482193Y1191006D01*
X-478942Y1193241D01*
X-475030Y1194003D01*
X-376834Y1194003D01*
X-372973Y1193241D01*
X-369671Y1191006D01*
X-367487Y1187754D01*
X-366674Y1183843D01*
X-366674Y1160627D01*
X-366064Y1155903D01*
X-364490Y1152144D01*
X-362051Y1148892D01*
X-358800Y1146403D01*
X-355041Y1144879D01*
X-350316Y1144219D01*
X-310794Y1144219D01*
X-306882Y1143457D01*
X-303631Y1141272D01*
X-281533Y1119225D01*
X-279349Y1115974D01*
X-278587Y1112113D01*
X-279298Y1108252D01*
X-281432Y1104950D01*
X-284632Y1102715D01*
G37*

%LPD*%
G36*
X2556306Y1055624D02*
G01*
X2552395Y1056436D01*
X2549144Y1058621D01*
X2523591Y1084122D01*
X2519883Y1087577D01*
X2516022Y1090523D01*
X2511907Y1093114D01*
X2507589Y1095400D01*
X2503119Y1097229D01*
X2498496Y1098702D01*
X2493721Y1099769D01*
X2488946Y1100378D01*
X2483866Y1100582D01*
X2248357Y1100582D01*
X2244496Y1101394D01*
X2241194Y1103579D01*
X2239010Y1106881D01*
X2238197Y1110742D01*
X2239010Y1114653D01*
X2241194Y1117955D01*
X2264359Y1141120D01*
X2267661Y1143355D01*
X2271572Y1144117D01*
X2308352Y1144117D01*
X2313025Y1144727D01*
X2316784Y1146302D01*
X2320036Y1148791D01*
X2323693Y1152398D01*
X2327148Y1153769D01*
X2330856Y1153769D01*
X2334310Y1152398D01*
X2337968Y1148740D01*
X2341219Y1146302D01*
X2344978Y1144727D01*
X2349652Y1144117D01*
X2408326Y1144117D01*
X2413050Y1144727D01*
X2416810Y1146302D01*
X2420061Y1148740D01*
X2423668Y1152398D01*
X2427122Y1153718D01*
X2430830Y1153718D01*
X2434285Y1152398D01*
X2437942Y1148740D01*
X2441194Y1146251D01*
X2444953Y1144727D01*
X2449677Y1144117D01*
X2508351Y1144117D01*
X2513025Y1144727D01*
X2516784Y1146251D01*
X2520035Y1148740D01*
X2522524Y1151991D01*
X2524099Y1155750D01*
X2524709Y1160475D01*
X2524709Y1183843D01*
X2525471Y1187754D01*
X2527655Y1191006D01*
X2530957Y1193241D01*
X2534869Y1194003D01*
X2632913Y1194003D01*
X2636824Y1193241D01*
X2640076Y1191006D01*
X2642311Y1187754D01*
X2643073Y1183843D01*
X2643073Y1065784D01*
X2642311Y1061923D01*
X2640076Y1058621D01*
X2636824Y1056436D01*
X2632913Y1055624D01*
G37*

%LPD*%
G36*
X-94132Y999388D02*
G01*
X-98044Y1000150D01*
X-101346Y1002385D01*
X-144373Y1045413D01*
X-149860Y1049375D01*
X-154787Y1051255D01*
X-160680Y1051966D01*
X-235102Y1051966D01*
X-239014Y1052728D01*
X-242316Y1054963D01*
X-270459Y1083106D01*
X-272694Y1086358D01*
X-273456Y1090218D01*
X-272745Y1094079D01*
X-270611Y1097381D01*
X-267411Y1099616D01*
X-263550Y1100480D01*
X-259689Y1099820D01*
X-256286Y1098499D01*
X-250393Y1097788D01*
X30581Y1097788D01*
X34442Y1097026D01*
X37744Y1094790D01*
X115874Y1016711D01*
X118059Y1013460D01*
X118872Y1009548D01*
X118059Y1005636D01*
X115874Y1002385D01*
X112572Y1000150D01*
X108712Y999388D01*
G37*

%LPD*%
G36*
X-425450Y921969D02*
G01*
X-429006Y922629D01*
X-432104Y924509D01*
X-434390Y927353D01*
X-435508Y930808D01*
X-435914Y934008D01*
X-437489Y937768D01*
X-441959Y943203D01*
X-444042Y946505D01*
X-444754Y950366D01*
X-443941Y954227D01*
X-441756Y957427D01*
X-438454Y959612D01*
X-434593Y960374D01*
X-344373Y960374D01*
X-340055Y959408D01*
X-336600Y956767D01*
X-334568Y952855D01*
X-334365Y948486D01*
X-336042Y944422D01*
X-337210Y942746D01*
X-340106Y935888D01*
X-341325Y930097D01*
X-342595Y926896D01*
X-344830Y924255D01*
X-347878Y922578D01*
X-351282Y921969D01*
G37*

%LPD*%
G36*
X-261112Y899515D02*
G01*
X-264820Y900226D01*
X-268020Y902208D01*
X-270256Y905256D01*
X-271221Y908913D01*
X-270764Y912723D01*
X-269240Y917549D01*
X-268528Y924915D01*
X-269240Y932332D01*
X-271475Y939393D01*
X-274726Y945286D01*
X-275996Y949299D01*
X-275488Y953465D01*
X-273354Y957071D01*
X-269951Y959510D01*
X-265887Y960374D01*
X-204419Y960374D01*
X-200507Y959612D01*
X-197205Y957376D01*
X-156667Y916838D01*
X-154482Y913536D01*
X-153670Y909675D01*
X-154482Y905764D01*
X-156667Y902462D01*
X-159969Y900277D01*
X-163830Y899515D01*
G37*

%LPD*%
G36*
X308152Y891946D02*
G01*
X303885Y892505D01*
X300177Y894842D01*
X68021Y1126896D01*
X65836Y1130147D01*
X65074Y1134059D01*
X65836Y1137970D01*
X68021Y1141222D01*
X71323Y1143457D01*
X75234Y1144219D01*
X108356Y1144219D01*
X113030Y1144828D01*
X116789Y1146403D01*
X120040Y1148892D01*
X123698Y1152550D01*
X127152Y1153871D01*
X130860Y1153871D01*
X134315Y1152550D01*
X137972Y1148892D01*
X141224Y1146403D01*
X144983Y1144828D01*
X149656Y1144219D01*
X208330Y1144219D01*
X213055Y1144828D01*
X216814Y1146403D01*
X220065Y1148892D01*
X223672Y1152499D01*
X227126Y1153871D01*
X230835Y1153871D01*
X234289Y1152499D01*
X237947Y1148892D01*
X241198Y1146403D01*
X244957Y1144828D01*
X249682Y1144219D01*
X308356Y1144219D01*
X313029Y1144828D01*
X316788Y1146403D01*
X320040Y1148892D01*
X323697Y1152499D01*
X327152Y1153871D01*
X330860Y1153871D01*
X334314Y1152499D01*
X337972Y1148842D01*
X341223Y1146403D01*
X344982Y1144828D01*
X349656Y1144219D01*
X408330Y1144219D01*
X413054Y1144828D01*
X416814Y1146403D01*
X420065Y1148842D01*
X423672Y1152499D01*
X427126Y1153820D01*
X430834Y1153820D01*
X434289Y1152499D01*
X437946Y1148842D01*
X441198Y1146352D01*
X444957Y1144828D01*
X449681Y1144219D01*
X508355Y1144219D01*
X511200Y1144574D01*
X515366Y1144270D01*
X519023Y1142288D01*
X521614Y1138986D01*
X522630Y1134922D01*
X521970Y1130808D01*
X519684Y1127302D01*
X487070Y1094689D01*
X483362Y1089558D01*
X481584Y1084884D01*
X480923Y1079347D01*
X480923Y1015288D01*
X480110Y1011377D01*
X477926Y1008075D01*
X429107Y959256D01*
X425602Y956970D01*
X421436Y956310D01*
X417118Y956513D01*
X409803Y955395D01*
X402844Y952855D01*
X396544Y948893D01*
X391210Y943813D01*
X386943Y937717D01*
X385572Y934466D01*
X383235Y931113D01*
X379780Y928928D01*
X375716Y928319D01*
X371754Y929335D01*
X366725Y931824D01*
X359562Y933703D01*
X352145Y934059D01*
X344830Y932942D01*
X337870Y930351D01*
X331571Y926439D01*
X326186Y921308D01*
X321970Y915263D01*
X319024Y908456D01*
X317347Y900023D01*
X315569Y896061D01*
X312318Y893165D01*
G37*

%LPC*%
G36*
X337159Y963371D02*
G01*
X344576Y963726D01*
X351739Y965606D01*
X358394Y968857D01*
X364286Y973378D01*
X369112Y979017D01*
X372668Y985519D01*
X374904Y992581D01*
X375666Y999947D01*
X374904Y1007313D01*
X372668Y1014374D01*
X369112Y1020876D01*
X364286Y1026515D01*
X358394Y1031036D01*
X351739Y1034287D01*
X344576Y1036167D01*
X337159Y1036523D01*
X329844Y1035405D01*
X322884Y1032865D01*
X316585Y1028903D01*
X311200Y1023823D01*
X306984Y1017727D01*
X304038Y1010919D01*
X302564Y1003655D01*
X302564Y996238D01*
X304038Y988974D01*
X306984Y982167D01*
X311200Y976071D01*
X316585Y970991D01*
X322884Y967028D01*
X329844Y964488D01*
G37*

%LPD*%
G36*
X1604314Y865682D02*
G01*
X1600403Y866495D01*
X1597101Y868680D01*
X1581353Y884428D01*
X1579168Y887730D01*
X1578406Y891641D01*
X1579168Y895502D01*
X1581353Y898804D01*
X1584655Y900988D01*
X1588566Y901801D01*
X1628749Y901801D01*
X1632661Y900988D01*
X1635963Y898804D01*
X1651711Y883056D01*
X1653895Y879754D01*
X1654708Y875842D01*
X1653895Y871982D01*
X1651711Y868680D01*
X1648409Y866495D01*
X1644548Y865682D01*
G37*

%LPD*%
G36*
X2154224Y825550D02*
G01*
X2150313Y826363D01*
X2147011Y828548D01*
X2083816Y891997D01*
X2078634Y895756D01*
X2073960Y897534D01*
X2068423Y898194D01*
X2021636Y898194D01*
X2017775Y899007D01*
X2014474Y901192D01*
X1946656Y969213D01*
X1944268Y971194D01*
X1941677Y974394D01*
X1940560Y978357D01*
X1941118Y982471D01*
X1943252Y985977D01*
X1946656Y988364D01*
X1950669Y989228D01*
X1991360Y989228D01*
X1995119Y988466D01*
X1998319Y986434D01*
X2004060Y980998D01*
X2010359Y977036D01*
X2017318Y974496D01*
X2024634Y973378D01*
X2032050Y973734D01*
X2039213Y975614D01*
X2045868Y978865D01*
X2051761Y983386D01*
X2053691Y985672D01*
X2057146Y988263D01*
X2061413Y989228D01*
X2456789Y989228D01*
X2460701Y988415D01*
X2463952Y986231D01*
X2489504Y960729D01*
X2493213Y957275D01*
X2497074Y954328D01*
X2501188Y951737D01*
X2505506Y949452D01*
X2509977Y947623D01*
X2514600Y946150D01*
X2519375Y945083D01*
X2524150Y944473D01*
X2529230Y944270D01*
X2583688Y944270D01*
X2587904Y943356D01*
X2591358Y940765D01*
X2593441Y937056D01*
X2593746Y932738D01*
X2593340Y929487D01*
X2592222Y926033D01*
X2589987Y923188D01*
X2586837Y921308D01*
X2583281Y920648D01*
X2406853Y920648D01*
X2400554Y919632D01*
X2395982Y917600D01*
X2391613Y914146D01*
X2306015Y828548D01*
X2302713Y826363D01*
X2298801Y825550D01*
G37*

%LPD*%
G36*
X-84226Y739546D02*
G01*
X-88138Y740308D01*
X-91440Y742543D01*
X-164439Y815543D01*
X-169926Y819505D01*
X-174853Y821385D01*
X-180746Y822096D01*
X-425450Y822096D01*
X-429006Y822756D01*
X-432155Y824636D01*
X-434390Y827481D01*
X-435508Y830935D01*
X-435914Y833983D01*
X-437489Y837742D01*
X-439978Y840994D01*
X-443636Y844651D01*
X-444957Y848106D01*
X-444957Y851814D01*
X-443636Y855268D01*
X-439978Y858926D01*
X-437489Y862126D01*
X-435914Y865936D01*
X-435508Y869086D01*
X-434390Y872540D01*
X-432104Y875385D01*
X-429006Y877265D01*
X-425450Y877874D01*
X-359359Y877874D01*
X-355447Y877112D01*
X-352196Y874928D01*
X-338328Y861212D01*
X-333705Y858012D01*
X-328777Y856132D01*
X-322884Y855421D01*
X-1422Y855421D01*
X2336Y854659D01*
X5588Y852627D01*
X9906Y848461D01*
X19608Y842568D01*
X21894Y839673D01*
X23012Y836168D01*
X22809Y832459D01*
X20320Y827735D01*
X17373Y820928D01*
X15900Y813663D01*
X15900Y806246D01*
X17373Y798982D01*
X20320Y792175D01*
X24536Y786079D01*
X29921Y780999D01*
X36220Y777036D01*
X43180Y774496D01*
X55270Y772769D01*
X58724Y770585D01*
X61061Y767232D01*
X61874Y763270D01*
X61874Y756107D01*
X62788Y751738D01*
X62687Y747268D01*
X60706Y743305D01*
X57200Y740511D01*
X52832Y739546D01*
G37*

%LPD*%
G36*
X1590497Y645718D02*
G01*
X1586382Y646582D01*
X1583029Y649020D01*
X1580896Y652576D01*
X1580337Y656691D01*
X1581505Y660704D01*
X1584198Y663905D01*
X1586534Y665734D01*
X1634489Y713892D01*
X1637792Y716076D01*
X1641652Y716889D01*
X1736547Y716889D01*
X1740458Y716076D01*
X1743760Y713841D01*
X1745945Y710539D01*
X1746707Y706628D01*
X1745843Y702716D01*
X1744014Y698398D01*
X1742541Y691134D01*
X1742541Y683768D01*
X1744014Y676503D01*
X1746961Y669645D01*
X1753819Y659993D01*
X1754682Y656082D01*
X1753971Y652119D01*
X1751787Y648766D01*
X1748434Y646531D01*
X1744522Y645718D01*
G37*

%LPD*%
G36*
X2236774Y620572D02*
G01*
X2232863Y621385D01*
X2229561Y623570D01*
X2191207Y661924D01*
X2189022Y665226D01*
X2188210Y669137D01*
X2189022Y672998D01*
X2191207Y676300D01*
X2194509Y678484D01*
X2198370Y679297D01*
X2408986Y679297D01*
X2415286Y680262D01*
X2419807Y682345D01*
X2424226Y685749D01*
X2433523Y695096D01*
X2436672Y697230D01*
X2440381Y698042D01*
X2444140Y697433D01*
X2447442Y695502D01*
X2449779Y692454D01*
X2450795Y688797D01*
X2451658Y679500D01*
X2453944Y671880D01*
X2457704Y664870D01*
X2462784Y658723D01*
X2468930Y653643D01*
X2475941Y649884D01*
X2483561Y647598D01*
X2491536Y646785D01*
X2499461Y647598D01*
X2507081Y649884D01*
X2514092Y653643D01*
X2520238Y658723D01*
X2525318Y664870D01*
X2529078Y671880D01*
X2531364Y679500D01*
X2532176Y687425D01*
X2531364Y695401D01*
X2529078Y703021D01*
X2525318Y710031D01*
X2520238Y716178D01*
X2514142Y721207D01*
X2511552Y724408D01*
X2510434Y728370D01*
X2511044Y732485D01*
X2513177Y735990D01*
X2516530Y738378D01*
X2520594Y739241D01*
X2563723Y739241D01*
X2567635Y738428D01*
X2570937Y736244D01*
X2590342Y716838D01*
X2592527Y713536D01*
X2593289Y709676D01*
X2593289Y670610D01*
X2593949Y665886D01*
X2595473Y662127D01*
X2597962Y658876D01*
X2601620Y655218D01*
X2602941Y651764D01*
X2602941Y648106D01*
X2601620Y644601D01*
X2597962Y640994D01*
X2595473Y637743D01*
X2593949Y633984D01*
X2593340Y629412D01*
X2592222Y625957D01*
X2589936Y623112D01*
X2586837Y621233D01*
X2583281Y620572D01*
G37*

%LPD*%
G36*
X2306878Y510590D02*
G01*
X2302967Y511403D01*
X2299665Y513588D01*
X2251405Y561848D01*
X2249220Y565150D01*
X2248458Y569061D01*
X2249220Y572922D01*
X2251405Y576224D01*
X2254707Y578408D01*
X2258618Y579221D01*
X2583281Y579221D01*
X2586837Y578561D01*
X2589987Y576681D01*
X2592222Y573836D01*
X2593340Y570382D01*
X2593949Y565912D01*
X2595473Y562152D01*
X2597962Y558901D01*
X2601620Y555244D01*
X2602941Y551789D01*
X2602941Y548081D01*
X2601620Y544626D01*
X2597962Y540969D01*
X2595473Y537718D01*
X2593949Y533958D01*
X2593289Y529285D01*
X2593289Y520750D01*
X2592527Y516890D01*
X2590342Y513588D01*
X2587040Y511403D01*
X2583129Y510590D01*
G37*

%LPD*%
G36*
X2291689Y420624D02*
G01*
X2287828Y421385D01*
X2284526Y423621D01*
X2150110Y557987D01*
X2147925Y561289D01*
X2147112Y565200D01*
X2147112Y583082D01*
X2147925Y586943D01*
X2150110Y590245D01*
X2153412Y592429D01*
X2157272Y593242D01*
X2161184Y592429D01*
X2164486Y590245D01*
X2279345Y475386D01*
X2284476Y471678D01*
X2289149Y469900D01*
X2294686Y469239D01*
X2585770Y469239D01*
X2589631Y468426D01*
X2592933Y466242D01*
X2595473Y462127D01*
X2597962Y458876D01*
X2601620Y455218D01*
X2602941Y451764D01*
X2602941Y448056D01*
X2601620Y444601D01*
X2597962Y440943D01*
X2595473Y437743D01*
X2593949Y433984D01*
X2593340Y429463D01*
X2592222Y426008D01*
X2589987Y423164D01*
X2586837Y421284D01*
X2583281Y420624D01*
G37*

%LPD*%
G36*
X2336850Y320598D02*
G01*
X2332939Y321411D01*
X2329637Y323596D01*
X2291384Y361899D01*
X2289149Y365201D01*
X2288387Y369062D01*
X2289149Y372973D01*
X2291384Y376224D01*
X2294636Y378460D01*
X2298547Y379222D01*
X2583281Y379222D01*
X2586837Y378561D01*
X2589987Y376682D01*
X2592222Y373837D01*
X2593340Y370382D01*
X2593949Y365861D01*
X2595473Y362102D01*
X2597962Y358902D01*
X2601620Y355244D01*
X2602941Y351790D01*
X2602941Y348081D01*
X2601620Y344627D01*
X2597962Y340969D01*
X2595473Y337718D01*
X2593949Y333959D01*
X2593340Y329438D01*
X2592222Y325983D01*
X2589987Y323138D01*
X2586837Y321259D01*
X2583281Y320598D01*
G37*

%LPD*%
G36*
X2384348Y220522D02*
G01*
X2380437Y221335D01*
X2377135Y223520D01*
X2338781Y261874D01*
X2336596Y265176D01*
X2335784Y269087D01*
X2336596Y272948D01*
X2338781Y276250D01*
X2342083Y278434D01*
X2345944Y279247D01*
X2583281Y279247D01*
X2586837Y278587D01*
X2589987Y276707D01*
X2592222Y273862D01*
X2593340Y270408D01*
X2593949Y265887D01*
X2595473Y262128D01*
X2597962Y258876D01*
X2601620Y255219D01*
X2602941Y251764D01*
X2602941Y248056D01*
X2601620Y244602D01*
X2597962Y240944D01*
X2595473Y237693D01*
X2593949Y233934D01*
X2593340Y229362D01*
X2592222Y225907D01*
X2589936Y223062D01*
X2586837Y221183D01*
X2583230Y220522D01*
G37*

%LPD*%
G36*
X42367Y208686D02*
G01*
X38506Y209448D01*
X35204Y211632D01*
X-81788Y328625D01*
X-84074Y332130D01*
X-84734Y336245D01*
X-83718Y340309D01*
X-81127Y343560D01*
X-70764Y348843D01*
X-64871Y353364D01*
X-60045Y359003D01*
X-56489Y365506D01*
X-54254Y372567D01*
X-53492Y379933D01*
X-54254Y387299D01*
X-56489Y394360D01*
X-60045Y400862D01*
X-64871Y406501D01*
X-70764Y411022D01*
X-77419Y414274D01*
X-84582Y416153D01*
X-91998Y416509D01*
X-99314Y415391D01*
X-106273Y412851D01*
X-112572Y408889D01*
X-117957Y403809D01*
X-122174Y397713D01*
X-125120Y390906D01*
X-125374Y389534D01*
X-127152Y385521D01*
X-130454Y382676D01*
X-134620Y381457D01*
X-139903Y382422D01*
X-145440Y383082D01*
X-425145Y383082D01*
X-429006Y383895D01*
X-432308Y386080D01*
X-434492Y389382D01*
X-435305Y393242D01*
X-435305Y429310D01*
X-435914Y433984D01*
X-437489Y437743D01*
X-439928Y440994D01*
X-443585Y444652D01*
X-444957Y448106D01*
X-444957Y451815D01*
X-443585Y455269D01*
X-439928Y458927D01*
X-437489Y462178D01*
X-435914Y465937D01*
X-435305Y470560D01*
X-434187Y474014D01*
X-431901Y476859D01*
X-428802Y478739D01*
X-425246Y479399D01*
X-47904Y479399D01*
X-43992Y478586D01*
X-40690Y476402D01*
X65430Y370027D01*
X67614Y366725D01*
X68427Y362864D01*
X68427Y255016D01*
X67564Y251002D01*
X65227Y247650D01*
X61214Y243789D01*
X56946Y237744D01*
X54051Y230886D01*
X52527Y223621D01*
X52527Y218846D01*
X51765Y214934D01*
X49580Y211632D01*
X46278Y209448D01*
G37*

%LPD*%
G36*
X1767636Y189788D02*
G01*
X1763674Y190855D01*
X1761743Y191770D01*
X1754581Y193649D01*
X1741576Y194157D01*
X1737715Y196342D01*
X1732127Y204012D01*
X1658061Y278079D01*
X1654302Y280974D01*
X1650542Y282498D01*
X1645869Y283159D01*
X1560474Y283159D01*
X1557274Y283667D01*
X1554378Y285191D01*
X1550974Y289153D01*
X1549349Y293217D01*
X1549552Y297586D01*
X1555191Y308000D01*
X1557426Y315061D01*
X1558137Y322427D01*
X1557426Y329793D01*
X1555191Y336854D01*
X1551584Y343357D01*
X1546758Y348996D01*
X1542999Y351891D01*
X1540560Y354634D01*
X1539240Y358089D01*
X1539240Y361797D01*
X1540560Y365201D01*
X1542999Y367944D01*
X1546758Y370890D01*
X1551584Y376478D01*
X1555191Y382981D01*
X1557426Y390042D01*
X1558137Y397408D01*
X1557426Y404825D01*
X1555191Y411886D01*
X1551584Y418388D01*
X1546758Y423976D01*
X1540916Y428548D01*
X1534261Y431800D01*
X1527048Y433679D01*
X1519631Y434035D01*
X1515668Y435051D01*
X1512417Y437540D01*
X1506626Y448360D01*
X1501800Y453999D01*
X1495907Y458520D01*
X1489252Y461772D01*
X1482090Y463651D01*
X1474673Y464007D01*
X1467358Y462889D01*
X1460906Y460501D01*
X1457045Y459892D01*
X1453286Y460756D01*
X1450086Y462991D01*
X1447952Y466242D01*
X1447190Y470052D01*
X1447190Y559257D01*
X1446784Y562610D01*
X1447139Y566928D01*
X1449222Y570636D01*
X1452626Y573227D01*
X1456842Y574141D01*
X1826310Y574141D01*
X1832610Y575106D01*
X1837131Y577189D01*
X1841550Y580593D01*
X1845208Y584301D01*
X1848510Y586486D01*
X1852371Y587248D01*
X1856282Y586486D01*
X1859584Y584301D01*
X1861769Y580999D01*
X1862531Y577088D01*
X1862531Y571246D01*
X1864055Y563981D01*
X1866950Y557174D01*
X1871218Y551078D01*
X1876552Y545998D01*
X1882851Y542036D01*
X1889810Y539496D01*
X1897125Y538378D01*
X1904542Y538734D01*
X1911756Y540613D01*
X1918411Y543864D01*
X1923999Y548182D01*
X1927199Y549859D01*
X1930857Y550316D01*
X1934362Y549402D01*
X1937410Y547319D01*
X1947824Y536905D01*
X1950008Y533603D01*
X1950821Y529691D01*
X1950821Y382625D01*
X1951786Y376326D01*
X1953869Y371805D01*
X1957273Y367385D01*
X1997151Y327558D01*
X1999437Y324053D01*
X2000097Y319989D01*
X1999081Y315925D01*
X1996541Y312623D01*
X1992884Y310642D01*
X1988718Y310286D01*
X1985873Y310642D01*
X1956460Y310642D01*
X1952193Y311556D01*
X1948738Y314198D01*
X1946757Y316484D01*
X1940814Y321106D01*
X1935225Y324002D01*
X1932076Y326491D01*
X1930196Y330047D01*
X1929790Y334060D01*
X1930654Y342442D01*
X1929892Y349808D01*
X1927656Y356870D01*
X1924100Y363372D01*
X1919274Y369011D01*
X1913382Y373532D01*
X1906727Y376783D01*
X1899564Y378663D01*
X1892147Y379018D01*
X1884832Y377901D01*
X1877872Y375361D01*
X1871573Y371398D01*
X1866188Y366318D01*
X1861972Y360222D01*
X1859025Y353415D01*
X1857552Y346151D01*
X1857552Y338734D01*
X1859025Y331470D01*
X1861972Y324662D01*
X1866188Y318566D01*
X1871573Y313486D01*
X1877872Y309524D01*
X1882495Y307136D01*
X1884730Y304393D01*
X1885899Y300990D01*
X1885848Y297383D01*
X1885035Y293624D01*
X1885035Y290372D01*
X1884222Y286359D01*
X1881886Y283006D01*
X1878431Y280822D01*
X1874367Y280212D01*
X1869236Y281787D01*
X1862074Y283667D01*
X1854657Y284022D01*
X1847342Y282905D01*
X1840382Y280365D01*
X1835251Y277164D01*
X1831238Y275691D01*
X1826920Y276047D01*
X1823212Y278130D01*
X1820621Y281584D01*
X1819706Y285800D01*
X1819706Y426770D01*
X1820570Y430784D01*
X1822957Y434187D01*
X1826463Y436321D01*
X1831644Y436829D01*
X1839772Y437235D01*
X1847240Y439166D01*
X1854200Y442569D01*
X1860296Y447293D01*
X1865325Y453186D01*
X1869084Y459892D01*
X1871370Y467258D01*
X1872132Y474929D01*
X1871370Y482650D01*
X1869084Y490016D01*
X1865325Y496722D01*
X1860296Y502615D01*
X1854200Y507339D01*
X1847240Y510743D01*
X1839772Y512673D01*
X1832051Y513029D01*
X1824431Y511860D01*
X1817217Y509219D01*
X1810664Y505104D01*
X1805076Y499821D01*
X1800656Y493471D01*
X1797608Y486359D01*
X1796034Y478790D01*
X1796034Y470052D01*
X1795322Y466242D01*
X1793189Y462940D01*
X1783791Y453390D01*
X1780743Y448970D01*
X1779016Y444347D01*
X1778355Y438810D01*
X1778355Y199948D01*
X1777492Y195935D01*
X1775155Y192582D01*
X1771700Y190449D01*
G37*

%LPD*%
G36*
X331774Y155143D02*
G01*
X327761Y155194D01*
X324104Y156768D01*
X321360Y159613D01*
X319887Y163322D01*
X319532Y165150D01*
X317500Y169722D01*
X314045Y174091D01*
X298399Y189738D01*
X296011Y193497D01*
X295503Y197967D01*
X295656Y199847D01*
X294944Y207213D01*
X292709Y214274D01*
X289102Y220776D01*
X284276Y226415D01*
X278434Y230936D01*
X271780Y234188D01*
X264566Y236067D01*
X257149Y236423D01*
X249834Y235305D01*
X242874Y232765D01*
X236575Y228803D01*
X231241Y223723D01*
X227329Y218084D01*
X224332Y215290D01*
X220522Y213867D01*
X216458Y214071D01*
X212750Y215900D01*
X210108Y218998D01*
X209092Y220776D01*
X204266Y226415D01*
X198424Y230936D01*
X191770Y234188D01*
X184556Y236067D01*
X177139Y236423D01*
X169824Y235305D01*
X162864Y232765D01*
X156565Y228803D01*
X151231Y223723D01*
X146964Y217627D01*
X144881Y212699D01*
X142544Y209346D01*
X139039Y207213D01*
X135026Y206552D01*
X131064Y207619D01*
X127812Y210108D01*
X125831Y213664D01*
X125425Y217728D01*
X125628Y219913D01*
X124917Y227329D01*
X122682Y234391D01*
X119075Y240893D01*
X111607Y249123D01*
X110286Y251866D01*
X109778Y254914D01*
X109778Y375462D01*
X108813Y381711D01*
X106781Y386283D01*
X103327Y390652D01*
X-20320Y514604D01*
X-25501Y518312D01*
X-30175Y520090D01*
X-35712Y520750D01*
X-425246Y520750D01*
X-428853Y521411D01*
X-431952Y523290D01*
X-434238Y526135D01*
X-435305Y529590D01*
X-435914Y534009D01*
X-437489Y537768D01*
X-439928Y541020D01*
X-443585Y544626D01*
X-444906Y548081D01*
X-444906Y551789D01*
X-443585Y555244D01*
X-439978Y558901D01*
X-437489Y562152D01*
X-435914Y565912D01*
X-435305Y570585D01*
X-435305Y629259D01*
X-435914Y633984D01*
X-437489Y637743D01*
X-439978Y640994D01*
X-443179Y643432D01*
X-446938Y645007D01*
X-451662Y645617D01*
X-475030Y645617D01*
X-478942Y646430D01*
X-482193Y648614D01*
X-484428Y651916D01*
X-485190Y655777D01*
X-485190Y744067D01*
X-484428Y747979D01*
X-482193Y751281D01*
X-478942Y753465D01*
X-475030Y754227D01*
X-451662Y754227D01*
X-446938Y754888D01*
X-443179Y756412D01*
X-439978Y758901D01*
X-437489Y762152D01*
X-435914Y765911D01*
X-435508Y769162D01*
X-434390Y772617D01*
X-432104Y775462D01*
X-429006Y777341D01*
X-425399Y778002D01*
X-271881Y778002D01*
X-267563Y777036D01*
X-264109Y774395D01*
X-262077Y770483D01*
X-261874Y766114D01*
X-263550Y762050D01*
X-266039Y758444D01*
X-269036Y751382D01*
X-270611Y743813D01*
X-270611Y736092D01*
X-269036Y728522D01*
X-266039Y721461D01*
X-261620Y715111D01*
X-256032Y709777D01*
X-249478Y705713D01*
X-242214Y703021D01*
X-234594Y701852D01*
X-226872Y702259D01*
X-219405Y704189D01*
X-212496Y707593D01*
X-206400Y712317D01*
X-201371Y718159D01*
X-197612Y724916D01*
X-195275Y732282D01*
X-194513Y739952D01*
X-195275Y747623D01*
X-197612Y754989D01*
X-201574Y762101D01*
X-202793Y766064D01*
X-202336Y770178D01*
X-200304Y773734D01*
X-197002Y776224D01*
X-192989Y777189D01*
X-188925Y776478D01*
X-185470Y774242D01*
X-113283Y702005D01*
X-107797Y698042D01*
X-102870Y696163D01*
X-96977Y695452D01*
X129590Y695452D01*
X136194Y696518D01*
X141071Y698652D01*
X145745Y702310D01*
X164642Y721106D01*
X167182Y722934D01*
X170180Y723900D01*
X173329Y723950D01*
X177139Y723341D01*
X184556Y723696D01*
X191719Y725576D01*
X198374Y728827D01*
X204266Y733399D01*
X209092Y738987D01*
X212648Y745490D01*
X214884Y752551D01*
X215646Y759917D01*
X214884Y767334D01*
X212648Y774395D01*
X209092Y780897D01*
X204266Y786485D01*
X198374Y791057D01*
X191719Y794308D01*
X184556Y796188D01*
X177139Y796544D01*
X169824Y795426D01*
X162864Y792835D01*
X156565Y788924D01*
X151180Y783793D01*
X148691Y780237D01*
X145745Y777443D01*
X141935Y776020D01*
X137820Y776224D01*
X134162Y778002D01*
X126136Y787603D01*
X120040Y792327D01*
X113080Y795731D01*
X105613Y797661D01*
X98501Y798017D01*
X94742Y798931D01*
X91592Y801217D01*
X89509Y804519D01*
X88849Y808380D01*
X88950Y811377D01*
X89712Y815086D01*
X91846Y818286D01*
X97739Y824230D01*
X100939Y828903D01*
X102819Y833831D01*
X103530Y839724D01*
X103530Y899718D01*
X102463Y906424D01*
X100279Y911250D01*
X96621Y915924D01*
X74574Y937971D01*
X72390Y941222D01*
X71628Y945134D01*
X72390Y949045D01*
X74574Y952296D01*
X77876Y954532D01*
X81788Y955294D01*
X113334Y955294D01*
X117246Y954532D01*
X120548Y952296D01*
X332994Y739902D01*
X335178Y736549D01*
X335940Y732586D01*
X335127Y728624D01*
X332790Y725322D01*
X331216Y723798D01*
X326948Y717753D01*
X324053Y710895D01*
X322529Y703630D01*
X322529Y696264D01*
X324053Y689000D01*
X326948Y682142D01*
X331216Y676097D01*
X336550Y670966D01*
X342849Y667054D01*
X349808Y664464D01*
X357124Y663346D01*
X364540Y663702D01*
X371754Y665581D01*
X378409Y668832D01*
X384251Y673404D01*
X388010Y676757D01*
X391515Y677875D01*
X395173Y677672D01*
X398576Y676198D01*
X406552Y668477D01*
X412851Y664565D01*
X419709Y662025D01*
X423113Y659892D01*
X425450Y656590D01*
X426313Y652678D01*
X425602Y648665D01*
X423367Y645312D01*
X412597Y634593D01*
X409295Y630732D01*
X406044Y625043D01*
X404063Y618947D01*
X403352Y612089D01*
X403352Y195376D01*
X402539Y191363D01*
X400202Y188010D01*
X396697Y185877D01*
X392684Y185216D01*
X387604Y186791D01*
X380390Y188671D01*
X372973Y189026D01*
X365658Y187909D01*
X358698Y185369D01*
X352399Y181406D01*
X347065Y176326D01*
X342798Y170230D01*
X338277Y159410D01*
X335432Y156616D01*
G37*

%LPD*%
G36*
X2431846Y120446D02*
G01*
X2427935Y121259D01*
X2424633Y123444D01*
X2386330Y161798D01*
X2384094Y165100D01*
X2383332Y169011D01*
X2384094Y172872D01*
X2386330Y176174D01*
X2389632Y178358D01*
X2393492Y179171D01*
X2583281Y179171D01*
X2586837Y178511D01*
X2589987Y176631D01*
X2592222Y173786D01*
X2593340Y170332D01*
X2593949Y165862D01*
X2595473Y162102D01*
X2597962Y158851D01*
X2601620Y155194D01*
X2602941Y151739D01*
X2602941Y148082D01*
X2601620Y144576D01*
X2597962Y140970D01*
X2595473Y137718D01*
X2593949Y133959D01*
X2593340Y129285D01*
X2592222Y125831D01*
X2589936Y122986D01*
X2586837Y121107D01*
X2583230Y120446D01*
G37*

%LPD*%
G36*
X-219913Y98094D02*
G01*
X-223824Y98907D01*
X-227126Y101092D01*
X-340410Y214375D01*
X-345541Y218084D01*
X-350215Y219862D01*
X-355752Y220522D01*
X-425246Y220522D01*
X-428802Y221183D01*
X-431901Y223062D01*
X-434187Y225907D01*
X-435305Y229362D01*
X-435914Y234035D01*
X-437489Y237794D01*
X-439928Y240995D01*
X-443585Y244652D01*
X-444906Y248107D01*
X-444906Y251815D01*
X-443585Y255270D01*
X-439928Y258927D01*
X-437489Y262128D01*
X-435914Y265938D01*
X-435305Y270611D01*
X-435305Y306679D01*
X-434492Y310540D01*
X-432308Y313842D01*
X-429006Y316026D01*
X-425145Y316839D01*
X-170332Y316839D01*
X-166420Y316026D01*
X-163118Y313842D01*
X17729Y132994D01*
X22860Y129285D01*
X27533Y127508D01*
X33070Y126847D01*
X132384Y126847D01*
X136296Y126034D01*
X139598Y123850D01*
X141782Y120548D01*
X143764Y110337D01*
X143662Y105867D01*
X141681Y101854D01*
X138176Y99110D01*
X133807Y98094D01*
G37*

%LPD*%
G36*
X2479344Y20624D02*
G01*
X2475433Y21437D01*
X2472131Y23622D01*
X2434031Y61722D01*
X2431846Y65024D01*
X2431034Y68935D01*
X2431846Y72796D01*
X2434031Y76098D01*
X2437333Y78282D01*
X2441194Y79095D01*
X2583281Y79095D01*
X2586837Y78435D01*
X2589987Y76555D01*
X2592222Y73710D01*
X2593340Y70256D01*
X2593949Y65887D01*
X2595473Y62128D01*
X2597962Y58877D01*
X2601620Y55219D01*
X2602941Y51765D01*
X2602941Y48056D01*
X2601620Y44602D01*
X2597962Y40944D01*
X2595473Y37693D01*
X2593949Y33934D01*
X2593340Y29464D01*
X2592222Y26009D01*
X2589987Y23164D01*
X2586837Y21285D01*
X2583281Y20624D01*
G37*

%LPD*%
G36*
X-339242Y9296D02*
G01*
X-343154Y10058D01*
X-346456Y12242D01*
X-348640Y15544D01*
X-349453Y19456D01*
X-349504Y35915D01*
X-350418Y41148D01*
X-352501Y45669D01*
X-355904Y50088D01*
X-420065Y114249D01*
X-424484Y117652D01*
X-429310Y119837D01*
X-432155Y121767D01*
X-434238Y124612D01*
X-435203Y127914D01*
X-435914Y134112D01*
X-437489Y137769D01*
X-439928Y141020D01*
X-443585Y144678D01*
X-444906Y148132D01*
X-444906Y151841D01*
X-443585Y155295D01*
X-439928Y158953D01*
X-437489Y162153D01*
X-435914Y165963D01*
X-435356Y170332D01*
X-434238Y173786D01*
X-431952Y176631D01*
X-428853Y178511D01*
X-425246Y179171D01*
X-367944Y179171D01*
X-364032Y178358D01*
X-360730Y176174D01*
X-262534Y77978D01*
X-260350Y74726D01*
X-259588Y70815D01*
X-260350Y66954D01*
X-262534Y63652D01*
X-265785Y61417D01*
X-269646Y60655D01*
X-276047Y60604D01*
X-281279Y59639D01*
X-285800Y57607D01*
X-290220Y54152D01*
X-332079Y12293D01*
X-335381Y10058D01*
G37*

%LPD*%
G36*
X2524302Y-79451D02*
G01*
X2520391Y-78638D01*
X2517089Y-76454D01*
X2478735Y-38100D01*
X2476550Y-34798D01*
X2475738Y-30886D01*
X2476550Y-27025D01*
X2478735Y-23723D01*
X2482037Y-21539D01*
X2485898Y-20726D01*
X2583281Y-20726D01*
X2586837Y-21386D01*
X2589936Y-23266D01*
X2592222Y-26111D01*
X2593340Y-29565D01*
X2593949Y-34137D01*
X2595473Y-37896D01*
X2597962Y-41148D01*
X2601620Y-44805D01*
X2602941Y-48260D01*
X2602941Y-51968D01*
X2601620Y-55422D01*
X2597962Y-59080D01*
X2595473Y-62280D01*
X2593949Y-66040D01*
X2593340Y-70612D01*
X2592222Y-74066D01*
X2589936Y-76911D01*
X2586837Y-78790D01*
X2583281Y-79451D01*
G37*

%LPD*%
G36*
X-425246Y-79451D02*
G01*
X-428802Y-78790D01*
X-431952Y-76911D01*
X-434187Y-74066D01*
X-435305Y-70612D01*
X-435914Y-65989D01*
X-437489Y-62230D01*
X-439978Y-58978D01*
X-443179Y-56489D01*
X-446938Y-54965D01*
X-451662Y-54356D01*
X-475030Y-54356D01*
X-478942Y-53543D01*
X-482193Y-51358D01*
X-484428Y-48056D01*
X-485190Y-44196D01*
X-485190Y44094D01*
X-484428Y48006D01*
X-482193Y51308D01*
X-478942Y53492D01*
X-475030Y54254D01*
X-451662Y54254D01*
X-446938Y54914D01*
X-443179Y56438D01*
X-436524Y61925D01*
X-432409Y63093D01*
X-428142Y62484D01*
X-424535Y60147D01*
X-393801Y29413D01*
X-391617Y26111D01*
X-390804Y22199D01*
X-390804Y-17983D01*
X-391668Y-21996D01*
X-394004Y-25349D01*
X-399084Y-30226D01*
X-403504Y-36576D01*
X-406552Y-43637D01*
X-408127Y-51206D01*
X-408127Y-58928D01*
X-406400Y-67208D01*
X-406501Y-71678D01*
X-408482Y-75692D01*
X-411988Y-78435D01*
X-416356Y-79451D01*
G37*

%LPD*%
G36*
X2253792Y-111404D02*
G01*
X2249932Y-110642D01*
X2246630Y-108407D01*
X2003755Y134467D01*
X1998573Y138176D01*
X1993950Y139954D01*
X1988413Y140614D01*
X1956460Y140614D01*
X1952193Y141579D01*
X1948738Y144170D01*
X1946757Y146507D01*
X1940915Y151028D01*
X1934260Y154279D01*
X1927047Y156159D01*
X1919630Y156514D01*
X1912315Y155397D01*
X1905355Y152857D01*
X1899056Y148894D01*
X1893722Y143814D01*
X1889455Y137718D01*
X1886559Y130911D01*
X1885035Y123647D01*
X1885035Y116230D01*
X1885442Y111252D01*
X1884273Y107848D01*
X1881987Y105054D01*
X1877872Y102870D01*
X1871573Y98907D01*
X1866188Y93827D01*
X1861972Y87731D01*
X1859025Y80924D01*
X1857552Y73660D01*
X1857552Y66243D01*
X1859025Y58978D01*
X1861972Y52171D01*
X1866188Y46075D01*
X1871573Y40995D01*
X1877872Y37033D01*
X1882038Y34848D01*
X1884273Y32054D01*
X1885442Y28651D01*
X1885035Y23622D01*
X1885035Y16256D01*
X1885442Y11226D01*
X1884273Y7823D01*
X1881987Y5080D01*
X1877872Y2844D01*
X1871573Y-1066D01*
X1866188Y-6197D01*
X1861972Y-12242D01*
X1859025Y-19100D01*
X1857552Y-26365D01*
X1857552Y-33731D01*
X1859025Y-40995D01*
X1861972Y-47853D01*
X1866188Y-53898D01*
X1871573Y-59029D01*
X1877872Y-62941D01*
X1884832Y-65532D01*
X1892147Y-66649D01*
X1896364Y-66446D01*
X1900529Y-67106D01*
X1904085Y-69392D01*
X1906676Y-71983D01*
X1908860Y-75285D01*
X1909622Y-79197D01*
X1908860Y-83058D01*
X1906676Y-86360D01*
X1903374Y-88544D01*
X1899462Y-89357D01*
X1780336Y-89357D01*
X1776272Y-88493D01*
X1772869Y-86055D01*
X1770735Y-82448D01*
X1770227Y-78333D01*
X1771446Y-74320D01*
X1774139Y-71120D01*
X1776780Y-69088D01*
X1781606Y-63500D01*
X1785162Y-56997D01*
X1787398Y-49936D01*
X1788160Y-42570D01*
X1787956Y-40640D01*
X1788515Y-36220D01*
X1790903Y-32461D01*
X1814220Y-9093D01*
X1817268Y-4622D01*
X1819046Y50D01*
X1819706Y5588D01*
X1819706Y209092D01*
X1820621Y213309D01*
X1823212Y216763D01*
X1826920Y218846D01*
X1831238Y219202D01*
X1835251Y217728D01*
X1840382Y214528D01*
X1847342Y211988D01*
X1854657Y210870D01*
X1862074Y211226D01*
X1869236Y213106D01*
X1875891Y216357D01*
X1881784Y220878D01*
X1886610Y226517D01*
X1890166Y233019D01*
X1892401Y240080D01*
X1893214Y248005D01*
X1894230Y251510D01*
X1896465Y254457D01*
X1899615Y256438D01*
X1903222Y257149D01*
X1906828Y256489D01*
X1912315Y254457D01*
X1919630Y253339D01*
X1927047Y253695D01*
X1934260Y255574D01*
X1940915Y258825D01*
X1946757Y263398D01*
X1948738Y265684D01*
X1952193Y268325D01*
X1956460Y269240D01*
X1973732Y269240D01*
X1977593Y268478D01*
X1980895Y266242D01*
X2312060Y-64871D01*
X2314295Y-68173D01*
X2315057Y-72085D01*
X2315057Y-74066D01*
X2314397Y-77673D01*
X2312466Y-80822D01*
X2309571Y-83108D01*
X2306015Y-84175D01*
X2294636Y-83464D01*
X2287320Y-84582D01*
X2280361Y-87122D01*
X2274062Y-91084D01*
X2268677Y-96164D01*
X2264460Y-102260D01*
X2263140Y-105257D01*
X2260955Y-108508D01*
X2257653Y-110642D01*
G37*

%LPD*%
G36*
X-310083Y-164287D02*
G01*
X-313994Y-163474D01*
X-317296Y-161290D01*
X-368808Y-109728D01*
X-371144Y-106172D01*
X-371805Y-102006D01*
X-370687Y-97891D01*
X-367995Y-94640D01*
X-364185Y-92710D01*
X-356920Y-90830D01*
X-349961Y-87426D01*
X-343865Y-82702D01*
X-338836Y-76860D01*
X-335076Y-70104D01*
X-332790Y-62738D01*
X-332028Y-55067D01*
X-332333Y-51816D01*
X-331825Y-47345D01*
X-329438Y-43586D01*
X-269544Y16256D01*
X-266242Y18491D01*
X-262382Y19253D01*
X-45720Y19253D01*
X-41351Y18288D01*
X-37846Y15494D01*
X-35864Y11531D01*
X-35763Y7061D01*
X-36474Y3708D01*
X-36474Y-3708D01*
X-34950Y-10972D01*
X-32054Y-17780D01*
X-27787Y-23876D01*
X-22453Y-28956D01*
X-16154Y-32918D01*
X-9194Y-35458D01*
X-1879Y-36576D01*
X5537Y-36220D01*
X12750Y-34340D01*
X19405Y-31089D01*
X25247Y-26568D01*
X30073Y-20929D01*
X33680Y-14427D01*
X35915Y-7366D01*
X36626Y0D01*
X35814Y8077D01*
X36271Y12242D01*
X38404Y15900D01*
X41808Y18389D01*
X45923Y19253D01*
X184658Y19253D01*
X188518Y18491D01*
X191820Y16256D01*
X194056Y12954D01*
X194818Y9093D01*
X194056Y5181D01*
X191820Y1930D01*
X28651Y-161290D01*
X25349Y-163474D01*
X21437Y-164287D01*
G37*

%LPD*%
G36*
X2543556Y-179425D02*
G01*
X2539847Y-178714D01*
X2536647Y-176682D01*
X2534412Y-173685D01*
X2533446Y-170027D01*
X2533853Y-166319D01*
X2536342Y-157988D01*
X2537155Y-150063D01*
X2536342Y-142138D01*
X2533853Y-133908D01*
X2533446Y-130200D01*
X2534462Y-126542D01*
X2536698Y-123545D01*
X2539898Y-121513D01*
X2543606Y-120802D01*
X2583281Y-120802D01*
X2586837Y-121462D01*
X2589987Y-123342D01*
X2592222Y-126187D01*
X2593340Y-129641D01*
X2593949Y-134162D01*
X2595473Y-137922D01*
X2597962Y-141122D01*
X2601620Y-144780D01*
X2602941Y-148234D01*
X2602941Y-151942D01*
X2601620Y-155397D01*
X2597962Y-159054D01*
X2595473Y-162306D01*
X2593949Y-166065D01*
X2593340Y-170586D01*
X2592222Y-174040D01*
X2589987Y-176885D01*
X2586837Y-178765D01*
X2583281Y-179425D01*
G37*

%LPD*%
G36*
X-425145Y-199339D02*
G01*
X-429006Y-198526D01*
X-432308Y-196342D01*
X-434492Y-193040D01*
X-435305Y-189179D01*
X-435305Y-170688D01*
X-435914Y-165963D01*
X-437489Y-162204D01*
X-439928Y-159004D01*
X-443585Y-155346D01*
X-444906Y-151892D01*
X-444906Y-148183D01*
X-443585Y-144729D01*
X-439978Y-141071D01*
X-437489Y-137820D01*
X-435914Y-134061D01*
X-435356Y-129641D01*
X-434238Y-126187D01*
X-431952Y-123342D01*
X-428853Y-121462D01*
X-425246Y-120802D01*
X-420522Y-120802D01*
X-416610Y-121615D01*
X-413308Y-123799D01*
X-355142Y-181965D01*
X-352958Y-185267D01*
X-352145Y-189179D01*
X-352958Y-193040D01*
X-355142Y-196342D01*
X-358444Y-198526D01*
X-362305Y-199339D01*
G37*

%LPD*%
G36*
X2359355Y-279400D02*
G01*
X2355443Y-278638D01*
X2352141Y-276453D01*
X2313889Y-238150D01*
X2311654Y-234848D01*
X2310892Y-230936D01*
X2311654Y-227075D01*
X2313889Y-223774D01*
X2317140Y-221589D01*
X2321052Y-220776D01*
X2583281Y-220776D01*
X2586837Y-221437D01*
X2589987Y-223316D01*
X2592222Y-226161D01*
X2593340Y-229616D01*
X2593949Y-234137D01*
X2595473Y-237896D01*
X2597962Y-241147D01*
X2601620Y-244805D01*
X2602941Y-248259D01*
X2602941Y-251967D01*
X2601620Y-255422D01*
X2597962Y-259079D01*
X2595473Y-262331D01*
X2593949Y-266090D01*
X2593340Y-270560D01*
X2592222Y-274015D01*
X2589987Y-276860D01*
X2586837Y-278739D01*
X2583281Y-279400D01*
G37*

%LPD*%
G36*
X180492Y-309321D02*
G01*
X176733Y-308559D01*
X173482Y-306527D01*
X171246Y-303377D01*
X170332Y-299669D01*
X170891Y-295859D01*
X172770Y-292506D01*
X174091Y-290982D01*
X177698Y-284480D01*
X179933Y-277418D01*
X180644Y-270052D01*
X179933Y-262686D01*
X177698Y-255625D01*
X174091Y-249123D01*
X169265Y-243484D01*
X163423Y-238963D01*
X156768Y-235712D01*
X149555Y-233832D01*
X142138Y-233476D01*
X134823Y-234594D01*
X132029Y-235610D01*
X127965Y-236220D01*
X124002Y-235204D01*
X120802Y-232714D01*
X118821Y-229108D01*
X117703Y-225602D01*
X114096Y-219100D01*
X109270Y-213512D01*
X103428Y-208940D01*
X96774Y-205689D01*
X89560Y-203809D01*
X77927Y-203555D01*
X68783Y-199948D01*
X65379Y-197815D01*
X63093Y-194513D01*
X62230Y-190550D01*
X62991Y-186639D01*
X65227Y-183286D01*
X248869Y406D01*
X252018Y2540D01*
X255676Y3352D01*
X264617Y3708D01*
X271780Y5588D01*
X278434Y8839D01*
X284276Y13360D01*
X289102Y18999D01*
X292709Y25501D01*
X294944Y32562D01*
X295656Y39928D01*
X294944Y47294D01*
X292354Y55422D01*
X291896Y59080D01*
X292760Y62636D01*
X294843Y65684D01*
X315010Y85902D01*
X318109Y90373D01*
X319887Y94996D01*
X320548Y100584D01*
X320548Y137109D01*
X321310Y140970D01*
X323494Y144272D01*
X326745Y146507D01*
X330606Y147269D01*
X334518Y146558D01*
X337820Y144373D01*
X340055Y141122D01*
X342798Y134670D01*
X347065Y128574D01*
X352399Y123494D01*
X358698Y119532D01*
X365658Y116992D01*
X372973Y115874D01*
X380390Y116230D01*
X387604Y118110D01*
X394258Y121361D01*
X400100Y125882D01*
X404926Y131521D01*
X408076Y137210D01*
X411073Y140563D01*
X415239Y142290D01*
X419709Y142036D01*
X423672Y139903D01*
X426313Y136245D01*
X426974Y134670D01*
X431241Y128574D01*
X436575Y123494D01*
X444246Y118872D01*
X447293Y116027D01*
X448919Y112268D01*
X448970Y108153D01*
X447344Y104343D01*
X444449Y100228D01*
X441553Y93421D01*
X440029Y86156D01*
X440029Y78740D01*
X441553Y71475D01*
X444449Y64668D01*
X448716Y58572D01*
X454050Y53492D01*
X460349Y49530D01*
X467309Y46990D01*
X474624Y45872D01*
X482041Y46228D01*
X489254Y48107D01*
X495909Y51358D01*
X501751Y55880D01*
X506577Y61518D01*
X510184Y68021D01*
X512419Y75082D01*
X513130Y82448D01*
X512419Y89814D01*
X510184Y96875D01*
X506577Y103378D01*
X501751Y109016D01*
X495909Y113537D01*
X492048Y115417D01*
X489102Y117652D01*
X487121Y120751D01*
X486359Y124358D01*
X486968Y127965D01*
X492709Y138023D01*
X494944Y145084D01*
X495655Y152450D01*
X494944Y159816D01*
X492709Y166878D01*
X489102Y173380D01*
X484276Y179019D01*
X478434Y183540D01*
X470509Y187350D01*
X467461Y189585D01*
X465429Y192786D01*
X464718Y196494D01*
X464718Y595680D01*
X465531Y599541D01*
X467715Y602843D01*
X608634Y743762D01*
X611936Y745947D01*
X615797Y746760D01*
X719480Y746760D01*
X723849Y745744D01*
X727354Y743000D01*
X729335Y738936D01*
X729437Y734466D01*
X727557Y730402D01*
X725474Y727760D01*
X723950Y724001D01*
X723341Y719277D01*
X723341Y520598D01*
X723950Y515924D01*
X725474Y512114D01*
X728370Y508355D01*
X807466Y429310D01*
X811225Y426415D01*
X814984Y424840D01*
X819658Y424230D01*
X1008329Y424230D01*
X1012190Y423468D01*
X1015492Y421284D01*
X1035354Y401421D01*
X1037539Y398119D01*
X1038301Y394208D01*
X1038301Y285699D01*
X1037640Y282092D01*
X1035710Y278942D01*
X1032814Y276707D01*
X1029309Y275640D01*
X1024585Y276148D01*
X1017168Y276504D01*
X1009853Y275386D01*
X1003300Y272999D01*
X999083Y272389D01*
X994968Y273558D01*
X991717Y276301D01*
X989634Y278993D01*
X910590Y358089D01*
X906830Y360984D01*
X903071Y362508D01*
X898347Y363118D01*
X727202Y363118D01*
X722477Y362508D01*
X718718Y360984D01*
X714959Y358089D01*
X595528Y238658D01*
X592632Y236626D01*
X589280Y235712D01*
X584708Y236270D01*
X577291Y236626D01*
X569976Y235508D01*
X563016Y232968D01*
X556717Y229006D01*
X551332Y223926D01*
X546760Y217373D01*
X542036Y211582D01*
X538734Y205028D01*
X536803Y197815D01*
X536346Y192024D01*
X536346Y138328D01*
X535076Y131114D01*
X535076Y123748D01*
X536346Y116535D01*
X536346Y-188772D01*
X535533Y-192633D01*
X533349Y-195935D01*
X522681Y-206603D01*
X519226Y-208889D01*
X515112Y-209600D01*
X511098Y-208584D01*
X507796Y-206095D01*
X505764Y-202488D01*
X505206Y-200609D01*
X501599Y-194106D01*
X496773Y-188518D01*
X490931Y-183946D01*
X484276Y-180695D01*
X477062Y-178816D01*
X469646Y-178460D01*
X462330Y-179578D01*
X455371Y-182168D01*
X449072Y-186080D01*
X443738Y-191211D01*
X439470Y-197256D01*
X437438Y-202082D01*
X435457Y-205079D01*
X432562Y-207162D01*
X429107Y-208178D01*
X425551Y-207873D01*
X419557Y-206349D01*
X412140Y-205994D01*
X404825Y-207111D01*
X397865Y-209651D01*
X391566Y-213614D01*
X386232Y-218694D01*
X381965Y-224790D01*
X379069Y-231597D01*
X377545Y-238861D01*
X377748Y-250444D01*
X376631Y-253796D01*
X374345Y-256590D01*
X371246Y-258419D01*
X367893Y-259638D01*
X361594Y-263601D01*
X355701Y-269189D01*
X352501Y-271221D01*
X348691Y-271983D01*
X320802Y-271983D01*
X316941Y-271170D01*
X313639Y-268986D01*
X311454Y-265684D01*
X310642Y-261823D01*
X311454Y-257911D01*
X313639Y-254609D01*
X408787Y-159461D01*
X411276Y-157632D01*
X414121Y-156667D01*
X424586Y-156159D01*
X431800Y-154279D01*
X438454Y-151028D01*
X444296Y-146507D01*
X449122Y-140868D01*
X452729Y-134366D01*
X454964Y-127304D01*
X455676Y-119938D01*
X454964Y-112572D01*
X452729Y-105511D01*
X449122Y-99009D01*
X444296Y-93370D01*
X438454Y-88849D01*
X431800Y-85598D01*
X424586Y-83718D01*
X417169Y-83362D01*
X409854Y-84480D01*
X402894Y-87020D01*
X396595Y-90982D01*
X391261Y-96062D01*
X386994Y-102158D01*
X384098Y-108966D01*
X382574Y-116230D01*
X382574Y-122935D01*
X381812Y-126796D01*
X379628Y-130098D01*
X203403Y-306324D01*
X200101Y-308508D01*
X196189Y-309321D01*
G37*

%LPC*%
G36*
X337159Y-76657D02*
G01*
X344576Y-76301D01*
X351739Y-74422D01*
X358394Y-71170D01*
X364286Y-66598D01*
X369112Y-61010D01*
X372668Y-54508D01*
X374904Y-47447D01*
X375666Y-40081D01*
X374904Y-32664D01*
X372668Y-25603D01*
X369112Y-19100D01*
X364286Y-13512D01*
X358394Y-8940D01*
X351739Y-5689D01*
X344576Y-3810D01*
X337159Y-3454D01*
X329844Y-4572D01*
X322884Y-7162D01*
X316585Y-11074D01*
X311200Y-16205D01*
X306984Y-22250D01*
X304038Y-29108D01*
X302564Y-36372D01*
X302564Y-43738D01*
X304038Y-51003D01*
X306984Y-57861D01*
X311200Y-63906D01*
X316585Y-69037D01*
X322884Y-72948D01*
X329844Y-75539D01*
G37*
G36*
X389636Y3352D02*
G01*
X397052Y3708D01*
X404266Y5588D01*
X410921Y8839D01*
X416763Y13411D01*
X421589Y18999D01*
X425196Y25501D01*
X427431Y32562D01*
X428142Y39928D01*
X427431Y47345D01*
X425196Y54406D01*
X421589Y60909D01*
X416763Y66497D01*
X410921Y71069D01*
X404266Y74320D01*
X397052Y76200D01*
X389636Y76555D01*
X382320Y75438D01*
X375361Y72847D01*
X369062Y68935D01*
X363728Y63804D01*
X359460Y57759D01*
X356565Y50901D01*
X355041Y43637D01*
X355041Y36271D01*
X356565Y29006D01*
X359460Y22148D01*
X363728Y16103D01*
X369062Y10972D01*
X375361Y7061D01*
X382320Y4470D01*
G37*

%LPD*%
G36*
X635609Y-375056D02*
G01*
X631799Y-374345D01*
X628548Y-372262D01*
X579678Y-325577D01*
X577342Y-322224D01*
X576529Y-318160D01*
X576834Y-257302D01*
X577596Y-253441D01*
X579780Y-250190D01*
X596595Y-233375D01*
X601675Y-227126D01*
X605078Y-220421D01*
X607060Y-213055D01*
X607517Y-207162D01*
X607517Y116179D01*
X608228Y119887D01*
X608990Y127406D01*
X607517Y138684D01*
X607517Y172161D01*
X608126Y175615D01*
X613562Y185267D01*
X615848Y192532D01*
X616610Y200050D01*
X615848Y207568D01*
X613562Y214833D01*
X610260Y220776D01*
X609041Y224942D01*
X609600Y229209D01*
X611987Y232867D01*
X723544Y344474D01*
X726846Y346659D01*
X730707Y347421D01*
X894791Y347421D01*
X898702Y346659D01*
X902004Y344474D01*
X976020Y270408D01*
X978255Y267106D01*
X979017Y263245D01*
X979017Y194157D01*
X978255Y190246D01*
X976020Y186944D01*
X839724Y50647D01*
X839012Y48920D01*
X839012Y-70815D01*
X837895Y-76200D01*
X836117Y-79705D01*
X833170Y-82245D01*
X829462Y-83515D01*
X817118Y-82651D01*
X809650Y-83820D01*
X802538Y-86410D01*
X796086Y-90424D01*
X790600Y-95656D01*
X786282Y-101904D01*
X783285Y-108864D01*
X781761Y-116281D01*
X781761Y-123850D01*
X783285Y-131267D01*
X786282Y-138226D01*
X790600Y-144475D01*
X796086Y-149707D01*
X802538Y-153720D01*
X809650Y-156311D01*
X817118Y-157480D01*
X824687Y-157073D01*
X829970Y-156413D01*
X833526Y-157480D01*
X836421Y-159715D01*
X838352Y-162864D01*
X839012Y-166522D01*
X839012Y-213156D01*
X838200Y-217170D01*
X835863Y-220522D01*
X833119Y-223164D01*
X828751Y-229362D01*
X825753Y-236321D01*
X824230Y-243738D01*
X824230Y-251358D01*
X825753Y-258775D01*
X828751Y-265734D01*
X833119Y-271932D01*
X835863Y-274574D01*
X838200Y-277926D01*
X839012Y-281940D01*
X839012Y-320852D01*
X838250Y-324713D01*
X836015Y-328015D01*
X833424Y-330657D01*
X830122Y-332841D01*
X826262Y-333654D01*
X813053Y-333705D01*
X807618Y-334670D01*
X802944Y-336804D01*
X798372Y-340360D01*
X766673Y-372059D01*
X763371Y-374294D01*
X759460Y-375056D01*
G37*

%LPD*%
G36*
X1559610Y-375056D02*
G01*
X1555038Y-373989D01*
X1546961Y-369925D01*
X1539697Y-368046D01*
X1532128Y-367639D01*
X1524609Y-368808D01*
X1512620Y-373278D01*
X1508150Y-372770D01*
X1504340Y-370382D01*
X1498396Y-364439D01*
X1496212Y-361137D01*
X1495399Y-357276D01*
X1495399Y-303123D01*
X1495907Y-300075D01*
X1497228Y-297281D01*
X1499819Y-294690D01*
X1504746Y-288950D01*
X1508455Y-282346D01*
X1510690Y-275082D01*
X1511452Y-267563D01*
X1510690Y-260045D01*
X1508455Y-252831D01*
X1504086Y-245059D01*
X1502918Y-241808D01*
X1502918Y-238353D01*
X1504086Y-235051D01*
X1508455Y-227329D01*
X1510690Y-220116D01*
X1511452Y-212598D01*
X1510690Y-205028D01*
X1508455Y-197815D01*
X1504746Y-191160D01*
X1499819Y-185420D01*
X1493824Y-180797D01*
X1487017Y-177444D01*
X1479702Y-175564D01*
X1472133Y-175158D01*
X1464614Y-176326D01*
X1457502Y-178917D01*
X1450187Y-183540D01*
X1447596Y-184658D01*
X1444802Y-185064D01*
X1184097Y-185064D01*
X1180287Y-184302D01*
X1177036Y-182219D01*
X1171194Y-174396D01*
X1085900Y-89103D01*
X1083716Y-85801D01*
X1082903Y-81940D01*
X1082903Y37388D01*
X1081887Y43942D01*
X1079754Y48615D01*
X1076198Y53187D01*
X1056995Y72390D01*
X1054811Y75692D01*
X1053998Y79552D01*
X1053998Y157937D01*
X1054506Y160985D01*
X1055725Y164896D01*
X1056487Y172415D01*
X1055725Y179984D01*
X1054506Y183896D01*
X1053998Y186944D01*
X1053998Y225399D01*
X1054506Y228447D01*
X1055725Y232410D01*
X1056487Y239928D01*
X1055725Y247446D01*
X1054506Y251409D01*
X1053998Y254457D01*
X1053998Y312724D01*
X1054760Y316484D01*
X1056792Y319735D01*
X1059942Y321970D01*
X1064717Y322935D01*
X1072032Y324815D01*
X1078839Y328168D01*
X1084834Y332790D01*
X1089761Y338531D01*
X1093470Y345186D01*
X1095705Y352399D01*
X1096467Y359918D01*
X1095705Y367487D01*
X1093470Y374700D01*
X1089761Y381355D01*
X1084834Y387096D01*
X1078839Y391718D01*
X1072032Y395071D01*
X1064717Y396951D01*
X1063193Y397052D01*
X1059027Y398170D01*
X1055725Y400964D01*
X1053287Y405638D01*
X1019708Y439216D01*
X1018032Y439928D01*
X823214Y439928D01*
X819353Y440690D01*
X816051Y442925D01*
X741984Y516940D01*
X739800Y520242D01*
X739038Y524154D01*
X739038Y715721D01*
X739800Y719632D01*
X741984Y722934D01*
X762050Y742950D01*
X765352Y745134D01*
X769213Y745947D01*
X929843Y745947D01*
X936904Y746658D01*
X943152Y748690D01*
X945337Y750011D01*
X949401Y751281D01*
X953668Y750824D01*
X957326Y748690D01*
X959764Y745185D01*
X961237Y741781D01*
X965606Y735533D01*
X971092Y730300D01*
X977493Y726287D01*
X984605Y723696D01*
X992124Y722528D01*
X999693Y722934D01*
X1007008Y724814D01*
X1013815Y728167D01*
X1019810Y732790D01*
X1021232Y734466D01*
X1024483Y736955D01*
X1028446Y737971D01*
X1032459Y737362D01*
X1035964Y735177D01*
X1041095Y730300D01*
X1047496Y726287D01*
X1054608Y723696D01*
X1062126Y722528D01*
X1069695Y722934D01*
X1077010Y724814D01*
X1083818Y728167D01*
X1089812Y732790D01*
X1095197Y739038D01*
X1098042Y741375D01*
X1101547Y742492D01*
X1105255Y742340D01*
X1108608Y740816D01*
X1111250Y738225D01*
X1113129Y735533D01*
X1118616Y730300D01*
X1125016Y726287D01*
X1132128Y723696D01*
X1139647Y722528D01*
X1147216Y722934D01*
X1154531Y724814D01*
X1161338Y728167D01*
X1167333Y732790D01*
X1172667Y739038D01*
X1175562Y741324D01*
X1179068Y742492D01*
X1182725Y742289D01*
X1186129Y740816D01*
X1188720Y738225D01*
X1190599Y735533D01*
X1196086Y730300D01*
X1202537Y726287D01*
X1209649Y723696D01*
X1217117Y722528D01*
X1224686Y722934D01*
X1232052Y724814D01*
X1238859Y728167D01*
X1245565Y733348D01*
X1248765Y735025D01*
X1252423Y735431D01*
X1255928Y734568D01*
X1258976Y732485D01*
X1428546Y562914D01*
X1430731Y559612D01*
X1431493Y555752D01*
X1431493Y443839D01*
X1430883Y440334D01*
X1429054Y437235D01*
X1426260Y434949D01*
X1422146Y433679D01*
X1415034Y431088D01*
X1408582Y427075D01*
X1403096Y421843D01*
X1398778Y415594D01*
X1395780Y408635D01*
X1394256Y401218D01*
X1394256Y393649D01*
X1395780Y386232D01*
X1398778Y379272D01*
X1403096Y373024D01*
X1412341Y364490D01*
X1413967Y360730D01*
X1413967Y356616D01*
X1412341Y352856D01*
X1403096Y344322D01*
X1398778Y338124D01*
X1395780Y331165D01*
X1394256Y323748D01*
X1394256Y316128D01*
X1395780Y308711D01*
X1398778Y301752D01*
X1403096Y295554D01*
X1408582Y290322D01*
X1415034Y286308D01*
X1422146Y283667D01*
X1429613Y282549D01*
X1437182Y282905D01*
X1444548Y284835D01*
X1451356Y288137D01*
X1457350Y292811D01*
X1462227Y298500D01*
X1466545Y306476D01*
X1468932Y309372D01*
X1472184Y311200D01*
X1475892Y311759D01*
X1479550Y310896D01*
X1482648Y308813D01*
X1489760Y301701D01*
X1491792Y298805D01*
X1492707Y295402D01*
X1492402Y291896D01*
X1490929Y288696D01*
X1488744Y285597D01*
X1485747Y278638D01*
X1484223Y271221D01*
X1484223Y263652D01*
X1485747Y256235D01*
X1488744Y249275D01*
X1493113Y243027D01*
X1498600Y237794D01*
X1505000Y233781D01*
X1512112Y231190D01*
X1519631Y230022D01*
X1527200Y230428D01*
X1534515Y232308D01*
X1541322Y235661D01*
X1547317Y240284D01*
X1552244Y246024D01*
X1555953Y252679D01*
X1558340Y260299D01*
X1560423Y264007D01*
X1563878Y266547D01*
X1568043Y267462D01*
X1642313Y267462D01*
X1646174Y266649D01*
X1649475Y264464D01*
X1667306Y246634D01*
X1669440Y243484D01*
X1671269Y239267D01*
X1675587Y233070D01*
X1681073Y227838D01*
X1687525Y223824D01*
X1689607Y223062D01*
X1693214Y220725D01*
X1702460Y211480D01*
X1704187Y209143D01*
X1705762Y203708D01*
X1708759Y196748D01*
X1713077Y190550D01*
X1714906Y188772D01*
X1717039Y185877D01*
X1718056Y182422D01*
X1717751Y178866D01*
X1713280Y168656D01*
X1711756Y161239D01*
X1711756Y153619D01*
X1713280Y146202D01*
X1716278Y139242D01*
X1719681Y134315D01*
X1721053Y131572D01*
X1721510Y128524D01*
X1721510Y44805D01*
X1720697Y40843D01*
X1718360Y37439D01*
X1714906Y35306D01*
X1710842Y34696D01*
X1707083Y34848D01*
X1699615Y33731D01*
X1692503Y31089D01*
X1686052Y27076D01*
X1680565Y21844D01*
X1676247Y15646D01*
X1673250Y8686D01*
X1672031Y2692D01*
X1670405Y-1066D01*
X1667459Y-3860D01*
X1663598Y-5283D01*
X1657096Y-6299D01*
X1649984Y-8890D01*
X1643583Y-12903D01*
X1638096Y-18135D01*
X1633728Y-24384D01*
X1630730Y-31343D01*
X1629206Y-38760D01*
X1629206Y-46329D01*
X1630730Y-53746D01*
X1633728Y-60706D01*
X1638096Y-66954D01*
X1643176Y-71780D01*
X1645513Y-75133D01*
X1648206Y-81330D01*
X1651711Y-85852D01*
X1718513Y-152654D01*
X1720748Y-155956D01*
X1721510Y-159867D01*
X1721510Y-169062D01*
X1722221Y-170738D01*
X1751025Y-199593D01*
X1753260Y-202895D01*
X1754022Y-206756D01*
X1754022Y-231140D01*
X1753362Y-234696D01*
X1751584Y-237744D01*
X1748789Y-240029D01*
X1744624Y-241300D01*
X1737512Y-243941D01*
X1731111Y-247954D01*
X1725625Y-253187D01*
X1721256Y-259384D01*
X1718259Y-266344D01*
X1716735Y-273761D01*
X1716735Y-281381D01*
X1718259Y-288798D01*
X1721256Y-295757D01*
X1725625Y-301955D01*
X1731111Y-307187D01*
X1737512Y-311200D01*
X1742998Y-313232D01*
X1746402Y-315366D01*
X1748739Y-318668D01*
X1749602Y-322580D01*
X1748891Y-326542D01*
X1746656Y-329946D01*
X1704492Y-372059D01*
X1701190Y-374294D01*
X1697329Y-375056D01*
G37*

%LPD*%
G36*
X2401874Y-379425D02*
G01*
X2397963Y-378663D01*
X2394661Y-376478D01*
X2356358Y-338124D01*
X2354173Y-334873D01*
X2353360Y-330962D01*
X2354173Y-327050D01*
X2356358Y-323799D01*
X2359660Y-321564D01*
X2363520Y-320802D01*
X2583281Y-320802D01*
X2586837Y-321462D01*
X2589987Y-323342D01*
X2592222Y-326186D01*
X2593340Y-329641D01*
X2593949Y-334162D01*
X2595473Y-337921D01*
X2597962Y-341172D01*
X2601620Y-344830D01*
X2602941Y-348284D01*
X2602941Y-351942D01*
X2601620Y-355447D01*
X2597962Y-359054D01*
X2595473Y-362305D01*
X2593949Y-366064D01*
X2593340Y-370586D01*
X2592222Y-374040D01*
X2589987Y-376885D01*
X2586837Y-378764D01*
X2583281Y-379425D01*
G37*

%LPD*%
G36*
X1309928Y-415543D02*
G01*
X1306068Y-414782D01*
X1302766Y-412546D01*
X1300581Y-409295D01*
X1299768Y-405384D01*
X1299768Y-356666D01*
X1300530Y-352907D01*
X1302562Y-349707D01*
X1305712Y-347472D01*
X1309420Y-346557D01*
X1314551Y-346303D01*
X1321765Y-344424D01*
X1326032Y-342290D01*
X1329994Y-341274D01*
X1334058Y-341884D01*
X1337513Y-344068D01*
X1339850Y-347421D01*
X1340713Y-351434D01*
X1340713Y-384810D01*
X1339900Y-388670D01*
X1337716Y-391972D01*
X1317142Y-412546D01*
X1313840Y-414782D01*
G37*

%LPD*%
G36*
X-425145Y-416763D02*
G01*
X-429006Y-415950D01*
X-432308Y-413766D01*
X-434543Y-410464D01*
X-435305Y-406603D01*
X-435305Y-370789D01*
X-435914Y-366064D01*
X-437489Y-362305D01*
X-439978Y-359054D01*
X-443636Y-355396D01*
X-445008Y-351942D01*
X-445008Y-348234D01*
X-443636Y-344779D01*
X-439928Y-341071D01*
X-437489Y-337820D01*
X-435914Y-334060D01*
X-435305Y-329336D01*
X-435305Y-291236D01*
X-434492Y-287324D01*
X-432308Y-284022D01*
X-424484Y-276199D01*
X-421182Y-274015D01*
X-417271Y-273202D01*
X9499Y-273202D01*
X13411Y-274015D01*
X16713Y-276199D01*
X44856Y-304342D01*
X47802Y-306679D01*
X50546Y-309981D01*
X51663Y-314045D01*
X51054Y-318262D01*
X48717Y-321818D01*
X21742Y-348996D01*
X18440Y-351180D01*
X14528Y-351993D01*
X-255930Y-351993D01*
X-262229Y-352958D01*
X-266750Y-355041D01*
X-271170Y-358444D01*
X-326440Y-413766D01*
X-329742Y-415950D01*
X-333654Y-416763D01*
G37*

%LPD*%
G36*
X951128Y-419303D02*
G01*
X947267Y-418490D01*
X943965Y-416306D01*
X941781Y-413004D01*
X940968Y-409143D01*
X941730Y-405282D01*
X943914Y-401980D01*
X980948Y-364744D01*
X984250Y-362508D01*
X988110Y-361746D01*
X992022Y-362508D01*
X995324Y-364693D01*
X997508Y-367995D01*
X998321Y-371906D01*
X998321Y-392125D01*
X997508Y-396036D01*
X995324Y-399338D01*
X978357Y-416306D01*
X975055Y-418490D01*
X971143Y-419303D01*
G37*

%LPD*%
G36*
X1579372Y-474421D02*
G01*
X1575511Y-473608D01*
X1572209Y-471424D01*
X1508709Y-408127D01*
X1506474Y-404825D01*
X1505712Y-400913D01*
X1506474Y-397052D01*
X1508709Y-393750D01*
X1512011Y-391515D01*
X1515872Y-390753D01*
X1700834Y-390753D01*
X1705559Y-390144D01*
X1709318Y-388569D01*
X1713077Y-385673D01*
X1764639Y-334111D01*
X1767535Y-330352D01*
X1769110Y-326593D01*
X1769719Y-321868D01*
X1769719Y-203200D01*
X1769110Y-198526D01*
X1767535Y-194767D01*
X1764639Y-191008D01*
X1759305Y-185674D01*
X1757121Y-182372D01*
X1756359Y-178460D01*
X1757121Y-174599D01*
X1759305Y-171297D01*
X1762607Y-169113D01*
X1766519Y-168300D01*
X1929536Y-168300D01*
X1933498Y-169113D01*
X1936800Y-171348D01*
X1938985Y-174701D01*
X1939696Y-178663D01*
X1938883Y-182575D01*
X1931974Y-192278D01*
X1929028Y-199085D01*
X1927555Y-206349D01*
X1927555Y-213766D01*
X1929028Y-221030D01*
X1931974Y-227838D01*
X1936191Y-233934D01*
X1941575Y-239014D01*
X1947875Y-242976D01*
X1954834Y-245516D01*
X1962150Y-246634D01*
X1969566Y-246278D01*
X1976729Y-244398D01*
X1983384Y-241147D01*
X1989277Y-236626D01*
X1994712Y-230276D01*
X1997964Y-227736D01*
X2002028Y-226771D01*
X2006092Y-227431D01*
X2009597Y-229717D01*
X2236927Y-457047D01*
X2239111Y-460349D01*
X2239873Y-464261D01*
X2239111Y-468122D01*
X2236927Y-471424D01*
X2233625Y-473608D01*
X2229713Y-474421D01*
G37*

%LPD*%
G36*
X2444343Y-479450D02*
G01*
X2440482Y-478637D01*
X2437180Y-476453D01*
X2398877Y-438150D01*
X2396693Y-434898D01*
X2395931Y-430987D01*
X2396693Y-427075D01*
X2398877Y-423824D01*
X2402179Y-421589D01*
X2406091Y-420827D01*
X2583281Y-420827D01*
X2586837Y-421487D01*
X2589987Y-423367D01*
X2592222Y-426212D01*
X2593340Y-429666D01*
X2593949Y-434136D01*
X2595473Y-437896D01*
X2597962Y-441147D01*
X2601620Y-444804D01*
X2602941Y-448259D01*
X2602941Y-451967D01*
X2601620Y-455422D01*
X2597962Y-459079D01*
X2595473Y-462330D01*
X2593949Y-466090D01*
X2593340Y-470611D01*
X2592222Y-474065D01*
X2589987Y-476910D01*
X2586837Y-478790D01*
X2583281Y-479450D01*
G37*

%LPD*%
G36*
X188468Y-494487D02*
G01*
X184607Y-493674D01*
X181305Y-491490D01*
X179120Y-488188D01*
X178308Y-484327D01*
X179120Y-480415D01*
X181305Y-477113D01*
X222199Y-436219D01*
X225501Y-434035D01*
X229412Y-433222D01*
X403910Y-433222D01*
X410209Y-432257D01*
X414731Y-430174D01*
X419150Y-426770D01*
X486156Y-359714D01*
X489864Y-354584D01*
X491642Y-349910D01*
X492302Y-344373D01*
X492302Y-326694D01*
X493217Y-322529D01*
X495757Y-319074D01*
X499465Y-316992D01*
X503682Y-316585D01*
X507695Y-317957D01*
X516585Y-326542D01*
X522884Y-330454D01*
X529844Y-333044D01*
X537159Y-334162D01*
X544576Y-333806D01*
X551738Y-331927D01*
X556717Y-330149D01*
X560120Y-330352D01*
X563321Y-331673D01*
X575360Y-343154D01*
X577494Y-346151D01*
X578459Y-349707D01*
X578104Y-353364D01*
X576427Y-356666D01*
X573735Y-359105D01*
X566572Y-363575D01*
X561187Y-368706D01*
X556971Y-374751D01*
X554024Y-381609D01*
X552551Y-388874D01*
X552551Y-396240D01*
X554024Y-403504D01*
X556971Y-410362D01*
X561187Y-416407D01*
X566572Y-421538D01*
X572871Y-425450D01*
X579831Y-428040D01*
X587146Y-429158D01*
X594563Y-428802D01*
X601726Y-426923D01*
X608380Y-423672D01*
X614273Y-419100D01*
X619099Y-413512D01*
X622655Y-407009D01*
X625957Y-396341D01*
X628192Y-393395D01*
X631342Y-391414D01*
X635000Y-390753D01*
X724611Y-390753D01*
X728522Y-391515D01*
X731774Y-393750D01*
X734009Y-397002D01*
X734771Y-400913D01*
X734009Y-404825D01*
X731774Y-408076D01*
X648411Y-491490D01*
X645109Y-493674D01*
X641197Y-494487D01*
G37*

%LPD*%
G36*
X2481986Y-579424D02*
G01*
X2478074Y-578662D01*
X2474823Y-576478D01*
X2436520Y-538175D01*
X2434336Y-534873D01*
X2433523Y-530961D01*
X2434336Y-527100D01*
X2436520Y-523798D01*
X2439822Y-521614D01*
X2443683Y-520801D01*
X2583281Y-520801D01*
X2586837Y-521462D01*
X2589987Y-523341D01*
X2592222Y-526186D01*
X2593340Y-529640D01*
X2593949Y-534162D01*
X2595473Y-537921D01*
X2597962Y-541172D01*
X2601620Y-544830D01*
X2602941Y-548284D01*
X2602941Y-551992D01*
X2601620Y-555447D01*
X2597962Y-559104D01*
X2595473Y-562305D01*
X2593949Y-566064D01*
X2593340Y-570585D01*
X2592222Y-574040D01*
X2589987Y-576884D01*
X2586837Y-578764D01*
X2583281Y-579424D01*
G37*

%LPD*%
G36*
X876046Y-601929D02*
G01*
X872185Y-601116D01*
X868883Y-598932D01*
X866698Y-595630D01*
X865886Y-591769D01*
X866698Y-587857D01*
X868883Y-584555D01*
X882091Y-571347D01*
X885393Y-569163D01*
X889304Y-568350D01*
X1024483Y-568350D01*
X1028395Y-569163D01*
X1031646Y-571347D01*
X1033881Y-574649D01*
X1034643Y-578510D01*
X1033881Y-582422D01*
X1031697Y-585724D01*
X1018489Y-598932D01*
X1015187Y-601116D01*
X1011275Y-601929D01*
G37*

%LPD*%
G36*
X-425145Y-616915D02*
G01*
X-429006Y-616102D01*
X-432308Y-613918D01*
X-434543Y-610616D01*
X-435305Y-606755D01*
X-435305Y-570788D01*
X-435914Y-566064D01*
X-437489Y-562305D01*
X-439978Y-559104D01*
X-443636Y-555447D01*
X-444957Y-551992D01*
X-444957Y-548284D01*
X-443636Y-544830D01*
X-439978Y-541172D01*
X-437489Y-537921D01*
X-435914Y-534162D01*
X-435305Y-529437D01*
X-435305Y-495706D01*
X-434543Y-491845D01*
X-432308Y-488543D01*
X-429006Y-486359D01*
X-425145Y-485546D01*
X-307797Y-485546D01*
X-301548Y-484581D01*
X-297027Y-482549D01*
X-292608Y-479094D01*
X-237032Y-423773D01*
X-233730Y-421589D01*
X-229870Y-420776D01*
X39674Y-420776D01*
X45974Y-419811D01*
X50495Y-417728D01*
X54914Y-414324D01*
X88087Y-381101D01*
X91389Y-378917D01*
X95300Y-378104D01*
X157124Y-378104D01*
X160985Y-378917D01*
X164287Y-381101D01*
X166471Y-384403D01*
X167284Y-388264D01*
X166471Y-392176D01*
X164287Y-395478D01*
X63449Y-496316D01*
X60147Y-498500D01*
X56235Y-499313D01*
X-178206Y-499313D01*
X-184505Y-500278D01*
X-189026Y-502361D01*
X-193446Y-505764D01*
X-301548Y-613918D01*
X-304850Y-616102D01*
X-308762Y-616915D01*
G37*

%LPD*%
G36*
X1188466Y-661873D02*
G01*
X1184605Y-661060D01*
X1181303Y-658876D01*
X1179118Y-655574D01*
X1178306Y-651713D01*
X1179118Y-647801D01*
X1181303Y-644499D01*
X1202131Y-623671D01*
X1205433Y-621487D01*
X1209344Y-620674D01*
X1672234Y-620674D01*
X1676044Y-621436D01*
X1679346Y-623620D01*
X1681988Y-627837D01*
X1686204Y-633933D01*
X1691589Y-639013D01*
X1698040Y-643077D01*
X1701190Y-646125D01*
X1702714Y-650138D01*
X1702460Y-654507D01*
X1700377Y-658317D01*
X1696923Y-660908D01*
X1692706Y-661873D01*
G37*

%LPD*%
G36*
X2522067Y-679450D02*
G01*
X2518156Y-678637D01*
X2514854Y-676452D01*
X2476550Y-638149D01*
X2474366Y-634898D01*
X2473604Y-630986D01*
X2474366Y-627075D01*
X2476550Y-623824D01*
X2479852Y-621588D01*
X2483764Y-620826D01*
X2583281Y-620826D01*
X2586837Y-621487D01*
X2589987Y-623366D01*
X2592222Y-626211D01*
X2593340Y-629666D01*
X2593949Y-634187D01*
X2595473Y-637946D01*
X2597962Y-641146D01*
X2601620Y-644804D01*
X2602941Y-648258D01*
X2602941Y-651967D01*
X2601620Y-655421D01*
X2597962Y-659079D01*
X2595473Y-662330D01*
X2593949Y-666089D01*
X2593340Y-670610D01*
X2592222Y-674065D01*
X2589987Y-676910D01*
X2586837Y-678789D01*
X2583281Y-679450D01*
G37*

%LPD*%
G36*
X-63093Y-748588D02*
G01*
X-67564Y-748538D01*
X-71577Y-746556D01*
X-74371Y-743051D01*
X-75387Y-738682D01*
X-75387Y-727862D01*
X-74574Y-723950D01*
X-72390Y-720648D01*
X-5384Y-653643D01*
X-2082Y-651459D01*
X1828Y-650646D01*
X34493Y-650646D01*
X38354Y-651459D01*
X41656Y-653643D01*
X43891Y-656945D01*
X44653Y-660806D01*
X43891Y-664718D01*
X41706Y-668020D01*
X-10566Y-720394D01*
X-14224Y-725525D01*
X-16002Y-730199D01*
X-16662Y-735431D01*
X-17729Y-738936D01*
X-20015Y-741832D01*
X-23114Y-743712D01*
X-26720Y-744372D01*
X-50342Y-744372D01*
X-55016Y-744982D01*
G37*

%LPD*%
G36*
X2227173Y-754126D02*
G01*
X2223668Y-752805D01*
X2220061Y-749147D01*
X2216810Y-746658D01*
X2213051Y-745134D01*
X2208530Y-744524D01*
X2205075Y-743407D01*
X2202230Y-741172D01*
X2200351Y-738022D01*
X2199690Y-734466D01*
X2199690Y-691642D01*
X2198725Y-686308D01*
X2196642Y-681786D01*
X2193239Y-677367D01*
X2136343Y-620522D01*
X2131212Y-616813D01*
X2126538Y-615035D01*
X2121001Y-614375D01*
X1819452Y-614375D01*
X1815541Y-613562D01*
X1812239Y-611378D01*
X1784045Y-583184D01*
X1781860Y-579882D01*
X1781048Y-575970D01*
X1781860Y-572109D01*
X1784045Y-568807D01*
X1787347Y-566623D01*
X1791207Y-565810D01*
X2116175Y-565810D01*
X2120087Y-566623D01*
X2123389Y-568807D01*
X2255418Y-700836D01*
X2257602Y-704138D01*
X2258415Y-708050D01*
X2258415Y-734466D01*
X2257755Y-738022D01*
X2255875Y-741121D01*
X2253030Y-743407D01*
X2249576Y-744524D01*
X2244953Y-745134D01*
X2241194Y-746658D01*
X2237943Y-749147D01*
X2234285Y-752805D01*
X2230831Y-754126D01*
G37*

%LPD*%
G36*
X2327148Y-754126D02*
G01*
X2323693Y-752805D01*
X2320036Y-749147D01*
X2316784Y-746658D01*
X2313025Y-745134D01*
X2308606Y-744524D01*
X2305151Y-743407D01*
X2302306Y-741172D01*
X2300427Y-738073D01*
X2299766Y-734466D01*
X2299766Y-694537D01*
X2298344Y-687578D01*
X2298446Y-683260D01*
X2300274Y-679399D01*
X2303526Y-676605D01*
X2307640Y-675436D01*
X2311908Y-676046D01*
X2315514Y-678383D01*
X2355240Y-718108D01*
X2357424Y-721410D01*
X2358237Y-725322D01*
X2358237Y-734466D01*
X2357577Y-738073D01*
X2355697Y-741172D01*
X2352852Y-743458D01*
X2349398Y-744524D01*
X2344978Y-745134D01*
X2341219Y-746709D01*
X2337968Y-749147D01*
X2334310Y-752805D01*
X2330856Y-754126D01*
G37*

%LPD*%
G36*
X1239875Y-794054D02*
G01*
X1235964Y-793292D01*
X1232662Y-791057D01*
X1230477Y-787806D01*
X1229715Y-783894D01*
X1229715Y-765759D01*
X1230223Y-762457D01*
X1231798Y-759561D01*
X1233576Y-757224D01*
X1235811Y-755091D01*
X1238605Y-753719D01*
X1241653Y-753262D01*
X1323136Y-753262D01*
X1327048Y-754024D01*
X1330350Y-756208D01*
X1332534Y-759510D01*
X1333296Y-763422D01*
X1333296Y-783894D01*
X1332534Y-787806D01*
X1330350Y-791057D01*
X1327048Y-793292D01*
X1323136Y-794054D01*
G37*

%LPD*%
G36*
X-475030Y-794054D02*
G01*
X-478942Y-793292D01*
X-482193Y-791057D01*
X-484428Y-787806D01*
X-485190Y-783894D01*
X-485190Y-756005D01*
X-484428Y-752094D01*
X-482193Y-748792D01*
X-478942Y-746607D01*
X-475030Y-745845D01*
X-451662Y-745845D01*
X-446938Y-745185D01*
X-443179Y-743661D01*
X-439978Y-741172D01*
X-437489Y-737920D01*
X-435914Y-734161D01*
X-435305Y-729437D01*
X-435305Y-693318D01*
X-434543Y-689457D01*
X-432308Y-686155D01*
X-429006Y-683971D01*
X-425145Y-683158D01*
X-280873Y-683158D01*
X-274574Y-682193D01*
X-270052Y-680110D01*
X-265633Y-676706D01*
X-160324Y-571347D01*
X-157022Y-569163D01*
X-153111Y-568350D01*
X-108051Y-568350D01*
X-104190Y-569163D01*
X-100888Y-571347D01*
X-98704Y-574649D01*
X-97891Y-578510D01*
X-98704Y-582422D01*
X-100888Y-585724D01*
X-210413Y-695248D01*
X-214121Y-700379D01*
X-215900Y-705053D01*
X-216560Y-710590D01*
X-216560Y-734212D01*
X-217373Y-738124D01*
X-219557Y-741426D01*
X-222859Y-743610D01*
X-226720Y-744372D01*
X-250342Y-744372D01*
X-255016Y-744982D01*
X-258775Y-746556D01*
X-262026Y-749046D01*
X-264515Y-752246D01*
X-266090Y-756056D01*
X-266700Y-760730D01*
X-266700Y-783894D01*
X-267462Y-787806D01*
X-269646Y-791057D01*
X-272948Y-793292D01*
X-276860Y-794054D01*
G37*

%LPD*%
G36*
X1059180Y-794054D02*
G01*
X1055268Y-793292D01*
X1051966Y-791057D01*
X1049782Y-787806D01*
X1049020Y-783894D01*
X1049020Y-771144D01*
X1049477Y-768096D01*
X1050798Y-765352D01*
X1052931Y-763117D01*
X1057351Y-759714D01*
X1059332Y-757377D01*
X1061974Y-755192D01*
X1065225Y-753973D01*
X1070356Y-753059D01*
X1075029Y-750925D01*
X1079601Y-747369D01*
X1143914Y-683006D01*
X1147216Y-680821D01*
X1151128Y-680059D01*
X1167282Y-680059D01*
X1171194Y-680821D01*
X1174496Y-683006D01*
X1219047Y-727608D01*
X1220978Y-730300D01*
X1221943Y-733501D01*
X1221486Y-738530D01*
X1221486Y-743356D01*
X1220724Y-747217D01*
X1218539Y-750519D01*
X1214170Y-755142D01*
X1214018Y-756056D01*
X1214018Y-783894D01*
X1213205Y-787806D01*
X1211021Y-791057D01*
X1207719Y-793292D01*
X1203858Y-794054D01*
G37*

%LPD*%
D10*
X413959Y-242630D02*
G01*
X434025Y-262442D01*
X434025Y-337626D01*
X389067Y-382584D01*
X206441Y-382584D01*
X69027Y-519998D01*
X-178368Y-519998D01*
X-295970Y-637600D01*
X-442528Y-637600D01*
X-479866Y-600262D01*
X-511108Y-600262D01*
X471617Y-214944D02*
G01*
X471617Y-344992D01*
X404053Y-412556D01*
X216601Y-412556D01*
X81473Y-547684D01*
X-165922Y-547684D01*
X-280730Y-662492D01*
X-445068Y-662492D01*
X-482660Y-700084D01*
X-511108Y-700084D01*
X419039Y-119948D02*
G01*
X208981Y-330006D01*
X69789Y-330006D01*
X27371Y-372678D01*
X-256092Y-372678D01*
X-320862Y-437448D01*
X-445068Y-437448D01*
X-482406Y-400110D01*
X-511108Y-400110D01*
X383987Y-292668D02*
G01*
X294071Y-292668D01*
X229047Y-357438D01*
X82489Y-357438D01*
X39817Y-400110D01*
X-242630Y-400110D01*
X-307654Y-464880D01*
X-445068Y-464880D01*
X-480120Y-500186D01*
X-511108Y-500186D01*
X179009Y119827D02*
G01*
X151323Y147513D01*
X32451Y147513D01*
X-157540Y337505D01*
X-439988Y337505D01*
X-477580Y299913D01*
X-511108Y299913D01*
X179009Y199837D02*
G01*
X154117Y174945D01*
X42611Y174945D01*
X-144840Y362397D01*
X-440242Y362397D01*
X-477580Y399989D01*
X-511108Y399989D01*
X143957Y-270062D02*
G01*
X123891Y-290128D01*
X59883Y-290128D01*
X22291Y-252536D01*
X-430082Y-252536D01*
X-467674Y-290128D01*
X-511108Y-290128D01*
X-511108Y-300034D01*
X84013Y-240090D02*
G01*
X63947Y-220024D01*
X-511108Y-220024D01*
X-511108Y-199958D01*
X259019Y39817D02*
G01*
X34229Y-184972D01*
X-322894Y-184972D01*
X-407730Y-100136D01*
X-511108Y-100136D01*
X-370138Y-55178D02*
G01*
X-370138Y34991D01*
X-435162Y100015D01*
X-510854Y100015D01*
X259019Y199837D02*
G01*
X299834Y159021D01*
X299834Y99936D01*
X279834Y79936D01*
X244835Y79936D01*
X204835Y39936D01*
X-275163Y39936D01*
X-370164Y-55064D01*
X259019Y119827D02*
G01*
X246319Y119827D01*
X203901Y77409D01*
X-232724Y77409D01*
X-355152Y199837D01*
X-511108Y199837D01*
X-511108Y500065D02*
G01*
X-35112Y500065D01*
X89093Y375605D01*
X89093Y219903D01*
D11*
X179009Y759907D02*
G01*
X172405Y759907D01*
X129733Y717489D01*
X-97596Y717489D01*
X-180146Y800039D01*
X-511108Y800039D01*
D12*
X1711391Y1044895D02*
G01*
X1694119Y1062421D01*
X1478981Y1062421D01*
X1311341Y894781D01*
X1191453Y894781D01*
X1116523Y819851D01*
X972759Y819851D01*
X930341Y777433D01*
X598871Y777433D01*
X434025Y612587D01*
X434025Y177485D01*
X458917Y152339D01*
D10*
X899099Y39817D02*
G01*
X938977Y-60D01*
X938977Y-140014D01*
X964123Y-165160D01*
X964123Y-317306D01*
X901385Y-380044D01*
X819089Y-380044D01*
X661609Y-537524D01*
X188915Y-537524D01*
X96459Y-629980D01*
X-10982Y-629980D01*
X-96072Y-715070D01*
X-96072Y-819972D01*
X-120964Y-819972D01*
X1666483Y-42555D02*
G01*
X1666483Y-70213D01*
X1743903Y-147632D01*
X1956752Y-147632D01*
X2509253Y-700138D01*
X2668993Y-700138D01*
X1001461Y-222564D02*
G01*
X994095Y-229930D01*
X994095Y-322132D01*
X911799Y-404936D01*
X826709Y-404936D01*
X671515Y-560130D01*
X211521Y-560130D01*
X108905Y-662492D01*
X76393Y-662492D01*
X4003Y-735136D01*
X4003Y-819972D01*
X-21142Y-819972D01*
X979109Y-119948D02*
G01*
X979109Y-130108D01*
X1041593Y-197672D01*
X1041593Y-246694D01*
X1018987Y-269300D01*
X1018987Y-404936D01*
X983935Y-439988D01*
X823915Y-439988D01*
X681421Y-582482D01*
X234127Y-582482D01*
X78933Y-737676D01*
X78933Y-819972D01*
D11*
X-511108Y1100013D02*
G01*
X-511108Y1082487D01*
X-301050Y1082487D01*
X-248472Y1029909D01*
X-160080Y1029909D01*
X-107502Y977331D01*
X126685Y977331D01*
X359095Y744921D01*
X359095Y699963D01*
X-511108Y999937D02*
G01*
X-511108Y982413D01*
X-191066Y982413D01*
X-138493Y929833D01*
X51498Y929833D01*
X81475Y899863D01*
X81475Y839081D01*
X52339Y809945D01*
X32349Y877432D02*
G01*
X32341Y877440D01*
X-323512Y877440D01*
X-346008Y899937D01*
X-511009Y899937D01*
D13*
X571515Y127421D02*
G01*
X571515Y-207553D01*
X539003Y-240065D01*
D10*
X1074105Y-262442D02*
G01*
X1074105Y-384870D01*
X996381Y-462594D01*
X833821Y-462594D01*
X691327Y-605088D01*
X336489Y-605088D01*
X211521Y-730056D01*
X211521Y-819972D01*
X179009Y-819972D01*
X899099Y-40192D02*
G01*
X858967Y-80070D01*
X858967Y-142554D01*
X879033Y-162620D01*
X918911Y-162620D01*
X938977Y-182686D01*
X938977Y-310194D01*
X894019Y-355152D01*
X814009Y-355152D01*
X653989Y-515172D01*
X166309Y-515172D01*
X84013Y-597468D01*
X-83372Y-597468D01*
X-195894Y-709990D01*
X-195894Y-819972D01*
X-221040Y-819972D01*
D14*
X2668971Y999937D02*
G01*
X2529017Y999937D01*
X2484059Y1044895D01*
X1923989Y1044895D01*
D12*
X1679641Y1034989D02*
G01*
X1615633Y1034989D01*
X1587947Y1062421D01*
D14*
X1918990Y1044935D02*
G01*
X1711490Y1044935D01*
D10*
X1476441Y644845D02*
G01*
X1496507Y625033D01*
X1814007Y625033D01*
X1833819Y644845D01*
X1946595Y644845D01*
X2031431Y560009D01*
X2031431Y435041D01*
X2466533Y-60D01*
X2668971Y-60D01*
X1386525Y679897D02*
G01*
X1386525Y642305D01*
X1434023Y594807D01*
X1826453Y594807D01*
X1851599Y619953D01*
X1933895Y619953D01*
X2001459Y552389D01*
X2001459Y409895D01*
X2511491Y-100136D01*
X2668971Y-100136D01*
X1449009Y954979D02*
G01*
X1449009Y964885D01*
X1511493Y1027369D01*
X1558991Y1027369D01*
X1594043Y992317D01*
X1671513Y992317D01*
X1709105Y954979D01*
X1890715Y954979D01*
X1529019Y679897D02*
G01*
X1571437Y679897D01*
X1628841Y737555D01*
X1826453Y737555D01*
X1884111Y679897D01*
X1951421Y679897D01*
X2054037Y577281D01*
X2054037Y465013D01*
X2419035Y99761D01*
X2668971Y99761D01*
X1529019Y744921D02*
G01*
X1564071Y744921D01*
X1588963Y769813D01*
X1841439Y769813D01*
X1901383Y709869D01*
X1959041Y709869D01*
X2078929Y589981D01*
X2078929Y492445D01*
X2371537Y199837D01*
X2668971Y199837D01*
X1428943Y800039D02*
G01*
X1481521Y852363D01*
X1481521Y889955D01*
X1514033Y922467D01*
X1641541Y922467D01*
X1691579Y872429D01*
X1901383Y872429D01*
X1958787Y815025D01*
X2008825Y815025D01*
X2223963Y599887D01*
X2668971Y599887D01*
X1921499Y119928D02*
G01*
X1989000Y119928D01*
X2309040Y-200113D01*
X2668993Y-200113D01*
X1921499Y19928D02*
G01*
X1971499Y-30071D01*
X2019000Y-30071D01*
X2389060Y-400138D01*
X2668993Y-400138D01*
X1893991Y69941D02*
G01*
X1976490Y69941D01*
X2346545Y-300113D01*
X2668993Y-300113D01*
X1751497Y-42555D02*
G01*
X1799018Y4965D01*
X1799018Y439394D01*
X1833994Y474934D01*
X1921499Y289930D02*
G01*
X1986498Y289930D01*
X2351493Y-75067D01*
X1536385Y987491D02*
G01*
X1556451Y967425D01*
X1659067Y967425D01*
X1698945Y927547D01*
X1921449Y927547D01*
X1993839Y855157D01*
X2051243Y855157D01*
X2156653Y750001D01*
X2398969Y750001D01*
X2449007Y800039D01*
X2668971Y800039D01*
X1431483Y880049D02*
G01*
X1496253Y944819D01*
X1651447Y944819D01*
X1696405Y899861D01*
X1911543Y899861D01*
X1976313Y835091D01*
X2031431Y835091D01*
X2166559Y699963D01*
X2409129Y699963D01*
X2469073Y759907D01*
X2576515Y759907D01*
X2611567Y724855D01*
X2644079Y724855D01*
X2668971Y699963D01*
X1181544Y809947D02*
G01*
X1306515Y809947D01*
X1368999Y747463D01*
X1463995Y747463D01*
X1481518Y764987D01*
X1481518Y817313D01*
X1503867Y839917D01*
X1558996Y839917D01*
X1576522Y822391D01*
X1876496Y822391D01*
X1926529Y772355D01*
X1974029Y772355D01*
X2126429Y619955D01*
X2126429Y552386D01*
X2278903Y399912D01*
X2668996Y399912D01*
X1529021Y800036D02*
G01*
X1861502Y800036D01*
X1913829Y747463D01*
X1961329Y747463D01*
X2104080Y604967D01*
X2104080Y519874D01*
X2324041Y299913D01*
X2668996Y299913D01*
X1890709Y954979D02*
G01*
X1931614Y954979D01*
X2008830Y877509D01*
X2069017Y877509D01*
X2141410Y804867D01*
X2311595Y804867D01*
X2406665Y899937D01*
X2668996Y899937D01*
X1309055Y-252536D02*
G01*
X1268923Y-292668D01*
X1268923Y-321624D01*
X1253937Y-336610D01*
X1253937Y-430082D01*
X1041339Y-642680D01*
X853887Y-642680D01*
X778957Y-717610D01*
X778957Y-820226D01*
D15*
X2091489Y-707560D02*
G01*
X1153995Y-707560D01*
X1153993Y-707565D01*
D11*
X-321116Y1219901D02*
G01*
X-321116Y1189929D01*
X-251012Y1119825D01*
X43881Y1119825D01*
X428945Y735015D01*
X428945Y697423D01*
D10*
X1898995Y574946D02*
G01*
X1939028Y574946D01*
X1971487Y542483D01*
X1971487Y382463D01*
X2413952Y-60002D01*
X2413952Y-112582D01*
X2381445Y-145094D01*
X2321524Y-145094D01*
X2296480Y-120050D01*
X979109Y39817D02*
G01*
X1039053Y-20126D01*
X1039053Y-115122D01*
X1134049Y-210118D01*
X1134049Y-397570D01*
X1026607Y-505012D01*
X853887Y-505012D01*
X709107Y-650046D01*
X506415Y-650046D01*
X404053Y-752662D01*
X404053Y-820226D01*
X378907Y-820226D01*
X1473901Y-267522D02*
G01*
X1473901Y-402650D01*
X1566611Y-495106D01*
X2231583Y-495106D01*
X2478979Y-742502D01*
X2478979Y-820226D01*
X979109Y119827D02*
G01*
X1061405Y37531D01*
X1061405Y-95056D01*
X1156401Y-190052D01*
X1156401Y-415096D01*
X1046419Y-525078D01*
X866587Y-525078D01*
X719013Y-672652D01*
X546547Y-672652D01*
X504129Y-715070D01*
X504129Y-820226D01*
X478983Y-820226D01*
X979109Y-40192D02*
G01*
X1016447Y-77530D01*
X1016447Y-132648D01*
X1111443Y-227644D01*
X1111443Y-382584D01*
X1011367Y-482660D01*
X843981Y-482660D01*
X698947Y-627440D01*
X386527Y-627440D01*
X303977Y-709990D01*
X303977Y-819972D01*
X279085Y-819972D01*
X1391605Y-469960D02*
G01*
X1491681Y-570036D01*
X1741617Y-570036D01*
X1806641Y-635060D01*
X2121601Y-635060D01*
X2179005Y-692464D01*
X2179005Y-820226D01*
X1451549Y-469960D02*
G01*
X1526479Y-545144D01*
X2128967Y-545144D01*
X2279081Y-695258D01*
X2279081Y-820226D01*
X1473901Y-212658D02*
G01*
X1436563Y-249996D01*
X1436563Y-400110D01*
X1556451Y-519998D01*
X2186371Y-519998D01*
X2378903Y-712530D01*
X2378903Y-820226D01*
X1361379Y-285048D02*
G01*
X1361379Y-397570D01*
X1069025Y-690178D01*
X1009081Y-690178D01*
X979109Y-720150D01*
X979109Y-820226D01*
X1193993Y-257616D02*
G01*
X1188913Y-262442D01*
X1188913Y-420176D01*
X1061405Y-547684D01*
X876493Y-547684D01*
X709107Y-715070D01*
X626557Y-715070D01*
X601411Y-739962D01*
X601411Y-820226D01*
X579059Y-820226D01*
X1229045Y-305114D02*
G01*
X1229045Y-417382D01*
X1024067Y-622614D01*
X834075Y-622614D01*
X704027Y-752662D01*
X704027Y-820226D01*
X678881Y-820226D01*
X1309055Y-310194D02*
G01*
X1279083Y-340166D01*
X1279083Y-442274D01*
X1054039Y-667572D01*
X914085Y-667572D01*
X879033Y-702624D01*
X879033Y-820226D01*
X1713931Y-610168D02*
G01*
X1704025Y-600008D01*
X1196533Y-600008D01*
X1063945Y-732596D01*
X1031433Y-732596D01*
X1708978Y-2550D02*
G01*
X1708978Y-64957D01*
X1754060Y-110040D01*
X1979101Y-110040D01*
X2469192Y-600138D01*
X2668993Y-600138D01*
X1529021Y880051D02*
G01*
X1556453Y880051D01*
X1591503Y844994D01*
X1891479Y844994D01*
X1941509Y794959D01*
X1989010Y794959D01*
X2294072Y489905D01*
X2668996Y489905D01*
X2668996Y499912D01*
X1279083Y1219901D02*
G01*
X1253937Y1195009D01*
X1253937Y1162497D01*
X1231585Y1139891D01*
X1136589Y1139891D01*
X1066485Y1070041D01*
X991555Y1070041D01*
X938977Y1017463D01*
X938977Y960059D01*
X899099Y919927D01*
X979109Y999937D02*
G01*
X1021527Y1042355D01*
X1158941Y1042355D01*
X1181547Y1064961D01*
X1181547Y1097473D01*
X1203899Y1119825D01*
X1411417Y1119825D01*
X1431483Y1139891D01*
X1529527Y1139891D01*
X1578803Y1189167D01*
X1579057Y1219901D01*
X1221425Y1082487D02*
G01*
X1406591Y1082487D01*
X1441643Y1117539D01*
X1594043Y1117539D01*
X1616395Y1139891D01*
X2134047Y1139891D01*
X2154113Y1159957D01*
X2154113Y1219901D01*
X2179005Y1219901D01*
X1138875Y999937D02*
G01*
X1354013Y999937D01*
X1451549Y1097473D01*
X1603949Y1097473D01*
X1626301Y1119825D01*
X2213803Y1119825D01*
X2253935Y1159957D01*
X2253935Y1219901D01*
X2279081Y1219901D01*
X499049Y919927D02*
G01*
X544007Y964885D01*
X544007Y1079947D01*
X576519Y1112459D01*
X698947Y1112459D01*
X778957Y1192469D01*
X778957Y1219901D01*
X419039Y919927D02*
G01*
X501589Y1002477D01*
X501589Y1079947D01*
X561533Y1139891D01*
X633923Y1139891D01*
X678881Y1184849D01*
X678881Y1219901D01*
X1893991Y-30058D02*
G01*
X1939005Y-75072D01*
X2006498Y-75072D01*
X2431564Y-500138D01*
X2668993Y-500138D01*
D13*
X579137Y200047D02*
G01*
X571515Y192427D01*
X571515Y127421D01*
D16*
G01*
X-321015Y1219926D03*
D17*
G01*
X-511007Y1099936D03*
D16*
G01*
X-221015Y1219926D03*
G01*
X-121015Y1219926D03*
G01*
X-21015Y1219901D03*
G01*
X278983Y1219901D03*
G01*
X178983Y1219901D03*
G01*
X78983Y1219901D03*
G01*
X678982Y1219875D03*
G01*
X778982Y1219875D03*
G01*
X878982Y1219875D03*
G01*
X578982Y1219875D03*
G01*
X478983Y1219875D03*
G01*
X378983Y1219901D03*
G01*
X1578980Y1219824D03*
G01*
X1678980Y1219824D03*
G01*
X1778980Y1219824D03*
G01*
X2078979Y1219799D03*
G01*
X1978980Y1219799D03*
G01*
X1878980Y1219824D03*
G01*
X1379006Y1219926D03*
G01*
X1479006Y1219926D03*
G01*
X1279006Y1219951D03*
G01*
X1178981Y1219850D03*
G01*
X1078981Y1219850D03*
G01*
X978982Y1219850D03*
G01*
X2478979Y1219774D03*
G01*
X2378979Y1219799D03*
G01*
X2278979Y1219799D03*
G01*
X2178979Y1219799D03*
D17*
G01*
X-511007Y999937D03*
G01*
X-511007Y899937D03*
G01*
X-511007Y799937D03*
G01*
X-511007Y699937D03*
G01*
X-511007Y599937D03*
G01*
X-510981Y-200035D03*
G01*
X-510981Y-300034D03*
G01*
X-510981Y-35D03*
G01*
X-510981Y399938D03*
G01*
X-510981Y299938D03*
G01*
X-510981Y199964D03*
G01*
X-510981Y99964D03*
G01*
X-510981Y499963D03*
G01*
X-511007Y-100035D03*
G01*
X-511007Y-400110D03*
G01*
X-511007Y-500136D03*
G01*
X-511007Y-600135D03*
G01*
X-511007Y-700135D03*
D16*
G01*
X-321015Y-820074D03*
G01*
X2178979Y-820201D03*
G01*
X2278979Y-820201D03*
G01*
X2378979Y-820226D03*
G01*
X2478979Y-820226D03*
G01*
X978982Y-820150D03*
G01*
X1078981Y-820150D03*
G01*
X1178981Y-820150D03*
G01*
X1478981Y-820176D03*
G01*
X1378981Y-820176D03*
G01*
X1278981Y-820150D03*
G01*
X1878980Y-820201D03*
G01*
X2079005Y-820074D03*
G01*
X1979005Y-820074D03*
G01*
X1778980Y-820176D03*
G01*
X1678980Y-820176D03*
G01*
X1578980Y-820176D03*
G01*
X378983Y-820125D03*
G01*
X478983Y-820125D03*
G01*
X578982Y-820125D03*
G01*
X878982Y-820150D03*
G01*
X778982Y-820125D03*
G01*
X678982Y-820125D03*
G01*
X78983Y-820099D03*
G01*
X178983Y-820099D03*
G01*
X278983Y-820099D03*
G01*
X-21015Y-820099D03*
G01*
X-121015Y-820099D03*
G01*
X-221015Y-820074D03*
D17*
G01*
X2668996Y-700135D03*
G01*
X2668996Y-600135D03*
G01*
X2668996Y-500136D03*
G01*
X2668996Y-400136D03*
G01*
X2668996Y-300111D03*
G01*
X2668996Y-200111D03*
G01*
X2668996Y-100111D03*
G01*
X2668996Y-111D03*
G01*
X2668996Y99888D03*
G01*
X2668996Y199913D03*
G01*
X2668996Y299913D03*
G01*
X2668996Y399912D03*
G01*
X2668996Y499912D03*
G01*
X2668996Y599912D03*
G01*
X2668996Y699937D03*
G01*
X2668996Y799937D03*
G01*
X2668996Y899937D03*
G01*
X2668996Y999937D03*
G01*
X2668996Y1099936D03*
D18*
G01*
X1451498Y-470087D03*
G01*
X1391503Y-470087D03*
G01*
X1316497Y-365058D03*
G01*
X1533997Y-405063D03*
G01*
X1574002Y-445068D03*
G01*
X1671487Y-455051D03*
G01*
X1708978Y-422564D03*
G01*
X1868998Y-585099D03*
G01*
X1863994Y-445068D03*
G01*
X1913981Y-407578D03*
G01*
X1419011Y-642579D03*
G01*
X1361480Y-285074D03*
G01*
X1309004Y-310067D03*
G01*
X1474002Y-267573D03*
G01*
X1474002Y-212582D03*
G01*
X1309004Y-252587D03*
G01*
X1193993Y-257566D03*
G01*
X1228994Y-305064D03*
G01*
X1074003Y-262569D03*
G01*
X1001511Y-222564D03*
G01*
X1751497Y-42555D03*
G01*
X1666483Y-42555D03*
G01*
X1708978Y-2550D03*
G01*
X1644004Y552439D03*
G01*
X1898995Y574944D03*
G01*
X1431508Y397423D03*
G01*
X1476517Y427421D03*
G01*
X1521500Y397423D03*
G01*
X1431508Y319928D03*
G01*
X1521500Y322417D03*
G01*
X1521500Y267426D03*
G01*
X1921499Y119928D03*
G01*
X1893991Y69941D03*
G01*
X1921499Y19928D03*
G01*
X1893991Y-30058D03*
G01*
X239994Y-474990D03*
G01*
X739002Y279923D03*
G01*
X739002Y199913D03*
G01*
X818987Y199913D03*
G01*
X898997Y199913D03*
G01*
X819012Y279923D03*
G01*
X739002Y119928D03*
G01*
X819012Y119928D03*
G01*
X819012Y677433D03*
G01*
X898997Y677433D03*
G01*
X979007Y677433D03*
G01*
X819012Y597423D03*
G01*
X898997Y597423D03*
G01*
X979007Y597423D03*
G01*
X898997Y519927D03*
G01*
X979007Y519927D03*
G01*
X1811492Y-277581D03*
G01*
X1754012Y-277581D03*
G01*
X2074001Y924930D03*
G01*
X2128992Y884925D03*
G01*
X2186498Y927445D03*
G01*
X1616496Y882436D03*
G01*
X1778980Y687440D03*
D19*
G01*
X2491501Y687440D03*
D18*
G01*
X1856501Y247436D03*
G01*
X539003Y-297571D03*
G01*
X588990Y-392567D03*
G01*
X896508Y-292567D03*
G01*
X861507Y-247558D03*
G01*
X898997Y-202575D03*
G01*
X819012Y-120075D03*
G01*
X898997Y279923D03*
G01*
X686501Y-347558D03*
G01*
X686501Y-287563D03*
G01*
X979007Y359933D03*
G01*
X1059017Y359933D03*
G01*
X779007Y399938D03*
G01*
X659018Y599912D03*
G01*
X579033Y599912D03*
G01*
X659018Y679922D03*
G01*
X579033Y679922D03*
G01*
X659018Y519927D03*
G01*
X579033Y519927D03*
G01*
X499023Y519927D03*
G01*
X498998Y439917D03*
G01*
X579008Y439917D03*
G01*
X498998Y279923D03*
G01*
X578982Y354929D03*
G01*
X571515Y127421D03*
G01*
X579135Y200040D03*
G01*
X539003Y-240065D03*
G01*
X-90154Y379923D03*
G01*
X898997Y-120075D03*
G01*
X979007Y-120075D03*
G01*
X898997Y-40065D03*
G01*
X979007Y-40065D03*
G01*
X898997Y39918D03*
G01*
X979007Y39918D03*
G01*
X979007Y119928D03*
G01*
X1749008Y157419D03*
G01*
X1963994Y-210068D03*
G01*
X1141516Y759932D03*
G01*
X1063995Y759932D03*
G01*
X1219012Y759932D03*
G01*
X2351496Y-75067D03*
G01*
X1526783Y-347634D03*
G01*
X1574078Y-285302D03*
G01*
X1621119Y-347634D03*
G01*
X1019012Y172430D03*
G01*
X1019012Y239918D03*
G01*
X1921499Y289930D03*
G01*
X1893991Y342432D03*
G01*
X1309004Y-645068D03*
G01*
X2091502Y-705063D03*
G01*
X1154013Y-712556D03*
G01*
X1714007Y-610067D03*
G01*
X1591503Y-642579D03*
G01*
X968999Y-400060D03*
G01*
X-369986Y-342503D03*
G01*
X533999Y-392567D03*
G01*
X641517Y-457565D03*
G01*
X686501Y-412556D03*
G01*
X896508Y-585073D03*
G01*
X384012Y-292567D03*
G01*
X414009Y-242580D03*
G01*
X471515Y-215071D03*
G01*
X419039Y-119948D03*
G01*
X144007Y-270062D03*
G01*
X84013Y-240065D03*
G01*
X1031509Y-732571D03*
G01*
X966510Y-585073D03*
G01*
X-11008Y-687562D03*
G01*
X-412658Y-152562D03*
G01*
X339003Y-40065D03*
G01*
X259019Y39918D03*
G01*
X333999Y39944D03*
G01*
X391505Y39944D03*
G01*
X476493Y82438D03*
G01*
X179009Y199837D03*
G01*
X179009Y119827D03*
G01*
X259019Y119928D03*
G01*
X259019Y199837D03*
G01*
X88991Y219928D03*
G01*
X-102499Y209997D03*
G01*
X2228992Y-720049D03*
G01*
X2328992Y-720074D03*
G01*
X2565237Y-450072D03*
G01*
X2565237Y-547557D03*
G01*
X2565237Y-652561D03*
G01*
X2565237Y-352562D03*
G01*
X2565237Y-255051D03*
G01*
X459018Y152440D03*
G01*
X2296480Y-120050D03*
G01*
X1476491Y644946D03*
G01*
X1386499Y679947D03*
G01*
X1528993Y679947D03*
G01*
X1528993Y744946D03*
G01*
X329834Y459933D03*
G01*
X-407654Y1139941D03*
G01*
X395010Y-695004D03*
G01*
X374843Y152440D03*
G01*
X-410169Y444921D03*
G01*
X358993Y699937D03*
G01*
X178983Y759932D03*
G01*
X32349Y877432D03*
G01*
X428995Y697448D03*
G01*
X52339Y809945D03*
G01*
X258993Y277434D03*
G01*
X1428993Y799937D03*
G01*
X1528993Y799937D03*
G01*
X1431483Y879947D03*
G01*
X1528993Y879947D03*
G01*
X1448983Y954928D03*
G01*
X1536486Y987440D03*
G01*
X1181496Y809945D03*
G01*
X1221425Y1082487D03*
G01*
X1138875Y999937D03*
G01*
X418988Y999962D03*
G01*
X339003Y999937D03*
G01*
X353989Y897448D03*
G01*
X416473Y834938D03*
G01*
X496483Y834938D03*
G01*
X576493Y834938D03*
G01*
X1139002Y1082436D03*
G01*
X993993Y759932D03*
G01*
X1058992Y999937D03*
G01*
X1058992Y919927D03*
G01*
X1098997Y879947D03*
G01*
X978982Y999937D03*
G01*
X978982Y919927D03*
G01*
X418988Y919927D03*
G01*
X498998Y919927D03*
G01*
X736488Y999937D03*
G01*
X739002Y894933D03*
G01*
X898997Y999937D03*
G01*
X818987Y999937D03*
G01*
X818987Y919927D03*
G01*
X898997Y919927D03*
G01*
X2565237Y-150073D03*
G01*
X2565237Y249925D03*
G01*
X2565237Y349925D03*
G01*
X2565237Y444947D03*
G01*
X2336485Y657443D03*
G01*
X2371486Y352440D03*
G01*
X2565237Y147436D03*
G01*
X2176490Y17439D03*
G01*
X2228992Y-27569D03*
G01*
X2046493Y159933D03*
G01*
X325008Y-474990D03*
G01*
X541467Y-475040D03*
G01*
X1918985Y1044945D03*
G01*
X2238999Y657443D03*
D19*
G01*
X2521498Y997447D03*
D18*
G01*
X2026478Y1009944D03*
D19*
G01*
X2496479Y-150073D03*
D20*
G01*
X1686499Y182438D03*
G01*
X1833996Y474944D03*
D18*
G01*
X1731482Y547436D03*
G01*
X1751497Y472429D03*
G01*
X1703999Y257444D03*
G01*
X2436484Y-255051D03*
G01*
X2565237Y47437D03*
G01*
X2565237Y-52562D03*
G01*
X2565237Y539943D03*
G01*
X1741490Y214924D03*
G01*
X1856475Y177434D03*
G01*
X1698995Y687440D03*
D20*
G01*
X-370164Y-55077D03*
D18*
G01*
X-340166Y112435D03*
G01*
X-237652Y924930D03*
G01*
X-309991Y-342503D03*
G01*
X94833Y-405063D03*
D20*
G01*
X-232674Y739942D03*
D18*
G01*
X-35189Y1064935D03*
G01*
X-130159Y1074943D03*
G01*
X-387664Y939942D03*
G01*
X-32674Y804941D03*
D20*
G01*
X2594828Y999937D03*
G01*
X99837Y759932D03*
D18*
G01*
X-187665Y-47558D03*
G01*
X-45171Y-127543D03*
G01*
X-187690Y-140040D03*
G01*
X-90180Y437428D03*
G01*
X-277682Y437428D03*
G01*
X-32674Y-292567D03*
G01*
X-305165Y924930D03*
G01*
X-10Y-10D03*
M02*
