G04 Layer: TopSilkscreenLayer*
G04 EasyEDA v6.5.21, 2022-10-22 16:28:30*
G04 167bdced229c4b2ca01845534b4d4eab,294cf934c43b457281b0b0dcd80bbfec,10*
G04 Gerber Generator version 0.2*
G04 Scale: 100 percent, Rotated: No, Reflected: No *
G04 Dimensions in millimeters *
G04 leading zeros omitted , absolute positions ,4 integer and 5 decimal *
%FSLAX45Y45*%
%MOMM*%

%ADD10C,0.2000*%
%ADD11C,0.1524*%
%ADD12C,0.1500*%
%ADD13C,0.1520*%
%ADD14C,0.2540*%
%ADD15C,0.1000*%
%ADD16C,0.2500*%
%ADD17C,0.0175*%

%LPD*%
G36*
X-1224178Y-99872D02*
G01*
X-1225702Y-100025D01*
X-1227023Y-100533D01*
X-1228140Y-101295D01*
X-1229004Y-102412D01*
X-1230477Y-106019D01*
X-1231798Y-111810D01*
X-1243313Y-195122D01*
X-1241958Y-195122D01*
X-1231798Y-121716D01*
X-1231544Y-121716D01*
X-1229766Y-109270D01*
X-1228598Y-105054D01*
X-1227988Y-103682D01*
X-1226413Y-101955D01*
X-1225346Y-101549D01*
X-1224178Y-101396D01*
X-1202080Y-101396D01*
X-1200912Y-101549D01*
X-1199896Y-101955D01*
X-1198524Y-103682D01*
X-1198118Y-105156D01*
X-1198016Y-109372D01*
X-1208582Y-186283D01*
X-1209954Y-195122D01*
X-1221638Y-195122D01*
X-1217828Y-166674D01*
X-1209954Y-112318D01*
X-1219098Y-112318D01*
X-1218590Y-112572D01*
X-1218844Y-112572D01*
X-1227328Y-174193D01*
X-1229969Y-191109D01*
X-1230782Y-195122D01*
X-1243313Y-195122D01*
X-1243482Y-196646D01*
X-1242720Y-196646D01*
X-1235608Y-203504D01*
X-1222146Y-203504D01*
X-1221130Y-197662D01*
X-1215288Y-203504D01*
X-1201572Y-203504D01*
X-1200810Y-200456D01*
X-1200302Y-194614D01*
X-1189431Y-117652D01*
X-1189278Y-114198D01*
X-1189685Y-111658D01*
X-1190548Y-109728D01*
X-1197000Y-103174D01*
X-1197762Y-101752D01*
X-1198880Y-100685D01*
X-1200302Y-100076D01*
X-1202080Y-99872D01*
G37*
G36*
X-1105814Y-99872D02*
G01*
X-1107338Y-100025D01*
X-1108659Y-100533D01*
X-1109776Y-101295D01*
X-1110640Y-102412D01*
X-1112113Y-106019D01*
X-1113434Y-111810D01*
X-1125016Y-195122D01*
X-1123594Y-195122D01*
X-1113434Y-121716D01*
X-1113180Y-121716D01*
X-1111402Y-109270D01*
X-1110234Y-105054D01*
X-1109624Y-103682D01*
X-1108049Y-101955D01*
X-1106982Y-101549D01*
X-1105814Y-101396D01*
X-1083970Y-101396D01*
X-1082700Y-101549D01*
X-1081633Y-101955D01*
X-1080770Y-102717D01*
X-1080160Y-103682D01*
X-1079754Y-105156D01*
X-1079652Y-109372D01*
X-1090066Y-185470D01*
X-1091590Y-195122D01*
X-1103274Y-195122D01*
X-1099464Y-166674D01*
X-1091590Y-112318D01*
X-1100734Y-112318D01*
X-1100226Y-112572D01*
X-1100480Y-112572D01*
X-1108964Y-174193D01*
X-1111605Y-191109D01*
X-1112418Y-195122D01*
X-1125016Y-195122D01*
X-1125372Y-196646D01*
X-1124356Y-196646D01*
X-1117244Y-203504D01*
X-1103782Y-203504D01*
X-1103020Y-197662D01*
X-1097178Y-203504D01*
X-1083208Y-203504D01*
X-1082802Y-202133D01*
X-1081684Y-192836D01*
X-1071067Y-117652D01*
X-1070914Y-114198D01*
X-1071321Y-111658D01*
X-1072184Y-109728D01*
X-1078636Y-103174D01*
X-1079449Y-101752D01*
X-1080617Y-100685D01*
X-1082090Y-100076D01*
X-1083970Y-99872D01*
G37*
G36*
X-1048156Y-99872D02*
G01*
X-1050950Y-102463D01*
X-1052728Y-104698D01*
X-1055522Y-110032D01*
X-1064920Y-183540D01*
X-1065428Y-189280D01*
X-1063752Y-189331D01*
X-1063396Y-184200D01*
X-1053998Y-110540D01*
X-1052220Y-106984D01*
X-1050544Y-104444D01*
X-1047648Y-101396D01*
X-1036980Y-101396D01*
X-1036980Y-101650D01*
X-1025550Y-101650D01*
X-1023366Y-104749D01*
X-1022756Y-106172D01*
X-1021994Y-110235D01*
X-1021740Y-110794D01*
X-1032154Y-184454D01*
X-1033119Y-189484D01*
X-1034440Y-192836D01*
X-1035151Y-193852D01*
X-1036015Y-194564D01*
X-1037031Y-194970D01*
X-1042822Y-195122D01*
X-1042822Y-195376D01*
X-1061262Y-194716D01*
X-1062177Y-194310D01*
X-1062888Y-193598D01*
X-1063396Y-192582D01*
X-1063752Y-189331D01*
X-1065423Y-189331D01*
X-1065174Y-191922D01*
X-1064514Y-193903D01*
X-1063396Y-195326D01*
X-1061872Y-196138D01*
X-1055116Y-202641D01*
X-1053592Y-203403D01*
X-1035202Y-204012D01*
X-1029208Y-203352D01*
X-1027937Y-202895D01*
X-1026921Y-202082D01*
X-1026058Y-200964D01*
X-1025296Y-199491D01*
X-1024026Y-195021D01*
X-1013104Y-118160D01*
X-1014120Y-114147D01*
X-1014882Y-112014D01*
X-1017676Y-108000D01*
X-1023010Y-102920D01*
X-1025042Y-100126D01*
X-1035964Y-100126D01*
X-1035964Y-99872D01*
G37*
G36*
X-1164996Y-100380D02*
G01*
X-1168298Y-104394D01*
X-1169568Y-106527D01*
X-1171397Y-110947D01*
X-1172514Y-115265D01*
X-1183582Y-195122D01*
X-1182268Y-195122D01*
X-1171041Y-115519D01*
X-1170025Y-111353D01*
X-1168450Y-107391D01*
X-1166012Y-103733D01*
X-1164488Y-101904D01*
X-1143660Y-101650D01*
X-1142136Y-103022D01*
X-1140968Y-104495D01*
X-1140104Y-106172D01*
X-1139596Y-108000D01*
X-1139088Y-112369D01*
X-1139088Y-117398D01*
X-1149756Y-195122D01*
X-1161186Y-195122D01*
X-1154836Y-149402D01*
X-1164996Y-152958D01*
X-1170584Y-195122D01*
X-1183582Y-195122D01*
X-1183792Y-196646D01*
X-1183030Y-196646D01*
X-1175918Y-203504D01*
X-1162202Y-203504D01*
X-1161440Y-196900D01*
X-1154836Y-203504D01*
X-1141374Y-203504D01*
X-1130452Y-125018D01*
X-1130706Y-116128D01*
X-1131112Y-114300D01*
X-1131773Y-112623D01*
X-1132738Y-111150D01*
X-1139596Y-104190D01*
X-1140968Y-102209D01*
X-1143152Y-100380D01*
G37*
G36*
X-1042568Y-112826D02*
G01*
X-1050188Y-172516D01*
X-1051966Y-183692D01*
X-1043584Y-183946D01*
X-1033678Y-112826D01*
G37*
G36*
X-1159408Y-113334D02*
G01*
X-1163218Y-141020D01*
X-1153312Y-137210D01*
X-1149756Y-113334D01*
G37*
G36*
X-1245819Y32816D02*
G01*
X-1243279Y-10871D01*
X-1258577Y-62687D01*
X-1256741Y-62687D01*
X-1241755Y-11379D01*
X-1244295Y31292D01*
X-1232103Y31292D01*
X-1230325Y50D01*
X-1222197Y31292D01*
X-1209497Y31292D01*
X-1222705Y-11887D01*
X-1223721Y-62433D01*
X-1235151Y-62433D01*
X-1233881Y-25603D01*
X-1245311Y-62941D01*
X-1258577Y-62687D01*
X-1259027Y-64211D01*
X-1257757Y-64211D01*
X-1250899Y-71323D01*
X-1236929Y-71577D01*
X-1236167Y-68275D01*
X-1235506Y-66497D01*
X-1235151Y-64719D01*
X-1228801Y-71069D01*
X-1215085Y-71069D01*
X-1214323Y-19761D01*
X-1200607Y24688D01*
X-1207719Y31800D01*
X-1207465Y32816D01*
X-1223467Y32816D01*
X-1224991Y26212D01*
X-1230579Y31546D01*
X-1230579Y32816D01*
G37*
G36*
X-1192987Y32816D02*
G01*
X-1194765Y17322D01*
X-1194003Y17322D01*
X-1186891Y10464D01*
X-1185367Y10464D01*
X-1195071Y-62687D01*
X-1193495Y-62687D01*
X-1182827Y18846D01*
X-1193241Y18846D01*
X-1191463Y31292D01*
X-1170127Y31292D01*
X-1182065Y-62941D01*
X-1195071Y-62687D01*
X-1195273Y-64211D01*
X-1194257Y-64211D01*
X-1187145Y-71323D01*
X-1173683Y-71577D01*
X-1161491Y24688D01*
X-1168603Y31800D01*
X-1168349Y32816D01*
G37*
G36*
X-1139647Y32816D02*
G01*
X-1142441Y30022D01*
X-1144219Y27736D01*
X-1146251Y24180D01*
X-1147013Y22402D01*
X-1156766Y-53797D01*
X-1156919Y-56845D01*
X-1155242Y-56946D01*
X-1154887Y-51765D01*
X-1153617Y-41859D01*
X-1153871Y-41859D01*
X-1145489Y22148D01*
X-1144625Y23520D01*
X-1143711Y25704D01*
X-1142187Y28244D01*
X-1139139Y31292D01*
X-1128471Y31038D01*
X-1128471Y30784D01*
X-1117295Y30784D01*
X-1114907Y27736D01*
X-1113993Y25196D01*
X-1113231Y21640D01*
X-1122121Y-42113D01*
X-1122375Y-42113D01*
X-1124051Y-54711D01*
X-1124559Y-56997D01*
X-1125931Y-60147D01*
X-1126642Y-61163D01*
X-1127506Y-61874D01*
X-1128522Y-62280D01*
X-1134313Y-62433D01*
X-1134313Y-62941D01*
X-1152753Y-62280D01*
X-1153668Y-61874D01*
X-1154379Y-61163D01*
X-1154887Y-60147D01*
X-1155242Y-56946D01*
X-1156909Y-56946D01*
X-1156665Y-59486D01*
X-1156004Y-61518D01*
X-1154887Y-62890D01*
X-1153363Y-63703D01*
X-1146606Y-70205D01*
X-1145082Y-70967D01*
X-1126693Y-71323D01*
X-1120800Y-70916D01*
X-1119479Y-70459D01*
X-1118412Y-69646D01*
X-1117549Y-68529D01*
X-1116787Y-67056D01*
X-1115517Y-62585D01*
X-1104849Y14274D01*
X-1104900Y15443D01*
X-1105458Y17424D01*
X-1107135Y21640D01*
X-1109167Y24434D01*
X-1115771Y31292D01*
X-1116533Y32308D01*
X-1127455Y32308D01*
X-1127455Y32562D01*
G37*
G36*
X-1082497Y32816D02*
G01*
X-1085291Y30022D01*
X-1087069Y27736D01*
X-1089609Y22402D01*
X-1099362Y-52273D01*
X-1099515Y-56845D01*
X-1098092Y-56946D01*
X-1097737Y-51765D01*
X-1096213Y-41859D01*
X-1096467Y-41859D01*
X-1088339Y22148D01*
X-1087475Y23520D01*
X-1086561Y25704D01*
X-1084834Y28244D01*
X-1081735Y31292D01*
X-1071321Y31038D01*
X-1071321Y30784D01*
X-1059891Y30784D01*
X-1057706Y27736D01*
X-1057097Y26365D01*
X-1056081Y21640D01*
X-1064717Y-42113D01*
X-1064971Y-42113D01*
X-1066749Y-54711D01*
X-1067917Y-58775D01*
X-1068527Y-60147D01*
X-1069340Y-61163D01*
X-1070305Y-61874D01*
X-1071372Y-62280D01*
X-1076909Y-62433D01*
X-1076909Y-62941D01*
X-1095603Y-62280D01*
X-1096518Y-61874D01*
X-1097229Y-61163D01*
X-1097737Y-60147D01*
X-1098092Y-56946D01*
X-1099505Y-56946D01*
X-1099261Y-59486D01*
X-1098600Y-61518D01*
X-1097483Y-62890D01*
X-1095959Y-63703D01*
X-1089304Y-70205D01*
X-1087678Y-70967D01*
X-1069543Y-71323D01*
X-1063548Y-70916D01*
X-1062278Y-70459D01*
X-1061262Y-69646D01*
X-1060399Y-68529D01*
X-1059637Y-67056D01*
X-1058367Y-62585D01*
X-1056335Y-49733D01*
X-1047546Y14427D01*
X-1047699Y15798D01*
X-1048715Y19354D01*
X-1049883Y21640D01*
X-1052017Y24434D01*
X-1057503Y30022D01*
X-1057859Y30683D01*
X-1059383Y32308D01*
X-1070305Y32308D01*
X-1070305Y32562D01*
G37*
G36*
X-1025093Y32816D02*
G01*
X-1027887Y30022D01*
X-1029665Y27736D01*
X-1032459Y22402D01*
X-1042212Y-53797D01*
X-1042365Y-56845D01*
X-1040688Y-56946D01*
X-1040333Y-51765D01*
X-1030935Y22148D01*
X-1030071Y23520D01*
X-1029157Y25704D01*
X-1027480Y28244D01*
X-1024585Y31292D01*
X-1013917Y31038D01*
X-1013917Y30784D01*
X-1002487Y30784D01*
X-1000302Y27736D01*
X-999693Y26365D01*
X-998677Y21640D01*
X-1009091Y-52019D01*
X-1010005Y-56997D01*
X-1011377Y-60147D01*
X-1012088Y-61163D01*
X-1012952Y-61874D01*
X-1013968Y-62280D01*
X-1019759Y-62433D01*
X-1019759Y-62941D01*
X-1038199Y-62280D01*
X-1039114Y-61874D01*
X-1039825Y-61163D01*
X-1040333Y-60147D01*
X-1040688Y-56946D01*
X-1042355Y-56946D01*
X-1042111Y-59486D01*
X-1041450Y-61518D01*
X-1040333Y-62890D01*
X-1038809Y-63703D01*
X-1032052Y-70205D01*
X-1030528Y-70967D01*
X-1012139Y-71323D01*
X-1006144Y-70916D01*
X-1004874Y-70459D01*
X-1003858Y-69646D01*
X-1002995Y-68529D01*
X-1002233Y-67056D01*
X-1000963Y-62585D01*
X-990142Y14427D01*
X-991057Y18338D01*
X-991768Y20421D01*
X-994613Y24434D01*
X-1001979Y32308D01*
X-1012901Y32308D01*
X-1012901Y32562D01*
G37*
G36*
X-1134059Y19862D02*
G01*
X-1141679Y-39827D01*
X-1143457Y-51257D01*
X-1135075Y-51511D01*
X-1125169Y19862D01*
G37*
G36*
X-1076909Y19862D02*
G01*
X-1086053Y-51257D01*
X-1077925Y-51511D01*
X-1077925Y-51257D01*
X-1077671Y-51257D01*
X-1067765Y19862D01*
G37*
G36*
X-1019505Y19862D02*
G01*
X-1027125Y-39827D01*
X-1028903Y-51257D01*
X-1020521Y-51511D01*
X-1010615Y19862D01*
G37*
D10*
X1338991Y1137437D02*
G01*
X1436491Y1137437D01*
X1436491Y1054938D01*
D11*
X-235163Y318655D02*
G01*
X-380883Y318655D01*
X-380883Y192935D01*
X-358005Y282844D02*
G01*
X-358005Y295036D01*
X-92321Y295036D01*
X-92321Y-35163D01*
X-358005Y-35163D01*
X-358005Y282844D01*
D12*
X-340164Y-151564D02*
G01*
X-200167Y-151564D01*
X-200167Y-167452D02*
G01*
X-200167Y-151564D01*
X-200167Y-232445D02*
G01*
X-200167Y-202707D01*
X-200167Y-283563D02*
G01*
X-200167Y-267700D01*
X-340164Y-167452D02*
G01*
X-340164Y-151564D01*
X-340164Y-232445D02*
G01*
X-340164Y-202707D01*
X-340164Y-283563D02*
G01*
X-340164Y-267700D01*
X-340164Y-283563D02*
G01*
X-200167Y-283563D01*
X-196164Y797432D02*
G01*
X-196164Y937430D01*
X-180276Y937430D02*
G01*
X-196164Y937430D01*
X-115282Y937430D02*
G01*
X-145021Y937430D01*
X-64165Y937430D02*
G01*
X-80027Y937430D01*
X-180276Y797432D02*
G01*
X-196164Y797432D01*
X-115282Y797432D02*
G01*
X-145021Y797432D01*
X-64165Y797432D02*
G01*
X-80027Y797432D01*
X-64165Y797432D02*
G01*
X-64165Y937430D01*
D11*
X2267366Y-449971D02*
G01*
X2346375Y-449971D01*
X2346375Y-350250D02*
G01*
X2267366Y-350250D01*
X2252126Y-365490D02*
G01*
X2252126Y-434731D01*
X2470627Y-449971D02*
G01*
X2391618Y-449971D01*
X2391618Y-350250D02*
G01*
X2470627Y-350250D01*
X2485867Y-365490D02*
G01*
X2485867Y-434731D01*
X1082456Y-725053D02*
G01*
X1161465Y-725053D01*
X1161465Y-625332D02*
G01*
X1082456Y-625332D01*
X1067216Y-640572D02*
G01*
X1067216Y-709813D01*
X1285717Y-725053D02*
G01*
X1206708Y-725053D01*
X1206708Y-625332D02*
G01*
X1285717Y-625332D01*
X1300957Y-640572D02*
G01*
X1300957Y-709813D01*
X2471536Y974059D02*
G01*
X2471536Y895050D01*
X2571257Y895050D02*
G01*
X2571257Y974059D01*
X2556017Y989299D02*
G01*
X2486776Y989299D01*
X2471536Y770798D02*
G01*
X2471536Y849807D01*
X2571257Y849807D02*
G01*
X2571257Y770798D01*
X2556017Y755558D02*
G01*
X2486776Y755558D01*
X2558003Y1107201D02*
G01*
X2478994Y1107201D01*
X2478994Y1007480D02*
G01*
X2558003Y1007480D01*
X2573243Y1022720D02*
G01*
X2573243Y1091961D01*
X2354742Y1107201D02*
G01*
X2433751Y1107201D01*
X2433751Y1007480D02*
G01*
X2354742Y1007480D01*
X2339502Y1022720D02*
G01*
X2339502Y1091961D01*
X2254112Y-508538D02*
G01*
X2254112Y-587547D01*
X2353833Y-587547D02*
G01*
X2353833Y-508538D01*
X2338593Y-493298D02*
G01*
X2269352Y-493298D01*
X2254112Y-711799D02*
G01*
X2254112Y-632790D01*
X2353833Y-632790D02*
G01*
X2353833Y-711799D01*
X2338593Y-727039D02*
G01*
X2269352Y-727039D01*
X-62575Y-502295D02*
G01*
X16433Y-502295D01*
X16433Y-402574D02*
G01*
X-62575Y-402574D01*
X-77815Y-417814D02*
G01*
X-77815Y-487055D01*
X140685Y-502295D02*
G01*
X61676Y-502295D01*
X61676Y-402574D02*
G01*
X140685Y-402574D01*
X155925Y-417814D02*
G01*
X155925Y-487055D01*
X325140Y-320868D02*
G01*
X325140Y-399877D01*
X424860Y-399877D02*
G01*
X424860Y-320868D01*
X409620Y-305628D02*
G01*
X340380Y-305628D01*
X325140Y-524128D02*
G01*
X325140Y-445119D01*
X424860Y-445119D02*
G01*
X424860Y-524128D01*
X409620Y-539369D02*
G01*
X340380Y-539369D01*
X2558003Y689879D02*
G01*
X2478994Y689879D01*
X2478994Y590158D02*
G01*
X2558003Y590158D01*
X2573243Y605398D02*
G01*
X2573243Y674639D01*
X2354742Y689879D02*
G01*
X2433751Y689879D01*
X2433751Y590158D02*
G01*
X2354742Y590158D01*
X2339502Y605398D02*
G01*
X2339502Y674639D01*
X2017430Y-725053D02*
G01*
X2096439Y-725053D01*
X2096439Y-625332D02*
G01*
X2017430Y-625332D01*
X2002190Y-640572D02*
G01*
X2002190Y-709813D01*
X2220691Y-725053D02*
G01*
X2141682Y-725053D01*
X2141682Y-625332D02*
G01*
X2220691Y-625332D01*
X2235931Y-640572D02*
G01*
X2235931Y-709813D01*
X1419214Y-508538D02*
G01*
X1419214Y-587547D01*
X1518935Y-587547D02*
G01*
X1518935Y-508538D01*
X1503695Y-493298D02*
G01*
X1434454Y-493298D01*
X1419214Y-711799D02*
G01*
X1419214Y-632790D01*
X1518935Y-632790D02*
G01*
X1518935Y-711799D01*
X1503695Y-727039D02*
G01*
X1434454Y-727039D01*
X1319138Y-508538D02*
G01*
X1319138Y-587547D01*
X1418859Y-587547D02*
G01*
X1418859Y-508538D01*
X1403619Y-493298D02*
G01*
X1334378Y-493298D01*
X1319138Y-711799D02*
G01*
X1319138Y-632790D01*
X1418859Y-632790D02*
G01*
X1418859Y-711799D01*
X1403619Y-727039D02*
G01*
X1334378Y-727039D01*
X-364223Y460900D02*
G01*
X-364223Y424055D01*
X-286103Y424055D02*
G01*
X-286103Y460900D01*
X-301343Y476140D02*
G01*
X-348983Y476140D01*
X-364223Y353971D02*
G01*
X-364223Y390817D01*
X-286103Y390817D02*
G01*
X-286103Y353971D01*
X-301343Y338731D02*
G01*
X-348983Y338731D01*
X-264472Y1065875D02*
G01*
X-227627Y1065875D01*
X-227627Y1143995D02*
G01*
X-264472Y1143995D01*
X-279712Y1128755D02*
G01*
X-279712Y1081115D01*
X-157543Y1065875D02*
G01*
X-194388Y1065875D01*
X-194388Y1143995D02*
G01*
X-157543Y1143995D01*
X-142303Y1128755D02*
G01*
X-142303Y1081115D01*
X-106700Y-53502D02*
G01*
X-143545Y-53502D01*
X-143545Y-131622D02*
G01*
X-106700Y-131622D01*
X-91460Y-116382D02*
G01*
X-91460Y-68742D01*
X-213629Y-53502D02*
G01*
X-176784Y-53502D01*
X-176784Y-131622D02*
G01*
X-213629Y-131622D01*
X-228869Y-116382D02*
G01*
X-228869Y-68742D01*
X-306699Y776495D02*
G01*
X-343545Y776495D01*
X-343545Y698375D02*
G01*
X-306699Y698375D01*
X-291459Y713615D02*
G01*
X-291459Y761255D01*
X-413628Y776495D02*
G01*
X-376783Y776495D01*
X-376783Y698375D02*
G01*
X-413628Y698375D01*
X-428868Y713615D02*
G01*
X-428868Y761255D01*
X-306699Y876493D02*
G01*
X-343545Y876493D01*
X-343545Y798372D02*
G01*
X-306699Y798372D01*
X-291459Y813612D02*
G01*
X-291459Y861253D01*
X-413628Y876493D02*
G01*
X-376783Y876493D01*
X-376783Y798372D02*
G01*
X-413628Y798372D01*
X-428868Y813612D02*
G01*
X-428868Y861253D01*
X-344385Y970876D02*
G01*
X-298833Y970876D01*
X-298833Y1048997D01*
X-344385Y1048997D01*
X-377624Y970876D02*
G01*
X-423176Y970876D01*
X-423176Y1048997D01*
X-377624Y1048997D01*
X-225127Y1048994D02*
G01*
X-270680Y1048994D01*
X-270680Y970874D01*
X-225127Y970874D01*
X-191889Y1048994D02*
G01*
X-146337Y1048994D01*
X-146337Y970874D01*
X-191889Y970874D01*
X-293545Y-131622D02*
G01*
X-247992Y-131622D01*
X-247992Y-53502D01*
X-293545Y-53502D01*
X-326783Y-131622D02*
G01*
X-372336Y-131622D01*
X-372336Y-53502D01*
X-326783Y-53502D01*
X6395Y249054D02*
G01*
X6395Y294606D01*
X-71724Y294606D01*
X-71724Y249054D01*
X6395Y215816D02*
G01*
X6395Y170263D01*
X-71724Y170263D01*
X-71724Y215816D01*
X6395Y106553D02*
G01*
X6395Y152105D01*
X-71724Y152105D01*
X-71724Y106553D01*
X6395Y73314D02*
G01*
X6395Y27762D01*
X-71724Y27762D01*
X-71724Y73314D01*
X6395Y574055D02*
G01*
X6395Y619607D01*
X-71724Y619607D01*
X-71724Y574055D01*
X6395Y540816D02*
G01*
X6395Y495264D01*
X-71724Y495264D01*
X-71724Y540816D01*
X-423019Y497072D02*
G01*
X-423019Y672795D01*
X-112301Y672795D01*
X-112301Y497072D01*
X-423019Y497072D01*
X-36946Y986472D02*
G01*
X-36946Y1023317D01*
X-115067Y1023317D02*
G01*
X-115067Y986472D01*
X-99827Y971232D02*
G01*
X-52186Y971232D01*
X-36946Y1093401D02*
G01*
X-36946Y1056556D01*
X-115067Y1056556D02*
G01*
X-115067Y1093401D01*
X-99827Y1108641D02*
G01*
X-52186Y1108641D01*
X-213629Y698375D02*
G01*
X-176784Y698375D01*
X-176784Y776495D02*
G01*
X-213629Y776495D01*
X-228869Y761255D02*
G01*
X-228869Y713615D01*
X-106700Y698375D02*
G01*
X-143545Y698375D01*
X-143545Y776495D02*
G01*
X-106700Y776495D01*
X-91460Y761255D02*
G01*
X-91460Y713615D01*
X-344385Y1065875D02*
G01*
X-298833Y1065875D01*
X-298833Y1143995D01*
X-344385Y1143995D01*
X-377624Y1065875D02*
G01*
X-423176Y1065875D01*
X-423176Y1143995D01*
X-377624Y1143995D01*
X494873Y-590999D02*
G01*
X449320Y-590999D01*
X449320Y-669119D01*
X494873Y-669119D01*
X528111Y-590999D02*
G01*
X573664Y-590999D01*
X573664Y-669119D01*
X528111Y-669119D01*
X1560530Y185872D02*
G01*
X1597383Y185872D01*
X1597383Y264002D02*
G01*
X1560530Y264002D01*
X1545295Y248749D02*
G01*
X1545295Y201119D01*
X1667464Y185872D02*
G01*
X1630608Y185872D01*
X1630608Y264002D02*
G01*
X1667464Y264002D01*
X1682699Y248749D02*
G01*
X1682699Y201119D01*
X1789871Y366499D02*
G01*
X1744319Y366499D01*
X1744319Y288378D01*
X1789871Y288378D01*
X1823110Y366499D02*
G01*
X1868662Y366499D01*
X1868662Y288378D01*
X1823110Y288378D01*
X-71724Y-236682D02*
G01*
X-71724Y-282234D01*
X6395Y-282234D01*
X6395Y-236682D01*
X-71724Y-203443D02*
G01*
X-71724Y-157891D01*
X6395Y-157891D01*
X6395Y-203443D01*
X1642430Y488317D02*
G01*
X1642430Y442765D01*
X1720550Y442765D01*
X1720550Y488317D01*
X1642430Y521555D02*
G01*
X1642430Y567108D01*
X1720550Y567108D01*
X1720550Y521555D01*
X1642430Y333319D02*
G01*
X1642430Y287766D01*
X1720550Y287766D01*
X1720550Y333319D01*
X1642430Y366557D02*
G01*
X1642430Y412109D01*
X1720550Y412109D01*
X1720550Y366557D01*
X2242370Y1106497D02*
G01*
X2196818Y1106497D01*
X2196818Y1028377D01*
X2242370Y1028377D01*
X2275608Y1106497D02*
G01*
X2321161Y1106497D01*
X2321161Y1028377D01*
X2275608Y1028377D01*
X1982370Y1106497D02*
G01*
X1936818Y1106497D01*
X1936818Y1028377D01*
X1982370Y1028377D01*
X2015609Y1106497D02*
G01*
X2061161Y1106497D01*
X2061161Y1028377D01*
X2015609Y1028377D01*
X2354927Y753318D02*
G01*
X2354927Y707765D01*
X2433048Y707765D01*
X2433048Y753318D01*
X2354927Y786556D02*
G01*
X2354927Y832109D01*
X2433048Y832109D01*
X2433048Y786556D01*
X1654967Y-191007D02*
G01*
X1618119Y-191007D01*
X1618119Y-269125D02*
G01*
X1654967Y-269125D01*
X1670204Y-253890D02*
G01*
X1670204Y-206250D01*
X1548036Y-191007D02*
G01*
X1584883Y-191007D01*
X1584883Y-269125D02*
G01*
X1548036Y-269125D01*
X1532798Y-253890D02*
G01*
X1532798Y-206250D01*
X1629940Y-321602D02*
G01*
X1629940Y-358447D01*
X1708063Y-358447D02*
G01*
X1708063Y-321602D01*
X1692823Y-306367D02*
G01*
X1645185Y-306367D01*
X1629940Y-428533D02*
G01*
X1629940Y-391693D01*
X1708063Y-391693D02*
G01*
X1708063Y-428533D01*
X1692823Y-443771D02*
G01*
X1645185Y-443771D01*
X1547431Y403387D02*
G01*
X1547431Y366542D01*
X1625551Y366542D02*
G01*
X1625551Y403387D01*
X1610311Y418627D02*
G01*
X1562671Y418627D01*
X1547431Y296458D02*
G01*
X1547431Y333303D01*
X1625551Y333303D02*
G01*
X1625551Y296458D01*
X1610311Y281218D02*
G01*
X1562671Y281218D01*
X1724931Y-321612D02*
G01*
X1724931Y-358457D01*
X1803052Y-358457D02*
G01*
X1803052Y-321612D01*
X1787812Y-306372D02*
G01*
X1740171Y-306372D01*
X1724931Y-428541D02*
G01*
X1724931Y-391695D01*
X1803052Y-391695D02*
G01*
X1803052Y-428541D01*
X1787812Y-443781D02*
G01*
X1740171Y-443781D01*
X2354927Y973401D02*
G01*
X2354927Y936556D01*
X2433048Y936556D02*
G01*
X2433048Y973401D01*
X2417808Y988641D02*
G01*
X2370167Y988641D01*
X2354927Y866472D02*
G01*
X2354927Y903317D01*
X2433048Y903317D02*
G01*
X2433048Y866472D01*
X2417808Y851232D02*
G01*
X2370167Y851232D01*
X1439931Y-321612D02*
G01*
X1439931Y-358457D01*
X1518051Y-358457D02*
G01*
X1518051Y-321612D01*
X1502811Y-306372D02*
G01*
X1455171Y-306372D01*
X1439931Y-428541D02*
G01*
X1439931Y-391695D01*
X1518051Y-391695D02*
G01*
X1518051Y-428541D01*
X1502811Y-443781D02*
G01*
X1455171Y-443781D01*
X1613052Y-428541D02*
G01*
X1613052Y-391695D01*
X1534932Y-391695D02*
G01*
X1534932Y-428541D01*
X1550172Y-443781D02*
G01*
X1597812Y-443781D01*
X1613052Y-321612D02*
G01*
X1613052Y-358457D01*
X1534932Y-358457D02*
G01*
X1534932Y-321612D01*
X1550172Y-306372D02*
G01*
X1597812Y-306372D01*
X1819930Y-321612D02*
G01*
X1819930Y-358457D01*
X1898050Y-358457D02*
G01*
X1898050Y-321612D01*
X1882810Y-306372D02*
G01*
X1835170Y-306372D01*
X1819930Y-428541D02*
G01*
X1819930Y-391695D01*
X1898050Y-391695D02*
G01*
X1898050Y-428541D01*
X1882810Y-443781D02*
G01*
X1835170Y-443781D01*
X-61970Y-384121D02*
G01*
X-25125Y-384121D01*
X-25125Y-306001D02*
G01*
X-61970Y-306001D01*
X-77210Y-321241D02*
G01*
X-77210Y-368881D01*
X44957Y-384121D02*
G01*
X8112Y-384121D01*
X8112Y-306001D02*
G01*
X44957Y-306001D01*
X60197Y-321241D02*
G01*
X60197Y-368881D01*
X1547431Y558385D02*
G01*
X1547431Y521540D01*
X1625551Y521540D02*
G01*
X1625551Y558385D01*
X1610311Y573625D02*
G01*
X1562671Y573625D01*
X1547431Y451457D02*
G01*
X1547431Y488302D01*
X1625551Y488302D02*
G01*
X1625551Y451457D01*
X1610311Y436217D02*
G01*
X1562671Y436217D01*
X309059Y-428464D02*
G01*
X309059Y-391619D01*
X230939Y-391619D02*
G01*
X230939Y-428464D01*
X246179Y-443704D02*
G01*
X293819Y-443704D01*
X309059Y-321536D02*
G01*
X309059Y-358381D01*
X230939Y-358381D02*
G01*
X230939Y-321536D01*
X246179Y-306296D02*
G01*
X293819Y-306296D01*
X6395Y-113527D02*
G01*
X6395Y-76682D01*
X-71724Y-76682D02*
G01*
X-71724Y-113527D01*
X-56484Y-128767D02*
G01*
X-8844Y-128767D01*
X6395Y-6598D02*
G01*
X6395Y-43444D01*
X-71724Y-43444D02*
G01*
X-71724Y-6598D01*
X-56484Y8641D02*
G01*
X-8844Y8641D01*
X6395Y353971D02*
G01*
X6395Y390817D01*
X-71724Y390817D02*
G01*
X-71724Y353971D01*
X-56484Y338731D02*
G01*
X-8844Y338731D01*
X6395Y460900D02*
G01*
X6395Y424055D01*
X-71724Y424055D02*
G01*
X-71724Y460900D01*
X-56484Y476140D02*
G01*
X-8844Y476140D01*
X-169224Y460900D02*
G01*
X-169224Y424055D01*
X-91104Y424055D02*
G01*
X-91104Y460900D01*
X-106344Y476140D02*
G01*
X-153984Y476140D01*
X-169224Y353971D02*
G01*
X-169224Y390817D01*
X-91104Y390817D02*
G01*
X-91104Y353971D01*
X-106344Y338731D02*
G01*
X-153984Y338731D01*
X-188602Y353971D02*
G01*
X-188602Y390817D01*
X-266722Y390817D02*
G01*
X-266722Y353971D01*
X-251482Y338731D02*
G01*
X-203842Y338731D01*
X-188602Y460900D02*
G01*
X-188602Y424055D01*
X-266722Y424055D02*
G01*
X-266722Y460900D01*
X-251482Y476140D02*
G01*
X-203842Y476140D01*
X103438Y-546534D02*
G01*
X103438Y-583379D01*
X181559Y-583379D02*
G01*
X181559Y-546534D01*
X166319Y-531294D02*
G01*
X118678Y-531294D01*
X103438Y-653463D02*
G01*
X103438Y-616618D01*
X181559Y-616618D02*
G01*
X181559Y-653463D01*
X166319Y-668703D02*
G01*
X118678Y-668703D01*
X458028Y-574121D02*
G01*
X494873Y-574121D01*
X494873Y-496001D02*
G01*
X458028Y-496001D01*
X442788Y-511241D02*
G01*
X442788Y-558881D01*
X564956Y-574121D02*
G01*
X528111Y-574121D01*
X528111Y-496001D02*
G01*
X564956Y-496001D01*
X580196Y-511241D02*
G01*
X580196Y-558881D01*
X276560Y-653463D02*
G01*
X276560Y-616618D01*
X198440Y-616618D02*
G01*
X198440Y-653463D01*
X213680Y-668703D02*
G01*
X261320Y-668703D01*
X276560Y-546534D02*
G01*
X276560Y-583379D01*
X198440Y-583379D02*
G01*
X198440Y-546534D01*
X213680Y-531294D02*
G01*
X261320Y-531294D01*
X-71724Y760900D02*
G01*
X-71724Y724054D01*
X6395Y724054D02*
G01*
X6395Y760900D01*
X-8844Y776140D02*
G01*
X-56484Y776140D01*
X-71724Y653971D02*
G01*
X-71724Y690816D01*
X6395Y690816D02*
G01*
X6395Y653971D01*
X-8844Y638731D02*
G01*
X-56484Y638731D01*
X199971Y-306009D02*
G01*
X163126Y-306009D01*
X163126Y-384129D02*
G01*
X199971Y-384129D01*
X215211Y-368889D02*
G01*
X215211Y-321249D01*
X93042Y-306009D02*
G01*
X129887Y-306009D01*
X129887Y-384129D02*
G01*
X93042Y-384129D01*
X77802Y-368889D02*
G01*
X77802Y-321249D01*
X309034Y-669058D02*
G01*
X345879Y-669058D01*
X345879Y-590938D02*
G01*
X309034Y-590938D01*
X293794Y-606178D02*
G01*
X293794Y-653818D01*
X415963Y-669058D02*
G01*
X379117Y-669058D01*
X379117Y-590938D02*
G01*
X415963Y-590938D01*
X431203Y-606178D02*
G01*
X431203Y-653818D01*
X979931Y-321612D02*
G01*
X979931Y-358457D01*
X1058052Y-358457D02*
G01*
X1058052Y-321612D01*
X1042812Y-306372D02*
G01*
X995171Y-306372D01*
X979931Y-428541D02*
G01*
X979931Y-391695D01*
X1058052Y-391695D02*
G01*
X1058052Y-428541D01*
X1042812Y-443781D02*
G01*
X995171Y-443781D01*
X564956Y-401015D02*
G01*
X528111Y-401015D01*
X528111Y-479135D02*
G01*
X564956Y-479135D01*
X580196Y-463895D02*
G01*
X580196Y-416255D01*
X458028Y-401015D02*
G01*
X494873Y-401015D01*
X494873Y-479135D02*
G01*
X458028Y-479135D01*
X442788Y-463895D02*
G01*
X442788Y-416255D01*
X1400550Y-428541D02*
G01*
X1400550Y-391695D01*
X1322430Y-391695D02*
G01*
X1322430Y-428541D01*
X1337670Y-443781D02*
G01*
X1385310Y-443781D01*
X1400550Y-321612D02*
G01*
X1400550Y-358457D01*
X1322430Y-358457D02*
G01*
X1322430Y-321612D01*
X1337670Y-306372D02*
G01*
X1385310Y-306372D01*
X963048Y-428533D02*
G01*
X963048Y-391688D01*
X884928Y-391688D02*
G01*
X884928Y-428533D01*
X900168Y-443773D02*
G01*
X947808Y-443773D01*
X963048Y-321604D02*
G01*
X963048Y-358449D01*
X884928Y-358449D02*
G01*
X884928Y-321604D01*
X900168Y-306364D02*
G01*
X947808Y-306364D01*
X789932Y-321612D02*
G01*
X789932Y-358457D01*
X868052Y-358457D02*
G01*
X868052Y-321612D01*
X852812Y-306372D02*
G01*
X805172Y-306372D01*
X789932Y-428541D02*
G01*
X789932Y-391695D01*
X868052Y-391695D02*
G01*
X868052Y-428541D01*
X852812Y-443781D02*
G01*
X805172Y-443781D01*
X773048Y-428533D02*
G01*
X773048Y-391688D01*
X694928Y-391688D02*
G01*
X694928Y-428533D01*
X710168Y-443773D02*
G01*
X757809Y-443773D01*
X773048Y-321604D02*
G01*
X773048Y-358449D01*
X694928Y-358449D02*
G01*
X694928Y-321604D01*
X710168Y-306364D02*
G01*
X757809Y-306364D01*
X599930Y-321604D02*
G01*
X599930Y-358449D01*
X678050Y-358449D02*
G01*
X678050Y-321604D01*
X662810Y-306364D02*
G01*
X615170Y-306364D01*
X599930Y-428533D02*
G01*
X599930Y-391688D01*
X678050Y-391688D02*
G01*
X678050Y-428533D01*
X662810Y-443773D02*
G01*
X615170Y-443773D01*
D13*
X1692404Y750628D02*
G01*
X1692404Y979228D01*
X1895604Y979228D02*
G01*
X1895604Y750628D01*
X1082393Y-589373D02*
G01*
X1082393Y-360773D01*
X1285593Y-360773D02*
G01*
X1285593Y-589373D01*
X2017392Y-589373D02*
G01*
X2017392Y-360773D01*
X2220592Y-360773D02*
G01*
X2220592Y-589373D01*
D11*
X1611383Y-727428D02*
G01*
X1539580Y-727428D01*
X1539580Y-627707D01*
X1611383Y-627707D01*
X1656626Y-727428D02*
G01*
X1728429Y-727428D01*
X1728429Y-627707D01*
X1656626Y-627707D01*
X1654124Y-492706D02*
G01*
X1725927Y-492706D01*
X1725927Y-592427D01*
X1654124Y-592427D01*
X1608881Y-492706D02*
G01*
X1537078Y-492706D01*
X1537078Y-592427D01*
X1608881Y-592427D01*
X721626Y-492706D02*
G01*
X793429Y-492706D01*
X793429Y-592427D01*
X721626Y-592427D01*
X676384Y-492706D02*
G01*
X604580Y-492706D01*
X604580Y-592427D01*
X676384Y-592427D01*
X676384Y-727428D02*
G01*
X604580Y-727428D01*
X604580Y-627707D01*
X676384Y-627707D01*
X721626Y-727428D02*
G01*
X793429Y-727428D01*
X793429Y-627707D01*
X721626Y-627707D01*
D14*
X1399395Y1024120D02*
G01*
X1399395Y-220479D01*
X78595Y-220479D01*
X78595Y1100320D01*
X1399395Y1100320D01*
X1399395Y1024120D02*
G01*
X1399395Y1100320D01*
D10*
X2286500Y987430D02*
G01*
X2188997Y987430D01*
X2286500Y672330D02*
G01*
X2188997Y672330D01*
X2069061Y672429D02*
G01*
X1971560Y672429D01*
X2068992Y987430D02*
G01*
X1971499Y987430D01*
X2286500Y689935D02*
G01*
X2286500Y672330D01*
X2286500Y987430D02*
G01*
X2286500Y969825D01*
X1971499Y987430D02*
G01*
X1971499Y969832D01*
X1971560Y690214D02*
G01*
X1971560Y672429D01*
D13*
X823993Y-482572D02*
G01*
X823991Y-682571D01*
X1043995Y-682571D02*
G01*
X1043993Y-482572D01*
X823993Y-482572D02*
G01*
X827389Y-482572D01*
X1040597Y-482572D02*
G01*
X1043993Y-482572D01*
X1043995Y-682571D02*
G01*
X1040597Y-682571D01*
X1758993Y-482572D02*
G01*
X1758990Y-682571D01*
X1978995Y-682571D02*
G01*
X1978992Y-482572D01*
X1758993Y-482572D02*
G01*
X1762389Y-482572D01*
X1975596Y-482572D02*
G01*
X1978992Y-482572D01*
X1978995Y-682571D02*
G01*
X1975596Y-682571D01*
D11*
X1859955Y466498D02*
G01*
X1823110Y466498D01*
X1823110Y388378D02*
G01*
X1859955Y388378D01*
X1875195Y403618D02*
G01*
X1875195Y451258D01*
X1753026Y466498D02*
G01*
X1789871Y466498D01*
X1789871Y388378D02*
G01*
X1753026Y388378D01*
X1737786Y403618D02*
G01*
X1737786Y451258D01*
X1753026Y483377D02*
G01*
X1789871Y483377D01*
X1789871Y561497D02*
G01*
X1753026Y561497D01*
X1737786Y546257D02*
G01*
X1737786Y498617D01*
X1859955Y483377D02*
G01*
X1823110Y483377D01*
X1823110Y561497D02*
G01*
X1859955Y561497D01*
X1875195Y546257D02*
G01*
X1875195Y498617D01*
X1796493Y-267934D02*
G01*
X1869851Y-267934D01*
X1869851Y-22219D01*
X1796493Y-22219D01*
X1761492Y-267934D02*
G01*
X1688134Y-267934D01*
X1688134Y-22219D01*
X1761492Y-22219D01*
X-169224Y-166598D02*
G01*
X-169224Y-203443D01*
X-91104Y-203443D02*
G01*
X-91104Y-166598D01*
X-106344Y-151358D02*
G01*
X-153984Y-151358D01*
X-169224Y-273527D02*
G01*
X-169224Y-236682D01*
X-91104Y-236682D02*
G01*
X-91104Y-273527D01*
X-106344Y-288767D02*
G01*
X-153984Y-288767D01*
X-358602Y-271028D02*
G01*
X-358602Y-234182D01*
X-436722Y-234182D02*
G01*
X-436722Y-271028D01*
X-421482Y-286268D02*
G01*
X-373842Y-286268D01*
X-358602Y-164099D02*
G01*
X-358602Y-200944D01*
X-436722Y-200944D02*
G01*
X-436722Y-164099D01*
X-421482Y-148859D02*
G01*
X-373842Y-148859D01*
D15*
X2499001Y529963D02*
G01*
X2499001Y-256336D01*
X1899003Y529963D02*
G01*
X1899003Y-270035D01*
X2499001Y-256336D02*
G01*
X2499001Y-270035D01*
X1899003Y529963D02*
G01*
X1966572Y529963D01*
X2047387Y529963D02*
G01*
X2094585Y529963D01*
X2175400Y529963D02*
G01*
X2222604Y529963D01*
X2303416Y529963D02*
G01*
X2350594Y529963D01*
X2431409Y529963D02*
G01*
X2499001Y529963D01*
X1899003Y-270035D02*
G01*
X1966595Y-270035D01*
X2047412Y-270035D02*
G01*
X2094585Y-270035D01*
X2175403Y-270035D02*
G01*
X2222604Y-270035D01*
X2303419Y-270035D02*
G01*
X2350594Y-270035D01*
X2431409Y-270035D02*
G01*
X2499001Y-270035D01*
D11*
X458028Y-384136D02*
G01*
X494873Y-384136D01*
X494873Y-306016D02*
G01*
X458028Y-306016D01*
X442788Y-321256D02*
G01*
X442788Y-368896D01*
X564956Y-384136D02*
G01*
X528111Y-384136D01*
X528111Y-306016D02*
G01*
X564956Y-306016D01*
X580196Y-321256D02*
G01*
X580196Y-368896D01*
G75*
G01*
X2267367Y-350251D02*
G03*
X2252127Y-365491I0J-15240D01*
G75*
G01*
X2252127Y-434731D02*
G03*
X2267367Y-449971I15240J0D01*
G75*
G01*
X2470628Y-350251D02*
G02*
X2485868Y-365491I0J-15240D01*
G75*
G01*
X2485868Y-434731D02*
G02*
X2470628Y-449971I-15240J0D01*
G75*
G01*
X1082457Y-625333D02*
G03*
X1067217Y-640573I0J-15240D01*
G75*
G01*
X1067217Y-709813D02*
G03*
X1082457Y-725053I15240J0D01*
G75*
G01*
X1285718Y-625333D02*
G02*
X1300958Y-640573I0J-15240D01*
G75*
G01*
X1300958Y-709813D02*
G02*
X1285718Y-725053I-15240J0D01*
G75*
G01*
X2571257Y974060D02*
G03*
X2556017Y989300I-15240J0D01*
G75*
G01*
X2486777Y989300D02*
G03*
X2471537Y974060I0J-15240D01*
G75*
G01*
X2571257Y770799D02*
G02*
X2556017Y755559I-15240J0D01*
G75*
G01*
X2486777Y755559D02*
G02*
X2471537Y770799I0J15240D01*
G75*
G01*
X2558004Y1007481D02*
G03*
X2573244Y1022721I0J15240D01*
G75*
G01*
X2573244Y1091961D02*
G03*
X2558004Y1107201I-15240J0D01*
G75*
G01*
X2354743Y1007481D02*
G02*
X2339503Y1022721I0J15240D01*
G75*
G01*
X2339503Y1091961D02*
G02*
X2354743Y1107201I15240J0D01*
G75*
G01*
X2353833Y-508538D02*
G03*
X2338593Y-493298I-15240J0D01*
G75*
G01*
X2269353Y-493298D02*
G03*
X2254113Y-508538I0J-15240D01*
G75*
G01*
X2353833Y-711799D02*
G02*
X2338593Y-727039I-15240J0D01*
G75*
G01*
X2269353Y-727039D02*
G02*
X2254113Y-711799I0J15240D01*
G75*
G01*
X-62575Y-402575D02*
G03*
X-77815Y-417815I0J-15240D01*
G75*
G01*
X-77815Y-487055D02*
G03*
X-62575Y-502295I15240J0D01*
G75*
G01*
X140686Y-402575D02*
G02*
X155926Y-417815I0J-15240D01*
G75*
G01*
X155926Y-487055D02*
G02*
X140686Y-502295I-15240J0D01*
G75*
G01*
X424861Y-320868D02*
G03*
X409621Y-305628I-15240J0D01*
G75*
G01*
X340380Y-305628D02*
G03*
X325140Y-320868I0J-15240D01*
G75*
G01*
X424861Y-524129D02*
G02*
X409621Y-539369I-15240J0D01*
G75*
G01*
X340380Y-539369D02*
G02*
X325140Y-524129I0J15240D01*
G75*
G01*
X2558004Y590159D02*
G03*
X2573244Y605399I0J15240D01*
G75*
G01*
X2573244Y674639D02*
G03*
X2558004Y689879I-15240J0D01*
G75*
G01*
X2354743Y590159D02*
G02*
X2339503Y605399I0J15240D01*
G75*
G01*
X2339503Y674639D02*
G02*
X2354743Y689879I15240J0D01*
G75*
G01*
X2017431Y-625333D02*
G03*
X2002191Y-640573I0J-15240D01*
G75*
G01*
X2002191Y-709813D02*
G03*
X2017431Y-725053I15240J0D01*
G75*
G01*
X2220692Y-625333D02*
G02*
X2235932Y-640573I0J-15240D01*
G75*
G01*
X2235932Y-709813D02*
G02*
X2220692Y-725053I-15240J0D01*
G75*
G01*
X1518935Y-508538D02*
G03*
X1503695Y-493298I-15240J0D01*
G75*
G01*
X1434455Y-493298D02*
G03*
X1419215Y-508538I0J-15240D01*
G75*
G01*
X1518935Y-711799D02*
G02*
X1503695Y-727039I-15240J0D01*
G75*
G01*
X1434455Y-727039D02*
G02*
X1419215Y-711799I0J15240D01*
G75*
G01*
X1418859Y-508538D02*
G03*
X1403619Y-493298I-15240J0D01*
G75*
G01*
X1334379Y-493298D02*
G03*
X1319139Y-508538I0J-15240D01*
G75*
G01*
X1418859Y-711799D02*
G02*
X1403619Y-727039I-15240J0D01*
G75*
G01*
X1334379Y-727039D02*
G02*
X1319139Y-711799I0J15240D01*
G75*
G01*
X-286103Y460901D02*
G03*
X-301343Y476141I-15240J0D01*
G75*
G01*
X-348983Y476141D02*
G03*
X-364223Y460901I0J-15240D01*
G75*
G01*
X-286103Y353972D02*
G02*
X-301343Y338732I-15240J0D01*
G75*
G01*
X-348983Y338732D02*
G02*
X-364223Y353972I0J15240D01*
G75*
G01*
X-264472Y1143996D02*
G03*
X-279712Y1128756I0J-15240D01*
G75*
G01*
X-279712Y1081115D02*
G03*
X-264472Y1065875I15240J0D01*
G75*
G01*
X-157543Y1143996D02*
G02*
X-142303Y1128756I-1J-15240D01*
G75*
G01*
X-142303Y1081115D02*
G02*
X-157543Y1065875I-15241J0D01*
G75*
G01*
X-106700Y-131623D02*
G03*
X-91460Y-116383I0J15240D01*
G75*
G01*
X-91460Y-68743D02*
G03*
X-106700Y-53503I-15240J0D01*
G75*
G01*
X-213629Y-131623D02*
G02*
X-228869Y-116383I0J15240D01*
G75*
G01*
X-228869Y-68743D02*
G02*
X-213629Y-53503I15240J0D01*
G75*
G01*
X-306700Y698376D02*
G03*
X-291460Y713616I0J15240D01*
G75*
G01*
X-291460Y761256D02*
G03*
X-306700Y776496I-15240J0D01*
G75*
G01*
X-413629Y698376D02*
G02*
X-428869Y713616I0J15240D01*
G75*
G01*
X-428869Y761256D02*
G02*
X-413629Y776496I15240J0D01*
G75*
G01*
X-306700Y798373D02*
G03*
X-291460Y813613I0J15240D01*
G75*
G01*
X-291460Y861253D02*
G03*
X-306700Y876493I-15240J0D01*
G75*
G01*
X-413629Y798373D02*
G02*
X-428869Y813613I0J15240D01*
G75*
G01*
X-428869Y861253D02*
G02*
X-413629Y876493I15240J0D01*
G75*
G01*
X-115067Y986473D02*
G03*
X-99827Y971233I15240J0D01*
G75*
G01*
X-52187Y971233D02*
G03*
X-36947Y986473I0J15240D01*
G75*
G01*
X-115067Y1093401D02*
G02*
X-99827Y1108641I15240J0D01*
G75*
G01*
X-52187Y1108641D02*
G02*
X-36947Y1093401I0J-15240D01*
G75*
G01*
X-213629Y776496D02*
G03*
X-228869Y761256I0J-15240D01*
G75*
G01*
X-228869Y713616D02*
G03*
X-213629Y698376I15240J0D01*
G75*
G01*
X-106700Y776496D02*
G02*
X-91460Y761256I0J-15240D01*
G75*
G01*
X-91460Y713616D02*
G02*
X-106700Y698376I-15240J0D01*
G75*
G01*
X1560530Y264003D02*
G03*
X1545295Y248750I5J-15240D01*
G75*
G01*
X1545295Y201120D02*
G03*
X1560530Y185872I15240J-8D01*
G75*
G01*
X1667464Y264003D02*
G02*
X1682699Y248750I-5J-15240D01*
G75*
G01*
X1682699Y201120D02*
G02*
X1667464Y185872I-15240J-8D01*
G75*
G01*
X1654967Y-269126D02*
G03*
X1670205Y-253891I-2J15240D01*
G75*
G01*
X1670205Y-206251D02*
G03*
X1654967Y-191008I-15240J3D01*
G75*
G01*
X1548036Y-269126D02*
G02*
X1532799Y-253891I3J15240D01*
G75*
G01*
X1532799Y-206251D02*
G02*
X1548036Y-191008I15240J3D01*
G75*
G01*
X1708064Y-321602D02*
G03*
X1692824Y-306367I-15240J-5D01*
G75*
G01*
X1645186Y-306367D02*
G03*
X1629941Y-321602I-5J-15240D01*
G75*
G01*
X1708064Y-428534D02*
G02*
X1692824Y-443771I-15240J3D01*
G75*
G01*
X1645186Y-443771D02*
G02*
X1629941Y-428534I-5J15240D01*
G75*
G01*
X1625552Y403388D02*
G03*
X1610312Y418628I-15240J0D01*
G75*
G01*
X1562672Y418628D02*
G03*
X1547431Y403388I0J-15240D01*
G75*
G01*
X1625552Y296459D02*
G02*
X1610312Y281219I-15240J0D01*
G75*
G01*
X1562672Y281219D02*
G02*
X1547431Y296459I0J15240D01*
G75*
G01*
X1803052Y-321612D02*
G03*
X1787812Y-306372I-15240J0D01*
G75*
G01*
X1740172Y-306372D02*
G03*
X1724932Y-321612I0J-15240D01*
G75*
G01*
X1803052Y-428541D02*
G02*
X1787812Y-443781I-15240J0D01*
G75*
G01*
X1740172Y-443781D02*
G02*
X1724932Y-428541I0J15240D01*
G75*
G01*
X2433048Y973402D02*
G03*
X2417808Y988642I-15240J0D01*
G75*
G01*
X2370168Y988642D02*
G03*
X2354928Y973402I0J-15240D01*
G75*
G01*
X2433048Y866473D02*
G02*
X2417808Y851233I-15240J0D01*
G75*
G01*
X2370168Y851233D02*
G02*
X2354928Y866473I0J15240D01*
G75*
G01*
X1518051Y-321612D02*
G03*
X1502811Y-306372I-15240J0D01*
G75*
G01*
X1455171Y-306372D02*
G03*
X1439931Y-321612I0J-15240D01*
G75*
G01*
X1518051Y-428541D02*
G02*
X1502811Y-443781I-15240J0D01*
G75*
G01*
X1455171Y-443781D02*
G02*
X1439931Y-428541I0J15240D01*
G75*
G01*
X1534932Y-428541D02*
G03*
X1550172Y-443781I15240J0D01*
G75*
G01*
X1597812Y-443781D02*
G03*
X1613052Y-428541I0J15240D01*
G75*
G01*
X1534932Y-321612D02*
G02*
X1550172Y-306372I15240J0D01*
G75*
G01*
X1597812Y-306372D02*
G02*
X1613052Y-321612I0J-15240D01*
G75*
G01*
X1898051Y-321612D02*
G03*
X1882811Y-306372I-15240J0D01*
G75*
G01*
X1835170Y-306372D02*
G03*
X1819930Y-321612I0J-15240D01*
G75*
G01*
X1898051Y-428541D02*
G02*
X1882811Y-443781I-15240J0D01*
G75*
G01*
X1835170Y-443781D02*
G02*
X1819930Y-428541I0J15240D01*
G75*
G01*
X-61971Y-306001D02*
G03*
X-77211Y-321241I0J-15240D01*
G75*
G01*
X-77211Y-368882D02*
G03*
X-61971Y-384122I15240J0D01*
G75*
G01*
X44958Y-306001D02*
G02*
X60198Y-321241I0J-15240D01*
G75*
G01*
X60198Y-368882D02*
G02*
X44958Y-384122I-15240J0D01*
G75*
G01*
X1625552Y558386D02*
G03*
X1610312Y573626I-15240J0D01*
G75*
G01*
X1562672Y573626D02*
G03*
X1547431Y558386I0J-15240D01*
G75*
G01*
X1625552Y451457D02*
G02*
X1610312Y436217I-15240J0D01*
G75*
G01*
X1562672Y436217D02*
G02*
X1547431Y451457I0J15240D01*
G75*
G01*
X230939Y-428465D02*
G03*
X246179Y-443705I15240J0D01*
G75*
G01*
X293820Y-443705D02*
G03*
X309060Y-428465I0J15240D01*
G75*
G01*
X230939Y-321536D02*
G02*
X246179Y-306296I15240J0D01*
G75*
G01*
X293820Y-306296D02*
G02*
X309060Y-321536I0J-15240D01*
G75*
G01*
X-71725Y-113528D02*
G03*
X-56485Y-128768I15240J0D01*
G75*
G01*
X-8844Y-128768D02*
G03*
X6396Y-113528I0J15240D01*
G75*
G01*
X-71725Y-6599D02*
G02*
X-56485Y8641I15240J0D01*
G75*
G01*
X-8844Y8641D02*
G02*
X6396Y-6599I0J-15240D01*
G75*
G01*
X-71725Y353972D02*
G03*
X-56485Y338732I15240J0D01*
G75*
G01*
X-8844Y338732D02*
G03*
X6396Y353972I0J15240D01*
G75*
G01*
X-71725Y460901D02*
G02*
X-56485Y476141I15240J0D01*
G75*
G01*
X-8844Y476141D02*
G02*
X6396Y460901I0J-15240D01*
G75*
G01*
X-91105Y460901D02*
G03*
X-106345Y476141I-15240J0D01*
G75*
G01*
X-153985Y476141D02*
G03*
X-169225Y460901I0J-15240D01*
G75*
G01*
X-91105Y353972D02*
G02*
X-106345Y338732I-15240J0D01*
G75*
G01*
X-153985Y338732D02*
G02*
X-169225Y353972I0J15240D01*
G75*
G01*
X-266723Y353972D02*
G03*
X-251483Y338732I15240J0D01*
G75*
G01*
X-203843Y338732D02*
G03*
X-188603Y353972I0J15240D01*
G75*
G01*
X-266723Y460901D02*
G02*
X-251483Y476141I15240J0D01*
G75*
G01*
X-203843Y476141D02*
G02*
X-188603Y460901I0J-15240D01*
G75*
G01*
X181559Y-546534D02*
G03*
X166319Y-531294I-15240J0D01*
G75*
G01*
X118679Y-531294D02*
G03*
X103439Y-546534I0J-15240D01*
G75*
G01*
X181559Y-653463D02*
G02*
X166319Y-668703I-15240J0D01*
G75*
G01*
X118679Y-668703D02*
G02*
X103439Y-653463I0J15240D01*
G75*
G01*
X458028Y-496001D02*
G03*
X442788Y-511241I0J-15240D01*
G75*
G01*
X442788Y-558881D02*
G03*
X458028Y-574121I15240J0D01*
G75*
G01*
X564957Y-496001D02*
G02*
X580197Y-511241I0J-15240D01*
G75*
G01*
X580197Y-558881D02*
G02*
X564957Y-574121I-15240J0D01*
G75*
G01*
X198440Y-653463D02*
G03*
X213680Y-668703I15240J0D01*
G75*
G01*
X261320Y-668703D02*
G03*
X276560Y-653463I0J15240D01*
G75*
G01*
X198440Y-546534D02*
G02*
X213680Y-531294I15240J0D01*
G75*
G01*
X261320Y-531294D02*
G02*
X276560Y-546534I0J-15240D01*
G75*
G01*
X6396Y760900D02*
G03*
X-8844Y776140I-15240J0D01*
G75*
G01*
X-56485Y776140D02*
G03*
X-71725Y760900I0J-15240D01*
G75*
G01*
X6396Y653971D02*
G02*
X-8844Y638731I-15240J0D01*
G75*
G01*
X-56485Y638731D02*
G02*
X-71725Y653971I0J15240D01*
G75*
G01*
X199972Y-384129D02*
G03*
X215212Y-368889I0J15240D01*
G75*
G01*
X215212Y-321249D02*
G03*
X199972Y-306009I-15240J0D01*
G75*
G01*
X93043Y-384129D02*
G02*
X77803Y-368889I0J15240D01*
G75*
G01*
X77803Y-321249D02*
G02*
X93043Y-306009I15240J0D01*
G75*
G01*
X309034Y-590939D02*
G03*
X293794Y-606179I0J-15240D01*
G75*
G01*
X293794Y-653819D02*
G03*
X309034Y-669059I15240J0D01*
G75*
G01*
X415963Y-590939D02*
G02*
X431203Y-606179I0J-15240D01*
G75*
G01*
X431203Y-653819D02*
G02*
X415963Y-669059I-15240J0D01*
G75*
G01*
X1058052Y-321612D02*
G03*
X1042812Y-306372I-15240J0D01*
G75*
G01*
X995172Y-306372D02*
G03*
X979932Y-321612I0J-15240D01*
G75*
G01*
X1058052Y-428541D02*
G02*
X1042812Y-443781I-15240J0D01*
G75*
G01*
X995172Y-443781D02*
G02*
X979932Y-428541I0J15240D01*
G75*
G01*
X564957Y-479135D02*
G03*
X580197Y-463895I0J15240D01*
G75*
G01*
X580197Y-416255D02*
G03*
X564957Y-401015I-15240J0D01*
G75*
G01*
X458028Y-479135D02*
G02*
X442788Y-463895I0J15240D01*
G75*
G01*
X442788Y-416255D02*
G02*
X458028Y-401015I15240J0D01*
G75*
G01*
X1322431Y-428541D02*
G03*
X1337671Y-443781I15240J0D01*
G75*
G01*
X1385311Y-443781D02*
G03*
X1400551Y-428541I0J15240D01*
G75*
G01*
X1322431Y-321612D02*
G02*
X1337671Y-306372I15240J0D01*
G75*
G01*
X1385311Y-306372D02*
G02*
X1400551Y-321612I0J-15240D01*
G75*
G01*
X884928Y-428534D02*
G03*
X900168Y-443774I15240J0D01*
G75*
G01*
X947809Y-443774D02*
G03*
X963049Y-428534I0J15240D01*
G75*
G01*
X884928Y-321605D02*
G02*
X900168Y-306365I15240J0D01*
G75*
G01*
X947809Y-306365D02*
G02*
X963049Y-321605I0J-15240D01*
G75*
G01*
X868053Y-321612D02*
G03*
X852813Y-306372I-15240J0D01*
G75*
G01*
X805172Y-306372D02*
G03*
X789932Y-321612I0J-15240D01*
G75*
G01*
X868053Y-428541D02*
G02*
X852813Y-443781I-15240J0D01*
G75*
G01*
X805172Y-443781D02*
G02*
X789932Y-428541I0J15240D01*
G75*
G01*
X694929Y-428534D02*
G03*
X710169Y-443774I15240J0D01*
G75*
G01*
X757809Y-443774D02*
G03*
X773049Y-428534I0J15240D01*
G75*
G01*
X694929Y-321605D02*
G02*
X710169Y-306365I15240J0D01*
G75*
G01*
X757809Y-306365D02*
G02*
X773049Y-321605I0J-15240D01*
G75*
G01*
X678050Y-321605D02*
G03*
X662810Y-306365I-15240J0D01*
G75*
G01*
X615170Y-306365D02*
G03*
X599930Y-321605I0J-15240D01*
G75*
G01*
X678050Y-428534D02*
G02*
X662810Y-443774I-15240J0D01*
G75*
G01*
X615170Y-443774D02*
G02*
X599930Y-428534I0J15240D01*
D16*
G75*
G01*
X1929000Y979932D02*
G03*
X1928746Y979932I-127J11999D01*
D11*
G75*
G01*
X1859956Y388379D02*
G03*
X1875196Y403619I0J15240D01*
G75*
G01*
X1875196Y451259D02*
G03*
X1859956Y466499I-15240J0D01*
G75*
G01*
X1753027Y388379D02*
G02*
X1737787Y403619I0J15240D01*
G75*
G01*
X1737787Y451259D02*
G02*
X1753027Y466499I15240J0D01*
G75*
G01*
X1753027Y561497D02*
G03*
X1737787Y546257I0J-15240D01*
G75*
G01*
X1737787Y498617D02*
G03*
X1753027Y483377I15240J0D01*
G75*
G01*
X1859956Y561497D02*
G02*
X1875196Y546257I0J-15240D01*
G75*
G01*
X1875196Y498617D02*
G02*
X1859956Y483377I-15240J0D01*
G75*
G01*
X-91105Y-166599D02*
G03*
X-106345Y-151359I-15240J0D01*
G75*
G01*
X-153985Y-151359D02*
G03*
X-169225Y-166599I0J-15240D01*
G75*
G01*
X-91105Y-273528D02*
G02*
X-106345Y-288768I-15240J0D01*
G75*
G01*
X-153985Y-288768D02*
G02*
X-169225Y-273528I0J15240D01*
G75*
G01*
X-436723Y-271028D02*
G03*
X-421483Y-286268I15240J0D01*
G75*
G01*
X-373842Y-286268D02*
G03*
X-358602Y-271028I0J15240D01*
G75*
G01*
X-436723Y-164099D02*
G02*
X-421483Y-148859I15240J0D01*
G75*
G01*
X-373842Y-148859D02*
G02*
X-358602Y-164099I0J-15240D01*
G75*
G01*
X458028Y-306017D02*
G03*
X442788Y-321257I0J-15240D01*
G75*
G01*
X442788Y-368897D02*
G03*
X458028Y-384137I15240J0D01*
G75*
G01*
X564957Y-306017D02*
G02*
X580197Y-321257I0J-15240D01*
G75*
G01*
X580197Y-368897D02*
G02*
X564957Y-384137I-15240J0D01*
D15*
G75*
G01
X-182154Y-254569D02*
G03X-182154Y-254569I-5004J0D01*
G75*
G01
X-88174Y950432D02*
G03X-88174Y950432I-5004J0D01*
D14*
G75*
G01
X835497Y-725587D02*
G03X835497Y-725587I-3505J0D01*
G75*
G01
X1770497Y-725587D02*
G03X1770497Y-725587I-3505J0D01*
D10*
G75*
G01
X1939000Y-310068D02*
G03X1939000Y-310068I-10008J0D01*
M02*
