M48
METRIC,LZ,000.000
;FILE_FORMAT=3:3
;TYPE=PLATED
;Layer: PTH_Through_Via
;EasyEDA v6.5.21, 2022-10-22 15:56:40
;9ab0f769691e454ba0e7696980ab9178,294cf934c43b457281b0b0dcd80bbfec,10
;Gerber Generator version 0.2
;Holesize 1 = 0.301 mm
T01C0.301
;Holesize 2 = 0.305 mm
T02C0.305
;Holesize 3 = 0.380 mm
T03C0.380
;Holesize 4 = 0.390 mm
T04C0.390
%
G05
G90
T01
X-008400Y002425
X-007750Y003000
X-008425Y003575
X-006925Y012575
X-008400Y012575
X-009925Y012575
X000775Y-003050
X005425Y006650
X004875Y006075
X005425Y005550
X004350Y004900
X004350Y004200
X004350Y003500
X004400Y002725
X004400Y001975
X000324Y002924
X-001550Y004575
X-002625Y004200
X-002625Y003550
X-002325Y002700
X-001375Y000100
X-001825Y000725
X-002750Y000725
X-002275Y000100
X001075Y005350
X002050Y004975
X-000825Y005725
X-004125Y-002275
X-003950Y000100
X-003225Y000100
X001800Y-008950
X002700Y-008875
X003175Y-008375
X-002200Y-003650
X004092Y-007000
X-006800Y-002550
X-008950Y-003800
X-016150Y-000200
X-026548Y-006081
X-026375Y-008600
X-022125Y-003150
X-021550Y-003450
X-023075Y-003150
X-023700Y-003450
X-026900Y-003200
X-028050Y-002550
X-019362Y-006372
X-014075Y002650
X-014900Y003375
X-011950Y000550
X-010925Y000550
X-009950Y000550
X-019600Y-002300
X-018550Y-002300
X-014450Y-002100
X-009050Y000550
X-023975Y002825
X-023125Y002825
X-022350Y002825
X-021475Y002825
X-021175Y001850
X-021175Y001075
X-028400Y006175
X006550Y007975
X-006350Y-007150
X-008175Y-008950
X-004850Y-000350
X-003325Y-001375
X-002975Y-001975
X-019400Y-009900
X-020400Y-009375
X-019600Y-009150
X-019300Y-008425
X-019300Y-007623
X-018325Y-009300
X-016250Y-003500
X-015265Y-005065
X-028475Y-024025
X-027575Y-016775
X-005200Y-009800
X-003750Y-017975
X-005525Y-006875
X-020575Y-015725
X-021250Y-014925
X-020575Y-014175
X-005775Y-001200
X-018925Y-013700
X-027700Y009150
X-028250Y008650
X-027675Y008150
X-028250Y007625
X-027700Y006975
X-027000Y-015750
X-029250Y-015750
X-023350Y004850
X-022700Y005425
X-000000Y000000
X-002300Y005800
X-020225Y004950
X-020175Y004075
X-017400Y008100
X-014975Y-002600
X-015525Y-003100
X-015575Y007950
X-003500Y006800
X-008975Y001325
X-015250Y006300
X-014850Y006925
X-024900Y003900
X-028100Y-001075
X-005850Y-000500
X003475Y008900
X004275Y009725
X-014325Y009150
X-004425Y009775
X-004425Y008925
X003075Y012750
X-007975Y035925
X-009100Y035425
X-007950Y034925
X-009100Y034425
X-007950Y033925
X-009075Y033450
X-016025Y038550
X-016525Y037075
X-017525Y037075
X-017025Y035775
X-018025Y035775
X-018525Y037075
X-021125Y036025
X-020375Y035525
X-021125Y035025
X-021075Y034025
X-021025Y033025
X-020400Y032525
X-020400Y033525
X-020375Y034525
X-009175Y030650
X-008300Y029900
X-009175Y029200
X-008275Y028525
X003000Y039725
X003600Y038375
X004375Y039725
X005100Y038375
X005850Y039725
X-007000Y025800
X-007475Y024725
X-008450Y024725
X-007950Y025800
X-016550Y032075
X-017525Y032075
X-018450Y032075
X008600Y030725
X-025625Y009825
X-021150Y010025
X-020150Y010025
X-018525Y010025
X-020650Y012175
X-019650Y012175
X-015350Y012000
X008000Y029725
X-003175Y012300
X-014900Y012500
X000500Y027750
X001375Y026875
X001375Y028625
X000500Y029500
X000525Y030850
X-018575Y015200
X-019200Y015700
X-018575Y016200
X-019200Y016700
X-018550Y017200
X-001050Y034475
X-001650Y035800
X-019200Y018200
X-018575Y018700
X-019025Y030400
X-019525Y029775
X-020025Y030400
X-017025Y030625
X-016602Y029925
X005075Y041650
X-004650Y000600
X-004250Y-000825
X005900Y012725
X006875Y011475
X005525Y029500
X004900Y028250
X001250Y039200
X-019025Y021750
X-024550Y051975
X-024567Y056771
X008225Y011250
X006550Y032725
X006550Y034725
X005975Y033725
X-006075Y040050
X-007075Y039350
X-008075Y038475
X-005800Y052950
X-007425Y052950
X-009825Y052950
X-024125Y060825
X-024125Y059550
X-026875Y055625
X-026900Y052625
X-012625Y056425
X-022600Y061825
X-008475Y-000525
X000675Y015625
X001575Y016700
X000675Y020250
X001575Y021050
X-008000Y060000
X-006450Y059025
X-026775Y045075
X-019675Y046600
X-021225Y045550
X-011725Y045700
X-011225Y043825
X-012225Y043825
X-013225Y043825
X-014225Y043825
X-013725Y045700
X-012725Y045700
X-019225Y045700
X-020725Y043825
X-019725Y043825
X-018725Y043825
X-017725Y043825
X-018225Y045700
X-016225Y043825
X-015725Y045700
X-015225Y043825
X-014725Y045550
X-014750Y015200
X-014000Y015200
X-015000Y023700
X-012225Y015225
X-014000Y017225
X-014025Y019200
X-012225Y016250
X-012250Y019225
X-012200Y022250
X-012200Y023200
X-012225Y018275
X-011275Y022250
X004175Y-002375
X-015775Y029200
X-019025Y038450
X-019025Y036550
X-015900Y036525
X001075Y011800
X000075Y011800
X-000950Y010025
X-001950Y010025
X-000325Y031875
X-006300Y016950
X-016550Y016100
X-023875Y043836
X-004223Y046273
X003525Y044125
X008000Y049925
X005675Y050125
X-020625Y056422
X-018150Y058275
X004575Y043775
X003300Y048850
X005975Y048275
X005575Y043775
X-019125Y060725
X-009400Y044075
X-019600Y049925
X-022100Y058425
X-022050Y010250
X001525Y049150
X002275Y049525
X-019125Y059425
X-022300Y055650
X-023825Y055300
X-023825Y054475
X-022300Y054125
X-031225Y047050
X-030625Y046025
X-031200Y045025
X-029525Y047550
X-022525Y052900
T02
X-023750Y008200
X-017450Y003725
X-010900Y009625
X-011367Y004075
X-005125Y003325
X-010525Y-002200
X001075Y008225
X-000125Y-002375
X002300Y-026000
X000100Y-012100
X001200Y-018300
X-011900Y-017575
X-011900Y-012475
X-022700Y-018200
X-023350Y-012575
X-023025Y-022525
X-011900Y-023175
X000200Y-023100
X-012125Y-006750
X-023600Y-000300
X001350Y-005800
X-023450Y-006475
X-009125Y006225
X-005175Y-004425
X-007745Y-005981
X-005325Y-007775
X-005325Y-008625
X-005700Y-012525
X-004175Y-011850
X-004750Y-017625
X-004000Y-012500
X-016000Y-006750
X-008400Y-013200
X-007400Y-010100
X-007550Y-020100
X-003075Y-020825
X-005150Y-020825
X-006200Y-017375
X-005275Y-018800
X-002325Y-018800
X-001900Y-025875
X000100Y-025875
X-027800Y000300
X-026375Y002600
X-028325Y004825
X-003825Y-018800
X-002425Y-014050
X-003275Y-014050
X-019850Y-013100
X-018925Y-012525
X-026375Y-009925
X-026750Y-012075
X-013950Y-003300
X-015175Y-003850
X-013525Y-009200
X-016800Y-008550
X-015450Y-008550
X-009775Y-010100
X-017475Y-011275
X-016750Y-012500
X-025650Y004325
X007000Y-009875
X-019050Y-005525
X-020401Y007426
X-030700Y031650
X-030000Y030950
X-029025Y030550
X-028075Y030500
X-027042Y030500
X-026008Y030500
X-024975Y030500
X-023942Y030500
X-022908Y030500
X-021875Y030500
X-022900Y032050
X-023935Y032050
X-024970Y032050
X-026005Y032050
X-027040Y032050
X-028075Y032050
X-029025Y032175
X-001575Y008650
X-003425Y010000
X-019400Y042325
X002400Y-000150
X004675Y-011125
X004275Y-009125
X003550Y-013900
X-011975Y027725
X-026150Y046950
X-019750Y039100
X-021525Y037775
X-023750Y036370
X000250Y045600
X-005675Y048675
X-010900Y028175
X-015750Y028175
X-005950Y031675
X-005350Y025800
X-021700Y050875
X-022900Y050875
X-000775Y049975
X-001375Y043650
X-000350Y043650
X000375Y043650
X001325Y043650
X-015775Y049250
X-015775Y048325
X-000925Y041650
X-001950Y041650
X-017575Y041700
X-018475Y042325
X002550Y021050
X-003925Y041650
X-007475Y027450
X000400Y040100
X001350Y040675
X-020325Y060075
X-020325Y058750
X-003244Y049312
X-001975Y048700
X000600Y050975
X-003463Y050325
X-003463Y051425
X-003463Y052525
X-011725Y040900
X004075Y015550
X004075Y014725
X-015575Y-016350
X-016075Y-018500
X-017000Y-019050
X-006725Y-015075
X-006725Y-016375
X-014925Y-019050
X-016825Y-016175
X-014825Y-017600
X-014075Y-019900
X-014425Y-018375
X-028025Y-009350
X-028025Y-008200
X-028025Y-007050
X-001825Y047825
X-001050Y047825
X-000575Y045600
X004675Y048400
X002750Y051075
X003575Y041300
X-010650Y023225
X-005000Y015850
X-002875Y015850
X006400Y012050
X-002975Y030875
X-002975Y031950
X-010925Y016050
X-010050Y016050
X-009225Y016050
X-004950Y044650
X-004925Y041500
X-004925Y043550
X-008775Y046125
X-008700Y045225
X-008400Y031775
X-007475Y026575
X-005950Y022850
X-009700Y022250
X-010800Y017725
X-009250Y017725
X-005350Y017750
X-001775Y017800
X000150Y021600
X-003300Y034900
X-002050Y039225
X005175Y032500
X-009700Y050300
X-011588Y049725
X-012850Y049725
X-011588Y047887
X-012850Y047887
X-014075Y047887
X-017725Y051325
X-016463Y051325
X-024550Y034400
X-024550Y035662
X-024250Y018575
X-024250Y019837
X-025150Y011625
X-023888Y011625
X-027800Y015275
X-027800Y016537
X-029925Y020825
X-029925Y022087
X-015100Y-014275
X-017525Y-012500
X-019925Y-018300
X-018575Y-019025
X004375Y-017525
X003400Y-016100
X004400Y-013900
X-005950Y-015675
X-003275Y-009350
X-002475Y004950
X-020200Y-003500
X-024575Y041775
X-026650Y046025
X-023200Y044575
X-023425Y047875
X-017675Y047900
X-019425Y047900
X-021475Y047900
X-029950Y050825
X-029950Y053450
X-029950Y056525
X-028100Y050825
X-028075Y056550
X-028075Y059700
X-021350Y060875
X-014250Y052700
X-017525Y060150
X-014100Y060750
X-010025Y060775
X-005700Y052050
X-008925Y052025
X005400Y051025
X-004900Y039900
X002125Y020250
X003050Y017625
X-021100Y-000850
X-007426Y036725
X000399Y033625
X-000375Y017825
T03
X-011975Y026250
T04
X-002025Y-009225
X-002600Y-004800
M30
