G04 Layer: BottomSilkscreenLayer*
G04 EasyEDA v6.5.21, 2022-10-22 15:56:40*
G04 9ab0f769691e454ba0e7696980ab9178,294cf934c43b457281b0b0dcd80bbfec,10*
G04 Gerber Generator version 0.2*
G04 Scale: 100 percent, Rotated: No, Reflected: No *
G04 Dimensions in millimeters *
G04 leading zeros omitted , absolute positions ,4 integer and 5 decimal *
%FSLAX45Y45*%
%MOMM*%

%ADD10C,0.2032*%
%ADD11C,0.2540*%
%ADD12C,0.1520*%

%LPD*%
G36*
X-159512Y2140610D02*
G01*
X-171246Y2138324D01*
X-181102Y2131466D01*
X-184962Y2126742D01*
X-187756Y2121611D01*
X-189433Y2115972D01*
X-189992Y2109876D01*
X-189992Y2089810D01*
X-189534Y2086152D01*
X-188264Y2083054D01*
X-186131Y2080564D01*
X-183134Y2078634D01*
X-140360Y2056892D01*
X-138480Y2056130D01*
X-137668Y2056028D01*
X-136194Y2056384D01*
X-135178Y2057552D01*
X-134569Y2059432D01*
X-134366Y2062124D01*
X-134366Y2086000D01*
X-103885Y2086000D01*
X-103885Y2017166D01*
X-181102Y2056536D01*
X-183286Y2057298D01*
X-184912Y2057552D01*
X-187096Y2057044D01*
X-188722Y2055520D01*
X-189636Y2052980D01*
X-189992Y2049424D01*
X-189992Y1862734D01*
X-189433Y1856638D01*
X-187756Y1851050D01*
X-184962Y1845970D01*
X-181102Y1841398D01*
X-176377Y1837486D01*
X-171246Y1834692D01*
X-165608Y1833067D01*
X-159512Y1832508D01*
X-78486Y1832508D01*
X-72390Y1833067D01*
X-66802Y1834692D01*
X-61722Y1837486D01*
X-57150Y1841398D01*
X-53238Y1845970D01*
X-50444Y1851050D01*
X-48818Y1856638D01*
X-48260Y1862734D01*
X-48260Y1899818D01*
X-48564Y1902968D01*
X-49428Y1905711D01*
X-50952Y1907946D01*
X-53086Y1909724D01*
X-98501Y1932482D01*
X-101092Y1933092D01*
X-102311Y1932736D01*
X-103174Y1931720D01*
X-103682Y1930095D01*
X-103885Y1927758D01*
X-103885Y1888134D01*
X-134366Y1888134D01*
X-134366Y1971192D01*
X-55676Y1931416D01*
X-53289Y1930654D01*
X-52324Y1930552D01*
X-50546Y1930958D01*
X-49276Y1932228D01*
X-48514Y1934413D01*
X-48260Y1937410D01*
X-48260Y2109876D01*
X-48818Y2115972D01*
X-50444Y2121611D01*
X-53238Y2126742D01*
X-57150Y2131466D01*
X-61722Y2135428D01*
X-66802Y2138324D01*
X-72390Y2140000D01*
X-78486Y2140610D01*
G37*
G36*
X-929132Y2140610D02*
G01*
X-940866Y2138324D01*
X-950721Y2131466D01*
X-954481Y2126742D01*
X-957173Y2121611D01*
X-958799Y2115972D01*
X-959358Y2109876D01*
X-959358Y1837334D01*
X-959002Y1835200D01*
X-957986Y1833676D01*
X-956360Y1832813D01*
X-954024Y1832508D01*
X-908558Y1832508D01*
X-906424Y1832813D01*
X-904900Y1833676D01*
X-904036Y1835200D01*
X-903732Y1837334D01*
X-903732Y2086000D01*
X-873506Y2086000D01*
X-873506Y1837334D01*
X-873150Y1835200D01*
X-872134Y1833676D01*
X-870508Y1832813D01*
X-868171Y1832508D01*
X-822706Y1832508D01*
X-820572Y1832813D01*
X-819048Y1833676D01*
X-818184Y1835200D01*
X-817880Y1837334D01*
X-817880Y2086000D01*
X-787654Y2086000D01*
X-787654Y1837334D01*
X-787298Y1835200D01*
X-786384Y1833676D01*
X-784758Y1832813D01*
X-782574Y1832508D01*
X-736854Y1832508D01*
X-734618Y1832813D01*
X-733044Y1833676D01*
X-732078Y1835200D01*
X-731774Y1837334D01*
X-731774Y2109876D01*
X-732332Y2115972D01*
X-733958Y2121611D01*
X-736752Y2126742D01*
X-740664Y2131466D01*
X-750468Y2138324D01*
X-762254Y2140610D01*
X-817880Y2140610D01*
X-826719Y2139340D01*
X-834288Y2135581D01*
X-840587Y2129282D01*
X-845566Y2120544D01*
X-850442Y2129282D01*
X-856742Y2135581D01*
X-864412Y2139340D01*
X-873506Y2140610D01*
G37*
G36*
X-1210818Y2133244D02*
G01*
X-1212596Y2132584D01*
X-1213866Y2131263D01*
X-1214628Y2129180D01*
X-1214882Y2126386D01*
X-1214882Y1990750D01*
X-1261618Y2065934D01*
X-1262837Y2067560D01*
X-1264564Y2068779D01*
X-1266799Y2069490D01*
X-1269492Y2069744D01*
X-1317244Y2069744D01*
X-1319225Y2069592D01*
X-1320647Y2069134D01*
X-1321511Y2068423D01*
X-1321765Y2067153D01*
X-1321511Y2066391D01*
X-1249934Y1951126D01*
X-1321511Y1835912D01*
X-1321816Y1834540D01*
X-1321308Y1833625D01*
X-1320393Y1833016D01*
X-1319022Y1832610D01*
X-1269492Y1832508D01*
X-1266799Y1832711D01*
X-1264564Y1833422D01*
X-1262837Y1834642D01*
X-1261618Y1836318D01*
X-1214882Y1911502D01*
X-1214882Y1837334D01*
X-1214526Y1835200D01*
X-1213612Y1833676D01*
X-1211986Y1832813D01*
X-1209802Y1832508D01*
X-1164082Y1832508D01*
X-1161948Y1832813D01*
X-1160424Y1833676D01*
X-1159560Y1835200D01*
X-1159256Y1837334D01*
X-1159256Y2099208D01*
X-1159611Y2103170D01*
X-1160678Y2106422D01*
X-1162507Y2109012D01*
X-1165098Y2110892D01*
X-1205992Y2131466D01*
G37*
G36*
X388112Y2132736D02*
G01*
X386486Y2132330D01*
X385267Y2131110D01*
X384556Y2129129D01*
X384302Y2126386D01*
X384302Y2069744D01*
X328676Y2069744D01*
X322580Y2069185D01*
X316941Y2067560D01*
X311810Y2064867D01*
X307086Y2061108D01*
X303326Y2056384D01*
X300634Y2051253D01*
X299008Y2045614D01*
X298450Y2039518D01*
X298450Y2024532D01*
X384302Y2024532D01*
X384302Y1877974D01*
X354076Y1877974D01*
X354076Y2024532D01*
X298450Y2024532D01*
X298450Y1862734D01*
X299008Y1856638D01*
X300634Y1851050D01*
X303326Y1845970D01*
X307086Y1841398D01*
X311810Y1837486D01*
X316941Y1834692D01*
X322580Y1833067D01*
X328676Y1832508D01*
X362559Y1832610D01*
X368909Y1833625D01*
X372618Y1834540D01*
X376326Y1836013D01*
X379476Y1837639D01*
X382168Y1839417D01*
X384302Y1841398D01*
X384302Y1837334D01*
X384606Y1835200D01*
X385521Y1833676D01*
X387045Y1832813D01*
X389128Y1832508D01*
X435101Y1832508D01*
X437235Y1832813D01*
X438759Y1833676D01*
X439623Y1835200D01*
X439928Y1837334D01*
X439928Y2099208D01*
X439572Y2103120D01*
X438505Y2106320D01*
X436676Y2108708D01*
X434085Y2110384D01*
X393192Y2131466D01*
X390398Y2132380D01*
G37*
G36*
X-527304Y2132228D02*
G01*
X-528929Y2131822D01*
X-530148Y2130755D01*
X-530860Y2128926D01*
X-531114Y2126386D01*
X-531114Y2024024D01*
X-445770Y2024024D01*
X-445770Y1877974D01*
X-475996Y1877974D01*
X-475996Y2024024D01*
X-531114Y2024024D01*
X-531114Y1837334D01*
X-530809Y1835200D01*
X-529894Y1833676D01*
X-528370Y1832813D01*
X-526288Y1832508D01*
X-480822Y1832508D01*
X-478688Y1832813D01*
X-477164Y1833676D01*
X-476300Y1835200D01*
X-475996Y1837334D01*
X-475996Y1841398D01*
X-473557Y1839468D01*
X-470712Y1837740D01*
X-467359Y1836267D01*
X-459689Y1833930D01*
X-453491Y1832660D01*
X-451104Y1832508D01*
X-420370Y1832508D01*
X-414223Y1833067D01*
X-408584Y1834692D01*
X-403453Y1837486D01*
X-398780Y1841398D01*
X-394970Y1845970D01*
X-392277Y1851050D01*
X-390652Y1856638D01*
X-390144Y1862734D01*
X-390144Y2039518D01*
X-390652Y2045614D01*
X-392277Y2051253D01*
X-394970Y2056384D01*
X-398780Y2061108D01*
X-403453Y2064867D01*
X-408584Y2067560D01*
X-414223Y2069185D01*
X-420370Y2069744D01*
X-475996Y2069744D01*
X-475996Y2098700D01*
X-476351Y2102408D01*
X-477418Y2105558D01*
X-479247Y2107996D01*
X-481838Y2109876D01*
X-522985Y2131466D01*
X-525170Y2132025D01*
G37*
G36*
X-1555242Y2070252D02*
G01*
X-1556867Y2069846D01*
X-1558086Y2068626D01*
X-1558798Y2066645D01*
X-1559052Y2063902D01*
X-1559052Y2061108D01*
X-1561236Y2062937D01*
X-1563979Y2064562D01*
X-1567332Y2066086D01*
X-1571244Y2067458D01*
X-1578457Y2069134D01*
X-1583436Y2069744D01*
X-1614678Y2069744D01*
X-1620774Y2069185D01*
X-1626412Y2067560D01*
X-1631543Y2064867D01*
X-1636268Y2061108D01*
X-1640027Y2056384D01*
X-1642719Y2051253D01*
X-1644345Y2045614D01*
X-1644904Y2039518D01*
X-1644904Y2035708D01*
X-1644345Y2030628D01*
X-1642719Y2026412D01*
X-1640027Y2023008D01*
X-1636268Y2020468D01*
X-1599844Y2002028D01*
X-1596948Y2001012D01*
X-1595628Y2000910D01*
X-1592834Y2001774D01*
X-1590852Y2003958D01*
X-1589633Y2007362D01*
X-1589278Y2012086D01*
X-1589278Y2024532D01*
X-1559052Y2024532D01*
X-1559052Y1837334D01*
X-1558747Y1835200D01*
X-1557832Y1833676D01*
X-1556308Y1832813D01*
X-1554226Y1832508D01*
X-1508252Y1832508D01*
X-1506118Y1832813D01*
X-1504594Y1833676D01*
X-1503730Y1835200D01*
X-1503426Y1837334D01*
X-1503426Y2036724D01*
X-1503781Y2040229D01*
X-1504848Y2043175D01*
X-1506677Y2045563D01*
X-1509268Y2047392D01*
X-1551584Y2069388D01*
X-1554124Y2070150D01*
G37*
G36*
X132842Y2069744D02*
G01*
X130505Y2069439D01*
X128879Y2068525D01*
X127863Y2067001D01*
X127508Y2064918D01*
X127508Y1778914D01*
X128066Y1772767D01*
X129692Y1767128D01*
X132384Y1761998D01*
X136144Y1757324D01*
X140868Y1753412D01*
X145999Y1750618D01*
X151638Y1748993D01*
X157734Y1748434D01*
X238760Y1748434D01*
X244906Y1748993D01*
X250545Y1750618D01*
X255676Y1753412D01*
X260350Y1757324D01*
X264160Y1761998D01*
X266852Y1767128D01*
X268478Y1772767D01*
X268986Y1778914D01*
X268986Y1813458D01*
X268681Y1817014D01*
X267817Y1819910D01*
X266293Y1822094D01*
X264160Y1823618D01*
X220878Y1845360D01*
X217932Y1846224D01*
X215950Y1845767D01*
X214528Y1844344D01*
X213664Y1842058D01*
X213360Y1838858D01*
X213360Y1804314D01*
X183134Y1804314D01*
X183134Y1881276D01*
X260146Y1841855D01*
X263042Y1840992D01*
X264160Y1840890D01*
X266293Y1841449D01*
X267817Y1843176D01*
X268681Y1846021D01*
X268986Y1850034D01*
X268986Y2064918D01*
X268681Y2067001D01*
X267817Y2068525D01*
X266293Y2069439D01*
X264160Y2069744D01*
X218186Y2069744D01*
X216103Y2069439D01*
X214579Y2068525D01*
X213664Y2067001D01*
X213360Y2064918D01*
X213360Y1933092D01*
X183134Y1948332D01*
X183134Y2064918D01*
X182829Y2067001D01*
X181965Y2068525D01*
X180441Y2069439D01*
X178308Y2069744D01*
G37*
G36*
X-355346Y2069744D02*
G01*
X-357682Y2069388D01*
X-359308Y2068372D01*
X-360324Y2066747D01*
X-360680Y2064410D01*
X-360680Y1837334D01*
X-360324Y1835200D01*
X-359308Y1833676D01*
X-357682Y1832813D01*
X-355346Y1832508D01*
X-310134Y1832508D01*
X-307898Y1832813D01*
X-306324Y1833676D01*
X-305358Y1835200D01*
X-305054Y1837334D01*
X-305054Y1841398D01*
X-302615Y1839468D01*
X-299770Y1837740D01*
X-296418Y1836267D01*
X-288848Y1833930D01*
X-285546Y1833118D01*
X-282651Y1832660D01*
X-280162Y1832508D01*
X-249428Y1832508D01*
X-243332Y1833067D01*
X-237744Y1834692D01*
X-232664Y1837486D01*
X-228092Y1841398D01*
X-224180Y1845970D01*
X-221386Y1851050D01*
X-219760Y1856638D01*
X-219202Y1862734D01*
X-219202Y2064410D01*
X-219506Y2066747D01*
X-220370Y2068372D01*
X-221894Y2069388D01*
X-224028Y2069744D01*
X-270002Y2069744D01*
X-272084Y2069388D01*
X-273608Y2068372D01*
X-274523Y2066747D01*
X-274828Y2064410D01*
X-274828Y1877974D01*
X-305054Y1877974D01*
X-305054Y2064410D01*
X-305358Y2066747D01*
X-306324Y2068372D01*
X-307898Y2069388D01*
X-310134Y2069744D01*
G37*
G36*
X-672338Y2069744D02*
G01*
X-678434Y2069185D01*
X-684072Y2067560D01*
X-689203Y2064867D01*
X-693928Y2061108D01*
X-697687Y2056384D01*
X-700379Y2051253D01*
X-702005Y2045614D01*
X-702564Y2039518D01*
X-702564Y2024532D01*
X-616712Y2024532D01*
X-616712Y1877974D01*
X-646938Y1877974D01*
X-646938Y2024532D01*
X-702564Y2024532D01*
X-702564Y1862734D01*
X-702005Y1856638D01*
X-700379Y1851050D01*
X-697687Y1845970D01*
X-693928Y1841398D01*
X-689203Y1837486D01*
X-684072Y1834692D01*
X-678434Y1833067D01*
X-672338Y1832508D01*
X-591312Y1832508D01*
X-585165Y1833067D01*
X-579526Y1834692D01*
X-574395Y1837486D01*
X-569722Y1841398D01*
X-565912Y1845970D01*
X-563219Y1851050D01*
X-561594Y1856638D01*
X-561086Y1862734D01*
X-561086Y2039518D01*
X-561594Y2045614D01*
X-563219Y2051253D01*
X-565912Y2056384D01*
X-569722Y2061108D01*
X-574395Y2064867D01*
X-579526Y2067560D01*
X-585165Y2069185D01*
X-591312Y2069744D01*
G37*
G36*
X-1099566Y2069744D02*
G01*
X-1105662Y2069185D01*
X-1111300Y2067560D01*
X-1116431Y2064867D01*
X-1121156Y2061108D01*
X-1124915Y2056384D01*
X-1127607Y2051253D01*
X-1129233Y2045614D01*
X-1129792Y2039518D01*
X-1129792Y1943252D01*
X-1074166Y1943252D01*
X-1043940Y1928266D01*
X-1043940Y1877974D01*
X-1074166Y1877974D01*
X-1074166Y1943252D01*
X-1129792Y1943252D01*
X-1129792Y1837334D01*
X-1129436Y1835200D01*
X-1128420Y1833676D01*
X-1126794Y1832813D01*
X-1124458Y1832508D01*
X-1078992Y1832508D01*
X-1076858Y1832813D01*
X-1075334Y1833676D01*
X-1074470Y1835200D01*
X-1074166Y1837334D01*
X-1074166Y1841398D01*
X-1071727Y1839468D01*
X-1068882Y1837740D01*
X-1065530Y1836267D01*
X-1057859Y1833930D01*
X-1051661Y1832660D01*
X-1049274Y1832508D01*
X-1018540Y1832508D01*
X-1012393Y1833067D01*
X-1006754Y1834692D01*
X-1001623Y1837486D01*
X-996950Y1841398D01*
X-993140Y1845970D01*
X-990447Y1851050D01*
X-988821Y1856638D01*
X-988314Y1862734D01*
X-988314Y1944776D01*
X-988517Y1947011D01*
X-989228Y1948992D01*
X-990447Y1950720D01*
X-992124Y1952142D01*
X-1074166Y1994052D01*
X-1074166Y2024532D01*
X-1043940Y2024532D01*
X-1043432Y2020570D01*
X-1041958Y2017217D01*
X-1039469Y2014372D01*
X-1036066Y2012086D01*
X-998778Y1993747D01*
X-995883Y1992884D01*
X-994664Y1992782D01*
X-991869Y1993442D01*
X-989888Y1995424D01*
X-988669Y1998776D01*
X-988314Y2003450D01*
X-988314Y2039518D01*
X-988821Y2045614D01*
X-990447Y2051253D01*
X-993140Y2056384D01*
X-996950Y2061108D01*
X-1001623Y2064867D01*
X-1006754Y2067560D01*
X-1012393Y2069185D01*
X-1018540Y2069744D01*
G37*
G36*
X-1443736Y2069744D02*
G01*
X-1449832Y2069185D01*
X-1455470Y2067560D01*
X-1460601Y2064867D01*
X-1465326Y2061108D01*
X-1471777Y2050745D01*
X-1473962Y2037486D01*
X-1473962Y2024024D01*
X-1388110Y2024024D01*
X-1388110Y1977542D01*
X-1418336Y1993036D01*
X-1418336Y2024024D01*
X-1473962Y2024024D01*
X-1473962Y1976018D01*
X-1473708Y1973529D01*
X-1472996Y1971497D01*
X-1471777Y1969871D01*
X-1470152Y1968652D01*
X-1388110Y1927250D01*
X-1388110Y1888134D01*
X-1418336Y1888134D01*
X-1418742Y1894332D01*
X-1420012Y1899361D01*
X-1422196Y1903120D01*
X-1425194Y1905660D01*
X-1464767Y1925878D01*
X-1467408Y1926640D01*
X-1468628Y1926742D01*
X-1470964Y1925980D01*
X-1472590Y1924202D01*
X-1473606Y1921408D01*
X-1473962Y1917598D01*
X-1473962Y1862734D01*
X-1473403Y1856638D01*
X-1471777Y1851050D01*
X-1469085Y1845970D01*
X-1465326Y1841398D01*
X-1460601Y1837486D01*
X-1455470Y1834692D01*
X-1449832Y1833067D01*
X-1443736Y1832508D01*
X-1362710Y1832508D01*
X-1356614Y1833067D01*
X-1351026Y1834692D01*
X-1345946Y1837486D01*
X-1341374Y1841398D01*
X-1337462Y1845970D01*
X-1334668Y1851050D01*
X-1333042Y1856638D01*
X-1332484Y1862734D01*
X-1332484Y2039518D01*
X-1333042Y2045614D01*
X-1334668Y2051253D01*
X-1337462Y2056384D01*
X-1341374Y2061108D01*
X-1345946Y2064867D01*
X-1351026Y2067560D01*
X-1356614Y2069185D01*
X-1362710Y2069744D01*
G37*
G36*
X-282752Y2553309D02*
G01*
X-283514Y2553157D01*
X-284073Y2552547D01*
X-284429Y2551633D01*
X-284530Y2509875D01*
X-284327Y2507996D01*
X-283718Y2506421D01*
X-282651Y2505100D01*
X-281228Y2504033D01*
X-221538Y2473096D01*
X-220675Y2472842D01*
X-219354Y2472994D01*
X-218744Y2473502D01*
X-218338Y2474366D01*
X-218236Y2516225D01*
X-218490Y2518257D01*
X-219202Y2519984D01*
X-220370Y2521458D01*
X-222046Y2522575D01*
X-282448Y2553309D01*
G37*
G36*
X328625Y2540609D02*
G01*
X322529Y2540050D01*
X316941Y2538323D01*
X311861Y2535478D01*
X307289Y2531465D01*
X303428Y2526792D01*
X300634Y2521661D01*
X298958Y2516022D01*
X298399Y2509875D01*
X298399Y2237333D01*
X298754Y2235250D01*
X299720Y2233726D01*
X301396Y2232812D01*
X303733Y2232507D01*
X349199Y2232507D01*
X351332Y2232812D01*
X352806Y2233726D01*
X353720Y2235250D01*
X354025Y2237333D01*
X354025Y2484983D01*
X384251Y2484983D01*
X384251Y2237333D01*
X384556Y2235250D01*
X385521Y2233726D01*
X387096Y2232812D01*
X389331Y2232507D01*
X435051Y2232507D01*
X437184Y2232812D01*
X438658Y2233726D01*
X439572Y2235250D01*
X439877Y2237333D01*
X439877Y2535275D01*
X439572Y2537460D01*
X438658Y2539034D01*
X437184Y2540101D01*
X435051Y2540609D01*
X389331Y2540609D01*
X387096Y2540101D01*
X385521Y2539034D01*
X384556Y2537460D01*
X384251Y2535275D01*
X384251Y2531719D01*
X382066Y2533650D01*
X379323Y2535377D01*
X375970Y2536850D01*
X368249Y2539187D01*
X362153Y2540457D01*
X359867Y2540609D01*
G37*
G36*
X-201218Y2540609D02*
G01*
X-203098Y2540457D01*
X-204470Y2540000D01*
X-205282Y2539187D01*
X-205486Y2537510D01*
X-147878Y2413101D01*
X-206044Y2237333D01*
X-206044Y2235809D01*
X-205740Y2234387D01*
X-204825Y2233371D01*
X-203301Y2232710D01*
X-201218Y2232507D01*
X-151434Y2232507D01*
X-148894Y2232812D01*
X-146812Y2233726D01*
X-145186Y2235250D01*
X-144068Y2237333D01*
X-112826Y2339949D01*
X-103936Y2319883D01*
X-103936Y2237333D01*
X-103632Y2235250D01*
X-102717Y2233726D01*
X-101193Y2232812D01*
X-99110Y2232507D01*
X-53136Y2232507D01*
X-51003Y2232812D01*
X-49530Y2233726D01*
X-48615Y2235250D01*
X-48310Y2237333D01*
X-48310Y2535275D01*
X-48615Y2537460D01*
X-49530Y2539034D01*
X-51003Y2540101D01*
X-53136Y2540609D01*
X-99110Y2540609D01*
X-101193Y2540101D01*
X-102717Y2539034D01*
X-103632Y2537460D01*
X-103936Y2535275D01*
X-103936Y2449677D01*
X-144068Y2535275D01*
X-145643Y2537460D01*
X-147624Y2539034D01*
X-149961Y2540101D01*
X-152704Y2540609D01*
G37*
G36*
X-913942Y2540609D02*
G01*
X-925677Y2538323D01*
X-935532Y2531465D01*
X-939292Y2526792D01*
X-941984Y2521661D01*
X-943610Y2516022D01*
X-944168Y2509875D01*
X-944168Y2414625D01*
X-943457Y2409342D01*
X-941222Y2404567D01*
X-937615Y2400300D01*
X-932484Y2396591D01*
X-858316Y2358491D01*
X-858316Y2277973D01*
X-938834Y2277973D01*
X-941171Y2277465D01*
X-942848Y2276398D01*
X-943813Y2274824D01*
X-944168Y2272639D01*
X-944168Y2237333D01*
X-943813Y2235250D01*
X-942848Y2233726D01*
X-941171Y2232812D01*
X-938834Y2232507D01*
X-807516Y2232507D01*
X-805383Y2232812D01*
X-803910Y2233726D01*
X-802995Y2235250D01*
X-802690Y2237333D01*
X-802690Y2360523D01*
X-802995Y2366518D01*
X-804011Y2371648D01*
X-805688Y2376017D01*
X-808024Y2379573D01*
X-811072Y2382723D01*
X-814933Y2385822D01*
X-819607Y2388819D01*
X-888542Y2424785D01*
X-888542Y2484983D01*
X-858316Y2484983D01*
X-858316Y2479649D01*
X-857859Y2475585D01*
X-856487Y2472182D01*
X-854151Y2469489D01*
X-850950Y2467457D01*
X-811479Y2447239D01*
X-809091Y2446477D01*
X-808024Y2446375D01*
X-805688Y2446934D01*
X-804011Y2448560D01*
X-802995Y2451252D01*
X-802690Y2455011D01*
X-802690Y2509875D01*
X-803249Y2516022D01*
X-804926Y2521661D01*
X-807669Y2526792D01*
X-811580Y2531465D01*
X-816152Y2535478D01*
X-821232Y2538323D01*
X-826820Y2540050D01*
X-832916Y2540609D01*
G37*
G36*
X-1172768Y2540609D02*
G01*
X-1184503Y2538323D01*
X-1194358Y2531465D01*
X-1198118Y2526792D01*
X-1200810Y2521661D01*
X-1202436Y2516022D01*
X-1202994Y2509875D01*
X-1202994Y2489809D01*
X-1202690Y2486253D01*
X-1201775Y2483358D01*
X-1200251Y2481173D01*
X-1198168Y2479649D01*
X-1154226Y2457043D01*
X-1151991Y2456281D01*
X-1150416Y2456027D01*
X-1149096Y2456383D01*
X-1148130Y2457297D01*
X-1147572Y2458923D01*
X-1147368Y2461107D01*
X-1147368Y2485999D01*
X-1117142Y2485999D01*
X-1117142Y2288133D01*
X-1147368Y2288133D01*
X-1147368Y2425801D01*
X-1147673Y2429002D01*
X-1148689Y2431745D01*
X-1150366Y2433980D01*
X-1152702Y2435707D01*
X-1197914Y2458516D01*
X-1199438Y2459024D01*
X-1200200Y2459075D01*
X-1201420Y2458720D01*
X-1202283Y2457653D01*
X-1202791Y2455824D01*
X-1202994Y2453233D01*
X-1202994Y2262733D01*
X-1202436Y2256637D01*
X-1200810Y2250998D01*
X-1198118Y2245868D01*
X-1194358Y2241143D01*
X-1189685Y2237384D01*
X-1184503Y2234692D01*
X-1178864Y2233066D01*
X-1172768Y2232507D01*
X-1091742Y2232507D01*
X-1085646Y2233066D01*
X-1080008Y2234692D01*
X-1074826Y2237384D01*
X-1070152Y2241143D01*
X-1066393Y2245868D01*
X-1063650Y2250998D01*
X-1062075Y2256637D01*
X-1061516Y2262733D01*
X-1061516Y2509875D01*
X-1062075Y2516022D01*
X-1063650Y2521661D01*
X-1066393Y2526792D01*
X-1070152Y2531465D01*
X-1080008Y2538323D01*
X-1091742Y2540609D01*
G37*
G36*
X22047Y2532735D02*
G01*
X20370Y2532380D01*
X19202Y2531160D01*
X18491Y2529179D01*
X18237Y2526385D01*
X18237Y2447391D01*
X-25958Y2469743D01*
X-27330Y2469540D01*
X-28092Y2468930D01*
X-28600Y2467914D01*
X-28752Y2466441D01*
X-28752Y2425801D01*
X-28498Y2423566D01*
X-27787Y2421686D01*
X-26619Y2420162D01*
X-24942Y2418943D01*
X18237Y2396591D01*
X18237Y2277973D01*
X-23418Y2277973D01*
X-25755Y2277465D01*
X-27432Y2276398D01*
X-28397Y2274824D01*
X-28752Y2272639D01*
X-28752Y2237333D01*
X-28397Y2235250D01*
X-27432Y2233726D01*
X-25755Y2232812D01*
X-23418Y2232507D01*
X43637Y2232507D01*
X49631Y2233066D01*
X55219Y2234692D01*
X60299Y2237384D01*
X64973Y2241143D01*
X68884Y2245868D01*
X71628Y2250998D01*
X73304Y2256637D01*
X73863Y2262733D01*
X73863Y2368143D01*
X110947Y2349601D01*
X111709Y2349855D01*
X112268Y2350617D01*
X112623Y2351887D01*
X112725Y2393543D01*
X112471Y2395829D01*
X111760Y2397810D01*
X110591Y2399538D01*
X108915Y2400909D01*
X73863Y2418943D01*
X73863Y2498953D01*
X73507Y2502814D01*
X72390Y2506014D01*
X70561Y2508554D01*
X68021Y2510383D01*
X25552Y2531872D01*
X23114Y2532634D01*
G37*
G36*
X-275894Y2470251D02*
G01*
X-277571Y2469896D01*
X-278739Y2468676D01*
X-279450Y2466695D01*
X-279704Y2463901D01*
X-279704Y2237333D01*
X-279400Y2235250D01*
X-278485Y2233726D01*
X-276961Y2232812D01*
X-274878Y2232507D01*
X-228904Y2232507D01*
X-226771Y2232812D01*
X-225298Y2233726D01*
X-224383Y2235250D01*
X-224078Y2237333D01*
X-224078Y2436469D01*
X-224434Y2440533D01*
X-225552Y2443784D01*
X-227380Y2446274D01*
X-229920Y2447899D01*
X-272389Y2469388D01*
X-274828Y2470150D01*
G37*
G36*
X157683Y2469743D02*
G01*
X151587Y2469235D01*
X145999Y2467610D01*
X140919Y2464917D01*
X136347Y2461107D01*
X132486Y2456434D01*
X129692Y2451303D01*
X128016Y2445664D01*
X127457Y2439517D01*
X127457Y2424277D01*
X213309Y2424277D01*
X213309Y2277973D01*
X183083Y2277973D01*
X183083Y2424277D01*
X127457Y2424277D01*
X127457Y2262733D01*
X128016Y2256637D01*
X129692Y2250998D01*
X132486Y2245868D01*
X136347Y2241143D01*
X140919Y2237384D01*
X145999Y2234692D01*
X151587Y2233066D01*
X157683Y2232507D01*
X238709Y2232507D01*
X244805Y2233066D01*
X250444Y2234692D01*
X255625Y2237384D01*
X260299Y2241143D01*
X264210Y2245868D01*
X266954Y2250998D01*
X268630Y2256637D01*
X269189Y2262733D01*
X269189Y2439517D01*
X268630Y2445664D01*
X266954Y2451303D01*
X264210Y2456434D01*
X260299Y2461107D01*
X255625Y2464917D01*
X250444Y2467610D01*
X244805Y2469235D01*
X238709Y2469743D01*
G37*
G36*
X-420928Y2469743D02*
G01*
X-427024Y2469235D01*
X-432612Y2467610D01*
X-437692Y2464917D01*
X-442264Y2461107D01*
X-446125Y2456434D01*
X-448919Y2451303D01*
X-450596Y2445664D01*
X-451154Y2439517D01*
X-451154Y2343251D01*
X-395528Y2343251D01*
X-365302Y2328265D01*
X-365302Y2277973D01*
X-395528Y2277973D01*
X-395528Y2343251D01*
X-451154Y2343251D01*
X-451154Y2237333D01*
X-450799Y2235250D01*
X-449834Y2233726D01*
X-448157Y2232812D01*
X-445820Y2232507D01*
X-400354Y2232507D01*
X-398221Y2232812D01*
X-396748Y2233726D01*
X-395833Y2235250D01*
X-395528Y2237333D01*
X-395528Y2241143D01*
X-393039Y2239314D01*
X-390144Y2237689D01*
X-386791Y2236165D01*
X-383082Y2234793D01*
X-375920Y2233117D01*
X-370636Y2232507D01*
X-339902Y2232507D01*
X-333806Y2233066D01*
X-328168Y2234692D01*
X-322986Y2237384D01*
X-318312Y2241143D01*
X-314401Y2245868D01*
X-311658Y2250998D01*
X-309981Y2256637D01*
X-309422Y2262733D01*
X-309422Y2344775D01*
X-309676Y2347061D01*
X-310438Y2349042D01*
X-311708Y2350770D01*
X-313486Y2352141D01*
X-395528Y2394051D01*
X-395528Y2424277D01*
X-365302Y2424277D01*
X-364794Y2420467D01*
X-363321Y2417165D01*
X-360883Y2414371D01*
X-357428Y2412085D01*
X-318516Y2393035D01*
X-315772Y2392527D01*
X-312978Y2393238D01*
X-310997Y2395270D01*
X-309829Y2398674D01*
X-309422Y2403449D01*
X-309422Y2439517D01*
X-309981Y2445664D01*
X-311658Y2451303D01*
X-314401Y2456434D01*
X-318312Y2461107D01*
X-322986Y2464917D01*
X-328168Y2467610D01*
X-333806Y2469235D01*
X-339902Y2469743D01*
G37*
G36*
X-788974Y2469743D02*
G01*
X-790854Y2469540D01*
X-792226Y2468829D01*
X-793038Y2467610D01*
X-793292Y2464409D01*
X-739190Y2237333D01*
X-738428Y2235250D01*
X-737209Y2233726D01*
X-735533Y2232812D01*
X-733348Y2232507D01*
X-686866Y2232507D01*
X-684682Y2232812D01*
X-683006Y2233726D01*
X-681786Y2235250D01*
X-681024Y2237333D01*
X-626922Y2464917D01*
X-627176Y2467051D01*
X-627989Y2468575D01*
X-629361Y2469438D01*
X-631240Y2469743D01*
X-677722Y2469743D01*
X-679907Y2469438D01*
X-681583Y2468422D01*
X-682802Y2466746D01*
X-683564Y2464409D01*
X-709980Y2352649D01*
X-736650Y2464409D01*
X-737616Y2466746D01*
X-738987Y2468422D01*
X-740765Y2469438D01*
X-743000Y2469743D01*
G37*
G36*
X-1024432Y2288133D02*
G01*
X-1026515Y2287828D01*
X-1028039Y2286965D01*
X-1028953Y2285441D01*
X-1029258Y2283307D01*
X-1029258Y2237333D01*
X-1028953Y2235250D01*
X-1028039Y2233726D01*
X-1026515Y2232812D01*
X-1024432Y2232507D01*
X-978458Y2232507D01*
X-976325Y2232812D01*
X-974852Y2233726D01*
X-973937Y2235250D01*
X-973632Y2237333D01*
X-973632Y2283307D01*
X-973937Y2285441D01*
X-974852Y2286965D01*
X-976325Y2287828D01*
X-978458Y2288133D01*
G37*
G36*
X-1760575Y2465324D02*
G01*
X-1769465Y2465070D01*
X-1777339Y2464308D01*
X-1784146Y2462885D01*
X-1794611Y2459736D01*
X-1798421Y2458212D01*
X-1802993Y2455672D01*
X-1796643Y2439670D01*
X-1793493Y2441448D01*
X-1789887Y2443073D01*
X-1785874Y2444496D01*
X-1776526Y2446883D01*
X-1771650Y2447645D01*
X-1766620Y2448153D01*
X-1761591Y2448306D01*
X-1756460Y2448052D01*
X-1751533Y2447340D01*
X-1746808Y2446172D01*
X-1742287Y2444496D01*
X-1738122Y2442362D01*
X-1734312Y2439873D01*
X-1730756Y2436926D01*
X-1727555Y2433574D01*
X-1724660Y2429814D01*
X-1722170Y2425649D01*
X-1719986Y2421026D01*
X-1718157Y2416048D01*
X-1716582Y2410764D01*
X-1715516Y2405176D01*
X-1714804Y2399233D01*
X-1714601Y2392934D01*
X-1714804Y2386838D01*
X-1715363Y2381046D01*
X-1716328Y2375560D01*
X-1717649Y2370328D01*
X-1719224Y2365400D01*
X-1721205Y2360879D01*
X-1723542Y2356662D01*
X-1726285Y2352802D01*
X-1729486Y2349449D01*
X-1733042Y2346452D01*
X-1736852Y2343861D01*
X-1741017Y2341626D01*
X-1745538Y2339848D01*
X-1750466Y2338578D01*
X-1755851Y2337816D01*
X-1761591Y2337562D01*
X-1769313Y2337816D01*
X-1780844Y2339340D01*
X-1784197Y2340102D01*
X-1784197Y2391664D01*
X-1803755Y2391664D01*
X-1803755Y2326894D01*
X-1796897Y2325116D01*
X-1786483Y2323084D01*
X-1780184Y2322169D01*
X-1766417Y2321001D01*
X-1759305Y2320798D01*
X-1745284Y2322017D01*
X-1732635Y2325624D01*
X-1721510Y2331516D01*
X-1712061Y2339594D01*
X-1704441Y2349804D01*
X-1698853Y2362200D01*
X-1695246Y2376627D01*
X-1694027Y2392934D01*
X-1695348Y2409444D01*
X-1699361Y2423922D01*
X-1705559Y2436317D01*
X-1713585Y2446528D01*
X-1723491Y2454605D01*
X-1734921Y2460498D01*
X-1747316Y2464104D01*
G37*
G36*
X-2478125Y2465324D02*
G01*
X-2486304Y2465070D01*
X-2493619Y2464308D01*
X-2500020Y2462885D01*
X-2510180Y2459736D01*
X-2513939Y2458212D01*
X-2518257Y2455672D01*
X-2512669Y2439670D01*
X-2507589Y2442464D01*
X-2499715Y2445258D01*
X-2490317Y2447544D01*
X-2485237Y2448102D01*
X-2480157Y2448306D01*
X-2474722Y2448052D01*
X-2469591Y2447340D01*
X-2464816Y2446172D01*
X-2460345Y2444496D01*
X-2456078Y2442362D01*
X-2452166Y2439873D01*
X-2448560Y2436926D01*
X-2445359Y2433574D01*
X-2442362Y2429814D01*
X-2439771Y2425649D01*
X-2437536Y2421026D01*
X-2435707Y2416048D01*
X-2434285Y2410764D01*
X-2433218Y2405176D01*
X-2432608Y2399233D01*
X-2432405Y2392934D01*
X-2432608Y2386838D01*
X-2433167Y2381046D01*
X-2434132Y2375560D01*
X-2435453Y2370328D01*
X-2437028Y2365400D01*
X-2439009Y2360879D01*
X-2441346Y2356662D01*
X-2444089Y2352802D01*
X-2447188Y2349449D01*
X-2450642Y2346452D01*
X-2454402Y2343861D01*
X-2458567Y2341626D01*
X-2463088Y2339848D01*
X-2467965Y2338578D01*
X-2473248Y2337816D01*
X-2478887Y2337562D01*
X-2485339Y2337714D01*
X-2491130Y2338273D01*
X-2496362Y2339136D01*
X-2500985Y2340356D01*
X-2508707Y2342997D01*
X-2514193Y2345436D01*
X-2519273Y2329434D01*
X-2517343Y2328265D01*
X-2510180Y2325420D01*
X-2499461Y2322677D01*
X-2492603Y2321560D01*
X-2485186Y2320798D01*
X-2477109Y2320544D01*
X-2463088Y2321763D01*
X-2450439Y2325370D01*
X-2439314Y2331262D01*
X-2429865Y2339340D01*
X-2422245Y2349601D01*
X-2416657Y2362200D01*
X-2413050Y2376627D01*
X-2411831Y2392934D01*
X-2413152Y2409444D01*
X-2417165Y2423922D01*
X-2423414Y2436317D01*
X-2431389Y2446528D01*
X-2441244Y2454605D01*
X-2452471Y2460498D01*
X-2464866Y2464104D01*
G37*
G36*
X-2332583Y2463546D02*
G01*
X-2346350Y2462834D01*
X-2358440Y2460752D01*
X-2368804Y2457246D01*
X-2377541Y2452370D01*
X-2384450Y2446223D01*
X-2389378Y2438654D01*
X-2392324Y2429713D01*
X-2393265Y2419604D01*
X-2372969Y2419604D01*
X-2372766Y2423363D01*
X-2372207Y2426817D01*
X-2371242Y2429967D01*
X-2369921Y2432812D01*
X-2368143Y2435250D01*
X-2366111Y2437434D01*
X-2363825Y2439416D01*
X-2361285Y2441194D01*
X-2358593Y2442565D01*
X-2355697Y2443734D01*
X-2349093Y2445258D01*
X-2341880Y2446223D01*
X-2334361Y2446528D01*
X-2323388Y2446375D01*
X-2315311Y2446020D01*
X-2315311Y2391664D01*
X-2334717Y2391714D01*
X-2343759Y2392375D01*
X-2351735Y2393696D01*
X-2355240Y2394661D01*
X-2358440Y2395829D01*
X-2361285Y2397252D01*
X-2363927Y2398928D01*
X-2366264Y2400909D01*
X-2368245Y2403246D01*
X-2369921Y2405888D01*
X-2371242Y2408732D01*
X-2372207Y2411984D01*
X-2372766Y2415590D01*
X-2372969Y2419604D01*
X-2393265Y2419604D01*
X-2393035Y2413558D01*
X-2392222Y2408224D01*
X-2390851Y2403297D01*
X-2388971Y2398776D01*
X-2386584Y2394762D01*
X-2383688Y2391156D01*
X-2380335Y2387904D01*
X-2376525Y2385060D01*
X-2372258Y2382570D01*
X-2367584Y2380488D01*
X-2362454Y2378760D01*
X-2356967Y2377440D01*
X-2344572Y2375509D01*
X-2330805Y2374900D01*
X-2315311Y2374900D01*
X-2315311Y2323592D01*
X-2296007Y2323592D01*
X-2296007Y2460244D01*
X-2304643Y2461869D01*
X-2314295Y2462784D01*
X-2323846Y2463342D01*
G37*
G36*
X-2578709Y2463546D02*
G01*
X-2584602Y2463444D01*
X-2595880Y2462530D01*
X-2601315Y2461768D01*
X-2606344Y2460701D01*
X-2611018Y2459329D01*
X-2615387Y2457653D01*
X-2619349Y2455672D01*
X-2622956Y2453335D01*
X-2626207Y2450693D01*
X-2629052Y2447747D01*
X-2631541Y2444496D01*
X-2633421Y2440736D01*
X-2634792Y2436622D01*
X-2635605Y2432100D01*
X-2635859Y2427224D01*
X-2635760Y2425700D01*
X-2615793Y2425700D01*
X-2615641Y2428595D01*
X-2615082Y2431288D01*
X-2614218Y2433675D01*
X-2612999Y2435860D01*
X-2611475Y2437790D01*
X-2609697Y2439517D01*
X-2607665Y2441092D01*
X-2605379Y2442464D01*
X-2600096Y2444699D01*
X-2593949Y2446274D01*
X-2587142Y2447036D01*
X-2579979Y2447290D01*
X-2568295Y2447290D01*
X-2560675Y2446528D01*
X-2560675Y2403856D01*
X-2584602Y2403906D01*
X-2591460Y2404414D01*
X-2597810Y2405481D01*
X-2600706Y2406243D01*
X-2605887Y2408428D01*
X-2608072Y2409799D01*
X-2610002Y2411425D01*
X-2611729Y2413254D01*
X-2613253Y2415286D01*
X-2614371Y2417470D01*
X-2615133Y2419908D01*
X-2615641Y2422652D01*
X-2615793Y2425700D01*
X-2635760Y2425700D01*
X-2635504Y2421737D01*
X-2634538Y2416810D01*
X-2632862Y2412339D01*
X-2630525Y2408428D01*
X-2627630Y2404973D01*
X-2624226Y2402027D01*
X-2620365Y2399538D01*
X-2616047Y2397506D01*
X-2621838Y2395474D01*
X-2627020Y2392883D01*
X-2631643Y2389733D01*
X-2635605Y2386076D01*
X-2638704Y2381859D01*
X-2640939Y2376779D01*
X-2642260Y2370937D01*
X-2642692Y2363978D01*
X-2622651Y2363978D01*
X-2622499Y2367280D01*
X-2621991Y2370277D01*
X-2621229Y2372969D01*
X-2620111Y2375408D01*
X-2618689Y2377694D01*
X-2616911Y2379726D01*
X-2614879Y2381504D01*
X-2612491Y2383028D01*
X-2607157Y2385415D01*
X-2600807Y2387092D01*
X-2593695Y2387854D01*
X-2585567Y2388108D01*
X-2560675Y2388108D01*
X-2560675Y2339340D01*
X-2572105Y2338578D01*
X-2584246Y2338628D01*
X-2592527Y2339136D01*
X-2596489Y2339594D01*
X-2600198Y2340305D01*
X-2606903Y2342337D01*
X-2609951Y2343658D01*
X-2612694Y2345182D01*
X-2615133Y2346960D01*
X-2617266Y2348992D01*
X-2619095Y2351278D01*
X-2620670Y2353970D01*
X-2621788Y2356967D01*
X-2622448Y2360320D01*
X-2622651Y2363978D01*
X-2642692Y2363978D01*
X-2641752Y2354478D01*
X-2638907Y2345994D01*
X-2634132Y2338832D01*
X-2627477Y2332990D01*
X-2618638Y2328316D01*
X-2607614Y2324963D01*
X-2594356Y2322982D01*
X-2576779Y2322322D01*
X-2567381Y2322677D01*
X-2557526Y2323338D01*
X-2550261Y2324100D01*
X-2541371Y2325878D01*
X-2541371Y2460244D01*
X-2545638Y2461107D01*
X-2557526Y2462530D01*
X-2567381Y2463241D01*
G37*
G36*
X-1951583Y2430272D02*
G01*
X-1961489Y2429459D01*
X-1970176Y2426970D01*
X-1977643Y2422855D01*
X-1983841Y2417064D01*
X-1988718Y2409596D01*
X-1992223Y2400503D01*
X-1994306Y2389682D01*
X-1994540Y2385568D01*
X-1975713Y2385568D01*
X-1975408Y2391613D01*
X-1974240Y2397099D01*
X-1972259Y2402027D01*
X-1969363Y2406396D01*
X-1965858Y2409850D01*
X-1961743Y2412288D01*
X-1956968Y2413762D01*
X-1951583Y2414270D01*
X-1948383Y2414117D01*
X-1945436Y2413711D01*
X-1942693Y2413000D01*
X-1940153Y2411984D01*
X-1935632Y2409037D01*
X-1931771Y2405380D01*
X-1928825Y2401062D01*
X-1926691Y2396236D01*
X-1925015Y2390902D01*
X-1924151Y2385568D01*
X-1994540Y2385568D01*
X-1995017Y2377186D01*
X-1995017Y2370582D01*
X-1923643Y2370582D01*
X-1926640Y2356307D01*
X-1933041Y2345944D01*
X-1943506Y2339644D01*
X-1958695Y2337562D01*
X-1963420Y2337663D01*
X-1971700Y2338578D01*
X-1978304Y2340102D01*
X-1983384Y2341778D01*
X-1985365Y2342642D01*
X-1987905Y2326894D01*
X-1983282Y2325065D01*
X-1975967Y2323084D01*
X-1966975Y2321763D01*
X-1961946Y2321407D01*
X-1956663Y2321306D01*
X-1950161Y2321560D01*
X-1944065Y2322322D01*
X-1938477Y2323592D01*
X-1933295Y2325370D01*
X-1928571Y2327605D01*
X-1924202Y2330196D01*
X-1920290Y2333193D01*
X-1916785Y2336546D01*
X-1913839Y2340254D01*
X-1911248Y2344369D01*
X-1909114Y2348788D01*
X-1907387Y2353564D01*
X-1906066Y2358644D01*
X-1905101Y2363978D01*
X-1904542Y2369566D01*
X-1904339Y2375408D01*
X-1904593Y2382062D01*
X-1905355Y2388311D01*
X-1906625Y2394102D01*
X-1908403Y2399538D01*
X-1910486Y2404414D01*
X-1912924Y2408885D01*
X-1915668Y2412898D01*
X-1918817Y2416556D01*
X-1922272Y2419756D01*
X-1925929Y2422499D01*
X-1929841Y2424836D01*
X-1934057Y2426716D01*
X-1938375Y2428240D01*
X-1942744Y2429357D01*
X-1947164Y2430018D01*
G37*
G36*
X-2063597Y2430272D02*
G01*
X-2073402Y2429459D01*
X-2082038Y2426970D01*
X-2089404Y2422855D01*
X-2095601Y2417064D01*
X-2100478Y2409596D01*
X-2103983Y2400503D01*
X-2106066Y2389682D01*
X-2106300Y2385568D01*
X-2087473Y2385568D01*
X-2087168Y2391613D01*
X-2086000Y2397099D01*
X-2084019Y2402027D01*
X-2081123Y2406396D01*
X-2077618Y2409850D01*
X-2073503Y2412288D01*
X-2068728Y2413762D01*
X-2063343Y2414270D01*
X-2060244Y2414117D01*
X-2057298Y2413711D01*
X-2054555Y2413000D01*
X-2051913Y2411984D01*
X-2049576Y2410612D01*
X-2045512Y2407310D01*
X-2042109Y2403297D01*
X-2039467Y2398725D01*
X-2037537Y2393543D01*
X-2036775Y2390902D01*
X-2035911Y2385568D01*
X-2106300Y2385568D01*
X-2106777Y2377186D01*
X-2106777Y2370582D01*
X-2035403Y2370582D01*
X-2038400Y2356307D01*
X-2044801Y2345944D01*
X-2055418Y2339644D01*
X-2070455Y2337562D01*
X-2075180Y2337663D01*
X-2083460Y2338578D01*
X-2090064Y2340102D01*
X-2095144Y2341778D01*
X-2097125Y2342642D01*
X-2099665Y2326894D01*
X-2095042Y2325065D01*
X-2087727Y2323084D01*
X-2078685Y2321763D01*
X-2073706Y2321407D01*
X-2068423Y2321306D01*
X-2061921Y2321560D01*
X-2055875Y2322322D01*
X-2050237Y2323592D01*
X-2045055Y2325370D01*
X-2040331Y2327605D01*
X-2036013Y2330196D01*
X-2032203Y2333193D01*
X-2028799Y2336546D01*
X-2025700Y2340254D01*
X-2023059Y2344369D01*
X-2020874Y2348788D01*
X-2019147Y2353564D01*
X-2017826Y2358644D01*
X-2016861Y2363978D01*
X-2016302Y2369566D01*
X-2016099Y2375408D01*
X-2016353Y2382062D01*
X-2017115Y2388311D01*
X-2018385Y2394102D01*
X-2020163Y2399538D01*
X-2022246Y2404414D01*
X-2024684Y2408885D01*
X-2027428Y2412898D01*
X-2030577Y2416556D01*
X-2034032Y2419756D01*
X-2037689Y2422499D01*
X-2041601Y2424836D01*
X-2045817Y2426716D01*
X-2050186Y2428240D01*
X-2054606Y2429357D01*
X-2059076Y2430018D01*
G37*
G36*
X-1872538Y2429764D02*
G01*
X-1879955Y2429205D01*
X-1887067Y2427986D01*
X-1892147Y2426716D01*
X-1888845Y2410460D01*
X-1886000Y2411476D01*
X-1881479Y2412492D01*
X-1875688Y2413254D01*
X-1868525Y2413508D01*
X-1863242Y2413254D01*
X-1858111Y2412492D01*
X-1851507Y2410968D01*
X-1851507Y2323592D01*
X-1832965Y2323592D01*
X-1832965Y2423160D01*
X-1840331Y2425547D01*
X-1849221Y2427732D01*
X-1859686Y2429256D01*
G37*
G36*
X-2175103Y2429764D02*
G01*
X-2181047Y2429510D01*
X-2186482Y2428849D01*
X-2191359Y2427732D01*
X-2195677Y2426208D01*
X-2199538Y2424379D01*
X-2203043Y2422144D01*
X-2206142Y2419553D01*
X-2208885Y2416556D01*
X-2211120Y2413203D01*
X-2213000Y2409545D01*
X-2214575Y2405583D01*
X-2215743Y2401316D01*
X-2217267Y2392172D01*
X-2217674Y2387193D01*
X-2217775Y2323592D01*
X-2198979Y2323592D01*
X-2198878Y2382570D01*
X-2198268Y2390851D01*
X-2197709Y2394458D01*
X-2196947Y2397607D01*
X-2195982Y2400503D01*
X-2194814Y2403094D01*
X-2193391Y2405380D01*
X-2191867Y2407361D01*
X-2190038Y2409037D01*
X-2187905Y2410409D01*
X-2185517Y2411476D01*
X-2182825Y2412339D01*
X-2179878Y2413000D01*
X-2173071Y2413508D01*
X-2159406Y2412593D01*
X-2152243Y2411476D01*
X-2152243Y2323592D01*
X-2133701Y2323592D01*
X-2133701Y2424684D01*
X-2141118Y2426258D01*
X-2150719Y2427986D01*
X-2162149Y2429306D01*
X-2168448Y2429662D01*
G37*
D10*
X-117221Y5760867D02*
G01*
X-103504Y5754263D01*
X-83184Y5733689D01*
X-83184Y5876945D01*
X-2410391Y5767753D02*
G01*
X-2410391Y5760895D01*
X-2403533Y5747433D01*
X-2396675Y5740575D01*
X-2383213Y5733717D01*
X-2355781Y5733717D01*
X-2342319Y5740575D01*
X-2335461Y5747433D01*
X-2328603Y5760895D01*
X-2328603Y5774611D01*
X-2335461Y5788327D01*
X-2348923Y5808647D01*
X-2417249Y5876973D01*
X-2321745Y5876973D01*
X-2208715Y5733717D02*
G01*
X-2276787Y5829221D01*
X-2174425Y5829221D01*
X-2208715Y5733717D02*
G01*
X-2208715Y5876973D01*
G36*
X-2065426Y1127506D02*
G01*
X-2065426Y1087526D01*
X-2035403Y1087526D01*
X-2035403Y1127506D01*
G37*
G36*
X-254406Y1127506D02*
G01*
X-254406Y1087526D01*
X-224383Y1087526D01*
X-224383Y1127506D01*
G37*
X-2874942Y651225D02*
G01*
X-2890766Y651225D01*
X-2869244Y-1149634D02*
G01*
X-2919940Y-1149634D01*
X-2995884Y556884D02*
G01*
X-2995884Y-1052136D01*
X-2772364Y1294536D02*
G01*
X-2772364Y739434D01*
X650577Y-1154714D02*
G01*
X585515Y-1154714D01*
X742995Y562401D02*
G01*
X742995Y-1091034D01*
X663458Y656305D02*
G01*
X588055Y656305D01*
X524555Y1275090D02*
G01*
X524555Y1258285D01*
X430215Y1380205D02*
G01*
X-2675917Y1380205D01*
D11*
X-2147227Y5465066D02*
G01*
X-2847228Y5465066D01*
X602775Y5465066D02*
G01*
X-217225Y5465066D01*
X-2847220Y1595079D02*
G01*
X612792Y1595079D01*
X612792Y6375079D01*
X-2847220Y6375079D01*
X-2847220Y1595079D01*
D12*
X-2057420Y1152497D02*
G01*
X-2003445Y1152497D01*
X-1960435Y1067508D02*
G01*
X-1960435Y1017513D01*
X-2100442Y1017513D01*
X-2100442Y1059497D01*
X-246392Y1152497D02*
G01*
X-192417Y1152497D01*
X-149407Y1067508D02*
G01*
X-149407Y1017513D01*
X-289415Y1017513D01*
X-289415Y1059497D01*
D10*
G75*
G01*
X524556Y1275090D02*
G03*
X491536Y1354806I-112738J-1D01*
G75*
G01*
X491536Y1354806D02*
G03*
X430215Y1380206I-61321J-61321D01*
G75*
G01*
X742996Y562402D02*
G03*
X712516Y635986I-104066J-2D01*
G75*
G01*
X712516Y635986D02*
G03*
X663458Y656306I-49058J-49057D01*
G75*
G01*
X650578Y-1154714D02*
G03*
X730296Y-1121694I0J112737D01*
G75*
G01*
X730296Y-1121694D02*
G03*
X742996Y-1091034I-30661J30660D01*
G75*
G01*
X-2675918Y1380206D02*
G03*
X-2749504Y1349726I0J-104065D01*
G75*
G01*
X-2749504Y1349726D02*
G03*
X-2772364Y1294536I55189J-55189D01*
G75*
G01*
X-2795224Y684246D02*
G03*
X-2772364Y739435I-55189J55189D01*
G75*
G01*
X-2874942Y651226D02*
G03*
X-2795224Y684246I0J112738D01*
G75*
G01*
X-2890766Y651226D02*
G03*
X-2970484Y618206I-1J-112737D01*
G75*
G01*
X-2970484Y618206D02*
G03*
X-2995884Y556885I61321J-61321D01*
G75*
G01*
X-2807924Y-1175034D02*
G03*
X-2869245Y-1149634I-61321J-61321D01*
G75*
G01*
X-2792684Y-1211826D02*
G03*
X-2807924Y-1175034I-52033J-1D01*
G75*
G01*
X-2962864Y-1131854D02*
G03*
X-2919941Y-1149634I42924J42924D01*
G75*
G01*
X-2995884Y-1052137D02*
G03*
X-2962864Y-1131854I112737J0D01*
M02*
