G04 Layer: BoardOutlineLayer*
G04 EasyEDA v6.5.21, 2022-10-22 15:56:40*
G04 9ab0f769691e454ba0e7696980ab9178,294cf934c43b457281b0b0dcd80bbfec,10*
G04 Gerber Generator version 0.2*
G04 Scale: 100 percent, Rotated: No, Reflected: No *
G04 Dimensions in millimeters *
G04 leading zeros omitted , absolute positions ,4 integer and 5 decimal *
%FSLAX45Y45*%
%MOMM*%

%ADD10C,0.2540*%
D10*
X-3031444Y-1109068D02*
G01*
X-3031444Y552165D01*
X-3033984Y577565D01*
X-3039064Y600425D01*
X-3049224Y623285D01*
X-3061924Y643605D01*
X-3074624Y663925D01*
X-3092404Y676625D01*
X-3120344Y689325D01*
X-3145744Y696945D01*
X-3163524Y707105D01*
X-3183844Y724885D01*
X-3224197Y755898D01*
X927498Y4182491D02*
G01*
X927498Y3571763D01*
X-2973024Y6645625D02*
G01*
X-3121088Y6497561D01*
X-3168604Y6462745D01*
X-3211784Y6432265D01*
X-3227024Y6417025D01*
X-3227024Y3920205D01*
X-3175840Y3869024D01*
X920795Y2629524D02*
G01*
X920795Y1113505D01*
X-3140664Y2568925D02*
G01*
X-3140664Y1140320D01*
X868715Y-1197152D02*
G01*
X839515Y-1182654D01*
X814115Y-1167414D01*
X793795Y-1144554D01*
X786175Y-1124234D01*
X783635Y-1093754D01*
X783635Y574050D01*
X-2409070Y-2892074D02*
G01*
X-2452324Y-2892074D01*
X-2584404Y-2886994D01*
X-2686004Y-2881914D01*
X-2716484Y-2871754D01*
X-2739344Y-2856514D01*
X-2759664Y-2833654D01*
X-2790144Y-2787934D01*
X-2879044Y-2640614D01*
X-2978104Y-2467894D01*
X-3074624Y-2290094D01*
X-3206704Y-2056414D01*
X-2045924Y-2912394D02*
G01*
X-2051004Y-2912394D01*
X-2188164Y-2912394D01*
X-2221184Y-2914934D01*
X-2244044Y-2920014D01*
X-2335484Y-2922554D01*
X-499861Y-2892074D02*
G01*
X-659084Y-2892074D01*
X-692104Y-2881914D01*
X-1929084Y-2881914D01*
X-1972337Y-2881914D01*
X-143464Y-2912394D02*
G01*
X-450804Y-2912394D01*
X928415Y-1446814D02*
G01*
X913175Y-1467134D01*
X897935Y-1497614D01*
X887775Y-1525554D01*
X882695Y-1553494D01*
X882695Y-2168174D01*
X880155Y-2178334D01*
X872535Y-2196114D01*
X857295Y-2216434D01*
X275635Y-2861594D01*
X255315Y-2881914D01*
X234995Y-2889534D01*
X-72344Y-2889534D01*
X-88275Y-2889534D01*
X1004615Y785845D02*
G01*
X969055Y762985D01*
X941115Y745205D01*
X897935Y704565D01*
X854755Y681705D01*
X816655Y653765D01*
X984166Y1015481D02*
G01*
X945301Y1054346D01*
X953815Y2810662D02*
G01*
X953815Y2709242D01*
X933495Y2897096D02*
G01*
X933495Y2859719D01*
X978291Y2992180D02*
G01*
X969055Y2982945D01*
X965824Y3245256D02*
G01*
X994455Y3216625D01*
X994455Y3031205D01*
X933495Y3329076D02*
G01*
X933495Y3323305D01*
X958895Y3495410D02*
G01*
X958895Y3390399D01*
X923335Y4191985D02*
G01*
X882622Y4232701D01*
X839515Y4585144D02*
G01*
X839515Y4336765D01*
X904758Y4704270D02*
G01*
X877615Y4677125D01*
X933495Y5218656D02*
G01*
X933495Y4773645D01*
X994455Y5801113D02*
G01*
X994455Y5365826D01*
X979215Y5837905D02*
G01*
X969236Y5847885D01*
X925875Y5865845D02*
G01*
X914587Y5865845D01*
X811575Y6561010D02*
G01*
X811575Y5979634D01*
X791255Y6610065D02*
G01*
X773219Y6628102D01*
X712515Y6653245D02*
G01*
X454413Y6653245D01*
X374695Y6686265D02*
G01*
X52115Y6686265D01*
X-15336Y6658325D02*
G01*
X-742904Y6658325D01*
X-826056Y6575176D01*
X-925784Y6533865D02*
G01*
X-1309654Y6533865D01*
X-1426164Y6582125D02*
G01*
X-1478272Y6634233D01*
X-1530304Y6655785D02*
G01*
X-1820992Y6655785D01*
X-1888444Y6683725D02*
G01*
X-2185624Y6683725D01*
X-2234681Y6663405D02*
G01*
X-2930100Y6663405D01*
X-3138124Y3777965D02*
G01*
X-3138124Y3500414D01*
X-3160984Y3445225D02*
G01*
X-3161855Y3444354D01*
X-3176224Y3409665D02*
G01*
X-3176224Y3336622D01*
X-3209244Y3134263D02*
G01*
X-3209244Y2947385D01*
X-3177766Y2915907D01*
X-3150824Y2850865D02*
G01*
X-3150824Y2818206D01*
X-3176224Y2756885D02*
G01*
X-3176224Y2653799D01*
X-3172993Y2646974D02*
G01*
X-3173684Y2647665D01*
X-3168604Y1072865D02*
G01*
X-3254964Y986505D01*
X-3061924Y-1182654D02*
G01*
X-3202622Y-1323352D01*
X-3229564Y-1388394D02*
G01*
X-3229564Y-2001225D01*
G75*
G01*
X928416Y-1446814D02*
G03*
X868716Y-1197153I-127000J101599D01*
G75*
G01*
X816656Y653766D02*
G03*
X783636Y574049I79717J-79718D01*
G75*
G01*
X1004616Y785846D02*
G03*
X984166Y1015481I-101600J106680D01*
G75*
G01*
X920796Y1113506D02*
G03*
X945302Y1054346I83666J1D01*
G75*
G01*
X946196Y2690846D02*
G03*
X920796Y2629525I61321J-61321D01*
G75*
G01*
X946196Y2690846D02*
G03*
X953816Y2709243I-18396J18397D01*
G75*
G01*
X953816Y2810662D02*
G03*
X948736Y2822926I-17344J-1D01*
G75*
G01*
X933496Y2859719D02*
G03*
X948736Y2822926I52032J-1D01*
G75*
G01*
X969056Y2982946D02*
G03*
X933496Y2897097I85849J-85849D01*
G75*
G01*
X978291Y2992181D02*
G03*
X994456Y3031206I-39024J39025D01*
G75*
G01*
X933496Y3323306D02*
G03*
X965825Y3245256I110377J-1D01*
G75*
G01*
X956356Y3384266D02*
G03*
X933496Y3329077I55189J-55189D01*
G75*
G01*
X956356Y3384266D02*
G03*
X958896Y3390398I-6132J6132D01*
G75*
G01*
X958896Y3495410D02*
G03*
X951276Y3513806I-26016J-1D01*
G75*
G01*
X928416Y3568995D02*
G03*
X951276Y3513806I78049J-1D01*
G75*
G01*
X928416Y4179722D02*
G03*
X923336Y4191986I-17344J0D01*
G75*
G01*
X839516Y4336766D02*
G03*
X882622Y4232701I147170J1D01*
G75*
G01*
X877616Y4677126D02*
G03*
X839516Y4585145I91981J-91981D01*
G75*
G01*
X904758Y4704269D02*
G03*
X933496Y4773646I-69376J69378D01*
G75*
G01*
X969056Y5304506D02*
G03*
X933496Y5218656I85849J-85850D01*
G75*
G01*
X969056Y5304506D02*
G03*
X994456Y5365827I-61321J61321D01*
G75*
G01*
X994456Y5801114D02*
G03*
X979216Y5837906I-52033J-1D01*
G75*
G01*
X969236Y5847885D02*
G03*
X925876Y5865846I-43361J-43359D01*
G75*
G01*
X847136Y5893786D02*
G03*
X914588Y5865846I67453J67453D01*
G75*
G01*
X811576Y5979636D02*
G03*
X847136Y5893786I121409J0D01*
G75*
G01*
X811576Y6561011D02*
G03*
X791256Y6610066I-69377J-2D01*
G75*
G01*
X773222Y6628102D02*
G03*
X712516Y6653246I-60705J-60705D01*
G75*
G01*
X374696Y6686266D02*
G03*
X454414Y6653246I79716J79718D01*
G75*
G01*
X-15337Y6658326D02*
G03*
X52116Y6686266I0J95393D01*
G75*
G01*
X-925784Y6533866D02*
G03*
X-826056Y6575176I-3J141038D01*
G75*
G01*
X-1426164Y6582126D02*
G03*
X-1309654Y6533866I116510J116510D01*
G75*
G01*
X-1478272Y6634234D02*
G03*
X-1530304Y6655786I-52034J-52034D01*
G75*
G01*
X-1888444Y6683726D02*
G03*
X-1820992Y6655786I67453J67453D01*
G75*
G01*
X-2234682Y6663406D02*
G03*
X-2185624Y6683726I0J69376D01*
G75*
G01*
X-2930101Y6663406D02*
G03*
X-2973024Y6645626I1J-60705D01*
G75*
G01*
X-3138124Y3777966D02*
G03*
X-3175841Y3869025I-128774J2D01*
G75*
G01*
X-3160984Y3445226D02*
G03*
X-3138124Y3500415I-55189J55189D01*
G75*
G01*
X-3161856Y3444355D02*
G03*
X-3176224Y3409666I34689J-34689D01*
G75*
G01*
X-3176224Y3336622D02*
G03*
X-3168604Y3318226I26016J1D01*
G75*
G01*
X-3150824Y3275302D02*
G03*
X-3168604Y3318226I-60705J0D01*
G75*
G01*
X-3199498Y3157792D02*
G03*
X-3150824Y3275302I-117509J117509D01*
G75*
G01*
X-3199498Y3157792D02*
G03*
X-3209244Y3134263I23529J-23530D01*
G75*
G01*
X-3150824Y2850866D02*
G03*
X-3177766Y2915907I-91982J-1D01*
G75*
G01*
X-3176224Y2756886D02*
G03*
X-3150824Y2818207I-61321J61321D01*
G75*
G01*
X-3176224Y2653800D02*
G03*
X-3173684Y2647666I8672J-2D01*
G75*
G01*
X-3140664Y2568926D02*
G03*
X-3172993Y2646975I-110378J0D01*
G75*
G01*
X-3168604Y1072866D02*
G03*
X-3140664Y1140320I-67453J67453D01*
G75*
G01*
X-3254964Y986506D02*
G03*
X-3224197Y755899I99060J-104139D01*
G75*
G01*
X-3061924Y-1182654D02*
G03*
X-3031444Y-1109068I-73586J73585D01*
G75*
G01*
X-3202622Y-1323353D02*
G03*
X-3229564Y-1388394I65039J-65041D01*
G75*
G01*
X-3229564Y-2001225D02*
G03*
X-3206704Y-2056414I78049J-1D01*
G75*
G01*
X-450804Y-2912394D02*
G03*
X-499862Y-2892074I-49057J-49057D01*
G75*
G01*
X-88275Y-2889534D02*
G03*
X-143464Y-2912394I0J-78049D01*
G75*
G01*
X-1972338Y-2881914D02*
G03*
X-2045924Y-2912394I-1J-104066D01*
G75*
G01*
X-2335484Y-2922554D02*
G03*
X-2409071Y-2892074I-73586J-73586D01*
X-686653Y-2257435D02*
G01*
X-706973Y-2206635D01*
G75*
G01*
X-706973Y-2206635D02*
G02*
X-565475Y-2150034I70845J28059D01*
X-565475Y-2150033D02*
G01*
X-545155Y-2200833D01*
G75*
G01*
X-545155Y-2200834D02*
G02*
X-686653Y-2257435I-70846J-28059D01*
X-686653Y-2257435D02*
G01*
X-686653Y-2257435D01*
X-3009854Y-1601754D02*
G01*
X-3009854Y-1647474D01*
G75*
G01*
X-3009854Y-1647474D02*
G02*
X-3149554Y-1647474I-69850J0D01*
X-3149554Y-1647474D02*
G01*
X-3149554Y-1601754D01*
G75*
G01*
X-3149554Y-1601754D02*
G02*
X-3009854Y-1601754I69850J0D01*
X-3009854Y-1601754D02*
G01*
X-3009854Y-1601754D01*
G75*
G01*
X844595Y5609505D02*
G02*
X755696Y5698172I0J88900D01*
X755695Y5698172D02*
G01*
X755695Y5698638D01*
G75*
G01*
X755696Y5698639D02*
G02*
X844595Y5787305I88899J-234D01*
X844595Y5787305D02*
G01*
X844595Y5787305D01*
G75*
G01*
X844595Y5787305D02*
G02*
X933495Y5698405I0J-88900D01*
G75*
G01*
X933495Y5698405D02*
G02*
X844595Y5609505I-88900J0D01*
X844595Y5609505D02*
G01*
X844595Y5609505D01*
G75*
G01*
X892854Y805854D02*
G02*
X798835Y899874I0J94020D01*
G75*
G01*
X798835Y899874D02*
G02*
X798834Y899926I94018J485D01*
X798834Y899926D02*
G01*
X798834Y899696D01*
X798834Y899696D02*
G01*
X798838Y900680D01*
G75*
G01*
X798838Y900681D02*
G02*
X892854Y993894I94016J-807D01*
X892854Y993893D02*
G01*
X892854Y993893D01*
G75*
G01*
X892854Y993894D02*
G02*
X986874Y899874I0J-94020D01*
G75*
G01*
X986874Y899874D02*
G02*
X892854Y805854I-94020J0D01*
X892854Y805854D02*
G01*
X892854Y805854D01*
G75*
G01*
X-3130159Y798421D02*
G02*
X-3227024Y895032I0J96865D01*
X-3227024Y895032D02*
G01*
X-3227022Y895286D01*
G75*
G01*
X-3227022Y895286D02*
G02*
X-3227023Y895295I12694J389D01*
X-3227022Y895294D02*
G01*
X-3227021Y895228D01*
X-3227021Y895228D02*
G01*
X-3227024Y895540D01*
G75*
G01*
X-3227024Y895541D02*
G02*
X-3130159Y992152I96865J-254D01*
X-3130158Y992152D02*
G01*
X-3130158Y992152D01*
G75*
G01*
X-3130159Y992152D02*
G02*
X-3033293Y895286I0J-96865D01*
X-3033293Y895286D02*
G01*
X-3033293Y895286D01*
G75*
G01*
X-3033293Y895286D02*
G02*
X-3130159Y798421I-96866J1D01*
X-3130158Y798420D02*
G01*
X-3130158Y798420D01*
X-3227024Y894998D02*
G01*
X-3227024Y895065D01*
G75*
G01*
X-3227024Y895066D02*
G02*
X-3227024Y895074I12700J4D01*
X-3227024Y895073D02*
G01*
X-3227024Y894998D01*
X755695Y5698206D02*
G01*
X755695Y5698172D01*
G75*
G01*
X755696Y5698172D02*
G02*
X755696Y5698140I-12700J-117D01*
X755695Y5698140D02*
G01*
X755695Y5698206D01*
X755697Y5698396D02*
G01*
X755695Y5698463D01*
G75*
G01*
X755696Y5698464D02*
G03*
X755695Y5698472I-12695J-381D01*
X755695Y5698471D02*
G01*
X755697Y5698396D01*
X-2474993Y-2622494D02*
G01*
X-2474993Y-3099993D01*
X-2474993Y-3099993D02*
G01*
X-267497Y-3099993D01*
X-267497Y-3099993D02*
G01*
X-267497Y-2622494D01*
X-267497Y-2622494D02*
G01*
X-2474993Y-2622494D01*

%LPD*%
M02*
