G04 Layer: TopPasteMaskLayer*
G04 EasyEDA v6.5.21, 2022-10-22 15:56:40*
G04 9ab0f769691e454ba0e7696980ab9178,294cf934c43b457281b0b0dcd80bbfec,10*
G04 Gerber Generator version 0.2*
G04 Scale: 100 percent, Rotated: No, Reflected: No *
G04 Dimensions in millimeters *
G04 leading zeros omitted , absolute positions ,4 integer and 5 decimal *
%FSLAX45Y45*%
%MOMM*%

%AMMACRO1*21,1,$1,$2,0,0,$3*%
%AMMACRO2*4,1,5,0.61,0.475,0.61,-0.475,-0.46,-0.475,-0.61,-0.325,-0.61,0.475,0.61,0.475,0*%
%AMMACRO3*4,1,5,0.61,0.475,0.61,-0.475,-0.61,-0.475,-0.61,0.325,-0.46,0.475,0.61,0.475,0*%
%AMMACRO4*4,1,5,0.3,0.45,0.45,0.3,0.45,-0.45,-0.45,-0.45,-0.45,0.45,0.3,0.45,0*%
%AMMACRO5*4,1,5,-0.475,0.61,0.475,0.61,0.475,-0.46,0.325,-0.61,-0.475,-0.61,-0.475,0.61,0*%
%AMMACRO6*4,1,5,-0.475,0.61,0.475,0.61,0.475,-0.61,-0.3251,-0.61,-0.475,-0.46,-0.475,0.61,0*%
%AMMACRO7*4,1,5,0.475,-0.61,-0.475,-0.61,-0.475,0.46,-0.325,0.61,0.475,0.61,0.475,-0.61,0*%
%AMMACRO8*4,1,5,-0.61,-0.475,-0.61,0.475,0.46,0.475,0.61,0.325,0.61,-0.475,-0.61,-0.475,0*%
%AMMACRO9*4,1,5,0.475,-0.61,-0.475,-0.61,-0.475,0.61,0.325,0.61,0.475,0.46,0.475,-0.61,0*%
%AMMACRO10*4,1,5,-0.61,-0.475,-0.61,0.475,0.61,0.475,0.61,-0.325,0.46,-0.475,-0.61,-0.475,0*%
%AMMACRO11*4,1,8,-0.4,-0.35,-0.5,-0.25,-0.5,0.25,-0.4,0.35,0.4,0.35,0.5,0.25,0.5,-0.25,0.4,-0.35,-0.4,-0.35,0*%
%AMMACRO12*4,1,8,0.5,-0.1,0.4,-0.2,-0.4,-0.2,-0.5,-0.1,-0.5,0.1,-0.4,0.2,0.4,0.2,0.5,0.1,0.5,-0.1,0*%
%ADD10R,4.0000X2.0000*%
%ADD11R,4.0000X6.0000*%
%ADD12MACRO1,1.4986X3.0023X90.0000*%
%ADD13MACRO1,0.505X0.224X90.0000*%
%ADD14R,0.2240X0.5050*%
%ADD15MACRO1,0.9X1.4X90.0000*%
%ADD16C,1.0000*%
%ADD17R,3.0000X3.0000*%
%ADD18R,0.6350X0.1778*%
%ADD19R,0.1778X0.6350*%
%ADD20R,0.5500X0.4000*%
%ADD21R,1.8000X1.2000*%
%ADD22MACRO1,0.8X1X0.0000*%
%ADD23O,1.1999976X0.5999988*%
%ADD24O,0.5999988X1.499997*%
%ADD25O,1.3899896X1.3899896*%
%ADD26C,1.3900*%
%ADD27R,1.0720X0.5320*%
%ADD28R,0.9000X0.3000*%
%ADD29R,1.2000X0.6000*%
%ADD30MACRO1,0.505X0.3X-90.0000*%
%ADD31MACRO1,0.505X0.3X90.0000*%
%ADD32R,1.6600X0.8000*%
%ADD33R,2.5000X2.5000*%
%ADD34R,0.6000X0.3000*%
%ADD35R,0.3000X0.6000*%
%ADD36R,0.2500X1.0000*%
%ADD37R,0.6000X1.0000*%
%ADD38R,0.5100X0.4000*%
%ADD39R,0.4000X0.5100*%
%ADD40R,0.5500X0.5500*%
%ADD41R,0.9500X1.2200*%
%ADD42R,1.2200X0.9500*%
%ADD43MACRO2*%
%ADD44MACRO3*%
%ADD45MACRO4*%
%ADD46R,0.9000X0.9000*%
%ADD47MACRO5*%
%ADD48MACRO6*%
%ADD49MACRO7*%
%ADD50MACRO8*%
%ADD51MACRO9*%
%ADD52MACRO10*%
%ADD53R,1.2700X0.8000*%
%ADD54R,3.3000X4.2000*%
%ADD55R,0.5000X0.5000*%
%ADD56R,0.8000X0.5500*%
%ADD57R,1.0000X1.5000*%
%ADD58R,1.5240X2.7940*%
%ADD59R,0.5000X3.8000*%
%ADD60R,1.2000X2.0000*%
%ADD61R,1.5000X2.0000*%
%ADD62R,1.1000X0.6000*%
%ADD63R,1.1000X0.3000*%
%ADD64R,0.7500X1.0000*%
%ADD65MACRO11*%
%ADD66MACRO12*%
%ADD67R,0.8000X0.9000*%
%ADD68R,1.0000X0.2250*%
%ADD69R,0.2250X1.0000*%
%ADD70R,0.2800X0.5500*%
%ADD71O,0.8299958000000001X0.4899914*%
%ADD72MACRO1,0.7X1.6X0.0000*%
%ADD73R,0.7000X0.2000*%
%ADD74R,0.2000X0.7000*%
%ADD75R,0.8000X0.3000*%
%ADD76R,0.3000X0.8000*%
%ADD77R,0.9000X0.8000*%
%ADD78MACRO1,1.1011X2X0.0000*%
%ADD79MACRO1,0.665X0.28X-90.0000*%
%ADD80MACRO1,0.28X0.665X-90.0000*%
%ADD81R,0.2800X0.6650*%
%ADD82R,2.6000X2.6000*%
%ADD83MACRO1,0.505X0.28X0.0000*%
%ADD84MACRO1,0.9X1.65X0.0000*%
%ADD85R,1.6256X2.6416*%
%ADD86C,2.1336*%
%ADD87C,0.0143*%

%LPD*%
G36*
X-2204974Y5367477D02*
G01*
X-2211984Y5362498D01*
X-2211984Y5317490D01*
X-2204974Y5312511D01*
X-2156968Y5312511D01*
X-2151989Y5317490D01*
X-2151989Y5362498D01*
X-2156968Y5367477D01*
G37*
G36*
X-2302967Y5367477D02*
G01*
X-2307996Y5362498D01*
X-2307996Y5317490D01*
X-2302967Y5312511D01*
X-2255012Y5312511D01*
X-2248001Y5317490D01*
X-2248001Y5362498D01*
X-2255012Y5367477D01*
G37*
G36*
X127508Y5532475D02*
G01*
X120497Y5527497D01*
X120497Y5482488D01*
X127508Y5477510D01*
X175514Y5477510D01*
X180492Y5482488D01*
X180492Y5527497D01*
X175514Y5532475D01*
G37*
G36*
X29514Y5532475D02*
G01*
X24485Y5527497D01*
X24485Y5482488D01*
X29514Y5477510D01*
X77520Y5477510D01*
X84480Y5482488D01*
X84480Y5527497D01*
X77520Y5532475D01*
G37*
G36*
X-52476Y5102504D02*
G01*
X-59486Y5097475D01*
X-59486Y5052466D01*
X-52476Y5047488D01*
X-4521Y5047488D01*
X508Y5052466D01*
X508Y5097475D01*
X-4521Y5102504D01*
G37*
G36*
X-150520Y5102504D02*
G01*
X-155498Y5097475D01*
X-155498Y5052466D01*
X-150520Y5047488D01*
X-102514Y5047488D01*
X-95504Y5052466D01*
X-95504Y5097475D01*
X-102514Y5102504D01*
G37*
G36*
X-659993Y5062474D02*
G01*
X-667004Y5057495D01*
X-667004Y5012486D01*
X-659993Y5007508D01*
X-611987Y5007508D01*
X-607009Y5012486D01*
X-607009Y5057495D01*
X-611987Y5062474D01*
G37*
G36*
X-757986Y5062474D02*
G01*
X-763016Y5057495D01*
X-763016Y5012486D01*
X-757986Y5007508D01*
X-709980Y5007508D01*
X-703021Y5012486D01*
X-703021Y5057495D01*
X-709980Y5062474D01*
G37*
G36*
X313232Y4642510D02*
G01*
X308254Y4637481D01*
X308254Y4592472D01*
X313232Y4587494D01*
X361238Y4587494D01*
X368249Y4592472D01*
X368249Y4637481D01*
X361238Y4642510D01*
G37*
G36*
X411226Y4642510D02*
G01*
X404266Y4637481D01*
X404266Y4592472D01*
X411226Y4587494D01*
X459232Y4587494D01*
X464261Y4592472D01*
X464261Y4637481D01*
X459232Y4642510D01*
G37*
G36*
X-813003Y4494987D02*
G01*
X-817981Y4490008D01*
X-817981Y4445000D01*
X-813003Y4439970D01*
X-764997Y4439970D01*
X-757986Y4445000D01*
X-757986Y4490008D01*
X-764997Y4494987D01*
G37*
G36*
X-715010Y4494987D02*
G01*
X-722020Y4490008D01*
X-722020Y4445000D01*
X-715010Y4439970D01*
X-667004Y4439970D01*
X-661974Y4445000D01*
X-661974Y4490008D01*
X-667004Y4494987D01*
G37*
G36*
X-577494Y4612995D02*
G01*
X-582472Y4608017D01*
X-582472Y4560011D01*
X-577494Y4553000D01*
X-532485Y4553000D01*
X-527507Y4560011D01*
X-527507Y4608017D01*
X-532485Y4612995D01*
G37*
G36*
X-577494Y4516983D02*
G01*
X-582472Y4509973D01*
X-582472Y4462018D01*
X-577494Y4456988D01*
X-532485Y4456988D01*
X-527507Y4462018D01*
X-527507Y4509973D01*
X-532485Y4516983D01*
G37*
G36*
X-462483Y4612995D02*
G01*
X-467512Y4608017D01*
X-467512Y4560011D01*
X-462483Y4553000D01*
X-417474Y4553000D01*
X-412496Y4560011D01*
X-412496Y4608017D01*
X-417474Y4612995D01*
G37*
G36*
X-462483Y4516983D02*
G01*
X-467512Y4509973D01*
X-467512Y4462018D01*
X-462483Y4456988D01*
X-417474Y4456988D01*
X-412496Y4462018D01*
X-412496Y4509973D01*
X-417474Y4516983D01*
G37*
G36*
X-902512Y4949494D02*
G01*
X-907491Y4942484D01*
X-907491Y4894478D01*
X-902512Y4889500D01*
X-857503Y4889500D01*
X-852474Y4894478D01*
X-852474Y4942484D01*
X-857503Y4949494D01*
G37*
G36*
X-902512Y5045506D02*
G01*
X-907491Y5040477D01*
X-907491Y4992471D01*
X-902512Y4985512D01*
X-857503Y4985512D01*
X-852474Y4992471D01*
X-852474Y5040477D01*
X-857503Y5045506D01*
G37*
G36*
X313232Y4497476D02*
G01*
X308254Y4492498D01*
X308254Y4447489D01*
X313232Y4442510D01*
X361238Y4442510D01*
X368249Y4447489D01*
X368249Y4492498D01*
X361238Y4497476D01*
G37*
G36*
X411226Y4497476D02*
G01*
X404266Y4492498D01*
X404266Y4447489D01*
X411226Y4442510D01*
X459232Y4442510D01*
X464261Y4447489D01*
X464261Y4492498D01*
X459232Y4497476D01*
G37*
G36*
X313232Y4787493D02*
G01*
X308254Y4782515D01*
X308254Y4737506D01*
X313232Y4732477D01*
X361238Y4732477D01*
X368249Y4737506D01*
X368249Y4782515D01*
X361238Y4787493D01*
G37*
G36*
X411226Y4787493D02*
G01*
X404266Y4782515D01*
X404266Y4737506D01*
X411226Y4732477D01*
X459232Y4732477D01*
X464261Y4737506D01*
X464261Y4782515D01*
X459232Y4787493D01*
G37*
G36*
X-2192985Y5249062D02*
G01*
X-2196998Y5245049D01*
X-2196998Y5195011D01*
X-2192985Y5190998D01*
X-2147011Y5190998D01*
X-2142998Y5195011D01*
X-2142998Y5245049D01*
X-2147011Y5249062D01*
G37*
G36*
X-2192985Y5163972D02*
G01*
X-2196998Y5160010D01*
X-2196998Y5109921D01*
X-2192985Y5105908D01*
X-2147011Y5105908D01*
X-2142998Y5109921D01*
X-2142998Y5160010D01*
X-2147011Y5163972D01*
G37*
G36*
X-2312974Y5249062D02*
G01*
X-2316988Y5245049D01*
X-2316988Y5195011D01*
X-2312974Y5190998D01*
X-2267000Y5190998D01*
X-2262987Y5195011D01*
X-2262987Y5245049D01*
X-2267000Y5249062D01*
G37*
G36*
X-2312974Y5163972D02*
G01*
X-2316988Y5160010D01*
X-2316988Y5109921D01*
X-2312974Y5105908D01*
X-2267000Y5105908D01*
X-2262987Y5109921D01*
X-2262987Y5160010D01*
X-2267000Y5163972D01*
G37*
G36*
X-2410002Y4254500D02*
G01*
X-2414981Y4247489D01*
X-2414981Y4199483D01*
X-2410002Y4194505D01*
X-2364994Y4194505D01*
X-2360015Y4199483D01*
X-2360015Y4247489D01*
X-2364994Y4254500D01*
G37*
G36*
X-2410002Y4350512D02*
G01*
X-2414981Y4345482D01*
X-2414981Y4297476D01*
X-2410002Y4290466D01*
X-2364994Y4290466D01*
X-2360015Y4297476D01*
X-2360015Y4345482D01*
X-2364994Y4350512D01*
G37*
G36*
X-2410002Y4584496D02*
G01*
X-2414981Y4577486D01*
X-2414981Y4529480D01*
X-2410002Y4524502D01*
X-2364994Y4524502D01*
X-2360015Y4529480D01*
X-2360015Y4577486D01*
X-2364994Y4584496D01*
G37*
G36*
X-2410002Y4680508D02*
G01*
X-2414981Y4675479D01*
X-2414981Y4627473D01*
X-2410002Y4620514D01*
X-2364994Y4620514D01*
X-2360015Y4627473D01*
X-2360015Y4675479D01*
X-2364994Y4680508D01*
G37*
G36*
X-2887472Y4680508D02*
G01*
X-2892501Y4675479D01*
X-2892501Y4627473D01*
X-2887472Y4620514D01*
X-2842514Y4620514D01*
X-2837484Y4627473D01*
X-2837484Y4675479D01*
X-2842514Y4680508D01*
G37*
G36*
X-2887472Y4584496D02*
G01*
X-2892501Y4577486D01*
X-2892501Y4529480D01*
X-2887472Y4524502D01*
X-2842514Y4524502D01*
X-2837484Y4529480D01*
X-2837484Y4577486D01*
X-2842514Y4584496D01*
G37*
G36*
X-1680006Y1392986D02*
G01*
X-1721002Y1392478D01*
X-1725980Y1387500D01*
X-1725980Y1272489D01*
X-1721002Y1267510D01*
X-1592986Y1267510D01*
X-1588008Y1272489D01*
X-1588008Y1387500D01*
X-1592986Y1392478D01*
X-1634998Y1391970D01*
X-1634998Y1347978D01*
X-1680006Y1347978D01*
G37*
G36*
X-1721002Y1607515D02*
G01*
X-1725980Y1602486D01*
X-1725980Y1487525D01*
X-1721002Y1482496D01*
X-1680006Y1483004D01*
X-1680006Y1526997D01*
X-1634998Y1526997D01*
X-1634998Y1482496D01*
X-1592986Y1482496D01*
X-1588008Y1487525D01*
X-1588008Y1602486D01*
X-1592986Y1607515D01*
G37*
G36*
X-1620012Y825500D02*
G01*
X-1624990Y820521D01*
X-1624990Y767486D01*
X-1620012Y762508D01*
X-1575003Y762508D01*
X-1569974Y767486D01*
X-1569974Y820521D01*
X-1575003Y825500D01*
G37*
G36*
X-1620012Y722477D02*
G01*
X-1624990Y717499D01*
X-1624990Y664514D01*
X-1620012Y659485D01*
X-1575003Y659485D01*
X-1569974Y664514D01*
X-1569974Y717499D01*
X-1575003Y722477D01*
G37*
G36*
X384911Y-615492D02*
G01*
X380898Y-619506D01*
X380898Y-665480D01*
X384911Y-669493D01*
X435000Y-669493D01*
X438962Y-665480D01*
X438962Y-619506D01*
X435000Y-615492D01*
G37*
G36*
X470001Y-615492D02*
G01*
X465988Y-619506D01*
X465988Y-665480D01*
X470001Y-669493D01*
X520039Y-669493D01*
X524052Y-665480D01*
X524052Y-619506D01*
X520039Y-615492D01*
G37*
G36*
X470001Y-760526D02*
G01*
X465988Y-764489D01*
X465988Y-810514D01*
X470001Y-814527D01*
X520039Y-814527D01*
X524052Y-810514D01*
X524052Y-764489D01*
X520039Y-760526D01*
G37*
G36*
X384911Y-760526D02*
G01*
X380898Y-764489D01*
X380898Y-810514D01*
X384911Y-814527D01*
X435000Y-814527D01*
X438962Y-810514D01*
X438962Y-764489D01*
X435000Y-760526D01*
G37*
G36*
X-804976Y-735025D02*
G01*
X-810006Y-740003D01*
X-810006Y-792988D01*
X-804976Y-798017D01*
X-760018Y-798017D01*
X-754989Y-792988D01*
X-754989Y-740003D01*
X-760018Y-735025D01*
G37*
G36*
X-804976Y-632002D02*
G01*
X-810006Y-636981D01*
X-810006Y-690016D01*
X-804976Y-694994D01*
X-760018Y-694994D01*
X-754989Y-690016D01*
X-754989Y-636981D01*
X-760018Y-632002D01*
G37*
G36*
X-782980Y-24993D02*
G01*
X-788009Y-30022D01*
X-788009Y-74980D01*
X-782980Y-80010D01*
X-729996Y-80010D01*
X-725017Y-74980D01*
X-725017Y-30022D01*
X-729996Y-24993D01*
G37*
G36*
X-680008Y-24993D02*
G01*
X-684987Y-30022D01*
X-684987Y-74980D01*
X-680008Y-80010D01*
X-627024Y-80010D01*
X-621995Y-74980D01*
X-621995Y-30022D01*
X-627024Y-24993D01*
G37*
G36*
X492506Y491998D02*
G01*
X487476Y487019D01*
X487476Y407009D01*
X492506Y401980D01*
X515315Y401980D01*
X515315Y439013D01*
X548284Y439013D01*
X548284Y401980D01*
X572516Y401980D01*
X577494Y407009D01*
X577494Y487019D01*
X572516Y491998D01*
G37*
G36*
X492506Y331978D02*
G01*
X487476Y326999D01*
X487476Y248005D01*
X492506Y242976D01*
X572516Y242976D01*
X577494Y248005D01*
X577494Y326999D01*
X572516Y331978D01*
X548284Y331978D01*
X548284Y293979D01*
X515315Y293979D01*
X515315Y331978D01*
G37*
G36*
X490016Y71983D02*
G01*
X484987Y65024D01*
X484987Y17018D01*
X490016Y11988D01*
X534974Y11988D01*
X540004Y17018D01*
X540004Y65024D01*
X534974Y71983D01*
G37*
G36*
X490016Y167995D02*
G01*
X484987Y163017D01*
X484987Y115011D01*
X490016Y108000D01*
X534974Y108000D01*
X540004Y115011D01*
X540004Y163017D01*
X534974Y167995D01*
G37*
G36*
X-2815082Y229514D02*
G01*
X-2819044Y225501D01*
X-2819044Y179476D01*
X-2815082Y175514D01*
X-2764993Y175514D01*
X-2760980Y179476D01*
X-2760980Y225501D01*
X-2764993Y229514D01*
G37*
G36*
X-2729992Y229514D02*
G01*
X-2734005Y225501D01*
X-2734005Y179476D01*
X-2729992Y175514D01*
X-2679954Y175514D01*
X-2675940Y179476D01*
X-2675940Y225501D01*
X-2679954Y229514D01*
G37*
G36*
X-2820517Y115011D02*
G01*
X-2825496Y109982D01*
X-2825496Y65024D01*
X-2820517Y59994D01*
X-2772511Y59994D01*
X-2765501Y65024D01*
X-2765501Y109982D01*
X-2772511Y115011D01*
G37*
G36*
X-2722473Y115011D02*
G01*
X-2729484Y109982D01*
X-2729484Y65024D01*
X-2722473Y59994D01*
X-2674518Y59994D01*
X-2669489Y65024D01*
X-2669489Y109982D01*
X-2674518Y115011D01*
G37*
G36*
X-1639976Y447497D02*
G01*
X-1645005Y442518D01*
X-1645005Y397510D01*
X-1639976Y392480D01*
X-1586992Y392480D01*
X-1582013Y397510D01*
X-1582013Y442518D01*
X-1586992Y447497D01*
G37*
G36*
X-1742998Y447497D02*
G01*
X-1747977Y442518D01*
X-1747977Y397510D01*
X-1742998Y392480D01*
X-1690014Y392480D01*
X-1684985Y397510D01*
X-1684985Y442518D01*
X-1690014Y447497D01*
G37*
G36*
X-2503017Y604977D02*
G01*
X-2507996Y599998D01*
X-2507996Y554990D01*
X-2503017Y550011D01*
X-2455011Y550011D01*
X-2448001Y554990D01*
X-2448001Y599998D01*
X-2455011Y604977D01*
G37*
G36*
X-2404973Y604977D02*
G01*
X-2411984Y599998D01*
X-2411984Y554990D01*
X-2404973Y550011D01*
X-2357018Y550011D01*
X-2351989Y554990D01*
X-2351989Y599998D01*
X-2357018Y604977D01*
G37*
G36*
X-2820517Y0D02*
G01*
X-2825496Y-4978D01*
X-2825496Y-49987D01*
X-2820517Y-55016D01*
X-2772511Y-55016D01*
X-2765501Y-49987D01*
X-2765501Y-4978D01*
X-2772511Y0D01*
G37*
G36*
X-2722473Y0D02*
G01*
X-2729484Y-4978D01*
X-2729484Y-49987D01*
X-2722473Y-55016D01*
X-2674518Y-55016D01*
X-2669489Y-49987D01*
X-2669489Y-4978D01*
X-2674518Y0D01*
G37*
G36*
X-2820517Y344982D02*
G01*
X-2825496Y340004D01*
X-2825496Y294995D01*
X-2820517Y290017D01*
X-2772511Y290017D01*
X-2765501Y294995D01*
X-2765501Y340004D01*
X-2772511Y344982D01*
G37*
G36*
X-2722473Y344982D02*
G01*
X-2729484Y340004D01*
X-2729484Y294995D01*
X-2722473Y290017D01*
X-2674518Y290017D01*
X-2669489Y294995D01*
X-2669489Y340004D01*
X-2674518Y344982D01*
G37*
G36*
X-2820517Y-505002D02*
G01*
X-2825496Y-509981D01*
X-2825496Y-554990D01*
X-2820517Y-560019D01*
X-2772511Y-560019D01*
X-2765501Y-554990D01*
X-2765501Y-509981D01*
X-2772511Y-505002D01*
G37*
G36*
X-2722473Y-505002D02*
G01*
X-2729484Y-509981D01*
X-2729484Y-554990D01*
X-2722473Y-560019D01*
X-2674518Y-560019D01*
X-2669489Y-554990D01*
X-2669489Y-509981D01*
X-2674518Y-505002D01*
G37*
G36*
X-2820517Y-389991D02*
G01*
X-2825496Y-395020D01*
X-2825496Y-439978D01*
X-2820517Y-445008D01*
X-2772511Y-445008D01*
X-2765501Y-439978D01*
X-2765501Y-395020D01*
X-2772511Y-389991D01*
G37*
G36*
X-2722473Y-389991D02*
G01*
X-2729484Y-395020D01*
X-2729484Y-439978D01*
X-2722473Y-445008D01*
X-2674518Y-445008D01*
X-2669489Y-439978D01*
X-2669489Y-395020D01*
X-2674518Y-389991D01*
G37*
G36*
X-1697989Y-915009D02*
G01*
X-1703019Y-919987D01*
X-1703019Y-964996D01*
X-1697989Y-969975D01*
X-1649984Y-969975D01*
X-1642973Y-964996D01*
X-1642973Y-919987D01*
X-1649984Y-915009D01*
G37*
G36*
X-1599996Y-915009D02*
G01*
X-1607007Y-919987D01*
X-1607007Y-964996D01*
X-1599996Y-969975D01*
X-1551990Y-969975D01*
X-1547012Y-964996D01*
X-1547012Y-919987D01*
X-1551990Y-915009D01*
G37*
G36*
X-1449984Y-799490D02*
G01*
X-1455013Y-804468D01*
X-1455013Y-852474D01*
X-1449984Y-859485D01*
X-1404975Y-859485D01*
X-1399997Y-852474D01*
X-1399997Y-804468D01*
X-1404975Y-799490D01*
G37*
G36*
X-1449984Y-895502D02*
G01*
X-1455013Y-902512D01*
X-1455013Y-950518D01*
X-1449984Y-955497D01*
X-1404975Y-955497D01*
X-1399997Y-950518D01*
X-1399997Y-902512D01*
X-1404975Y-895502D01*
G37*
G36*
X-1697989Y-387502D02*
G01*
X-1703019Y-392480D01*
X-1703019Y-437489D01*
X-1697989Y-442518D01*
X-1649984Y-442518D01*
X-1642973Y-437489D01*
X-1642973Y-392480D01*
X-1649984Y-387502D01*
G37*
G36*
X-1599996Y-387502D02*
G01*
X-1607007Y-392480D01*
X-1607007Y-437489D01*
X-1599996Y-442518D01*
X-1551990Y-442518D01*
X-1547012Y-437489D01*
X-1547012Y-392480D01*
X-1551990Y-387502D01*
G37*
G36*
X-1285494Y-387502D02*
G01*
X-1290523Y-392480D01*
X-1290523Y-437489D01*
X-1285494Y-442518D01*
X-1237488Y-442518D01*
X-1230477Y-437489D01*
X-1230477Y-392480D01*
X-1237488Y-387502D01*
G37*
G36*
X-1187500Y-387502D02*
G01*
X-1194511Y-392480D01*
X-1194511Y-437489D01*
X-1187500Y-442518D01*
X-1139494Y-442518D01*
X-1134516Y-437489D01*
X-1134516Y-392480D01*
X-1139494Y-387502D01*
G37*
G36*
X-1034999Y-799490D02*
G01*
X-1039977Y-804468D01*
X-1039977Y-852474D01*
X-1034999Y-859485D01*
X-989990Y-859485D01*
X-985012Y-852474D01*
X-985012Y-804468D01*
X-989990Y-799490D01*
G37*
G36*
X-1034999Y-895502D02*
G01*
X-1039977Y-902512D01*
X-1039977Y-950518D01*
X-1034999Y-955497D01*
X-989990Y-955497D01*
X-985012Y-950518D01*
X-985012Y-902512D01*
X-989990Y-895502D01*
G37*
G36*
X-1187500Y-915009D02*
G01*
X-1194511Y-919987D01*
X-1194511Y-964996D01*
X-1187500Y-969975D01*
X-1139494Y-969975D01*
X-1134516Y-964996D01*
X-1134516Y-919987D01*
X-1139494Y-915009D01*
G37*
G36*
X-1285494Y-915009D02*
G01*
X-1290472Y-919987D01*
X-1290472Y-964996D01*
X-1285494Y-969975D01*
X-1237488Y-969975D01*
X-1230477Y-964996D01*
X-1230477Y-919987D01*
X-1237488Y-915009D01*
G37*
G36*
X-1450492Y-473506D02*
G01*
X-1454505Y-477520D01*
X-1454505Y-527558D01*
X-1450492Y-531571D01*
X-1404518Y-531571D01*
X-1400505Y-527558D01*
X-1400505Y-477520D01*
X-1404518Y-473506D01*
G37*
G36*
X-1450492Y-388416D02*
G01*
X-1454505Y-392430D01*
X-1454505Y-442518D01*
X-1450492Y-446481D01*
X-1404518Y-446481D01*
X-1400505Y-442518D01*
X-1400505Y-392430D01*
X-1404518Y-388416D01*
G37*
G36*
X-1450492Y-575919D02*
G01*
X-1454505Y-579932D01*
X-1454505Y-629970D01*
X-1450492Y-633984D01*
X-1404518Y-633984D01*
X-1400505Y-629970D01*
X-1400505Y-579932D01*
X-1404518Y-575919D01*
G37*
G36*
X-1450492Y-661009D02*
G01*
X-1454505Y-664972D01*
X-1454505Y-715060D01*
X-1450492Y-719074D01*
X-1404518Y-719074D01*
X-1400505Y-715060D01*
X-1400505Y-664972D01*
X-1404518Y-661009D01*
G37*
G36*
X-1035507Y-473506D02*
G01*
X-1039520Y-477520D01*
X-1039520Y-527558D01*
X-1035507Y-531571D01*
X-989482Y-531571D01*
X-985519Y-527558D01*
X-985519Y-477520D01*
X-989482Y-473506D01*
G37*
G36*
X-1035507Y-388416D02*
G01*
X-1039520Y-392430D01*
X-1039520Y-442518D01*
X-1035507Y-446481D01*
X-989482Y-446481D01*
X-985519Y-442518D01*
X-985519Y-392430D01*
X-989482Y-388416D01*
G37*
G36*
X-1035507Y-575919D02*
G01*
X-1039520Y-579932D01*
X-1039520Y-629970D01*
X-1035507Y-633984D01*
X-989482Y-633984D01*
X-985519Y-629970D01*
X-985519Y-579932D01*
X-989482Y-575919D01*
G37*
G36*
X-1035507Y-661009D02*
G01*
X-1039520Y-664972D01*
X-1039520Y-715060D01*
X-1035507Y-719074D01*
X-989482Y-719074D01*
X-985519Y-715060D01*
X-985519Y-664972D01*
X-989482Y-661009D01*
G37*
G36*
X-772566Y89509D02*
G01*
X-776579Y85496D01*
X-776579Y39522D01*
X-772566Y35509D01*
X-722477Y35509D01*
X-718515Y39522D01*
X-718515Y85496D01*
X-722477Y89509D01*
G37*
G36*
X-687476Y89509D02*
G01*
X-691489Y85496D01*
X-691489Y39522D01*
X-687476Y35509D01*
X-637438Y35509D01*
X-633425Y39522D01*
X-633425Y85496D01*
X-637438Y89509D01*
G37*
G36*
X-772566Y204520D02*
G01*
X-776579Y200507D01*
X-776579Y154482D01*
X-772566Y150520D01*
X-722477Y150520D01*
X-718515Y154482D01*
X-718515Y200507D01*
X-722477Y204520D01*
G37*
G36*
X-687476Y204520D02*
G01*
X-691489Y200507D01*
X-691489Y154482D01*
X-687476Y150520D01*
X-637438Y150520D01*
X-633425Y154482D01*
X-633425Y200507D01*
X-637438Y204520D01*
G37*
G36*
X-105003Y779983D02*
G01*
X-109982Y775004D01*
X-109982Y721969D01*
X-105003Y716991D01*
X-59994Y716991D01*
X-55016Y721969D01*
X-55016Y775004D01*
X-59994Y779983D01*
G37*
G36*
X-105003Y883005D02*
G01*
X-109982Y877976D01*
X-109982Y824992D01*
X-105003Y820013D01*
X-59994Y820013D01*
X-55016Y824992D01*
X-55016Y877976D01*
X-59994Y883005D01*
G37*
G36*
X302514Y5013502D02*
G01*
X297484Y5008473D01*
X297484Y4880508D01*
X302514Y4875479D01*
X417525Y4875479D01*
X422503Y4880508D01*
X421995Y4922469D01*
X378002Y4922469D01*
X378002Y4967478D01*
X423011Y4967478D01*
X422503Y5008473D01*
X417525Y5013502D01*
G37*
G36*
X517499Y5013502D02*
G01*
X512521Y5008473D01*
X512978Y4967478D01*
X557022Y4967478D01*
X557022Y4922469D01*
X512521Y4922469D01*
X512521Y4880508D01*
X517499Y4875479D01*
X632510Y4875479D01*
X637489Y4880508D01*
X637489Y5008473D01*
X632510Y5013502D01*
G37*
G36*
X-485495Y-452475D02*
G01*
X-490524Y-457504D01*
X-490524Y-502513D01*
X-485495Y-507492D01*
X-437540Y-507492D01*
X-430530Y-502513D01*
X-430530Y-457504D01*
X-437540Y-452475D01*
G37*
G36*
X-387502Y-452475D02*
G01*
X-394512Y-457504D01*
X-394512Y-502513D01*
X-387502Y-507492D01*
X-339496Y-507492D01*
X-334518Y-502513D01*
X-334518Y-457504D01*
X-339496Y-452475D01*
G37*
G36*
X-2815082Y1017016D02*
G01*
X-2819044Y1013002D01*
X-2819044Y966978D01*
X-2815082Y963015D01*
X-2764993Y963015D01*
X-2760980Y966978D01*
X-2760980Y1013002D01*
X-2764993Y1017016D01*
G37*
G36*
X-2729992Y1017016D02*
G01*
X-2734005Y1013002D01*
X-2734005Y966978D01*
X-2729992Y963015D01*
X-2679954Y963015D01*
X-2675940Y966978D01*
X-2675940Y1013002D01*
X-2679954Y1017016D01*
G37*
G36*
X-3033014Y3379063D02*
G01*
X-3036976Y3375050D01*
X-3036976Y3325012D01*
X-3033014Y3320999D01*
X-2986989Y3320999D01*
X-2982976Y3325012D01*
X-2982976Y3375050D01*
X-2986989Y3379063D01*
G37*
G36*
X-3033014Y3293973D02*
G01*
X-3036976Y3290011D01*
X-3036976Y3239922D01*
X-3033014Y3235909D01*
X-2986989Y3235909D01*
X-2982976Y3239922D01*
X-2982976Y3290011D01*
X-2986989Y3293973D01*
G37*
G36*
X-2497582Y3154476D02*
G01*
X-2501544Y3150514D01*
X-2501544Y3104489D01*
X-2497582Y3100476D01*
X-2447493Y3100476D01*
X-2443480Y3104489D01*
X-2443480Y3150514D01*
X-2447493Y3154476D01*
G37*
G36*
X-2412492Y3154476D02*
G01*
X-2416505Y3150514D01*
X-2416505Y3104489D01*
X-2412492Y3100476D01*
X-2362454Y3100476D01*
X-2358440Y3104489D01*
X-2358440Y3150514D01*
X-2362454Y3154476D01*
G37*
G36*
X-1595475Y4061561D02*
G01*
X-1599488Y4057548D01*
X-1599488Y4007510D01*
X-1595475Y4003497D01*
X-1549501Y4003497D01*
X-1545488Y4007510D01*
X-1545488Y4057548D01*
X-1549501Y4061561D01*
G37*
G36*
X-1595475Y3976471D02*
G01*
X-1599488Y3972509D01*
X-1599488Y3922420D01*
X-1595475Y3918407D01*
X-1549501Y3918407D01*
X-1545488Y3922420D01*
X-1545488Y3972509D01*
X-1549501Y3976471D01*
G37*
G36*
X-2820517Y-620014D02*
G01*
X-2825496Y-624992D01*
X-2825496Y-670001D01*
X-2820517Y-674979D01*
X-2772511Y-674979D01*
X-2765501Y-670001D01*
X-2765501Y-624992D01*
X-2772511Y-620014D01*
G37*
G36*
X-2722473Y-620014D02*
G01*
X-2729484Y-624992D01*
X-2729484Y-670001D01*
X-2722473Y-674979D01*
X-2674518Y-674979D01*
X-2669489Y-670001D01*
X-2669489Y-624992D01*
X-2674518Y-620014D01*
G37*
G36*
X-2820517Y-964996D02*
G01*
X-2825496Y-969975D01*
X-2825496Y-1014984D01*
X-2820517Y-1020013D01*
X-2772511Y-1020013D01*
X-2765501Y-1014984D01*
X-2765501Y-969975D01*
X-2772511Y-964996D01*
G37*
G36*
X-2722473Y-964996D02*
G01*
X-2729484Y-969975D01*
X-2729484Y-1014984D01*
X-2722473Y-1020013D01*
X-2674518Y-1020013D01*
X-2669489Y-1014984D01*
X-2669489Y-969975D01*
X-2674518Y-964996D01*
G37*
G36*
X-2820517Y-734974D02*
G01*
X-2825496Y-740003D01*
X-2825496Y-785012D01*
X-2820517Y-789990D01*
X-2772511Y-789990D01*
X-2765501Y-785012D01*
X-2765501Y-740003D01*
X-2772511Y-734974D01*
G37*
G36*
X-2722473Y-734974D02*
G01*
X-2729484Y-740003D01*
X-2729484Y-785012D01*
X-2722473Y-789990D01*
X-2674518Y-789990D01*
X-2669489Y-785012D01*
X-2669489Y-740003D01*
X-2674518Y-734974D01*
G37*
G36*
X-1855012Y-753008D02*
G01*
X-1859991Y-760018D01*
X-1859991Y-808024D01*
X-1855012Y-813003D01*
X-1810004Y-813003D01*
X-1804974Y-808024D01*
X-1804974Y-760018D01*
X-1810004Y-753008D01*
G37*
G36*
X-1855012Y-656996D02*
G01*
X-1859991Y-662025D01*
X-1859991Y-709980D01*
X-1855012Y-716991D01*
X-1810004Y-716991D01*
X-1804974Y-709980D01*
X-1804974Y-662025D01*
X-1810004Y-656996D01*
G37*
G36*
X-2820517Y-849985D02*
G01*
X-2825496Y-855014D01*
X-2825496Y-900023D01*
X-2820517Y-905002D01*
X-2772511Y-905002D01*
X-2765501Y-900023D01*
X-2765501Y-855014D01*
X-2772511Y-849985D01*
G37*
G36*
X-2722473Y-849985D02*
G01*
X-2729484Y-855014D01*
X-2729484Y-900023D01*
X-2722473Y-905002D01*
X-2674518Y-905002D01*
X-2669489Y-900023D01*
X-2669489Y-855014D01*
X-2674518Y-849985D01*
G37*
G36*
X-1855012Y-404469D02*
G01*
X-1859991Y-409498D01*
X-1859991Y-457504D01*
X-1855012Y-464515D01*
X-1810004Y-464515D01*
X-1804974Y-457504D01*
X-1804974Y-409498D01*
X-1810004Y-404469D01*
G37*
G36*
X-1855012Y-500481D02*
G01*
X-1859991Y-507492D01*
X-1859991Y-555498D01*
X-1855012Y-560476D01*
X-1810004Y-560476D01*
X-1804974Y-555498D01*
X-1804974Y-507492D01*
X-1810004Y-500481D01*
G37*
G36*
X-2551226Y-848512D02*
G01*
X-2551226Y-876503D01*
X-2471216Y-876503D01*
X-2471216Y-848512D01*
G37*
G36*
X-2551226Y-798474D02*
G01*
X-2551226Y-826465D01*
X-2471216Y-826465D01*
X-2471216Y-798474D01*
G37*
G36*
X-2551226Y-748487D02*
G01*
X-2551226Y-776478D01*
X-2471216Y-776478D01*
X-2471216Y-748487D01*
G37*
G36*
X-2551226Y-698500D02*
G01*
X-2551226Y-726490D01*
X-2471216Y-726490D01*
X-2471216Y-698500D01*
G37*
G36*
X-2551226Y-648512D02*
G01*
X-2551226Y-676503D01*
X-2471216Y-676503D01*
X-2471216Y-648512D01*
G37*
G36*
X-2551226Y-598474D02*
G01*
X-2551226Y-626465D01*
X-2471216Y-626465D01*
X-2471216Y-598474D01*
G37*
G36*
X-2551226Y-548487D02*
G01*
X-2551226Y-576478D01*
X-2471216Y-576478D01*
X-2471216Y-548487D01*
G37*
G36*
X-2551226Y-498500D02*
G01*
X-2551226Y-526491D01*
X-2471216Y-526491D01*
X-2471216Y-498500D01*
G37*
G36*
X-2450084Y-397510D02*
G01*
X-2450084Y-477520D01*
X-2422093Y-477520D01*
X-2422093Y-397510D01*
G37*
G36*
X-2400096Y-397510D02*
G01*
X-2400096Y-477520D01*
X-2372055Y-477520D01*
X-2372055Y-397510D01*
G37*
G36*
X-2350109Y-397510D02*
G01*
X-2350109Y-477520D01*
X-2322068Y-477520D01*
X-2322068Y-397510D01*
G37*
G36*
X-2300071Y-397510D02*
G01*
X-2300071Y-477520D01*
X-2272080Y-477520D01*
X-2272080Y-397510D01*
G37*
G36*
X-2250084Y-397510D02*
G01*
X-2250084Y-477520D01*
X-2222093Y-477520D01*
X-2222093Y-397510D01*
G37*
G36*
X-2200097Y-397510D02*
G01*
X-2200097Y-477520D01*
X-2172055Y-477520D01*
X-2172055Y-397510D01*
G37*
G36*
X-2150110Y-397510D02*
G01*
X-2150110Y-477520D01*
X-2122068Y-477520D01*
X-2122068Y-397510D01*
G37*
G36*
X-2100072Y-397510D02*
G01*
X-2100072Y-477520D01*
X-2072081Y-477520D01*
X-2072081Y-397510D01*
G37*
G36*
X-2051253Y-498297D02*
G01*
X-2051253Y-526288D01*
X-1971243Y-526288D01*
X-1971243Y-498297D01*
G37*
G36*
X-2051253Y-548284D02*
G01*
X-2051253Y-576275D01*
X-1971243Y-576275D01*
X-1971243Y-548284D01*
G37*
G36*
X-2051253Y-598271D02*
G01*
X-2051253Y-626262D01*
X-1971243Y-626262D01*
X-1971243Y-598271D01*
G37*
G36*
X-2051253Y-648309D02*
G01*
X-2051253Y-676300D01*
X-1971243Y-676300D01*
X-1971243Y-648309D01*
G37*
G36*
X-2051253Y-698296D02*
G01*
X-2051253Y-726287D01*
X-1971243Y-726287D01*
X-1971243Y-698296D01*
G37*
G36*
X-2051253Y-748284D02*
G01*
X-2051253Y-776274D01*
X-1971243Y-776274D01*
X-1971243Y-748284D01*
G37*
G36*
X-2051253Y-798271D02*
G01*
X-2051253Y-826262D01*
X-1971243Y-826262D01*
X-1971243Y-798271D01*
G37*
G36*
X-2051253Y-848309D02*
G01*
X-2051253Y-876300D01*
X-1971243Y-876300D01*
X-1971243Y-848309D01*
G37*
G36*
X-2100376Y-897483D02*
G01*
X-2100376Y-977493D01*
X-2072386Y-977493D01*
X-2072386Y-897483D01*
G37*
G36*
X-2150364Y-897483D02*
G01*
X-2150364Y-977493D01*
X-2122373Y-977493D01*
X-2122373Y-897483D01*
G37*
G36*
X-2200402Y-897483D02*
G01*
X-2200402Y-977493D01*
X-2172360Y-977493D01*
X-2172360Y-897483D01*
G37*
G36*
X-2250389Y-897483D02*
G01*
X-2250389Y-977493D01*
X-2222347Y-977493D01*
X-2222347Y-897483D01*
G37*
G36*
X-2300376Y-897483D02*
G01*
X-2300376Y-977493D01*
X-2272385Y-977493D01*
X-2272385Y-897483D01*
G37*
G36*
X-2350363Y-897483D02*
G01*
X-2350363Y-977493D01*
X-2322372Y-977493D01*
X-2322372Y-897483D01*
G37*
G36*
X-2400401Y-897483D02*
G01*
X-2400401Y-977493D01*
X-2372360Y-977493D01*
X-2372360Y-897483D01*
G37*
G36*
X-2450236Y-897483D02*
G01*
X-2450236Y-977493D01*
X-2422245Y-977493D01*
X-2422245Y-897483D01*
G37*
G36*
X-2301240Y-647496D02*
G01*
X-2301240Y-727506D01*
X-2221230Y-727506D01*
X-2221230Y-647496D01*
G37*
G36*
X-2176221Y-647496D02*
G01*
X-2176221Y-727506D01*
X-2096211Y-727506D01*
X-2096211Y-647496D01*
G37*
G36*
X-2301240Y-772515D02*
G01*
X-2301240Y-852474D01*
X-2221230Y-852474D01*
X-2221230Y-772515D01*
G37*
G36*
X-2426258Y-647496D02*
G01*
X-2426258Y-727506D01*
X-2346248Y-727506D01*
X-2346248Y-647496D01*
G37*
G36*
X-2301240Y-522478D02*
G01*
X-2301240Y-602488D01*
X-2221230Y-602488D01*
X-2221230Y-522478D01*
G37*
G36*
X-2176221Y-522478D02*
G01*
X-2176221Y-602488D01*
X-2096211Y-602488D01*
X-2096211Y-522478D01*
G37*
G36*
X-2176221Y-772464D02*
G01*
X-2176221Y-852474D01*
X-2096262Y-852474D01*
X-2096262Y-772464D01*
G37*
G36*
X-2426258Y-772464D02*
G01*
X-2426258Y-852474D01*
X-2346198Y-852474D01*
X-2346198Y-772464D01*
G37*
G36*
X-2426258Y-522478D02*
G01*
X-2426258Y-602488D01*
X-2346248Y-602488D01*
X-2346248Y-522478D01*
G37*
G36*
X489966Y-182981D02*
G01*
X484987Y-189992D01*
X484987Y-237998D01*
X489966Y-243027D01*
X534974Y-243027D01*
X540004Y-237998D01*
X540004Y-189992D01*
X534974Y-182981D01*
G37*
G36*
X489966Y-87020D02*
G01*
X484987Y-91998D01*
X484987Y-140004D01*
X489966Y-147015D01*
X534974Y-147015D01*
X540004Y-140004D01*
X540004Y-91998D01*
X534974Y-87020D01*
G37*
G36*
X489966Y-337007D02*
G01*
X484987Y-341985D01*
X484987Y-389991D01*
X489966Y-397002D01*
X534974Y-397002D01*
X540004Y-389991D01*
X540004Y-341985D01*
X534974Y-337007D01*
G37*
G36*
X489966Y-433019D02*
G01*
X484987Y-439978D01*
X484987Y-487984D01*
X489966Y-493014D01*
X534974Y-493014D01*
X540004Y-487984D01*
X540004Y-439978D01*
X534974Y-433019D01*
G37*
G36*
X-1315008Y-1047496D02*
G01*
X-1319987Y-1052474D01*
X-1319987Y-1097483D01*
X-1315008Y-1102512D01*
X-1261973Y-1102512D01*
X-1256995Y-1097483D01*
X-1256995Y-1052474D01*
X-1261973Y-1047496D01*
G37*
G36*
X-1417980Y-1047496D02*
G01*
X-1423009Y-1052474D01*
X-1423009Y-1097483D01*
X-1417980Y-1102512D01*
X-1364996Y-1102512D01*
X-1360017Y-1097483D01*
X-1360017Y-1052474D01*
X-1364996Y-1047496D01*
G37*
G36*
X382016Y-1150010D02*
G01*
X376986Y-1154988D01*
X376986Y-1199997D01*
X382016Y-1204976D01*
X430022Y-1204976D01*
X436981Y-1199997D01*
X436981Y-1154988D01*
X430022Y-1150010D01*
G37*
G36*
X480009Y-1150010D02*
G01*
X472998Y-1154988D01*
X472998Y-1199997D01*
X480009Y-1204976D01*
X528015Y-1204976D01*
X532993Y-1199997D01*
X532993Y-1154988D01*
X528015Y-1150010D01*
G37*
G36*
X369976Y-87020D02*
G01*
X364998Y-91998D01*
X364998Y-140004D01*
X369976Y-147015D01*
X414985Y-147015D01*
X419963Y-140004D01*
X419963Y-91998D01*
X414985Y-87020D01*
G37*
G36*
X369976Y-182981D02*
G01*
X364998Y-189992D01*
X364998Y-237998D01*
X369976Y-243027D01*
X414985Y-243027D01*
X419963Y-237998D01*
X419963Y-189992D01*
X414985Y-182981D01*
G37*
G36*
X369976Y-337007D02*
G01*
X364998Y-341985D01*
X364998Y-389991D01*
X369976Y-397002D01*
X414985Y-397002D01*
X419963Y-389991D01*
X419963Y-341985D01*
X414985Y-337007D01*
G37*
G36*
X369976Y-433019D02*
G01*
X364998Y-439978D01*
X364998Y-487984D01*
X369976Y-493014D01*
X414985Y-493014D01*
X419963Y-487984D01*
X419963Y-439978D01*
X414985Y-433019D01*
G37*
G36*
X495858Y-2373223D02*
G01*
X464007Y-2405075D01*
X464007Y-2412136D01*
X501497Y-2449576D01*
X508558Y-2449576D01*
X540359Y-2417775D01*
X540359Y-2410714D01*
X502920Y-2373223D01*
G37*
G36*
X423011Y-2300376D02*
G01*
X391160Y-2332228D01*
X391160Y-2339289D01*
X428650Y-2376779D01*
X435711Y-2376779D01*
X467563Y-2344928D01*
X467563Y-2337866D01*
X430072Y-2300376D01*
G37*
G36*
X-2722473Y-1080008D02*
G01*
X-2729484Y-1084986D01*
X-2729484Y-1129995D01*
X-2722473Y-1134973D01*
X-2674518Y-1134973D01*
X-2669489Y-1129995D01*
X-2669489Y-1084986D01*
X-2674518Y-1080008D01*
G37*
G36*
X-2820466Y-1080008D02*
G01*
X-2825496Y-1084986D01*
X-2825496Y-1129995D01*
X-2820466Y-1134973D01*
X-2772511Y-1134973D01*
X-2765501Y-1129995D01*
X-2765501Y-1084986D01*
X-2772511Y-1080008D01*
G37*
G36*
X-1855012Y-1060500D02*
G01*
X-1859991Y-1067511D01*
X-1859991Y-1115517D01*
X-1855012Y-1120495D01*
X-1810004Y-1120495D01*
X-1804974Y-1115517D01*
X-1804974Y-1067511D01*
X-1810004Y-1060500D01*
G37*
G36*
X-1855012Y-964488D02*
G01*
X-1859991Y-969518D01*
X-1859991Y-1017473D01*
X-1855012Y-1024483D01*
X-1810004Y-1024483D01*
X-1804974Y-1017473D01*
X-1804974Y-969518D01*
X-1810004Y-964488D01*
G37*
G36*
X-2066239Y-1080008D02*
G01*
X-2073249Y-1084986D01*
X-2073249Y-1129995D01*
X-2066239Y-1134973D01*
X-2018233Y-1134973D01*
X-2013254Y-1129995D01*
X-2013254Y-1084986D01*
X-2018233Y-1080008D01*
G37*
G36*
X-2164232Y-1080008D02*
G01*
X-2169261Y-1084986D01*
X-2169261Y-1129995D01*
X-2164232Y-1134973D01*
X-2116226Y-1134973D01*
X-2109216Y-1129995D01*
X-2109216Y-1084986D01*
X-2116226Y-1080008D01*
G37*
G36*
X-2376220Y-1080008D02*
G01*
X-2383231Y-1084986D01*
X-2383231Y-1129995D01*
X-2376220Y-1134973D01*
X-2328214Y-1134973D01*
X-2323236Y-1129995D01*
X-2323236Y-1084986D01*
X-2328214Y-1080008D01*
G37*
G36*
X-2474214Y-1080008D02*
G01*
X-2479243Y-1084986D01*
X-2479243Y-1129995D01*
X-2474214Y-1134973D01*
X-2426258Y-1134973D01*
X-2419248Y-1129995D01*
X-2419248Y-1084986D01*
X-2426258Y-1080008D01*
G37*
G36*
X-370484Y892505D02*
G01*
X-375513Y887476D01*
X-375513Y842518D01*
X-370484Y837488D01*
X-317500Y837488D01*
X-312521Y842518D01*
X-312521Y887476D01*
X-317500Y892505D01*
G37*
G36*
X-267512Y892505D02*
G01*
X-272491Y887476D01*
X-272491Y842518D01*
X-267512Y837488D01*
X-214477Y837488D01*
X-209499Y842518D01*
X-209499Y887476D01*
X-214477Y892505D01*
G37*
G36*
X-267512Y772515D02*
G01*
X-274472Y767486D01*
X-274472Y722477D01*
X-267512Y717499D01*
X-219506Y717499D01*
X-214477Y722477D01*
X-214477Y767486D01*
X-219506Y772515D01*
G37*
G36*
X-365506Y772515D02*
G01*
X-370484Y767486D01*
X-370484Y722477D01*
X-365506Y717499D01*
X-317500Y717499D01*
X-310489Y722477D01*
X-310489Y767486D01*
X-317500Y772515D01*
G37*
G36*
X-415493Y479043D02*
G01*
X-419506Y475081D01*
X-419506Y424992D01*
X-415493Y420979D01*
X-369519Y420979D01*
X-365506Y424992D01*
X-365506Y475081D01*
X-369519Y479043D01*
G37*
G36*
X-415493Y394004D02*
G01*
X-419506Y389991D01*
X-419506Y339953D01*
X-415493Y335940D01*
X-369519Y335940D01*
X-365506Y339953D01*
X-365506Y389991D01*
X-369519Y394004D01*
G37*
G36*
X382524Y5134508D02*
G01*
X378510Y5130495D01*
X378510Y5084470D01*
X382524Y5080508D01*
X432562Y5080508D01*
X436575Y5084470D01*
X436575Y5130495D01*
X432562Y5134508D01*
G37*
G36*
X297434Y5134508D02*
G01*
X293420Y5130495D01*
X293420Y5084470D01*
X297434Y5080508D01*
X347522Y5080508D01*
X351485Y5084470D01*
X351485Y5130495D01*
X347522Y5134508D01*
G37*
G36*
X-2307996Y6169964D02*
G01*
X-2312974Y6164986D01*
X-2312974Y6119977D01*
X-2307996Y6114999D01*
X-2255012Y6114999D01*
X-2249982Y6119977D01*
X-2249982Y6164986D01*
X-2255012Y6169964D01*
G37*
G36*
X-2204974Y6169964D02*
G01*
X-2210003Y6164986D01*
X-2210003Y6119977D01*
X-2204974Y6114999D01*
X-2151989Y6114999D01*
X-2147011Y6119977D01*
X-2147011Y6164986D01*
X-2151989Y6169964D01*
G37*
G36*
X-1554988Y-1162507D02*
G01*
X-1560017Y-1167485D01*
X-1560017Y-1220520D01*
X-1554988Y-1225499D01*
X-1509979Y-1225499D01*
X-1505000Y-1220520D01*
X-1505000Y-1167485D01*
X-1509979Y-1162507D01*
G37*
G36*
X-1554988Y-1059484D02*
G01*
X-1560017Y-1064514D01*
X-1560017Y-1117498D01*
X-1554988Y-1122476D01*
X-1509979Y-1122476D01*
X-1505000Y-1117498D01*
X-1505000Y-1064514D01*
X-1509979Y-1059484D01*
G37*
G36*
X-1157986Y-1047496D02*
G01*
X-1163015Y-1052474D01*
X-1163015Y-1097483D01*
X-1157986Y-1102512D01*
X-1109980Y-1102512D01*
X-1103020Y-1097483D01*
X-1103020Y-1052474D01*
X-1109980Y-1047496D01*
G37*
G36*
X-1059992Y-1047496D02*
G01*
X-1067003Y-1052474D01*
X-1067003Y-1097483D01*
X-1059992Y-1102512D01*
X-1011986Y-1102512D01*
X-1007008Y-1097483D01*
X-1007008Y-1052474D01*
X-1011986Y-1047496D01*
G37*
G36*
X-2119985Y3994505D02*
G01*
X-2125014Y3987495D01*
X-2125014Y3939489D01*
X-2119985Y3934510D01*
X-2074976Y3934510D01*
X-2069998Y3939489D01*
X-2069998Y3987495D01*
X-2074976Y3994505D01*
G37*
G36*
X-2119985Y4090466D02*
G01*
X-2125014Y4085488D01*
X-2125014Y4037482D01*
X-2119985Y4030472D01*
X-2074976Y4030472D01*
X-2069998Y4037482D01*
X-2069998Y4085488D01*
X-2074976Y4090466D01*
G37*
G36*
X-1737512Y3019501D02*
G01*
X-1741474Y3015488D01*
X-1741474Y2969514D01*
X-1737512Y2965500D01*
X-1687423Y2965500D01*
X-1683410Y2969514D01*
X-1683410Y3015488D01*
X-1687423Y3019501D01*
G37*
G36*
X-1822551Y3019501D02*
G01*
X-1826564Y3015488D01*
X-1826564Y2969514D01*
X-1822551Y2965500D01*
X-1772513Y2965500D01*
X-1768500Y2969514D01*
X-1768500Y3015488D01*
X-1772513Y3019501D01*
G37*
G36*
X-1632559Y3019501D02*
G01*
X-1636572Y3015488D01*
X-1636572Y2969514D01*
X-1632559Y2965500D01*
X-1582521Y2965500D01*
X-1578508Y2969514D01*
X-1578508Y3015488D01*
X-1582521Y3019501D01*
G37*
G36*
X-1547520Y3019501D02*
G01*
X-1551482Y3015488D01*
X-1551482Y2969514D01*
X-1547520Y2965500D01*
X-1497431Y2965500D01*
X-1493418Y2969514D01*
X-1493418Y3015488D01*
X-1497431Y3019501D01*
G37*
G36*
X-2352497Y3564483D02*
G01*
X-2357475Y3557473D01*
X-2357475Y3509467D01*
X-2352497Y3504488D01*
X-2307488Y3504488D01*
X-2302510Y3509467D01*
X-2302510Y3557473D01*
X-2307488Y3564483D01*
G37*
G36*
X-2352497Y3660495D02*
G01*
X-2357475Y3655466D01*
X-2357475Y3607511D01*
X-2352497Y3600500D01*
X-2307488Y3600500D01*
X-2302510Y3607511D01*
X-2302510Y3655466D01*
X-2307488Y3660495D01*
G37*
G36*
X-1999996Y3994505D02*
G01*
X-2004974Y3987495D01*
X-2004974Y3939489D01*
X-1999996Y3934510D01*
X-1954987Y3934510D01*
X-1950008Y3939489D01*
X-1950008Y3987495D01*
X-1954987Y3994505D01*
G37*
G36*
X-1999996Y4090466D02*
G01*
X-2004974Y4085488D01*
X-2004974Y4037482D01*
X-1999996Y4030472D01*
X-1954987Y4030472D01*
X-1950008Y4037482D01*
X-1950008Y4085488D01*
X-1954987Y4090466D01*
G37*
G36*
X-2446324Y4083253D02*
G01*
X-2456332Y4073245D01*
X-2456332Y4004513D01*
X-2409545Y3966006D01*
X-2365451Y3966006D01*
X-2318664Y4004513D01*
X-2318664Y4073245D01*
X-2328672Y4083253D01*
G37*
G36*
X-2409545Y3893972D02*
G01*
X-2456332Y3855465D01*
X-2456332Y3786733D01*
X-2446324Y3776726D01*
X-2328672Y3776726D01*
X-2318664Y3786733D01*
X-2318664Y3855465D01*
X-2365451Y3893972D01*
G37*
D10*
G01*
X-2712499Y-1752488D03*
D11*
G01*
X-2709984Y-2674990D03*
D12*
G01*
X449999Y6504985D03*
G01*
X449999Y5504987D03*
D13*
G01*
X-2309983Y5472239D03*
G01*
X-2269982Y5472239D03*
G01*
X-2229982Y5472239D03*
G01*
X-2189982Y5472239D03*
G01*
X-2149981Y5472239D03*
D14*
G01*
X-2149990Y5657733D03*
G01*
X-2189970Y5657733D03*
G01*
X-2229975Y5657733D03*
G01*
X-2269980Y5657733D03*
G01*
X-2309985Y5657733D03*
D15*
G01*
X-2229982Y5564990D03*
D16*
G01*
X167505Y5069977D03*
D17*
G01*
X-76995Y4679833D03*
D18*
G01*
X-324416Y4859842D03*
G01*
X-324416Y4819837D03*
G01*
X-324416Y4779832D03*
G01*
X-324416Y4739827D03*
G01*
X-324416Y4699848D03*
G01*
X-324416Y4659843D03*
G01*
X-324416Y4619838D03*
G01*
X-324416Y4579833D03*
G01*
X-324416Y4539828D03*
G01*
X-324416Y4499848D03*
D19*
G01*
X-257004Y4432411D03*
G01*
X-216999Y4432411D03*
G01*
X-176994Y4432411D03*
G01*
X-136989Y4432411D03*
G01*
X-97010Y4432411D03*
G01*
X-57005Y4432411D03*
G01*
X-17000Y4432411D03*
G01*
X23004Y4432411D03*
G01*
X63009Y4432411D03*
G01*
X102989Y4432411D03*
D18*
G01*
X170426Y4499848D03*
G01*
X170426Y4539828D03*
G01*
X170426Y4579833D03*
G01*
X170426Y4619838D03*
G01*
X170426Y4659843D03*
G01*
X170426Y4699848D03*
G01*
X170426Y4739827D03*
G01*
X170426Y4779832D03*
G01*
X170426Y4819837D03*
G01*
X170426Y4859842D03*
D19*
G01*
X102989Y4927279D03*
G01*
X63009Y4927279D03*
G01*
X23004Y4927279D03*
G01*
X-17000Y4927279D03*
G01*
X-57005Y4927279D03*
G01*
X-97010Y4927279D03*
G01*
X-136989Y4927279D03*
G01*
X-176994Y4927279D03*
G01*
X-216999Y4927279D03*
G01*
X-257004Y4927279D03*
D20*
G01*
X-257487Y5029997D03*
G01*
X-257487Y5119989D03*
D21*
G01*
X662500Y4514987D03*
G01*
X662500Y4714986D03*
D22*
G01*
X-456491Y4889980D03*
G01*
X-758492Y4749980D03*
G01*
X-456491Y4749980D03*
G01*
X-758492Y4889980D03*
D23*
G01*
X726965Y4072417D03*
G01*
X726965Y3972417D03*
G01*
X726965Y3872417D03*
G01*
X726940Y3772418D03*
G01*
X726940Y3672418D03*
G01*
X726940Y3572418D03*
G01*
X726940Y3472418D03*
G01*
X726940Y3372418D03*
G01*
X726914Y3272419D03*
G01*
X726914Y3172419D03*
G01*
X726914Y3072419D03*
G01*
X726914Y2972419D03*
G01*
X726914Y2872419D03*
G01*
X726889Y2772420D03*
G01*
X726889Y2672420D03*
G01*
X726889Y2572420D03*
G01*
X726991Y2472395D03*
G01*
X726965Y2372395D03*
G01*
X726965Y2272395D03*
G01*
X726864Y2172421D03*
G01*
X726864Y2072421D03*
G01*
X726864Y1972421D03*
G01*
X726864Y1872421D03*
G01*
X726838Y1772422D03*
G01*
X726838Y1672422D03*
G01*
X726838Y1572422D03*
G01*
X726838Y1472422D03*
G01*
X726838Y1372422D03*
G01*
X726813Y1272423D03*
D24*
G01*
X-1192486Y1092413D03*
G01*
X-1092487Y1092413D03*
G01*
X-992487Y1092413D03*
G01*
X-892487Y1092413D03*
G01*
X-792462Y1092413D03*
G01*
X-692462Y1092413D03*
G01*
X-592462Y1092413D03*
G01*
X-492462Y1092413D03*
G01*
X-392463Y1092413D03*
G01*
X-292437Y1092413D03*
G01*
X-192438Y1092413D03*
G01*
X-92438Y1092413D03*
G01*
X7561Y1092413D03*
G01*
X107561Y1092413D03*
G01*
X207586Y1092413D03*
G01*
X307586Y1092413D03*
G01*
X407586Y1092413D03*
G01*
X507585Y1092413D03*
G01*
X607585Y1092413D03*
D23*
G01*
X-1313187Y1272423D03*
G01*
X-1313187Y1372422D03*
G01*
X-1313162Y1472422D03*
G01*
X-1313162Y1572422D03*
G01*
X-1313035Y1672396D03*
G01*
X-1313035Y1772396D03*
G01*
X-1313162Y1872421D03*
G01*
X-1313136Y1972421D03*
G01*
X-1313136Y2072421D03*
G01*
X-1313136Y2172421D03*
G01*
X-1313136Y2272421D03*
G01*
X-1313136Y2372420D03*
G01*
X-1313111Y2472420D03*
G01*
X-1313111Y2572420D03*
G01*
X-1313111Y2672420D03*
G01*
X-1313111Y2772420D03*
G01*
X-1313111Y2872419D03*
G01*
X-1313086Y2972419D03*
G01*
X-1313086Y3072419D03*
G01*
X-1313086Y3172419D03*
G01*
X-1313086Y3272419D03*
G01*
X-1313086Y3372418D03*
G01*
X-1313060Y3472418D03*
G01*
X-1313060Y3572418D03*
G01*
X-1313060Y3672418D03*
G01*
X-1313060Y3772418D03*
G01*
X-1313060Y3872417D03*
G01*
X-1313035Y3972417D03*
G01*
X-1313035Y4072417D03*
D24*
G01*
X-1192512Y4252401D03*
G01*
X-1092512Y4252401D03*
G01*
X-992512Y4252401D03*
G01*
X-892487Y4252401D03*
G01*
X-792411Y4252401D03*
G01*
X-692411Y4252401D03*
G01*
X-592411Y4252401D03*
G01*
X-492412Y4252401D03*
G01*
X-392412Y4252401D03*
G01*
X-292412Y4252401D03*
G01*
X-192438Y4252401D03*
G01*
X-92438Y4252401D03*
G01*
X7586Y4252401D03*
G01*
X107561Y4252401D03*
G01*
X207561Y4252401D03*
G01*
X307560Y4252401D03*
G01*
X407560Y4252401D03*
G01*
X507560Y4252401D03*
G01*
X607585Y4252401D03*
D25*
G01*
X506976Y1472397D03*
G01*
X306976Y1872396D03*
G01*
X306976Y1672396D03*
G01*
X306976Y1472397D03*
G01*
X-93022Y1472397D03*
G01*
X-393021Y1472397D03*
G01*
X-893020Y1472397D03*
G01*
X-1093020Y1472397D03*
G01*
X-1093020Y2472395D03*
G01*
X-1093020Y2672394D03*
G01*
X-893020Y2672394D03*
G01*
X-593021Y2472395D03*
G01*
X-393021Y2472395D03*
G01*
X-93022Y2872394D03*
G01*
X306976Y2872394D03*
G01*
X-93022Y3072394D03*
G01*
X306976Y3072394D03*
G01*
X506976Y3072394D03*
G01*
X106977Y3472393D03*
G01*
X306976Y3472393D03*
G01*
X506976Y3472393D03*
G01*
X506976Y3672392D03*
G01*
X106977Y3672392D03*
G01*
X-592411Y3672418D03*
G01*
X-593021Y3072394D03*
G01*
X-1093020Y3072394D03*
G01*
X-1093020Y3272393D03*
G01*
X-1093020Y3472393D03*
G01*
X-1093020Y3672392D03*
G01*
X-1093020Y3872417D03*
D26*
G01*
X-392412Y3872417D03*
D27*
G01*
X-2511331Y4507494D03*
G01*
X-2511331Y4602490D03*
G01*
X-2511331Y4697486D03*
G01*
X-2741150Y4697486D03*
G01*
X-2741150Y4602490D03*
G01*
X-2741150Y4507494D03*
D28*
G01*
X-1997489Y1369984D03*
G01*
X-1997489Y1419997D03*
G01*
X-1997489Y1469984D03*
G01*
X-1997489Y1519996D03*
G01*
X-1997489Y1569984D03*
G01*
X-1997489Y1619996D03*
G01*
X-1997489Y1669983D03*
G01*
X-1997489Y1719996D03*
G01*
X-1997489Y1769983D03*
G01*
X-1997489Y1819996D03*
G01*
X-1997489Y1869983D03*
G01*
X-1997489Y1919996D03*
D29*
G01*
X-2237468Y2019995D03*
G01*
X-2237493Y1269984D03*
D16*
G01*
X-2567490Y1817507D03*
D30*
G01*
X162497Y867745D03*
G01*
X212497Y867745D03*
G01*
X262497Y867745D03*
G01*
X312497Y867745D03*
D31*
G01*
X162497Y782243D03*
G01*
X212497Y782243D03*
G01*
X262497Y782243D03*
G01*
X312497Y782243D03*
D32*
G01*
X-3009983Y3797487D03*
G01*
X-3009983Y3487480D03*
D33*
G01*
X-2040084Y742579D03*
D34*
G01*
X-1850169Y867496D03*
G01*
X-1850169Y817509D03*
G01*
X-1850169Y767496D03*
G01*
X-1850169Y717509D03*
G01*
X-1850169Y667496D03*
G01*
X-1850169Y617509D03*
D35*
G01*
X-1914989Y553298D03*
G01*
X-1965002Y553298D03*
G01*
X-2014989Y553298D03*
G01*
X-2065002Y553298D03*
G01*
X-2114989Y553298D03*
G01*
X-2165002Y553298D03*
D34*
G01*
X-2229822Y617509D03*
G01*
X-2229822Y667496D03*
G01*
X-2229822Y717509D03*
G01*
X-2229822Y767496D03*
G01*
X-2229822Y817509D03*
G01*
X-2229822Y867496D03*
D35*
G01*
X-2165002Y931656D03*
G01*
X-2114989Y931656D03*
G01*
X-2065002Y931656D03*
G01*
X-2014989Y931656D03*
G01*
X-1965002Y931656D03*
G01*
X-1914989Y931707D03*
D36*
G01*
X-2172495Y4472492D03*
G01*
X-2122507Y4472492D03*
G01*
X-2072495Y4472492D03*
G01*
X-2022508Y4472492D03*
G01*
X-1972495Y4472492D03*
G01*
X-1922508Y4472492D03*
G01*
X-1872495Y4472492D03*
G01*
X-1822508Y4472492D03*
G01*
X-1772495Y4472492D03*
G01*
X-1722508Y4472492D03*
G01*
X-1672496Y4472492D03*
G01*
X-1622508Y4472492D03*
G01*
X-1572496Y4472492D03*
G01*
X-1522509Y4472492D03*
G01*
X-1472496Y4472492D03*
G01*
X-1422509Y4472492D03*
G01*
X-1372496Y4472492D03*
G01*
X-1322509Y4472492D03*
G01*
X-1272496Y4472492D03*
G01*
X-1222509Y4472492D03*
G01*
X-1172497Y4472492D03*
G01*
X-1122509Y4472492D03*
G01*
X-1072497Y4472492D03*
G01*
X-1022510Y4472492D03*
D37*
G01*
X-922484Y4722505D03*
G01*
X-2272494Y4722505D03*
D38*
G01*
X715002Y4942494D03*
G01*
X844999Y4892481D03*
G01*
X844999Y4992481D03*
D39*
G01*
X537507Y762492D03*
G01*
X587494Y892489D03*
G01*
X487494Y892489D03*
D40*
G01*
X-2224996Y2209987D03*
G01*
X-1959998Y2209987D03*
G01*
X-2224996Y2135007D03*
G01*
X-1959998Y2135007D03*
D41*
G01*
X-995001Y-1232499D03*
G01*
X-1124999Y-1232499D03*
D42*
G01*
X-1370007Y-1477507D03*
G01*
X-1370007Y-1607505D03*
D41*
G01*
X-1124999Y-1852488D03*
G01*
X-995001Y-1852488D03*
D43*
G01*
X-750001Y-1737497D03*
D42*
G01*
X-749993Y-1607505D03*
G01*
X-749993Y-1477507D03*
D44*
G01*
X-750001Y-1347497D03*
D45*
G01*
X-1009997Y-1492496D03*
D46*
G01*
X-1109987Y-1492493D03*
G01*
X-1109987Y-1592493D03*
G01*
X-1009987Y-1592493D03*
D47*
G01*
X-864995Y-1232496D03*
D48*
G01*
X-1254994Y-1232500D03*
D49*
G01*
X-1255012Y-1852560D03*
D50*
G01*
X-1370004Y-1347494D03*
D51*
G01*
X-865003Y-1852499D03*
D52*
G01*
X-1370011Y-1737488D03*
D53*
G01*
X-1292486Y803005D03*
G01*
X-1292486Y676005D03*
G01*
X-1292486Y549005D03*
G01*
X-1292486Y422005D03*
G01*
X-532493Y422005D03*
G01*
X-532493Y549005D03*
G01*
X-532493Y676005D03*
G01*
X-532493Y803005D03*
D54*
G01*
X-912477Y612505D03*
D55*
G01*
X-2979986Y4642495D03*
D56*
G01*
X-3019991Y4742494D03*
G01*
X-3019991Y4462485D03*
D55*
G01*
X-2979986Y4562485D03*
D57*
G01*
X-354998Y-1055004D03*
G01*
X-54998Y-1055004D03*
D58*
G01*
X126001Y-1595008D03*
G01*
X-174988Y-1595008D03*
G01*
X-476003Y-1595008D03*
D59*
G01*
X-325483Y-1169990D03*
G01*
X-24493Y-1169990D03*
D60*
G01*
X-2606022Y5969975D03*
D61*
G01*
X-3001017Y5969975D03*
G01*
X-3001017Y4904978D03*
D60*
G01*
X-2606022Y4904978D03*
D62*
G01*
X-2543970Y5117500D03*
G01*
X-2543970Y5197485D03*
D63*
G01*
X-2543970Y5262509D03*
G01*
X-2543970Y5312496D03*
G01*
X-2543970Y5362508D03*
G01*
X-2543970Y5412496D03*
G01*
X-2543970Y5462508D03*
G01*
X-2543970Y5512495D03*
G01*
X-2543970Y5562508D03*
G01*
X-2543970Y5612495D03*
D62*
G01*
X-2543970Y5677468D03*
G01*
X-2543970Y5757478D03*
D33*
G01*
X32428Y292414D03*
D35*
G01*
X-92489Y482330D03*
G01*
X-42501Y482330D03*
G01*
X7510Y482330D03*
G01*
X57497Y482330D03*
G01*
X107510Y482330D03*
G01*
X157497Y482330D03*
D34*
G01*
X221708Y417509D03*
G01*
X221708Y367497D03*
G01*
X221708Y317510D03*
G01*
X221708Y267497D03*
G01*
X221708Y217510D03*
G01*
X221708Y167497D03*
D35*
G01*
X157497Y102676D03*
G01*
X107510Y102676D03*
G01*
X57497Y102676D03*
G01*
X7510Y102676D03*
G01*
X-42501Y102676D03*
G01*
X-92489Y102676D03*
D34*
G01*
X-156649Y167497D03*
G01*
X-156649Y217510D03*
G01*
X-156649Y267497D03*
G01*
X-156649Y317510D03*
G01*
X-156649Y367497D03*
G01*
X-156700Y417509D03*
D64*
G01*
X-635007Y-597753D03*
G01*
X-635007Y-832246D03*
D65*
G01*
X-804997Y-164998D03*
G01*
X-804997Y-475000D03*
G01*
X-604997Y-475000D03*
G01*
X-604997Y-164998D03*
D66*
G01*
X-804997Y-249999D03*
G01*
X-804997Y-319999D03*
G01*
X-804997Y-389999D03*
G01*
X-604997Y-389999D03*
G01*
X-604997Y-319999D03*
G01*
X-604997Y-249999D03*
D16*
G01*
X-2567490Y1472498D03*
G01*
X-2567490Y1644990D03*
D33*
G01*
X-1567568Y74914D03*
D35*
G01*
X-1692485Y264830D03*
G01*
X-1642498Y264830D03*
G01*
X-1592486Y264830D03*
G01*
X-1542498Y264830D03*
G01*
X-1492486Y264830D03*
G01*
X-1442499Y264830D03*
D34*
G01*
X-1378287Y200009D03*
G01*
X-1378287Y149997D03*
G01*
X-1378287Y100009D03*
G01*
X-1378287Y49997D03*
G01*
X-1378287Y10D03*
G01*
X-1378287Y-50002D03*
D35*
G01*
X-1442499Y-114823D03*
G01*
X-1492486Y-114823D03*
G01*
X-1542498Y-114823D03*
G01*
X-1592486Y-114823D03*
G01*
X-1642498Y-114823D03*
G01*
X-1692485Y-114823D03*
D34*
G01*
X-1756646Y-50002D03*
G01*
X-1756646Y10D03*
G01*
X-1756646Y49997D03*
G01*
X-1756646Y100009D03*
G01*
X-1756646Y149997D03*
G01*
X-1756697Y200009D03*
D67*
G01*
X-2687505Y577504D03*
G01*
X-2687505Y427492D03*
G01*
X-2807495Y427492D03*
G01*
X-2807495Y577504D03*
D68*
G01*
X-2509984Y237500D03*
G01*
X-2509984Y287487D03*
G01*
X-2509984Y187487D03*
G01*
X-2509984Y137500D03*
G01*
X-2509984Y87487D03*
G01*
X-2509984Y37500D03*
G01*
X-2509984Y-12512D03*
G01*
X-2509984Y-62499D03*
G01*
X-2509984Y-112511D03*
G01*
X-2010011Y-112588D03*
G01*
X-2010011Y-62600D03*
G01*
X-2010011Y-12588D03*
G01*
X-2010011Y37398D03*
G01*
X-2009985Y87487D03*
G01*
X-2010011Y137398D03*
G01*
X-2010011Y187411D03*
G01*
X-2010011Y237398D03*
G01*
X-2010011Y287411D03*
D69*
G01*
X-2409985Y-212511D03*
G01*
X-2359997Y-212511D03*
G01*
X-2309985Y-212511D03*
G01*
X-2259998Y-212511D03*
G01*
X-2209985Y-212511D03*
G01*
X-2159998Y-212511D03*
G01*
X-2109985Y-212511D03*
G01*
X-2110011Y387461D03*
G01*
X-2160023Y387461D03*
G01*
X-2210010Y387461D03*
G01*
X-2259998Y387461D03*
G01*
X-2310010Y387461D03*
G01*
X-2360023Y387461D03*
G01*
X-2410010Y387461D03*
D29*
G01*
X-1635005Y-674994D03*
D70*
G01*
X-1710011Y-582234D03*
G01*
X-1659999Y-582234D03*
G01*
X-1610012Y-582234D03*
G01*
X-1559999Y-582234D03*
G01*
X-1559999Y-767755D03*
G01*
X-1610012Y-767755D03*
G01*
X-1659999Y-767755D03*
G01*
X-1710011Y-767755D03*
D29*
G01*
X-1212502Y-674994D03*
D70*
G01*
X-1287508Y-582234D03*
G01*
X-1237495Y-582234D03*
G01*
X-1187508Y-582234D03*
G01*
X-1137495Y-582234D03*
G01*
X-1137495Y-767755D03*
G01*
X-1187508Y-767755D03*
G01*
X-1237495Y-767755D03*
G01*
X-1287508Y-767755D03*
D71*
G01*
X-635998Y-1059982D03*
G01*
X-635998Y-959982D03*
G01*
X-843998Y-959982D03*
G01*
X-843998Y-1059982D03*
D72*
G01*
X-740011Y-1010010D03*
D64*
G01*
X-412503Y-122748D03*
G01*
X-412503Y-357240D03*
D73*
G01*
X-2144986Y5934974D03*
G01*
X-2144986Y5975004D03*
G01*
X-2144986Y6015009D03*
D74*
G01*
X-2210010Y6039977D03*
G01*
X-2250015Y6039977D03*
D73*
G01*
X-2314989Y6015009D03*
G01*
X-2314989Y5975004D03*
G01*
X-2314989Y5934974D03*
D74*
G01*
X-2249990Y5909980D03*
G01*
X-2210061Y5909980D03*
D75*
G01*
X-2177422Y3202467D03*
G01*
X-2177422Y3252480D03*
G01*
X-2177422Y3302492D03*
G01*
X-2177422Y3352505D03*
G01*
X-2177422Y3402492D03*
G01*
X-2177422Y3452505D03*
G01*
X-2177422Y3502517D03*
G01*
X-2177422Y3552504D03*
G01*
X-2177422Y3602517D03*
G01*
X-2177422Y3652504D03*
G01*
X-2177422Y3702517D03*
D76*
G01*
X-2102518Y3777396D03*
G01*
X-2052505Y3777396D03*
G01*
X-2002518Y3777396D03*
G01*
X-1952505Y3777396D03*
G01*
X-1902493Y3777396D03*
G01*
X-1852505Y3777396D03*
G01*
X-1802493Y3777396D03*
G01*
X-1752506Y3777396D03*
G01*
X-1702493Y3777396D03*
G01*
X-1652506Y3777396D03*
G01*
X-1602493Y3777396D03*
D75*
G01*
X-1527589Y3702517D03*
G01*
X-1527589Y3652504D03*
G01*
X-1527589Y3602517D03*
G01*
X-1527589Y3552504D03*
G01*
X-1527589Y3502517D03*
G01*
X-1527589Y3452505D03*
G01*
X-1527589Y3402492D03*
G01*
X-1527589Y3352505D03*
G01*
X-1527589Y3302492D03*
G01*
X-1527589Y3252480D03*
G01*
X-1527589Y3202467D03*
D76*
G01*
X-1602493Y3127562D03*
G01*
X-1652506Y3127562D03*
G01*
X-1702493Y3127562D03*
G01*
X-1752506Y3127562D03*
G01*
X-1802493Y3127562D03*
G01*
X-1852505Y3127562D03*
G01*
X-1902493Y3127562D03*
G01*
X-1952505Y3127562D03*
G01*
X-2002518Y3127562D03*
G01*
X-2052505Y3127562D03*
G01*
X-2102518Y3127562D03*
D77*
G01*
X-284233Y-644997D03*
G01*
X-284233Y-785002D03*
G01*
X-456725Y-644997D03*
G01*
X-456725Y-785002D03*
D78*
G01*
X122499Y-719998D03*
G01*
X-57500Y-719998D03*
D79*
G01*
X157775Y-98924D03*
G01*
X107776Y-98924D03*
G01*
X57776Y-98924D03*
G01*
X7776Y-98924D03*
G01*
X-42223Y-98924D03*
G01*
X-92223Y-98924D03*
D80*
G01*
X-157974Y-164674D03*
G01*
X-157974Y-214674D03*
G01*
X-157974Y-264674D03*
G01*
X-157974Y-314674D03*
G01*
X-157974Y-364674D03*
G01*
X-157974Y-414674D03*
D81*
G01*
X-92235Y-480430D03*
G01*
X-42222Y-480430D03*
G01*
X7764Y-480430D03*
G01*
X57777Y-480430D03*
G01*
X107764Y-480430D03*
G01*
X157777Y-480430D03*
D80*
G01*
X223526Y-414674D03*
G01*
X223526Y-364674D03*
G01*
X223526Y-314674D03*
G01*
X223526Y-264674D03*
G01*
X223526Y-214674D03*
G01*
X223526Y-164674D03*
D82*
G01*
X32783Y-289676D03*
D83*
G01*
X547750Y-1062498D03*
G01*
X547750Y-1012498D03*
G01*
X547750Y-962498D03*
G01*
X547750Y-912498D03*
G01*
X362249Y-912498D03*
G01*
X362249Y-962498D03*
G01*
X362249Y-1012498D03*
G01*
X362249Y-1062498D03*
D84*
G01*
X455000Y-987498D03*
D85*
G01*
X-139225Y5932484D03*
D86*
G01*
X-466885Y5902004D03*
D85*
G01*
X-799218Y5567486D03*
D86*
G01*
X-471558Y5597966D03*
D16*
G01*
X405350Y-2543139D03*
G01*
X231411Y-2717078D03*
G01*
X111193Y-2596860D03*
G01*
X285158Y-2422921D03*
D31*
G01*
X-1702494Y3944744D03*
G01*
X-1752494Y3944744D03*
G01*
X-1802494Y3944744D03*
G01*
X-1852494Y3944744D03*
D30*
G01*
X-1702494Y4030245D03*
G01*
X-1752494Y4030245D03*
G01*
X-1802494Y4030245D03*
G01*
X-1852494Y4030245D03*
G01*
X-1265000Y237746D03*
G01*
X-1215000Y237746D03*
G01*
X-1165000Y237746D03*
G01*
X-1115000Y237746D03*
D31*
G01*
X-1265000Y152245D03*
G01*
X-1215000Y152245D03*
G01*
X-1165000Y152245D03*
G01*
X-1115000Y152245D03*
M02*
