G04 Layer: TopSilkscreenLayer*
G04 EasyEDA v6.5.21, 2022-10-22 15:56:40*
G04 9ab0f769691e454ba0e7696980ab9178,294cf934c43b457281b0b0dcd80bbfec,10*
G04 Gerber Generator version 0.2*
G04 Scale: 100 percent, Rotated: No, Reflected: No *
G04 Dimensions in millimeters *
G04 leading zeros omitted , absolute positions ,4 integer and 5 decimal *
%FSLAX45Y45*%
%MOMM*%

%ADD10C,0.2540*%
%ADD11C,0.1524*%
%ADD12C,0.2000*%
%ADD13C,0.1270*%
%ADD14C,0.1500*%
%ADD15C,0.1900*%
%ADD16C,0.1520*%
%ADD17C,0.1000*%
%ADD18C,0.1016*%
%ADD19C,0.1778*%
%ADD20C,0.2500*%
%ADD21C,0.3000*%
%ADD22C,0.2400*%
%ADD23C,0.2500*%
%ADD24C,0.1750*%
%ADD25C,0.0117*%

%LPD*%
G36*
X-2598826Y6560413D02*
G01*
X-2623312Y6547967D01*
X-2624632Y6546748D01*
X-2624988Y6546037D01*
X-2625090Y6528917D01*
X-2624836Y6527952D01*
X-2623769Y6527698D01*
X-2598775Y6540804D01*
X-2598013Y6541922D01*
X-2597912Y6559143D01*
X-2598115Y6560108D01*
G37*
G36*
X-2890520Y6555079D02*
G01*
X-2891434Y6554978D01*
X-2892044Y6554571D01*
X-2892450Y6553962D01*
X-2892450Y6431026D01*
X-2892044Y6430365D01*
X-2891434Y6430010D01*
X-2890520Y6429857D01*
X-2871724Y6429857D01*
X-2870962Y6430010D01*
X-2870403Y6430365D01*
X-2870047Y6431026D01*
X-2869946Y6532473D01*
X-2857500Y6532473D01*
X-2857398Y6431026D01*
X-2856992Y6430365D01*
X-2856382Y6430010D01*
X-2855468Y6429857D01*
X-2837180Y6429857D01*
X-2836164Y6430010D01*
X-2835452Y6430365D01*
X-2835046Y6431026D01*
X-2834894Y6431889D01*
X-2834894Y6542633D01*
X-2835148Y6545173D01*
X-2835808Y6547510D01*
X-2836926Y6549644D01*
X-2838450Y6551523D01*
X-2840329Y6553098D01*
X-2842463Y6554216D01*
X-2844800Y6554876D01*
X-2847340Y6555079D01*
X-2860903Y6555028D01*
X-2863342Y6554673D01*
X-2866440Y6553758D01*
X-2868980Y6552387D01*
X-2869946Y6551523D01*
X-2870047Y6553962D01*
X-2870403Y6554571D01*
X-2870962Y6554978D01*
G37*
G36*
X-2692146Y6555079D02*
G01*
X-2692908Y6554978D01*
X-2693466Y6554571D01*
X-2693822Y6553962D01*
X-2693822Y6431026D01*
X-2693466Y6430365D01*
X-2692908Y6430010D01*
X-2692146Y6429857D01*
X-2673350Y6429857D01*
X-2672486Y6430010D01*
X-2671826Y6430365D01*
X-2671470Y6431026D01*
X-2671318Y6431889D01*
X-2671318Y6465417D01*
X-2667762Y6473545D01*
X-2655062Y6431889D01*
X-2653995Y6430365D01*
X-2652268Y6429857D01*
X-2631084Y6429959D01*
X-2630424Y6430264D01*
X-2630068Y6430721D01*
X-2629916Y6431889D01*
X-2653538Y6503517D01*
X-2630220Y6553758D01*
X-2630271Y6554673D01*
X-2631186Y6555028D01*
X-2652674Y6554978D01*
X-2653690Y6554571D01*
X-2654452Y6553962D01*
X-2655062Y6553047D01*
X-2671318Y6518249D01*
X-2671318Y6553047D01*
X-2671470Y6553962D01*
X-2671826Y6554571D01*
X-2672486Y6554978D01*
G37*
G36*
X-2375154Y6555079D02*
G01*
X-2377592Y6554876D01*
X-2379878Y6554216D01*
X-2381910Y6553098D01*
X-2383790Y6551523D01*
X-2385364Y6549644D01*
X-2386482Y6547510D01*
X-2387142Y6545173D01*
X-2387346Y6542633D01*
X-2387244Y6519011D01*
X-2386838Y6517894D01*
X-2386228Y6517233D01*
X-2384907Y6517030D01*
X-2383891Y6517284D01*
X-2367788Y6525361D01*
X-2366467Y6526276D01*
X-2365502Y6527393D01*
X-2364943Y6528816D01*
X-2364740Y6532473D01*
X-2352548Y6532473D01*
X-2352548Y6508089D01*
X-2380589Y6493459D01*
X-2384044Y6491071D01*
X-2385314Y6489801D01*
X-2386228Y6488277D01*
X-2386838Y6486448D01*
X-2387244Y6484315D01*
X-2387244Y6431026D01*
X-2386888Y6430365D01*
X-2386330Y6430010D01*
X-2385568Y6429857D01*
X-2331974Y6429857D01*
X-2331110Y6430010D01*
X-2330450Y6430365D01*
X-2330094Y6431026D01*
X-2329942Y6431889D01*
X-2329942Y6446367D01*
X-2330094Y6447180D01*
X-2330450Y6447790D01*
X-2331110Y6448196D01*
X-2331974Y6448399D01*
X-2364740Y6448399D01*
X-2364740Y6481165D01*
X-2334768Y6496659D01*
X-2332685Y6498183D01*
X-2331161Y6499910D01*
X-2330246Y6501841D01*
X-2329942Y6504025D01*
X-2329942Y6542633D01*
X-2330196Y6545173D01*
X-2330856Y6547510D01*
X-2331974Y6549644D01*
X-2333498Y6551523D01*
X-2335377Y6553098D01*
X-2337460Y6554216D01*
X-2339695Y6554876D01*
X-2342134Y6555079D01*
G37*
G36*
X-2269998Y6555079D02*
G01*
X-2272436Y6554876D01*
X-2274722Y6554216D01*
X-2276754Y6553098D01*
X-2278634Y6551523D01*
X-2280208Y6549644D01*
X-2281326Y6547510D01*
X-2281986Y6545173D01*
X-2282190Y6542633D01*
X-2282190Y6442303D01*
X-2281986Y6439865D01*
X-2281326Y6437630D01*
X-2280208Y6435547D01*
X-2278634Y6433667D01*
X-2276754Y6431991D01*
X-2274722Y6430822D01*
X-2272436Y6430111D01*
X-2269998Y6429857D01*
X-2236978Y6429857D01*
X-2234539Y6430111D01*
X-2232304Y6430822D01*
X-2230221Y6431991D01*
X-2228342Y6433667D01*
X-2226818Y6435547D01*
X-2225700Y6437630D01*
X-2225040Y6439865D01*
X-2224786Y6442303D01*
X-2224887Y6520789D01*
X-2225090Y6521500D01*
X-2225497Y6521907D01*
X-2226310Y6522059D01*
X-2246122Y6511798D01*
X-2246833Y6510934D01*
X-2247239Y6509867D01*
X-2247392Y6508597D01*
X-2247392Y6452717D01*
X-2259584Y6452717D01*
X-2259584Y6532981D01*
X-2247392Y6532981D01*
X-2247341Y6521957D01*
X-2247087Y6521297D01*
X-2246122Y6520789D01*
X-2244598Y6521297D01*
X-2226818Y6530441D01*
X-2225954Y6531102D01*
X-2225294Y6531965D01*
X-2224786Y6534505D01*
X-2224786Y6542633D01*
X-2225040Y6545173D01*
X-2225700Y6547510D01*
X-2226818Y6549644D01*
X-2228342Y6551523D01*
X-2230221Y6553098D01*
X-2232304Y6554216D01*
X-2234539Y6554876D01*
X-2236978Y6555079D01*
G37*
G36*
X-2723032Y6552031D02*
G01*
X-2724048Y6551777D01*
X-2741168Y6542887D01*
X-2742285Y6542125D01*
X-2743098Y6541109D01*
X-2743555Y6539839D01*
X-2743708Y6538315D01*
X-2743708Y6505803D01*
X-2757932Y6498437D01*
X-2759100Y6497167D01*
X-2759456Y6495389D01*
X-2759405Y6478473D01*
X-2759049Y6477711D01*
X-2758694Y6477609D01*
X-2743708Y6485229D01*
X-2743708Y6442303D01*
X-2743504Y6439865D01*
X-2742844Y6437630D01*
X-2741726Y6435547D01*
X-2740152Y6433667D01*
X-2738272Y6431991D01*
X-2736138Y6430822D01*
X-2733802Y6430111D01*
X-2731262Y6429857D01*
X-2704084Y6429857D01*
X-2703220Y6430010D01*
X-2702560Y6430365D01*
X-2702204Y6431026D01*
X-2702052Y6431889D01*
X-2702052Y6446367D01*
X-2702204Y6447180D01*
X-2702560Y6447790D01*
X-2703220Y6448196D01*
X-2704084Y6448399D01*
X-2721102Y6448399D01*
X-2721102Y6496659D01*
X-2702915Y6506260D01*
X-2702153Y6507683D01*
X-2702052Y6525107D01*
X-2702306Y6526072D01*
X-2703220Y6526326D01*
X-2721102Y6517233D01*
X-2721203Y6550609D01*
X-2721508Y6551422D01*
X-2721965Y6551879D01*
G37*
G36*
X-2601976Y6526631D02*
G01*
X-2602992Y6526377D01*
X-2621280Y6516827D01*
X-2621991Y6515862D01*
X-2622397Y6514541D01*
X-2622550Y6512915D01*
X-2622448Y6431026D01*
X-2622042Y6430365D01*
X-2621432Y6430010D01*
X-2620518Y6429857D01*
X-2601976Y6429857D01*
X-2601112Y6430010D01*
X-2600452Y6430365D01*
X-2600096Y6431026D01*
X-2599944Y6431889D01*
X-2600045Y6525209D01*
X-2600350Y6526022D01*
X-2600807Y6526479D01*
G37*
G36*
X-2810764Y6526377D02*
G01*
X-2813202Y6526174D01*
X-2815488Y6525514D01*
X-2817520Y6524396D01*
X-2819400Y6522821D01*
X-2820974Y6520942D01*
X-2822092Y6518909D01*
X-2822752Y6516624D01*
X-2822956Y6514185D01*
X-2822956Y6508089D01*
X-2788158Y6508089D01*
X-2788158Y6448399D01*
X-2800350Y6448399D01*
X-2800350Y6508089D01*
X-2822956Y6508089D01*
X-2822956Y6442303D01*
X-2822752Y6439865D01*
X-2822092Y6437630D01*
X-2820974Y6435547D01*
X-2819400Y6433667D01*
X-2817520Y6431991D01*
X-2815488Y6430822D01*
X-2813202Y6430111D01*
X-2810764Y6429857D01*
X-2777744Y6429857D01*
X-2775305Y6430111D01*
X-2773070Y6430822D01*
X-2770987Y6431991D01*
X-2769108Y6433667D01*
X-2767584Y6435547D01*
X-2766466Y6437630D01*
X-2765806Y6439865D01*
X-2765552Y6442303D01*
X-2765552Y6514185D01*
X-2765806Y6516624D01*
X-2766466Y6518909D01*
X-2767584Y6520942D01*
X-2769108Y6522821D01*
X-2770987Y6524396D01*
X-2773070Y6525514D01*
X-2775305Y6526174D01*
X-2777744Y6526377D01*
G37*
G36*
X-2575560Y6526377D02*
G01*
X-2577998Y6526174D01*
X-2580284Y6525514D01*
X-2582316Y6524396D01*
X-2584196Y6522821D01*
X-2585872Y6520942D01*
X-2587040Y6518909D01*
X-2587752Y6516624D01*
X-2588006Y6514185D01*
X-2588006Y6499453D01*
X-2587853Y6497574D01*
X-2587294Y6496202D01*
X-2586431Y6495389D01*
X-2584704Y6495186D01*
X-2583535Y6495592D01*
X-2568448Y6503009D01*
X-2567025Y6503924D01*
X-2565958Y6505041D01*
X-2565349Y6506464D01*
X-2565146Y6508089D01*
X-2552954Y6508089D01*
X-2552954Y6495643D01*
X-2586228Y6478625D01*
X-2587548Y6477355D01*
X-2587904Y6476542D01*
X-2588006Y6448399D01*
X-2565146Y6448399D01*
X-2565146Y6468973D01*
X-2552954Y6475069D01*
X-2552954Y6448399D01*
X-2588006Y6448399D01*
X-2588006Y6442303D01*
X-2587752Y6439865D01*
X-2587040Y6437630D01*
X-2585872Y6435547D01*
X-2584196Y6433667D01*
X-2582316Y6431991D01*
X-2580284Y6430822D01*
X-2577998Y6430111D01*
X-2575560Y6429857D01*
X-2562148Y6429908D01*
X-2559608Y6430416D01*
X-2556510Y6431432D01*
X-2553970Y6432854D01*
X-2552954Y6433667D01*
X-2552852Y6431026D01*
X-2552446Y6430365D01*
X-2551836Y6430010D01*
X-2550922Y6429857D01*
X-2532634Y6429857D01*
X-2531618Y6430010D01*
X-2530906Y6430365D01*
X-2530500Y6431026D01*
X-2530348Y6431889D01*
X-2530348Y6514185D01*
X-2530602Y6516624D01*
X-2531262Y6518909D01*
X-2532380Y6520942D01*
X-2533904Y6522821D01*
X-2535783Y6524396D01*
X-2537866Y6525514D01*
X-2540101Y6526174D01*
X-2542540Y6526377D01*
G37*
G36*
X-2457196Y6526377D02*
G01*
X-2457958Y6526276D01*
X-2458516Y6525869D01*
X-2458872Y6525259D01*
X-2458974Y6524345D01*
X-2436571Y6431026D01*
X-2436063Y6430365D01*
X-2434590Y6429857D01*
X-2415540Y6429857D01*
X-2414066Y6430365D01*
X-2413254Y6431889D01*
X-2391156Y6524853D01*
X-2391257Y6525514D01*
X-2391613Y6526022D01*
X-2392934Y6526377D01*
X-2412644Y6526276D01*
X-2413406Y6525869D01*
X-2413914Y6525259D01*
X-2414270Y6524345D01*
X-2425192Y6478879D01*
X-2435860Y6524345D01*
X-2436672Y6525869D01*
X-2437333Y6526276D01*
G37*
G36*
X-2315972Y6452717D02*
G01*
X-2316886Y6452616D01*
X-2317496Y6452209D01*
X-2317902Y6451600D01*
X-2317902Y6431026D01*
X-2317496Y6430365D01*
X-2316886Y6430010D01*
X-2315972Y6429857D01*
X-2297430Y6429857D01*
X-2296566Y6430010D01*
X-2295906Y6430365D01*
X-2295550Y6431026D01*
X-2295398Y6431889D01*
X-2295398Y6450685D01*
X-2295550Y6451600D01*
X-2295906Y6452209D01*
X-2296566Y6452616D01*
G37*
G36*
X-2681732Y6377838D02*
G01*
X-2684170Y6377584D01*
X-2686456Y6376873D01*
X-2688488Y6375654D01*
X-2690368Y6374028D01*
X-2691942Y6372098D01*
X-2693060Y6370015D01*
X-2693720Y6367678D01*
X-2693924Y6365138D01*
X-2693822Y6294018D01*
X-2693568Y6293154D01*
X-2693060Y6292646D01*
X-2691993Y6292494D01*
X-2690977Y6292748D01*
X-2659126Y6308750D01*
X-2659126Y6275222D01*
X-2671318Y6275222D01*
X-2671419Y6292189D01*
X-2672029Y6293358D01*
X-2672892Y6293459D01*
X-2692146Y6283858D01*
X-2692958Y6283096D01*
X-2693517Y6282182D01*
X-2693924Y6279794D01*
X-2693924Y6264808D01*
X-2693720Y6262319D01*
X-2693060Y6260084D01*
X-2691942Y6258001D01*
X-2690368Y6256172D01*
X-2688488Y6254597D01*
X-2686456Y6253480D01*
X-2684170Y6252819D01*
X-2681732Y6252616D01*
X-2648712Y6252616D01*
X-2646273Y6252819D01*
X-2644038Y6253480D01*
X-2641955Y6254597D01*
X-2640076Y6256172D01*
X-2638552Y6258001D01*
X-2637434Y6260084D01*
X-2636774Y6262319D01*
X-2636520Y6264808D01*
X-2636520Y6340500D01*
X-2636672Y6342024D01*
X-2637028Y6343142D01*
X-2637688Y6343802D01*
X-2638856Y6344005D01*
X-2671318Y6327546D01*
X-2671318Y6355486D01*
X-2659126Y6355486D01*
X-2659024Y6344716D01*
X-2658770Y6343904D01*
X-2658262Y6343446D01*
X-2657348Y6343294D01*
X-2639314Y6352438D01*
X-2638094Y6353251D01*
X-2637231Y6354318D01*
X-2636723Y6355537D01*
X-2636520Y6357010D01*
X-2636520Y6365138D01*
X-2636774Y6367678D01*
X-2637434Y6370015D01*
X-2638552Y6372098D01*
X-2640076Y6374028D01*
X-2641955Y6375654D01*
X-2644038Y6376873D01*
X-2646273Y6377584D01*
X-2648712Y6377838D01*
G37*
G36*
X-2403856Y6377838D02*
G01*
X-2406446Y6377584D01*
X-2408783Y6376873D01*
X-2410866Y6375654D01*
X-2412746Y6374028D01*
X-2414320Y6372098D01*
X-2415438Y6370015D01*
X-2416098Y6367678D01*
X-2416302Y6365138D01*
X-2416200Y6253581D01*
X-2415794Y6253022D01*
X-2415184Y6252718D01*
X-2395474Y6252616D01*
X-2394153Y6253022D01*
X-2393696Y6254394D01*
X-2393696Y6355486D01*
X-2381250Y6355486D01*
X-2381148Y6253581D01*
X-2380742Y6253022D01*
X-2380132Y6252718D01*
X-2359964Y6252718D01*
X-2359253Y6253022D01*
X-2358796Y6253581D01*
X-2358644Y6254394D01*
X-2358644Y6355486D01*
X-2346452Y6355486D01*
X-2346350Y6253581D01*
X-2345944Y6253022D01*
X-2345334Y6252718D01*
X-2325878Y6252616D01*
X-2324354Y6253022D01*
X-2323998Y6253581D01*
X-2323846Y6254394D01*
X-2323846Y6365138D01*
X-2324100Y6367678D01*
X-2324760Y6370015D01*
X-2325878Y6372098D01*
X-2327402Y6374028D01*
X-2329281Y6375654D01*
X-2331364Y6376873D01*
X-2333599Y6377584D01*
X-2336038Y6377838D01*
X-2358644Y6377838D01*
X-2362352Y6377330D01*
X-2365451Y6375806D01*
X-2368042Y6373266D01*
X-2370074Y6369710D01*
X-2372106Y6373266D01*
X-2374646Y6375806D01*
X-2377694Y6377330D01*
X-2381250Y6377838D01*
G37*
G36*
X-2221484Y6374790D02*
G01*
X-2240280Y6365646D01*
X-2241296Y6364833D01*
X-2242007Y6363766D01*
X-2242464Y6362446D01*
X-2242464Y6253581D01*
X-2242058Y6253022D01*
X-2241448Y6252718D01*
X-2221992Y6252616D01*
X-2220468Y6253022D01*
X-2220112Y6253581D01*
X-2219960Y6254394D01*
X-2219960Y6284620D01*
X-2200452Y6253429D01*
X-2198928Y6252667D01*
X-2177643Y6252616D01*
X-2176729Y6253022D01*
X-2176576Y6253480D01*
X-2176780Y6254140D01*
X-2205736Y6300622D01*
X-2176576Y6347815D01*
X-2176983Y6348628D01*
X-2178304Y6348882D01*
X-2198928Y6348780D01*
X-2200452Y6348018D01*
X-2219960Y6316878D01*
X-2220061Y6373114D01*
X-2220366Y6373926D01*
X-2220823Y6374485D01*
G37*
G36*
X-2871470Y6374536D02*
G01*
X-2873502Y6374028D01*
X-2891129Y6364681D01*
X-2891942Y6363716D01*
X-2892399Y6362395D01*
X-2892552Y6360820D01*
X-2892552Y6330594D01*
X-2857500Y6330594D01*
X-2857500Y6270904D01*
X-2869946Y6270904D01*
X-2869946Y6330594D01*
X-2892552Y6330594D01*
X-2892450Y6253581D01*
X-2892044Y6253022D01*
X-2891434Y6252718D01*
X-2871724Y6252616D01*
X-2870403Y6253022D01*
X-2869946Y6254394D01*
X-2869946Y6256172D01*
X-2867863Y6254546D01*
X-2865120Y6253378D01*
X-2861056Y6252616D01*
X-2847340Y6252616D01*
X-2844800Y6252819D01*
X-2842463Y6253480D01*
X-2840380Y6254597D01*
X-2838450Y6256172D01*
X-2836926Y6258001D01*
X-2835808Y6260084D01*
X-2835148Y6262319D01*
X-2834894Y6264808D01*
X-2834894Y6336690D01*
X-2835148Y6339128D01*
X-2835808Y6341364D01*
X-2836926Y6343446D01*
X-2838450Y6345326D01*
X-2840380Y6346850D01*
X-2842463Y6347968D01*
X-2844800Y6348628D01*
X-2847340Y6348882D01*
X-2869946Y6348882D01*
X-2870047Y6373063D01*
X-2870352Y6373876D01*
X-2870809Y6374333D01*
G37*
G36*
X-2499360Y6374282D02*
G01*
X-2500680Y6374130D01*
X-2517902Y6365138D01*
X-2518918Y6364427D01*
X-2519629Y6363462D01*
X-2520086Y6362141D01*
X-2520188Y6348882D01*
X-2542794Y6348882D01*
X-2545283Y6348628D01*
X-2547569Y6347968D01*
X-2549702Y6346850D01*
X-2551684Y6345326D01*
X-2553258Y6343446D01*
X-2554376Y6341364D01*
X-2555036Y6339128D01*
X-2555240Y6336690D01*
X-2555240Y6330340D01*
X-2520188Y6330340D01*
X-2520188Y6270904D01*
X-2532634Y6270904D01*
X-2532634Y6330340D01*
X-2555240Y6330340D01*
X-2555240Y6264808D01*
X-2555036Y6262319D01*
X-2554376Y6260084D01*
X-2553258Y6258001D01*
X-2551684Y6256172D01*
X-2549702Y6254597D01*
X-2547569Y6253480D01*
X-2545283Y6252819D01*
X-2542794Y6252616D01*
X-2529382Y6252616D01*
X-2526842Y6253022D01*
X-2523744Y6253886D01*
X-2521204Y6255308D01*
X-2520188Y6256172D01*
X-2520086Y6253581D01*
X-2519680Y6253022D01*
X-2519070Y6252718D01*
X-2499868Y6252616D01*
X-2498344Y6253022D01*
X-2497988Y6253581D01*
X-2497836Y6254394D01*
X-2497937Y6372961D01*
X-2498242Y6373672D01*
X-2498699Y6374130D01*
G37*
G36*
X-2081784Y6349136D02*
G01*
X-2083562Y6348628D01*
X-2101342Y6339078D01*
X-2102053Y6338112D01*
X-2102510Y6336893D01*
X-2102510Y6253581D01*
X-2102205Y6253022D01*
X-2101646Y6252718D01*
X-2082038Y6252616D01*
X-2080514Y6253022D01*
X-2080158Y6253581D01*
X-2080006Y6254394D01*
X-2080006Y6330594D01*
X-2067814Y6330594D01*
X-2067661Y6323584D01*
X-2067204Y6322212D01*
X-2066391Y6321298D01*
X-2064766Y6320942D01*
X-2063496Y6321348D01*
X-2048764Y6328816D01*
X-2047239Y6329832D01*
X-2046122Y6331254D01*
X-2045462Y6333032D01*
X-2045207Y6336690D01*
X-2045462Y6339128D01*
X-2046122Y6341364D01*
X-2047239Y6343446D01*
X-2048764Y6345326D01*
X-2050643Y6346850D01*
X-2052726Y6347968D01*
X-2054961Y6348628D01*
X-2057400Y6348882D01*
X-2071014Y6348780D01*
X-2075180Y6347866D01*
X-2078075Y6346698D01*
X-2080006Y6345326D01*
X-2080158Y6347663D01*
X-2080463Y6348476D01*
X-2081022Y6348933D01*
G37*
G36*
X-2820924Y6348882D02*
G01*
X-2821838Y6348730D01*
X-2822448Y6348374D01*
X-2822854Y6347714D01*
X-2822854Y6258052D01*
X-2822448Y6256832D01*
X-2821838Y6256121D01*
X-2820517Y6255918D01*
X-2819349Y6256324D01*
X-2788158Y6272428D01*
X-2788158Y6240932D01*
X-2800350Y6240932D01*
X-2800350Y6255156D01*
X-2800807Y6257239D01*
X-2801366Y6257747D01*
X-2802534Y6257899D01*
X-2803448Y6257645D01*
X-2820924Y6249060D01*
X-2821838Y6248400D01*
X-2822448Y6247434D01*
X-2822854Y6246215D01*
X-2822956Y6230772D01*
X-2822752Y6228181D01*
X-2822092Y6225844D01*
X-2820974Y6223762D01*
X-2819400Y6221882D01*
X-2817520Y6220307D01*
X-2815488Y6219190D01*
X-2813202Y6218529D01*
X-2810764Y6218326D01*
X-2777744Y6218326D01*
X-2775305Y6218529D01*
X-2773070Y6219190D01*
X-2770987Y6220307D01*
X-2769108Y6221882D01*
X-2767584Y6223762D01*
X-2766466Y6225844D01*
X-2765806Y6228181D01*
X-2765552Y6230772D01*
X-2765552Y6346850D01*
X-2765704Y6347714D01*
X-2766060Y6348374D01*
X-2766720Y6348730D01*
X-2767584Y6348882D01*
X-2786126Y6348882D01*
X-2787040Y6348730D01*
X-2787650Y6348374D01*
X-2788056Y6347714D01*
X-2788158Y6299606D01*
X-2800350Y6293510D01*
X-2800350Y6346850D01*
X-2800502Y6347714D01*
X-2800858Y6348374D01*
X-2801518Y6348730D01*
X-2802382Y6348882D01*
G37*
G36*
X-2622550Y6348882D02*
G01*
X-2623464Y6348730D01*
X-2624074Y6348374D01*
X-2624480Y6347714D01*
X-2624582Y6264808D01*
X-2624378Y6262319D01*
X-2623718Y6260084D01*
X-2622600Y6258001D01*
X-2621026Y6256172D01*
X-2619146Y6254597D01*
X-2617114Y6253480D01*
X-2614828Y6252819D01*
X-2612390Y6252616D01*
X-2598724Y6252616D01*
X-2596184Y6253022D01*
X-2593187Y6253886D01*
X-2590749Y6255308D01*
X-2589784Y6256172D01*
X-2589682Y6253581D01*
X-2589276Y6253022D01*
X-2588666Y6252718D01*
X-2568244Y6252718D01*
X-2567533Y6253022D01*
X-2567076Y6253581D01*
X-2566924Y6254394D01*
X-2566924Y6346850D01*
X-2567076Y6347714D01*
X-2567533Y6348374D01*
X-2568244Y6348730D01*
X-2569210Y6348882D01*
X-2587752Y6348882D01*
X-2588666Y6348730D01*
X-2589276Y6348374D01*
X-2589682Y6347714D01*
X-2589784Y6270904D01*
X-2601976Y6270904D01*
X-2601976Y6346850D01*
X-2602128Y6347714D01*
X-2602484Y6348374D01*
X-2603144Y6348730D01*
X-2604008Y6348882D01*
G37*
G36*
X-2473452Y6348882D02*
G01*
X-2475890Y6348628D01*
X-2478176Y6347968D01*
X-2480208Y6346850D01*
X-2482088Y6345326D01*
X-2483662Y6343446D01*
X-2484780Y6341364D01*
X-2485440Y6339128D01*
X-2485644Y6336690D01*
X-2485644Y6330594D01*
X-2450846Y6330594D01*
X-2450846Y6270904D01*
X-2463038Y6270904D01*
X-2463038Y6330594D01*
X-2485644Y6330594D01*
X-2485644Y6264808D01*
X-2485440Y6262319D01*
X-2484780Y6260084D01*
X-2483662Y6258001D01*
X-2482088Y6256172D01*
X-2480208Y6254597D01*
X-2478176Y6253480D01*
X-2475890Y6252819D01*
X-2473452Y6252616D01*
X-2440432Y6252616D01*
X-2437993Y6252819D01*
X-2435758Y6253480D01*
X-2433675Y6254597D01*
X-2431796Y6256172D01*
X-2430272Y6258001D01*
X-2429154Y6260084D01*
X-2428494Y6262319D01*
X-2428240Y6264808D01*
X-2428240Y6336690D01*
X-2428494Y6339128D01*
X-2429154Y6341364D01*
X-2430272Y6343446D01*
X-2431796Y6345326D01*
X-2433675Y6346850D01*
X-2435758Y6347968D01*
X-2437993Y6348628D01*
X-2440432Y6348882D01*
G37*
G36*
X-2299716Y6348882D02*
G01*
X-2302154Y6348628D01*
X-2304440Y6347968D01*
X-2306472Y6346850D01*
X-2308352Y6345326D01*
X-2310028Y6343446D01*
X-2311247Y6341364D01*
X-2311958Y6339128D01*
X-2312162Y6336690D01*
X-2312162Y6321958D01*
X-2312009Y6320028D01*
X-2311501Y6318707D01*
X-2310587Y6317894D01*
X-2308860Y6317640D01*
X-2292604Y6325514D01*
X-2291181Y6326378D01*
X-2290165Y6327546D01*
X-2289505Y6328918D01*
X-2289302Y6330594D01*
X-2277110Y6330594D01*
X-2277110Y6318148D01*
X-2310384Y6301130D01*
X-2311755Y6299860D01*
X-2312162Y6298082D01*
X-2312162Y6270904D01*
X-2289302Y6270904D01*
X-2289302Y6291478D01*
X-2277110Y6297574D01*
X-2277110Y6270904D01*
X-2312162Y6270904D01*
X-2312162Y6264808D01*
X-2311958Y6262319D01*
X-2311247Y6260084D01*
X-2310028Y6258001D01*
X-2308352Y6256172D01*
X-2306472Y6254597D01*
X-2304440Y6253480D01*
X-2302154Y6252819D01*
X-2299716Y6252616D01*
X-2286304Y6252616D01*
X-2283764Y6253022D01*
X-2280666Y6253886D01*
X-2278126Y6255308D01*
X-2277110Y6256172D01*
X-2277008Y6253581D01*
X-2276602Y6253022D01*
X-2275992Y6252718D01*
X-2255824Y6252718D01*
X-2255113Y6253022D01*
X-2254656Y6253581D01*
X-2254504Y6254394D01*
X-2254504Y6336690D01*
X-2254758Y6339128D01*
X-2255418Y6341364D01*
X-2256536Y6343446D01*
X-2258060Y6345326D01*
X-2259939Y6346850D01*
X-2262022Y6347968D01*
X-2264257Y6348628D01*
X-2266696Y6348882D01*
G37*
G36*
X-2159762Y6348882D02*
G01*
X-2162352Y6348628D01*
X-2164689Y6347968D01*
X-2166772Y6346850D01*
X-2168652Y6345326D01*
X-2170226Y6343446D01*
X-2171344Y6341364D01*
X-2172004Y6339128D01*
X-2172208Y6336690D01*
X-2172208Y6330340D01*
X-2137156Y6330340D01*
X-2137156Y6317894D01*
X-2149602Y6311544D01*
X-2149602Y6330340D01*
X-2172208Y6330340D01*
X-2172208Y6264808D01*
X-2172004Y6262319D01*
X-2171344Y6260084D01*
X-2170226Y6258001D01*
X-2168652Y6256172D01*
X-2166772Y6254597D01*
X-2164689Y6253480D01*
X-2162352Y6252819D01*
X-2159762Y6252616D01*
X-2126996Y6252616D01*
X-2124456Y6252819D01*
X-2122119Y6253480D01*
X-2120036Y6254597D01*
X-2118106Y6256172D01*
X-2116582Y6258001D01*
X-2115464Y6260084D01*
X-2114804Y6262319D01*
X-2114550Y6264808D01*
X-2114550Y6287160D01*
X-2114702Y6288684D01*
X-2115159Y6289802D01*
X-2115870Y6290462D01*
X-2117344Y6290665D01*
X-2118360Y6290411D01*
X-2134362Y6282334D01*
X-2135581Y6281318D01*
X-2136495Y6279794D01*
X-2137003Y6277762D01*
X-2137156Y6275222D01*
X-2149602Y6275222D01*
X-2149602Y6290970D01*
X-2115413Y6308445D01*
X-2114651Y6309817D01*
X-2114550Y6335928D01*
X-2114804Y6338671D01*
X-2115464Y6341160D01*
X-2116582Y6343396D01*
X-2118106Y6345326D01*
X-2120036Y6346850D01*
X-2122119Y6347968D01*
X-2124456Y6348628D01*
X-2126996Y6348882D01*
G37*
G36*
X-2708656Y7566050D02*
G01*
X-2742946Y7556652D01*
X-2742946Y7550048D01*
X-2724150Y7548270D01*
X-2724150Y7495438D01*
X-2731262Y7502398D01*
X-2738526Y7506868D01*
X-2745943Y7509256D01*
X-2753614Y7509916D01*
X-2758694Y7509662D01*
X-2763570Y7508900D01*
X-2768193Y7507630D01*
X-2772613Y7505953D01*
X-2776778Y7503718D01*
X-2780690Y7501128D01*
X-2784348Y7498029D01*
X-2787650Y7494574D01*
X-2790647Y7490663D01*
X-2793339Y7486396D01*
X-2795625Y7481722D01*
X-2797556Y7476693D01*
X-2799080Y7471359D01*
X-2800197Y7465618D01*
X-2800908Y7459624D01*
X-2801095Y7453782D01*
X-2781554Y7453782D01*
X-2781249Y7461402D01*
X-2780385Y7468209D01*
X-2779014Y7474305D01*
X-2777134Y7479690D01*
X-2774797Y7484313D01*
X-2772054Y7488275D01*
X-2769006Y7491577D01*
X-2765602Y7494219D01*
X-2761945Y7496200D01*
X-2758084Y7497622D01*
X-2754020Y7498486D01*
X-2749804Y7498740D01*
X-2744165Y7498181D01*
X-2738221Y7496251D01*
X-2731770Y7492644D01*
X-2724658Y7487056D01*
X-2724658Y7422540D01*
X-2730906Y7416647D01*
X-2737002Y7412786D01*
X-2743250Y7410703D01*
X-2750058Y7410094D01*
X-2754477Y7410348D01*
X-2758643Y7411212D01*
X-2762605Y7412583D01*
X-2766263Y7414615D01*
X-2769616Y7417206D01*
X-2772562Y7420406D01*
X-2775204Y7424267D01*
X-2777388Y7428788D01*
X-2779166Y7433970D01*
X-2780487Y7439863D01*
X-2781300Y7446467D01*
X-2781554Y7453782D01*
X-2801095Y7453782D01*
X-2800756Y7445400D01*
X-2799638Y7437932D01*
X-2797810Y7431024D01*
X-2795320Y7424674D01*
X-2792171Y7418933D01*
X-2788462Y7413802D01*
X-2784144Y7409332D01*
X-2779318Y7405624D01*
X-2774035Y7402626D01*
X-2768244Y7400442D01*
X-2761996Y7399121D01*
X-2755392Y7398664D01*
X-2745841Y7399731D01*
X-2737612Y7402830D01*
X-2730449Y7407757D01*
X-2724150Y7414412D01*
X-2722880Y7399172D01*
X-2688336Y7401458D01*
X-2688336Y7408316D01*
X-2706370Y7410348D01*
X-2706370Y7532776D01*
X-2705862Y7564526D01*
G37*
G36*
X-2519680Y7566050D02*
G01*
X-2553462Y7556652D01*
X-2553462Y7550048D01*
X-2535174Y7548270D01*
X-2535224Y7439558D01*
X-2535682Y7410856D01*
X-2552446Y7408316D01*
X-2552446Y7401458D01*
X-2501138Y7401458D01*
X-2501138Y7408316D01*
X-2516632Y7410856D01*
X-2516886Y7429906D01*
X-2516886Y7481214D01*
X-2508250Y7488224D01*
X-2500274Y7492796D01*
X-2492705Y7495235D01*
X-2485136Y7495946D01*
X-2480716Y7495641D01*
X-2476855Y7494625D01*
X-2473604Y7492796D01*
X-2471013Y7490104D01*
X-2468930Y7486497D01*
X-2467508Y7481824D01*
X-2466644Y7476032D01*
X-2466340Y7469022D01*
X-2466390Y7439456D01*
X-2466848Y7410856D01*
X-2483358Y7408316D01*
X-2483358Y7401458D01*
X-2432304Y7401458D01*
X-2432304Y7408316D01*
X-2447798Y7410856D01*
X-2448052Y7469276D01*
X-2448509Y7479436D01*
X-2449931Y7487970D01*
X-2452217Y7494981D01*
X-2455367Y7500569D01*
X-2459431Y7504785D01*
X-2464358Y7507681D01*
X-2470150Y7509357D01*
X-2476754Y7509916D01*
X-2482189Y7509560D01*
X-2487676Y7508392D01*
X-2493060Y7506614D01*
X-2498344Y7504175D01*
X-2503474Y7501128D01*
X-2508402Y7497622D01*
X-2513025Y7493558D01*
X-2517394Y7489088D01*
X-2517394Y7532776D01*
X-2516886Y7564526D01*
G37*
G36*
X-2211832Y7566050D02*
G01*
X-2246122Y7556652D01*
X-2246122Y7550048D01*
X-2228088Y7548270D01*
X-2228138Y7439050D01*
X-2228342Y7410856D01*
X-2245868Y7408316D01*
X-2245868Y7401458D01*
X-2191766Y7401458D01*
X-2191766Y7408316D01*
X-2209292Y7410856D01*
X-2209800Y7443114D01*
X-2194814Y7458100D01*
X-2160270Y7401458D01*
X-2130044Y7401458D01*
X-2130044Y7408316D01*
X-2144522Y7410348D01*
X-2182114Y7471054D01*
X-2156460Y7496708D01*
X-2135886Y7499502D01*
X-2135886Y7506868D01*
X-2186940Y7506868D01*
X-2186940Y7499502D01*
X-2169414Y7495946D01*
X-2209800Y7454544D01*
X-2209800Y7532776D01*
X-2208784Y7564526D01*
G37*
G36*
X-2391156Y7562748D02*
G01*
X-2396845Y7561783D01*
X-2401468Y7559090D01*
X-2404516Y7554823D01*
X-2405634Y7549286D01*
X-2404516Y7543698D01*
X-2401468Y7539278D01*
X-2396845Y7536383D01*
X-2391156Y7535316D01*
X-2385720Y7536383D01*
X-2381199Y7539278D01*
X-2378100Y7543698D01*
X-2376932Y7549286D01*
X-2378100Y7554823D01*
X-2381199Y7559090D01*
X-2385720Y7561783D01*
G37*
G36*
X-1602994Y7562748D02*
G01*
X-1608683Y7561783D01*
X-1613306Y7559090D01*
X-1616354Y7554823D01*
X-1617472Y7549286D01*
X-1616354Y7543698D01*
X-1613306Y7539278D01*
X-1608683Y7536383D01*
X-1602994Y7535316D01*
X-1597558Y7536383D01*
X-1593037Y7539278D01*
X-1589938Y7543698D01*
X-1588770Y7549286D01*
X-1589938Y7554823D01*
X-1593037Y7559090D01*
X-1597558Y7561783D01*
G37*
G36*
X-680212Y7559446D02*
G01*
X-685546Y7558582D01*
X-689508Y7555839D01*
X-692048Y7551216D01*
X-692912Y7544460D01*
X-692302Y7530795D01*
X-690422Y7509916D01*
X-687070Y7479182D01*
X-684022Y7447686D01*
X-676402Y7447686D01*
X-673608Y7479182D01*
X-670306Y7509916D01*
X-668375Y7530795D01*
X-667766Y7544460D01*
X-668629Y7551216D01*
X-671169Y7555839D01*
X-675081Y7558582D01*
G37*
G36*
X-477012Y7559446D02*
G01*
X-482346Y7558582D01*
X-486308Y7555839D01*
X-488848Y7551216D01*
X-489712Y7544460D01*
X-489102Y7530795D01*
X-487222Y7509916D01*
X-483870Y7479182D01*
X-480822Y7447686D01*
X-473201Y7447686D01*
X-470408Y7479182D01*
X-467106Y7509916D01*
X-465175Y7530795D01*
X-464566Y7544460D01*
X-465429Y7551216D01*
X-467969Y7555839D01*
X-471881Y7558582D01*
G37*
G36*
X-273812Y7559446D02*
G01*
X-279146Y7558582D01*
X-283108Y7555839D01*
X-285648Y7551216D01*
X-286512Y7544460D01*
X-285902Y7530795D01*
X-284022Y7509916D01*
X-280670Y7479182D01*
X-277622Y7447686D01*
X-270002Y7447686D01*
X-267208Y7479182D01*
X-263906Y7509916D01*
X-261975Y7530795D01*
X-261366Y7544460D01*
X-262229Y7551216D01*
X-264769Y7555839D01*
X-268681Y7558582D01*
G37*
G36*
X-1365758Y7553350D02*
G01*
X-1370228Y7553096D01*
X-1374648Y7552385D01*
X-1378966Y7551115D01*
X-1383131Y7549286D01*
X-1387195Y7546898D01*
X-1391056Y7543901D01*
X-1394714Y7540345D01*
X-1398117Y7536129D01*
X-1401216Y7531252D01*
X-1404010Y7525715D01*
X-1406499Y7519466D01*
X-1408582Y7512507D01*
X-1410258Y7504836D01*
X-1411478Y7496403D01*
X-1412240Y7487158D01*
X-1412494Y7477150D01*
X-1392936Y7477150D01*
X-1392682Y7489698D01*
X-1391920Y7500670D01*
X-1390700Y7510170D01*
X-1389075Y7518298D01*
X-1387043Y7525156D01*
X-1384706Y7530795D01*
X-1382064Y7535367D01*
X-1379118Y7538872D01*
X-1376019Y7541463D01*
X-1372717Y7543190D01*
X-1369314Y7544155D01*
X-1365758Y7544460D01*
X-1362354Y7544155D01*
X-1359052Y7543190D01*
X-1355852Y7541463D01*
X-1352804Y7538872D01*
X-1350010Y7535367D01*
X-1347419Y7530795D01*
X-1345133Y7525156D01*
X-1343152Y7518298D01*
X-1341577Y7510170D01*
X-1340358Y7500670D01*
X-1339596Y7489698D01*
X-1339342Y7477150D01*
X-1339596Y7464145D01*
X-1340358Y7452715D01*
X-1341577Y7442860D01*
X-1343152Y7434376D01*
X-1345133Y7427214D01*
X-1347419Y7421321D01*
X-1350010Y7416596D01*
X-1352804Y7412939D01*
X-1355852Y7410196D01*
X-1359052Y7408418D01*
X-1362354Y7407351D01*
X-1365758Y7407046D01*
X-1368399Y7407249D01*
X-1371041Y7407757D01*
X-1373581Y7408773D01*
X-1376019Y7410196D01*
X-1378356Y7412126D01*
X-1380642Y7414564D01*
X-1382725Y7417612D01*
X-1384706Y7421219D01*
X-1386484Y7425537D01*
X-1388110Y7430516D01*
X-1389532Y7436256D01*
X-1390700Y7442758D01*
X-1391666Y7450023D01*
X-1392377Y7458151D01*
X-1392783Y7467193D01*
X-1392936Y7477150D01*
X-1412494Y7477150D01*
X-1412240Y7466787D01*
X-1411478Y7457236D01*
X-1410258Y7448499D01*
X-1408582Y7440574D01*
X-1406499Y7433411D01*
X-1404010Y7426959D01*
X-1401216Y7421270D01*
X-1398117Y7416292D01*
X-1394714Y7411974D01*
X-1391056Y7408316D01*
X-1387195Y7405268D01*
X-1383131Y7402830D01*
X-1378966Y7400950D01*
X-1374648Y7399680D01*
X-1370228Y7398918D01*
X-1365758Y7398664D01*
X-1361389Y7398918D01*
X-1357071Y7399680D01*
X-1352804Y7400950D01*
X-1348638Y7402830D01*
X-1344625Y7405268D01*
X-1340815Y7408316D01*
X-1337157Y7411974D01*
X-1333754Y7416292D01*
X-1330655Y7421270D01*
X-1327861Y7426959D01*
X-1325372Y7433411D01*
X-1323289Y7440574D01*
X-1321562Y7448499D01*
X-1320342Y7457236D01*
X-1319580Y7466787D01*
X-1319276Y7477150D01*
X-1319580Y7487158D01*
X-1320342Y7496403D01*
X-1321562Y7504836D01*
X-1323289Y7512507D01*
X-1325372Y7519466D01*
X-1327861Y7525715D01*
X-1330655Y7531252D01*
X-1333754Y7536129D01*
X-1337157Y7540345D01*
X-1340815Y7543901D01*
X-1344625Y7546898D01*
X-1348638Y7549286D01*
X-1352804Y7551115D01*
X-1357071Y7552385D01*
X-1361389Y7553096D01*
G37*
G36*
X-1186942Y7553350D02*
G01*
X-1192682Y7553045D01*
X-1198168Y7552181D01*
X-1203299Y7550759D01*
X-1208125Y7548829D01*
X-1212545Y7546390D01*
X-1216558Y7543393D01*
X-1220063Y7539990D01*
X-1223010Y7536129D01*
X-1225397Y7531811D01*
X-1227175Y7527086D01*
X-1228242Y7522006D01*
X-1228334Y7520584D01*
X-1211834Y7520584D01*
X-1211326Y7525867D01*
X-1209852Y7530592D01*
X-1207566Y7534706D01*
X-1204518Y7538161D01*
X-1200861Y7540955D01*
X-1196746Y7543038D01*
X-1192225Y7544308D01*
X-1187450Y7544714D01*
X-1182319Y7544155D01*
X-1177798Y7542580D01*
X-1173886Y7540142D01*
X-1170584Y7536942D01*
X-1168044Y7533081D01*
X-1166164Y7528763D01*
X-1164996Y7524038D01*
X-1164590Y7519060D01*
X-1164844Y7513777D01*
X-1165555Y7508900D01*
X-1166825Y7504328D01*
X-1168654Y7500061D01*
X-1171143Y7496048D01*
X-1174242Y7492136D01*
X-1178052Y7488326D01*
X-1182624Y7484516D01*
X-1190599Y7488834D01*
X-1197051Y7493203D01*
X-1202131Y7497622D01*
X-1205992Y7502093D01*
X-1208786Y7506614D01*
X-1210564Y7511186D01*
X-1211529Y7515859D01*
X-1211834Y7520584D01*
X-1228334Y7520584D01*
X-1228598Y7516520D01*
X-1228242Y7510221D01*
X-1227023Y7504175D01*
X-1225042Y7498486D01*
X-1222146Y7493101D01*
X-1218336Y7488021D01*
X-1213612Y7483246D01*
X-1207922Y7478775D01*
X-1201166Y7474610D01*
X-1208684Y7470698D01*
X-1215237Y7466584D01*
X-1220774Y7462164D01*
X-1225296Y7457490D01*
X-1228852Y7452512D01*
X-1231392Y7447127D01*
X-1232916Y7441387D01*
X-1233256Y7437272D01*
X-1215644Y7437272D01*
X-1215339Y7442809D01*
X-1214374Y7447788D01*
X-1212697Y7452359D01*
X-1210411Y7456525D01*
X-1207363Y7460437D01*
X-1203655Y7464094D01*
X-1199235Y7467600D01*
X-1194054Y7471054D01*
X-1185113Y7466584D01*
X-1177696Y7462215D01*
X-1171803Y7457897D01*
X-1167231Y7453579D01*
X-1163929Y7449210D01*
X-1161694Y7444689D01*
X-1160424Y7439964D01*
X-1160018Y7434986D01*
X-1160526Y7428992D01*
X-1161948Y7423556D01*
X-1164285Y7418781D01*
X-1167384Y7414717D01*
X-1171295Y7411466D01*
X-1175867Y7409078D01*
X-1181150Y7407554D01*
X-1186942Y7407046D01*
X-1193139Y7407605D01*
X-1198727Y7409230D01*
X-1203604Y7411872D01*
X-1207770Y7415377D01*
X-1211122Y7419797D01*
X-1213612Y7424928D01*
X-1215136Y7430820D01*
X-1215644Y7437272D01*
X-1233256Y7437272D01*
X-1233424Y7435240D01*
X-1233068Y7429550D01*
X-1231950Y7424318D01*
X-1230122Y7419543D01*
X-1227632Y7415275D01*
X-1224483Y7411415D01*
X-1220774Y7408113D01*
X-1216456Y7405268D01*
X-1211630Y7402880D01*
X-1206347Y7401052D01*
X-1200556Y7399731D01*
X-1194308Y7398918D01*
X-1187704Y7398664D01*
X-1181354Y7399020D01*
X-1175258Y7399985D01*
X-1169568Y7401559D01*
X-1164285Y7403693D01*
X-1159510Y7406386D01*
X-1155192Y7409586D01*
X-1151382Y7413294D01*
X-1148232Y7417460D01*
X-1145692Y7422032D01*
X-1143812Y7427010D01*
X-1142644Y7432344D01*
X-1142238Y7438034D01*
X-1142746Y7445146D01*
X-1144219Y7451598D01*
X-1146759Y7457440D01*
X-1150366Y7462875D01*
X-1155039Y7467853D01*
X-1160780Y7472527D01*
X-1167688Y7476947D01*
X-1175766Y7481214D01*
X-1168654Y7485786D01*
X-1162812Y7490459D01*
X-1158087Y7495235D01*
X-1154531Y7500010D01*
X-1151890Y7504836D01*
X-1150112Y7509560D01*
X-1149146Y7514234D01*
X-1148842Y7518806D01*
X-1149146Y7523683D01*
X-1150061Y7528356D01*
X-1151534Y7532674D01*
X-1153566Y7536688D01*
X-1156106Y7540345D01*
X-1159154Y7543596D01*
X-1162710Y7546441D01*
X-1166672Y7548880D01*
X-1171143Y7550759D01*
X-1176020Y7552181D01*
X-1181303Y7553045D01*
G37*
G36*
X-3266440Y7550302D02*
G01*
X-3266440Y7542682D01*
X-3245612Y7540396D01*
X-3245358Y7483246D01*
X-3225038Y7483246D01*
X-3224733Y7534503D01*
X-3224530Y7541666D01*
X-3208782Y7541666D01*
X-3200603Y7541259D01*
X-3193542Y7540040D01*
X-3187598Y7537958D01*
X-3182772Y7535011D01*
X-3179013Y7531100D01*
X-3176371Y7526223D01*
X-3174796Y7520381D01*
X-3174238Y7513472D01*
X-3174847Y7506208D01*
X-3176574Y7499959D01*
X-3179521Y7494778D01*
X-3183686Y7490561D01*
X-3189122Y7487310D01*
X-3195777Y7485024D01*
X-3203803Y7483703D01*
X-3213100Y7483246D01*
X-3245358Y7483246D01*
X-3245358Y7474102D01*
X-3212084Y7474102D01*
X-3204768Y7473899D01*
X-3198164Y7473188D01*
X-3192221Y7472070D01*
X-3186988Y7470495D01*
X-3182416Y7468463D01*
X-3178454Y7465974D01*
X-3175203Y7463078D01*
X-3172510Y7459675D01*
X-3170478Y7455916D01*
X-3169056Y7451648D01*
X-3168192Y7446975D01*
X-3167888Y7441844D01*
X-3168192Y7436967D01*
X-3169107Y7432446D01*
X-3170580Y7428331D01*
X-3172612Y7424674D01*
X-3175254Y7421372D01*
X-3178454Y7418476D01*
X-3182264Y7416038D01*
X-3186633Y7414006D01*
X-3191560Y7412431D01*
X-3197098Y7411262D01*
X-3203194Y7410602D01*
X-3209798Y7410348D01*
X-3224530Y7410348D01*
X-3224936Y7435748D01*
X-3225038Y7474102D01*
X-3245358Y7474102D01*
X-3245612Y7411364D01*
X-3266440Y7409078D01*
X-3266440Y7401458D01*
X-3205734Y7401458D01*
X-3198063Y7401712D01*
X-3190951Y7402372D01*
X-3184448Y7403490D01*
X-3178556Y7404963D01*
X-3173171Y7406792D01*
X-3168345Y7408976D01*
X-3164078Y7411415D01*
X-3160268Y7414158D01*
X-3157016Y7417155D01*
X-3154222Y7420305D01*
X-3151886Y7423658D01*
X-3150006Y7427163D01*
X-3148584Y7430820D01*
X-3147618Y7434529D01*
X-3147009Y7438288D01*
X-3146806Y7442098D01*
X-3147060Y7446619D01*
X-3147872Y7450937D01*
X-3149244Y7455052D01*
X-3151174Y7458964D01*
X-3153664Y7462621D01*
X-3156813Y7465974D01*
X-3160572Y7469073D01*
X-3164992Y7471816D01*
X-3170072Y7474254D01*
X-3175812Y7476286D01*
X-3182315Y7477963D01*
X-3189478Y7479182D01*
X-3180740Y7481519D01*
X-3173374Y7484618D01*
X-3167278Y7488428D01*
X-3162401Y7492796D01*
X-3158744Y7497673D01*
X-3156153Y7502956D01*
X-3154680Y7508494D01*
X-3154172Y7514234D01*
X-3154527Y7519365D01*
X-3155594Y7524242D01*
X-3157321Y7528763D01*
X-3159760Y7532979D01*
X-3162858Y7536789D01*
X-3166618Y7540193D01*
X-3171037Y7543139D01*
X-3176117Y7545628D01*
X-3181858Y7547660D01*
X-3188157Y7549083D01*
X-3195116Y7549997D01*
X-3202686Y7550302D01*
G37*
G36*
X-2604262Y7537602D02*
G01*
X-2610358Y7507630D01*
X-2630170Y7505090D01*
X-2630170Y7497216D01*
X-2611374Y7497216D01*
X-2611374Y7424572D01*
X-2610967Y7418374D01*
X-2609697Y7413040D01*
X-2607665Y7408570D01*
X-2604820Y7404963D01*
X-2601214Y7402169D01*
X-2596946Y7400239D01*
X-2591917Y7399070D01*
X-2586228Y7398664D01*
X-2578201Y7399477D01*
X-2571242Y7401712D01*
X-2565349Y7405319D01*
X-2560574Y7410094D01*
X-2564892Y7415174D01*
X-2569006Y7412380D01*
X-2572715Y7410399D01*
X-2576322Y7409230D01*
X-2580132Y7408824D01*
X-2585516Y7409789D01*
X-2589580Y7412685D01*
X-2592171Y7417816D01*
X-2593086Y7425334D01*
X-2593086Y7497216D01*
X-2562860Y7497216D01*
X-2562860Y7506868D01*
X-2592832Y7506868D01*
X-2591562Y7537602D01*
G37*
G36*
X-3076194Y7509916D02*
G01*
X-3081070Y7509713D01*
X-3085846Y7509002D01*
X-3090519Y7507884D01*
X-3095091Y7506309D01*
X-3099511Y7504328D01*
X-3103727Y7501890D01*
X-3107740Y7498994D01*
X-3111449Y7495641D01*
X-3114852Y7491933D01*
X-3117951Y7487716D01*
X-3120644Y7483144D01*
X-3122930Y7478115D01*
X-3124758Y7472629D01*
X-3126130Y7466787D01*
X-3126994Y7460488D01*
X-3127248Y7453782D01*
X-3106928Y7453782D01*
X-3106724Y7461250D01*
X-3106013Y7468108D01*
X-3104896Y7474305D01*
X-3103321Y7479944D01*
X-3101340Y7484922D01*
X-3098901Y7489291D01*
X-3096107Y7493000D01*
X-3092856Y7496048D01*
X-3089249Y7498435D01*
X-3085287Y7500162D01*
X-3080918Y7501178D01*
X-3076194Y7501534D01*
X-3071571Y7501178D01*
X-3067253Y7500162D01*
X-3063240Y7498435D01*
X-3059684Y7496048D01*
X-3056432Y7493000D01*
X-3053588Y7489291D01*
X-3051149Y7484922D01*
X-3049168Y7479944D01*
X-3047542Y7474305D01*
X-3046425Y7468108D01*
X-3045714Y7461250D01*
X-3045460Y7453782D01*
X-3045714Y7446467D01*
X-3046425Y7439761D01*
X-3047542Y7433614D01*
X-3049168Y7428128D01*
X-3051149Y7423251D01*
X-3053588Y7418984D01*
X-3056432Y7415377D01*
X-3059684Y7412380D01*
X-3063240Y7410043D01*
X-3067253Y7408418D01*
X-3071571Y7407402D01*
X-3076194Y7407046D01*
X-3080918Y7407402D01*
X-3085287Y7408418D01*
X-3089249Y7410043D01*
X-3092856Y7412380D01*
X-3096107Y7415377D01*
X-3098901Y7418984D01*
X-3101340Y7423251D01*
X-3103321Y7428128D01*
X-3104896Y7433614D01*
X-3106013Y7439761D01*
X-3106724Y7446467D01*
X-3106928Y7453782D01*
X-3127248Y7453782D01*
X-3126994Y7447127D01*
X-3126130Y7440930D01*
X-3124809Y7435138D01*
X-3122980Y7429753D01*
X-3120694Y7424775D01*
X-3118002Y7420254D01*
X-3114954Y7416190D01*
X-3111550Y7412532D01*
X-3107842Y7409281D01*
X-3103880Y7406487D01*
X-3099663Y7404100D01*
X-3095244Y7402118D01*
X-3090621Y7400645D01*
X-3085896Y7399528D01*
X-3081070Y7398867D01*
X-3076194Y7398664D01*
X-3071368Y7398867D01*
X-3066542Y7399528D01*
X-3061868Y7400645D01*
X-3057245Y7402118D01*
X-3052826Y7404100D01*
X-3048609Y7406487D01*
X-3044596Y7409281D01*
X-3040837Y7412532D01*
X-3037382Y7416190D01*
X-3034284Y7420254D01*
X-3031591Y7424775D01*
X-3029254Y7429753D01*
X-3027426Y7435138D01*
X-3026054Y7440930D01*
X-3025190Y7447127D01*
X-3024886Y7453782D01*
X-3025190Y7460538D01*
X-3026054Y7466838D01*
X-3027426Y7472730D01*
X-3029254Y7478217D01*
X-3031591Y7483246D01*
X-3034284Y7487869D01*
X-3037382Y7492034D01*
X-3040837Y7495743D01*
X-3044596Y7499045D01*
X-3048609Y7501940D01*
X-3052826Y7504379D01*
X-3057245Y7506360D01*
X-3061868Y7507935D01*
X-3066542Y7509052D01*
X-3071368Y7509713D01*
G37*
G36*
X-2958846Y7509916D02*
G01*
X-2967126Y7509459D01*
X-2974695Y7508036D01*
X-2981502Y7505750D01*
X-2987446Y7502601D01*
X-2992577Y7498638D01*
X-2996692Y7493965D01*
X-2999790Y7488529D01*
X-3001772Y7482484D01*
X-3000857Y7478928D01*
X-2998927Y7476286D01*
X-2995930Y7474661D01*
X-2991866Y7474102D01*
X-2988005Y7474712D01*
X-2984855Y7476591D01*
X-2982417Y7479792D01*
X-2980690Y7484262D01*
X-2976372Y7499502D01*
X-2969869Y7500975D01*
X-2963926Y7501534D01*
X-2958642Y7501229D01*
X-2954172Y7500264D01*
X-2950514Y7498537D01*
X-2947568Y7495895D01*
X-2945333Y7492238D01*
X-2943809Y7487412D01*
X-2942894Y7481316D01*
X-2942590Y7473848D01*
X-2942590Y7466990D01*
X-2949346Y7465364D01*
X-2962300Y7461554D01*
X-2967990Y7459624D01*
X-2977997Y7455763D01*
X-2986074Y7451902D01*
X-2992475Y7447991D01*
X-2997352Y7443978D01*
X-3000908Y7439812D01*
X-3003194Y7435443D01*
X-3004464Y7430820D01*
X-3004602Y7428890D01*
X-2986024Y7428890D01*
X-2985871Y7431989D01*
X-2985160Y7435088D01*
X-2983890Y7438186D01*
X-2981807Y7441285D01*
X-2978810Y7444333D01*
X-2974797Y7447381D01*
X-2969514Y7450378D01*
X-2962910Y7453274D01*
X-2953918Y7456474D01*
X-2942590Y7459878D01*
X-2942590Y7424572D01*
X-2950565Y7418476D01*
X-2956814Y7414463D01*
X-2962300Y7412278D01*
X-2967990Y7411618D01*
X-2975102Y7412634D01*
X-2980842Y7415784D01*
X-2984652Y7421168D01*
X-2986024Y7428890D01*
X-3004602Y7428890D01*
X-3004820Y7425842D01*
X-3004261Y7419594D01*
X-3002534Y7414107D01*
X-2999790Y7409434D01*
X-2996184Y7405573D01*
X-2991815Y7402575D01*
X-2986836Y7400391D01*
X-2981299Y7399121D01*
X-2975356Y7398664D01*
X-2970580Y7398969D01*
X-2966212Y7399781D01*
X-2962148Y7401153D01*
X-2958236Y7403084D01*
X-2954426Y7405573D01*
X-2950565Y7408621D01*
X-2942082Y7416444D01*
X-2939796Y7409230D01*
X-2935630Y7403693D01*
X-2929737Y7400137D01*
X-2922270Y7398918D01*
X-2916682Y7399528D01*
X-2911602Y7401509D01*
X-2907030Y7405014D01*
X-2902966Y7410348D01*
X-2907030Y7414666D01*
X-2909214Y7412278D01*
X-2911348Y7410551D01*
X-2913583Y7409434D01*
X-2916174Y7409078D01*
X-2919577Y7409840D01*
X-2922168Y7412278D01*
X-2923743Y7416698D01*
X-2924302Y7423302D01*
X-2924302Y7471816D01*
X-2924556Y7478369D01*
X-2925267Y7484262D01*
X-2926435Y7489444D01*
X-2928061Y7494016D01*
X-2930194Y7497927D01*
X-2932836Y7501229D01*
X-2935935Y7504023D01*
X-2939542Y7506208D01*
X-2943606Y7507884D01*
X-2948178Y7509002D01*
X-2953258Y7509713D01*
G37*
G36*
X-2825750Y7509916D02*
G01*
X-2830423Y7509408D01*
X-2835097Y7507986D01*
X-2839669Y7505598D01*
X-2844038Y7502296D01*
X-2848152Y7498181D01*
X-2851962Y7493203D01*
X-2855366Y7487462D01*
X-2858262Y7480960D01*
X-2860548Y7507630D01*
X-2863596Y7509662D01*
X-2894838Y7497470D01*
X-2894838Y7490866D01*
X-2877312Y7489088D01*
X-2876753Y7475829D01*
X-2876550Y7459878D01*
X-2876600Y7439558D01*
X-2877058Y7410856D01*
X-2893314Y7408316D01*
X-2893314Y7401458D01*
X-2839212Y7401458D01*
X-2839212Y7408316D01*
X-2857754Y7411110D01*
X-2858262Y7448194D01*
X-2858262Y7465720D01*
X-2854706Y7475067D01*
X-2850438Y7482941D01*
X-2845257Y7489596D01*
X-2838958Y7495184D01*
X-2832963Y7490053D01*
X-2829712Y7488021D01*
X-2826258Y7486751D01*
X-2822448Y7486294D01*
X-2816707Y7487412D01*
X-2812796Y7490510D01*
X-2810510Y7495286D01*
X-2809748Y7501534D01*
X-2812491Y7505090D01*
X-2816250Y7507731D01*
X-2820771Y7509357D01*
G37*
G36*
X-2297176Y7509916D02*
G01*
X-2302205Y7509662D01*
X-2307183Y7508951D01*
X-2312009Y7507782D01*
X-2316683Y7506106D01*
X-2321204Y7504023D01*
X-2325522Y7501483D01*
X-2329535Y7498486D01*
X-2333345Y7495082D01*
X-2336800Y7491272D01*
X-2339898Y7487056D01*
X-2342591Y7482433D01*
X-2344928Y7477455D01*
X-2346756Y7472070D01*
X-2348128Y7466330D01*
X-2348992Y7460234D01*
X-2349246Y7453782D01*
X-2349042Y7447584D01*
X-2348331Y7441742D01*
X-2347163Y7436154D01*
X-2345639Y7430922D01*
X-2343658Y7426045D01*
X-2341270Y7421524D01*
X-2338476Y7417358D01*
X-2335377Y7413548D01*
X-2331872Y7410196D01*
X-2328062Y7407198D01*
X-2323896Y7404658D01*
X-2319477Y7402525D01*
X-2314752Y7400848D01*
X-2309723Y7399629D01*
X-2304491Y7398918D01*
X-2298954Y7398664D01*
X-2291486Y7399121D01*
X-2284628Y7400493D01*
X-2278481Y7402728D01*
X-2272944Y7405776D01*
X-2268118Y7409637D01*
X-2264003Y7414310D01*
X-2260549Y7419695D01*
X-2257806Y7425842D01*
X-2262124Y7427874D01*
X-2264968Y7424115D01*
X-2268220Y7420762D01*
X-2271725Y7417866D01*
X-2275586Y7415479D01*
X-2279700Y7413599D01*
X-2284018Y7412228D01*
X-2288590Y7411415D01*
X-2293366Y7411110D01*
X-2298598Y7411466D01*
X-2303475Y7412431D01*
X-2308098Y7414107D01*
X-2312365Y7416393D01*
X-2316226Y7419289D01*
X-2319680Y7422794D01*
X-2322677Y7426909D01*
X-2325217Y7431582D01*
X-2327249Y7436815D01*
X-2328722Y7442606D01*
X-2329637Y7448956D01*
X-2329942Y7455814D01*
X-2329688Y7462824D01*
X-2328824Y7469276D01*
X-2327503Y7475169D01*
X-2325624Y7480553D01*
X-2323338Y7485329D01*
X-2320544Y7489545D01*
X-2317343Y7493152D01*
X-2313787Y7496098D01*
X-2309825Y7498486D01*
X-2305507Y7500162D01*
X-2300884Y7501178D01*
X-2295906Y7501534D01*
X-2290216Y7500975D01*
X-2283968Y7499502D01*
X-2278329Y7479436D01*
X-2275992Y7476185D01*
X-2272639Y7474102D01*
X-2267966Y7473340D01*
X-2264359Y7473848D01*
X-2261514Y7475423D01*
X-2259431Y7477963D01*
X-2258060Y7481468D01*
X-2259838Y7487412D01*
X-2262682Y7492898D01*
X-2266543Y7497724D01*
X-2271369Y7501890D01*
X-2276906Y7505293D01*
X-2283155Y7507782D01*
X-2289962Y7509357D01*
G37*
G36*
X-2046478Y7509916D02*
G01*
X-2051659Y7509560D01*
X-2056892Y7508494D01*
X-2062124Y7506766D01*
X-2067306Y7504379D01*
X-2072335Y7501432D01*
X-2077262Y7497927D01*
X-2081936Y7493863D01*
X-2086356Y7489342D01*
X-2088134Y7507630D01*
X-2091182Y7509662D01*
X-2122678Y7497470D01*
X-2122678Y7490866D01*
X-2104898Y7489088D01*
X-2104491Y7475829D01*
X-2104491Y7420051D01*
X-2104644Y7410856D01*
X-2121154Y7408316D01*
X-2121154Y7401458D01*
X-2069846Y7401458D01*
X-2069846Y7408316D01*
X-2085339Y7410856D01*
X-2085848Y7448194D01*
X-2085848Y7481214D01*
X-2077466Y7487920D01*
X-2069693Y7492492D01*
X-2062124Y7495133D01*
X-2054606Y7495946D01*
X-2050135Y7495641D01*
X-2046274Y7494574D01*
X-2043125Y7492746D01*
X-2040636Y7490002D01*
X-2038705Y7486345D01*
X-2037384Y7481722D01*
X-2036572Y7475931D01*
X-2036318Y7469022D01*
X-2036572Y7410856D01*
X-2053082Y7408316D01*
X-2053082Y7401458D01*
X-2001774Y7401458D01*
X-2001774Y7408316D01*
X-2017522Y7410856D01*
X-2018030Y7448194D01*
X-2018030Y7469530D01*
X-2018487Y7479487D01*
X-2019807Y7487970D01*
X-2022043Y7494930D01*
X-2025142Y7500467D01*
X-2029104Y7504734D01*
X-2034032Y7507630D01*
X-2039823Y7509357D01*
G37*
G36*
X-1934210Y7509916D02*
G01*
X-1939340Y7509662D01*
X-1944319Y7508900D01*
X-1949145Y7507681D01*
X-1953768Y7505953D01*
X-1958238Y7503769D01*
X-1962454Y7501128D01*
X-1966366Y7498080D01*
X-1970024Y7494574D01*
X-1973376Y7490714D01*
X-1976374Y7486446D01*
X-1978964Y7481824D01*
X-1981149Y7476794D01*
X-1982927Y7471460D01*
X-1984197Y7465822D01*
X-1984486Y7463688D01*
X-1965452Y7463688D01*
X-1964080Y7472883D01*
X-1961692Y7480757D01*
X-1958492Y7487259D01*
X-1954631Y7492542D01*
X-1950212Y7496505D01*
X-1945436Y7499350D01*
X-1940407Y7500975D01*
X-1935225Y7501534D01*
X-1930044Y7500975D01*
X-1925269Y7499400D01*
X-1921103Y7496962D01*
X-1917496Y7493711D01*
X-1914601Y7489850D01*
X-1912416Y7485481D01*
X-1911045Y7480706D01*
X-1910588Y7475626D01*
X-1911096Y7470597D01*
X-1912975Y7466634D01*
X-1916582Y7464094D01*
X-1922525Y7463180D01*
X-1965452Y7463688D01*
X-1984486Y7463688D01*
X-1985010Y7459827D01*
X-1985264Y7453528D01*
X-1985060Y7447178D01*
X-1984349Y7441184D01*
X-1983181Y7435545D01*
X-1981657Y7430262D01*
X-1979675Y7425385D01*
X-1977288Y7420864D01*
X-1974494Y7416749D01*
X-1971395Y7413040D01*
X-1967890Y7409738D01*
X-1964080Y7406843D01*
X-1959914Y7404404D01*
X-1955495Y7402372D01*
X-1950770Y7400747D01*
X-1945741Y7399578D01*
X-1940509Y7398918D01*
X-1934972Y7398664D01*
X-1927910Y7399121D01*
X-1921306Y7400442D01*
X-1915261Y7402575D01*
X-1909724Y7405471D01*
X-1904746Y7409129D01*
X-1900326Y7413447D01*
X-1896414Y7418476D01*
X-1893062Y7424064D01*
X-1897380Y7427112D01*
X-1903577Y7420559D01*
X-1910537Y7415479D01*
X-1918766Y7412278D01*
X-1928622Y7411110D01*
X-1933956Y7411415D01*
X-1938934Y7412329D01*
X-1943557Y7413853D01*
X-1947824Y7416038D01*
X-1951736Y7418781D01*
X-1955190Y7422184D01*
X-1958187Y7426147D01*
X-1960727Y7430770D01*
X-1962759Y7435951D01*
X-1964334Y7441793D01*
X-1965299Y7448245D01*
X-1965706Y7455306D01*
X-1894078Y7455052D01*
X-1893417Y7457592D01*
X-1892655Y7463840D01*
X-1892554Y7467498D01*
X-1892909Y7473848D01*
X-1893976Y7479741D01*
X-1895703Y7485176D01*
X-1898040Y7490104D01*
X-1900986Y7494574D01*
X-1904441Y7498537D01*
X-1908403Y7501890D01*
X-1912823Y7504734D01*
X-1917649Y7506970D01*
X-1922830Y7508595D01*
X-1928368Y7509611D01*
G37*
G36*
X-1831339Y7509916D02*
G01*
X-1840230Y7509256D01*
X-1848053Y7507376D01*
X-1854707Y7504480D01*
X-1860194Y7500620D01*
X-1864563Y7495997D01*
X-1867662Y7490764D01*
X-1869592Y7485024D01*
X-1870202Y7478928D01*
X-1869744Y7473492D01*
X-1868271Y7468616D01*
X-1865985Y7464298D01*
X-1862836Y7460386D01*
X-1858873Y7456931D01*
X-1854250Y7453884D01*
X-1848967Y7451140D01*
X-1843024Y7448702D01*
X-1832610Y7445400D01*
X-1823161Y7441234D01*
X-1816709Y7436764D01*
X-1813001Y7431531D01*
X-1811782Y7425080D01*
X-1812188Y7421270D01*
X-1813356Y7417765D01*
X-1815287Y7414666D01*
X-1818030Y7412075D01*
X-1821637Y7409942D01*
X-1826056Y7408367D01*
X-1831339Y7407402D01*
X-1837436Y7407046D01*
X-1842566Y7407300D01*
X-1847240Y7408011D01*
X-1851609Y7409180D01*
X-1855724Y7410856D01*
X-1860550Y7431430D01*
X-1871218Y7431430D01*
X-1870710Y7407046D01*
X-1862683Y7403388D01*
X-1854707Y7400747D01*
X-1846376Y7399172D01*
X-1837182Y7398664D01*
X-1830425Y7398969D01*
X-1824228Y7399832D01*
X-1818589Y7401204D01*
X-1813560Y7403084D01*
X-1809038Y7405370D01*
X-1805178Y7408062D01*
X-1801875Y7411110D01*
X-1799132Y7414514D01*
X-1796999Y7418171D01*
X-1795475Y7422083D01*
X-1794560Y7426147D01*
X-1794256Y7430414D01*
X-1794662Y7435494D01*
X-1795932Y7440218D01*
X-1798066Y7444689D01*
X-1801215Y7448803D01*
X-1805381Y7452614D01*
X-1810664Y7456170D01*
X-1817116Y7459421D01*
X-1832356Y7465212D01*
X-1841957Y7469276D01*
X-1848408Y7473492D01*
X-1852066Y7478522D01*
X-1853184Y7485024D01*
X-1851761Y7491628D01*
X-1847596Y7496759D01*
X-1840788Y7500112D01*
X-1831339Y7501280D01*
X-1827377Y7501026D01*
X-1823364Y7500213D01*
X-1819351Y7498943D01*
X-1815338Y7497216D01*
X-1811020Y7478166D01*
X-1801114Y7478166D01*
X-1800352Y7500772D01*
X-1807616Y7504684D01*
X-1814982Y7507528D01*
X-1822856Y7509306D01*
G37*
G36*
X-1734820Y7509916D02*
G01*
X-1743710Y7509256D01*
X-1751533Y7507376D01*
X-1758188Y7504480D01*
X-1763674Y7500620D01*
X-1768043Y7495997D01*
X-1771142Y7490764D01*
X-1773072Y7485024D01*
X-1773682Y7478928D01*
X-1773224Y7473492D01*
X-1771751Y7468616D01*
X-1769465Y7464298D01*
X-1766316Y7460386D01*
X-1762353Y7456931D01*
X-1757730Y7453884D01*
X-1752447Y7451140D01*
X-1746504Y7448702D01*
X-1736089Y7445400D01*
X-1726641Y7441234D01*
X-1720189Y7436764D01*
X-1716481Y7431531D01*
X-1715262Y7425080D01*
X-1715668Y7421270D01*
X-1716836Y7417765D01*
X-1718767Y7414666D01*
X-1721510Y7412075D01*
X-1725117Y7409942D01*
X-1729536Y7408367D01*
X-1734820Y7407402D01*
X-1740916Y7407046D01*
X-1746046Y7407300D01*
X-1750720Y7408011D01*
X-1755089Y7409180D01*
X-1759204Y7410856D01*
X-1764030Y7431430D01*
X-1774698Y7431430D01*
X-1774189Y7407046D01*
X-1766163Y7403388D01*
X-1758188Y7400747D01*
X-1749856Y7399172D01*
X-1740662Y7398664D01*
X-1733905Y7398969D01*
X-1727707Y7399832D01*
X-1722069Y7401204D01*
X-1717039Y7403084D01*
X-1712518Y7405370D01*
X-1708657Y7408062D01*
X-1705356Y7411110D01*
X-1702612Y7414514D01*
X-1700479Y7418171D01*
X-1698955Y7422083D01*
X-1698040Y7426147D01*
X-1697736Y7430414D01*
X-1698142Y7435494D01*
X-1699412Y7440218D01*
X-1701546Y7444689D01*
X-1704695Y7448803D01*
X-1708861Y7452614D01*
X-1714144Y7456170D01*
X-1720596Y7459421D01*
X-1735836Y7465212D01*
X-1745437Y7469276D01*
X-1751888Y7473492D01*
X-1755546Y7478522D01*
X-1756664Y7485024D01*
X-1755241Y7491628D01*
X-1751075Y7496759D01*
X-1744268Y7500112D01*
X-1734820Y7501280D01*
X-1730857Y7501026D01*
X-1726844Y7500213D01*
X-1722831Y7498943D01*
X-1718818Y7497216D01*
X-1714500Y7478166D01*
X-1704593Y7478166D01*
X-1703832Y7500772D01*
X-1711096Y7504684D01*
X-1718462Y7507528D01*
X-1726336Y7509306D01*
G37*
G36*
X-1519428Y7509916D02*
G01*
X-1528318Y7509256D01*
X-1536141Y7507376D01*
X-1542796Y7504480D01*
X-1548282Y7500620D01*
X-1552651Y7495997D01*
X-1555750Y7490764D01*
X-1557680Y7485024D01*
X-1558290Y7478928D01*
X-1557832Y7473492D01*
X-1556359Y7468616D01*
X-1554073Y7464298D01*
X-1550924Y7460386D01*
X-1546961Y7456931D01*
X-1542338Y7453884D01*
X-1537055Y7451140D01*
X-1531112Y7448702D01*
X-1520698Y7445400D01*
X-1511249Y7441234D01*
X-1504797Y7436764D01*
X-1501089Y7431531D01*
X-1499870Y7425080D01*
X-1500276Y7421270D01*
X-1501444Y7417765D01*
X-1503375Y7414666D01*
X-1506118Y7412075D01*
X-1509725Y7409942D01*
X-1514144Y7408367D01*
X-1519428Y7407402D01*
X-1525524Y7407046D01*
X-1530654Y7407300D01*
X-1535328Y7408011D01*
X-1539697Y7409180D01*
X-1543812Y7410856D01*
X-1548638Y7431430D01*
X-1559306Y7431430D01*
X-1558798Y7407046D01*
X-1550771Y7403388D01*
X-1542796Y7400747D01*
X-1534464Y7399172D01*
X-1525270Y7398664D01*
X-1518513Y7398969D01*
X-1512316Y7399832D01*
X-1506677Y7401204D01*
X-1501648Y7403084D01*
X-1497126Y7405370D01*
X-1493266Y7408062D01*
X-1489964Y7411110D01*
X-1487220Y7414514D01*
X-1485087Y7418171D01*
X-1483563Y7422083D01*
X-1482648Y7426147D01*
X-1482344Y7430414D01*
X-1482750Y7435494D01*
X-1484020Y7440218D01*
X-1486154Y7444689D01*
X-1489303Y7448803D01*
X-1493469Y7452614D01*
X-1498752Y7456170D01*
X-1505204Y7459421D01*
X-1520444Y7465212D01*
X-1530045Y7469276D01*
X-1536496Y7473492D01*
X-1540154Y7478522D01*
X-1541272Y7485024D01*
X-1539849Y7491628D01*
X-1535684Y7496759D01*
X-1528876Y7500112D01*
X-1519428Y7501280D01*
X-1515465Y7501026D01*
X-1511452Y7500213D01*
X-1507439Y7498943D01*
X-1503426Y7497216D01*
X-1499108Y7478166D01*
X-1489202Y7478166D01*
X-1488440Y7500772D01*
X-1495704Y7504684D01*
X-1503070Y7507528D01*
X-1510944Y7509306D01*
G37*
G36*
X-1049274Y7509916D02*
G01*
X-1054455Y7509560D01*
X-1059637Y7508494D01*
X-1064717Y7506766D01*
X-1069746Y7504430D01*
X-1074674Y7501483D01*
X-1079398Y7498029D01*
X-1083919Y7494066D01*
X-1088136Y7489596D01*
X-1089914Y7507630D01*
X-1092962Y7509662D01*
X-1124204Y7497470D01*
X-1124204Y7490866D01*
X-1106678Y7489088D01*
X-1106017Y7475829D01*
X-1105966Y7439558D01*
X-1106424Y7410856D01*
X-1122934Y7408316D01*
X-1122934Y7401458D01*
X-1071626Y7401458D01*
X-1071626Y7408316D01*
X-1087120Y7410856D01*
X-1087374Y7429906D01*
X-1087374Y7481214D01*
X-1079398Y7487767D01*
X-1071880Y7492288D01*
X-1064615Y7494879D01*
X-1057148Y7495692D01*
X-1052779Y7495387D01*
X-1049070Y7494371D01*
X-1045921Y7492542D01*
X-1043330Y7489850D01*
X-1041400Y7486243D01*
X-1039977Y7481570D01*
X-1039164Y7475778D01*
X-1038860Y7468768D01*
X-1038910Y7439456D01*
X-1039368Y7410856D01*
X-1056132Y7408316D01*
X-1056132Y7401458D01*
X-1005078Y7401458D01*
X-1005078Y7408316D01*
X-1020318Y7410856D01*
X-1020826Y7448194D01*
X-1020876Y7472629D01*
X-1021334Y7480960D01*
X-1013002Y7487767D01*
X-1005230Y7492339D01*
X-997966Y7494879D01*
X-990853Y7495692D01*
X-986434Y7495387D01*
X-982624Y7494473D01*
X-979424Y7492746D01*
X-976833Y7490155D01*
X-974852Y7486599D01*
X-973429Y7481976D01*
X-972616Y7476134D01*
X-972312Y7469022D01*
X-972566Y7410856D01*
X-989076Y7408316D01*
X-989076Y7401458D01*
X-938021Y7401458D01*
X-938021Y7408316D01*
X-953769Y7410856D01*
X-954278Y7448194D01*
X-954278Y7471308D01*
X-954786Y7480858D01*
X-956157Y7488936D01*
X-958494Y7495590D01*
X-961644Y7500924D01*
X-965708Y7504938D01*
X-970584Y7507731D01*
X-976274Y7509408D01*
X-982726Y7509916D01*
X-988060Y7509611D01*
X-993394Y7508646D01*
X-998626Y7507071D01*
X-1003757Y7504836D01*
X-1008786Y7501940D01*
X-1013663Y7498334D01*
X-1018387Y7494066D01*
X-1022858Y7489088D01*
X-1024534Y7494168D01*
X-1026668Y7498435D01*
X-1029309Y7502042D01*
X-1032357Y7504938D01*
X-1035913Y7507173D01*
X-1039926Y7508697D01*
X-1044397Y7509611D01*
G37*
G36*
X-848868Y7509916D02*
G01*
X-854049Y7509560D01*
X-859231Y7508494D01*
X-864311Y7506766D01*
X-869340Y7504430D01*
X-874268Y7501483D01*
X-878992Y7498029D01*
X-883513Y7494066D01*
X-887730Y7489596D01*
X-889508Y7507630D01*
X-892556Y7509662D01*
X-923798Y7497470D01*
X-923798Y7490866D01*
X-906271Y7489088D01*
X-905611Y7475829D01*
X-905560Y7439558D01*
X-906018Y7410856D01*
X-922528Y7408316D01*
X-922528Y7401458D01*
X-871219Y7401458D01*
X-871219Y7408316D01*
X-886714Y7410856D01*
X-887221Y7448194D01*
X-887221Y7481214D01*
X-879094Y7487767D01*
X-871524Y7492288D01*
X-864209Y7494879D01*
X-856742Y7495692D01*
X-852373Y7495387D01*
X-848664Y7494371D01*
X-845515Y7492542D01*
X-842924Y7489850D01*
X-840994Y7486243D01*
X-839571Y7481570D01*
X-838758Y7475778D01*
X-838453Y7468768D01*
X-838504Y7439456D01*
X-838962Y7410856D01*
X-855726Y7408316D01*
X-855726Y7401458D01*
X-804672Y7401458D01*
X-804672Y7408316D01*
X-819912Y7410856D01*
X-820419Y7448194D01*
X-820470Y7472629D01*
X-821182Y7480960D01*
X-812698Y7487767D01*
X-804926Y7492339D01*
X-797661Y7494879D01*
X-790702Y7495692D01*
X-786180Y7495387D01*
X-782320Y7494473D01*
X-779068Y7492746D01*
X-776478Y7490155D01*
X-774446Y7486599D01*
X-773023Y7481976D01*
X-772210Y7476134D01*
X-771906Y7469022D01*
X-771956Y7439456D01*
X-772414Y7410856D01*
X-788670Y7408316D01*
X-788670Y7401458D01*
X-737870Y7401458D01*
X-737870Y7408316D01*
X-753364Y7410856D01*
X-753872Y7448194D01*
X-753872Y7471308D01*
X-754380Y7480858D01*
X-755802Y7488936D01*
X-758139Y7495590D01*
X-761339Y7500924D01*
X-765403Y7504938D01*
X-770280Y7507731D01*
X-775919Y7509408D01*
X-782320Y7509916D01*
X-787654Y7509611D01*
X-792988Y7508646D01*
X-798220Y7507071D01*
X-803351Y7504836D01*
X-808380Y7501940D01*
X-813257Y7498334D01*
X-817981Y7494066D01*
X-822452Y7489088D01*
X-824128Y7494168D01*
X-826262Y7498435D01*
X-828903Y7502042D01*
X-831951Y7504938D01*
X-835507Y7507173D01*
X-839520Y7508697D01*
X-843991Y7509611D01*
G37*
G36*
X-2384552Y7509662D02*
G01*
X-2418588Y7497724D01*
X-2418588Y7491120D01*
X-2400554Y7489342D01*
X-2400147Y7475677D01*
X-2400147Y7420051D01*
X-2400300Y7410856D01*
X-2417318Y7408316D01*
X-2417318Y7401458D01*
X-2366264Y7401458D01*
X-2366264Y7408316D01*
X-2381504Y7410856D01*
X-2381758Y7429906D01*
X-2381758Y7478166D01*
X-2381504Y7507630D01*
G37*
G36*
X-1596390Y7509662D02*
G01*
X-1630426Y7497724D01*
X-1630426Y7491120D01*
X-1612392Y7489342D01*
X-1611833Y7475677D01*
X-1611630Y7459878D01*
X-1611680Y7439558D01*
X-1612138Y7410856D01*
X-1629156Y7408316D01*
X-1629156Y7401458D01*
X-1578102Y7401458D01*
X-1578102Y7408316D01*
X-1593342Y7410856D01*
X-1593596Y7478166D01*
X-1593342Y7507630D01*
G37*
G36*
X-1276858Y7428890D02*
G01*
X-1282750Y7427671D01*
X-1287526Y7424369D01*
X-1290675Y7419441D01*
X-1291844Y7413396D01*
X-1290675Y7407757D01*
X-1287526Y7403084D01*
X-1282750Y7399883D01*
X-1276858Y7398664D01*
X-1270863Y7399883D01*
X-1266037Y7403084D01*
X-1262786Y7407757D01*
X-1261618Y7413396D01*
X-1262786Y7419441D01*
X-1266037Y7424369D01*
X-1270863Y7427671D01*
G37*
G36*
X-680212Y7428382D02*
G01*
X-685850Y7427315D01*
X-690270Y7424420D01*
X-693166Y7420152D01*
X-694182Y7414920D01*
X-693166Y7409586D01*
X-690270Y7405217D01*
X-685850Y7402271D01*
X-680212Y7401204D01*
X-674776Y7402271D01*
X-670407Y7405217D01*
X-667562Y7409586D01*
X-666496Y7414920D01*
X-667562Y7420152D01*
X-670407Y7424420D01*
X-674776Y7427315D01*
G37*
G36*
X-477012Y7428382D02*
G01*
X-482650Y7427315D01*
X-487070Y7424420D01*
X-489966Y7420152D01*
X-490982Y7414920D01*
X-489966Y7409586D01*
X-487070Y7405217D01*
X-482650Y7402271D01*
X-477012Y7401204D01*
X-471576Y7402271D01*
X-467207Y7405217D01*
X-464362Y7409586D01*
X-463296Y7414920D01*
X-464362Y7420152D01*
X-467207Y7424420D01*
X-471576Y7427315D01*
G37*
G36*
X-273812Y7428382D02*
G01*
X-279450Y7427315D01*
X-283870Y7424420D01*
X-286766Y7420152D01*
X-287782Y7414920D01*
X-286766Y7409586D01*
X-283870Y7405217D01*
X-279450Y7402271D01*
X-273812Y7401204D01*
X-268376Y7402271D01*
X-264007Y7405217D01*
X-261162Y7409586D01*
X-260096Y7414920D01*
X-261162Y7420152D01*
X-264007Y7424420D01*
X-268376Y7427315D01*
G37*
G36*
X-2984500Y7893151D02*
G01*
X-2990951Y7892897D01*
X-2997200Y7892237D01*
X-3003245Y7891068D01*
X-3009087Y7889443D01*
X-3014675Y7887411D01*
X-3020009Y7884972D01*
X-3025089Y7882128D01*
X-3029915Y7878876D01*
X-3034436Y7875320D01*
X-3038652Y7871358D01*
X-3042513Y7867040D01*
X-3046069Y7862417D01*
X-3049270Y7857490D01*
X-3052064Y7852257D01*
X-3054502Y7846771D01*
X-3056483Y7840980D01*
X-3058109Y7834934D01*
X-3059277Y7828686D01*
X-3059988Y7822133D01*
X-3060192Y7815427D01*
X-3059988Y7808569D01*
X-3059277Y7801965D01*
X-3058210Y7795564D01*
X-3056636Y7789468D01*
X-3054705Y7783626D01*
X-3052368Y7778089D01*
X-3049625Y7772857D01*
X-3046526Y7767929D01*
X-3043021Y7763306D01*
X-3039211Y7759039D01*
X-3035046Y7755077D01*
X-3030575Y7751521D01*
X-3025800Y7748320D01*
X-3020669Y7745526D01*
X-3015284Y7743088D01*
X-3009646Y7741107D01*
X-3003753Y7739532D01*
X-2997555Y7738364D01*
X-2991154Y7737703D01*
X-2984500Y7737449D01*
X-2978658Y7737602D01*
X-2972866Y7738109D01*
X-2967126Y7738922D01*
X-2961538Y7740040D01*
X-2956001Y7741564D01*
X-2950565Y7743444D01*
X-2945282Y7745730D01*
X-2940050Y7748371D01*
X-2939542Y7780883D01*
X-2951734Y7780883D01*
X-2957322Y7752689D01*
X-2963824Y7750149D01*
X-2970276Y7748524D01*
X-2976676Y7747609D01*
X-2982976Y7747355D01*
X-2988818Y7747660D01*
X-2994456Y7748473D01*
X-2999790Y7749794D01*
X-3004820Y7751724D01*
X-3009595Y7754162D01*
X-3014065Y7757109D01*
X-3018180Y7760614D01*
X-3021939Y7764627D01*
X-3025343Y7769199D01*
X-3028340Y7774228D01*
X-3030931Y7779816D01*
X-3033115Y7785963D01*
X-3034842Y7792567D01*
X-3036062Y7799679D01*
X-3036824Y7807299D01*
X-3037078Y7815427D01*
X-3036824Y7823504D01*
X-3036011Y7831074D01*
X-3034639Y7838135D01*
X-3032810Y7844739D01*
X-3030524Y7850835D01*
X-3027781Y7856423D01*
X-3024632Y7861503D01*
X-3021076Y7866024D01*
X-3017215Y7870088D01*
X-3012998Y7873644D01*
X-3008477Y7876641D01*
X-3003651Y7879080D01*
X-2998622Y7881010D01*
X-2993339Y7882381D01*
X-2987852Y7883245D01*
X-2982214Y7883499D01*
X-2976524Y7883194D01*
X-2970784Y7882128D01*
X-2965094Y7880400D01*
X-2959354Y7877911D01*
X-2953766Y7849463D01*
X-2941574Y7849463D01*
X-2942082Y7882229D01*
X-2947619Y7885125D01*
X-2953156Y7887462D01*
X-2958642Y7889392D01*
X-2964078Y7890865D01*
X-2969412Y7891932D01*
X-2974594Y7892643D01*
X-2979674Y7893050D01*
G37*
G36*
X-2572766Y7893151D02*
G01*
X-2579674Y7892846D01*
X-2586278Y7891932D01*
X-2592476Y7890408D01*
X-2598216Y7888325D01*
X-2603500Y7885633D01*
X-2608224Y7882432D01*
X-2612390Y7878673D01*
X-2615946Y7874406D01*
X-2618740Y7869580D01*
X-2620822Y7864297D01*
X-2622143Y7858506D01*
X-2622550Y7852257D01*
X-2622245Y7846872D01*
X-2621330Y7841843D01*
X-2619806Y7837220D01*
X-2617724Y7832902D01*
X-2615133Y7828889D01*
X-2612034Y7825181D01*
X-2608427Y7821726D01*
X-2604363Y7818526D01*
X-2599842Y7815580D01*
X-2594914Y7812836D01*
X-2589631Y7810246D01*
X-2568854Y7801356D01*
X-2562961Y7798409D01*
X-2558084Y7795361D01*
X-2554224Y7792110D01*
X-2551277Y7788605D01*
X-2549194Y7784592D01*
X-2548026Y7780121D01*
X-2547620Y7775041D01*
X-2548280Y7768691D01*
X-2550160Y7763103D01*
X-2553208Y7758379D01*
X-2557322Y7754467D01*
X-2562453Y7751368D01*
X-2568549Y7749133D01*
X-2575458Y7747812D01*
X-2583180Y7747355D01*
X-2589936Y7747660D01*
X-2595829Y7748625D01*
X-2601264Y7750251D01*
X-2606548Y7752689D01*
X-2612390Y7780629D01*
X-2623566Y7780629D01*
X-2625090Y7749387D01*
X-2621026Y7747000D01*
X-2616454Y7744764D01*
X-2611374Y7742732D01*
X-2605989Y7740954D01*
X-2600299Y7739481D01*
X-2594305Y7738414D01*
X-2588158Y7737703D01*
X-2581910Y7737449D01*
X-2574391Y7737805D01*
X-2567279Y7738770D01*
X-2560624Y7740396D01*
X-2554528Y7742580D01*
X-2548991Y7745374D01*
X-2544013Y7748778D01*
X-2539695Y7752689D01*
X-2536088Y7757159D01*
X-2533192Y7762087D01*
X-2531110Y7767574D01*
X-2529789Y7773517D01*
X-2529332Y7779867D01*
X-2529586Y7784896D01*
X-2530297Y7789621D01*
X-2531516Y7794040D01*
X-2533294Y7798206D01*
X-2535580Y7802118D01*
X-2538526Y7805775D01*
X-2542082Y7809280D01*
X-2546248Y7812633D01*
X-2551125Y7815834D01*
X-2556662Y7818881D01*
X-2562961Y7821879D01*
X-2584653Y7830870D01*
X-2589682Y7833614D01*
X-2594051Y7836611D01*
X-2597658Y7839913D01*
X-2600502Y7843621D01*
X-2602585Y7847736D01*
X-2603855Y7852257D01*
X-2604262Y7857337D01*
X-2603652Y7863382D01*
X-2601925Y7868615D01*
X-2599131Y7873085D01*
X-2595422Y7876794D01*
X-2590850Y7879740D01*
X-2585516Y7881823D01*
X-2579573Y7883093D01*
X-2573020Y7883499D01*
X-2568092Y7883245D01*
X-2563520Y7882483D01*
X-2559202Y7881061D01*
X-2554986Y7878927D01*
X-2549398Y7852257D01*
X-2537714Y7852257D01*
X-2536190Y7881467D01*
X-2540000Y7884007D01*
X-2544013Y7886293D01*
X-2548178Y7888274D01*
X-2552598Y7890002D01*
X-2557221Y7891322D01*
X-2562148Y7892338D01*
X-2567330Y7892948D01*
G37*
G36*
X-2182622Y7893151D02*
G01*
X-2189073Y7892897D01*
X-2195322Y7892237D01*
X-2201316Y7891068D01*
X-2207158Y7889443D01*
X-2212746Y7887411D01*
X-2218080Y7884972D01*
X-2223160Y7882128D01*
X-2227935Y7878876D01*
X-2232456Y7875320D01*
X-2236622Y7871358D01*
X-2240483Y7867040D01*
X-2244039Y7862417D01*
X-2247188Y7857490D01*
X-2249982Y7852257D01*
X-2252421Y7846771D01*
X-2254402Y7840980D01*
X-2255977Y7834934D01*
X-2257145Y7828686D01*
X-2257856Y7822133D01*
X-2258060Y7815427D01*
X-2257856Y7808569D01*
X-2257145Y7801965D01*
X-2256078Y7795564D01*
X-2254504Y7789468D01*
X-2252573Y7783626D01*
X-2250236Y7778089D01*
X-2247493Y7772857D01*
X-2244394Y7767929D01*
X-2240940Y7763306D01*
X-2237130Y7759039D01*
X-2232964Y7755077D01*
X-2228494Y7751521D01*
X-2223719Y7748320D01*
X-2218639Y7745526D01*
X-2213305Y7743088D01*
X-2207666Y7741107D01*
X-2201773Y7739532D01*
X-2195626Y7738364D01*
X-2189226Y7737703D01*
X-2182622Y7737449D01*
X-2176678Y7737602D01*
X-2170887Y7738109D01*
X-2165146Y7738922D01*
X-2159508Y7740040D01*
X-2154021Y7741564D01*
X-2148586Y7743444D01*
X-2143201Y7745730D01*
X-2137918Y7748371D01*
X-2137664Y7780883D01*
X-2149856Y7780883D01*
X-2155190Y7752689D01*
X-2161692Y7750149D01*
X-2168144Y7748524D01*
X-2174544Y7747609D01*
X-2180844Y7747355D01*
X-2186736Y7747660D01*
X-2192375Y7748473D01*
X-2197760Y7749794D01*
X-2202840Y7751724D01*
X-2207666Y7754162D01*
X-2212136Y7757109D01*
X-2216251Y7760614D01*
X-2220061Y7764627D01*
X-2223465Y7769199D01*
X-2226462Y7774228D01*
X-2229053Y7779816D01*
X-2231237Y7785963D01*
X-2232964Y7792567D01*
X-2234184Y7799679D01*
X-2234946Y7807299D01*
X-2235200Y7815427D01*
X-2234946Y7823504D01*
X-2234082Y7831074D01*
X-2232761Y7838135D01*
X-2230932Y7844739D01*
X-2228646Y7850835D01*
X-2225903Y7856423D01*
X-2222703Y7861503D01*
X-2219198Y7866024D01*
X-2215286Y7870088D01*
X-2211019Y7873644D01*
X-2206498Y7876641D01*
X-2201672Y7879080D01*
X-2196592Y7881010D01*
X-2191308Y7882381D01*
X-2185771Y7883245D01*
X-2180082Y7883499D01*
X-2174443Y7883194D01*
X-2168753Y7882128D01*
X-2163064Y7880400D01*
X-2157222Y7877911D01*
X-2151888Y7849463D01*
X-2139696Y7849463D01*
X-2139950Y7882229D01*
X-2145487Y7885125D01*
X-2151024Y7887462D01*
X-2156510Y7889392D01*
X-2161946Y7890865D01*
X-2167331Y7891932D01*
X-2172563Y7892643D01*
X-2177694Y7893050D01*
G37*
G36*
X-1535684Y7893151D02*
G01*
X-1540916Y7892948D01*
X-1546098Y7892288D01*
X-1551228Y7891221D01*
X-1556258Y7889748D01*
X-1561134Y7887868D01*
X-1565859Y7885582D01*
X-1570431Y7882890D01*
X-1574800Y7879842D01*
X-1578965Y7876387D01*
X-1582877Y7872577D01*
X-1586534Y7868412D01*
X-1589887Y7863840D01*
X-1592986Y7858963D01*
X-1595678Y7853730D01*
X-1598066Y7848142D01*
X-1600047Y7842250D01*
X-1601622Y7836001D01*
X-1602790Y7829448D01*
X-1603552Y7822590D01*
X-1603756Y7815427D01*
X-1580896Y7815427D01*
X-1580743Y7821930D01*
X-1580235Y7828330D01*
X-1579422Y7834630D01*
X-1578254Y7840776D01*
X-1576730Y7846669D01*
X-1574850Y7852257D01*
X-1572615Y7857591D01*
X-1570024Y7862519D01*
X-1567078Y7867040D01*
X-1563725Y7871155D01*
X-1560017Y7874711D01*
X-1555953Y7877759D01*
X-1551482Y7880197D01*
X-1546606Y7882026D01*
X-1541373Y7883144D01*
X-1535684Y7883499D01*
X-1530146Y7883144D01*
X-1524965Y7882026D01*
X-1520190Y7880197D01*
X-1515770Y7877759D01*
X-1511757Y7874711D01*
X-1508150Y7871155D01*
X-1504848Y7867040D01*
X-1501952Y7862519D01*
X-1499412Y7857591D01*
X-1497228Y7852257D01*
X-1495348Y7846669D01*
X-1493875Y7840776D01*
X-1492707Y7834630D01*
X-1491894Y7828330D01*
X-1491386Y7821930D01*
X-1491234Y7815427D01*
X-1491386Y7808874D01*
X-1491894Y7802372D01*
X-1492707Y7796022D01*
X-1493875Y7789875D01*
X-1495348Y7783931D01*
X-1497228Y7778292D01*
X-1499412Y7773009D01*
X-1501952Y7768031D01*
X-1504848Y7763509D01*
X-1508150Y7759446D01*
X-1511757Y7755839D01*
X-1515770Y7752842D01*
X-1520190Y7750403D01*
X-1524965Y7748574D01*
X-1530146Y7747508D01*
X-1535684Y7747101D01*
X-1541373Y7747508D01*
X-1546606Y7748574D01*
X-1551482Y7750403D01*
X-1555953Y7752842D01*
X-1560017Y7755839D01*
X-1563725Y7759446D01*
X-1567078Y7763509D01*
X-1570024Y7768031D01*
X-1572615Y7773009D01*
X-1574850Y7778292D01*
X-1576730Y7783931D01*
X-1578254Y7789875D01*
X-1579422Y7796022D01*
X-1580235Y7802372D01*
X-1580743Y7808874D01*
X-1580896Y7815427D01*
X-1603756Y7815427D01*
X-1603552Y7808010D01*
X-1602841Y7800898D01*
X-1601673Y7794193D01*
X-1600098Y7787843D01*
X-1598117Y7781798D01*
X-1595729Y7776209D01*
X-1593037Y7770926D01*
X-1589989Y7766050D01*
X-1586636Y7761528D01*
X-1582978Y7757414D01*
X-1579067Y7753654D01*
X-1574901Y7750302D01*
X-1570532Y7747304D01*
X-1565960Y7744714D01*
X-1561236Y7742478D01*
X-1556359Y7740700D01*
X-1551330Y7739278D01*
X-1546199Y7738262D01*
X-1540967Y7737652D01*
X-1535684Y7737449D01*
X-1530502Y7737652D01*
X-1525371Y7738313D01*
X-1520291Y7739380D01*
X-1515313Y7740853D01*
X-1510487Y7742732D01*
X-1505762Y7745018D01*
X-1501241Y7747711D01*
X-1496872Y7750809D01*
X-1492758Y7754264D01*
X-1488846Y7758074D01*
X-1485239Y7762240D01*
X-1481886Y7766812D01*
X-1478838Y7771739D01*
X-1476146Y7776972D01*
X-1473809Y7782559D01*
X-1471828Y7788503D01*
X-1470253Y7794752D01*
X-1469085Y7801356D01*
X-1468374Y7808214D01*
X-1468120Y7815427D01*
X-1468374Y7822793D01*
X-1469085Y7829753D01*
X-1470253Y7836408D01*
X-1471828Y7842758D01*
X-1473809Y7848701D01*
X-1476197Y7854289D01*
X-1478940Y7859522D01*
X-1481988Y7864398D01*
X-1485341Y7868920D01*
X-1488948Y7873085D01*
X-1492859Y7876844D01*
X-1496974Y7880197D01*
X-1501343Y7883194D01*
X-1505864Y7885836D01*
X-1510588Y7888071D01*
X-1515414Y7889900D01*
X-1520342Y7891322D01*
X-1525422Y7892338D01*
X-1530553Y7892948D01*
G37*
G36*
X-912621Y7893151D02*
G01*
X-919480Y7892846D01*
X-925982Y7891932D01*
X-932180Y7890408D01*
X-937920Y7888325D01*
X-943152Y7885633D01*
X-947877Y7882432D01*
X-952042Y7878673D01*
X-955548Y7874406D01*
X-958342Y7869580D01*
X-960424Y7864297D01*
X-961745Y7858506D01*
X-962152Y7852257D01*
X-961847Y7846872D01*
X-960932Y7841843D01*
X-959408Y7837220D01*
X-957376Y7832902D01*
X-954786Y7828889D01*
X-951636Y7825181D01*
X-948080Y7821726D01*
X-944016Y7818526D01*
X-939546Y7815580D01*
X-934669Y7812836D01*
X-929436Y7810246D01*
X-908456Y7801356D01*
X-902563Y7798409D01*
X-897686Y7795361D01*
X-893826Y7792110D01*
X-890879Y7788605D01*
X-888796Y7784592D01*
X-887628Y7780121D01*
X-887221Y7775041D01*
X-887882Y7768691D01*
X-889812Y7763103D01*
X-892860Y7758379D01*
X-897026Y7754467D01*
X-902157Y7751368D01*
X-908253Y7749133D01*
X-915162Y7747812D01*
X-922782Y7747355D01*
X-929538Y7747660D01*
X-935431Y7748625D01*
X-940866Y7750251D01*
X-946150Y7752689D01*
X-951992Y7780629D01*
X-963421Y7780629D01*
X-964692Y7749387D01*
X-960628Y7747000D01*
X-956056Y7744764D01*
X-950976Y7742732D01*
X-945591Y7740954D01*
X-939901Y7739481D01*
X-933907Y7738414D01*
X-927760Y7737703D01*
X-921512Y7737449D01*
X-913993Y7737805D01*
X-906881Y7738770D01*
X-900226Y7740396D01*
X-894130Y7742580D01*
X-888593Y7745374D01*
X-883615Y7748778D01*
X-879297Y7752689D01*
X-875690Y7757159D01*
X-872794Y7762087D01*
X-870712Y7767574D01*
X-869391Y7773517D01*
X-868934Y7779867D01*
X-869187Y7784896D01*
X-869899Y7789621D01*
X-871169Y7794040D01*
X-872947Y7798206D01*
X-875284Y7802118D01*
X-878230Y7805775D01*
X-881786Y7809280D01*
X-885952Y7812633D01*
X-890828Y7815834D01*
X-896366Y7818881D01*
X-902614Y7821879D01*
X-918718Y7828381D01*
X-924407Y7830870D01*
X-929436Y7833614D01*
X-933703Y7836611D01*
X-937310Y7839913D01*
X-940155Y7843621D01*
X-942187Y7847736D01*
X-943457Y7852257D01*
X-943864Y7857337D01*
X-943254Y7863382D01*
X-941527Y7868615D01*
X-938733Y7873085D01*
X-935024Y7876794D01*
X-930452Y7879740D01*
X-925118Y7881823D01*
X-919175Y7883093D01*
X-912621Y7883499D01*
X-907745Y7883245D01*
X-903224Y7882483D01*
X-898906Y7881061D01*
X-894587Y7878927D01*
X-889000Y7852257D01*
X-877316Y7852257D01*
X-876046Y7881467D01*
X-879754Y7884007D01*
X-883716Y7886293D01*
X-887882Y7888274D01*
X-892251Y7890002D01*
X-896924Y7891322D01*
X-901852Y7892338D01*
X-907084Y7892948D01*
G37*
G36*
X-1100836Y7892643D02*
G01*
X-1106322Y7892440D01*
X-1111605Y7891729D01*
X-1116736Y7890560D01*
X-1121562Y7888935D01*
X-1126134Y7886852D01*
X-1130350Y7884261D01*
X-1134160Y7881264D01*
X-1137513Y7877759D01*
X-1140409Y7873796D01*
X-1142695Y7869377D01*
X-1144473Y7864500D01*
X-1145540Y7859115D01*
X-1143558Y7856321D01*
X-1141069Y7854188D01*
X-1138174Y7852765D01*
X-1134872Y7852257D01*
X-1130858Y7853019D01*
X-1127556Y7855458D01*
X-1124864Y7859775D01*
X-1122680Y7866227D01*
X-1118108Y7882483D01*
X-1111656Y7883652D01*
X-1106170Y7884007D01*
X-1100226Y7883448D01*
X-1094841Y7881721D01*
X-1090218Y7878978D01*
X-1086307Y7875270D01*
X-1083208Y7870698D01*
X-1080871Y7865262D01*
X-1079500Y7859115D01*
X-1078992Y7852257D01*
X-1079195Y7847838D01*
X-1079855Y7843418D01*
X-1080922Y7838948D01*
X-1082446Y7834426D01*
X-1084376Y7829854D01*
X-1086764Y7825130D01*
X-1089609Y7820253D01*
X-1092911Y7815224D01*
X-1100886Y7804556D01*
X-1110742Y7792821D01*
X-1144524Y7754467D01*
X-1144524Y7740751D01*
X-1053084Y7740751D01*
X-1053084Y7758023D01*
X-1130300Y7758023D01*
X-1104138Y7784947D01*
X-1089304Y7800746D01*
X-1077772Y7813852D01*
X-1073200Y7819593D01*
X-1069340Y7824927D01*
X-1066139Y7829956D01*
X-1063650Y7834731D01*
X-1061770Y7839354D01*
X-1060450Y7843926D01*
X-1059688Y7848549D01*
X-1059434Y7853273D01*
X-1059738Y7858912D01*
X-1060500Y7864246D01*
X-1061872Y7869174D01*
X-1063802Y7873746D01*
X-1066292Y7877911D01*
X-1069390Y7881620D01*
X-1073048Y7884871D01*
X-1077366Y7887563D01*
X-1082294Y7889748D01*
X-1087831Y7891322D01*
X-1094028Y7892338D01*
G37*
G36*
X-3266440Y7889595D02*
G01*
X-3266440Y7881975D01*
X-3245612Y7879689D01*
X-3245408Y7850378D01*
X-3245612Y7750657D01*
X-3266440Y7748371D01*
X-3266440Y7740751D01*
X-3155950Y7740751D01*
X-3154426Y7782661D01*
X-3166110Y7782661D01*
X-3173222Y7750403D01*
X-3224530Y7750403D01*
X-3225038Y7786065D01*
X-3224936Y7857693D01*
X-3224530Y7879689D01*
X-3203702Y7881975D01*
X-3203702Y7889595D01*
G37*
G36*
X-3138424Y7889595D02*
G01*
X-3138424Y7881975D01*
X-3117596Y7879689D01*
X-3117392Y7850276D01*
X-3117596Y7750657D01*
X-3138424Y7748371D01*
X-3138424Y7740751D01*
X-3075686Y7740751D01*
X-3075686Y7748371D01*
X-3096514Y7750911D01*
X-3097022Y7787589D01*
X-3096920Y7857794D01*
X-3096514Y7879689D01*
X-3075686Y7881975D01*
X-3075686Y7889595D01*
G37*
G36*
X-2920238Y7889595D02*
G01*
X-2920238Y7881975D01*
X-2899664Y7879689D01*
X-2899257Y7850276D01*
X-2899206Y7787386D01*
X-2899664Y7750657D01*
X-2920238Y7748371D01*
X-2920238Y7740751D01*
X-2805684Y7740751D01*
X-2804414Y7780375D01*
X-2815590Y7780375D01*
X-2821432Y7750403D01*
X-2878582Y7750403D01*
X-2878836Y7780426D01*
X-2878836Y7812125D01*
X-2845054Y7812125D01*
X-2842006Y7790535D01*
X-2832862Y7790535D01*
X-2832862Y7842859D01*
X-2842006Y7842859D01*
X-2845308Y7821015D01*
X-2878836Y7821015D01*
X-2878582Y7879943D01*
X-2825750Y7879943D01*
X-2819654Y7850479D01*
X-2808732Y7850479D01*
X-2810002Y7889595D01*
G37*
G36*
X-2786634Y7889595D02*
G01*
X-2786634Y7881975D01*
X-2770886Y7879943D01*
X-2768600Y7877149D01*
X-2768854Y7751165D01*
X-2787650Y7748371D01*
X-2787650Y7740751D01*
X-2735072Y7740751D01*
X-2735072Y7748371D01*
X-2758694Y7751419D01*
X-2759202Y7864195D01*
X-2668270Y7739227D01*
X-2660396Y7739227D01*
X-2660142Y7879435D01*
X-2641600Y7881975D01*
X-2641600Y7889595D01*
X-2694178Y7889595D01*
X-2694178Y7881975D01*
X-2670302Y7879181D01*
X-2670048Y7775803D01*
X-2752344Y7889595D01*
G37*
G36*
X-2511806Y7889595D02*
G01*
X-2511806Y7881975D01*
X-2491232Y7879689D01*
X-2490825Y7850276D01*
X-2490774Y7787386D01*
X-2491232Y7750657D01*
X-2511806Y7748371D01*
X-2511806Y7740751D01*
X-2397252Y7740751D01*
X-2395982Y7780375D01*
X-2407158Y7780375D01*
X-2413000Y7750403D01*
X-2470150Y7750403D01*
X-2470404Y7780426D01*
X-2470404Y7812125D01*
X-2436622Y7812125D01*
X-2433574Y7790535D01*
X-2424430Y7790535D01*
X-2424430Y7842859D01*
X-2433574Y7842859D01*
X-2436876Y7821015D01*
X-2470404Y7821015D01*
X-2470150Y7879943D01*
X-2417318Y7879943D01*
X-2411222Y7850479D01*
X-2400300Y7850479D01*
X-2401570Y7889595D01*
G37*
G36*
X-2118360Y7889595D02*
G01*
X-2118360Y7881975D01*
X-2097532Y7879689D01*
X-2097328Y7850276D01*
X-2097532Y7750657D01*
X-2118360Y7748371D01*
X-2118360Y7740751D01*
X-2003806Y7740751D01*
X-2002536Y7780375D01*
X-2013457Y7780375D01*
X-2019300Y7750403D01*
X-2076450Y7750403D01*
X-2076907Y7780426D01*
X-2076957Y7812125D01*
X-2043175Y7812125D01*
X-2040128Y7790535D01*
X-2030984Y7790535D01*
X-2030984Y7842859D01*
X-2040128Y7842859D01*
X-2043430Y7821015D01*
X-2076957Y7821015D01*
X-2076754Y7865414D01*
X-2076450Y7879943D01*
X-2023618Y7879943D01*
X-2017775Y7850479D01*
X-2006854Y7850479D01*
X-2007870Y7889595D01*
G37*
G36*
X-1984248Y7889595D02*
G01*
X-1984248Y7881975D01*
X-1963420Y7879689D01*
X-1963166Y7818729D01*
X-1942846Y7818729D01*
X-1942642Y7866125D01*
X-1942338Y7880959D01*
X-1923034Y7880959D01*
X-1914855Y7880451D01*
X-1907895Y7878978D01*
X-1902002Y7876489D01*
X-1897278Y7873136D01*
X-1893620Y7868869D01*
X-1891030Y7863738D01*
X-1889506Y7857744D01*
X-1888998Y7850987D01*
X-1889556Y7844281D01*
X-1891233Y7838135D01*
X-1894027Y7832648D01*
X-1897938Y7827924D01*
X-1902917Y7824063D01*
X-1909064Y7821168D01*
X-1916277Y7819390D01*
X-1924557Y7818729D01*
X-1963166Y7818729D01*
X-1963420Y7750657D01*
X-1984248Y7748371D01*
X-1984248Y7740751D01*
X-1921510Y7740751D01*
X-1921510Y7748371D01*
X-1942338Y7750911D01*
X-1942846Y7787436D01*
X-1942846Y7810347D01*
X-1930907Y7810347D01*
X-1924507Y7810144D01*
X-1919020Y7809433D01*
X-1914398Y7808112D01*
X-1910588Y7806029D01*
X-1907387Y7803134D01*
X-1904746Y7799222D01*
X-1902561Y7794193D01*
X-1900682Y7787995D01*
X-1891538Y7752689D01*
X-1888896Y7746085D01*
X-1884527Y7741666D01*
X-1878025Y7739227D01*
X-1868932Y7738465D01*
X-1864055Y7738618D01*
X-1859635Y7739024D01*
X-1855673Y7739786D01*
X-1852168Y7740751D01*
X-1852168Y7748371D01*
X-1869439Y7750149D01*
X-1879854Y7784947D01*
X-1881886Y7790992D01*
X-1884172Y7796225D01*
X-1886762Y7800644D01*
X-1889760Y7804403D01*
X-1893112Y7807452D01*
X-1896973Y7809890D01*
X-1901342Y7811770D01*
X-1906270Y7813141D01*
X-1900224Y7814462D01*
X-1894636Y7816240D01*
X-1889607Y7818374D01*
X-1885137Y7820914D01*
X-1881174Y7823809D01*
X-1877720Y7827009D01*
X-1874824Y7830464D01*
X-1872437Y7834172D01*
X-1870557Y7838084D01*
X-1869236Y7842148D01*
X-1868474Y7846415D01*
X-1868170Y7850733D01*
X-1868576Y7856677D01*
X-1869795Y7862163D01*
X-1871827Y7867192D01*
X-1874570Y7871764D01*
X-1878075Y7875828D01*
X-1882292Y7879435D01*
X-1887270Y7882483D01*
X-1892858Y7885023D01*
X-1899157Y7887004D01*
X-1906066Y7888427D01*
X-1913636Y7889290D01*
X-1921764Y7889595D01*
G37*
G36*
X-1839468Y7889595D02*
G01*
X-1839468Y7881975D01*
X-1823720Y7879943D01*
X-1821434Y7877149D01*
X-1821942Y7751165D01*
X-1840484Y7748371D01*
X-1840484Y7740751D01*
X-1787906Y7740751D01*
X-1787906Y7748371D01*
X-1811782Y7751419D01*
X-1812036Y7864195D01*
X-1721357Y7739227D01*
X-1713230Y7739227D01*
X-1713230Y7879435D01*
X-1694434Y7881975D01*
X-1694434Y7889595D01*
X-1747012Y7889595D01*
X-1747012Y7881975D01*
X-1723389Y7879181D01*
X-1722882Y7775803D01*
X-1805178Y7889595D01*
G37*
G36*
X-1452626Y7889595D02*
G01*
X-1452626Y7881975D01*
X-1431798Y7879689D01*
X-1431594Y7850276D01*
X-1431798Y7750657D01*
X-1452626Y7748371D01*
X-1452626Y7740751D01*
X-1390142Y7740751D01*
X-1390142Y7748371D01*
X-1410716Y7750657D01*
X-1411173Y7780426D01*
X-1411224Y7812633D01*
X-1338580Y7812633D01*
X-1338732Y7772552D01*
X-1339088Y7750657D01*
X-1359662Y7748371D01*
X-1359662Y7740751D01*
X-1297178Y7740751D01*
X-1297178Y7748371D01*
X-1318006Y7750657D01*
X-1318260Y7850378D01*
X-1318006Y7879689D01*
X-1297178Y7881975D01*
X-1297178Y7889595D01*
X-1359662Y7889595D01*
X-1359662Y7881975D01*
X-1339088Y7879689D01*
X-1338630Y7843316D01*
X-1338580Y7821523D01*
X-1411224Y7821523D01*
X-1410919Y7872526D01*
X-1410716Y7879689D01*
X-1390142Y7881975D01*
X-1390142Y7889595D01*
G37*
G36*
X-1277366Y7889595D02*
G01*
X-1277366Y7881975D01*
X-1256538Y7879689D01*
X-1256030Y7835493D01*
X-1256284Y7765491D01*
X-1256538Y7750657D01*
X-1277366Y7748371D01*
X-1277366Y7740751D01*
X-1166876Y7740751D01*
X-1165352Y7782661D01*
X-1176782Y7782661D01*
X-1184148Y7750403D01*
X-1235456Y7750403D01*
X-1235659Y7771993D01*
X-1235456Y7879689D01*
X-1214374Y7881975D01*
X-1214374Y7889595D01*
G37*
G36*
X-2354326Y7850225D02*
G01*
X-2360269Y7849006D01*
X-2365095Y7845704D01*
X-2368397Y7840827D01*
X-2369566Y7834731D01*
X-2368397Y7829092D01*
X-2365095Y7824419D01*
X-2360269Y7821218D01*
X-2354326Y7819999D01*
X-2348433Y7821218D01*
X-2343556Y7824419D01*
X-2340305Y7829092D01*
X-2339086Y7834731D01*
X-2340305Y7840827D01*
X-2343556Y7845704D01*
X-2348433Y7849006D01*
G37*
G36*
X-1677416Y7803235D02*
G01*
X-1677416Y7790027D01*
X-1625600Y7790027D01*
X-1625600Y7803235D01*
G37*
G36*
X-1035050Y7803235D02*
G01*
X-1035050Y7790027D01*
X-983234Y7790027D01*
X-983234Y7803235D01*
G37*
G36*
X-2354326Y7768183D02*
G01*
X-2360269Y7766964D01*
X-2365095Y7763662D01*
X-2368397Y7758785D01*
X-2369566Y7752689D01*
X-2368397Y7747050D01*
X-2365095Y7742377D01*
X-2360269Y7739176D01*
X-2354326Y7737957D01*
X-2348433Y7739176D01*
X-2343556Y7742377D01*
X-2340305Y7747050D01*
X-2339086Y7752689D01*
X-2340305Y7758785D01*
X-2343556Y7763662D01*
X-2348433Y7766964D01*
G37*
G36*
X-715213Y-792480D02*
G01*
X-715213Y-822960D01*
X-680008Y-822960D01*
X-680008Y-792480D01*
G37*
G36*
X-589991Y-792480D02*
G01*
X-589991Y-822960D01*
X-554736Y-822960D01*
X-554736Y-792480D01*
G37*
G36*
X-492759Y-317500D02*
G01*
X-492759Y-347980D01*
X-457504Y-347980D01*
X-457504Y-317500D01*
G37*
G36*
X-367487Y-317500D02*
G01*
X-367487Y-347980D01*
X-332282Y-347980D01*
X-332282Y-317500D01*
G37*
D10*
X297599Y5603031D02*
G01*
X297599Y6407056D01*
X602399Y5602917D02*
G01*
X602399Y6406941D01*
D11*
X-2331626Y5290129D02*
G01*
X-2252616Y5290129D01*
X-2252616Y5389849D02*
G01*
X-2331626Y5389849D01*
X-2346866Y5374609D02*
G01*
X-2346866Y5305369D01*
X-2128365Y5290129D02*
G01*
X-2207374Y5290129D01*
X-2207374Y5389849D02*
G01*
X-2128365Y5389849D01*
X-2113125Y5374609D02*
G01*
X-2113125Y5305369D01*
X-2337602Y5457370D02*
G01*
X-2337602Y5672609D01*
X-2122363Y5457370D02*
G01*
X-2122363Y5672609D01*
D12*
X-293801Y4929845D02*
G01*
X-328802Y4929845D01*
X-328802Y4894844D01*
X143083Y4934163D02*
G01*
X178084Y4934163D01*
X178084Y4899162D01*
X175798Y4463039D02*
G01*
X175798Y4428037D01*
X140797Y4428037D01*
X-329819Y4458721D02*
G01*
X-329819Y4423719D01*
X-294817Y4423719D01*
D11*
X868Y5455127D02*
G01*
X79877Y5455127D01*
X79877Y5554847D02*
G01*
X868Y5554847D01*
X-14371Y5539607D02*
G01*
X-14371Y5470367D01*
X204129Y5455127D02*
G01*
X125120Y5455127D01*
X125120Y5554847D02*
G01*
X204129Y5554847D01*
X219369Y5539607D02*
G01*
X219369Y5470367D01*
X-179130Y5025128D02*
G01*
X-100121Y5025128D01*
X-100121Y5124848D02*
G01*
X-179130Y5124848D01*
X-194370Y5109608D02*
G01*
X-194370Y5040368D01*
X24129Y5025128D02*
G01*
X-54879Y5025128D01*
X-54879Y5124848D02*
G01*
X24129Y5124848D01*
X39370Y5109608D02*
G01*
X39370Y5040368D01*
X-786627Y4985128D02*
G01*
X-707618Y4985128D01*
X-707618Y5084848D02*
G01*
X-786627Y5084848D01*
X-801867Y5069608D02*
G01*
X-801867Y5000368D01*
X-583366Y4985128D02*
G01*
X-662376Y4985128D01*
X-662376Y5084848D02*
G01*
X-583366Y5084848D01*
X-568126Y5069608D02*
G01*
X-568126Y5000368D01*
X487883Y4664849D02*
G01*
X408873Y4664849D01*
X408873Y4565129D02*
G01*
X487883Y4565129D01*
X503123Y4580369D02*
G01*
X503123Y4649609D01*
X284622Y4664849D02*
G01*
X363631Y4664849D01*
X363631Y4565129D02*
G01*
X284622Y4565129D01*
X269382Y4580369D02*
G01*
X269382Y4649609D01*
X-638368Y4517351D02*
G01*
X-717377Y4517351D01*
X-717377Y4417631D02*
G01*
X-638368Y4417631D01*
X-623128Y4432871D02*
G01*
X-623128Y4502111D01*
X-841628Y4517351D02*
G01*
X-762619Y4517351D01*
X-762619Y4417631D02*
G01*
X-841628Y4417631D01*
X-856869Y4432871D02*
G01*
X-856869Y4502111D01*
X-505137Y4433359D02*
G01*
X-505137Y4512368D01*
X-604857Y4512368D02*
G01*
X-604857Y4433359D01*
X-589617Y4418119D02*
G01*
X-520377Y4418119D01*
X-505137Y4636620D02*
G01*
X-505137Y4557610D01*
X-604857Y4557610D02*
G01*
X-604857Y4636620D01*
X-589617Y4651860D02*
G01*
X-520377Y4651860D01*
X-390136Y4433359D02*
G01*
X-390136Y4512368D01*
X-489856Y4512368D02*
G01*
X-489856Y4433359D01*
X-474616Y4418119D02*
G01*
X-405376Y4418119D01*
X-390136Y4636620D02*
G01*
X-390136Y4557610D01*
X-489856Y4557610D02*
G01*
X-489856Y4636620D01*
X-474616Y4651860D02*
G01*
X-405376Y4651860D01*
X-929858Y5069121D02*
G01*
X-929858Y4990111D01*
X-830138Y4990111D02*
G01*
X-830138Y5069121D01*
X-845378Y5084361D02*
G01*
X-914618Y5084361D01*
X-929858Y4865860D02*
G01*
X-929858Y4944869D01*
X-830138Y4944869D02*
G01*
X-830138Y4865860D01*
X-845378Y4850620D02*
G01*
X-914618Y4850620D01*
X487883Y4519851D02*
G01*
X408873Y4519851D01*
X408873Y4420130D02*
G01*
X487883Y4420130D01*
X503123Y4435370D02*
G01*
X503123Y4504611D01*
X284622Y4519851D02*
G01*
X363631Y4519851D01*
X363631Y4420130D02*
G01*
X284622Y4420130D01*
X269382Y4435370D02*
G01*
X269382Y4504611D01*
X487883Y4809848D02*
G01*
X408873Y4809848D01*
X408873Y4710127D02*
G01*
X487883Y4710127D01*
X503123Y4725367D02*
G01*
X503123Y4794608D01*
X284622Y4809848D02*
G01*
X363631Y4809848D01*
X363631Y4710127D02*
G01*
X284622Y4710127D01*
X269382Y4725367D02*
G01*
X269382Y4794608D01*
D13*
X-216999Y5125003D02*
G01*
X-216999Y5025003D01*
X-298000Y5125003D02*
G01*
X-298000Y5025003D01*
D10*
X782500Y4664989D02*
G01*
X782500Y4769987D01*
X542500Y4664989D02*
G01*
X542500Y4769987D01*
X782500Y4564989D02*
G01*
X782500Y4459991D01*
X542500Y4564989D02*
G01*
X542500Y4459991D01*
X762500Y4804986D02*
G01*
X562500Y4804986D01*
X762500Y4424992D02*
G01*
X562500Y4424992D01*
X782500Y4769987D02*
G01*
X782500Y4784986D01*
X762500Y4804986D01*
X542500Y4769987D02*
G01*
X542500Y4784986D01*
X562500Y4804986D01*
X782500Y4459991D02*
G01*
X782500Y4444992D01*
X762500Y4424992D01*
X542500Y4459991D02*
G01*
X542500Y4444992D01*
X562500Y4424992D01*
X-767491Y4959979D02*
G01*
X-447492Y4959979D01*
X-767491Y4679980D02*
G01*
X-447492Y4679980D01*
D11*
X-2120135Y5154869D02*
G01*
X-2120135Y5083065D01*
X-2219855Y5083065D01*
X-2219855Y5154869D01*
X-2120135Y5200111D02*
G01*
X-2120135Y5271914D01*
X-2219855Y5271914D01*
X-2219855Y5200111D01*
X-2240132Y5154869D02*
G01*
X-2240132Y5083065D01*
X-2339853Y5083065D01*
X-2339853Y5154869D01*
X-2240132Y5200111D02*
G01*
X-2240132Y5271914D01*
X-2339853Y5271914D01*
X-2339853Y5200111D01*
D10*
X-1245636Y4262412D02*
G01*
X-1252425Y4262412D01*
X-1262425Y4262412D01*
X-1312425Y4212412D01*
X-1312425Y4125534D01*
X660689Y4262412D02*
G01*
X727575Y4262412D01*
X727575Y4125534D01*
X-1312425Y1219281D02*
G01*
X-1312425Y1082408D01*
X-1245610Y1082408D01*
X727575Y1219311D02*
G01*
X727575Y1082408D01*
X660689Y1082408D01*
D11*
X-2437356Y4374121D02*
G01*
X-2437356Y4295112D01*
X-2337635Y4295112D02*
G01*
X-2337635Y4374121D01*
X-2352875Y4389361D02*
G01*
X-2422116Y4389361D01*
X-2437356Y4170860D02*
G01*
X-2437356Y4249869D01*
X-2337635Y4249869D02*
G01*
X-2337635Y4170860D01*
X-2352875Y4155620D02*
G01*
X-2422116Y4155620D01*
X-2437356Y4704120D02*
G01*
X-2437356Y4625111D01*
X-2337635Y4625111D02*
G01*
X-2337635Y4704120D01*
X-2352875Y4719360D02*
G01*
X-2422116Y4719360D01*
X-2437356Y4500859D02*
G01*
X-2437356Y4579868D01*
X-2337635Y4579868D02*
G01*
X-2337635Y4500859D01*
X-2352875Y4485619D02*
G01*
X-2422116Y4485619D01*
X-2815132Y4500859D02*
G01*
X-2815132Y4579868D01*
X-2914853Y4579868D02*
G01*
X-2914853Y4500859D01*
X-2899613Y4485619D02*
G01*
X-2830372Y4485619D01*
X-2815132Y4704120D02*
G01*
X-2815132Y4625111D01*
X-2914853Y4625111D02*
G01*
X-2914853Y4704120D01*
X-2899613Y4719360D02*
G01*
X-2830372Y4719360D01*
X-2537325Y4756409D02*
G01*
X-2715166Y4756409D01*
X-2537325Y4448571D02*
G01*
X-2715166Y4448571D01*
D10*
X-1897494Y2023412D02*
G01*
X-1897496Y1271572D01*
X-2277496Y1964994D02*
G01*
X-2277496Y1324996D01*
X-2157491Y1244996D02*
G01*
X-1999929Y1244996D01*
X-1999929Y1244996D02*
G01*
X-1999929Y1331882D01*
X-1999929Y1958111D02*
G01*
X-1999929Y2044994D01*
X-1999929Y2044994D02*
G01*
X-2139929Y2044994D01*
X-1999929Y2023412D02*
G01*
X-1897494Y2023412D01*
X-1897494Y1271572D02*
G01*
X-1999929Y1271572D01*
D11*
X114640Y807493D02*
G01*
X114640Y734136D01*
X360354Y734136D01*
X360354Y807493D01*
X114640Y842495D02*
G01*
X114640Y915852D01*
X360354Y915852D01*
X360354Y842495D01*
X-1745350Y1616123D02*
G01*
X-1745350Y1475117D01*
X-1564634Y1475117D02*
G01*
X-1564634Y1616123D01*
X-1579877Y1631355D02*
G01*
X-1730108Y1631355D01*
X-1745350Y1253873D02*
G01*
X-1745350Y1394884D01*
X-1564634Y1394884D02*
G01*
X-1564634Y1253873D01*
X-1579877Y1238631D02*
G01*
X-1730108Y1238631D01*
D10*
X-3111593Y3591679D02*
G01*
X-3111593Y3604379D01*
X-2908393Y3604379D01*
X-2908393Y3591679D01*
X-3111593Y3591679D01*
X-3111593Y3556195D02*
G01*
X-3111593Y3579004D01*
X-2921093Y3579004D01*
X-2921093Y3556195D01*
X-3111593Y3556195D01*
X-3111593Y3423988D02*
G01*
X-3111593Y3855788D01*
X-2908393Y3855788D01*
X-2908393Y3423988D01*
X-3111593Y3423988D01*
D11*
X-1547637Y765119D02*
G01*
X-1547637Y844128D01*
X-1647357Y844128D02*
G01*
X-1647357Y765119D01*
X-1562877Y859368D02*
G01*
X-1632117Y859368D01*
X-1647357Y640867D02*
G01*
X-1647357Y719876D01*
X-1547637Y719876D02*
G01*
X-1547637Y640867D01*
X-1562877Y625627D02*
G01*
X-1632117Y625627D01*
D14*
X-1869988Y952926D02*
G01*
X-1829991Y952926D01*
X-1829998Y912494D01*
X-1829991Y572930D02*
G01*
X-1829991Y532932D01*
X-1869988Y532932D01*
X-2199998Y532498D02*
G01*
X-2249998Y532498D01*
X-2249998Y572495D01*
X-2209993Y952497D02*
G01*
X-2249998Y952497D01*
X-2249998Y912494D01*
D10*
X-2297511Y4659927D02*
G01*
X-2297511Y4392485D01*
X-897508Y4659927D02*
G01*
X-897508Y4392485D01*
X-2297511Y4392485D02*
G01*
X-897508Y4392485D01*
X-2297511Y4511164D02*
G01*
X-2210625Y4511164D01*
X-972510Y4772484D02*
G01*
X-2222510Y4772484D01*
X-2297511Y4659927D02*
G01*
X-2296454Y4659927D01*
X-984394Y4511164D02*
G01*
X-897508Y4511164D01*
X-984394Y4511164D02*
G01*
X-897508Y4511164D01*
D15*
X824999Y4932403D02*
G01*
X824999Y4952575D01*
X824999Y4852489D02*
G01*
X824999Y4852576D01*
X734997Y4982403D02*
G01*
X734997Y5032489D01*
X734997Y4852489D02*
G01*
X734997Y4902575D01*
X734997Y4852489D02*
G01*
X824999Y4852489D01*
X734997Y5032489D02*
G01*
X824999Y5032489D01*
X824999Y5032402D02*
G01*
X824999Y5032489D01*
X547585Y872500D02*
G01*
X527413Y872500D01*
X627499Y872500D02*
G01*
X627413Y872500D01*
X497585Y782497D02*
G01*
X447499Y782497D01*
X627499Y782497D02*
G01*
X577413Y782497D01*
X627499Y782497D02*
G01*
X627499Y872500D01*
X447499Y782497D02*
G01*
X447499Y872500D01*
X447586Y872500D02*
G01*
X447499Y872500D01*
D10*
X-2179988Y2252499D02*
G01*
X-2004999Y2252499D01*
X-2179988Y2092500D02*
G01*
X-2004999Y2092500D01*
D11*
X475104Y-592642D02*
G01*
X546907Y-592642D01*
X546907Y-692363D01*
X475104Y-692363D01*
X429861Y-592642D02*
G01*
X358058Y-592642D01*
X358058Y-692363D01*
X429861Y-692363D01*
X429861Y-837364D02*
G01*
X358058Y-837364D01*
X358058Y-737643D01*
X429861Y-737643D01*
X475104Y-837364D02*
G01*
X546907Y-837364D01*
X546907Y-737643D01*
X475104Y-737643D01*
D10*
X-670006Y-1152504D02*
G01*
X-670006Y-1932513D01*
X-1450014Y-1932513D01*
X-1450014Y-1152504D01*
X-670006Y-1152504D01*
D16*
X-512498Y861011D02*
G01*
X-512498Y912497D01*
X-512498Y734011D02*
G01*
X-512498Y744984D01*
X-512498Y607011D02*
G01*
X-512498Y617984D01*
X-512498Y480011D02*
G01*
X-512498Y490984D01*
X-1312496Y363984D02*
G01*
X-1312496Y312498D01*
X-512498Y312498D01*
X-512498Y363984D01*
X-1312496Y490984D02*
G01*
X-1312496Y480011D01*
X-1312496Y617984D02*
G01*
X-1312496Y607011D01*
X-1312496Y744984D02*
G01*
X-1312496Y734011D01*
X-512498Y912497D02*
G01*
X-1312496Y912497D01*
X-1312496Y861011D01*
D10*
X-3044888Y4513105D02*
G01*
X-3044888Y4691875D01*
X-2981896Y4513590D02*
G01*
X-2981896Y4514377D01*
X-2981896Y4690602D02*
G01*
X-2981896Y4691390D01*
D12*
X-548098Y-1148885D02*
G01*
X292641Y-1148885D01*
X292641Y-1628995D01*
X-636998Y-1628995D01*
X-636998Y-1148885D01*
X-520158Y-1148885D01*
X-116298Y-1148885D01*
X-229621Y-1148892D02*
G01*
X-229621Y-892378D01*
X-120388Y-892378D01*
X-120388Y-1148892D01*
X-530613Y-1148892D02*
G01*
X-530613Y-892378D01*
X-421380Y-892378D01*
X-421380Y-1148892D01*
X71381Y-1148897D02*
G01*
X71381Y-892390D01*
X180614Y-892390D01*
X180614Y-1148897D01*
D10*
X-3303960Y4987488D02*
G01*
X-3303960Y5887486D01*
X-3143275Y4980287D02*
G01*
X-3303960Y4980287D01*
X-2551960Y5810615D02*
G01*
X-2551960Y5851070D01*
X-2551960Y5023904D02*
G01*
X-2551960Y5064384D01*
X-2947045Y4980287D02*
G01*
X-2708275Y4980287D01*
X-2947045Y5887486D02*
G01*
X-2708275Y5887486D01*
X-3303960Y5887486D02*
G01*
X-3143275Y5887486D01*
D14*
X-177929Y462506D02*
G01*
X-177929Y502503D01*
X-137497Y502495D01*
X202067Y502503D02*
G01*
X242064Y502503D01*
X242064Y462506D01*
X242498Y132496D02*
G01*
X242498Y82496D01*
X202501Y82496D01*
X-177500Y122501D02*
G01*
X-177500Y82496D01*
X-137497Y82496D01*
D11*
X-832357Y-737621D02*
G01*
X-832357Y-816630D01*
X-732637Y-816630D02*
G01*
X-732637Y-737621D01*
X-817118Y-831870D02*
G01*
X-747877Y-831870D01*
X-732637Y-613369D02*
G01*
X-732637Y-692378D01*
X-832357Y-692378D02*
G01*
X-832357Y-613369D01*
X-817118Y-598129D02*
G01*
X-747877Y-598129D01*
X-727618Y-2641D02*
G01*
X-806627Y-2641D01*
X-806627Y-102362D02*
G01*
X-727618Y-102362D01*
X-821867Y-17881D02*
G01*
X-821867Y-87122D01*
X-603366Y-102362D02*
G01*
X-682376Y-102362D01*
X-682376Y-2641D02*
G01*
X-603366Y-2641D01*
X-588126Y-17881D02*
G01*
X-588126Y-87122D01*
D16*
X-562376Y-624875D02*
G01*
X-582998Y-624875D01*
X-707618Y-624875D02*
G01*
X-687997Y-624875D01*
D11*
X-707618Y-800120D02*
G01*
X-707618Y-624875D01*
X-562376Y-800120D02*
G01*
X-562376Y-624875D01*
X-707618Y-759675D02*
G01*
X-562376Y-759675D01*
D12*
X-724997Y-159999D02*
G01*
X-724997Y-479999D01*
X-724997Y-159999D02*
G01*
X-684997Y-159999D01*
X-684997Y-159999D02*
G01*
X-684997Y-479999D01*
X-724997Y-479999D02*
G01*
X-684997Y-479999D01*
D11*
X598558Y410121D02*
G01*
X598558Y506008D01*
X466437Y506008D01*
X466437Y410121D01*
X598558Y324878D02*
G01*
X598558Y228991D01*
X466437Y228991D01*
X466437Y324878D01*
X462638Y191630D02*
G01*
X462638Y112621D01*
X562358Y112621D02*
G01*
X562358Y191630D01*
X547118Y206870D02*
G01*
X477878Y206870D01*
X462638Y-11630D02*
G01*
X462638Y67378D01*
X562358Y67378D02*
G01*
X562358Y-11630D01*
X547118Y-26870D02*
G01*
X477878Y-26870D01*
X-2724871Y252359D02*
G01*
X-2653068Y252359D01*
X-2653068Y152638D01*
X-2724871Y152638D01*
X-2770113Y252359D02*
G01*
X-2841917Y252359D01*
X-2841917Y152638D01*
X-2770113Y152638D01*
X-2645864Y137360D02*
G01*
X-2724873Y137360D01*
X-2724873Y37640D02*
G01*
X-2645864Y37640D01*
X-2630624Y52880D02*
G01*
X-2630624Y122120D01*
X-2849125Y137360D02*
G01*
X-2770116Y137360D01*
X-2770116Y37640D02*
G01*
X-2849125Y37640D01*
X-2864365Y52880D02*
G01*
X-2864365Y122120D01*
X-1642374Y370138D02*
G01*
X-1563364Y370138D01*
X-1563364Y469859D02*
G01*
X-1642374Y469859D01*
X-1548124Y385378D02*
G01*
X-1548124Y454619D01*
X-1766625Y469859D02*
G01*
X-1687616Y469859D01*
X-1687616Y370138D02*
G01*
X-1766625Y370138D01*
X-1781865Y385378D02*
G01*
X-1781865Y454619D01*
D14*
X-1777926Y245005D02*
G01*
X-1777926Y285003D01*
X-1737494Y284995D01*
X-1397929Y285003D02*
G01*
X-1357932Y285003D01*
X-1357932Y245005D01*
X-1357497Y-85003D02*
G01*
X-1357497Y-135003D01*
X-1397495Y-135003D01*
X-1777497Y-94998D02*
G01*
X-1777497Y-135003D01*
X-1737494Y-135003D01*
D17*
X-2742912Y602498D02*
G01*
X-2752072Y602498D01*
X-2742912Y402498D02*
G01*
X-2752072Y402498D01*
X-2827494Y517083D02*
G01*
X-2827497Y487913D01*
X-2667495Y517083D02*
G01*
X-2667495Y487913D01*
D11*
X-2328364Y627359D02*
G01*
X-2407373Y627359D01*
X-2407373Y527639D02*
G01*
X-2328364Y527639D01*
X-2313124Y542879D02*
G01*
X-2313124Y612119D01*
X-2531625Y627359D02*
G01*
X-2452616Y627359D01*
X-2452616Y527639D02*
G01*
X-2531625Y527639D01*
X-2546865Y542879D02*
G01*
X-2546865Y612119D01*
X-2645864Y22359D02*
G01*
X-2724873Y22359D01*
X-2724873Y-77360D02*
G01*
X-2645864Y-77360D01*
X-2630624Y-62120D02*
G01*
X-2630624Y7119D01*
X-2849125Y22359D02*
G01*
X-2770116Y22359D01*
X-2770116Y-77360D02*
G01*
X-2849125Y-77360D01*
X-2864365Y-62120D02*
G01*
X-2864365Y7119D01*
X-2645864Y367360D02*
G01*
X-2724873Y367360D01*
X-2724873Y267639D02*
G01*
X-2645864Y267639D01*
X-2630624Y282879D02*
G01*
X-2630624Y352120D01*
X-2849125Y367360D02*
G01*
X-2770116Y367360D01*
X-2770116Y267639D02*
G01*
X-2849125Y267639D01*
X-2864365Y282879D02*
G01*
X-2864365Y352120D01*
X-2645864Y-482638D02*
G01*
X-2724873Y-482638D01*
X-2724873Y-582358D02*
G01*
X-2645864Y-582358D01*
X-2630624Y-567118D02*
G01*
X-2630624Y-497878D01*
X-2849125Y-482638D02*
G01*
X-2770116Y-482638D01*
X-2770116Y-582358D02*
G01*
X-2849125Y-582358D01*
X-2864365Y-567118D02*
G01*
X-2864365Y-497878D01*
X-2645864Y-367639D02*
G01*
X-2724873Y-367639D01*
X-2724873Y-467360D02*
G01*
X-2645864Y-467360D01*
X-2630624Y-452119D02*
G01*
X-2630624Y-382879D01*
X-2849125Y-367639D02*
G01*
X-2770116Y-367639D01*
X-2770116Y-467360D02*
G01*
X-2849125Y-467360D01*
X-2864365Y-452119D02*
G01*
X-2864365Y-382879D01*
D10*
X-2454998Y387512D02*
G01*
X-2510116Y332394D01*
X-2510116Y332394D01*
X-2009995Y327499D02*
G01*
X-2009990Y357540D01*
X-2039962Y387512D01*
X-2069995Y387499D01*
X-2009995Y-152499D02*
G01*
X-2009995Y-182499D01*
X-2039995Y-212498D01*
X-2069995Y-212498D01*
X-2449918Y-212435D02*
G01*
X-2484970Y-212435D01*
X-2510116Y-187543D01*
X-2510116Y-152491D01*
D11*
X-1523365Y-892637D02*
G01*
X-1602374Y-892637D01*
X-1602374Y-992357D02*
G01*
X-1523365Y-992357D01*
X-1508125Y-977117D02*
G01*
X-1508125Y-907877D01*
X-1726625Y-892637D02*
G01*
X-1647616Y-892637D01*
X-1647616Y-992357D02*
G01*
X-1726625Y-992357D01*
X-1741865Y-977117D02*
G01*
X-1741865Y-907877D01*
X-1377635Y-979126D02*
G01*
X-1377635Y-900117D01*
X-1477355Y-900117D02*
G01*
X-1477355Y-979126D01*
X-1462115Y-994366D02*
G01*
X-1392875Y-994366D01*
X-1377635Y-775865D02*
G01*
X-1377635Y-854875D01*
X-1477355Y-854875D02*
G01*
X-1477355Y-775865D01*
X-1462115Y-760625D02*
G01*
X-1392875Y-760625D01*
X-1523365Y-365137D02*
G01*
X-1602374Y-365137D01*
X-1602374Y-464858D02*
G01*
X-1523365Y-464858D01*
X-1508125Y-449618D02*
G01*
X-1508125Y-380377D01*
X-1726625Y-365137D02*
G01*
X-1647616Y-365137D01*
X-1647616Y-464858D02*
G01*
X-1726625Y-464858D01*
X-1741865Y-449618D02*
G01*
X-1741865Y-380377D01*
X-1110866Y-365137D02*
G01*
X-1189875Y-365137D01*
X-1189875Y-464858D02*
G01*
X-1110866Y-464858D01*
X-1095626Y-449618D02*
G01*
X-1095626Y-380377D01*
X-1314127Y-365137D02*
G01*
X-1235118Y-365137D01*
X-1235118Y-464858D02*
G01*
X-1314127Y-464858D01*
X-1329367Y-449618D02*
G01*
X-1329367Y-380377D01*
X-962637Y-979126D02*
G01*
X-962637Y-900117D01*
X-1062357Y-900117D02*
G01*
X-1062357Y-979126D01*
X-1047117Y-994366D02*
G01*
X-977877Y-994366D01*
X-962637Y-775865D02*
G01*
X-962637Y-854875D01*
X-1062357Y-854875D02*
G01*
X-1062357Y-775865D01*
X-1047117Y-760625D02*
G01*
X-977877Y-760625D01*
X-1314127Y-992357D02*
G01*
X-1235118Y-992357D01*
X-1235118Y-892637D02*
G01*
X-1314127Y-892637D01*
X-1329367Y-907877D02*
G01*
X-1329367Y-977117D01*
X-1110866Y-992357D02*
G01*
X-1189875Y-992357D01*
X-1189875Y-892637D02*
G01*
X-1110866Y-892637D01*
X-1095626Y-907877D02*
G01*
X-1095626Y-977117D01*
X-1477355Y-437375D02*
G01*
X-1477355Y-365572D01*
X-1377635Y-365572D01*
X-1377635Y-437375D01*
X-1477355Y-482617D02*
G01*
X-1477355Y-554421D01*
X-1377635Y-554421D01*
X-1377635Y-482617D01*
X-1377635Y-670118D02*
G01*
X-1377635Y-741921D01*
X-1477355Y-741921D01*
X-1477355Y-670118D01*
X-1377635Y-624875D02*
G01*
X-1377635Y-553072D01*
X-1477355Y-553072D01*
X-1477355Y-624875D01*
X-1062357Y-437375D02*
G01*
X-1062357Y-365572D01*
X-962637Y-365572D01*
X-962637Y-437375D01*
X-1062357Y-482617D02*
G01*
X-1062357Y-554421D01*
X-962637Y-554421D01*
X-962637Y-482617D01*
X-962637Y-670118D02*
G01*
X-962637Y-741921D01*
X-1062357Y-741921D01*
X-1062357Y-670118D01*
X-962637Y-624875D02*
G01*
X-962637Y-553072D01*
X-1062357Y-553072D01*
X-1062357Y-624875D01*
X-1742615Y-782617D02*
G01*
X-1742615Y-567377D01*
X-1527375Y-782617D02*
G01*
X-1527375Y-567377D01*
X-1320116Y-782617D02*
G01*
X-1320116Y-567377D01*
X-1104877Y-782617D02*
G01*
X-1104877Y-567377D01*
X-632391Y-1117630D02*
G01*
X-847631Y-1117630D01*
X-632391Y-902390D02*
G01*
X-847631Y-902390D01*
D16*
X-339892Y-149877D02*
G01*
X-360514Y-149877D01*
X-485134Y-149877D02*
G01*
X-465513Y-149877D01*
D11*
X-485134Y-325122D02*
G01*
X-485134Y-149877D01*
X-339892Y-325122D02*
G01*
X-339892Y-149877D01*
X-485134Y-284678D02*
G01*
X-339892Y-284678D01*
X-682376Y112359D02*
G01*
X-610572Y112359D01*
X-610572Y12639D01*
X-682376Y12639D01*
X-727618Y112359D02*
G01*
X-799421Y112359D01*
X-799421Y12639D01*
X-727618Y12639D01*
X-682376Y227360D02*
G01*
X-610572Y227360D01*
X-610572Y127640D01*
X-682376Y127640D01*
X-727618Y227360D02*
G01*
X-799421Y227360D01*
X-799421Y127640D01*
X-727618Y127640D01*
X-132359Y777377D02*
G01*
X-132359Y698367D01*
X-32639Y698367D02*
G01*
X-32639Y777377D01*
X-117119Y683127D02*
G01*
X-47878Y683127D01*
X-32639Y901628D02*
G01*
X-32639Y822619D01*
X-132359Y822619D02*
G01*
X-132359Y901628D01*
X-117119Y916868D02*
G01*
X-47878Y916868D01*
X646120Y5032849D02*
G01*
X505119Y5032849D01*
X505119Y4852128D02*
G01*
X646120Y4852128D01*
X661360Y4867368D02*
G01*
X661360Y5017609D01*
X283880Y5032849D02*
G01*
X424881Y5032849D01*
X424881Y4852128D02*
G01*
X283880Y4852128D01*
X268640Y4867368D02*
G01*
X268640Y5017609D01*
X-310883Y-430141D02*
G01*
X-389892Y-430141D01*
X-389892Y-529861D02*
G01*
X-310883Y-529861D01*
X-295643Y-514621D02*
G01*
X-295643Y-445381D01*
X-514144Y-430141D02*
G01*
X-435135Y-430141D01*
X-435135Y-529861D02*
G01*
X-514144Y-529861D01*
X-529384Y-514621D02*
G01*
X-529384Y-445381D01*
D18*
X-2309995Y6040493D02*
G01*
X-2309995Y6044986D01*
X-2275474Y6044986D01*
X-2309995Y5904986D02*
G01*
X-2309995Y5909480D01*
X-2184491Y6044986D02*
G01*
X-2149995Y6044986D01*
X-2149995Y6040518D01*
X-2149995Y5909480D02*
G01*
X-2149995Y5904986D01*
X-2184542Y5904986D01*
X-2275448Y5904986D02*
G01*
X-2309995Y5904986D01*
D11*
X-2724873Y1039858D02*
G01*
X-2653070Y1039858D01*
X-2653070Y940137D01*
X-2724873Y940137D01*
X-2770116Y1039858D02*
G01*
X-2841919Y1039858D01*
X-2841919Y940137D01*
X-2770116Y940137D01*
X-2960133Y3284872D02*
G01*
X-2960133Y3213069D01*
X-3059854Y3213069D01*
X-3059854Y3284872D01*
X-2960133Y3330115D02*
G01*
X-2960133Y3401918D01*
X-3059854Y3401918D01*
X-3059854Y3330115D01*
X-2407373Y3177354D02*
G01*
X-2335570Y3177354D01*
X-2335570Y3077634D01*
X-2407373Y3077634D01*
X-2452616Y3177354D02*
G01*
X-2524419Y3177354D01*
X-2524419Y3077634D01*
X-2452616Y3077634D01*
D19*
X-2308230Y3173227D02*
G01*
X-2258227Y3123227D01*
X-2308230Y3073224D01*
X-2308230Y3173227D01*
X-2040244Y3188510D02*
G01*
X-2123394Y3271659D01*
X-2081596Y3180059D02*
G01*
X-2123094Y3221558D01*
X-2232494Y3072493D02*
G01*
X-2232494Y3832491D01*
X-1472496Y3832491D01*
X-1472496Y3072493D01*
X-2232494Y3072493D01*
D11*
X-1522636Y3967370D02*
G01*
X-1522636Y3895567D01*
X-1622356Y3895567D01*
X-1622356Y3967370D01*
X-1522636Y4012613D02*
G01*
X-1522636Y4084416D01*
X-1622356Y4084416D01*
X-1622356Y4012613D01*
X-2645864Y-597639D02*
G01*
X-2724873Y-597639D01*
X-2724873Y-697359D02*
G01*
X-2645864Y-697359D01*
X-2630624Y-682119D02*
G01*
X-2630624Y-612879D01*
X-2849125Y-597639D02*
G01*
X-2770116Y-597639D01*
X-2770116Y-697359D02*
G01*
X-2849125Y-697359D01*
X-2864365Y-682119D02*
G01*
X-2864365Y-612879D01*
X-2645864Y-942639D02*
G01*
X-2724873Y-942639D01*
X-2724873Y-1042360D02*
G01*
X-2645864Y-1042360D01*
X-2630624Y-1027120D02*
G01*
X-2630624Y-957879D01*
X-2849125Y-942639D02*
G01*
X-2770116Y-942639D01*
X-2770116Y-1042360D02*
G01*
X-2849125Y-1042360D01*
X-2864365Y-1027120D02*
G01*
X-2864365Y-957879D01*
X-2645864Y-712637D02*
G01*
X-2724873Y-712637D01*
X-2724873Y-812358D02*
G01*
X-2645864Y-812358D01*
X-2630624Y-797118D02*
G01*
X-2630624Y-727877D01*
X-2849125Y-712637D02*
G01*
X-2770116Y-712637D01*
X-2770116Y-812358D02*
G01*
X-2849125Y-812358D01*
X-2864365Y-797118D02*
G01*
X-2864365Y-727877D01*
X-1882355Y-633369D02*
G01*
X-1882355Y-712378D01*
X-1782635Y-712378D02*
G01*
X-1782635Y-633369D01*
X-1797875Y-618129D02*
G01*
X-1867115Y-618129D01*
X-1882355Y-836630D02*
G01*
X-1882355Y-757621D01*
X-1782635Y-757621D02*
G01*
X-1782635Y-836630D01*
X-1797875Y-851870D02*
G01*
X-1867115Y-851870D01*
X-2645864Y-827638D02*
G01*
X-2724873Y-827638D01*
X-2724873Y-927359D02*
G01*
X-2645864Y-927359D01*
X-2630624Y-912119D02*
G01*
X-2630624Y-842878D01*
X-2849125Y-827638D02*
G01*
X-2770116Y-827638D01*
X-2770116Y-927359D02*
G01*
X-2849125Y-927359D01*
X-2864365Y-912119D02*
G01*
X-2864365Y-842878D01*
X-1782635Y-584128D02*
G01*
X-1782635Y-505119D01*
X-1882355Y-505119D02*
G01*
X-1882355Y-584128D01*
X-1867115Y-599368D02*
G01*
X-1797875Y-599368D01*
X-1782635Y-380867D02*
G01*
X-1782635Y-459877D01*
X-1882355Y-459877D02*
G01*
X-1882355Y-380867D01*
X-1867115Y-365627D02*
G01*
X-1797875Y-365627D01*
D16*
X-2521221Y-897488D02*
G01*
X-2521221Y-922484D01*
X-2496230Y-947475D01*
X-2471234Y-947475D01*
X-2521173Y-427753D02*
G01*
X-2521173Y-477740D01*
X-2000999Y-427753D02*
G01*
X-2050986Y-427753D01*
X-2001426Y-947729D02*
G01*
X-2051413Y-947729D01*
X-2000999Y-427753D02*
G01*
X-2000999Y-477740D01*
X-2001426Y-947729D02*
G01*
X-2001426Y-897742D01*
X-2521173Y-427753D02*
G01*
X-2471183Y-427753D01*
D11*
X462622Y-63373D02*
G01*
X462622Y-142382D01*
X562343Y-142382D02*
G01*
X562343Y-63373D01*
X547103Y-48132D02*
G01*
X477862Y-48132D01*
X462622Y-266633D02*
G01*
X462622Y-187624D01*
X562343Y-187624D02*
G01*
X562343Y-266633D01*
X547103Y-281873D02*
G01*
X477862Y-281873D01*
X562343Y-516633D02*
G01*
X562343Y-437624D01*
X462622Y-437624D02*
G01*
X462622Y-516633D01*
X477862Y-531873D02*
G01*
X547103Y-531873D01*
X562343Y-313372D02*
G01*
X562343Y-392381D01*
X462622Y-392381D02*
G01*
X462622Y-313372D01*
X477862Y-298132D02*
G01*
X547103Y-298132D01*
D10*
X-354040Y-686130D02*
G01*
X-354040Y-606127D01*
X-243060Y-575147D02*
G01*
X-323060Y-575147D01*
X-212077Y-686130D02*
G01*
X-212077Y-606127D01*
X-354624Y-743719D02*
G01*
X-354624Y-823714D01*
X-212661Y-743719D02*
G01*
X-212661Y-823714D01*
X-243641Y-854697D02*
G01*
X-323644Y-854697D01*
X-526531Y-686135D02*
G01*
X-526531Y-606132D01*
X-415551Y-575152D02*
G01*
X-495551Y-575152D01*
X-384568Y-686135D02*
G01*
X-384568Y-606132D01*
X-527116Y-743724D02*
G01*
X-527116Y-823719D01*
X-385152Y-743724D02*
G01*
X-385152Y-823719D01*
X-416133Y-854702D02*
G01*
X-496135Y-854702D01*
X182346Y-590458D02*
G01*
X-117652Y-590458D01*
X182346Y-849538D02*
G01*
X-117652Y-849538D01*
D11*
X240395Y-447723D02*
G01*
X240395Y-497293D01*
X190825Y-497293D01*
X-174843Y-447723D02*
G01*
X-174843Y-497293D01*
X-125272Y-497293D01*
X240395Y-131625D02*
G01*
X240395Y-82054D01*
X190825Y-82054D01*
X-174843Y-131625D02*
G01*
X-174843Y-82054D01*
X-125272Y-82054D01*
X562620Y-1095118D02*
G01*
X347380Y-1095118D01*
X562620Y-879878D02*
G01*
X347380Y-879878D01*
X-1317376Y-1124859D02*
G01*
X-1238366Y-1124859D01*
X-1238366Y-1025138D02*
G01*
X-1317376Y-1025138D01*
X-1223126Y-1109619D02*
G01*
X-1223126Y-1040378D01*
X-1441627Y-1025138D02*
G01*
X-1362618Y-1025138D01*
X-1362618Y-1124859D02*
G01*
X-1441627Y-1124859D01*
X-1456867Y-1109619D02*
G01*
X-1456867Y-1040378D01*
X556630Y-1127638D02*
G01*
X477621Y-1127638D01*
X477621Y-1227358D02*
G01*
X556630Y-1227358D01*
X571870Y-1212118D02*
G01*
X571870Y-1142878D01*
X353369Y-1127638D02*
G01*
X432379Y-1127638D01*
X432379Y-1227358D02*
G01*
X353369Y-1227358D01*
X338129Y-1212118D02*
G01*
X338129Y-1142878D01*
X442346Y-266633D02*
G01*
X442346Y-187624D01*
X342625Y-187624D02*
G01*
X342625Y-266633D01*
X357865Y-281873D02*
G01*
X427106Y-281873D01*
X442346Y-63373D02*
G01*
X442346Y-142382D01*
X342625Y-142382D02*
G01*
X342625Y-63373D01*
X357865Y-48132D02*
G01*
X427106Y-48132D01*
X442346Y-516633D02*
G01*
X442346Y-437624D01*
X342625Y-437624D02*
G01*
X342625Y-516633D01*
X357865Y-531873D02*
G01*
X427106Y-531873D01*
X442346Y-313372D02*
G01*
X442346Y-392381D01*
X342625Y-392381D02*
G01*
X342625Y-313372D01*
X357865Y-298132D02*
G01*
X427106Y-298132D01*
X446519Y-2426248D02*
G01*
X502386Y-2482115D01*
X572899Y-2411603D02*
G01*
X517032Y-2355735D01*
X523941Y-2482115D02*
G01*
X572899Y-2433157D01*
X429173Y-2267877D02*
G01*
X485040Y-2323744D01*
X414527Y-2394257D02*
G01*
X358660Y-2338390D01*
X358660Y-2316835D02*
G01*
X407619Y-2267877D01*
X-2849125Y-1157358D02*
G01*
X-2770116Y-1157358D01*
X-2770116Y-1057638D02*
G01*
X-2849125Y-1057638D01*
X-2864365Y-1072878D02*
G01*
X-2864365Y-1142118D01*
X-2645864Y-1157358D02*
G01*
X-2724873Y-1157358D01*
X-2724873Y-1057638D02*
G01*
X-2645864Y-1057638D01*
X-2630624Y-1072878D02*
G01*
X-2630624Y-1142118D01*
X-1882355Y-940866D02*
G01*
X-1882355Y-1019876D01*
X-1782635Y-1019876D02*
G01*
X-1782635Y-940866D01*
X-1797875Y-925626D02*
G01*
X-1867115Y-925626D01*
X-1882355Y-1144127D02*
G01*
X-1882355Y-1065118D01*
X-1782635Y-1065118D02*
G01*
X-1782635Y-1144127D01*
X-1797875Y-1159367D02*
G01*
X-1867115Y-1159367D01*
X-2192868Y-1157351D02*
G01*
X-2113859Y-1157351D01*
X-2113859Y-1057630D02*
G01*
X-2192868Y-1057630D01*
X-2208108Y-1072873D02*
G01*
X-2208108Y-1142108D01*
X-1989607Y-1157351D02*
G01*
X-2068616Y-1157351D01*
X-2068616Y-1057630D02*
G01*
X-1989607Y-1057630D01*
X-1974367Y-1072873D02*
G01*
X-1974367Y-1142108D01*
X-2502870Y-1157351D02*
G01*
X-2423861Y-1157351D01*
X-2423861Y-1057630D02*
G01*
X-2502870Y-1057630D01*
X-2518110Y-1072870D02*
G01*
X-2518110Y-1142111D01*
X-2299609Y-1157351D02*
G01*
X-2378618Y-1157351D01*
X-2378618Y-1057630D02*
G01*
X-2299609Y-1057630D01*
X-2284369Y-1072870D02*
G01*
X-2284369Y-1142111D01*
D10*
X518706Y-2534056D02*
G01*
X527687Y-2543035D01*
X518706Y-2552016D01*
X509727Y-2543035D01*
X518706Y-2534056D01*
X286565Y-2329561D02*
G01*
X312132Y-2355128D01*
X352935Y-2395931D02*
G01*
X432343Y-2475339D01*
X473146Y-2516141D02*
G01*
X498695Y-2541691D01*
X498693Y-2541694D02*
G01*
X474786Y-2565600D01*
X427835Y-2612555D02*
G01*
X300840Y-2739550D01*
X253885Y-2786501D02*
G01*
X229994Y-2810393D01*
X229994Y-2810393D02*
G01*
X204485Y-2784883D01*
X163601Y-2743997D02*
G01*
X84277Y-2664673D01*
X43390Y-2623789D02*
G01*
X17863Y-2598259D01*
X17863Y-2598259D02*
G01*
X41790Y-2574333D01*
X88671Y-2527452D02*
G01*
X215737Y-2400386D01*
X262618Y-2353505D02*
G01*
X286565Y-2329561D01*
D11*
X-315120Y914857D02*
G01*
X-394129Y914857D01*
X-394129Y815136D02*
G01*
X-315120Y815136D01*
X-409369Y899617D02*
G01*
X-409369Y830376D01*
X-190868Y815136D02*
G01*
X-269877Y815136D01*
X-269877Y914857D02*
G01*
X-190868Y914857D01*
X-175628Y899617D02*
G01*
X-175628Y830376D01*
X-394129Y695137D02*
G01*
X-315120Y695137D01*
X-315120Y794857D02*
G01*
X-394129Y794857D01*
X-409369Y779617D02*
G01*
X-409369Y710377D01*
X-190868Y695137D02*
G01*
X-269877Y695137D01*
X-269877Y794857D02*
G01*
X-190868Y794857D01*
X-175628Y779617D02*
G01*
X-175628Y710377D01*
X-342638Y384878D02*
G01*
X-342638Y313075D01*
X-442358Y313075D01*
X-442358Y384878D01*
X-342638Y430121D02*
G01*
X-342638Y501924D01*
X-442358Y501924D01*
X-442358Y430121D01*
X-1654637Y4004995D02*
G01*
X-1654637Y4078353D01*
X-1900351Y4078353D01*
X-1900351Y4004995D01*
X-1654637Y3969994D02*
G01*
X-1654637Y3896636D01*
X-1900351Y3896636D01*
X-1900351Y3969994D01*
X-1312857Y177495D02*
G01*
X-1312857Y104137D01*
X-1067142Y104137D01*
X-1067142Y177495D01*
X-1312857Y212496D02*
G01*
X-1312857Y285854D01*
X-1067142Y285854D01*
X-1067142Y212496D01*
X342379Y5057630D02*
G01*
X270576Y5057630D01*
X270576Y5157350D01*
X342379Y5157350D01*
X387621Y5057630D02*
G01*
X459425Y5057630D01*
X459425Y5157350D01*
X387621Y5157350D01*
X-2252616Y6192347D02*
G01*
X-2331626Y6192347D01*
X-2331626Y6092626D02*
G01*
X-2252616Y6092626D01*
X-2346866Y6177107D02*
G01*
X-2346866Y6107866D01*
X-2128365Y6092626D02*
G01*
X-2207374Y6092626D01*
X-2207374Y6192347D02*
G01*
X-2128365Y6192347D01*
X-2113125Y6177107D02*
G01*
X-2113125Y6107866D01*
X-1582356Y-1165118D02*
G01*
X-1582356Y-1244127D01*
X-1482636Y-1244127D02*
G01*
X-1482636Y-1165118D01*
X-1567116Y-1259367D02*
G01*
X-1497876Y-1259367D01*
X-1482636Y-1040866D02*
G01*
X-1482636Y-1119875D01*
X-1582356Y-1119875D02*
G01*
X-1582356Y-1040866D01*
X-1567116Y-1025626D02*
G01*
X-1497876Y-1025626D01*
X-983366Y-1025138D02*
G01*
X-1062375Y-1025138D01*
X-1062375Y-1124859D02*
G01*
X-983366Y-1124859D01*
X-968126Y-1109619D02*
G01*
X-968126Y-1040378D01*
X-1186627Y-1025138D02*
G01*
X-1107617Y-1025138D01*
X-1107617Y-1124859D02*
G01*
X-1186627Y-1124859D01*
X-1201867Y-1109619D02*
G01*
X-1201867Y-1040378D01*
X-2147356Y4114121D02*
G01*
X-2147356Y4035112D01*
X-2047636Y4035112D02*
G01*
X-2047636Y4114121D01*
X-2062876Y4129361D02*
G01*
X-2132116Y4129361D01*
X-2147356Y3910860D02*
G01*
X-2147356Y3989870D01*
X-2047636Y3989870D02*
G01*
X-2047636Y3910860D01*
X-2062876Y3895620D02*
G01*
X-2132116Y3895620D01*
X-1777619Y2942633D02*
G01*
X-1849422Y2942633D01*
X-1849422Y3042353D01*
X-1777619Y3042353D01*
X-1732376Y2942633D02*
G01*
X-1660573Y2942633D01*
X-1660573Y3042353D01*
X-1732376Y3042353D01*
X-1542376Y3042353D02*
G01*
X-1470573Y3042353D01*
X-1470573Y2942633D01*
X-1542376Y2942633D01*
X-1587619Y3042353D02*
G01*
X-1659422Y3042353D01*
X-1659422Y2942633D01*
X-1587619Y2942633D01*
X-2379855Y3684122D02*
G01*
X-2379855Y3605113D01*
X-2280135Y3605113D02*
G01*
X-2280135Y3684122D01*
X-2295375Y3699362D02*
G01*
X-2364615Y3699362D01*
X-2379855Y3480861D02*
G01*
X-2379855Y3559870D01*
X-2280135Y3559870D02*
G01*
X-2280135Y3480861D01*
X-2295375Y3465621D02*
G01*
X-2364615Y3465621D01*
X-2027356Y4114121D02*
G01*
X-2027356Y4035112D01*
X-1927636Y4035112D02*
G01*
X-1927636Y4114121D01*
X-1942876Y4129361D02*
G01*
X-2012116Y4129361D01*
X-2027356Y3910860D02*
G01*
X-2027356Y3989870D01*
X-1927636Y3989870D02*
G01*
X-1927636Y3910860D01*
X-1942876Y3895620D02*
G01*
X-2012116Y3895620D01*
D10*
X-2285908Y3972118D02*
G01*
X-2285908Y4086418D01*
X-2285908Y4099118D01*
X-2311308Y4124518D01*
X-2451008Y4124518D01*
X-2463708Y4124518D01*
X-2489108Y4099118D01*
X-2489108Y3972118D01*
X-2489108Y3895918D02*
G01*
X-2489108Y3781618D01*
X-2489108Y3768918D01*
X-2463708Y3743518D01*
X-2324008Y3743518D01*
X-2311308Y3743518D01*
X-2285908Y3768918D01*
X-2285908Y3895918D01*
D11*
G75*
G01*
X-2331626Y5389850D02*
G03*
X-2346866Y5374610I0J-15240D01*
G75*
G01*
X-2346866Y5305369D02*
G03*
X-2331626Y5290129I15240J0D01*
G75*
G01*
X-2128365Y5389850D02*
G02*
X-2113125Y5374610I0J-15240D01*
G75*
G01*
X-2113125Y5305369D02*
G02*
X-2128365Y5290129I-15240J0D01*
D20*
G75*
G01*
X-363035Y4952947D02*
G03*
X-363588Y4952957I-47J12499D01*
D11*
G75*
G01*
X869Y5554848D02*
G03*
X-14371Y5539608I0J-15240D01*
G75*
G01*
X-14371Y5470368D02*
G03*
X869Y5455128I15240J0D01*
G75*
G01*
X204130Y5554848D02*
G02*
X219370Y5539608I0J-15240D01*
G75*
G01*
X219370Y5470368D02*
G02*
X204130Y5455128I-15240J0D01*
G75*
G01*
X-179131Y5124849D02*
G03*
X-194371Y5109609I0J-15240D01*
G75*
G01*
X-194371Y5040368D02*
G03*
X-179131Y5025128I15240J0D01*
G75*
G01*
X24130Y5124849D02*
G02*
X39370Y5109609I0J-15240D01*
G75*
G01*
X39370Y5040368D02*
G02*
X24130Y5025128I-15240J0D01*
G75*
G01*
X-786628Y5084849D02*
G03*
X-801868Y5069609I0J-15240D01*
G75*
G01*
X-801868Y5000368D02*
G03*
X-786628Y4985128I15240J0D01*
G75*
G01*
X-583367Y5084849D02*
G02*
X-568127Y5069609I0J-15240D01*
G75*
G01*
X-568127Y5000368D02*
G02*
X-583367Y4985128I-15240J0D01*
G75*
G01*
X487883Y4565129D02*
G03*
X503123Y4580369I0J15240D01*
G75*
G01*
X503123Y4649610D02*
G03*
X487883Y4664850I-15240J0D01*
G75*
G01*
X284622Y4565129D02*
G02*
X269382Y4580369I0J15240D01*
G75*
G01*
X269382Y4649610D02*
G02*
X284622Y4664850I15240J0D01*
G75*
G01*
X-638368Y4417632D02*
G03*
X-623128Y4432872I0J15240D01*
G75*
G01*
X-623128Y4502112D02*
G03*
X-638368Y4517352I-15240J0D01*
G75*
G01*
X-841629Y4417632D02*
G02*
X-856869Y4432872I0J15240D01*
G75*
G01*
X-856869Y4502112D02*
G02*
X-841629Y4517352I15240J0D01*
G75*
G01*
X-604858Y4433359D02*
G03*
X-589618Y4418119I15240J0D01*
G75*
G01*
X-520377Y4418119D02*
G03*
X-505137Y4433359I0J15240D01*
G75*
G01*
X-604858Y4636620D02*
G02*
X-589618Y4651860I15240J0D01*
G75*
G01*
X-520377Y4651860D02*
G02*
X-505137Y4636620I0J-15240D01*
G75*
G01*
X-489857Y4433359D02*
G03*
X-474617Y4418119I15240J0D01*
G75*
G01*
X-405376Y4418119D02*
G03*
X-390136Y4433359I0J15240D01*
G75*
G01*
X-489857Y4636620D02*
G02*
X-474617Y4651860I15240J0D01*
G75*
G01*
X-405376Y4651860D02*
G02*
X-390136Y4636620I0J-15240D01*
G75*
G01*
X-830138Y5069121D02*
G03*
X-845378Y5084361I-15240J0D01*
G75*
G01*
X-914618Y5084361D02*
G03*
X-929858Y5069121I0J-15240D01*
G75*
G01*
X-830138Y4865860D02*
G02*
X-845378Y4850620I-15240J0D01*
G75*
G01*
X-914618Y4850620D02*
G02*
X-929858Y4865860I0J15240D01*
G75*
G01*
X487883Y4420131D02*
G03*
X503123Y4435371I0J15240D01*
G75*
G01*
X503123Y4504611D02*
G03*
X487883Y4519851I-15240J0D01*
G75*
G01*
X284622Y4420131D02*
G02*
X269382Y4435371I0J15240D01*
G75*
G01*
X269382Y4504611D02*
G02*
X284622Y4519851I15240J0D01*
G75*
G01*
X487883Y4710128D02*
G03*
X503123Y4725368I0J15240D01*
G75*
G01*
X503123Y4794608D02*
G03*
X487883Y4809848I-15240J0D01*
G75*
G01*
X284622Y4710128D02*
G02*
X269382Y4725368I0J15240D01*
G75*
G01*
X269382Y4794608D02*
G02*
X284622Y4809848I15240J0D01*
D21*
G75*
G01*
X-747072Y4614484D02*
G03*
X-747326Y4614484I-127J15001D01*
D11*
G75*
G01*
X-2337636Y4374121D02*
G03*
X-2352876Y4389361I-15240J0D01*
G75*
G01*
X-2422116Y4389361D02*
G03*
X-2437356Y4374121I0J-15240D01*
G75*
G01*
X-2337636Y4170860D02*
G02*
X-2352876Y4155620I-15240J0D01*
G75*
G01*
X-2422116Y4155620D02*
G02*
X-2437356Y4170860I0J15240D01*
G75*
G01*
X-2337636Y4704121D02*
G03*
X-2352876Y4719361I-15240J0D01*
G75*
G01*
X-2422116Y4719361D02*
G03*
X-2437356Y4704121I0J-15240D01*
G75*
G01*
X-2337636Y4500860D02*
G02*
X-2352876Y4485620I-15240J0D01*
G75*
G01*
X-2422116Y4485620D02*
G02*
X-2437356Y4500860I0J15240D01*
G75*
G01*
X-2914853Y4500860D02*
G03*
X-2899613Y4485620I15240J0D01*
G75*
G01*
X-2830373Y4485620D02*
G03*
X-2815133Y4500860I0J15240D01*
G75*
G01*
X-2914853Y4704121D02*
G02*
X-2899613Y4719361I15240J0D01*
G75*
G01*
X-2830373Y4719361D02*
G02*
X-2815133Y4704121I0J-15240D01*
G75*
G01*
X-1564635Y1616123D02*
G03*
X-1579877Y1631356I-15240J-7D01*
G75*
G01*
X-1730108Y1631356D02*
G03*
X-1745351Y1616123I-3J-15240D01*
G75*
G01*
X-1564635Y1253874D02*
G02*
X-1579877Y1238631I-15240J-3D01*
G75*
G01*
X-1730108Y1238631D02*
G02*
X-1745351Y1253874I-3J15240D01*
G75*
G01*
X-1547637Y844128D02*
G03*
X-1562877Y859368I-15240J0D01*
G75*
G01*
X-1632118Y859368D02*
G03*
X-1647358Y844128I0J-15240D01*
G75*
G01*
X-1547637Y640867D02*
G02*
X-1562877Y625627I-15240J0D01*
G75*
G01*
X-1632118Y625627D02*
G02*
X-1647358Y640867I0J15240D01*
D10*
G75*
G01*
X-3073885Y4695731D02*
G03*
X-3071091Y4504159I28080J-95397D01*
D11*
G75*
G01*
X-832358Y-816630D02*
G03*
X-817118Y-831870I15240J0D01*
G75*
G01*
X-747878Y-831870D02*
G03*
X-732638Y-816630I0J15240D01*
G75*
G01*
X-832358Y-613369D02*
G02*
X-817118Y-598129I15240J0D01*
G75*
G01*
X-747878Y-598129D02*
G02*
X-732638Y-613369I0J-15240D01*
G75*
G01*
X-806628Y-2642D02*
G03*
X-821868Y-17882I0J-15240D01*
G75*
G01*
X-821868Y-87122D02*
G03*
X-806628Y-102362I15240J0D01*
G75*
G01*
X-603367Y-2642D02*
G02*
X-588127Y-17882I0J-15240D01*
G75*
G01*
X-588127Y-87122D02*
G02*
X-603367Y-102362I-15240J0D01*
G75*
G01*
X562359Y191630D02*
G03*
X547119Y206870I-15240J0D01*
G75*
G01*
X477878Y206870D02*
G03*
X462638Y191630I0J-15240D01*
G75*
G01*
X562359Y-11631D02*
G02*
X547119Y-26871I-15240J0D01*
G75*
G01*
X477878Y-26871D02*
G02*
X462638Y-11631I0J15240D01*
G75*
G01*
X-2645865Y37640D02*
G03*
X-2630625Y52880I0J15240D01*
G75*
G01*
X-2630625Y122121D02*
G03*
X-2645865Y137361I-15240J0D01*
G75*
G01*
X-2849126Y37640D02*
G02*
X-2864366Y52880I0J15240D01*
G75*
G01*
X-2864366Y122121D02*
G02*
X-2849126Y137361I15240J0D01*
G75*
G01*
X-1563365Y370139D02*
G03*
X-1548125Y385379I0J15240D01*
G75*
G01*
X-1548125Y454619D02*
G03*
X-1563365Y469859I-15240J0D01*
G75*
G01*
X-1766626Y370139D02*
G02*
X-1781866Y385379I0J15240D01*
G75*
G01*
X-1781866Y454619D02*
G02*
X-1766626Y469859I15240J0D01*
G75*
G01*
X-2328365Y527639D02*
G03*
X-2313125Y542879I0J15240D01*
G75*
G01*
X-2313125Y612120D02*
G03*
X-2328365Y627360I-15240J0D01*
G75*
G01*
X-2531626Y527639D02*
G02*
X-2546866Y542879I0J15240D01*
G75*
G01*
X-2546866Y612120D02*
G02*
X-2531626Y627360I15240J0D01*
G75*
G01*
X-2645865Y-77361D02*
G03*
X-2630625Y-62121I0J15240D01*
G75*
G01*
X-2630625Y7120D02*
G03*
X-2645865Y22360I-15240J0D01*
G75*
G01*
X-2849126Y-77361D02*
G02*
X-2864366Y-62121I0J15240D01*
G75*
G01*
X-2864366Y7120D02*
G02*
X-2849126Y22360I15240J0D01*
G75*
G01*
X-2645865Y267640D02*
G03*
X-2630625Y282880I0J15240D01*
G75*
G01*
X-2630625Y352120D02*
G03*
X-2645865Y367360I-15240J0D01*
G75*
G01*
X-2849126Y267640D02*
G02*
X-2864366Y282880I0J15240D01*
G75*
G01*
X-2864366Y352120D02*
G02*
X-2849126Y367360I15240J0D01*
G75*
G01*
X-2645865Y-582358D02*
G03*
X-2630625Y-567118I0J15240D01*
G75*
G01*
X-2630625Y-497878D02*
G03*
X-2645865Y-482638I-15240J0D01*
G75*
G01*
X-2849126Y-582358D02*
G02*
X-2864366Y-567118I0J15240D01*
G75*
G01*
X-2864366Y-497878D02*
G02*
X-2849126Y-482638I15240J0D01*
G75*
G01*
X-2645865Y-467360D02*
G03*
X-2630625Y-452120I0J15240D01*
G75*
G01*
X-2630625Y-382880D02*
G03*
X-2645865Y-367640I-15240J0D01*
G75*
G01*
X-2849126Y-467360D02*
G02*
X-2864366Y-452120I0J15240D01*
G75*
G01*
X-2864366Y-382880D02*
G02*
X-2849126Y-367640I15240J0D01*
G75*
G01*
X-1523365Y-992358D02*
G03*
X-1508125Y-977118I0J15240D01*
G75*
G01*
X-1508125Y-907877D02*
G03*
X-1523365Y-892637I-15240J0D01*
G75*
G01*
X-1726626Y-992358D02*
G02*
X-1741866Y-977118I0J15240D01*
G75*
G01*
X-1741866Y-907877D02*
G02*
X-1726626Y-892637I15240J0D01*
G75*
G01*
X-1477355Y-979127D02*
G03*
X-1462115Y-994367I15240J0D01*
G75*
G01*
X-1392875Y-994367D02*
G03*
X-1377635Y-979127I0J15240D01*
G75*
G01*
X-1477355Y-775866D02*
G02*
X-1462115Y-760626I15240J0D01*
G75*
G01*
X-1392875Y-760626D02*
G02*
X-1377635Y-775866I0J-15240D01*
G75*
G01*
X-1523365Y-464858D02*
G03*
X-1508125Y-449618I0J15240D01*
G75*
G01*
X-1508125Y-380378D02*
G03*
X-1523365Y-365138I-15240J0D01*
G75*
G01*
X-1726626Y-464858D02*
G02*
X-1741866Y-449618I0J15240D01*
G75*
G01*
X-1741866Y-380378D02*
G02*
X-1726626Y-365138I15240J0D01*
G75*
G01*
X-1110866Y-464858D02*
G03*
X-1095626Y-449618I0J15240D01*
G75*
G01*
X-1095626Y-380378D02*
G03*
X-1110866Y-365138I-15240J0D01*
G75*
G01*
X-1314127Y-464858D02*
G02*
X-1329367Y-449618I0J15240D01*
G75*
G01*
X-1329367Y-380378D02*
G02*
X-1314127Y-365138I15240J0D01*
G75*
G01*
X-1062358Y-979127D02*
G03*
X-1047118Y-994367I15240J0D01*
G75*
G01*
X-977877Y-994367D02*
G03*
X-962637Y-979127I0J15240D01*
G75*
G01*
X-1062358Y-775866D02*
G02*
X-1047118Y-760626I15240J0D01*
G75*
G01*
X-977877Y-760626D02*
G02*
X-962637Y-775866I0J-15240D01*
G75*
G01*
X-1314127Y-892637D02*
G03*
X-1329367Y-907877I0J-15240D01*
G75*
G01*
X-1329367Y-977118D02*
G03*
X-1314127Y-992358I15240J0D01*
G75*
G01*
X-1110866Y-892637D02*
G02*
X-1095626Y-907877I0J-15240D01*
G75*
G01*
X-1095626Y-977118D02*
G02*
X-1110866Y-992358I-15240J0D01*
G75*
G01*
X-132359Y698368D02*
G03*
X-117119Y683128I15240J0D01*
G75*
G01*
X-47879Y683128D02*
G03*
X-32639Y698368I0J15240D01*
G75*
G01*
X-132359Y901629D02*
G02*
X-117119Y916869I15240J0D01*
G75*
G01*
X-47879Y916869D02*
G02*
X-32639Y901629I0J-15240D01*
G75*
G01*
X646120Y4852129D02*
G03*
X661360Y4867369I0J15240D01*
G75*
G01*
X661360Y5017610D02*
G03*
X646120Y5032850I-15240J0D01*
G75*
G01*
X283881Y4852129D02*
G02*
X268641Y4867369I0J15240D01*
G75*
G01*
X268641Y5017610D02*
G02*
X283881Y5032850I15240J0D01*
G75*
G01*
X-310883Y-529862D02*
G03*
X-295643Y-514622I0J15240D01*
G75*
G01*
X-295643Y-445381D02*
G03*
X-310883Y-430141I-15240J0D01*
G75*
G01*
X-514144Y-529862D02*
G02*
X-529384Y-514622I0J15240D01*
G75*
G01*
X-529384Y-445381D02*
G02*
X-514144Y-430141I15240J0D01*
G75*
G01*
X-2645865Y-697360D02*
G03*
X-2630625Y-682120I0J15240D01*
G75*
G01*
X-2630625Y-612879D02*
G03*
X-2645865Y-597639I-15240J0D01*
G75*
G01*
X-2849126Y-697360D02*
G02*
X-2864366Y-682120I0J15240D01*
G75*
G01*
X-2864366Y-612879D02*
G02*
X-2849126Y-597639I15240J0D01*
G75*
G01*
X-2645865Y-1042360D02*
G03*
X-2630625Y-1027120I0J15240D01*
G75*
G01*
X-2630625Y-957880D02*
G03*
X-2645865Y-942640I-15240J0D01*
G75*
G01*
X-2849126Y-1042360D02*
G02*
X-2864366Y-1027120I0J15240D01*
G75*
G01*
X-2864366Y-957880D02*
G02*
X-2849126Y-942640I15240J0D01*
G75*
G01*
X-2645865Y-812358D02*
G03*
X-2630625Y-797118I0J15240D01*
G75*
G01*
X-2630625Y-727878D02*
G03*
X-2645865Y-712638I-15240J0D01*
G75*
G01*
X-2849126Y-812358D02*
G02*
X-2864366Y-797118I0J15240D01*
G75*
G01*
X-2864366Y-727878D02*
G02*
X-2849126Y-712638I15240J0D01*
G75*
G01*
X-1782635Y-633369D02*
G03*
X-1797876Y-618129I-15241J0D01*
G75*
G01*
X-1867116Y-618129D02*
G03*
X-1882356Y-633369I0J-15240D01*
G75*
G01*
X-1782635Y-836630D02*
G02*
X-1797876Y-851870I-15241J0D01*
G75*
G01*
X-1867116Y-851870D02*
G02*
X-1882356Y-836630I0J15240D01*
G75*
G01*
X-2645865Y-927359D02*
G03*
X-2630625Y-912119I0J15240D01*
G75*
G01*
X-2630625Y-842879D02*
G03*
X-2645865Y-827639I-15240J0D01*
G75*
G01*
X-2849126Y-927359D02*
G02*
X-2864366Y-912119I0J15240D01*
G75*
G01*
X-2864366Y-842879D02*
G02*
X-2849126Y-827639I15240J0D01*
G75*
G01*
X-1882356Y-584129D02*
G03*
X-1867116Y-599369I15240J0D01*
G75*
G01*
X-1797876Y-599369D02*
G03*
X-1782635Y-584129I0J15240D01*
G75*
G01*
X-1882356Y-380868D02*
G02*
X-1867116Y-365628I15240J0D01*
G75*
G01*
X-1797876Y-365628D02*
G02*
X-1782635Y-380868I0J-15240D01*
G75*
G01*
X562343Y-63373D02*
G03*
X547103Y-48133I-15240J0D01*
G75*
G01*
X477863Y-48133D02*
G03*
X462623Y-63373I0J-15240D01*
G75*
G01*
X562343Y-266634D02*
G02*
X547103Y-281874I-15240J0D01*
G75*
G01*
X477863Y-281874D02*
G02*
X462623Y-266634I0J15240D01*
G75*
G01*
X462623Y-516633D02*
G03*
X477863Y-531873I15240J0D01*
G75*
G01*
X547103Y-531873D02*
G03*
X562343Y-516633I0J15240D01*
G75*
G01*
X462623Y-313373D02*
G02*
X477863Y-298132I15240J0D01*
G75*
G01*
X547103Y-298132D02*
G02*
X562343Y-313373I0J-15241D01*
D10*
G75*
G01*
X-243060Y-575145D02*
G02*
X-212077Y-606128I0J-30983D01*
G75*
G01*
X-354043Y-606128D02*
G02*
X-323060Y-575145I30983J0D01*
G75*
G01*
X-212659Y-823714D02*
G02*
X-243642Y-854697I-30983J0D01*
G75*
G01*
X-323642Y-854697D02*
G02*
X-354625Y-823714I0J30983D01*
G75*
G01*
X-415552Y-575150D02*
G02*
X-384569Y-606133I0J-30983D01*
G75*
G01*
X-526534Y-606133D02*
G02*
X-495551Y-575150I30983J0D01*
G75*
G01*
X-385150Y-823719D02*
G02*
X-416133Y-854702I-30983J0D01*
G75*
G01*
X-496133Y-854702D02*
G02*
X-527116Y-823719I0J30983D01*
D11*
G75*
G01*
X-1238367Y-1124859D02*
G03*
X-1223127Y-1109619I0J15240D01*
G75*
G01*
X-1223127Y-1040379D02*
G03*
X-1238367Y-1025139I-15240J0D01*
G75*
G01*
X-1441628Y-1124859D02*
G02*
X-1456868Y-1109619I0J15240D01*
G75*
G01*
X-1456868Y-1040379D02*
G02*
X-1441628Y-1025139I15240J0D01*
G75*
G01*
X556631Y-1227358D02*
G03*
X571871Y-1212118I0J15240D01*
G75*
G01*
X571871Y-1142878D02*
G03*
X556631Y-1127638I-15240J0D01*
G75*
G01*
X353370Y-1227358D02*
G02*
X338130Y-1212118I0J15240D01*
G75*
G01*
X338130Y-1142878D02*
G02*
X353370Y-1127638I15240J0D01*
G75*
G01*
X342626Y-266634D02*
G03*
X357866Y-281874I15240J0D01*
G75*
G01*
X427106Y-281874D02*
G03*
X442346Y-266634I0J15240D01*
G75*
G01*
X342626Y-63373D02*
G02*
X357866Y-48133I15240J0D01*
G75*
G01*
X427106Y-48133D02*
G02*
X442346Y-63373I0J-15240D01*
G75*
G01*
X342626Y-516633D02*
G03*
X357866Y-531873I15240J0D01*
G75*
G01*
X427106Y-531873D02*
G03*
X442346Y-516633I0J15240D01*
G75*
G01*
X342626Y-313373D02*
G02*
X357866Y-298132I15240J0D01*
G75*
G01*
X427106Y-298132D02*
G02*
X442346Y-313373I0J-15241D01*
G75*
G01*
X502387Y-2482116D02*
G03*
X523941Y-2482116I10777J10775D01*
G75*
G01*
X572900Y-2433157D02*
G03*
X572900Y-2411603I-10776J10777D01*
G75*
G01*
X358661Y-2338390D02*
G02*
X358661Y-2316836I10775J10777D01*
G75*
G01*
X407619Y-2267877D02*
G02*
X429174Y-2267877I10777J-10775D01*
G75*
G01*
X-2849126Y-1057638D02*
G03*
X-2864366Y-1072878I0J-15240D01*
G75*
G01*
X-2864366Y-1142119D02*
G03*
X-2849126Y-1157359I15240J0D01*
G75*
G01*
X-2645865Y-1057638D02*
G02*
X-2630625Y-1072878I0J-15240D01*
G75*
G01*
X-2630625Y-1142119D02*
G02*
X-2645865Y-1157359I-15240J0D01*
G75*
G01*
X-1782635Y-940867D02*
G03*
X-1797876Y-925627I-15241J0D01*
G75*
G01*
X-1867116Y-925627D02*
G03*
X-1882356Y-940867I0J-15240D01*
G75*
G01*
X-1782635Y-1144128D02*
G02*
X-1797876Y-1159368I-15241J0D01*
G75*
G01*
X-1867116Y-1159368D02*
G02*
X-1882356Y-1144128I0J15240D01*
G75*
G01*
X-2192868Y-1057631D02*
G03*
X-2208108Y-1072873I0J-15240D01*
G75*
G01*
X-2208108Y-1142108D02*
G03*
X-2192868Y-1157351I15240J-3D01*
G75*
G01*
X-1989607Y-1057631D02*
G02*
X-1974367Y-1072873I0J-15240D01*
G75*
G01*
X-1974367Y-1142108D02*
G02*
X-1989607Y-1157351I-15240J-3D01*
G75*
G01*
X-2502870Y-1057631D02*
G03*
X-2518110Y-1072871I0J-15240D01*
G75*
G01*
X-2518110Y-1142111D02*
G03*
X-2502870Y-1157351I15240J0D01*
G75*
G01*
X-2299609Y-1057631D02*
G02*
X-2284369Y-1072871I0J-15240D01*
G75*
G01*
X-2284369Y-1142111D02*
G02*
X-2299609Y-1157351I-15240J0D01*
G75*
G01*
X-394129Y914857D02*
G03*
X-409369Y899617I0J-15240D01*
G75*
G01*
X-409369Y830377D02*
G03*
X-394129Y815137I15240J0D01*
G75*
G01*
X-190868Y914857D02*
G02*
X-175628Y899617I0J-15240D01*
G75*
G01*
X-175628Y830377D02*
G02*
X-190868Y815137I-15240J0D01*
G75*
G01*
X-394129Y794857D02*
G03*
X-409369Y779617I0J-15240D01*
G75*
G01*
X-409369Y710377D02*
G03*
X-394129Y695137I15240J0D01*
G75*
G01*
X-190868Y794857D02*
G02*
X-175628Y779617I0J-15240D01*
G75*
G01*
X-175628Y710377D02*
G02*
X-190868Y695137I-15240J0D01*
G75*
G01*
X-2331626Y6192347D02*
G03*
X-2346866Y6177107I0J-15240D01*
G75*
G01*
X-2346866Y6107867D02*
G03*
X-2331626Y6092627I15240J0D01*
G75*
G01*
X-2128365Y6192347D02*
G02*
X-2113125Y6177107I0J-15240D01*
G75*
G01*
X-2113125Y6107867D02*
G02*
X-2128365Y6092627I-15240J0D01*
G75*
G01*
X-1582357Y-1244128D02*
G03*
X-1567116Y-1259368I15241J0D01*
G75*
G01*
X-1497876Y-1259368D02*
G03*
X-1482636Y-1244128I0J15240D01*
G75*
G01*
X-1582357Y-1040867D02*
G02*
X-1567116Y-1025627I15241J0D01*
G75*
G01*
X-1497876Y-1025627D02*
G02*
X-1482636Y-1040867I0J-15240D01*
G75*
G01*
X-983366Y-1124859D02*
G03*
X-968126Y-1109619I0J15240D01*
G75*
G01*
X-968126Y-1040379D02*
G03*
X-983366Y-1025139I-15240J0D01*
G75*
G01*
X-1186627Y-1124859D02*
G02*
X-1201867Y-1109619I0J15240D01*
G75*
G01*
X-1201867Y-1040379D02*
G02*
X-1186627Y-1025139I15240J0D01*
G75*
G01*
X-2047636Y4114122D02*
G03*
X-2062876Y4129362I-15240J0D01*
G75*
G01*
X-2132117Y4129362D02*
G03*
X-2147357Y4114122I0J-15240D01*
G75*
G01*
X-2047636Y3910861D02*
G02*
X-2062876Y3895621I-15240J0D01*
G75*
G01*
X-2132117Y3895621D02*
G02*
X-2147357Y3910861I0J15240D01*
G75*
G01*
X-2280135Y3684123D02*
G03*
X-2295375Y3699363I-15240J0D01*
G75*
G01*
X-2364616Y3699363D02*
G03*
X-2379856Y3684123I0J-15240D01*
G75*
G01*
X-2280135Y3480862D02*
G02*
X-2295375Y3465622I-15240J0D01*
G75*
G01*
X-2364616Y3465622D02*
G02*
X-2379856Y3480862I0J15240D01*
G75*
G01*
X-1927636Y4114122D02*
G03*
X-1942876Y4129362I-15240J0D01*
G75*
G01*
X-2012117Y4129362D02*
G03*
X-2027357Y4114122I0J-15240D01*
G75*
G01*
X-1927636Y3910861D02*
G02*
X-1942876Y3895621I-15240J0D01*
G75*
G01*
X-2012117Y3895621D02*
G02*
X-2027357Y3910861I0J15240D01*
D21*
G75*
G01
X-1582910Y5679171D02*
G03X-1582910Y5679171I-14580J0D01*
G75*
G01
X363416Y5624002D02*
G03X363416Y5624002I-15011J0D01*
D14*
G75*
G01
X-2302492Y5416992D02*
G03X-2302492Y5416992I-7493J0D01*
D21*
G75*
G01
X-2481080Y4435663D02*
G03X-2481080Y4435663I-15011J0D01*
D22*
G75*
G01
X-1901020Y996503D02*
G03X-1901020Y996503I-11989J0D01*
D15*
G75*
G01
X862703Y4841479D02*
G03X862703Y4841479I-6706J0D01*
G75*
G01
X645203Y903488D02*
G03X645203Y903488I-6706J0D01*
D10*
G75*
G01
X-2054360Y2172498D02*
G03X-2054360Y2172498I-38100J0D01*
D21*
G75*
G01
X-734957Y-1232499D02*
G03X-734957Y-1232499I-15011J0D01*
G75*
G01
X-1337470Y892515D02*
G03X-1337470Y892515I-15011J0D01*
D22*
G75*
G01
X-209507Y419466D02*
G03X-209507Y419466I-11989J0D01*
D23*
G75*
G01
X-892513Y-160010D02*
G03X-892513Y-160010I-12497J0D01*
D22*
G75*
G01
X-1809529Y201991D02*
G03X-1809529Y201991I-11989J0D01*
D17*
G75*
G01
X-2864493Y591398D02*
G03X-2864493Y591398I-10008J0D01*
D12*
G75*
G01
X-2589995Y287487D02*
G03X-2589995Y287487I-10008J0D01*
D14*
G75*
G01
X-1702519Y-823001D02*
G03X-1702519Y-823001I-7493J0D01*
G75*
G01
X-1280015Y-823001D02*
G03X-1280015Y-823001I-7493J0D01*
D24*
G75*
G01
X-555760Y-1059983D02*
G03X-555760Y-1059983I-8763J0D01*
D17*
G75*
G01
X-2124921Y5894969D02*
G03X-2124921Y5894969I-5080J0D01*
D10*
G75*
G01
X-2473587Y-987313D02*
G03X-2473587Y-987313I-12497J0D01*
D14*
G75*
G01
X165270Y-35677D02*
G03X165270Y-35677I-7493J0D01*
G75*
G01
X610481Y-1062523D02*
G03X610481Y-1062523I-7493J0D01*
D10*
G75*
G01
X325951Y-2534046D02*
G03X325951Y-2534046I-31750J0D01*
G36*
X-2022482Y6104163D02*
G01*
X-1172471Y6104163D01*
X-1172471Y5254152D01*
X-2022482Y5254152D01*
G37*
M02*
